<svg id="Layer_1" data-name="Layer 1" xmlns="http://www.w3.org/2000/svg" xmlns:xlink="http://www.w3.org/1999/xlink" viewBox="0 0 350 311.43"><defs><style>.cls-1,.cls-7,.cls-8{fill:#fff;}.cls-2{fill:#c1ad73;}.cls-3{fill:#ececec;}.cls-4{fill:#ccc;}.cls-5{fill:#d8cbad;}.cls-6,.cls-9{opacity:0.05;isolation:isolate;}.cls-6{fill:url(#linear-gradient);}.cls-7{opacity:0.65;}.cls-8{opacity:0.1;}.cls-9{fill:url(#linear-gradient-2);}</style><linearGradient id="linear-gradient" x1="288.72" y1="263.94" x2="348.99" y2="263.94" gradientTransform="matrix(1, 0, 0, -1, 0, 314)" gradientUnits="userSpaceOnUse"><stop offset="0" stop-color="#c69c6d"/><stop offset="0.1" stop-color="#a3815a"/><stop offset="0.26" stop-color="#725a3f"/><stop offset="0.42" stop-color="#493a28"/><stop offset="0.58" stop-color="#292017"/><stop offset="0.73" stop-color="#120e0a"/><stop offset="0.87" stop-color="#050403"/><stop offset="1"/></linearGradient><linearGradient id="linear-gradient-2" x1="93.97" y1="194.35" x2="206.45" y2="194.35" gradientTransform="matrix(1, 0, 0, 1, 0, 0)" xlink:href="#linear-gradient"/></defs><title>AMMA_lightArtboard 1 copy 2</title><rect class="cls-1" x="0.12" y="143.38" width="75.83" height="44.94"/><polygon class="cls-2" points="22.43 148.05 21.54 147.75 23.72 140.41 24.61 140.72 22.43 148.05"/><polygon class="cls-2" points="24.38 148.72 23.47 148.41 24.17 146.05 25.08 146.36 24.38 148.72"/><polygon class="cls-2" points="26.22 149.35 25.36 149.05 28.36 138.95 29.22 139.25 26.22 149.35"/><polygon class="cls-2" points="33.1 147.43 32.24 147.83 29.36 140.79 30.21 140.38 33.1 147.43"/><polygon class="cls-2" points="34.97 146.55 34.1 146.96 33.17 144.69 34.04 144.28 34.97 146.55"/><polygon class="cls-2" points="36.74 145.72 35.91 146.1 31.94 136.4 32.76 136.01 36.74 145.72"/><path class="cls-2" d="M9.62,94.51h0a4,4,0,0,1,4,4v62.84a4,4,0,0,1-4,4h0a4,4,0,0,1-4-4V98.49A4,4,0,0,1,9.62,94.51Z"/><path class="cls-3" d="M6.28,120.93V159.4c0,2.08,1.34,3.79,3,3.79H10c1.64,0,3-1.7,3-3.79V120.93Z"/><polygon class="cls-4" points="13.78 148.5 5.57 148.69 5.57 129.31 13.6 129.29 13.78 148.5"/><rect class="cls-5" x="7.15" y="131.43" width="0.91" height="6.94"/><rect class="cls-5" x="9.18" y="131.43" width="0.96" height="12.14"/><rect class="cls-2" x="7.15" y="139.01" width="0.93" height="7.7"/><rect class="cls-2" x="9.18" y="144.24" width="0.95" height="2.48"/><rect class="cls-2" x="11.16" y="136.11" width="0.9" height="10.6"/><rect class="cls-2" x="11.16" y="131.45" width="0.9" height="3.98"/><rect class="cls-2" x="0.12" y="134.78" width="75.83" height="9.28"/><polygon class="cls-4" points="13.6 129.3 13.6 129.29 5.57 129.31 5.57 132.02 13.6 129.3"/><rect class="cls-2" x="11.16" y="134.78" width="0.9" height="0.65"/><rect class="cls-2" x="9.18" y="131.43" width="0.96" height="3.35"/><rect class="cls-2" x="7.15" y="131.43" width="0.91" height="3.35"/><polygon class="cls-2" points="33.1 147.08 32.24 147.49 29.36 140.44 30.21 140.04 33.1 147.08"/><polygon class="cls-2" points="34.97 146.2 34.1 146.61 33.17 144.35 34.04 143.94 34.97 146.2"/><polygon class="cls-2" points="36.74 145.37 35.91 145.76 31.94 136.05 32.76 135.66 36.74 145.37"/><rect class="cls-1" x="0.12" y="143.38" width="95.74" height="44.94"/><path class="cls-2" d="M15.23,106.14l-11.32.1a.35.35,0,0,1-.37-.35l.09-11.31A.37.37,0,0,1,4,94.21H4l11.32-.1a.35.35,0,0,1,.37.35l-.09,11.3a.37.37,0,0,1-.34.37Z"/><polygon class="cls-4" points="4.49 106.25 3.89 106.25 4 94.25 4.58 94.24 4.49 106.25"/><polygon class="cls-4" points="5.68 106.23 5.1 106.24 5.2 94.23 5.79 94.23 5.68 106.23"/><polygon class="cls-4" points="6.88 106.22 6.29 106.23 6.39 94.23 6.98 94.22 6.88 106.22"/><polygon class="cls-4" points="8.08 106.21 7.49 106.21 7.59 94.21 8.18 94.2 8.08 106.21"/><polygon class="cls-4" points="9.27 106.2 8.68 106.21 8.78 94.2 9.37 94.2 9.27 106.2"/><polygon class="cls-4" points="10.47 106.19 9.88 106.19 9.98 94.2 10.57 94.19 10.47 106.19"/><polygon class="cls-4" points="11.67 106.18 11.07 106.18 11.18 94.18 11.78 94.18 11.67 106.18"/><polygon class="cls-4" points="12.86 106.17 12.28 106.18 12.38 94.18 12.97 94.17 12.86 106.17"/><polygon class="cls-4" points="14.07 106.16 13.48 106.16 13.57 94.17 14.17 94.15 14.07 106.16"/><polygon class="cls-4" points="15.26 106.15 14.67 106.16 14.77 94.15 15.36 94.15 15.26 106.15"/><path class="cls-2" d="M23.08,94.51h0a4,4,0,0,1,4,4v62.84a4,4,0,0,1-4,4h0a4,4,0,0,1-4-4V98.49A4,4,0,0,1,23.08,94.51Z"/><path class="cls-3" d="M19.74,120.93V159.4c0,2.08,1.34,3.79,3,3.79h.73c1.64,0,3-1.7,3-3.79V120.93Z"/><polygon class="cls-4" points="27.23 148.5 19.02 148.69 19.02 129.31 27.05 129.29 27.23 148.5"/><rect class="cls-2" x="24.62" y="131.45" width="0.9" height="3.98"/><polygon class="cls-4" points="27.05 129.3 27.05 129.29 19.02 129.31 19.02 132.02 27.05 129.3"/><rect class="cls-2" x="22.64" y="131.43" width="0.96" height="3.35"/><rect class="cls-2" x="20.61" y="131.43" width="0.91" height="3.35"/><path class="cls-2" d="M28.69,106.14l-11.32.1a.35.35,0,0,1-.37-.35l.09-11.31a.37.37,0,0,1,.35-.36h0l11.32-.1a.35.35,0,0,1,.37.35l-.09,11.3a.37.37,0,0,1-.34.37Z"/><polygon class="cls-4" points="17.94 106.25 17.35 106.25 17.45 94.25 18.04 94.24 17.94 106.25"/><polygon class="cls-4" points="19.14 106.23 18.55 106.24 18.65 94.23 19.24 94.23 19.14 106.23"/><polygon class="cls-4" points="20.33 106.22 19.74 106.23 19.85 94.23 20.43 94.22 20.33 106.22"/><polygon class="cls-4" points="21.53 106.21 20.94 106.21 21.05 94.21 21.64 94.2 21.53 106.21"/><polygon class="cls-4" points="22.73 106.2 22.14 106.21 22.24 94.2 22.83 94.2 22.73 106.2"/><polygon class="cls-4" points="23.93 106.19 23.34 106.19 23.44 94.2 24.03 94.19 23.93 106.19"/><polygon class="cls-4" points="25.13 106.18 24.53 106.18 24.63 94.18 25.23 94.18 25.13 106.18"/><polygon class="cls-4" points="26.32 106.17 25.73 106.18 25.84 94.18 26.42 94.17 26.32 106.17"/><polygon class="cls-4" points="27.52 106.16 26.93 106.16 27.02 94.17 27.62 94.15 27.52 106.16"/><polygon class="cls-4" points="28.71 106.15 28.13 106.16 28.23 94.15 28.82 94.15 28.71 106.15"/><path class="cls-2" d="M36.53,94.51h0a4,4,0,0,1,4,4v62.84a4,4,0,0,1-4,4h0a4,4,0,0,1-4-4V98.49A4,4,0,0,1,36.53,94.51Z"/><path class="cls-3" d="M33.19,120.93V159.4c0,2.08,1.34,3.79,3,3.79h.73c1.64,0,3-1.7,3-3.79V120.93Z"/><polygon class="cls-4" points="40.69 148.5 32.48 148.69 32.48 129.31 40.51 129.29 40.69 148.5"/><rect class="cls-2" x="38.07" y="131.45" width="0.9" height="3.98"/><polygon class="cls-4" points="40.51 129.3 40.51 129.29 32.48 129.31 32.48 132.02 40.51 129.3"/><rect class="cls-2" x="36.09" y="131.43" width="0.96" height="3.35"/><rect class="cls-2" x="34.06" y="131.43" width="0.91" height="3.35"/><path class="cls-2" d="M42.14,106.14l-11.32.1a.35.35,0,0,1-.37-.35l.09-11.31a.37.37,0,0,1,.35-.36h0l11.32-.1a.35.35,0,0,1,.37.35l-.09,11.3a.37.37,0,0,1-.34.37Z"/><polygon class="cls-4" points="31.39 106.25 30.8 106.25 30.91 94.25 31.5 94.24 31.39 106.25"/><polygon class="cls-4" points="32.6 106.23 32.01 106.24 32.11 94.23 32.7 94.23 32.6 106.23"/><polygon class="cls-4" points="33.79 106.22 33.2 106.23 33.3 94.23 33.89 94.22 33.79 106.22"/><polygon class="cls-4" points="34.99 106.21 34.4 106.21 34.5 94.21 35.09 94.2 34.99 106.21"/><polygon class="cls-4" points="36.18 106.2 35.59 106.21 35.69 94.2 36.28 94.2 36.18 106.2"/><polygon class="cls-4" points="37.38 106.19 36.79 106.19 36.9 94.2 37.48 94.19 37.38 106.19"/><polygon class="cls-4" points="38.58 106.18 37.98 106.18 38.09 94.18 38.69 94.18 38.58 106.18"/><polygon class="cls-4" points="39.77 106.17 39.19 106.18 39.29 94.18 39.88 94.17 39.77 106.17"/><polygon class="cls-4" points="40.98 106.16 40.39 106.16 40.48 94.17 41.08 94.15 40.98 106.16"/><polygon class="cls-4" points="42.17 106.15 41.58 106.16 41.68 94.15 42.27 94.15 42.17 106.15"/><circle class="cls-4" cx="318.82" cy="38.94" r="30.13"/><circle class="cls-3" cx="317.53" cy="37.66" r="28.38"/><circle class="cls-1" cx="317.41" cy="37.21" r="18.05"/><path class="cls-4" d="M345.2,31.07a28.38,28.38,0,1,1-55.26,0h-.2a30.13,30.13,0,1,0,58.24,0Z"/><polygon class="cls-2" points="317.23 188.19 298.09 311.47 350.15 311.47 350.15 187.99 317.23 188.19"/><rect class="cls-2" x="-0.19" y="187.97" width="350" height="123.6"/><rect class="cls-1" x="-0.16" y="143.38" width="75.83" height="44.94"/><path class="cls-4" d="M163.84,82H315.37c7.75,0,14,5.69,14,12.71v80.72c0,7-6.28,12.71-14,12.71H163.84c-7.75,0-14-5.69-14-12.71V94.75C149.8,87.73,156.09,82,163.84,82Z"/><rect class="cls-3" x="48.22" y="100.81" width="5.02" height="34.7"/><rect class="cls-3" x="60.27" y="100.81" width="5.02" height="34.7"/><rect class="cls-2" x="61.52" y="109.04" width="2.78" height="0.49"/><rect class="cls-2" x="61.52" y="117.21" width="2.78" height="0.49"/><rect class="cls-2" x="61.52" y="121.29" width="2.78" height="0.49"/><rect class="cls-2" x="61.52" y="125.38" width="2.78" height="0.49"/><rect class="cls-2" x="61.52" y="129.47" width="2.78" height="0.49"/><rect class="cls-3" x="72.58" y="100.81" width="5.02" height="34.7"/><rect class="cls-3" x="84.63" y="100.46" width="5.02" height="34.7"/><rect class="cls-2" x="86.1" y="93.82" width="2.2" height="5.21"/><path class="cls-4" d="M84.27,92.63h0a1.43,1.43,0,0,0,1.31,1.51H89a1.43,1.43,0,0,0,1.31-1.51h-6Z"/><path class="cls-4" d="M82,98.6v.08a2.46,2.46,0,0,0,2.29,2.59h5.88a2.46,2.46,0,0,0,2.29-2.59V98.6Z"/><rect class="cls-2" x="86.83" y="106.42" width="0.82" height="28.02"/><rect class="cls-2" x="73.71" y="109.04" width="2.78" height="0.49"/><rect class="cls-2" x="73.71" y="113.12" width="2.78" height="0.49"/><rect class="cls-2" x="73.71" y="117.21" width="2.78" height="0.49"/><rect class="cls-2" x="73.71" y="121.29" width="2.78" height="0.49"/><rect class="cls-2" x="73.71" y="125.38" width="2.78" height="0.49"/><rect class="cls-2" x="73.71" y="129.47" width="2.78" height="0.49"/><rect class="cls-2" x="85.88" y="109.04" width="2.78" height="0.49"/><rect class="cls-2" x="85.88" y="113.12" width="2.78" height="0.49"/><rect class="cls-2" x="85.88" y="117.21" width="2.78" height="0.49"/><rect class="cls-2" x="85.88" y="121.29" width="2.78" height="0.49"/><rect class="cls-2" x="85.88" y="125.38" width="2.78" height="0.49"/><rect class="cls-2" x="85.88" y="129.47" width="2.78" height="0.49"/><polygon class="cls-2" points="22.15 148.05 21.26 147.75 23.44 140.41 24.33 140.72 22.15 148.05"/><polygon class="cls-2" points="24.1 148.72 23.19 148.41 23.89 146.05 24.8 146.36 24.1 148.72"/><polygon class="cls-2" points="25.94 149.35 25.08 149.05 28.08 138.95 28.94 139.25 25.94 149.35"/><polygon class="cls-2" points="32.82 147.43 31.96 147.83 29.08 140.79 29.93 140.38 32.82 147.43"/><polygon class="cls-2" points="34.69 146.55 33.82 146.96 32.89 144.69 33.76 144.28 34.69 146.55"/><polygon class="cls-2" points="36.46 145.72 35.63 146.1 31.66 136.4 32.48 136.01 36.46 145.72"/><rect class="cls-2" x="6.87" y="139.01" width="0.93" height="7.7"/><rect class="cls-2" x="8.9" y="144.24" width="0.95" height="2.48"/><rect class="cls-2" x="10.88" y="136.11" width="0.9" height="10.6"/><polygon class="cls-1" points="271.91 123.83 248.48 123.83 248.48 102.43 229.92 102.43 229.92 123.83 206.33 123.83 206.33 142.39 229.92 142.39 229.92 163.79 248.48 163.79 248.48 142.39 271.91 142.39 271.91 123.83"/><path class="cls-6" d="M345.2,31.12a28.38,28.38,0,1,1-55.26,0h-.2a30.13,30.13,0,1,0,58.24,0Z"/><path class="cls-1" d="M300.44,31.36a18,18,0,1,0,34,0Z"/><rect class="cls-2" x="10.88" y="134.78" width="0.9" height="0.65"/><polygon class="cls-2" points="32.82 147.08 31.96 147.49 29.08 140.44 29.93 140.04 32.82 147.08"/><polygon class="cls-2" points="34.69 146.2 33.82 146.61 32.89 144.35 33.76 143.94 34.69 146.2"/><polygon class="cls-2" points="36.46 145.37 35.63 145.76 31.66 136.05 32.48 135.66 36.46 145.37"/><rect class="cls-2" x="49.35" y="117.21" width="2.78" height="0.49"/><rect class="cls-2" x="49.35" y="121.29" width="2.78" height="0.49"/><rect class="cls-2" x="49.35" y="125.38" width="2.78" height="0.49"/><rect class="cls-2" x="49.35" y="129.47" width="2.78" height="0.49"/><polygon class="cls-3" points="53.24 115.85 53.24 100.81 48.15 100.81 48.15 117.63 53.24 115.85"/><rect class="cls-2" x="50.33" y="106.42" width="0.82" height="28.02"/><rect class="cls-2" x="62.46" y="106.42" width="0.82" height="28.02"/><polygon class="cls-2" points="51.15 116.6 51.15 106.42 50.33 106.42 50.33 116.88 51.15 116.6"/><rect class="cls-2" x="49.39" y="94.17" width="2.2" height="5.21"/><path class="cls-4" d="M47.56,93h0a1.43,1.43,0,0,0,1.31,1.51h3.37A1.43,1.43,0,0,0,53.55,93h-6Z"/><path class="cls-4" d="M45.25,98.95V99a2.46,2.46,0,0,0,2.29,2.59H53.4A2.46,2.46,0,0,0,55.68,99v-.08Z"/><rect class="cls-2" x="49.35" y="109.04" width="2.78" height="0.49"/><polygon class="cls-2" points="317.23 188.19 298.09 311.47 350.15 311.47 350.15 187.99 317.23 188.19"/><rect class="cls-2" x="49.35" y="113.12" width="2.78" height="0.49"/><path class="cls-4" d="M289.39,34.27a28.9,28.9,0,0,1,.55-3.12h-.2a30.07,30.07,0,0,0-.66,3.22Z"/><path class="cls-4" d="M348,31.15h-2.8A28.31,28.31,0,0,1,330.4,62.9l-.57,4.1C343,62,349,49.5,349,38.91A30.16,30.16,0,0,0,348,31.15Z"/><path class="cls-3" d="M298.41,31.17h-8.5a28.9,28.9,0,0,0-.55,3.12Z"/><polygon class="cls-3" points="65.28 111.74 65.28 100.77 60.26 100.77 60.26 113.47 65.28 111.74"/><rect class="cls-5" x="61.52" y="113.12" width="2.78" height="0.49"/><rect class="cls-2" x="61.74" y="94.17" width="2.2" height="5.21"/><path class="cls-4" d="M59.92,93h0a1.43,1.43,0,0,0,1.31,1.51H64.6A1.43,1.43,0,0,0,65.91,93h-6Z"/><path class="cls-4" d="M57.6,98.95V99a2.46,2.46,0,0,0,2.29,2.59h5.88A2.46,2.46,0,0,0,68,99v-.08Z"/><rect class="cls-2" x="61.55" y="109.04" width="2.78" height="0.49"/><polygon class="cls-3" points="77.59 107.54 77.59 100.81 72.58 100.81 72.58 109.26 77.59 107.54"/><rect class="cls-2" x="73.74" y="94.17" width="2.2" height="5.21"/><path class="cls-4" d="M71.92,93h0a1.43,1.43,0,0,0,1.31,1.51H76.6A1.43,1.43,0,0,0,77.91,93h-6Z"/><path class="cls-4" d="M69.6,98.95V99a2.46,2.46,0,0,0,2.29,2.59h5.88A2.46,2.46,0,0,0,80,99v-.08Z"/><rect class="cls-2" x="74.69" y="106.42" width="0.82" height="28.02"/><rect class="cls-2" x="61.45" y="109.04" width="2.78" height="0.49"/><rect class="cls-2" x="61.45" y="113.12" width="2.78" height="0.49"/><polygon class="cls-2" points="63.28 112.43 63.28 106.42 62.46 106.42 62.46 112.72 63.28 112.43"/><polygon class="cls-2" points="75.51 108.2 75.51 106.42 74.69 106.42 74.69 108.48 75.51 108.2"/><path class="cls-1" d="M140.27,178.85a4.38,4.38,0,0,0-3.74-2,4.79,4.79,0,0,0-2.19.48h0c-7.36,3.57-16,12.81-15.13,36.49a2.93,2.93,0,0,0,2.45,3c1.18,0,5.71.13,14.56-3.09a5.34,5.34,0,0,0,3.46-4.23C142.11,198.46,143.64,184.61,140.27,178.85Z"/><path class="cls-1" d="M158.4,177.54h0a4.79,4.79,0,0,0-2.19-.53,4.38,4.38,0,0,0-3.79,2c-3.5,5.69-2.34,19.57,0,30.65a5.34,5.34,0,0,0,3.37,4.38c8.76,3.39,13.31,3.46,14.49,3.39a2.93,2.93,0,0,0,2.52-3C174.07,190.67,165.67,181.26,158.4,177.54Z"/><polygon class="cls-2" points="144.34 185.99 144.32 188.99 144.32 188.99 144.34 185.99 144.34 185.99"/><line class="cls-2" x1="144.35" y1="185.99" x2="144.32" y2="188.99"/><line class="cls-2" x1="144.32" y1="188.99" x2="144.35" y2="185.99"/><polygon class="cls-2" points="146.51 187.58 146.51 187.58 146.6 180.6 146.51 187.58"/><line class="cls-2" x1="146.6" y1="180.62" x2="146.62" y2="178.41"/><line class="cls-2" x1="146.53" y1="187.58" x2="146.6" y2="180.62"/><line class="cls-2" x1="146.67" y1="173.18" x2="146.6" y2="180.62"/><line class="cls-2" x1="146.6" y1="180.62" x2="146.53" y2="187.58"/><path class="cls-7" d="M190.85,157.85A13.33,13.33,0,0,0,177.6,144.6H114.42a13.33,13.33,0,0,0-13.25,13.25v73a13.33,13.33,0,0,0,13.25,13.25h63.36A13.33,13.33,0,0,0,191,230.84v-73Z"/><path class="cls-1" d="M186.28,161.58a12,12,0,0,0-11.9-11.9H117.65a12,12,0,0,0-11.9,11.9v65.53a12,12,0,0,0,11.9,11.9h56.89a12,12,0,0,0,11.9-11.9V161.58Z"/><rect class="cls-2" x="0.12" y="134.78" width="95.74" height="9.28"/><rect class="cls-2" x="-0.16" y="134.78" width="75.83" height="9.28"/><rect class="cls-3" x="-0.16" y="143.38" width="96.02" height="44.94"/><path class="cls-1" d="M186.28,161.58a12,12,0,0,0-11.9-11.9H117.65a12,12,0,0,0-11.9,11.9v65.53a12,12,0,0,0,11.9,11.9h56.89a12,12,0,0,0,11.9-11.9V161.58Z"/><path class="cls-1" d="M200,162.23a6.93,6.93,0,0,0-1.79.33v-1a23.91,23.91,0,0,0-14.83-22l-7.66-19.07c-1.14-2.93-5.05-4.89-9.45-4.89H128.09c-4.4,0-8.31,2-9.45,4.89l-7.34,18.26a24,24,0,0,0-17.44,22.82v65.53a23.62,23.62,0,0,0,17.44,22.82l7.34,18.26c1.14,2.93,5.05,4.89,9.45,4.89h38c4.4,0,8.31-2,9.45-4.89L183.35,249a23.91,23.91,0,0,0,14.83-22V184.08a5.86,5.86,0,0,0,1.79.33,6.37,6.37,0,0,0,6.36-6.36v-9.45A6.47,6.47,0,0,0,200,162.23Zm-10.6,64.88h0v.33c0,.82-.16,1.47-.16,2.12a3.84,3.84,0,0,1-.33,1.3c-.16.49-.16.82-.33,1.3a5.79,5.79,0,0,1-.65,1.47,11.81,11.81,0,0,1-2.93,4.08l-.16.16a17.27,17.27,0,0,1-2,1.63,14.78,14.78,0,0,1-8.31,2.61H117.65a14.62,14.62,0,0,1-7.82-2.28,14.86,14.86,0,0,1-7-12.71V161.58a14.85,14.85,0,0,1,11.57-14.51,3.59,3.59,0,0,1,1.3-.16,1,1,0,0,0,.65-.16h60a8.18,8.18,0,0,1,2,.33c.65.16,1.14.33,1.79.49a.57.57,0,0,1,.33.16,15.3,15.3,0,0,1,9.13,13.53h0v65.86Z"/><path class="cls-2" d="M143.89,186.53a16.56,16.56,0,0,0-1.87-7.1,5.45,5.45,0,0,0-7.09-1.93c-6.65,3.24-14.42,11.51-13.66,32.47a4.06,4.06,0,0,0,3.59,4.13h.76A36.64,36.64,0,0,0,138,211.34a6.1,6.1,0,0,0,3.94-4.74,95.84,95.84,0,0,0,2-13.3c.11-1.54.16-3,.14-4.32l.13-.13V186.3Zm-3.66,19.7a4.52,4.52,0,0,1-2.92,3.59c-7.41,2.74-11.32,2.72-12.33,2.65a2.48,2.48,0,0,1-2.08-2.57c-.74-20.06,6.51-27.83,12.74-30.94h0a4.06,4.06,0,0,1,1.85-.41,3.71,3.71,0,0,1,3.18,1.72c2.87,4.87,1.6,16.61-.42,26Z"/><path class="cls-2" d="M157.14,177.66h0a5.45,5.45,0,0,0-7.17,1.66,16.88,16.88,0,0,0-2.16,7.14l-.86-1a.26.26,0,0,1,0-.17l.66-18.64c0-.28-.38-.44-.91-.47s-.88.12-.94.4L145,185.25a.26.26,0,0,1,0,.17l-.57.54-.07,2.54.88-.9a1.08,1.08,0,0,1,.77-.29h.26l.16-5.91.17-6.28-.17,6.28h0l-.16,5.91a1,1,0,0,1,.47.27l1,1.25h0a85.86,85.86,0,0,0,1.38,17.57,6.1,6.1,0,0,0,3.72,4.92,36.62,36.62,0,0,0,12.21,3.32l.65,0a4.06,4.06,0,0,0,3.82-4C171,189.82,163.63,181.19,157.14,177.66Zm11,32.65a2.48,2.48,0,0,1-2.14,2.53c-1,0-4.86,0-12.27-2.92a4.52,4.52,0,0,1-2.84-3.72c-1.82-9.41-2.84-21.19.09-26a3.71,3.71,0,0,1,3.21-1.66,4.06,4.06,0,0,1,1.85.45h0C162.24,182.27,169.33,190.26,168.15,210.31Z"/><path class="cls-8" d="M200.09,162.23a6.93,6.93,0,0,0-1.79.33v-1a23.91,23.91,0,0,0-14.83-22L175.8,120.5c-1.14-2.93-5.05-4.89-9.45-4.89H128.2c-4.4,0-8.31,2-9.45,4.89l-7.34,18.26A24,24,0,0,0,94,161.58v65.53a23.62,23.62,0,0,0,17.44,22.82l7.34,18.26c1.14,2.93,5.05,4.89,9.45,4.89h38c4.4,0,8.31-2,9.45-4.89L183.46,249a23.91,23.91,0,0,0,14.83-22V184.08a5.86,5.86,0,0,0,1.79.33,6.37,6.37,0,0,0,6.36-6.36v-9.45A6.47,6.47,0,0,0,200.09,162.23Zm-10.6,64.88h0v.33c0,.82-.16,1.47-.16,2.12a3.84,3.84,0,0,1-.33,1.3c-.16.49-.16.82-.33,1.3a5.79,5.79,0,0,1-.65,1.47,11.81,11.81,0,0,1-2.93,4.08l-.16.16a17.27,17.27,0,0,1-2,1.63,14.78,14.78,0,0,1-8.31,2.61H117.77a14.62,14.62,0,0,1-7.82-2.28,14.86,14.86,0,0,1-7-12.71V161.58a14.85,14.85,0,0,1,11.57-14.51,3.59,3.59,0,0,1,1.3-.16,1,1,0,0,0,.65-.16h60a8.18,8.18,0,0,1,2,.33c.65.16,1.14.33,1.79.49a.57.57,0,0,1,.33.16,15.3,15.3,0,0,1,9.13,13.53h0v65.86Z"/><path class="cls-9" d="M200.09,162.23a6.93,6.93,0,0,0-1.79.33v-1a23.91,23.91,0,0,0-14.83-22L175.8,120.5c-1.14-2.93-5.05-4.89-9.45-4.89H128.2c-4.4,0-8.31,2-9.45,4.89l-7.34,18.26A24,24,0,0,0,94,161.58v65.53a23.62,23.62,0,0,0,17.44,22.82l7.34,18.26c1.14,2.93,5.05,4.89,9.45,4.89h38c4.4,0,8.31-2,9.45-4.89L183.46,249a23.91,23.91,0,0,0,14.83-22V184.08a5.86,5.86,0,0,0,1.79.33,6.37,6.37,0,0,0,6.36-6.36v-9.45A6.47,6.47,0,0,0,200.09,162.23Zm-10.6,64.88h0v.33c0,.82-.16,1.47-.16,2.12a3.84,3.84,0,0,1-.33,1.3c-.16.49-.16.82-.33,1.3a5.79,5.79,0,0,1-.65,1.47,11.81,11.81,0,0,1-2.93,4.08l-.16.16a17.27,17.27,0,0,1-2,1.63,14.78,14.78,0,0,1-8.31,2.61H117.77a14.62,14.62,0,0,1-7.82-2.28,14.86,14.86,0,0,1-7-12.71V161.58a14.85,14.85,0,0,1,11.57-14.51,3.59,3.59,0,0,1,1.3-.16,1,1,0,0,0,.65-.16h60a8.18,8.18,0,0,1,2,.33c.65.16,1.14.33,1.79.49a.57.57,0,0,1,.33.16,15.3,15.3,0,0,1,9.13,13.53h0v65.86Z"/></svg>