<svg viewBox="0 0 350 311.43" xmlns="http://www.w3.org/2000/svg" xmlns:xlink="http://www.w3.org/1999/xlink"><linearGradient id="a" gradientUnits="userSpaceOnUse" x1="228.52" x2="245.1" y1="109.08" y2="109.08"><stop offset="0" stop-color="#c69c6d"/><stop offset=".1" stop-color="#a3815a"/><stop offset=".26" stop-color="#725a3f"/><stop offset=".42" stop-color="#493a28"/><stop offset=".58" stop-color="#292017"/><stop offset=".73" stop-color="#120e0a"/><stop offset=".87" stop-color="#050403"/><stop offset="1"/></linearGradient><linearGradient id="b" x1="207.72" x2="224.3" xlink:href="#a" y1="109.08" y2="109.08"/><linearGradient id="c" x1="250.02" x2="291.78" xlink:href="#a" y1="112.83" y2="112.83"/><linearGradient id="d" x1="149.8" x2="325.75" xlink:href="#a" y1="160.6" y2="160.6"/><linearGradient id="e" x1="149.35" x2="329.34" xlink:href="#a" y1="160.89" y2="160.89"/><linearGradient id="f" gradientTransform="matrix(1 0 0 -1 0 314)" x1="295.3" x2="60.99" xlink:href="#a" y1="243.96" y2=".67"/><linearGradient id="g" gradientTransform="matrix(1 0 0 -1 0 314)" x1="288.72" x2="348.99" xlink:href="#a" y1="263.94" y2="263.94"/><linearGradient id="h" x1="93.85" x2="206.33" xlink:href="#a" y1="194.35" y2="194.35"/><linearGradient id="i" x1="295.47" x2="322.01" xlink:href="#a" y1="125.44" y2="125.44"/><path d="m316.57 108.95c-.85-.6-1.89-1.28-1.7-2.47h-12a3.47 3.47 0 0 1 -.59 1.42 5.62 5.62 0 0 1 -1.47 1.23c-.26.15-.52.32-.77.49a10.52 10.52 0 0 0 -2.06 1.92 9.57 9.57 0 0 0 -1.76 3.31 10.17 10.17 0 0 0 -.41 2.89v30.26a2.84 2.84 0 0 0 2.82 2.84h20.1a2.84 2.84 0 0 0 2.82-2.84v-19.18s0-11.08 0-11.08c.17-4-2-6.74-4.98-8.79z" fill="#d8cbad" stroke="#fff" stroke-miterlimit="10" stroke-width=".25"/><path d="m315.35 98.35h-13.35a.88.88 0 0 0 -.88.88v5.7h15.07v-5.7a.88.88 0 0 0 -.84-.88z" fill="#d8cbad" stroke="#fff" stroke-miterlimit="10" stroke-width=".25"/><path d="m229.88 112.81h13.69v2.51h-13.69z" fill="#d8cbad"/><path d="m245.2 112.15h-16.85c-.1 0-.17-.08-.17-.21s.07-.21.17-.21h16.85c.1 0 .17.08.17.21s-.07.21-.17.21z" fill="#ececec"/><path d="m243.37 107.12s0 .09 0 .14c0 .85-.51 1.54-1.15 1.54s-1.15-.69-1.15-1.54c0 0 0-.09 0-.14h-1.35s0 .09 0 .14c0 .85-.51 1.54-1.15 1.54s-1.15-.69-1.15-1.54c0 0 0-.09 0-.14h-1.35s0 .09 0 .14c0 .85-.51 1.54-1.15 1.54s-1.15-.69-1.15-1.54c0 0 0-.09 0-.14h-1.35s0 .09 0 .14c0 .85-.51 1.54-1.15 1.54s-1.15-.69-1.15-1.54c0 0 0-.09 0-.14h-1.73v3.88h16.71v-3.92z" fill="url(#a)" opacity=".1"/><path d="m209.08 112.81h13.69v2.51h-13.69z" fill="#d8cbad"/><path d="m224.4 112.15h-16.85c-.1 0-.17-.08-.17-.21s.07-.21.17-.21h16.85c.1 0 .17.08.17.21s-.07.21-.17.21z" fill="#ececec"/><path d="m222.57 107.12s0 .09 0 .14c0 .85-.51 1.54-1.15 1.54s-1.15-.69-1.15-1.54c0 0 0-.09 0-.14h-1.27s0 .09 0 .14c0 .85-.51 1.54-1.15 1.54s-1.15-.69-1.15-1.54c0 0 0-.09 0-.14h-1.35s0 .09 0 .14c0 .85-.51 1.54-1.15 1.54s-1.15-.69-1.15-1.54c0 0 0-.09 0-.14h-1.35s0 .09 0 .14c0 .85-.51 1.54-1.15 1.54s-1.15-.69-1.15-1.54c0 0 0-.09 0-.14h-1.73v3.88h16.63v-3.92z" fill="url(#b)" opacity=".1"/><path d="m175 98.15h9.88v34.56h-9.88z" fill="#ccc" opacity=".45"/><path d="m189.03 98.15h9.88v34.56h-9.88z" fill="#ccc" opacity=".45"/><path d="m291.78 133v-34.1a6.29 6.29 0 0 0 -6.27-6.27h-29.22a6.29 6.29 0 0 0 -6.29 6.27v34.1z" fill="url(#c)" opacity=".1"/><path d="m257.03 98.15h5.45v34.88h-5.45z" fill="#d8cbad"/><path d="m264.46 98.15h5.45v34.88h-5.45z" fill="#d8cbad"/><path d="m271.89 98.15h5.45v34.88h-5.45z" fill="#d8cbad"/><path d="m279.32 98.15h5.45v34.88h-5.45z" fill="#d8cbad"/><path d="m325.75 133h-53.84v9.36h-23.43v21.4h-18.56v-21.4h-23.59v-9.36h-56.53v42.44c0 7 6.28 12.71 14 12.71h151.57a15.52 15.52 0 0 0 1.91-.13z" fill="#fff"/><path d="m325.75 133h-53.84v9.36h-23.43v21.4h-18.56v-21.4h-23.59v-9.36h-56.53v42.44c0 7 6.28 12.71 14 12.71h151.57a15.52 15.52 0 0 0 1.91-.13z" fill="url(#d)" opacity=".05"/><path d="m149.35 133v43c0 7 6.31 12.71 14.1 12.71h152.27c7.62-.23 13.65-5.87 13.62-12.74v-42.97z" fill="url(#e)" opacity=".05"/><path d="m317.27 188.15a12.7 12.7 0 0 0 12.07-12.68l.07-42.44h-3.66z" fill="#525252" opacity=".15"/><path d="m299.91 29.39-299.63 102.55.03 177.83 298.3 1.27 42.66-278.87z" fill="url(#f)" opacity=".05"/><circle cx="318.82" cy="38.94" fill="#ccc" r="30.13"/><circle cx="317.53" cy="37.66" fill="#ececec" r="28.38"/><circle cx="317.41" cy="37.21" fill="#fff" r="18.05"/><path d="m345.2 31.07a28.38 28.38 0 1 1 -55.26 0h-.2a30.13 30.13 0 1 0 58.24 0z" fill="#ccc"/><path d="m317.23 188.19-19.14 123.28h52.06v-123.48z" fill="#c1ad73"/><path d="m-.19 187.97h350v123.6h-350z" fill="#d8cbad"/><path d="m-.16 143.38h75.83v44.94h-75.83z" fill="#fff"/><path d="m48.22 100.81h5.02v34.7h-5.02z" fill="#fff"/><path d="m60.27 100.81h5.02v34.7h-5.02z" fill="#fff"/><path d="m61.52 109.04h2.78v.49h-2.78z" fill="#c1ad73"/><path d="m61.52 117.21h2.78v.49h-2.78z" fill="#d8cbad"/><path d="m61.52 121.29h2.78v.49h-2.78z" fill="#d8cbad"/><path d="m61.52 125.38h2.78v.49h-2.78z" fill="#d8cbad"/><path d="m61.52 129.47h2.78v.49h-2.78z" fill="#d8cbad"/><path d="m72.58 100.81h5.02v34.7h-5.02z" fill="#fff"/><path d="m84.63 100.46h5.02v34.7h-5.02z" fill="#ececec"/><path d="m86.1 93.82h2.2v5.21h-2.2z" fill="#c1ad73"/><path d="m84.27 92.63a1.43 1.43 0 0 0 1.31 1.51h3.42a1.43 1.43 0 0 0 1.31-1.51h-6z" fill="#ccc"/><path d="m82 98.6v.08a2.46 2.46 0 0 0 2.29 2.59h5.88a2.46 2.46 0 0 0 2.29-2.59v-.08z" fill="#ccc"/><g fill="#d8cbad"><path d="m86.83 106.42h.82v28.02h-.82z"/><path d="m73.71 109.04h2.78v.49h-2.78z"/><path d="m73.71 113.12h2.78v.49h-2.78z"/><path d="m73.71 117.21h2.78v.49h-2.78z"/><path d="m73.71 121.29h2.78v.49h-2.78z"/><path d="m73.71 125.38h2.78v.49h-2.78z"/><path d="m73.71 129.47h2.78v.49h-2.78z"/><path d="m85.88 109.04h2.78v.49h-2.78z"/><path d="m85.88 113.12h2.78v.49h-2.78z"/><path d="m85.88 117.21h2.78v.49h-2.78z"/><path d="m85.88 121.29h2.78v.49h-2.78z"/><path d="m85.88 125.38h2.78v.49h-2.78z"/><path d="m85.88 129.47h2.78v.49h-2.78z"/><path d="m18.44 166.29a4.35 4.35 0 0 1 -2.58-5.36l17.64-59.33a3.94 3.94 0 0 1 4.8-2.83l.2.06a4.35 4.35 0 0 1 2.58 5.36l-17.64 59.33a3.94 3.94 0 0 1 -4.8 2.83z"/></g><path d="m27.76 122.91-10.9 36.65c-.59 2 .2 4 1.76 4.58l.69.24c1.56.53 3.32-.65 3.91-2.64l10.89-36.65z" fill="#fff"/><path d="m26.9 151.75-7.71-2.64 5.49-18.46 7.71 2.63z" fill="#fff"/><path d="m24.49 140.09-.87-.29 1.97-6.61.87.3z" fill="#c1ad73"/><path d="m24.99 145.72-.91-.31 3.44-11.56.91.31z" fill="#c1ad73"/><path d="m22.15 148.05-.89-.3 2.18-7.34.89.31z" fill="#c1ad73"/><path d="m24.1 148.72-.91-.31.7-2.36.91.31z" fill="#c1ad73"/><path d="m25.94 149.35-.86-.3 3-10.1.86.3z" fill="#c1ad73"/><path d="m29.14 138.59-.87-.29 1.13-3.79.86.29z" fill="#c1ad73"/><path d="m41.07 163.48a3.89 3.89 0 0 1 -5.14-2l-.1-.24-23.36-57a4.4 4.4 0 0 1 2-5.62 3.89 3.89 0 0 1 5.14 2l.1.24 23.36 57a4.4 4.4 0 0 1 -2 5.62z" fill="#c1ad73"/><path d="m17.54 109.94-.49.23-4.49-10.96.49-.23z" fill="#ccc"/><path d="m21.52 124.6 14.48 35.21c.78 1.91 2.65 2.89 4.14 2.18l.67-.31c1.5-.71 2.09-2.84 1.3-4.75l-14.47-35.21z" fill="#ececec"/><path d="m29.67 139.8-.84.39-2.6-6.35.84-.39z" fill="#c1ad73"/><path d="m33.51 143.67-.87.42-4.56-11.12.88-.41z" fill="#c1ad73"/><path d="m32.82 147.43-.86.4-2.88-7.04.85-.41z" fill="#c1ad73"/><path d="m34.69 146.55-.87.41-.93-2.27.87-.41z" fill="#c1ad73"/><path d="m36.46 145.72-.83.38-3.97-9.7.82-.39z" fill="#c1ad73"/><path d="m32.23 135.38-.83.39-1.49-3.64.82-.39z" fill="#c1ad73"/><path d="m9.34 94.51a4 4 0 0 1 4 4v62.84a4 4 0 0 1 -4 4 4 4 0 0 1 -4-4v-62.86a4 4 0 0 1 4-3.98z" fill="#c1ad73"/><path d="m6 120.93v38.47c0 2.08 1.34 3.79 3 3.79h.73c1.64 0 3-1.7 3-3.79v-38.47z" fill="#ececec"/><path d="m13.5 148.5-8.21.19v-19.38l8.03-.02z" fill="#fff"/><path d="m6.87 131.43h.91v6.94h-.91z" fill="#d8cbad"/><path d="m8.9 131.43h.96v12.14h-.96z" fill="#d8cbad"/><path d="m6.87 139.01h.93v7.7h-.93z" fill="#c1ad73"/><path d="m8.9 144.24h.95v2.48h-.95z" fill="#c1ad73"/><path d="m10.88 136.11h.9v10.6h-.9z" fill="#c1ad73"/><path d="m10.88 131.45h.9v3.98h-.9z" fill="#d8cbad"/><path d="m-.16 134.78h75.83v9.28h-75.83z" fill="#c1ad73"/><path d="m345.2 31.12a28.38 28.38 0 1 1 -55.26 0h-.2a30.13 30.13 0 1 0 58.24 0z" fill="url(#g)" opacity=".05"/><path d="m300.44 31.36a18 18 0 1 0 34 0z" fill="#fff"/><path d="m13.32 129.3v-.01l-8.03.02v2.71z" fill="#ccc"/><path d="m10.88 134.78h.9v.65h-.9z" fill="#c1ad73"/><path d="m8.9 131.43h.96v3.35h-.96z" fill="#d8cbad"/><path d="m6.87 131.43h.91v3.35h-.91z" fill="#d8cbad"/><path d="m28.71 123.98-1.07-2.61-6.12 2.88.79 1.92z" fill="#ececec"/><path d="m28.71 123.98-1.07-2.61-6.12 2.88.79 1.92z" fill="#ececec"/><path d="m29.79 123.61-2.03-.7-.46 1.55z" fill="#ececec"/><path d="m35.9 121.57 5.18-17.38a4.35 4.35 0 0 0 -2.58-5.36 3.94 3.94 0 0 0 -4.94 2.57l-.06.2-7 23.15z" fill="#c1ad73"/><path d="m41.07 163.48a3.89 3.89 0 0 1 -5.14-2l-.1-.24-23.36-57a4.4 4.4 0 0 1 2-5.62 3.89 3.89 0 0 1 5.14 2l.1.24 23.36 57a4.4 4.4 0 0 1 -2 5.62z" fill="#d8cbad"/><path d="m21.57 126.47 7.6-2.63-9.42-23a3.89 3.89 0 0 0 -5-2.29l-.24.1a4.4 4.4 0 0 0 -2 5.62z" fill="#c1ad73"/><path d="m21.41 124.36 14.48 35.21c.78 1.91 2.65 2.89 4.14 2.18l.67-.31c1.5-.71 2.09-2.84 1.3-4.75l-14.47-35.21z" fill="#fff"/><path d="m32.82 147.08-.86.41-2.88-7.05.85-.4z" fill="#c1ad73"/><path d="m34.69 146.2-.87.41-.93-2.26.87-.41z" fill="#c1ad73"/><path d="m36.46 145.37-.83.39-3.97-9.71.82-.39z" fill="#c1ad73"/><path d="m40.5 111.79-10.86-3.18a.35.35 0 0 1 -.25-.45l3.36-10.8a.37.37 0 0 1 .44-.24l10.86 3.18a.35.35 0 0 1 .25.45l-3.3 10.79a.37.37 0 0 1 -.43.25z" fill="#c1ad73"/><path d="m30.18 108.78-.56-.17 3.57-11.46.57.17z" fill="#ccc"/><path d="m31.34 109.11-.57-.16 3.58-11.46.56.17z" fill="#ccc"/><path d="m32.48 109.45-.57-.17 3.58-11.45.56.16z" fill="#ccc"/><path d="m33.63 109.79-.56-.17 3.57-11.46.57.17z" fill="#ccc"/><path d="m34.78 110.12-.57-.16 3.58-11.46.56.17z" fill="#ccc"/><path d="m35.93 110.45-.57-.16 3.58-11.45.57.16z" fill="#ccc"/><path d="m37.08 110.8-.57-.17 3.57-11.46.58.17z" fill="#ccc"/><path d="m38.23 111.13-.57-.16 3.58-11.45.56.16z" fill="#ccc"/><path d="m39.38 111.47-.57-.17 3.57-11.45.58.16z" fill="#ccc"/><path d="m40.52 111.81-.56-.17 3.57-11.46.57.17z" fill="#ccc"/><path d="m49.35 117.21h2.78v.49h-2.78z" fill="#d8cbad"/><path d="m49.35 121.29h2.78v.49h-2.78z" fill="#d8cbad"/><path d="m49.35 125.38h2.78v.49h-2.78z" fill="#d8cbad"/><path d="m49.35 129.47h2.78v.49h-2.78z" fill="#d8cbad"/><path d="m53.24 115.85v-15.04h-5.09v16.82z" fill="#ececec"/><path d="m50.33 106.42h.82v28.02h-.82z" fill="#d8cbad"/><path d="m62.46 106.42h.82v28.02h-.82z" fill="#d8cbad"/><path d="m51.15 116.6v-10.18h-.82v10.46z" fill="#c1ad73"/><path d="m49.39 94.17h2.2v5.21h-2.2z" fill="#c1ad73"/><path d="m47.56 93a1.43 1.43 0 0 0 1.31 1.51h3.37a1.43 1.43 0 0 0 1.31-1.51h-6z" fill="#ccc"/><path d="m45.25 98.95v.05a2.46 2.46 0 0 0 2.29 2.59h5.86a2.46 2.46 0 0 0 2.28-2.59v-.08z" fill="#ccc"/><path d="m49.35 109.04h2.78v.49h-2.78z" fill="#c1ad73"/><path d="m317.23 188.19-19.14 123.28h52.06v-123.48z" fill="#c1ad73"/><path d="m49.35 113.12h2.78v.49h-2.78z" fill="#c1ad73"/><path d="m289.39 34.27a28.9 28.9 0 0 1 .55-3.12h-.2a30.07 30.07 0 0 0 -.66 3.22z" fill="#ccc"/><path d="m348 31.15h-2.8a28.31 28.31 0 0 1 -14.8 31.75l-.57 4.1c13.17-5 19.17-17.5 19.17-28.09a30.16 30.16 0 0 0 -1-7.76z" fill="#ccc"/><path d="m298.41 31.17h-8.5a28.9 28.9 0 0 0 -.55 3.12z" fill="#ececec"/><path d="m65.28 111.74v-10.97h-5.02v12.7z" fill="#ececec"/><path d="m61.52 113.12h2.78v.49h-2.78z" fill="#d8cbad"/><path d="m61.74 94.17h2.2v5.21h-2.2z" fill="#c1ad73"/><path d="m59.92 93a1.43 1.43 0 0 0 1.31 1.51h3.37a1.43 1.43 0 0 0 1.31-1.51h-6z" fill="#ccc"/><path d="m57.6 98.95v.05a2.46 2.46 0 0 0 2.29 2.59h5.88a2.46 2.46 0 0 0 2.23-2.59v-.08z" fill="#ccc"/><path d="m61.55 109.04h2.78v.49h-2.78z" fill="#c1ad73"/><path d="m77.59 107.54v-6.73h-5.01v8.45z" fill="#ececec"/><path d="m73.74 94.17h2.2v5.21h-2.2z" fill="#c1ad73"/><path d="m71.92 93a1.43 1.43 0 0 0 1.31 1.51h3.37a1.43 1.43 0 0 0 1.31-1.51h-6z" fill="#ccc"/><path d="m69.6 98.95v.05a2.46 2.46 0 0 0 2.29 2.59h5.88a2.46 2.46 0 0 0 2.23-2.59v-.08z" fill="#ccc"/><path d="m74.69 106.42h.82v28.02h-.82z" fill="#d8cbad"/><path d="m28.59 124.04-1.08-2.61-6.12 2.88.79 1.92z" fill="#ececec"/><path d="m28.9 123.27.24.59.69-.24z" fill="#ececec"/><path d="m61.45 109.04h2.78v.49h-2.78z" fill="#c1ad73"/><path d="m61.45 113.12h2.78v.49h-2.78z" fill="#d8cbad"/><path d="m63.28 112.43v-6.01h-.82v6.3z" fill="#c1ad73"/><path d="m75.51 108.2v-1.78h-.82v2.06z" fill="#c1ad73"/><path d="m14.8 106.28-11.32-.19a.35.35 0 0 1 -.36-.36l.38-11.31a.37.37 0 0 1 .36-.35l11.32.19a.35.35 0 0 1 .36.36l-.38 11.3a.37.37 0 0 1 -.35.36z" fill="#c1ad73"/><path d="m4.05 106.11-.59-.01.41-11.99h.59z" fill="#ccc"/><path d="m5.25 106.13-.59-.01.41-12 .59.02z" fill="#ccc"/><path d="m6.44 106.15-.59-.01.41-11.99.59.01z" fill="#ccc"/><path d="m7.65 106.17-.6-.01.41-11.99h.59z" fill="#ccc"/><path d="m8.84 106.19-.59-.01.4-12 .59.02z" fill="#ccc"/><path d="m10.04 106.2h-.59l.41-11.99h.59z" fill="#ccc"/><path d="m11.24 106.23-.6-.01.41-12 .6.02z" fill="#ccc"/><path d="m12.43 106.25-.59-.01.41-11.99.59.01z" fill="#ccc"/><path d="m13.63 106.27-.59-.01.4-11.99h.6z" fill="#ccc"/><path d="m14.82 106.29-.58-.01.4-12 .59.02z" fill="#ccc"/><path d="m23.1 105.21-10.31 4.67a.35.35 0 0 1 -.48-.18l-4.5-10.38a.37.37 0 0 1 .19-.47l10.31-4.67a.35.35 0 0 1 .48.18l4.49 10.37a.37.37 0 0 1 -.16.47z" fill="#c1ad73"/><path d="m13.31 109.66-.54.23-4.76-11.01.54-.25z" fill="#ccc"/><path d="m14.4 109.16-.53.24-4.77-11.02.54-.24z" fill="#ccc"/><path d="m15.49 108.66-.54.25-4.76-11.02.54-.24z" fill="#ccc"/><path d="m16.59 108.17-.54.24-4.76-11.02.53-.24z" fill="#ccc"/><path d="m17.67 107.68-.53.24-4.77-11.02.54-.24z" fill="#ccc"/><path d="m18.76 107.18-.53.24-4.76-11.01.53-.25z" fill="#ccc"/><path d="m19.86 106.68-.55.25-4.76-11.01.55-.25z" fill="#ccc"/><path d="m20.94 106.19-.53.25-4.76-11.02.53-.24z" fill="#ccc"/><path d="m22.04 105.7-.54.24-4.77-11.01.54-.25z" fill="#ccc"/><path d="m23.13 105.21-.54.24-4.77-11.02.54-.24z" fill="#ccc"/><path d="m186.28 161.58a12 12 0 0 0 -11.9-11.9h-56.73a12 12 0 0 0 -11.9 11.9v65.53a12 12 0 0 0 11.9 11.9h56.89a12 12 0 0 0 11.9-11.9v-65.53z" fill="#fff"/><path d="m200 162.23a6.93 6.93 0 0 0 -1.79.33v-1a23.91 23.91 0 0 0 -14.83-22l-7.66-19.07c-1.14-2.93-5.05-4.89-9.45-4.89h-38.18c-4.4 0-8.31 2-9.45 4.89l-7.34 18.26a24 24 0 0 0 -17.44 22.82v65.53a23.62 23.62 0 0 0 17.44 22.82l7.34 18.26c1.14 2.93 5.05 4.89 9.45 4.89h38c4.4 0 8.31-2 9.45-4.89l7.81-19.18a23.91 23.91 0 0 0 14.83-22v-42.92a5.86 5.86 0 0 0 1.79.33 6.37 6.37 0 0 0 6.36-6.36v-9.45a6.47 6.47 0 0 0 -6.33-6.37zm-10.6 64.88v.33c0 .82-.16 1.47-.16 2.12a3.84 3.84 0 0 1 -.33 1.3c-.16.49-.16.82-.33 1.3a5.79 5.79 0 0 1 -.65 1.47 11.81 11.81 0 0 1 -2.93 4.08l-.16.16a17.27 17.27 0 0 1 -2 1.63 14.78 14.78 0 0 1 -8.31 2.61h-56.88a14.62 14.62 0 0 1 -7.82-2.28 14.86 14.86 0 0 1 -7-12.71v-65.54a14.85 14.85 0 0 1 11.57-14.51 3.59 3.59 0 0 1 1.3-.16 1 1 0 0 0 .65-.16h60a8.18 8.18 0 0 1 2 .33c.65.16 1.14.33 1.79.49a.57.57 0 0 1 .33.16 15.3 15.3 0 0 1 9.13 13.53v65.86z" fill="#fff"/><path d="m140.27 178.85a4.38 4.38 0 0 0 -3.74-2 4.79 4.79 0 0 0 -2.19.48c-7.36 3.57-16 12.81-15.13 36.49a2.93 2.93 0 0 0 2.45 3c1.18 0 5.71.13 14.56-3.09a5.34 5.34 0 0 0 3.46-4.23c2.43-11.04 3.96-24.89.59-30.65z" fill="#fff"/><path d="m158.4 177.54a4.79 4.79 0 0 0 -2.19-.53 4.38 4.38 0 0 0 -3.79 2c-3.5 5.69-2.34 19.57 0 30.65a5.34 5.34 0 0 0 3.37 4.38c8.76 3.39 13.31 3.46 14.49 3.39a2.93 2.93 0 0 0 2.52-3c1.27-23.76-7.13-33.17-14.4-36.89z" fill="#fff"/><path d="m144.34 185.99-.02 3z" fill="#c1ad73"/><path d="m144.35 185.99-.03 3" fill="#c1ad73"/><path d="m144.32 188.99.03-3" fill="#c1ad73"/><path d="m146.51 187.58.09-6.98z" fill="#c1ad73"/><path d="m146.6 180.62.02-2.21" fill="#c1ad73"/><path d="m146.53 187.58.07-6.96" fill="#c1ad73"/><path d="m146.67 173.18-.07 7.44" fill="#c1ad73"/><path d="m146.6 180.62-.07 6.96" fill="#c1ad73"/><path d="m38.71 146.05-7.48 3.4-7.61-17.82 7.38-3.18z" fill="#fff"/><path d="m29.67 139.45-.84.4-2.6-6.35.84-.4z" fill="#d8cbad"/><path d="m33.51 143.33-.87.41-4.56-11.12.88-.41z" fill="#d8cbad"/><path d="m32.23 135.04-.83.39-1.49-3.65.82-.39z" fill="#d8cbad"/><path d="m-.16 143.38h95.74v44.94h-95.74z" fill="#fff"/><path d="m-.16 134.78h95.74v9.28h-95.74z" fill="#c1ad73"/><path d="m191.42 158.53a13.33 13.33 0 0 0 -13.25-13.25h-63.17a13.33 13.33 0 0 0 -13.25 13.25v73a13.33 13.33 0 0 0 13.25 13.24h63.36a13.33 13.33 0 0 0 13.25-13.25v-73z" fill="#fff" opacity=".58"/><path d="m190.85 157.85a13.33 13.33 0 0 0 -13.25-13.25h-63.18a13.33 13.33 0 0 0 -13.25 13.25v73a13.33 13.33 0 0 0 13.25 13.25h63.36a13.33 13.33 0 0 0 13.22-13.26v-73z" fill="#fff" opacity=".58"/><path d="m329.34 133v42.44a12.65 12.65 0 0 1 -.71 4.15 11.59 11.59 0 0 0 .78-4.15v-42.44z" fill="#fff"/><path d="m91.39 249.66s-12.39-11.47-9.73-28.38" fill="none" stroke="#c1ad73" stroke-miterlimit="10" stroke-width="3"/><path d="m87.11 258.09s-19-16.61-15-37.95" fill="none" stroke="#c1ad73" stroke-miterlimit="10" stroke-width="3"/><path d="m82.33 266s-24.94-19.9-20.12-47.87" fill="none" stroke="#c1ad73" stroke-miterlimit="10" stroke-width="3"/><path d="m191.76 257.45s14.72-8.29 16-25.36" fill="none" stroke="#c1ad73" stroke-miterlimit="10" stroke-width="3"/><path d="m194 266.64s22.33-11.76 23.4-33.44" fill="none" stroke="#c1ad73" stroke-miterlimit="10" stroke-width="3"/><path d="m196.81 275.4s28.87-13.59 30.65-41.92" fill="none" stroke="#c1ad73" stroke-miterlimit="10" stroke-width="3"/><path d="m200 162.23a6.93 6.93 0 0 0 -1.79.33v-1a23.91 23.91 0 0 0 -14.83-22l-7.66-19.07c-1.14-2.93-5.05-4.89-9.45-4.89h-38.18c-4.4 0-8.31 2-9.45 4.89l-7.34 18.26a24 24 0 0 0 -17.44 22.82v65.53a23.62 23.62 0 0 0 17.44 22.82l7.34 18.26c1.14 2.93 5.05 4.89 9.45 4.89h38c4.4 0 8.31-2 9.45-4.89l7.81-19.18a23.91 23.91 0 0 0 14.83-22v-42.92a5.86 5.86 0 0 0 1.79.33 6.37 6.37 0 0 0 6.36-6.36v-9.45a6.47 6.47 0 0 0 -6.33-6.37zm-10.6 64.88v.33c0 .82-.16 1.47-.16 2.12a3.84 3.84 0 0 1 -.33 1.3c-.16.49-.16.82-.33 1.3a5.79 5.79 0 0 1 -.65 1.47 11.81 11.81 0 0 1 -2.93 4.08l-.16.16a17.27 17.27 0 0 1 -2 1.63 14.78 14.78 0 0 1 -8.31 2.61h-56.88a14.62 14.62 0 0 1 -7.82-2.28 14.86 14.86 0 0 1 -7-12.71v-65.54a14.85 14.85 0 0 1 11.57-14.51 3.59 3.59 0 0 1 1.3-.16 1 1 0 0 0 .65-.16h60a8.18 8.18 0 0 1 2 .33c.65.16 1.14.33 1.79.49a.57.57 0 0 1 .33.16 15.3 15.3 0 0 1 9.13 13.53v65.86z" fill="url(#h)" opacity=".1"/><path d="m186.28 161.58a12 12 0 0 0 -11.9-11.9h-56.73a12 12 0 0 0 -11.9 11.9v65.53a12 12 0 0 0 11.9 11.9h56.89a12 12 0 0 0 11.9-11.9v-65.53z" fill="#c1ad73"/><path d="m143.92 186.53a16.56 16.56 0 0 0 -1.87-7.1 5.45 5.45 0 0 0 -7.05-1.93c-6.69 3.24-14.45 11.5-13.7 32.5a4.06 4.06 0 0 0 3.59 4.13h.76a36.64 36.64 0 0 0 12.35-2.79 6.1 6.1 0 0 0 3.94-4.74 95.84 95.84 0 0 0 2-13.3c.11-1.54.16-3 .14-4.32l.13-.13v-2.55zm-3.66 19.7a4.52 4.52 0 0 1 -2.92 3.59c-7.41 2.74-11.32 2.72-12.33 2.65a2.48 2.48 0 0 1 -2.08-2.57c-.74-20.06 6.51-27.83 12.74-30.94a4.06 4.06 0 0 1 1.85-.41 3.71 3.71 0 0 1 3.18 1.72c2.87 4.87 1.6 16.61-.42 26z" fill="#fff"/><path d="m157.17 177.66a5.45 5.45 0 0 0 -7.17 1.66 16.88 16.88 0 0 0 -2.16 7.14l-.86-1a.26.26 0 0 1 0-.17l.66-18.64c0-.28-.38-.44-.91-.47s-.88.12-.94.4l-.79 18.67a.26.26 0 0 1 0 .17l-.57.54-.07 2.54.88-.9a1.08 1.08 0 0 1 .77-.29h.26l.16-5.91.17-6.28-.17 6.28-.16 5.91a1 1 0 0 1 .47.27l1 1.25a85.86 85.86 0 0 0 1.38 17.57 6.1 6.1 0 0 0 3.72 4.92 36.62 36.62 0 0 0 12.21 3.32h.65a4.06 4.06 0 0 0 3.82-4c1.48-20.82-5.86-29.45-12.35-32.98zm11 32.65a2.48 2.48 0 0 1 -2.14 2.53c-1 0-4.86 0-12.27-2.92a4.52 4.52 0 0 1 -2.84-3.72c-1.82-9.41-2.84-21.19.09-26a3.71 3.71 0 0 1 3.21-1.66 4.06 4.06 0 0 1 1.85.45c6.19 3.28 13.29 11.27 12.1 31.32z" fill="#fff"/><circle cx="161.57" cy="178.41" fill="#d8cbad" r="7.2" stroke="#fff" stroke-miterlimit="10"/><text fill="#fff" font-family="Usual-Bold, Usual" font-size="7.62" font-weight="700" transform="translate(159.89 181.59)">!</text><path d="m209.11 116.14h13.69v16.88h-13.69z" fill="#ececec"/><path d="m229.92 116.14h13.69v16.88h-13.69z" fill="#ececec"/><path d="m175 95.49h9.88v2.66h-9.88z" fill="#d8cbad" stroke="#fff" stroke-miterlimit="10"/><path d="m189.03 95.49h9.88v2.66h-9.88z" fill="#d8cbad" stroke="#fff" stroke-miterlimit="10"/><path d="m229.49 121.65h14.46v11.38h-14.46z" fill="#d8cbad"/><path d="m208.7 121.65h14.46v11.38h-14.46z" fill="#d8cbad"/><path d="m193.05 133s14.13 9.26 14.29 26.38" fill="none" stroke="#c1ad73" stroke-miterlimit="10" stroke-width="3"/><path d="m195.87 124s21.49 13.24 21.1 34.94" fill="none" stroke="#c1ad73" stroke-miterlimit="10" stroke-width="3"/><path d="m199.29 115.45s27.89 15.5 27.77 43.88" fill="none" stroke="#c1ad73" stroke-miterlimit="10" stroke-width="3"/><path d="m295.47 117.84h26.53v15.18h-26.53z" fill="url(#i)" opacity=".1"/><path d="m295.47 117.84h26.53v15.18h-26.53z" fill="#fff"/><path d="m295.47 117.84h26.53v15.18h-26.53z" fill="url(#i)" opacity=".1"/></svg>