<svg viewBox="0 0 350 311.43" xmlns="http://www.w3.org/2000/svg" xmlns:xlink="http://www.w3.org/1999/xlink"><linearGradient id="a" gradientTransform="matrix(1 0 0 -1 0 314)" gradientUnits="userSpaceOnUse" x1="288.72" x2="348.99" y1="263.94" y2="263.94"><stop offset="0" stop-color="#c69c6d"/><stop offset=".1" stop-color="#a3815a"/><stop offset=".26" stop-color="#725a3f"/><stop offset=".42" stop-color="#493a28"/><stop offset=".58" stop-color="#292017"/><stop offset=".73" stop-color="#120e0a"/><stop offset=".87" stop-color="#050403"/><stop offset="1"/></linearGradient><linearGradient id="b" x1="93.97" x2="206.45" xlink:href="#a" y1="194.35" y2="194.35"/><path d="m.12 143.38h75.83v44.94h-75.83z" fill="#fff"/><path d="m22.43 148.05-.89-.3 2.18-7.34.89.31z" fill="#c1ad73"/><path d="m24.38 148.72-.91-.31.7-2.36.91.31z" fill="#c1ad73"/><path d="m26.22 149.35-.86-.3 3-10.1.86.3z" fill="#c1ad73"/><path d="m33.1 147.43-.86.4-2.88-7.04.85-.41z" fill="#c1ad73"/><path d="m34.97 146.55-.87.41-.93-2.27.87-.41z" fill="#c1ad73"/><path d="m36.74 145.72-.83.38-3.97-9.7.82-.39z" fill="#c1ad73"/><path d="m9.62 94.51a4 4 0 0 1 4 4v62.84a4 4 0 0 1 -4 4 4 4 0 0 1 -4-4v-62.86a4 4 0 0 1 4-3.98z" fill="#c1ad73"/><path d="m6.28 120.93v38.47c0 2.08 1.34 3.79 3 3.79h.72c1.64 0 3-1.7 3-3.79v-38.47z" fill="#ececec"/><path d="m13.78 148.5-8.21.19v-19.38l8.03-.02z" fill="#ccc"/><path d="m7.15 131.43h.91v6.94h-.91z" fill="#d8cbad"/><path d="m9.18 131.43h.96v12.14h-.96z" fill="#d8cbad"/><path d="m7.15 139.01h.93v7.7h-.93z" fill="#c1ad73"/><path d="m9.18 144.24h.95v2.48h-.95z" fill="#c1ad73"/><path d="m11.16 136.11h.9v10.6h-.9z" fill="#c1ad73"/><path d="m11.16 131.45h.9v3.98h-.9z" fill="#c1ad73"/><path d="m.12 134.78h75.83v9.28h-75.83z" fill="#c1ad73"/><path d="m13.6 129.3v-.01l-8.03.02v2.71z" fill="#ccc"/><path d="m11.16 134.78h.9v.65h-.9z" fill="#c1ad73"/><path d="m9.18 131.43h.96v3.35h-.96z" fill="#c1ad73"/><path d="m7.15 131.43h.91v3.35h-.91z" fill="#c1ad73"/><path d="m33.1 147.08-.86.41-2.88-7.05.85-.4z" fill="#c1ad73"/><path d="m34.97 146.2-.87.41-.93-2.26.87-.41z" fill="#c1ad73"/><path d="m36.74 145.37-.83.39-3.97-9.71.82-.39z" fill="#c1ad73"/><path d="m.12 143.38h95.74v44.94h-95.74z" fill="#fff"/><path d="m15.23 106.14-11.32.1a.35.35 0 0 1 -.37-.35l.09-11.31a.37.37 0 0 1 .37-.37l11.32-.1a.35.35 0 0 1 .37.35l-.09 11.3a.37.37 0 0 1 -.34.37z" fill="#c1ad73"/><path d="m4.49 106.25h-.6l.11-12 .58-.01z" fill="#ccc"/><path d="m5.68 106.23-.58.01.1-12.01h.59z" fill="#ccc"/><path d="m6.88 106.22-.59.01.1-12 .59-.01z" fill="#ccc"/><path d="m8.08 106.21h-.59l.1-12 .59-.01z" fill="#ccc"/><path d="m9.27 106.2-.59.01.1-12.01h.59z" fill="#ccc"/><path d="m10.47 106.19h-.59l.1-11.99.59-.01z" fill="#ccc"/><path d="m11.67 106.18h-.6l.11-12h.6z" fill="#ccc"/><path d="m12.86 106.17-.58.01.1-12 .59-.01z" fill="#ccc"/><path d="m14.07 106.16h-.59l.09-11.99.6-.02z" fill="#ccc"/><path d="m15.26 106.15-.59.01.1-12.01h.59z" fill="#ccc"/><path d="m23.08 94.51a4 4 0 0 1 4 4v62.84a4 4 0 0 1 -4 4 4 4 0 0 1 -4-4v-62.86a4 4 0 0 1 4-3.98z" fill="#c1ad73"/><path d="m19.74 120.93v38.47c0 2.08 1.34 3.79 3 3.79h.73c1.64 0 3-1.7 3-3.79v-38.47z" fill="#ececec"/><path d="m27.23 148.5-8.21.19v-19.38l8.03-.02z" fill="#ccc"/><path d="m24.62 131.45h.9v3.98h-.9z" fill="#c1ad73"/><path d="m27.05 129.3v-.01l-8.03.02v2.71z" fill="#ccc"/><path d="m22.64 131.43h.96v3.35h-.96z" fill="#c1ad73"/><path d="m20.61 131.43h.91v3.35h-.91z" fill="#c1ad73"/><path d="m28.69 106.14-11.32.1a.35.35 0 0 1 -.37-.35l.09-11.31a.37.37 0 0 1 .35-.36l11.32-.1a.35.35 0 0 1 .37.35l-.09 11.3a.37.37 0 0 1 -.34.37z" fill="#c1ad73"/><path d="m17.94 106.25h-.59l.1-12 .59-.01z" fill="#ccc"/><path d="m19.14 106.23-.59.01.1-12.01h.59z" fill="#ccc"/><path d="m20.33 106.22-.59.01.11-12 .58-.01z" fill="#ccc"/><path d="m21.53 106.21h-.59l.11-12 .59-.01z" fill="#ccc"/><path d="m22.73 106.2-.59.01.1-12.01h.59z" fill="#ccc"/><path d="m23.93 106.19h-.59l.1-11.99.59-.01z" fill="#ccc"/><path d="m25.13 106.18h-.6l.1-12h.6z" fill="#ccc"/><path d="m26.32 106.17-.59.01.11-12 .58-.01z" fill="#ccc"/><path d="m27.52 106.16h-.59l.09-11.99.6-.02z" fill="#ccc"/><path d="m28.71 106.15-.58.01.1-12.01h.59z" fill="#ccc"/><path d="m36.53 94.51a4 4 0 0 1 4 4v62.84a4 4 0 0 1 -4 4 4 4 0 0 1 -4-4v-62.86a4 4 0 0 1 4-3.98z" fill="#c1ad73"/><path d="m33.19 120.93v38.47c0 2.08 1.34 3.79 3 3.79h.73c1.64 0 3-1.7 3-3.79v-38.47z" fill="#ececec"/><path d="m40.69 148.5-8.21.19v-19.38l8.03-.02z" fill="#ccc"/><path d="m38.07 131.45h.9v3.98h-.9z" fill="#c1ad73"/><path d="m40.51 129.3v-.01l-8.03.02v2.71z" fill="#ccc"/><path d="m36.09 131.43h.96v3.35h-.96z" fill="#c1ad73"/><path d="m34.06 131.43h.91v3.35h-.91z" fill="#c1ad73"/><path d="m42.14 106.14-11.32.1a.35.35 0 0 1 -.37-.35l.09-11.31a.37.37 0 0 1 .35-.36l11.32-.1a.35.35 0 0 1 .37.35l-.09 11.3a.37.37 0 0 1 -.34.37z" fill="#c1ad73"/><path d="m31.39 106.25h-.59l.11-12 .59-.01z" fill="#ccc"/><path d="m32.6 106.23-.59.01.1-12.01h.59z" fill="#ccc"/><path d="m33.79 106.22-.59.01.1-12 .59-.01z" fill="#ccc"/><path d="m34.99 106.21h-.59l.1-12 .59-.01z" fill="#ccc"/><path d="m36.18 106.2-.59.01.1-12.01h.59z" fill="#ccc"/><path d="m37.38 106.19h-.59l.11-11.99.58-.01z" fill="#ccc"/><path d="m38.58 106.18h-.6l.11-12h.6z" fill="#ccc"/><path d="m39.77 106.17-.58.01.1-12 .59-.01z" fill="#ccc"/><path d="m40.98 106.16h-.59l.09-11.99.6-.02z" fill="#ccc"/><path d="m42.17 106.15-.59.01.1-12.01h.59z" fill="#ccc"/><circle cx="318.82" cy="38.94" fill="#ccc" r="30.13"/><circle cx="317.53" cy="37.66" fill="#ececec" r="28.38"/><circle cx="317.41" cy="37.21" fill="#fff" r="18.05"/><path d="m345.2 31.07a28.38 28.38 0 1 1 -55.26 0h-.2a30.13 30.13 0 1 0 58.24 0z" fill="#ccc"/><path d="m317.23 188.19-19.14 123.28h52.06v-123.48z" fill="#c1ad73"/><path d="m-.19 187.97h350v123.6h-350z" fill="#c1ad73"/><path d="m-.16 143.38h75.83v44.94h-75.83z" fill="#fff"/><path d="m163.84 82h151.53c7.75 0 14 5.69 14 12.71v80.72c0 7-6.28 12.71-14 12.71h-151.53c-7.75 0-14-5.69-14-12.71v-80.68c-.04-7.02 6.25-12.75 14-12.75z" fill="#ccc"/><path d="m48.22 100.81h5.02v34.7h-5.02z" fill="#ececec"/><path d="m60.27 100.81h5.02v34.7h-5.02z" fill="#ececec"/><path d="m61.52 109.04h2.78v.49h-2.78z" fill="#c1ad73"/><path d="m61.52 117.21h2.78v.49h-2.78z" fill="#c1ad73"/><path d="m61.52 121.29h2.78v.49h-2.78z" fill="#c1ad73"/><path d="m61.52 125.38h2.78v.49h-2.78z" fill="#c1ad73"/><path d="m61.52 129.47h2.78v.49h-2.78z" fill="#c1ad73"/><path d="m72.58 100.81h5.02v34.7h-5.02z" fill="#ececec"/><path d="m84.63 100.46h5.02v34.7h-5.02z" fill="#ececec"/><path d="m86.1 93.82h2.2v5.21h-2.2z" fill="#c1ad73"/><path d="m84.27 92.63a1.43 1.43 0 0 0 1.31 1.51h3.42a1.43 1.43 0 0 0 1.31-1.51h-6z" fill="#ccc"/><path d="m82 98.6v.08a2.46 2.46 0 0 0 2.29 2.59h5.88a2.46 2.46 0 0 0 2.29-2.59v-.08z" fill="#ccc"/><g fill="#c1ad73"><path d="m86.83 106.42h.82v28.02h-.82z"/><path d="m73.71 109.04h2.78v.49h-2.78z"/><path d="m73.71 113.12h2.78v.49h-2.78z"/><path d="m73.71 117.21h2.78v.49h-2.78z"/><path d="m73.71 121.29h2.78v.49h-2.78z"/><path d="m73.71 125.38h2.78v.49h-2.78z"/><path d="m73.71 129.47h2.78v.49h-2.78z"/><path d="m85.88 109.04h2.78v.49h-2.78z"/><path d="m85.88 113.12h2.78v.49h-2.78z"/><path d="m85.88 117.21h2.78v.49h-2.78z"/><path d="m85.88 121.29h2.78v.49h-2.78z"/><path d="m85.88 125.38h2.78v.49h-2.78z"/><path d="m85.88 129.47h2.78v.49h-2.78z"/><path d="m22.15 148.05-.89-.3 2.18-7.34.89.31z"/><path d="m24.1 148.72-.91-.31.7-2.36.91.31z"/><path d="m25.94 149.35-.86-.3 3-10.1.86.3z"/><path d="m32.82 147.43-.86.4-2.88-7.04.85-.41z"/><path d="m34.69 146.55-.87.41-.93-2.27.87-.41z"/><path d="m36.46 145.72-.83.38-3.97-9.7.82-.39z"/><path d="m6.87 139.01h.93v7.7h-.93z"/><path d="m8.9 144.24h.95v2.48h-.95z"/><path d="m10.88 136.11h.9v10.6h-.9z"/></g><path d="m271.91 123.83h-23.43v-21.4h-18.56v21.4h-23.59v18.56h23.59v21.4h18.56v-21.4h23.43z" fill="#fff"/><path d="m345.2 31.12a28.38 28.38 0 1 1 -55.26 0h-.2a30.13 30.13 0 1 0 58.24 0z" fill="url(#a)" opacity=".05"/><path d="m300.44 31.36a18 18 0 1 0 34 0z" fill="#fff"/><path d="m10.88 134.78h.9v.65h-.9z" fill="#c1ad73"/><path d="m32.82 147.08-.86.41-2.88-7.05.85-.4z" fill="#c1ad73"/><path d="m34.69 146.2-.87.41-.93-2.26.87-.41z" fill="#c1ad73"/><path d="m36.46 145.37-.83.39-3.97-9.71.82-.39z" fill="#c1ad73"/><path d="m49.35 117.21h2.78v.49h-2.78z" fill="#c1ad73"/><path d="m49.35 121.29h2.78v.49h-2.78z" fill="#c1ad73"/><path d="m49.35 125.38h2.78v.49h-2.78z" fill="#c1ad73"/><path d="m49.35 129.47h2.78v.49h-2.78z" fill="#c1ad73"/><path d="m53.24 115.85v-15.04h-5.09v16.82z" fill="#ececec"/><path d="m50.33 106.42h.82v28.02h-.82z" fill="#c1ad73"/><path d="m62.46 106.42h.82v28.02h-.82z" fill="#c1ad73"/><path d="m51.15 116.6v-10.18h-.82v10.46z" fill="#c1ad73"/><path d="m49.39 94.17h2.2v5.21h-2.2z" fill="#c1ad73"/><path d="m47.56 93a1.43 1.43 0 0 0 1.31 1.51h3.37a1.43 1.43 0 0 0 1.31-1.51h-6z" fill="#ccc"/><path d="m45.25 98.95v.05a2.46 2.46 0 0 0 2.29 2.59h5.86a2.46 2.46 0 0 0 2.28-2.59v-.08z" fill="#ccc"/><path d="m49.35 109.04h2.78v.49h-2.78z" fill="#c1ad73"/><path d="m317.23 188.19-19.14 123.28h52.06v-123.48z" fill="#c1ad73"/><path d="m49.35 113.12h2.78v.49h-2.78z" fill="#c1ad73"/><path d="m289.39 34.27a28.9 28.9 0 0 1 .55-3.12h-.2a30.07 30.07 0 0 0 -.66 3.22z" fill="#ccc"/><path d="m348 31.15h-2.8a28.31 28.31 0 0 1 -14.8 31.75l-.57 4.1c13.17-5 19.17-17.5 19.17-28.09a30.16 30.16 0 0 0 -1-7.76z" fill="#ccc"/><path d="m298.41 31.17h-8.5a28.9 28.9 0 0 0 -.55 3.12z" fill="#ececec"/><path d="m65.28 111.74v-10.97h-5.02v12.7z" fill="#ececec"/><path d="m61.52 113.12h2.78v.49h-2.78z" fill="#d8cbad"/><path d="m61.74 94.17h2.2v5.21h-2.2z" fill="#c1ad73"/><path d="m59.92 93a1.43 1.43 0 0 0 1.31 1.51h3.37a1.43 1.43 0 0 0 1.31-1.51h-6z" fill="#ccc"/><path d="m57.6 98.95v.05a2.46 2.46 0 0 0 2.29 2.59h5.88a2.46 2.46 0 0 0 2.23-2.59v-.08z" fill="#ccc"/><path d="m61.55 109.04h2.78v.49h-2.78z" fill="#c1ad73"/><path d="m77.59 107.54v-6.73h-5.01v8.45z" fill="#ececec"/><path d="m73.74 94.17h2.2v5.21h-2.2z" fill="#c1ad73"/><path d="m71.92 93a1.43 1.43 0 0 0 1.31 1.51h3.37a1.43 1.43 0 0 0 1.31-1.51h-6z" fill="#ccc"/><path d="m69.6 98.95v.05a2.46 2.46 0 0 0 2.29 2.59h5.88a2.46 2.46 0 0 0 2.23-2.59v-.08z" fill="#ccc"/><path d="m74.69 106.42h.82v28.02h-.82z" fill="#c1ad73"/><path d="m61.45 109.04h2.78v.49h-2.78z" fill="#c1ad73"/><path d="m61.45 113.12h2.78v.49h-2.78z" fill="#c1ad73"/><path d="m63.28 112.43v-6.01h-.82v6.3z" fill="#c1ad73"/><path d="m75.51 108.2v-1.78h-.82v2.06z" fill="#c1ad73"/><path d="m140.27 178.85a4.38 4.38 0 0 0 -3.74-2 4.79 4.79 0 0 0 -2.19.48c-7.36 3.57-16 12.81-15.13 36.49a2.93 2.93 0 0 0 2.45 3c1.18 0 5.71.13 14.56-3.09a5.34 5.34 0 0 0 3.46-4.23c2.43-11.04 3.96-24.89.59-30.65z" fill="#fff"/><path d="m158.4 177.54a4.79 4.79 0 0 0 -2.19-.53 4.38 4.38 0 0 0 -3.79 2c-3.5 5.69-2.34 19.57 0 30.65a5.34 5.34 0 0 0 3.37 4.38c8.76 3.39 13.31 3.46 14.49 3.39a2.93 2.93 0 0 0 2.52-3c1.27-23.76-7.13-33.17-14.4-36.89z" fill="#fff"/><path d="m144.34 185.99-.02 3z" fill="#c1ad73"/><path d="m144.35 185.99-.03 3" fill="#c1ad73"/><path d="m144.32 188.99.03-3" fill="#c1ad73"/><path d="m146.51 187.58.09-6.98z" fill="#c1ad73"/><path d="m146.6 180.62.02-2.21" fill="#c1ad73"/><path d="m146.53 187.58.07-6.96" fill="#c1ad73"/><path d="m146.67 173.18-.07 7.44" fill="#c1ad73"/><path d="m146.6 180.62-.07 6.96" fill="#c1ad73"/><path d="m190.85 157.85a13.33 13.33 0 0 0 -13.25-13.25h-63.18a13.33 13.33 0 0 0 -13.25 13.25v73a13.33 13.33 0 0 0 13.25 13.25h63.36a13.33 13.33 0 0 0 13.22-13.26v-73z" fill="#fff" opacity=".65"/><path d="m186.28 161.58a12 12 0 0 0 -11.9-11.9h-56.73a12 12 0 0 0 -11.9 11.9v65.53a12 12 0 0 0 11.9 11.9h56.89a12 12 0 0 0 11.9-11.9v-65.53z" fill="#fff"/><path d="m.12 134.78h95.74v9.28h-95.74z" fill="#c1ad73"/><path d="m-.16 134.78h75.83v9.28h-75.83z" fill="#c1ad73"/><path d="m-.16 143.38h96.02v44.94h-96.02z" fill="#ececec"/><path d="m186.28 161.58a12 12 0 0 0 -11.9-11.9h-56.73a12 12 0 0 0 -11.9 11.9v65.53a12 12 0 0 0 11.9 11.9h56.89a12 12 0 0 0 11.9-11.9v-65.53z" fill="#fff"/><path d="m200 162.23a6.93 6.93 0 0 0 -1.79.33v-1a23.91 23.91 0 0 0 -14.83-22l-7.66-19.07c-1.14-2.93-5.05-4.89-9.45-4.89h-38.18c-4.4 0-8.31 2-9.45 4.89l-7.34 18.26a24 24 0 0 0 -17.44 22.82v65.53a23.62 23.62 0 0 0 17.44 22.82l7.34 18.26c1.14 2.93 5.05 4.89 9.45 4.89h38c4.4 0 8.31-2 9.45-4.89l7.81-19.18a23.91 23.91 0 0 0 14.83-22v-42.92a5.86 5.86 0 0 0 1.79.33 6.37 6.37 0 0 0 6.36-6.36v-9.45a6.47 6.47 0 0 0 -6.33-6.37zm-10.6 64.88v.33c0 .82-.16 1.47-.16 2.12a3.84 3.84 0 0 1 -.33 1.3c-.16.49-.16.82-.33 1.3a5.79 5.79 0 0 1 -.65 1.47 11.81 11.81 0 0 1 -2.93 4.08l-.16.16a17.27 17.27 0 0 1 -2 1.63 14.78 14.78 0 0 1 -8.31 2.61h-56.88a14.62 14.62 0 0 1 -7.82-2.28 14.86 14.86 0 0 1 -7-12.71v-65.54a14.85 14.85 0 0 1 11.57-14.51 3.59 3.59 0 0 1 1.3-.16 1 1 0 0 0 .65-.16h60a8.18 8.18 0 0 1 2 .33c.65.16 1.14.33 1.79.49a.57.57 0 0 1 .33.16 15.3 15.3 0 0 1 9.13 13.53v65.86z" fill="#fff"/><path d="m143.89 186.53a16.56 16.56 0 0 0 -1.87-7.1 5.45 5.45 0 0 0 -7.09-1.93c-6.65 3.24-14.42 11.51-13.66 32.47a4.06 4.06 0 0 0 3.59 4.13h.76a36.64 36.64 0 0 0 12.38-2.76 6.1 6.1 0 0 0 3.94-4.74 95.84 95.84 0 0 0 2-13.3c.11-1.54.16-3 .14-4.32l.13-.13v-2.55zm-3.66 19.7a4.52 4.52 0 0 1 -2.92 3.59c-7.41 2.74-11.32 2.72-12.33 2.65a2.48 2.48 0 0 1 -2.08-2.57c-.74-20.06 6.51-27.83 12.74-30.94a4.06 4.06 0 0 1 1.85-.41 3.71 3.71 0 0 1 3.18 1.72c2.87 4.87 1.6 16.61-.42 26z" fill="#c1ad73"/><path d="m157.14 177.66a5.45 5.45 0 0 0 -7.17 1.66 16.88 16.88 0 0 0 -2.16 7.14l-.86-1a.26.26 0 0 1 0-.17l.66-18.64c0-.28-.38-.44-.91-.47s-.88.12-.94.4l-.76 18.67a.26.26 0 0 1 0 .17l-.57.54-.07 2.54.88-.9a1.08 1.08 0 0 1 .77-.29h.26l.16-5.91.17-6.28-.17 6.28-.16 5.91a1 1 0 0 1 .47.27l1 1.25a85.86 85.86 0 0 0 1.38 17.57 6.1 6.1 0 0 0 3.72 4.92 36.62 36.62 0 0 0 12.21 3.32h.65a4.06 4.06 0 0 0 3.82-4c1.48-20.82-5.89-29.45-12.38-32.98zm11 32.65a2.48 2.48 0 0 1 -2.14 2.53c-1 0-4.86 0-12.27-2.92a4.52 4.52 0 0 1 -2.84-3.72c-1.82-9.41-2.84-21.19.09-26a3.71 3.71 0 0 1 3.21-1.66 4.06 4.06 0 0 1 1.85.45c6.2 3.28 13.29 11.27 12.11 31.32z" fill="#c1ad73"/><path d="m200.09 162.23a6.93 6.93 0 0 0 -1.79.33v-1a23.91 23.91 0 0 0 -14.83-22l-7.67-19.06c-1.14-2.93-5.05-4.89-9.45-4.89h-38.15c-4.4 0-8.31 2-9.45 4.89l-7.34 18.26a24 24 0 0 0 -17.41 22.82v65.53a23.62 23.62 0 0 0 17.44 22.82l7.34 18.26c1.14 2.93 5.05 4.89 9.45 4.89h38c4.4 0 8.31-2 9.45-4.89l7.78-19.19a23.91 23.91 0 0 0 14.83-22v-42.92a5.86 5.86 0 0 0 1.79.33 6.37 6.37 0 0 0 6.36-6.36v-9.45a6.47 6.47 0 0 0 -6.35-6.37zm-10.6 64.88v.33c0 .82-.16 1.47-.16 2.12a3.84 3.84 0 0 1 -.33 1.3c-.16.49-.16.82-.33 1.3a5.79 5.79 0 0 1 -.65 1.47 11.81 11.81 0 0 1 -2.93 4.08l-.16.16a17.27 17.27 0 0 1 -2 1.63 14.78 14.78 0 0 1 -8.31 2.61h-56.85a14.62 14.62 0 0 1 -7.82-2.28 14.86 14.86 0 0 1 -7-12.71v-65.54a14.85 14.85 0 0 1 11.57-14.51 3.59 3.59 0 0 1 1.3-.16 1 1 0 0 0 .65-.16h60a8.18 8.18 0 0 1 2 .33c.65.16 1.14.33 1.79.49a.57.57 0 0 1 .33.16 15.3 15.3 0 0 1 9.13 13.53v65.86z" fill="#fff" opacity=".1"/><path d="m200.09 162.23a6.93 6.93 0 0 0 -1.79.33v-1a23.91 23.91 0 0 0 -14.83-22l-7.67-19.06c-1.14-2.93-5.05-4.89-9.45-4.89h-38.15c-4.4 0-8.31 2-9.45 4.89l-7.34 18.26a24 24 0 0 0 -17.41 22.82v65.53a23.62 23.62 0 0 0 17.44 22.82l7.34 18.26c1.14 2.93 5.05 4.89 9.45 4.89h38c4.4 0 8.31-2 9.45-4.89l7.78-19.19a23.91 23.91 0 0 0 14.83-22v-42.92a5.86 5.86 0 0 0 1.79.33 6.37 6.37 0 0 0 6.36-6.36v-9.45a6.47 6.47 0 0 0 -6.35-6.37zm-10.6 64.88v.33c0 .82-.16 1.47-.16 2.12a3.84 3.84 0 0 1 -.33 1.3c-.16.49-.16.82-.33 1.3a5.79 5.79 0 0 1 -.65 1.47 11.81 11.81 0 0 1 -2.93 4.08l-.16.16a17.27 17.27 0 0 1 -2 1.63 14.78 14.78 0 0 1 -8.31 2.61h-56.85a14.62 14.62 0 0 1 -7.82-2.28 14.86 14.86 0 0 1 -7-12.71v-65.54a14.85 14.85 0 0 1 11.57-14.51 3.59 3.59 0 0 1 1.3-.16 1 1 0 0 0 .65-.16h60a8.18 8.18 0 0 1 2 .33c.65.16 1.14.33 1.79.49a.57.57 0 0 1 .33.16 15.3 15.3 0 0 1 9.13 13.53v65.86z" fill="url(#b)" opacity=".05"/></svg>