<svg id="Layer_1" data-name="Layer 1" xmlns="http://www.w3.org/2000/svg" xmlns:xlink="http://www.w3.org/1999/xlink" viewBox="0 0 350 311.43"><defs><style>.cls-1{fill:#ccc;}.cls-2{fill:#ececec;}.cls-13,.cls-3{fill:#fff;}.cls-4,.cls-7,.cls-8,.cls-9{opacity:0.05;isolation:isolate;}.cls-4{fill:url(#linear-gradient);}.cls-5{fill:#c1ad73;}.cls-12,.cls-6{fill:#d8cbad;}.cls-7{fill:url(#linear-gradient-2);}.cls-8{fill:url(#linear-gradient-3);}.cls-9{fill:url(#linear-gradient-4);}.cls-10{opacity:0.1;fill:url(#linear-gradient-7);}.cls-11{fill:none;stroke:#c1ad73;stroke-width:5px;}.cls-11,.cls-12{stroke-miterlimit:10;}.cls-12{stroke:#fff;}.cls-13{font-size:7.62px;font-family:Usual-Bold, Usual;font-weight:700;}</style><linearGradient id="linear-gradient" x1="293.32" y1="240.28" x2="60.29" y2="-1.68" gradientTransform="matrix(1, 0, 0, -1, 0, 314)" gradientUnits="userSpaceOnUse"><stop offset="0" stop-color="#c69c6d"/><stop offset="0.1" stop-color="#a3815a"/><stop offset="0.26" stop-color="#725a3f"/><stop offset="0.42" stop-color="#493a28"/><stop offset="0.58" stop-color="#292017"/><stop offset="0.73" stop-color="#120e0a"/><stop offset="0.87" stop-color="#050403"/><stop offset="1"/></linearGradient><linearGradient id="linear-gradient-2" x1="288.72" y1="263.94" x2="348.99" y2="263.94" xlink:href="#linear-gradient"/><linearGradient id="linear-gradient-3" x1="149.9" y1="178.99" x2="329.32" y2="178.99" xlink:href="#linear-gradient"/><linearGradient id="linear-gradient-4" x1="317.27" y1="165.09" x2="329.34" y2="165.09" xlink:href="#linear-gradient"/><linearGradient id="linear-gradient-7" x1="93.85" y1="194.35" x2="206.33" y2="194.35" gradientTransform="matrix(1, 0, 0, 1, 0, 0)" xlink:href="#linear-gradient"/></defs><title>AMMA_light_onArtboard 1 copy</title><circle class="cls-1" cx="318.82" cy="38.94" r="30.13"/><circle class="cls-2" cx="317.53" cy="37.66" r="28.38"/><circle class="cls-3" cx="317.41" cy="37.21" r="18.05"/><path class="cls-1" d="M345.2,31.07a28.38,28.38,0,1,1-55.26,0h-.2a30.13,30.13,0,1,0,58.24,0Z"/><polygon class="cls-4" points="299.35 31.59 -0.28 134.14 -0.25 311.98 298.05 313.24 334.48 31.67 299.35 31.59"/><polygon class="cls-5" points="317.23 188.19 298.09 311.47 350.15 311.47 350.15 187.99 317.23 188.19"/><rect class="cls-6" x="-0.19" y="187.97" width="350" height="123.6"/><rect class="cls-3" x="-0.16" y="143.38" width="75.83" height="44.94"/><path class="cls-3" d="M163.84,82H315.37c7.75,0,14,5.69,14,12.71v80.72c0,7-6.28,12.71-14,12.71H163.84c-7.75,0-14-5.69-14-12.71V94.75C149.8,87.73,156.09,82,163.84,82Z"/><rect class="cls-3" x="48.22" y="100.81" width="5.02" height="34.7"/><rect class="cls-3" x="60.27" y="100.81" width="5.02" height="34.7"/><rect class="cls-5" x="61.52" y="109.04" width="2.78" height="0.49"/><rect class="cls-6" x="61.52" y="117.21" width="2.78" height="0.49"/><rect class="cls-6" x="61.52" y="121.29" width="2.78" height="0.49"/><rect class="cls-6" x="61.52" y="125.38" width="2.78" height="0.49"/><rect class="cls-6" x="61.52" y="129.47" width="2.78" height="0.49"/><rect class="cls-3" x="72.58" y="100.81" width="5.02" height="34.7"/><rect class="cls-2" x="84.63" y="100.46" width="5.02" height="34.7"/><rect class="cls-5" x="86.1" y="93.82" width="2.2" height="5.21"/><path class="cls-1" d="M84.27,92.63h0a1.43,1.43,0,0,0,1.31,1.51H89a1.43,1.43,0,0,0,1.31-1.51h-6Z"/><path class="cls-1" d="M82,98.6v.08a2.46,2.46,0,0,0,2.29,2.59h5.88a2.46,2.46,0,0,0,2.29-2.59V98.6Z"/><rect class="cls-6" x="86.83" y="106.42" width="0.82" height="28.02"/><rect class="cls-6" x="73.71" y="109.04" width="2.78" height="0.49"/><rect class="cls-6" x="73.71" y="113.12" width="2.78" height="0.49"/><rect class="cls-6" x="73.71" y="117.21" width="2.78" height="0.49"/><rect class="cls-6" x="73.71" y="121.29" width="2.78" height="0.49"/><rect class="cls-6" x="73.71" y="125.38" width="2.78" height="0.49"/><rect class="cls-6" x="73.71" y="129.47" width="2.78" height="0.49"/><rect class="cls-6" x="85.88" y="109.04" width="2.78" height="0.49"/><rect class="cls-6" x="85.88" y="113.12" width="2.78" height="0.49"/><rect class="cls-6" x="85.88" y="117.21" width="2.78" height="0.49"/><rect class="cls-6" x="85.88" y="121.29" width="2.78" height="0.49"/><rect class="cls-6" x="85.88" y="125.38" width="2.78" height="0.49"/><rect class="cls-6" x="85.88" y="129.47" width="2.78" height="0.49"/><path class="cls-6" d="M18.44,166.29h0a4.35,4.35,0,0,1-2.58-5.36L33.5,101.6a3.94,3.94,0,0,1,4.8-2.83l.2.06h0a4.35,4.35,0,0,1,2.58,5.36L23.44,163.52a3.94,3.94,0,0,1-4.8,2.83Z"/><path class="cls-3" d="M27.76,122.91l-10.9,36.65c-.59,2,.2,4,1.76,4.58l.69.24c1.56.53,3.32-.65,3.91-2.64l10.89-36.65Z"/><polygon class="cls-3" points="26.9 151.75 19.19 149.11 24.68 130.65 32.39 133.28 26.9 151.75"/><polygon class="cls-5" points="24.49 140.09 23.62 139.8 25.59 133.19 26.46 133.49 24.49 140.09"/><polygon class="cls-5" points="24.99 145.72 24.08 145.41 27.52 133.85 28.43 134.16 24.99 145.72"/><polygon class="cls-5" points="22.15 148.05 21.26 147.75 23.44 140.41 24.33 140.72 22.15 148.05"/><polygon class="cls-5" points="24.1 148.72 23.19 148.41 23.89 146.05 24.8 146.36 24.1 148.72"/><polygon class="cls-5" points="25.94 149.35 25.08 149.05 28.08 138.95 28.94 139.25 25.94 149.35"/><polygon class="cls-5" points="29.14 138.59 28.27 138.3 29.4 134.51 30.26 134.8 29.14 138.59"/><path class="cls-5" d="M41.07,163.48h0a3.89,3.89,0,0,1-5.14-2l-.1-.24-23.36-57a4.4,4.4,0,0,1,2-5.62h0a3.89,3.89,0,0,1,5.14,2l.1.24,23.36,57A4.4,4.4,0,0,1,41.07,163.48Z"/><polygon class="cls-1" points="17.54 109.94 17.05 110.17 12.56 99.21 13.05 98.98 17.54 109.94"/><path class="cls-2" d="M21.52,124.6,36,159.81c.78,1.91,2.65,2.89,4.14,2.18l.67-.31c1.5-.71,2.09-2.84,1.3-4.75L27.64,121.72Z"/><polygon class="cls-5" points="29.67 139.8 28.83 140.19 26.23 133.84 27.07 133.45 29.67 139.8"/><polygon class="cls-5" points="33.51 143.67 32.64 144.09 28.08 132.97 28.96 132.56 33.51 143.67"/><polygon class="cls-5" points="32.82 147.43 31.96 147.83 29.08 140.79 29.93 140.38 32.82 147.43"/><polygon class="cls-5" points="34.69 146.55 33.82 146.96 32.89 144.69 33.76 144.28 34.69 146.55"/><polygon class="cls-5" points="36.46 145.72 35.63 146.1 31.66 136.4 32.48 136.01 36.46 145.72"/><polygon class="cls-5" points="32.23 135.38 31.4 135.77 29.91 132.13 30.73 131.74 32.23 135.38"/><path class="cls-5" d="M9.34,94.51h0a4,4,0,0,1,4,4v62.84a4,4,0,0,1-4,4h0a4,4,0,0,1-4-4V98.49A4,4,0,0,1,9.34,94.51Z"/><path class="cls-2" d="M6,120.93V159.4c0,2.08,1.34,3.79,3,3.79h.73c1.64,0,3-1.7,3-3.79V120.93Z"/><polygon class="cls-3" points="13.5 148.5 5.29 148.69 5.29 129.31 13.32 129.29 13.5 148.5"/><rect class="cls-6" x="6.87" y="131.43" width="0.91" height="6.94"/><rect class="cls-6" x="8.9" y="131.43" width="0.96" height="12.14"/><rect class="cls-5" x="6.87" y="139.01" width="0.93" height="7.7"/><rect class="cls-5" x="8.9" y="144.24" width="0.95" height="2.48"/><rect class="cls-5" x="10.88" y="136.11" width="0.9" height="10.6"/><rect class="cls-6" x="10.88" y="131.45" width="0.9" height="3.98"/><rect class="cls-5" x="-0.16" y="134.78" width="75.83" height="9.28"/><polygon class="cls-2" points="271.91 123.83 248.48 123.83 248.48 102.43 229.92 102.43 229.92 123.83 206.33 123.83 206.33 142.39 229.92 142.39 229.92 163.79 248.48 163.79 248.48 142.39 271.91 142.39 271.91 123.83"/><path class="cls-7" d="M345.2,31.12a28.38,28.38,0,1,1-55.26,0h-.2a30.13,30.13,0,1,0,58.24,0Z"/><path class="cls-3" d="M300.44,31.36a18,18,0,1,0,34,0Z"/><polygon class="cls-1" points="13.32 129.3 13.32 129.29 5.29 129.31 5.29 132.02 13.32 129.3"/><rect class="cls-5" x="10.88" y="134.78" width="0.9" height="0.65"/><rect class="cls-6" x="8.9" y="131.43" width="0.96" height="3.35"/><rect class="cls-6" x="6.87" y="131.43" width="0.91" height="3.35"/><polygon class="cls-2" points="28.71 123.98 27.64 121.37 21.52 124.25 22.31 126.17 28.71 123.98"/><polygon class="cls-2" points="28.71 123.98 27.64 121.37 21.52 124.25 22.31 126.17 28.71 123.98"/><polygon class="cls-2" points="29.79 123.61 27.76 122.91 27.3 124.46 29.79 123.61"/><path class="cls-5" d="M35.9,121.57l5.18-17.38a4.35,4.35,0,0,0-2.58-5.36,3.94,3.94,0,0,0-4.94,2.57l-.06.2-7,23.15Z"/><path class="cls-6" d="M41.07,163.48h0a3.89,3.89,0,0,1-5.14-2l-.1-.24-23.36-57a4.4,4.4,0,0,1,2-5.62h0a3.89,3.89,0,0,1,5.14,2l.1.24,23.36,57A4.4,4.4,0,0,1,41.07,163.48Z"/><path class="cls-5" d="M21.57,126.47l7.6-2.63-9.42-23a3.89,3.89,0,0,0-5-2.29l-.24.1a4.4,4.4,0,0,0-2,5.62Z"/><path class="cls-3" d="M21.41,124.36l14.48,35.21c.78,1.91,2.65,2.89,4.14,2.18l.67-.31c1.5-.71,2.09-2.84,1.3-4.75L27.53,121.48Z"/><polygon class="cls-5" points="32.82 147.08 31.96 147.49 29.08 140.44 29.93 140.04 32.82 147.08"/><polygon class="cls-5" points="34.69 146.2 33.82 146.61 32.89 144.35 33.76 143.94 34.69 146.2"/><polygon class="cls-5" points="36.46 145.37 35.63 145.76 31.66 136.05 32.48 135.66 36.46 145.37"/><path class="cls-5" d="M40.5,111.79l-10.86-3.18a.35.35,0,0,1-.25-.45l3.36-10.8a.37.37,0,0,1,.44-.24h0l10.86,3.18a.35.35,0,0,1,.25.45L41,111.54a.37.37,0,0,1-.43.25Z"/><polygon class="cls-1" points="30.18 108.78 29.62 108.61 33.19 97.15 33.76 97.32 30.18 108.78"/><polygon class="cls-1" points="31.34 109.11 30.77 108.95 34.35 97.49 34.91 97.66 31.34 109.11"/><polygon class="cls-1" points="32.48 109.45 31.91 109.28 35.49 97.83 36.05 97.99 32.48 109.45"/><polygon class="cls-1" points="33.63 109.79 33.07 109.62 36.64 98.16 37.21 98.33 33.63 109.79"/><polygon class="cls-1" points="34.78 110.12 34.21 109.96 37.79 98.5 38.35 98.67 34.78 110.12"/><polygon class="cls-1" points="35.93 110.45 35.36 110.29 38.94 98.84 39.51 99 35.93 110.45"/><polygon class="cls-1" points="37.08 110.8 36.51 110.63 40.08 99.17 40.66 99.34 37.08 110.8"/><polygon class="cls-1" points="38.23 111.13 37.66 110.97 41.24 99.52 41.8 99.68 38.23 111.13"/><polygon class="cls-1" points="39.38 111.47 38.81 111.3 42.38 99.85 42.96 100.01 39.38 111.47"/><polygon class="cls-1" points="40.52 111.81 39.96 111.64 43.53 100.18 44.1 100.35 40.52 111.81"/><rect class="cls-6" x="49.35" y="117.21" width="2.78" height="0.49"/><rect class="cls-6" x="49.35" y="121.29" width="2.78" height="0.49"/><rect class="cls-6" x="49.35" y="125.38" width="2.78" height="0.49"/><rect class="cls-6" x="49.35" y="129.47" width="2.78" height="0.49"/><polygon class="cls-2" points="53.24 115.85 53.24 100.81 48.15 100.81 48.15 117.63 53.24 115.85"/><rect class="cls-6" x="50.33" y="106.42" width="0.82" height="28.02"/><rect class="cls-6" x="62.46" y="106.42" width="0.82" height="28.02"/><polygon class="cls-5" points="51.15 116.6 51.15 106.42 50.33 106.42 50.33 116.88 51.15 116.6"/><rect class="cls-5" x="49.39" y="94.17" width="2.2" height="5.21"/><path class="cls-1" d="M47.56,93h0a1.43,1.43,0,0,0,1.31,1.51h3.37A1.43,1.43,0,0,0,53.55,93h-6Z"/><path class="cls-1" d="M45.25,98.95V99a2.46,2.46,0,0,0,2.29,2.59H53.4A2.46,2.46,0,0,0,55.68,99v-.08Z"/><rect class="cls-5" x="49.35" y="109.04" width="2.78" height="0.49"/><polygon class="cls-5" points="317.23 188.19 298.09 311.47 350.15 311.47 350.15 187.99 317.23 188.19"/><rect class="cls-5" x="49.35" y="113.12" width="2.78" height="0.49"/><path class="cls-1" d="M289.39,34.27a28.9,28.9,0,0,1,.55-3.12h-.2a30.07,30.07,0,0,0-.66,3.22Z"/><path class="cls-1" d="M348,31.15h-2.8A28.31,28.31,0,0,1,330.4,62.9l-.57,4.1C343,62,349,49.5,349,38.91A30.16,30.16,0,0,0,348,31.15Z"/><path class="cls-2" d="M298.41,31.17h-8.5a28.9,28.9,0,0,0-.55,3.12Z"/><polygon class="cls-2" points="65.28 111.74 65.28 100.77 60.26 100.77 60.26 113.47 65.28 111.74"/><rect class="cls-6" x="61.52" y="113.12" width="2.78" height="0.49"/><rect class="cls-5" x="61.74" y="94.17" width="2.2" height="5.21"/><path class="cls-1" d="M59.92,93h0a1.43,1.43,0,0,0,1.31,1.51H64.6A1.43,1.43,0,0,0,65.91,93h-6Z"/><path class="cls-1" d="M57.6,98.95V99a2.46,2.46,0,0,0,2.29,2.59h5.88A2.46,2.46,0,0,0,68,99v-.08Z"/><rect class="cls-5" x="61.55" y="109.04" width="2.78" height="0.49"/><polygon class="cls-2" points="77.59 107.54 77.59 100.81 72.58 100.81 72.58 109.26 77.59 107.54"/><rect class="cls-5" x="73.74" y="94.17" width="2.2" height="5.21"/><path class="cls-1" d="M71.92,93h0a1.43,1.43,0,0,0,1.31,1.51H76.6A1.43,1.43,0,0,0,77.91,93h-6Z"/><path class="cls-1" d="M69.6,98.95V99a2.46,2.46,0,0,0,2.29,2.59h5.88A2.46,2.46,0,0,0,80,99v-.08Z"/><rect class="cls-6" x="74.69" y="106.42" width="0.82" height="28.02"/><polygon class="cls-2" points="28.59 124.04 27.51 121.43 21.39 124.31 22.18 126.23 28.59 124.04"/><polygon class="cls-2" points="28.9 123.27 29.14 123.86 29.83 123.62 28.9 123.27"/><path class="cls-8" d="M315.74,188.09H164c-7.76,0-14.05-5.69-14.05-12.71h0V94.67c0-7,6.25-12.73,14-12.75H315.26c7.76,0,14.05,5.69,14.05,12.71v80.72C329.34,182.22,323.33,187.87,315.74,188.09Z"/><path class="cls-9" d="M317.27,188.15a12.7,12.7,0,0,0,12.07-12.68V109.68Z"/><path class="cls-9" d="M317.27,188.15a12.7,12.7,0,0,0,12.07-12.68V109.68Z"/><path class="cls-9" d="M317.27,188.15a12.7,12.7,0,0,0,12.07-12.68V109.68Z"/><rect class="cls-5" x="61.45" y="109.04" width="2.78" height="0.49"/><rect class="cls-6" x="61.45" y="113.12" width="2.78" height="0.49"/><polygon class="cls-5" points="63.28 112.43 63.28 106.42 62.46 106.42 62.46 112.72 63.28 112.43"/><polygon class="cls-5" points="75.51 108.2 75.51 106.42 74.69 106.42 74.69 108.48 75.51 108.2"/><path class="cls-5" d="M14.8,106.28l-11.32-.19a.35.35,0,0,1-.36-.36L3.5,94.42a.37.37,0,0,1,.36-.35h0l11.32.19a.35.35,0,0,1,.36.36l-.38,11.3a.37.37,0,0,1-.35.36Z"/><polygon class="cls-1" points="4.05 106.11 3.46 106.1 3.87 94.11 4.46 94.11 4.05 106.11"/><polygon class="cls-1" points="5.25 106.13 4.66 106.12 5.07 94.12 5.66 94.14 5.25 106.13"/><polygon class="cls-1" points="6.44 106.15 5.85 106.14 6.26 94.15 6.85 94.16 6.44 106.15"/><polygon class="cls-1" points="7.65 106.17 7.05 106.16 7.46 94.17 8.05 94.17 7.65 106.17"/><polygon class="cls-1" points="8.84 106.19 8.25 106.18 8.65 94.18 9.24 94.2 8.84 106.19"/><polygon class="cls-1" points="10.04 106.2 9.45 106.2 9.86 94.21 10.45 94.21 10.04 106.2"/><polygon class="cls-1" points="11.24 106.23 10.64 106.22 11.05 94.22 11.65 94.24 11.24 106.23"/><polygon class="cls-1" points="12.43 106.25 11.84 106.24 12.25 94.25 12.84 94.26 12.43 106.25"/><polygon class="cls-1" points="13.63 106.27 13.04 106.26 13.44 94.27 14.04 94.27 13.63 106.27"/><polygon class="cls-1" points="14.82 106.29 14.24 106.28 14.64 94.28 15.23 94.3 14.82 106.29"/><path class="cls-5" d="M23.1,105.21l-10.31,4.67a.35.35,0,0,1-.48-.18L7.81,99.32A.37.37,0,0,1,8,98.85H8l10.31-4.67a.35.35,0,0,1,.48.18l4.49,10.37a.37.37,0,0,1-.16.47Z"/><polygon class="cls-1" points="13.31 109.66 12.77 109.89 8.01 98.88 8.55 98.63 13.31 109.66"/><polygon class="cls-1" points="14.4 109.16 13.87 109.4 9.1 98.38 9.64 98.14 14.4 109.16"/><polygon class="cls-1" points="15.49 108.66 14.95 108.91 10.19 97.89 10.73 97.65 15.49 108.66"/><polygon class="cls-1" points="16.59 108.17 16.05 108.41 11.29 97.39 11.82 97.15 16.59 108.17"/><polygon class="cls-1" points="17.67 107.68 17.14 107.92 12.37 96.9 12.91 96.66 17.67 107.68"/><polygon class="cls-1" points="18.76 107.18 18.23 107.42 13.47 96.41 14 96.16 18.76 107.18"/><polygon class="cls-1" points="19.86 106.68 19.31 106.93 14.55 95.92 15.1 95.67 19.86 106.68"/><polygon class="cls-1" points="20.94 106.19 20.41 106.44 15.65 95.42 16.18 95.18 20.94 106.19"/><polygon class="cls-1" points="22.04 105.7 21.5 105.94 16.73 94.93 17.27 94.68 22.04 105.7"/><polygon class="cls-1" points="23.13 105.21 22.59 105.45 17.82 94.43 18.36 94.19 23.13 105.21"/><path class="cls-3" d="M186.28,161.58a12,12,0,0,0-11.9-11.9H117.65a12,12,0,0,0-11.9,11.9v65.53a12,12,0,0,0,11.9,11.9h56.89a12,12,0,0,0,11.9-11.9V161.58Z"/><path class="cls-3" d="M200,162.23a6.93,6.93,0,0,0-1.79.33v-1a23.91,23.91,0,0,0-14.83-22l-7.66-19.07c-1.14-2.93-5.05-4.89-9.45-4.89H128.09c-4.4,0-8.31,2-9.45,4.89l-7.34,18.26a24,24,0,0,0-17.44,22.82v65.53a23.62,23.62,0,0,0,17.44,22.82l7.34,18.26c1.14,2.93,5.05,4.89,9.45,4.89h38c4.4,0,8.31-2,9.45-4.89L183.35,249a23.91,23.91,0,0,0,14.83-22V184.08a5.86,5.86,0,0,0,1.79.33,6.37,6.37,0,0,0,6.36-6.36v-9.45A6.47,6.47,0,0,0,200,162.23Zm-10.6,64.88h0v.33c0,.82-.16,1.47-.16,2.12a3.84,3.84,0,0,1-.33,1.3c-.16.49-.16.82-.33,1.3a5.79,5.79,0,0,1-.65,1.47,11.81,11.81,0,0,1-2.93,4.08l-.16.16a17.27,17.27,0,0,1-2,1.63,14.78,14.78,0,0,1-8.31,2.61H117.65a14.62,14.62,0,0,1-7.82-2.28,14.86,14.86,0,0,1-7-12.71V161.58a14.85,14.85,0,0,1,11.57-14.51,3.59,3.59,0,0,1,1.3-.16,1,1,0,0,0,.65-.16h60a8.18,8.18,0,0,1,2,.33c.65.16,1.14.33,1.79.49a.57.57,0,0,1,.33.16,15.3,15.3,0,0,1,9.13,13.53h0v65.86Z"/><path class="cls-3" d="M140.27,178.85a4.38,4.38,0,0,0-3.74-2,4.79,4.79,0,0,0-2.19.48h0c-7.36,3.57-16,12.81-15.13,36.49a2.93,2.93,0,0,0,2.45,3c1.18,0,5.71.13,14.56-3.09a5.34,5.34,0,0,0,3.46-4.23C142.11,198.46,143.64,184.61,140.27,178.85Z"/><path class="cls-3" d="M158.4,177.54h0a4.79,4.79,0,0,0-2.19-.53,4.38,4.38,0,0,0-3.79,2c-3.5,5.69-2.34,19.57,0,30.65a5.34,5.34,0,0,0,3.37,4.38c8.76,3.39,13.31,3.46,14.49,3.39a2.93,2.93,0,0,0,2.52-3C174.07,190.67,165.67,181.26,158.4,177.54Z"/><polygon class="cls-5" points="144.34 185.99 144.32 188.99 144.32 188.99 144.34 185.99 144.34 185.99"/><line class="cls-5" x1="144.35" y1="185.99" x2="144.32" y2="188.99"/><line class="cls-5" x1="144.32" y1="188.99" x2="144.35" y2="185.99"/><polygon class="cls-5" points="146.51 187.58 146.51 187.58 146.6 180.6 146.51 187.58"/><line class="cls-5" x1="146.6" y1="180.62" x2="146.62" y2="178.41"/><line class="cls-5" x1="146.53" y1="187.58" x2="146.6" y2="180.62"/><line class="cls-5" x1="146.67" y1="173.18" x2="146.6" y2="180.62"/><line class="cls-5" x1="146.6" y1="180.62" x2="146.53" y2="187.58"/><path class="cls-5" d="M186.28,161.58a12,12,0,0,0-11.9-11.9H117.65a12,12,0,0,0-11.9,11.9v65.53a12,12,0,0,0,11.9,11.9h56.89a12,12,0,0,0,11.9-11.9V161.58Z"/><path class="cls-10" d="M200,162.23a6.93,6.93,0,0,0-1.79.33v-1a23.91,23.91,0,0,0-14.83-22l-7.66-19.07c-1.14-2.93-5.05-4.89-9.45-4.89H128.09c-4.4,0-8.31,2-9.45,4.89l-7.34,18.26a24,24,0,0,0-17.44,22.82v65.53a23.62,23.62,0,0,0,17.44,22.82l7.34,18.26c1.14,2.93,5.05,4.89,9.45,4.89h38c4.4,0,8.31-2,9.45-4.89L183.35,249a23.91,23.91,0,0,0,14.83-22V184.08a5.86,5.86,0,0,0,1.79.33,6.37,6.37,0,0,0,6.36-6.36v-9.45A6.47,6.47,0,0,0,200,162.23Zm-10.6,64.88h0v.33c0,.82-.16,1.47-.16,2.12a3.84,3.84,0,0,1-.33,1.3c-.16.49-.16.82-.33,1.3a5.79,5.79,0,0,1-.65,1.47,11.81,11.81,0,0,1-2.93,4.08l-.16.16a17.27,17.27,0,0,1-2,1.63,14.78,14.78,0,0,1-8.31,2.61H117.65a14.62,14.62,0,0,1-7.82-2.28,14.86,14.86,0,0,1-7-12.71V161.58a14.85,14.85,0,0,1,11.57-14.51,3.59,3.59,0,0,1,1.3-.16,1,1,0,0,0,.65-.16h60a8.18,8.18,0,0,1,2,.33c.65.16,1.14.33,1.79.49a.57.57,0,0,1,.33.16,15.3,15.3,0,0,1,9.13,13.53h0v65.86Z"/><path class="cls-3" d="M143.89,186.53a16.56,16.56,0,0,0-1.87-7.1,5.45,5.45,0,0,0-7.09-1.93c-6.65,3.24-14.42,11.51-13.66,32.47a4.06,4.06,0,0,0,3.59,4.13h.76A36.64,36.64,0,0,0,138,211.34a6.1,6.1,0,0,0,3.94-4.74,95.84,95.84,0,0,0,2-13.3c.11-1.54.16-3,.14-4.32l.13-.13V186.3Zm-3.66,19.7a4.52,4.52,0,0,1-2.92,3.59c-7.41,2.74-11.32,2.72-12.33,2.65a2.48,2.48,0,0,1-2.08-2.57c-.74-20.06,6.51-27.83,12.74-30.94h0a4.06,4.06,0,0,1,1.85-.41,3.71,3.71,0,0,1,3.18,1.72c2.87,4.87,1.6,16.61-.42,26Z"/><path class="cls-3" d="M157.14,177.66h0a5.45,5.45,0,0,0-7.17,1.66,16.88,16.88,0,0,0-2.16,7.14l-.86-1a.26.26,0,0,1,0-.17l.66-18.64c0-.28-.38-.44-.91-.47s-.88.12-.94.4L145,185.25a.26.26,0,0,1,0,.17l-.57.54-.07,2.54.88-.9a1.08,1.08,0,0,1,.77-.29h.26l.16-5.91.17-6.28-.17,6.28h0l-.16,5.91a1,1,0,0,1,.47.27l1,1.25h0a85.86,85.86,0,0,0,1.38,17.57,6.1,6.1,0,0,0,3.72,4.92,36.62,36.62,0,0,0,12.21,3.32l.65,0a4.06,4.06,0,0,0,3.82-4C171,189.82,163.63,181.19,157.14,177.66Zm11,32.65a2.48,2.48,0,0,1-2.14,2.53c-1,0-4.86,0-12.27-2.92a4.52,4.52,0,0,1-2.84-3.72c-1.82-9.41-2.84-21.19.09-26a3.71,3.71,0,0,1,3.21-1.66,4.06,4.06,0,0,1,1.85.45h0C162.24,182.27,169.33,190.26,168.15,210.31Z"/><path class="cls-11" d="M196.8,130.17s14.71,8.3,16,25.37"/><path class="cls-11" d="M200.84,119.16s22.33,11.78,23.38,33.46"/><path class="cls-11" d="M206.33,107.75s28.83,16,30.63,41.94"/><path class="cls-11" d="M209.75,236s-2.66,16.68-18.21,23.85"/><path class="cls-11" d="M221.49,236s-3.27,25-23.23,33.56"/><path class="cls-11" d="M234.1,237.18s-5,32.59-28.66,43.3"/><path class="cls-11" d="M80.74,218.73S76.27,235,87.48,248"/><path class="cls-11" d="M70.07,213.85S62.72,238,77.38,254"/><path class="cls-11" d="M58.1,209.72S49.16,241.45,66.32,261"/><circle class="cls-12" cx="161.57" cy="178.41" r="7.2"/><text class="cls-13" transform="translate(159.89 181.59)">!</text><polygon class="cls-3" points="38.71 146.05 31.23 149.45 23.62 131.63 31 128.45 38.71 146.05"/><polygon class="cls-6" points="29.67 139.45 28.83 139.85 26.23 133.5 27.07 133.1 29.67 139.45"/><polygon class="cls-6" points="33.51 143.33 32.64 143.74 28.08 132.62 28.96 132.21 33.51 143.33"/><polygon class="cls-6" points="32.23 135.04 31.4 135.43 29.91 131.78 30.73 131.39 32.23 135.04"/><rect class="cls-3" x="-0.16" y="143.38" width="95.74" height="44.94"/><rect class="cls-5" x="-0.16" y="134.78" width="95.74" height="9.28"/></svg>