<svg id="Layer_1" data-name="Layer 1" xmlns="http://www.w3.org/2000/svg" xmlns:xlink="http://www.w3.org/1999/xlink" viewBox="0 0 350 311.43"><defs><style>.cls-1{fill:#fff;}.cls-2{fill:#c1ad73;}.cls-3{fill:#ececec;}.cls-4{fill:#ccc;}.cls-5{fill:#d8cbad;}.cls-6{opacity:0.05;isolation:isolate;fill:url(#linear-gradient);}.cls-7{opacity:0.1;fill:url(#linear-gradient-2);}</style><linearGradient id="linear-gradient" x1="288.72" y1="263.94" x2="348.99" y2="263.94" gradientTransform="matrix(1, 0, 0, -1, 0, 314)" gradientUnits="userSpaceOnUse"><stop offset="0" stop-color="#c69c6d"/><stop offset="0.1" stop-color="#a3815a"/><stop offset="0.26" stop-color="#725a3f"/><stop offset="0.42" stop-color="#493a28"/><stop offset="0.58" stop-color="#292017"/><stop offset="0.73" stop-color="#120e0a"/><stop offset="0.87" stop-color="#050403"/><stop offset="1"/></linearGradient><linearGradient id="linear-gradient-2" x1="93.85" y1="194.35" x2="206.33" y2="194.35" gradientTransform="matrix(1, 0, 0, 1, 0, 0)" xlink:href="#linear-gradient"/></defs><title>AMMA_light_onArtboard 1 copy 2</title><rect class="cls-1" x="0.12" y="143.38" width="75.83" height="44.94"/><path class="cls-2" d="M18.72,166.29h0a4.35,4.35,0,0,1-2.58-5.36L33.78,101.6a3.94,3.94,0,0,1,4.8-2.83l.2.06h0a4.35,4.35,0,0,1,2.58,5.36L23.72,163.52a3.94,3.94,0,0,1-4.8,2.83Z"/><path class="cls-3" d="M28,122.91l-10.9,36.65c-.59,2,.2,4,1.76,4.58l.69.24c1.56.53,3.32-.65,3.91-2.64l10.89-36.65Z"/><polygon class="cls-1" points="27.18 151.75 19.47 149.11 24.96 130.65 32.67 133.28 27.18 151.75"/><polygon class="cls-2" points="24.77 140.09 23.9 139.8 25.87 133.19 26.74 133.49 24.77 140.09"/><polygon class="cls-2" points="25.27 145.72 24.36 145.41 27.8 133.85 28.71 134.16 25.27 145.72"/><polygon class="cls-2" points="22.43 148.05 21.54 147.75 23.72 140.41 24.61 140.72 22.43 148.05"/><polygon class="cls-2" points="24.38 148.72 23.47 148.41 24.17 146.05 25.08 146.36 24.38 148.72"/><polygon class="cls-2" points="26.22 149.35 25.36 149.05 28.36 138.95 29.22 139.25 26.22 149.35"/><polygon class="cls-2" points="29.42 138.59 28.55 138.3 29.68 134.51 30.54 134.8 29.42 138.59"/><path class="cls-2" d="M41.35,163.48h0a3.89,3.89,0,0,1-5.14-2l-.1-.24-23.36-57a4.4,4.4,0,0,1,2-5.62h0a3.89,3.89,0,0,1,5.14,2l.1.24,23.36,57A4.4,4.4,0,0,1,41.35,163.48Z"/><polygon class="cls-4" points="17.82 109.94 17.33 110.17 12.84 99.21 13.33 98.98 17.82 109.94"/><path class="cls-3" d="M21.8,124.6l14.48,35.21c.78,1.91,2.65,2.89,4.14,2.18l.67-.31c1.5-.71,2.09-2.84,1.3-4.75L27.92,121.72Z"/><polygon class="cls-2" points="29.95 139.8 29.11 140.19 26.51 133.84 27.35 133.45 29.95 139.8"/><polygon class="cls-2" points="33.79 143.67 32.92 144.09 28.36 132.97 29.24 132.56 33.79 143.67"/><polygon class="cls-2" points="33.1 147.43 32.24 147.83 29.36 140.79 30.21 140.38 33.1 147.43"/><polygon class="cls-2" points="34.97 146.55 34.1 146.96 33.17 144.69 34.04 144.28 34.97 146.55"/><polygon class="cls-2" points="36.74 145.72 35.91 146.1 31.94 136.4 32.76 136.01 36.74 145.72"/><polygon class="cls-2" points="32.51 135.38 31.68 135.77 30.19 132.13 31.01 131.74 32.51 135.38"/><path class="cls-2" d="M9.62,94.51h0a4,4,0,0,1,4,4v62.84a4,4,0,0,1-4,4h0a4,4,0,0,1-4-4V98.49A4,4,0,0,1,9.62,94.51Z"/><path class="cls-3" d="M6.28,120.93V159.4c0,2.08,1.34,3.79,3,3.79H10c1.64,0,3-1.7,3-3.79V120.93Z"/><polygon class="cls-4" points="13.78 148.5 5.57 148.69 5.57 129.31 13.6 129.29 13.78 148.5"/><rect class="cls-5" x="7.15" y="131.43" width="0.91" height="6.94"/><rect class="cls-5" x="9.18" y="131.43" width="0.96" height="12.14"/><rect class="cls-2" x="7.15" y="139.01" width="0.93" height="7.7"/><rect class="cls-2" x="9.18" y="144.24" width="0.95" height="2.48"/><rect class="cls-2" x="11.16" y="136.11" width="0.9" height="10.6"/><rect class="cls-2" x="11.16" y="131.45" width="0.9" height="3.98"/><rect class="cls-2" x="0.12" y="134.78" width="75.83" height="9.28"/><polygon class="cls-4" points="13.6 129.3 13.6 129.29 5.57 129.31 5.57 132.02 13.6 129.3"/><rect class="cls-2" x="11.16" y="134.78" width="0.9" height="0.65"/><rect class="cls-2" x="9.18" y="131.43" width="0.96" height="3.35"/><rect class="cls-2" x="7.15" y="131.43" width="0.91" height="3.35"/><polygon class="cls-3" points="28.99 123.98 27.92 121.37 21.8 124.25 22.59 126.17 28.99 123.98"/><polygon class="cls-3" points="28.99 123.98 27.92 121.37 21.8 124.25 22.59 126.17 28.99 123.98"/><polygon class="cls-3" points="30.07 123.61 28.04 122.91 27.58 124.46 30.07 123.61"/><path class="cls-2" d="M36.18,121.57l5.18-17.38a4.35,4.35,0,0,0-2.58-5.36,3.94,3.94,0,0,0-4.94,2.57l-.06.2-7,23.15Z"/><path class="cls-2" d="M41.35,163.48h0a3.89,3.89,0,0,1-5.14-2l-.1-.24-23.36-57a4.4,4.4,0,0,1,2-5.62h0a3.89,3.89,0,0,1,5.14,2l.1.24,23.36,57A4.4,4.4,0,0,1,41.35,163.48Z"/><path class="cls-2" d="M21.85,126.47l7.6-2.63-9.42-23a3.89,3.89,0,0,0-5-2.29l-.24.1a4.4,4.4,0,0,0-2,5.62Z"/><path class="cls-3" d="M21.69,124.36l14.48,35.21c.78,1.91,2.65,2.89,4.14,2.18l.67-.31c1.5-.71,2.09-2.84,1.3-4.75L27.81,121.48Z"/><polygon class="cls-2" points="29.95 139.45 29.11 139.85 26.51 133.5 27.35 133.1 29.95 139.45"/><polygon class="cls-2" points="33.79 143.33 32.92 143.74 28.36 132.62 29.24 132.21 33.79 143.33"/><polygon class="cls-2" points="33.1 147.08 32.24 147.49 29.36 140.44 30.21 140.04 33.1 147.08"/><polygon class="cls-2" points="34.97 146.2 34.1 146.61 33.17 144.35 34.04 143.94 34.97 146.2"/><polygon class="cls-2" points="36.74 145.37 35.91 145.76 31.94 136.05 32.76 135.66 36.74 145.37"/><polygon class="cls-2" points="32.51 135.04 31.68 135.43 30.19 131.78 31.01 131.39 32.51 135.04"/><path class="cls-2" d="M40.78,111.79l-10.86-3.18a.35.35,0,0,1-.25-.45L33,97.36a.37.37,0,0,1,.44-.24h0l10.86,3.18a.35.35,0,0,1,.25.45l-3.36,10.79a.37.37,0,0,1-.43.25Z"/><polygon class="cls-4" points="30.46 108.78 29.9 108.61 33.47 97.15 34.04 97.32 30.46 108.78"/><polygon class="cls-4" points="31.62 109.11 31.05 108.95 34.63 97.49 35.19 97.66 31.62 109.11"/><polygon class="cls-4" points="32.76 109.45 32.19 109.28 35.77 97.83 36.34 97.99 32.76 109.45"/><polygon class="cls-4" points="33.91 109.79 33.35 109.62 36.92 98.16 37.49 98.33 33.91 109.79"/><polygon class="cls-4" points="35.06 110.12 34.49 109.96 38.07 98.5 38.63 98.67 35.06 110.12"/><polygon class="cls-4" points="36.21 110.45 35.64 110.29 39.22 98.84 39.78 99 36.21 110.45"/><polygon class="cls-4" points="37.36 110.8 36.79 110.63 40.36 99.17 40.94 99.34 37.36 110.8"/><polygon class="cls-4" points="38.51 111.13 37.94 110.97 41.52 99.52 42.08 99.68 38.51 111.13"/><polygon class="cls-4" points="39.66 111.47 39.09 111.3 42.66 99.85 43.24 100.01 39.66 111.47"/><polygon class="cls-4" points="40.8 111.81 40.24 111.64 43.81 100.18 44.38 100.35 40.8 111.81"/><rect class="cls-1" x="0.12" y="143.38" width="95.74" height="44.94"/><rect class="cls-2" x="0.12" y="134.78" width="95.74" height="9.28"/><polygon class="cls-3" points="28.87 124.04 27.79 121.43 21.67 124.31 22.46 126.23 28.87 124.04"/><polygon class="cls-3" points="29.18 123.27 29.42 123.86 30.11 123.62 29.18 123.27"/><path class="cls-2" d="M15.08,106.28l-11.32-.19a.35.35,0,0,1-.36-.36l.38-11.31a.37.37,0,0,1,.36-.35h0l11.32.19a.35.35,0,0,1,.36.36l-.38,11.3a.37.37,0,0,1-.35.36Z"/><polygon class="cls-4" points="4.33 106.11 3.74 106.1 4.15 94.11 4.74 94.11 4.33 106.11"/><polygon class="cls-4" points="5.53 106.13 4.94 106.12 5.35 94.12 5.94 94.14 5.53 106.13"/><polygon class="cls-4" points="6.72 106.15 6.13 106.14 6.54 94.15 7.13 94.16 6.72 106.15"/><polygon class="cls-4" points="7.93 106.17 7.33 106.16 7.74 94.17 8.33 94.17 7.93 106.17"/><polygon class="cls-4" points="9.12 106.19 8.53 106.18 8.93 94.18 9.53 94.2 9.12 106.19"/><polygon class="cls-4" points="10.32 106.2 9.73 106.2 10.14 94.21 10.73 94.21 10.32 106.2"/><polygon class="cls-4" points="11.52 106.23 10.92 106.22 11.33 94.22 11.93 94.24 11.52 106.23"/><polygon class="cls-4" points="12.71 106.25 12.12 106.24 12.53 94.25 13.12 94.26 12.71 106.25"/><polygon class="cls-4" points="13.91 106.27 13.32 106.26 13.72 94.27 14.32 94.27 13.91 106.27"/><polygon class="cls-4" points="15.1 106.29 14.52 106.28 14.92 94.28 15.51 94.3 15.1 106.29"/><path class="cls-2" d="M23.38,105.21l-10.31,4.67a.35.35,0,0,1-.48-.18L8.09,99.32a.37.37,0,0,1,.18-.47h0L18.6,94.17a.35.35,0,0,1,.48.18l4.49,10.37a.37.37,0,0,1-.16.47Z"/><polygon class="cls-4" points="13.59 109.66 13.05 109.89 8.29 98.88 8.83 98.63 13.59 109.66"/><polygon class="cls-4" points="14.68 109.16 14.15 109.4 9.38 98.38 9.92 98.14 14.68 109.16"/><polygon class="cls-4" points="15.77 108.66 15.23 108.91 10.47 97.89 11.01 97.65 15.77 108.66"/><polygon class="cls-4" points="16.87 108.17 16.32 108.41 11.56 97.39 12.1 97.15 16.87 108.17"/><polygon class="cls-4" points="17.95 107.68 17.41 107.92 12.65 96.9 13.19 96.66 17.95 107.68"/><polygon class="cls-4" points="19.04 107.18 18.51 107.42 13.75 96.41 14.28 96.16 19.04 107.18"/><polygon class="cls-4" points="20.14 106.68 19.59 106.93 14.83 95.92 15.38 95.67 20.14 106.68"/><polygon class="cls-4" points="21.22 106.19 20.69 106.44 15.93 95.42 16.46 95.18 21.22 106.19"/><polygon class="cls-4" points="22.32 105.7 21.78 105.94 17.01 94.93 17.55 94.68 22.32 105.7"/><polygon class="cls-4" points="23.41 105.21 22.87 105.45 18.11 94.43 18.64 94.19 23.41 105.21"/><circle class="cls-4" cx="318.82" cy="38.94" r="30.13"/><circle class="cls-3" cx="317.53" cy="37.66" r="28.38"/><circle class="cls-1" cx="317.41" cy="37.21" r="18.05"/><path class="cls-4" d="M345.2,31.07a28.38,28.38,0,1,1-55.26,0h-.2a30.13,30.13,0,1,0,58.24,0Z"/><polygon class="cls-2" points="317.23 188.19 298.09 311.47 350.15 311.47 350.15 187.99 317.23 188.19"/><rect class="cls-2" x="-0.19" y="187.97" width="350" height="123.6"/><rect class="cls-1" x="-0.16" y="143.38" width="75.83" height="44.94"/><path class="cls-4" d="M163.84,82H315.37c7.75,0,14,5.69,14,12.71v80.72c0,7-6.28,12.71-14,12.71H163.84c-7.75,0-14-5.69-14-12.71V94.75C149.8,87.73,156.09,82,163.84,82Z"/><rect class="cls-3" x="48.22" y="100.81" width="5.02" height="34.7"/><rect class="cls-3" x="60.27" y="100.81" width="5.02" height="34.7"/><rect class="cls-2" x="61.52" y="109.04" width="2.78" height="0.49"/><rect class="cls-2" x="61.52" y="117.21" width="2.78" height="0.49"/><rect class="cls-2" x="61.52" y="121.29" width="2.78" height="0.49"/><rect class="cls-2" x="61.52" y="125.38" width="2.78" height="0.49"/><rect class="cls-2" x="61.52" y="129.47" width="2.78" height="0.49"/><rect class="cls-3" x="72.58" y="100.81" width="5.02" height="34.7"/><rect class="cls-3" x="84.63" y="100.46" width="5.02" height="34.7"/><rect class="cls-2" x="86.1" y="93.82" width="2.2" height="5.21"/><path class="cls-4" d="M84.27,92.63h0a1.43,1.43,0,0,0,1.31,1.51H89a1.43,1.43,0,0,0,1.31-1.51h-6Z"/><path class="cls-4" d="M82,98.6v.08a2.46,2.46,0,0,0,2.29,2.59h5.88a2.46,2.46,0,0,0,2.29-2.59V98.6Z"/><rect class="cls-2" x="86.83" y="106.42" width="0.82" height="28.02"/><rect class="cls-2" x="73.71" y="109.04" width="2.78" height="0.49"/><rect class="cls-2" x="73.71" y="113.12" width="2.78" height="0.49"/><rect class="cls-2" x="73.71" y="117.21" width="2.78" height="0.49"/><rect class="cls-2" x="73.71" y="121.29" width="2.78" height="0.49"/><rect class="cls-2" x="73.71" y="125.38" width="2.78" height="0.49"/><rect class="cls-2" x="73.71" y="129.47" width="2.78" height="0.49"/><rect class="cls-2" x="85.88" y="109.04" width="2.78" height="0.49"/><rect class="cls-2" x="85.88" y="113.12" width="2.78" height="0.49"/><rect class="cls-2" x="85.88" y="117.21" width="2.78" height="0.49"/><rect class="cls-2" x="85.88" y="121.29" width="2.78" height="0.49"/><rect class="cls-2" x="85.88" y="125.38" width="2.78" height="0.49"/><rect class="cls-2" x="85.88" y="129.47" width="2.78" height="0.49"/><polygon class="cls-2" points="22.15 148.05 21.26 147.75 23.44 140.41 24.33 140.72 22.15 148.05"/><polygon class="cls-2" points="24.1 148.72 23.19 148.41 23.89 146.05 24.8 146.36 24.1 148.72"/><polygon class="cls-2" points="25.94 149.35 25.08 149.05 28.08 138.95 28.94 139.25 25.94 149.35"/><polygon class="cls-2" points="32.82 147.43 31.96 147.83 29.08 140.79 29.93 140.38 32.82 147.43"/><polygon class="cls-2" points="34.69 146.55 33.82 146.96 32.89 144.69 33.76 144.28 34.69 146.55"/><polygon class="cls-2" points="36.46 145.72 35.63 146.1 31.66 136.4 32.48 136.01 36.46 145.72"/><rect class="cls-2" x="6.87" y="139.01" width="0.93" height="7.7"/><rect class="cls-2" x="8.9" y="144.24" width="0.95" height="2.48"/><rect class="cls-2" x="10.88" y="136.11" width="0.9" height="10.6"/><rect class="cls-2" x="-0.16" y="134.78" width="75.83" height="9.28"/><polygon class="cls-1" points="271.91 123.83 248.48 123.83 248.48 102.43 229.92 102.43 229.92 123.83 206.33 123.83 206.33 142.39 229.92 142.39 229.92 163.79 248.48 163.79 248.48 142.39 271.91 142.39 271.91 123.83"/><path class="cls-6" d="M345.2,31.12a28.38,28.38,0,1,1-55.26,0h-.2a30.13,30.13,0,1,0,58.24,0Z"/><path class="cls-1" d="M300.44,31.36a18,18,0,1,0,34,0Z"/><rect class="cls-2" x="10.88" y="134.78" width="0.9" height="0.65"/><polygon class="cls-2" points="32.82 147.08 31.96 147.49 29.08 140.44 29.93 140.04 32.82 147.08"/><polygon class="cls-2" points="34.69 146.2 33.82 146.61 32.89 144.35 33.76 143.94 34.69 146.2"/><polygon class="cls-2" points="36.46 145.37 35.63 145.76 31.66 136.05 32.48 135.66 36.46 145.37"/><rect class="cls-2" x="49.35" y="117.21" width="2.78" height="0.49"/><rect class="cls-2" x="49.35" y="121.29" width="2.78" height="0.49"/><rect class="cls-2" x="49.35" y="125.38" width="2.78" height="0.49"/><rect class="cls-2" x="49.35" y="129.47" width="2.78" height="0.49"/><polygon class="cls-3" points="53.24 115.85 53.24 100.81 48.15 100.81 48.15 117.63 53.24 115.85"/><rect class="cls-2" x="50.33" y="106.42" width="0.82" height="28.02"/><rect class="cls-2" x="62.46" y="106.42" width="0.82" height="28.02"/><polygon class="cls-2" points="51.15 116.6 51.15 106.42 50.33 106.42 50.33 116.88 51.15 116.6"/><rect class="cls-2" x="49.39" y="94.17" width="2.2" height="5.21"/><path class="cls-4" d="M47.56,93h0a1.43,1.43,0,0,0,1.31,1.51h3.37A1.43,1.43,0,0,0,53.55,93h-6Z"/><path class="cls-4" d="M45.25,98.95V99a2.46,2.46,0,0,0,2.29,2.59H53.4A2.46,2.46,0,0,0,55.68,99v-.08Z"/><rect class="cls-2" x="49.35" y="109.04" width="2.78" height="0.49"/><polygon class="cls-2" points="317.23 188.19 298.09 311.47 350.15 311.47 350.15 187.99 317.23 188.19"/><rect class="cls-2" x="49.35" y="113.12" width="2.78" height="0.49"/><path class="cls-4" d="M289.39,34.27a28.9,28.9,0,0,1,.55-3.12h-.2a30.07,30.07,0,0,0-.66,3.22Z"/><path class="cls-4" d="M348,31.15h-2.8A28.31,28.31,0,0,1,330.4,62.9l-.57,4.1C343,62,349,49.5,349,38.91A30.16,30.16,0,0,0,348,31.15Z"/><path class="cls-3" d="M298.41,31.17h-8.5a28.9,28.9,0,0,0-.55,3.12Z"/><polygon class="cls-3" points="65.28 111.74 65.28 100.77 60.26 100.77 60.26 113.47 65.28 111.74"/><rect class="cls-5" x="61.52" y="113.12" width="2.78" height="0.49"/><rect class="cls-2" x="61.74" y="94.17" width="2.2" height="5.21"/><path class="cls-4" d="M59.92,93h0a1.43,1.43,0,0,0,1.31,1.51H64.6A1.43,1.43,0,0,0,65.91,93h-6Z"/><path class="cls-4" d="M57.6,98.95V99a2.46,2.46,0,0,0,2.29,2.59h5.88A2.46,2.46,0,0,0,68,99v-.08Z"/><rect class="cls-2" x="61.55" y="109.04" width="2.78" height="0.49"/><polygon class="cls-3" points="77.59 107.54 77.59 100.81 72.58 100.81 72.58 109.26 77.59 107.54"/><rect class="cls-2" x="73.74" y="94.17" width="2.2" height="5.21"/><path class="cls-4" d="M71.92,93h0a1.43,1.43,0,0,0,1.31,1.51H76.6A1.43,1.43,0,0,0,77.91,93h-6Z"/><path class="cls-4" d="M69.6,98.95V99a2.46,2.46,0,0,0,2.29,2.59h5.88A2.46,2.46,0,0,0,80,99v-.08Z"/><rect class="cls-2" x="74.69" y="106.42" width="0.82" height="28.02"/><rect class="cls-2" x="61.45" y="109.04" width="2.78" height="0.49"/><rect class="cls-2" x="61.45" y="113.12" width="2.78" height="0.49"/><polygon class="cls-2" points="63.28 112.43 63.28 106.42 62.46 106.42 62.46 112.72 63.28 112.43"/><polygon class="cls-2" points="75.51 108.2 75.51 106.42 74.69 106.42 74.69 108.48 75.51 108.2"/><path class="cls-1" d="M186.28,161.58a12,12,0,0,0-11.9-11.9H117.65a12,12,0,0,0-11.9,11.9v65.53a12,12,0,0,0,11.9,11.9h56.89a12,12,0,0,0,11.9-11.9V161.58Z"/><path class="cls-1" d="M200,162.23a6.93,6.93,0,0,0-1.79.33v-1a23.91,23.91,0,0,0-14.83-22l-7.66-19.07c-1.14-2.93-5.05-4.89-9.45-4.89H128.09c-4.4,0-8.31,2-9.45,4.89l-7.34,18.26a24,24,0,0,0-17.44,22.82v65.53a23.62,23.62,0,0,0,17.44,22.82l7.34,18.26c1.14,2.93,5.05,4.89,9.45,4.89h38c4.4,0,8.31-2,9.45-4.89L183.35,249a23.91,23.91,0,0,0,14.83-22V184.08a5.86,5.86,0,0,0,1.79.33,6.37,6.37,0,0,0,6.36-6.36v-9.45A6.47,6.47,0,0,0,200,162.23Zm-10.6,64.88h0v.33c0,.82-.16,1.47-.16,2.12a3.84,3.84,0,0,1-.33,1.3c-.16.49-.16.82-.33,1.3a5.79,5.79,0,0,1-.65,1.47,11.81,11.81,0,0,1-2.93,4.08l-.16.16a17.27,17.27,0,0,1-2,1.63,14.78,14.78,0,0,1-8.31,2.61H117.65a14.62,14.62,0,0,1-7.82-2.28,14.86,14.86,0,0,1-7-12.71V161.58a14.85,14.85,0,0,1,11.57-14.51,3.59,3.59,0,0,1,1.3-.16,1,1,0,0,0,.65-.16h60a8.18,8.18,0,0,1,2,.33c.65.16,1.14.33,1.79.49a.57.57,0,0,1,.33.16,15.3,15.3,0,0,1,9.13,13.53h0v65.86Z"/><path class="cls-1" d="M140.27,178.85a4.38,4.38,0,0,0-3.74-2,4.79,4.79,0,0,0-2.19.48h0c-7.36,3.57-16,12.81-15.13,36.49a2.93,2.93,0,0,0,2.45,3c1.18,0,5.71.13,14.56-3.09a5.34,5.34,0,0,0,3.46-4.23C142.11,198.46,143.64,184.61,140.27,178.85Z"/><path class="cls-1" d="M158.4,177.54h0a4.79,4.79,0,0,0-2.19-.53,4.38,4.38,0,0,0-3.79,2c-3.5,5.69-2.34,19.57,0,30.65a5.34,5.34,0,0,0,3.37,4.38c8.76,3.39,13.31,3.46,14.49,3.39a2.93,2.93,0,0,0,2.52-3C174.07,190.67,165.67,181.26,158.4,177.54Z"/><polygon class="cls-2" points="144.34 185.99 144.32 188.99 144.32 188.99 144.34 185.99 144.34 185.99"/><line class="cls-2" x1="144.35" y1="185.99" x2="144.32" y2="188.99"/><line class="cls-2" x1="144.32" y1="188.99" x2="144.35" y2="185.99"/><polygon class="cls-2" points="146.51 187.58 146.51 187.58 146.6 180.6 146.51 187.58"/><line class="cls-2" x1="146.6" y1="180.62" x2="146.62" y2="178.41"/><line class="cls-2" x1="146.53" y1="187.58" x2="146.6" y2="180.62"/><line class="cls-2" x1="146.67" y1="173.18" x2="146.6" y2="180.62"/><line class="cls-2" x1="146.6" y1="180.62" x2="146.53" y2="187.58"/><path class="cls-1" d="M186.28,161.58a12,12,0,0,0-11.9-11.9H117.65a12,12,0,0,0-11.9,11.9v65.53a12,12,0,0,0,11.9,11.9h56.89a12,12,0,0,0,11.9-11.9V161.58Z"/><path class="cls-2" d="M143.89,186.53a16.56,16.56,0,0,0-1.87-7.1,5.45,5.45,0,0,0-7.09-1.93c-6.65,3.24-14.42,11.51-13.66,32.47a4.06,4.06,0,0,0,3.59,4.13h.76A36.64,36.64,0,0,0,138,211.34a6.1,6.1,0,0,0,3.94-4.74,95.84,95.84,0,0,0,2-13.3c.11-1.54.16-3,.14-4.32l.13-.13V186.3Zm-3.66,19.7a4.52,4.52,0,0,1-2.92,3.59c-7.41,2.74-11.32,2.72-12.33,2.65a2.48,2.48,0,0,1-2.08-2.57c-.74-20.06,6.51-27.83,12.74-30.94h0a4.06,4.06,0,0,1,1.85-.41,3.71,3.71,0,0,1,3.18,1.72c2.87,4.87,1.6,16.61-.42,26Z"/><path class="cls-2" d="M157.14,177.66h0a5.45,5.45,0,0,0-7.17,1.66,16.88,16.88,0,0,0-2.16,7.14l-.86-1a.26.26,0,0,1,0-.17l.66-18.64c0-.28-.38-.44-.91-.47s-.88.12-.94.4L145,185.25a.26.26,0,0,1,0,.17l-.57.54-.07,2.54.88-.9a1.08,1.08,0,0,1,.77-.29h.26l.16-5.91.17-6.28-.17,6.28h0l-.16,5.91a1,1,0,0,1,.47.27l1,1.25h0a85.86,85.86,0,0,0,1.38,17.57,6.1,6.1,0,0,0,3.72,4.92,36.62,36.62,0,0,0,12.21,3.32l.65,0a4.06,4.06,0,0,0,3.82-4C171,189.82,163.63,181.19,157.14,177.66Zm11,32.65a2.48,2.48,0,0,1-2.14,2.53c-1,0-4.86,0-12.27-2.92a4.52,4.52,0,0,1-2.84-3.72c-1.82-9.41-2.84-21.19.09-26a3.71,3.71,0,0,1,3.21-1.66,4.06,4.06,0,0,1,1.85.45h0C162.24,182.27,169.33,190.26,168.15,210.31Z"/><polygon class="cls-4" points="38.99 145.95 31.52 149.35 23.9 131.53 31.28 128.36 38.99 145.95"/><polygon class="cls-2" points="29.95 139.35 29.11 139.75 26.51 133.4 27.35 133 29.95 139.35"/><polygon class="cls-2" points="33.79 143.23 32.92 143.64 28.36 132.52 29.24 132.11 33.79 143.23"/><polygon class="cls-2" points="32.51 134.94 31.68 135.33 30.19 131.68 31.01 131.29 32.51 134.94"/><rect class="cls-3" x="-0.16" y="143.38" width="95.74" height="44.94"/><rect class="cls-2" x="-0.16" y="134.78" width="95.74" height="9.28"/><path class="cls-7" d="M200,162.23a6.93,6.93,0,0,0-1.79.33v-1a23.91,23.91,0,0,0-14.83-22l-7.66-19.07c-1.14-2.93-5.05-4.89-9.45-4.89H128.09c-4.4,0-8.31,2-9.45,4.89l-7.34,18.26a24,24,0,0,0-17.44,22.82v65.53a23.62,23.62,0,0,0,17.44,22.82l7.34,18.26c1.14,2.93,5.05,4.89,9.45,4.89h38c4.4,0,8.31-2,9.45-4.89L183.35,249a23.91,23.91,0,0,0,14.83-22V184.08a5.86,5.86,0,0,0,1.79.33,6.37,6.37,0,0,0,6.36-6.36v-9.45A6.47,6.47,0,0,0,200,162.23Zm-10.6,64.88h0v.33c0,.82-.16,1.47-.16,2.12a3.84,3.84,0,0,1-.33,1.3c-.16.49-.16.82-.33,1.3a5.79,5.79,0,0,1-.65,1.47,11.81,11.81,0,0,1-2.93,4.08l-.16.16a17.27,17.27,0,0,1-2,1.63,14.78,14.78,0,0,1-8.31,2.61H117.65a14.62,14.62,0,0,1-7.82-2.28,14.86,14.86,0,0,1-7-12.71V161.58a14.85,14.85,0,0,1,11.57-14.51,3.59,3.59,0,0,1,1.3-.16,1,1,0,0,0,.65-.16h60a8.18,8.18,0,0,1,2,.33c.65.16,1.14.33,1.79.49a.57.57,0,0,1,.33.16,15.3,15.3,0,0,1,9.13,13.53h0v65.86Z"/></svg>