<svg id="Layer_1" data-name="Layer 1" xmlns="http://www.w3.org/2000/svg" viewBox="0 0 100 101.95"><defs><style>.cls-1{fill:#bfad55;}</style></defs><title>Arrow_Down_goldArtboard 1@2x</title><path class="cls-1" d="M48.37,70.38a2,2,0,0,0,2.83,0l16.9-16.9a2,2,0,0,0-2.83-2.83L52,63.91V30a2,2,0,0,0-4,0V64.35L34.29,50.65a2,2,0,0,0-2.83,2.83Z"/><path class="cls-1" d="M50,92c22.77,0,42-19.23,42-42S72.77,8,50,8,8,27.23,8,50,27.23,92,50,92Zm0-80c20.6,0,38,17.4,38,38S70.6,88,50,88,12,70.6,12,50,29.4,12,50,12Z"/></svg>