<svg enable-background="new 0 0 38 44" height="44" viewBox="0 0 38 44" width="38" xmlns="http://www.w3.org/2000/svg"><g clip-rule="evenodd" fill-rule="evenodd"><path d="m37.3 22.2c-.5-.3-1.2-.1-1.4.4l-16.9 18.9-16.9-18.9c-.3-.5-.9-.6-1.4-.4-.5.3-.7.9-.4 1.3l17.7 19.9c.2.3.6.5 1 .5s.8-.2 1-.5l17.7-19.8c.3-.5.1-1.1-.4-1.4z" fill="#686470"/><path d="m18 21.4c.2.3.6.5 1 .5s.8-.2 1-.5l17.7-19.8c.3-.5.1-1.1-.4-1.3-.5-.3-1.2-.1-1.4.4l-16.9 18.8-16.9-18.9c-.3-.5-.9-.6-1.4-.4-.5.3-.7.9-.4 1.4z" fill="#4b4854"/></g></svg>