<svg id="Layer_2" data-name="Layer 2" xmlns="http://www.w3.org/2000/svg" xmlns:xlink="http://www.w3.org/1999/xlink" viewBox="0 0 800 600"><defs><style>.cls-1{fill:#ececec;}.cls-2{fill:#dfb731;}.cls-3{fill:#f28d86;}.cls-10,.cls-4,.cls-7{fill:#c1ad73;}.cls-5{fill:#f5874b;}.cls-6{fill:#ebbbad;}.cls-7{opacity:0.7;}.cls-8{fill:#444549;}.cls-9{fill:#fff;}.cls-10{stroke:#c1ad73;stroke-width:0.25px;}.cls-10,.cls-13{stroke-miterlimit:10;}.cls-11{clip-path:url(#clip-path);}.cls-12{fill:#7f7977;}.cls-13{fill:none;stroke:#ececec;stroke-width:3px;}</style><clipPath id="clip-path"><path class="cls-1" d="M333.45,213.63a.14.14,0,0,1,0-.09l.08-10.06c0-.15-.21-.23-.5-.24s-.47.08-.5.23l-.13,10.06a.14.14,0,0,1,0,.09l-1,1.07.6.75.59-.65a.58.58,0,0,1,.41-.17.59.59,0,0,1,.41.17l.58.66.62-.74Z"/></clipPath></defs><title>Artboard 1 copy</title><path class="cls-2" d="M274.7,291.81h0a1.28,1.28,0,0,1-1.39-1.07l-2.15-12.84a1.18,1.18,0,0,1,1-1.39h0a1.28,1.28,0,0,1,1.39,1.07l2.15,12.84A1.18,1.18,0,0,1,274.7,291.81Z"/><path class="cls-3" d="M273.6,278l-.07-.42a1.28,1.28,0,0,0-1.39-1.07,1.18,1.18,0,0,0-1,1.39l.08.46Z"/><rect class="cls-4" x="186.21" y="171.17" width="60.07" height="46.78"/><rect class="cls-4" x="139.79" y="308.65" width="462.98" height="9.04"/><ellipse class="cls-5" cx="216.92" cy="212.28" rx="14.09" ry="13.3"/><rect class="cls-6" x="186.21" y="209.33" width="60.07" height="43.13"/><rect class="cls-7" x="311.39" y="193.34" width="43.44" height="46.73"/><rect class="cls-4" x="366.02" y="176.56" width="33.34" height="35.87"/><rect class="cls-8" x="422.62" y="191.69" width="41.98" height="38.41"/><rect class="cls-4" x="453.47" y="236.94" width="41.98" height="38.41"/><rect class="cls-4" x="422.62" y="191.69" width="41.98" height="38.41"/><path class="cls-1" d="M397.57,324H346c-26.65,0-48.2-5.84-48.8,24.1l.24,29.43c0,26.84,21.72,43.47,48.57,43.47h51.55c26.84,0,48.57-16.65,48.57-43.49l.24-29.58C445.77,318,424.22,324,397.57,324Z"/><path class="cls-9" d="M404,409v-2.56c0-1.51-2.25-2.44-3.76-2.44h-57.3a2.68,2.68,0,0,0-2.94,2.44V409Z"/><rect class="cls-10" x="509.86" y="303.14" width="37.73" height="6"/><rect class="cls-4" x="511.22" y="270.04" width="85.48" height="3.28" transform="translate(-6.57 529.52) rotate(-50.83)"/><rect class="cls-4" x="518.64" y="215.38" width="85.48" height="3.2" transform="translate(468.6 -377.68) rotate(60)"/><rect class="cls-4" x="184.58" y="306.26" width="5.59" height="147.21" transform="translate(215.03 -42.79) rotate(30)"/><rect class="cls-4" x="561.29" y="304" width="5.59" height="147.21" transform="translate(1237.47 463.2) rotate(153.45)"/><path class="cls-1" d="M333.45,213.63a.14.14,0,0,1,0-.09l.08-10.06c0-.15-.21-.23-.5-.24s-.47.08-.5.23l-.13,10.06a.14.14,0,0,1,0,.09l-1,1.07.6.75.59-.65a.58.58,0,0,1,.41-.17.59.59,0,0,1,.41.17l.58.66.62-.74Z"/><g class="cls-11"><polygon class="cls-1" points="331.14 202.81 331 215.9 331 215.9 331.14 202.81 331.14 202.81"/><polygon class="cls-1" points="331.13 203.16 331.01 215.51 331.01 215.51 331.13 203.16 331.13 203.16"/><rect class="cls-1" x="325.07" y="208.99" width="13" height="1" transform="translate(118.67 538.87) rotate(-89.41)"/><polygon class="cls-1" points="332.13 203.17 332.01 215.52 332.01 215.52 332.13 203.17 332.13 203.17"/><polygon class="cls-1" points="332.13 203.17 332.01 215.52 332.01 215.52 332.13 203.17 332.13 203.17"/><polygon class="cls-1" points="332.13 203.17 332.01 215.52 332.01 215.52 332.13 203.17 332.13 203.17"/><polygon class="cls-1" points="332.13 203.17 332.01 215.52 332.01 215.52 332.13 203.17 332.13 203.17"/><polygon class="cls-1" points="332.13 203.17 332.01 215.52 332.01 215.52 332.13 203.17 332.13 203.17"/><polygon class="cls-1" points="332.14 202.82 332 215.91 332 215.91 332.14 202.82 332.14 202.82"/><polygon class="cls-1" points="332.13 203.17 332.01 215.52 332.01 215.52 332.13 203.17 332.13 203.17"/><polygon class="cls-1" points="332.13 203.17 332.01 215.52 332.01 215.52 332.13 203.17 332.13 203.17"/><polygon class="cls-1" points="332.13 203.17 332.01 215.52 332.01 215.52 332.13 203.17 332.13 203.17"/><polygon class="cls-1" points="332.13 203.17 332.01 215.52 332.01 215.52 332.13 203.17 332.13 203.17"/><polygon class="cls-1" points="332.13 203.17 332.01 215.52 332.01 215.52 332.13 203.17 332.13 203.17"/><polygon class="cls-1" points="332.13 203.17 332.01 215.52 332.01 215.52 332.13 203.17 332.13 203.17"/><polygon class="cls-1" points="332.14 202.82 332 215.91 332 215.91 332.14 202.82 332.14 202.82"/><polygon class="cls-1" points="332.13 203.17 332.01 215.52 332.01 215.52 332.13 203.17 332.13 203.17"/><polygon class="cls-1" points="332.13 203.17 332.01 215.52 332.01 215.52 332.13 203.17 332.13 203.17"/><polygon class="cls-1" points="332.13 203.17 332.01 215.52 332.01 215.52 332.13 203.17 332.13 203.17"/><polygon class="cls-1" points="332.13 203.17 332.01 215.52 332.01 215.52 332.13 203.17 332.13 203.17"/><polygon class="cls-1" points="332.13 203.17 332.01 215.52 332.01 215.52 332.13 203.17 332.13 203.17"/><polygon class="cls-1" points="332.14 202.82 332 215.91 332 215.91 332.14 202.82 332.14 202.82"/><polygon class="cls-1" points="332.13 203.17 332.01 215.52 332.01 215.52 332.13 203.17 332.13 203.17"/><polygon class="cls-1" points="332.13 203.17 332.01 215.52 332.01 215.52 332.13 203.17 332.13 203.17"/><polygon class="cls-1" points="332.13 203.17 332.01 215.52 332.01 215.52 332.13 203.17 332.13 203.17"/><polygon class="cls-1" points="332.13 203.17 332.01 215.52 332.01 215.52 332.13 203.17 332.13 203.17"/><polygon class="cls-1" points="332.13 203.17 332.01 215.52 332.01 215.52 332.13 203.17 332.13 203.17"/><polygon class="cls-1" points="332.13 203.17 332.01 215.52 332.01 215.52 332.13 203.17 332.13 203.17"/><polygon class="cls-1" points="332.14 202.82 332 215.91 332 215.91 332.14 202.82 332.14 202.82"/><polygon class="cls-1" points="332.13 203.17 332.01 215.52 332.01 215.52 332.13 203.17 332.13 203.17"/><polygon class="cls-1" points="332.13 203.17 332.01 215.52 332.01 215.52 332.13 203.17 332.13 203.17"/><polygon class="cls-1" points="332.13 203.17 332.01 215.52 332.01 215.52 332.13 203.17 332.13 203.17"/><polygon class="cls-1" points="332.13 203.17 332.01 215.52 332.01 215.52 332.13 203.17 332.13 203.17"/><polygon class="cls-1" points="332.13 203.17 332.01 215.52 332.01 215.52 332.13 203.17 332.13 203.17"/><polygon class="cls-1" points="332.14 202.82 332 215.91 332 215.91 332.14 202.82 332.14 202.82"/><polygon class="cls-1" points="332.13 203.17 332.01 215.52 332.01 215.52 332.13 203.17 332.13 203.17"/><polygon class="cls-1" points="332.13 203.17 332.01 215.52 332.01 215.52 332.13 203.17 332.13 203.17"/><polygon class="cls-1" points="332.13 203.17 332.01 215.52 332.01 215.52 332.13 203.17 332.13 203.17"/><polygon class="cls-1" points="332.13 203.17 332.01 215.52 332.01 215.52 332.13 203.17 332.13 203.17"/><polygon class="cls-1" points="332.13 203.17 332.01 215.52 332.01 215.52 332.13 203.17 332.13 203.17"/><polygon class="cls-1" points="332.13 203.17 332.01 215.52 332.01 215.52 332.13 203.17 332.13 203.17"/><polygon class="cls-1" points="332.14 202.82 332 215.91 332 215.91 332.14 202.82 332.14 202.82"/><polygon class="cls-1" points="332.13 203.17 332.01 215.52 332.01 215.52 332.13 203.17 332.13 203.17"/><polygon class="cls-1" points="332.13 203.17 332.01 215.52 332.01 215.52 332.13 203.17 332.13 203.17"/><polygon class="cls-1" points="332.13 203.17 332.01 215.52 332.01 215.52 332.13 203.17 332.13 203.17"/><polygon class="cls-1" points="332.13 203.17 332.01 215.52 332.01 215.52 332.13 203.17 332.13 203.17"/><polygon class="cls-1" points="332.13 203.17 332.01 215.52 332.01 215.52 332.13 203.17 332.13 203.17"/><polygon class="cls-1" points="332.13 203.17 332.01 215.52 332.01 215.52 332.13 203.17 332.13 203.17"/><rect class="cls-1" x="326.07" y="209" width="13" height="1" transform="matrix(0.01, -1, 1, 0.01, 119.65, 539.88)"/><polygon class="cls-1" points="333.13 203.18 333.01 215.53 333.01 215.53 333.13 203.18 333.13 203.18"/><polygon class="cls-1" points="333.13 203.18 333.01 215.53 333.01 215.53 333.13 203.18 333.13 203.18"/><polygon class="cls-1" points="333.13 203.18 333.01 215.53 333.01 215.53 333.13 203.18 333.13 203.18"/><polygon class="cls-1" points="333.13 203.18 333.01 215.53 333.01 215.53 333.13 203.18 333.13 203.18"/><polygon class="cls-1" points="333.13 203.18 333.01 215.53 333.01 215.53 333.13 203.18 333.13 203.18"/><polygon class="cls-1" points="333.13 203.18 333.01 215.53 333.01 215.53 333.13 203.18 333.13 203.18"/><polygon class="cls-1" points="333.13 203.18 333.01 215.53 333.01 215.53 333.13 203.18 333.13 203.18"/><polygon class="cls-1" points="333.14 202.83 333 215.92 333 215.92 333.14 202.83 333.14 202.83"/><polygon class="cls-1" points="333.13 203.18 333.01 215.53 333.01 215.53 333.13 203.18 333.13 203.18"/><polygon class="cls-1" points="333.13 203.18 333.01 215.53 333.01 215.53 333.13 203.18 333.13 203.18"/><polygon class="cls-1" points="333.13 203.18 333.01 215.53 333.01 215.53 333.13 203.18 333.13 203.18"/><polygon class="cls-1" points="333.13 203.18 333.01 215.53 333.01 215.53 333.13 203.18 333.13 203.18"/><polygon class="cls-1" points="333.13 203.18 333.01 215.53 333.01 215.53 333.13 203.18 333.13 203.18"/><polygon class="cls-1" points="333.13 203.18 333.01 215.53 333.01 215.53 333.13 203.18 333.13 203.18"/><polygon class="cls-1" points="333.13 203.18 333.01 215.53 333.01 215.53 333.13 203.18 333.13 203.18"/><polygon class="cls-1" points="333.13 203.18 333.01 215.53 333.01 215.53 333.13 203.18 333.13 203.18"/><polygon class="cls-1" points="333.14 202.83 333 215.92 333 215.92 333.14 202.83 333.14 202.83"/><polygon class="cls-1" points="333.13 203.18 333.01 215.53 333.01 215.53 333.13 203.18 333.13 203.18"/><polygon class="cls-1" points="333.13 203.18 333.01 215.53 333.01 215.53 333.13 203.18 333.13 203.18"/><polygon class="cls-1" points="333.13 203.18 333.01 215.53 333.01 215.53 333.13 203.18 333.13 203.18"/><polygon class="cls-1" points="333.13 203.18 333.01 215.53 333.01 215.53 333.13 203.18 333.13 203.18"/><polygon class="cls-1" points="333.13 203.18 333.01 215.53 333.01 215.53 333.13 203.18 333.13 203.18"/><polygon class="cls-1" points="333.13 203.18 333.01 215.53 333.01 215.53 333.13 203.18 333.13 203.18"/><polygon class="cls-1" points="333.13 203.18 333.01 215.53 333.01 215.53 333.13 203.18 333.13 203.18"/><polygon class="cls-1" points="333.13 203.18 333.01 215.53 333.01 215.53 333.13 203.18 333.13 203.18"/><polygon class="cls-1" points="333.14 202.83 333 215.92 333 215.92 333.14 202.83 333.14 202.83"/><polygon class="cls-1" points="333.13 203.18 333.01 215.53 333.01 215.53 333.13 203.18 333.13 203.18"/><polygon class="cls-1" points="333.13 203.18 333.01 215.53 333.01 215.53 333.13 203.18 333.13 203.18"/><polygon class="cls-1" points="333.13 203.18 333.01 215.53 333.01 215.53 333.13 203.18 333.13 203.18"/><polygon class="cls-1" points="333.13 203.18 333.01 215.53 333.01 215.53 333.13 203.18 333.13 203.18"/><polygon class="cls-1" points="333.13 203.18 333.01 215.53 333.01 215.53 333.13 203.18 333.13 203.18"/><polygon class="cls-1" points="333.13 203.18 333.01 215.53 333.01 215.53 333.13 203.18 333.13 203.18"/><polygon class="cls-1" points="333.13 203.18 333.01 215.53 333.01 215.53 333.13 203.18 333.13 203.18"/><polygon class="cls-1" points="333.13 203.18 333.01 215.53 333.01 215.53 333.13 203.18 333.13 203.18"/><polygon class="cls-1" points="333.14 202.83 333 215.92 333 215.92 333.14 202.83 333.14 202.83"/><polygon class="cls-1" points="333.13 203.18 333.01 215.53 333.01 215.53 333.13 203.18 333.13 203.18"/><polygon class="cls-1" points="333.13 203.18 333.01 215.53 333.01 215.53 333.13 203.18 333.13 203.18"/><polygon class="cls-1" points="333.13 203.18 333.01 215.53 333.01 215.53 333.13 203.18 333.13 203.18"/><polygon class="cls-1" points="333.13 203.18 333.01 215.53 333.01 215.53 333.13 203.18 333.13 203.18"/><polygon class="cls-1" points="333.13 203.18 333.01 215.53 333.01 215.53 333.13 203.18 333.13 203.18"/><polygon class="cls-1" points="333.13 203.18 333.01 215.53 333.01 215.53 333.13 203.18 333.13 203.18"/><polygon class="cls-1" points="333.13 203.18 333.01 215.53 333.01 215.53 333.13 203.18 333.13 203.18"/><polygon class="cls-1" points="333.14 202.83 333 215.92 333 215.92 333.14 202.83 333.14 202.83"/><polygon class="cls-1" points="333.13 203.18 333.01 215.53 333.01 215.53 333.13 203.18 333.13 203.18"/><polygon class="cls-1" points="333.13 203.18 333.01 215.53 333.01 215.53 333.13 203.18 333.13 203.18"/><polygon class="cls-1" points="333.13 203.18 333.01 215.53 333.01 215.53 333.13 203.18 333.13 203.18"/><polygon class="cls-1" points="333.13 203.18 333.01 215.53 333.01 215.53 333.13 203.18 333.13 203.18"/><polygon class="cls-1" points="333.13 203.18 333.01 215.53 333.01 215.53 333.13 203.18 333.13 203.18"/><polygon class="cls-1" points="333.13 203.18 333.01 215.53 333.01 215.53 333.13 203.18 333.13 203.18"/><polygon class="cls-1" points="333.13 203.18 333.01 215.53 333.01 215.53 333.13 203.18 333.13 203.18"/><polygon class="cls-1" points="333.13 203.18 333.01 215.53 333.01 215.53 333.13 203.18 333.13 203.18"/><rect class="cls-1" x="327.07" y="209.01" width="13" height="1" transform="translate(120.63 540.89) rotate(-89.41)"/><polygon class="cls-1" points="334.13 203.19 334.01 215.54 334.01 215.54 334.13 203.19 334.13 203.19"/><polygon class="cls-1" points="334.13 203.19 334.01 215.54 334.01 215.54 334.13 203.19 334.13 203.19"/><polygon class="cls-1" points="334.13 203.19 334.01 215.54 334.01 215.54 334.13 203.19 334.13 203.19"/><polygon class="cls-1" points="334.13 203.19 334.01 215.54 334.01 215.54 334.13 203.19 334.13 203.19"/><polygon class="cls-1" points="334.13 203.19 334.01 215.54 334.01 215.54 334.13 203.19 334.13 203.19"/><polygon class="cls-1" points="334.13 203.19 334.01 215.54 334.01 215.54 334.13 203.19 334.13 203.19"/><polygon class="cls-1" points="334.13 203.19 334.01 215.54 334.01 215.54 334.13 203.19 334.13 203.19"/><polygon class="cls-1" points="334.13 203.19 334.01 215.54 334.01 215.54 334.13 203.19 334.13 203.19"/><polygon class="cls-1" points="334.14 202.84 334 215.93 334 215.93 334.14 202.84 334.14 202.84"/><polygon class="cls-1" points="334.13 203.19 334.01 215.54 334.01 215.54 334.13 203.19 334.13 203.19"/><polygon class="cls-1" points="334.13 203.19 334.01 215.54 334.01 215.54 334.13 203.19 334.13 203.19"/><polygon class="cls-1" points="334.13 203.19 334.01 215.54 334.01 215.54 334.13 203.19 334.13 203.19"/><polygon class="cls-1" points="334.13 203.19 334.01 215.54 334.01 215.54 334.13 203.19 334.13 203.19"/><polygon class="cls-1" points="334.13 203.19 334.01 215.54 334.01 215.54 334.13 203.19 334.13 203.19"/><polygon class="cls-1" points="334.13 203.19 334.01 215.54 334.01 215.54 334.13 203.19 334.13 203.19"/><polygon class="cls-1" points="334.13 203.19 334.01 215.54 334.01 215.54 334.13 203.19 334.13 203.19"/><polygon class="cls-1" points="334.13 203.19 334.01 215.54 334.01 215.54 334.13 203.19 334.13 203.19"/><polygon class="cls-1" points="334.14 202.84 334 215.93 334 215.93 334.14 202.84 334.14 202.84"/><polygon class="cls-1" points="334.13 203.19 334.01 215.54 334.01 215.54 334.13 203.19 334.13 203.19"/><polygon class="cls-1" points="334.13 203.19 334.01 215.54 334.01 215.54 334.13 203.19 334.13 203.19"/><polygon class="cls-1" points="334.13 203.19 334.01 215.54 334.01 215.54 334.13 203.19 334.13 203.19"/><polygon class="cls-1" points="334.13 203.19 334.01 215.54 334.01 215.54 334.13 203.19 334.13 203.19"/><polygon class="cls-1" points="334.13 203.19 334.01 215.54 334.01 215.54 334.13 203.19 334.13 203.19"/><polygon class="cls-1" points="334.13 203.19 334.01 215.54 334.01 215.54 334.13 203.19 334.13 203.19"/><polygon class="cls-1" points="334.13 203.19 334.01 215.54 334.01 215.54 334.13 203.19 334.13 203.19"/><polygon class="cls-1" points="334.14 202.84 334 215.93 334 215.93 334.14 202.84 334.14 202.84"/><polygon class="cls-1" points="334.13 203.19 334.01 215.54 334.01 215.54 334.13 203.19 334.13 203.19"/><polygon class="cls-1" points="334.13 203.19 334.01 215.54 334.01 215.54 334.13 203.19 334.13 203.19"/><polygon class="cls-1" points="334.13 203.19 334.01 215.54 334.01 215.54 334.13 203.19 334.13 203.19"/><polygon class="cls-1" points="334.13 203.19 334.01 215.54 334.01 215.54 334.13 203.19 334.13 203.19"/><polygon class="cls-1" points="334.13 203.19 334.01 215.54 334.01 215.54 334.13 203.19 334.13 203.19"/><polygon class="cls-1" points="334.13 203.19 334.01 215.54 334.01 215.54 334.13 203.19 334.13 203.19"/><polygon class="cls-1" points="334.13 203.19 334.01 215.54 334.01 215.54 334.13 203.19 334.13 203.19"/><polygon class="cls-1" points="334.13 203.19 334.01 215.54 334.01 215.54 334.13 203.19 334.13 203.19"/><polygon class="cls-1" points="334.14 202.84 334 215.93 334 215.93 334.14 202.84 334.14 202.84"/><polygon class="cls-1" points="334.13 203.19 334.01 215.54 334.01 215.54 334.13 203.19 334.13 203.19"/><polygon class="cls-1" points="334.13 203.19 334.01 215.54 334.01 215.54 334.13 203.19 334.13 203.19"/><polygon class="cls-1" points="334.13 203.19 334.01 215.54 334.01 215.54 334.13 203.19 334.13 203.19"/><polygon class="cls-1" points="334.13 203.19 334.01 215.54 334.01 215.54 334.13 203.19 334.13 203.19"/><polygon class="cls-1" points="334.13 203.19 334.01 215.54 334.01 215.54 334.13 203.19 334.13 203.19"/><polygon class="cls-1" points="334.13 203.19 334.01 215.54 334.01 215.54 334.13 203.19 334.13 203.19"/><polygon class="cls-1" points="334.13 203.19 334.01 215.54 334.01 215.54 334.13 203.19 334.13 203.19"/><polygon class="cls-1" points="334.13 203.19 334.01 215.54 334.01 215.54 334.13 203.19 334.13 203.19"/><polygon class="cls-1" points="334.14 202.84 334 215.93 334 215.93 334.14 202.84 334.14 202.84"/><polygon class="cls-1" points="334.13 203.19 334.01 215.54 334.01 215.54 334.13 203.19 334.13 203.19"/><polygon class="cls-1" points="334.13 203.19 334.01 215.54 334.01 215.54 334.13 203.19 334.13 203.19"/><polygon class="cls-1" points="334.13 203.19 334.01 215.54 334.01 215.54 334.13 203.19 334.13 203.19"/><polygon class="cls-1" points="334.13 203.19 334.01 215.54 334.01 215.54 334.13 203.19 334.13 203.19"/><polygon class="cls-1" points="334.13 203.19 334.01 215.54 334.01 215.54 334.13 203.19 334.13 203.19"/><polygon class="cls-1" points="334.13 203.19 334.01 215.54 334.01 215.54 334.13 203.19 334.13 203.19"/><polygon class="cls-1" points="334.13 203.19 334.01 215.54 334.01 215.54 334.13 203.19 334.13 203.19"/><polygon class="cls-1" points="334.13 203.19 334.01 215.54 334.01 215.54 334.13 203.19 334.13 203.19"/><polygon class="cls-1" points="334.14 202.84 334 215.93 334 215.93 334.14 202.84 334.14 202.84"/><polygon class="cls-1" points="334.13 203.19 334.01 215.54 334.01 215.54 334.13 203.19 334.13 203.19"/><polygon class="cls-1" points="334.13 203.19 334.01 215.54 334.01 215.54 334.13 203.19 334.13 203.19"/><polygon class="cls-1" points="334.13 203.19 334.01 215.54 334.01 215.54 334.13 203.19 334.13 203.19"/><polygon class="cls-1" points="334.13 203.19 334.01 215.54 334.01 215.54 334.13 203.19 334.13 203.19"/><path class="cls-1" d="M334,215.47l.13-12.21Z"/></g><path class="cls-1" d="M322,228.9h-.35a2.19,2.19,0,0,1-1.93-2.23c-.39-11.29,3.81-15.74,7.41-17.49a2.94,2.94,0,0,1,3.82,1.05c.89,1.51,1.21,4,1,7.47a51.67,51.67,0,0,1-1.11,7.17,3.29,3.29,0,0,1-2.13,2.55A19.76,19.76,0,0,1,322,228.9Zm6.49-19.16a2.19,2.19,0,0,0-1,.22h0c-3.36,1.63-7.29,5.85-6.91,16.67a1.34,1.34,0,0,0,1.12,1.39c.54,0,2.61.06,6.65-1.41a2.44,2.44,0,0,0,1.58-1.93c1.14-5.05,1.81-11.39.26-14A2,2,0,0,0,328.44,209.74Z"/><path class="cls-1" d="M343.55,229.13a19.75,19.75,0,0,1-6.63-1.61,3.29,3.29,0,0,1-2.08-2.6c-.52-2.54-2-11.11.14-14.65a2.94,2.94,0,0,1,3.84-1h0c3.56,1.82,7.67,6.35,7,17.64a2.19,2.19,0,0,1-2,2.19Zm-6.09-19.29a2,2,0,0,0-1.73.9c-1.6,2.6-1.07,8.94,0,14a2.44,2.44,0,0,0,1.54,2c4,1.55,6.08,1.58,6.62,1.55a1.34,1.34,0,0,0,1.15-1.37c.6-10.81-3.24-15.11-6.57-16.81h0A2.19,2.19,0,0,0,337.46,209.83Z"/><path class="cls-4" d="M547.9,165.63a6.11,6.11,0,0,0-8.32-2.23L535,166l6.09,10.55,4.54-2.62A6.11,6.11,0,0,0,547.9,165.63Z"/><rect class="cls-4" x="521.83" y="206.84" width="75.24" height="1.2" transform="translate(489.19 -385.08) rotate(62.89)"/><rect class="cls-12" x="307.88" y="306.31" width="128.49" height="2.38"/><path class="cls-4" d="M544.65,171.34c-3.68-10.15-17.28-14.52-30.38-9.77a32.52,32.52,0,0,0-4.13,1.84c5.63,2,11.1,8.39,13.81,16.93,2.26,7.13,2.07,14.11,0,19.08a32.69,32.69,0,0,0,3.69-1.1C540.7,193.56,548.33,181.48,544.65,171.34Z"/><path class="cls-1" d="M510.15,163.4s-3.86,24,13.77,36C523.92,199.41,534.54,175.19,510.15,163.4Z"/><polyline class="cls-13" points="323.63 452.9 346.02 420.5 398 420.5 415.79 452.98"/><rect class="cls-4" x="151.91" y="273.64" width="25.05" height="26.55"/><path class="cls-9" d="M169.21,289.21l-4.16,2-1.26-.81,4.72-2.2a22.07,22.07,0,0,0-3.46-1.59l-2.77,2.61-1.24-.54,2.7-2.56a4.16,4.16,0,0,1-1.59-.94,1.86,1.86,0,0,1-.68-1.35,1.39,1.39,0,0,1,.49-1.08,1.75,1.75,0,0,1,1.21-.44,3.16,3.16,0,0,1,2.11.74,2.2,2.2,0,0,1,.88,1.72,2,2,0,0,1-.79,1.54,13.15,13.15,0,0,1,3.84,1.92ZM164,285.77q1.32-1,1.32-1.66a1.05,1.05,0,0,0-.39-.84,1.39,1.39,0,0,0-.93-.33,1.61,1.61,0,0,0-1,.36,1.17,1.17,0,0,0-.48,1Q162.6,285.17,164,285.77Zm5-3.63v1.29h-2l-.85-1.29Z"/><path class="cls-1" d="M450.49,203.55l.24.2a.31.31,0,0,1,.11.27l.14.11a.38.38,0,0,0,.54-.06l.34-.42a.38.38,0,0,0-.06-.54l-.92-.75a.38.38,0,0,0-.54.06l-.34.42a.38.38,0,0,0,.06.54l.14.11A.31.31,0,0,1,450.49,203.55Z"/><path class="cls-1" d="M445,200.93a.61.61,0,0,1-.52.3h-.61a.61.61,0,0,1-.53-.31,10.62,10.62,0,1,0,1.67,0Zm-.9,20a9.39,9.39,0,1,1,9.39-9.39A9.39,9.39,0,0,1,444.11,220.9Z"/><path class="cls-1" d="M445,200.93a.6.6,0,0,0,0-.64h-1.62a.6.6,0,0,0,0,.63l.76,0C444.41,200.89,444.71,200.91,445,200.93Z"/><path class="cls-1" d="M443.88,200h.61a.61.61,0,0,1,.51.28h.35a.75.75,0,0,0,.74-.74v-1a.75.75,0,0,0-.74-.74H443a.75.75,0,0,0-.74.74v1a.75.75,0,0,0,.74.74h.35A.61.61,0,0,1,443.88,200Z"/><path class="cls-1" d="M444.17,213.34l-1.39-5.63a.12.12,0,0,1,.11-.15h2.67a.12.12,0,0,1,.12.14l-1.27,5.63A.12.12,0,0,1,444.17,213.34Z"/><path class="cls-9" d="M444.28,207.56h-1.4a.12.12,0,0,0-.11.15l1.39,5.63a.12.12,0,0,0,.12.09Z"/><path class="cls-1" d="M444.28,205.39a.66.66,0,0,1,.3-.55l.4-.26a.06.06,0,0,1,.06.07l-.68,2.87a.07.07,0,0,1-.08,0Z"/><path class="cls-9" d="M444.28,205.39a.66.66,0,0,0-.3-.55l-.4-.26a.06.06,0,0,0-.06.07l.68,2.87a.07.07,0,0,0,.08,0Z"/><rect class="cls-4" x="274.8" y="149.9" width="34.21" height="31.3"/><path class="cls-2" d="M280.78,289.88h0a1.34,1.34,0,0,0,1.39-1.21l1.26-13.3a1.23,1.23,0,0,0-1.15-1.35h0a1.34,1.34,0,0,0-1.39,1.21l-1.26,13.3A1.23,1.23,0,0,0,280.78,289.88Z"/><path class="cls-3" d="M280.85,275.66l0-.43a1.34,1.34,0,0,1,1.39-1.21,1.23,1.23,0,0,1,1.15,1.35l0,.48Z"/><path class="cls-4" d="M268,287v11.81c0,5.6,3.84,10.19,8.65,10.19h2.9c4.81,0,7.45-4.59,7.45-10.19V287Z"/></svg>