<svg data-name="Layer 2" id="desk-light-svg" viewBox="0 0 800 600" xmlns="http://www.w3.org/2000/svg" xmlns:xlink="http://www.w3.org/1999/xlink">
  <defs>
    <style>.cls-1,.cls-13,.cls-15{opacity:0.1;}.cls-1,.cls-12,.cls-13,.cls-14,.cls-15{isolation:isolate;}.cls-1{fill:url(#linear-gradient);}.cls-2{fill:#0081a6;}.cls-3{fill:#f28d86;}.cls-14,.cls-4{fill:#fff;}.cls-11,.cls-5{fill:#c1ad73;}.cls-16,.cls-5,.cls-8{opacity:0.5;}.cls-6{fill:#ececec;}.cls-10,.cls-7{fill:none;}.cls-8,.cls-9{fill:#7f7977;}.cls-10{stroke:#ececec;stroke-miterlimit:10;stroke-width:3px;}.cls-12{opacity:0.1;fill:url(#linear-gradient-2);}.cls-13{fill:url(#linear-gradient-3);}.cls-14{opacity:0.6;}.cls-15{fill:url(#linear-gradient-4);}.cls-16{fill:#dfb731;}</style>
    <linearGradient gradientTransform="matrix(1, 0, 0, -1, 0, -713.66)" gradientUnits="userSpaceOnUse" id="linear-gradient" x1="509.58" x2="83.57" y1="-876.07" y2="-1122.02">
      <stop offset="0" stop-color="#c69c6d"/>
      <stop offset="0.11" stop-color="#c0976a"/>
      <stop offset="0.26" stop-color="#af8a61"/>
      <stop offset="0.42" stop-color="#947451"/>
      <stop offset="0.6" stop-color="#6d563c"/>
      <stop offset="0.8" stop-color="#3c2f21"/>
      <stop offset="1"/>
    </linearGradient>
    <linearGradient gradientTransform="matrix(1, 0, 0, 1, 0, 0)" id="linear-gradient-2" x1="268" x2="287" xlink:href="#linear-gradient" y1="298" y2="298"/>
    <linearGradient gradientTransform="matrix(1, 0, 0, 1, 0, 0)" id="linear-gradient-3" x1="186.21" x2="246.28" xlink:href="#linear-gradient" y1="190.17" y2="190.17"/>
    <linearGradient gradientTransform="matrix(1, 0, 0, 1, 0, 0)" id="linear-gradient-4" x1="297.2" x2="446.37" xlink:href="#linear-gradient" y1="372.25" y2="372.25"/>
  </defs>
  <title>LightOn_PortfolioDesk</title>
  <path class="cls-1" d="M510.15,163.4l-480.83,7S-8.94,462.85,286.87,560.28l237-360.87S507.14,190,510.15,163.4Z"/>
  <rect class="cls-2" height="43.13" width="60.07" x="186.21" y="209.33"/>
  <path class="cls-3" d="M273.6,278l-.07-.42a1.28,1.28,0,0,0-1.39-1.07,1.18,1.18,0,0,0-1,1.33v.06l.08.46Z"/>
  <ellipse class="cls-4" cx="216.92" cy="212.28" rx="14.09" ry="13.3"/>
  <rect class="cls-5" height="46.73" width="43.44" x="311.39" y="193.34"/>
  <rect class="cls-5" height="35.87" width="33.34" x="366.02" y="176.56"/>
  <rect class="cls-5" height="38.41" width="41.98" x="422.62" y="191.69"/>
  <path class="cls-6" d="M333.45,213.63a.14.14,0,0,1,0-.09l.08-10.06c0-.15-.21-.23-.5-.24s-.47.08-.5.23l-.13,10.06a.14.14,0,0,1,0,.09l-1,1.07.6.75.59-.65a.58.58,0,0,1,.41-.17.59.59,0,0,1,.41.17l.58.66.62-.74Z"/>
  <path class="cls-7" d="M330.19,210.68a2,2,0,0,0-1.73-.94,2.19,2.19,0,0,0-1,.22c-3.36,1.63-7.29,5.85-6.91,16.67A1.34,1.34,0,0,0,321.7,228a18.16,18.16,0,0,0,6.65-1.41,2.44,2.44,0,0,0,1.58-1.93C331.07,219.63,331.74,213.29,330.19,210.68Z"/>
  <path class="cls-7" d="M338.47,210.11a2.19,2.19,0,0,0-1-.28h0a2,2,0,0,0-1.73.9c-1.6,2.6-1.07,8.94,0,14a2.44,2.44,0,0,0,1.54,2c4,1.55,6.08,1.58,6.62,1.55a1.34,1.34,0,0,0,1.15-1.37C345.64,216.11,341.8,211.81,338.47,210.11Z"/>
  <path class="cls-6" d="M332,215.43l.58-.64a.57.57,0,0,1,.33-.15l.11-11.39h0c-.29,0-.47.08-.5.23l-.13,10.06a.14.14,0,0,1,0,.09l-.45.48a9.08,9.08,0,0,0-1-3.87,2.94,2.94,0,0,0-3.82-1c-3.6,1.75-7.8,6.2-7.41,17.49a2.19,2.19,0,0,0,1.93,2.23H322a19.76,19.76,0,0,0,6.71-1.48,3.29,3.29,0,0,0,2.13-2.55A51.67,51.67,0,0,0,332,217.7C332,216.89,332,216.14,332,215.43Zm-2.08,9.25a2.44,2.44,0,0,1-1.58,1.93A18.16,18.16,0,0,1,321.7,228a1.34,1.34,0,0,1-1.12-1.39c-.38-10.82,3.55-15,6.91-16.67a2.19,2.19,0,0,1,1-.22,2,2,0,0,1,1.73.94C331.74,213.29,331.07,219.63,329.93,224.68Z"/>
  <path class="cls-6" d="M338.82,209.27a2.94,2.94,0,0,0-3.84,1,9.2,9.2,0,0,0-1,3.82l-.5-.46a.14.14,0,0,1,0-.09l.08-10.06c0-.13-.17-.21-.4-.23L333,214.62a.59.59,0,0,1,.4.17l.46.53a46,46,0,0,0,1,9.6,3.29,3.29,0,0,0,2.08,2.6,19.75,19.75,0,0,0,6.63,1.61l.27,0a2.19,2.19,0,0,0,2-2.19C346.49,215.62,342.38,211.09,338.82,209.27ZM345,226.92a1.34,1.34,0,0,1-1.15,1.37c-.54,0-2.62,0-6.62-1.55a2.44,2.44,0,0,1-1.54-2c-1.07-5.06-1.6-11.4,0-14a2,2,0,0,1,1.73-.9h0a2.19,2.19,0,0,1,1,.28C341.8,211.81,345.64,216.11,345,226.92Z"/>
  <rect class="cls-8" height="2.38" width="128.49" x="307.88" y="306.31"/>
  <path class="cls-7" d="M545.09,180.63a19.48,19.48,0,0,1-1,3.13l23.3,40.36Z"/>
  <polygon class="cls-7" points="576.95 240.75 576.98 240.79 577.04 240.71 576.95 240.75"/>
  <path id="lamp-p2" class="cls-9" d="M581.36,254.79l2.77-1.6-5.41-9.36,3.49-4.28-2.54-2.07-2.54,3.12-31.69-61.91a16.07,16.07,0,0,0-.08-4.61l.27-.15a6.07,6.07,0,1,0-6-10.53l-.72.41c-6.09-4.42-15.46-5.55-24.59-2.24a32.52,32.52,0,0,0-4.13,1.84c5.63,2,11.1,8.39,13.81,16.93,2.26,7.13,2.07,14.11,0,19.08a32.69,32.69,0,0,0,3.69-1.1,29.3,29.3,0,0,0,14.63-11.24l32.54,56.37-48.63,59.69H509.86v6h37.73v-6H530.41l46.16-56.66Zm-36.28-74.16,22.26,43.49L544,183.76A19.48,19.48,0,0,0,545.09,180.63ZM577,240.75l.09,0-.07.08Z"/>
  <path class="cls-6" d="M510.15,163.4s-3.86,24,13.77,36C523.92,199.41,534.54,175.19,510.15,163.4Z"/>
  <polyline class="cls-10" points="322.63 454.9 345.02 422.5 397 422.5 414.79 454.98"/>
  <rect class="cls-5" height="26.55" width="25.05" x="151.91" y="273.64"/>
  <path class="cls-4" d="M169.21,289.21l-4.16,2-1.26-.81,4.72-2.2a22.07,22.07,0,0,0-3.46-1.59l-2.77,2.61-1.24-.54,2.7-2.56a4.16,4.16,0,0,1-1.59-.94,1.86,1.86,0,0,1-.68-1.35,1.39,1.39,0,0,1,.49-1.08,1.75,1.75,0,0,1,1.21-.44,3.16,3.16,0,0,1,2.11.74,2.2,2.2,0,0,1,.88,1.72,2,2,0,0,1-.79,1.54,13.15,13.15,0,0,1,3.84,1.92ZM164,285.77q1.32-1,1.32-1.66a1.05,1.05,0,0,0-.39-.84,1.39,1.39,0,0,0-.93-.33,1.61,1.61,0,0,0-1,.36,1.17,1.17,0,0,0-.48,1Q162.6,285.17,164,285.77Zm5-3.63v1.29h-2l-.85-1.29Z"/>
  <path class="cls-7" d="M443.48,202.15a9.39,9.39,0,0,0,0,18.78v0a9.38,9.38,0,1,0,0-18.75Zm-.52,2.43.4.26a.36.36,0,1,0,.6,0l.4-.26a.06.06,0,0,1,.06.06h0l-.68,2.87a.07.07,0,0,1-.08,0,.07.07,0,0,1-.08,0l-.68-2.87h0A.06.06,0,0,1,443,204.58Zm2.1,3.12-1.27,5.63a.12.12,0,0,1-.11.13.11.11,0,0,1-.1-.07.12.12,0,0,1,0,0l-1.39-5.63v0a.12.12,0,0,1,.09-.11h2.7a.12.12,0,0,1,.12.12Z"/>
  <path class="cls-6" d="M454.15,210.67a10.59,10.59,0,0,0-3.14-6.73l.24-.29a.38.38,0,0,0-.05-.53h0l-.92-.75a.38.38,0,0,0-.53.05h0l-.23.29a10.58,10.58,0,0,0-5.1-1.79h0a.61.61,0,0,1-.52.3h-.61a.61.61,0,0,1-.53-.31,10.62,10.62,0,1,0,11.42,9.75ZM443.49,220.9v0a9.39,9.39,0,1,1,9.39-9.39A9.39,9.39,0,0,1,443.48,220.93Z"/>
  <path class="cls-6" d="M444.38,200.29h-1.62a.6.6,0,0,0,0,.63h.76a5,5,0,0,1,.86,0A.6.6,0,0,0,444.38,200.29Z"/>
  <path class="cls-6" d="M442.38,200.28h.35a.61.61,0,0,1,.53-.28h.61a.61.61,0,0,1,.51.28h.35a.75.75,0,0,0,.74-.74v-1a.75.75,0,0,0-.74-.74h-2.35a.75.75,0,0,0-.74.74v1A.75.75,0,0,0,442.38,200.28Z"/>
  <path class="cls-6" d="M444.94,207.56h-1.28v5.87a.11.11,0,0,1-.09,0,.11.11,0,0,0,.1.07.12.12,0,0,0,.11-.12l1.27-5.63v0A.12.12,0,0,0,444.94,207.56Z"/>
  <path class="cls-6" d="M442.25,207.56h0Z"/>
  <path class="cls-4" d="M443.66,213.43v-5.87h-1.42a.12.12,0,0,0-.09.11v0l1.39,5.63a.12.12,0,0,0,0,0A.11.11,0,0,0,443.66,213.43Z"/>
  <path class="cls-6" d="M443.74,207.52l.68-2.87h0a.06.06,0,0,0-.06-.06l-.4.26a.66.66,0,0,0-.3.55v2.13A.07.07,0,0,0,443.74,207.52Z"/>
  <path class="cls-4" d="M443.58,207.52a.07.07,0,0,0,.08,0v-2.13a.66.66,0,0,0-.3-.55l-.4-.26a.06.06,0,0,0-.06.06h0Z"/>
  <rect class="cls-11" height="17.42" width="34.21" x="274.8" y="149.9"/>
  <path class="cls-3" d="M280.85,275.66v-.43a1.34,1.34,0,0,1,1.39-1.21,1.23,1.23,0,0,1,1.15,1.3v.53Z"/>
  <path class="cls-12" d="M268,287v11.81c0,5.6,3.84,10.19,8.65,10.19h2.9c4.81,0,7.45-4.59,7.45-10.19V287Z"/>
  <rect class="cls-13" height="38" width="60.07" x="186.21" y="171.17"/>
  <polygon class="cls-11" points="602.77 308.65 452.16 308.65 446.22 317.69 531.05 317.69 594.49 444.64 599.49 442.14 537.3 317.69 602.77 317.69 602.77 308.65"/>
  <polygon class="cls-5" points="139.79 308.65 139.79 317.69 220.04 317.69 148.15 442.22 152.99 445.01 226.5 317.69 446.22 317.69 452.16 308.65 139.79 308.65"/>
  <rect class="cls-5" height="14.82" width="34.21" x="274.8" y="166.38"/>
  <polygon class="cls-5" points="495.45 236.94 453.47 236.94 453.47 275.35 474.04 275.35 495.45 242.75 495.45 236.94"/>
  <polygon class="cls-11" points="474.04 275.35 495.45 275.35 495.45 242.75 474.04 275.35"/>
  <polygon class="cls-14" points="344 421.03 321.16 454.08 323.63 455.79 345.57 424.03 376.47 424.03 378.44 421.03 344 421.03"/>
  <path class="cls-15" d="M397.57,324H346c-26.65,0-48.2-5.84-48.8,24.1l.24,29.43c0,26.84,21.72,43.47,48.57,43.47h51.55c26.84,0,48.57-16.65,48.57-43.49l.24-29.58C445.77,318,424.22,324,397.57,324Z"/>
  <path class="cls-4" d="M404,409v-2.56c0-1.51-2.25-2.44-3.76-2.44h-57.3a2.68,2.68,0,0,0-2.94,2.4V409Z"/>
  <path class="cls-16" d="M275.13,287l-1.58-9.42a1.28,1.28,0,0,0-1.39-1.07h-.06a1.18,1.18,0,0,0-.94,1.38l1.52,9.1Z"/>
  <path class="cls-16" d="M282.33,287l1.1-11.63a1.23,1.23,0,0,0-1.1-1.35h0a1.34,1.34,0,0,0-1.39,1.21L279.77,287Z"/>
</svg>