<svg id="desk-svg" viewBox="0 0 800 600" xmlns="http://www.w3.org/2000/svg">
  <defs>
    <style>.cls-1{fill:#c1ad73;}.cls-2{fill:#f5874b;}.cls-3{fill:#ebbbad;}.cls-4{fill:#444549;}.cls-5{fill:#ececec;}.cls-6,.cls-8,.cls-9{fill:none;}.cls-7{fill:#fff;}.cls-8{stroke:#fff;stroke-linecap:round;stroke-linejoin:round;stroke-width:0;}.cls-9{stroke:#ececec;stroke-miterlimit:10;stroke-width:3px;}.cls-10{fill:#dfb731;}.cls-11{fill:#f28d86;}</style>
  </defs>
  <path class="cls-1" d="M186,171v38h17.19a14.28,14.28,0,0,1,27.46,0H246V171Z"/>
  <path class="cls-2" d="M216.92,198.66A13.85,13.85,0,0,0,203.19,209h27.46A13.85,13.85,0,0,0,216.92,198.66Z"/>
  <polygon class="cls-3" points="203.19 209 186 209 186 217.94 186 252 246 252 246 217.94 246 209 230.65 209 203.19 209"/>
  <rect class="cls-1" height="46.73" width="43.44" x="311.39" y="193.34"/>
  <rect class="cls-1" height="35.87" width="33.34" x="366.02" y="176.56"/>
  <rect class="cls-4" height="38.41" width="41.98" x="422.62" y="191.69"/>
  <rect class="cls-1" height="38.41" width="41.98" x="453.47" y="236.94"/>
  <rect class="cls-1" height="38.41" width="41.98" x="422.62" y="191.69"/>
  <polygon class="cls-5" points="603 309 140 309 140 318 220.04 318 148.15 442.36 152.99 445.24 226.49 318 531.02 318 594.49 444.85 599.49 442.43 537.27 318 603 318 603 309"/>
  <path class="cls-6" d="M330.16,210.67a2,2,0,0,0-1.71-.93,2.19,2.19,0,0,0-1,.22h0c-3.36,1.63-7.29,5.85-6.91,16.67a1.34,1.34,0,0,0,1.12,1.39c.54,0,2.61.06,6.65-1.41a2.44,2.44,0,0,0,1.58-1.93C331,219.63,331.7,213.3,330.16,210.67Z"/>
  <path class="cls-6" d="M338.44,210.07h0a2.19,2.19,0,0,0-1-.24,2,2,0,0,0-1.73.9c-1.6,2.6-1.07,8.94,0,14a2.44,2.44,0,0,0,1.54,2c4,1.55,6.08,1.58,6.62,1.55a1.34,1.34,0,0,0,1.15-1.37C345.6,216.07,341.76,211.77,338.44,210.07Z"/>
  <polygon class="cls-7" points="332.02 213.93 332.01 215.3 332.01 215.3 332.02 213.93 332.02 213.93"/>
  <path class="cls-7" d="M331.89,214.06a8.93,8.93,0,0,0-1-3.83,2.94,2.94,0,0,0-3.82-1.05c-3.59,1.74-7.79,6.19-7.41,17.49a2.19,2.19,0,0,0,1.93,2.23H322a19.76,19.76,0,0,0,6.66-1.47,3.29,3.29,0,0,0,2.13-2.55,51.68,51.68,0,0,0,1.11-7.17c.06-.83.09-1.6.08-2.33l.07-.07v-1.37Zm-2,10.62a2.44,2.44,0,0,1-1.58,1.93c-4,1.47-6.11,1.45-6.65,1.41a1.34,1.34,0,0,1-1.12-1.39c-.37-10.82,3.55-15,6.91-16.67h0a2.19,2.19,0,0,1,1-.22,2,2,0,0,1,1.71.93C331.7,213.3,331,219.63,329.9,224.68Z"/>
  <line class="cls-8" x1="332.02" x2="332.01" y1="213.93" y2="215.3"/>
  <line class="cls-8" x1="332.01" x2="332.02" y1="215.3" y2="213.93"/>
  <polygon class="cls-7" points="333.01 214.66 333.01 214.66 333.05 211.47 333.01 214.66"/>
  <line class="cls-8" x1="333.05" x2="333.06" y1="211.48" y2="210.47"/>
  <line class="cls-8" x1="333.02" x2="333.05" y1="214.66" y2="211.48"/>
  <line class="cls-8" x1="333.08" x2="333.05" y1="208.08" y2="211.48"/>
  <line class="cls-8" x1="333.05" x2="333.02" y1="211.48" y2="214.66"/>
  <path class="cls-7" d="M338.84,209.3h0a2.94,2.94,0,0,0-3.84,1,9.1,9.1,0,0,0-1.06,3.88l-.48-.51a.14.14,0,0,1,0-.09l.08-10.06c0-.15-.21-.23-.5-.24s-.47.08-.5.23l-.13,10.06a.14.14,0,0,1,0,.09l-.3.3v1.37l.46-.5a.58.58,0,0,1,.41-.17l.14,0,0-3.19,0-3.39,0,3.39v0l0,3.19a.55.55,0,0,1,.26.14l.58.66h0a46.3,46.3,0,0,0,1,9.45,3.29,3.29,0,0,0,2.08,2.6,19.75,19.75,0,0,0,6.63,1.61h.35a2.19,2.19,0,0,0,2-2.19C346.5,215.65,342.39,211.11,338.84,209.3ZM345,226.88a1.34,1.34,0,0,1-1.15,1.37c-.54,0-2.62,0-6.62-1.55a2.44,2.44,0,0,1-1.54-2c-1-5.07-1.57-11.42,0-14a2,2,0,0,1,1.73-.9,2.19,2.19,0,0,1,1,.24h0C341.76,211.77,345.6,216.07,345,226.88Z"/>
  <rect class="cls-5" height="2.38" width="128.49" x="307.88" y="306.79"/>
  <path class="cls-6" d="M545.08,180.67a19.47,19.47,0,0,1-1,3.08l23,39.79Z"/>
  <polygon class="cls-6" points="576.95 240.74 576.99 240.81 577.12 240.66 576.95 240.74"/>
  <path id="lamp-path" class="cls-1" d="M581.37,254.79l2.77-1.6-5.39-9.34,3.48-4.27-2.54-2.07-2.56,3.14-31.69-61.91a16.09,16.09,0,0,0-.06-4.62l.3-.17a6.09,6.09,0,1,0-6.09-10.55l-.71.41c-6.09-4.43-15.46-5.56-24.6-2.25a32.52,32.52,0,0,0-4.13,1.84c5.63,2,11.1,8.39,13.81,16.93,2.26,7.13,2.07,14.11,0,19.08a32.69,32.69,0,0,0,3.69-1.1,29.3,29.3,0,0,0,14.66-11.24l32.56,56.33L526.21,303H510v6h38v-6H530.44l46.15-56.56Zm-36.29-74.12L567,223.54l-23-39.79A19.47,19.47,0,0,0,545.08,180.67ZM577,240.74l.16-.08-.12.15Z"/>
  <path class="cls-5" d="M510.15,163.4s-3.86,24,13.77,36C523.92,199.41,534.54,175.19,510.15,163.4Z"/>
  <polyline class="cls-9" points="323.63 454.9 346.02 422.5 398 422.5 415.79 454.98"/>
  <rect class="cls-1" height="26.55" width="25.05" x="151.91" y="273.64"/>
  <path class="cls-7" d="M169.21,289.21l-4.16,2-1.26-.81,4.72-2.2a22.07,22.07,0,0,0-3.46-1.59l-2.77,2.61-1.24-.54,2.7-2.56a4.16,4.16,0,0,1-1.59-.94,1.86,1.86,0,0,1-.68-1.35,1.39,1.39,0,0,1,.49-1.08,1.75,1.75,0,0,1,1.21-.44,3.16,3.16,0,0,1,2.11.74,2.2,2.2,0,0,1,.88,1.72,2,2,0,0,1-.79,1.54,13.15,13.15,0,0,1,3.84,1.92ZM164,285.77q1.32-1,1.32-1.66a1.05,1.05,0,0,0-.39-.84,1.39,1.39,0,0,0-.93-.33,1.61,1.61,0,0,0-1,.36,1.17,1.17,0,0,0-.48,1Q162.6,285.17,164,285.77Zm5-3.63v1.29h-2l-.85-1.29Z"/>
  <path class="cls-7" d="M450.3,203.55l.24.2a.31.31,0,0,1,.11.27l.14.11a.38.38,0,0,0,.54-.06l.34-.42a.38.38,0,0,0-.06-.54l-.92-.75a.38.38,0,0,0-.54.06l-.34.42a.38.38,0,0,0,.06.54l.14.11A.31.31,0,0,1,450.3,203.55Z"/>
  <path class="cls-7" d="M444.82,200.93a.61.61,0,0,1-.52.3h-.61a.61.61,0,0,1-.53-.31,10.62,10.62,0,1,0,1.67,0Zm-.9,20a9.39,9.39,0,1,1,9.39-9.39A9.39,9.39,0,0,1,443.92,220.9Z"/>
  <path class="cls-7" d="M444.81,200.93a.6.6,0,0,0,0-.64h-1.62a.6.6,0,0,0,0,.63l.76,0C444.22,200.89,444.52,200.91,444.81,200.93Z"/>
  <path class="cls-7" d="M443.69,200h.61a.61.61,0,0,1,.51.28h.35a.75.75,0,0,0,.74-.74v-1a.75.75,0,0,0-.74-.74h-2.31a.75.75,0,0,0-.74.74v1a.75.75,0,0,0,.74.74h.35A.61.61,0,0,1,443.69,200Z"/>
  <path class="cls-5" d="M444,213.34l-1.39-5.63a.12.12,0,0,1,.11-.15h2.67a.12.12,0,0,1,.12.14l-1.27,5.63A.12.12,0,0,1,444,213.34Z"/>
  <path class="cls-7" d="M444.09,207.56h-1.4a.12.12,0,0,0-.11.15l1.39,5.63a.12.12,0,0,0,.12.09Z"/>
  <path class="cls-5" d="M444.09,205.39a.66.66,0,0,1,.3-.55l.4-.26a.06.06,0,0,1,.06.07l-.68,2.87a.07.07,0,0,1-.08,0Z"/>
  <path class="cls-7" d="M444.09,205.39a.66.66,0,0,0-.3-.55l-.4-.26a.06.06,0,0,0-.06.07l.68,2.87a.07.07,0,0,0,.08,0Z"/>
  <rect class="cls-1" height="31.3" width="34.21" x="274.8" y="149.9"/>
  <path class="cls-10" d="M271.69,276.66a1.18,1.18,0,0,0-.52.74A1.18,1.18,0,0,1,271.69,276.66Z"/>
  <polygon class="cls-10" points="273.53 277.58 273.6 278 271.23 278.35 272.68 287 275.11 287 273.53 277.58"/>
  <path class="cls-11" d="M273.53,277.58a1.28,1.28,0,0,0-1.39-1.07,1.12,1.12,0,0,0-.44.16,1.18,1.18,0,0,0-.52.74,1.26,1.26,0,0,0,0,.49l.08.46h0l2.37-.36Z"/>
  <polygon class="cls-10" points="283.39 275.85 280.85 275.66 279.78 287 282.33 287 283.39 275.85"/>
  <path class="cls-11" d="M283.39,275.84l0-.48a1.24,1.24,0,0,0-.29-.92,1.22,1.22,0,0,0-.86-.43h0a1.28,1.28,0,0,0-.5.07,1.35,1.35,0,0,0-.89,1.13l0,.43,2.54.18Z"/>
  <path class="cls-5" d="M282.33,287H268v11.81c0,5.6,3.84,10.19,8.65,10.19h2.9c4.81,0,7.45-4.59,7.45-10.19V287Z"/>
  <path class="cls-5" d="M397.57,324H346c-26.65,0-48.2-5.84-48.8,24.1l.24,29.43c0,26.84,21.72,43.47,48.57,43.47h51.55c26.84,0,48.57-16.65,48.57-43.49l.24-29.58C445.77,318,424.22,324,397.57,324ZM404,409H340v-2.56a2.68,2.68,0,0,1,2.94-2.44h57.3c1.51,0,3.76.93,3.76,2.44Z"/>
  <path class="cls-7" d="M400.24,404h-57.3a2.68,2.68,0,0,0-2.94,2.44V409h64v-2.56C404,404.93,401.75,404,400.24,404Z"/>
</svg>