<svg id="desk-light-svg" viewBox="0 0 800 600" xmlns="http://www.w3.org/2000/svg" xmlns:xlink="http://www.w3.org/1999/xlink">
  <defs>
    <style>.cls-1,.cls-13,.cls-14,.cls-15,.cls-16,.cls-2,.cls-9{opacity:0.1;}.cls-1,.cls-12,.cls-13,.cls-14,.cls-15,.cls-16,.cls-2,.cls-9{isolation:isolate;}.cls-1{fill:url(#linear-gradient);}.cls-2{fill:url(#linear-gradient-2);}.cls-3{fill:#0081a6;}.cls-4{fill:#f28d86;}.cls-5{fill:#fff;}.cls-11,.cls-6{fill:#c1ad73;}.cls-17,.cls-6{opacity:0.5;}.cls-7{fill:#ececec;}.cls-10,.cls-8{fill:none;}.cls-9{fill:url(#linear-gradient-3);}.cls-10{stroke:#ececec;stroke-miterlimit:10;stroke-width:3px;}.cls-12{opacity:0.1;fill:url(#linear-gradient-4);}.cls-13{fill:url(#linear-gradient-5);}.cls-14{fill:url(#linear-gradient-6);}.cls-15{fill:url(#linear-gradient-7);}.cls-16{fill:url(#linear-gradient-8);}.cls-17{fill:#dfb731;}</style>
    <linearGradient gradientTransform="matrix(1, 0, 0, -1, 0, -688)" gradientUnits="userSpaceOnUse" id="linear-gradient" x1="507.87" x2="83.01" y1="-847.52" y2="-1092.81">
      <stop offset="0" stop-color="#c69c6d"/>
      <stop offset="0.11" stop-color="#c0976a"/>
      <stop offset="0.26" stop-color="#af8a61"/>
      <stop offset="0.42" stop-color="#947451"/>
      <stop offset="0.6" stop-color="#6d563c"/>
      <stop offset="0.8" stop-color="#3c2f21"/>
      <stop offset="1"/>
    </linearGradient>
    <linearGradient gradientTransform="matrix(1, 0, 0, 1, 0, 0)" id="linear-gradient-2" x1="139.71" x2="452.08" xlink:href="#linear-gradient" y1="313.1" y2="313.1"/>
    <linearGradient gradientTransform="matrix(1, 0, 0, 1, 0, 0)" id="linear-gradient-3" x1="307.8" x2="436.29" xlink:href="#linear-gradient" y1="307.43" y2="307.43"/>
    <linearGradient gradientTransform="matrix(1, 0, 0, 1, 0, 0)" id="linear-gradient-4" x1="267.92" x2="286.92" xlink:href="#linear-gradient" y1="297.93" y2="297.93"/>
    <linearGradient gradientTransform="matrix(1, 0, 0, 1, 0, 0)" id="linear-gradient-5" x1="246.2" x2="186.13" xlink:href="#linear-gradient" y1="193.07" y2="193.07"/>
    <linearGradient gradientUnits="userSpaceOnUse" id="linear-gradient-6" x1="187.24" x2="187.24" y1="444.94" y2="317.62">
      <stop offset="0" stop-color="#c69c6d"/>
      <stop offset="0.05" stop-color="#c0976a"/>
      <stop offset="0.11" stop-color="#af8a61"/>
      <stop offset="0.19" stop-color="#947451"/>
      <stop offset="0.27" stop-color="#6d563c"/>
      <stop offset="0.36" stop-color="#3c2f21"/>
      <stop offset="0.45"/>
    </linearGradient>
    <linearGradient id="linear-gradient-7" x1="321.09" x2="378.36" xlink:href="#linear-gradient-6" y1="438.34" y2="438.34"/>
    <linearGradient gradientTransform="matrix(1, 0, 0, 1, 0, 0)" id="linear-gradient-8" x1="297.12" x2="446.29" xlink:href="#linear-gradient" y1="372.18" y2="372.18"/>
  </defs>
  <path class="cls-1" d="M510.07,163.33l-480.29-.84S-9,462.78,286.79,560.21l237-360.87S507.06,189.93,510.07,163.33Z"/>
  <polygon class="cls-2" points="452.08 308.58 139.71 308.58 139.71 317.62 446.15 317.62 452.08 308.58"/>
  <rect class="cls-3" height="37.54" width="60.07" x="186.13" y="214.85"/>
  <path class="cls-4" d="M273.52,277.93l-.07-.42a1.28,1.28,0,0,0-1.39-1.07,1.18,1.18,0,0,0-1,1.33v.06l.08.46Z"/>
  <ellipse class="cls-5" cx="216.84" cy="212.21" rx="14.09" ry="13.3"/>
  <rect class="cls-6" height="46.73" width="43.44" x="311.31" y="193.27"/>
  <rect class="cls-6" height="35.87" width="33.34" x="365.94" y="176.49"/>
  <rect class="cls-6" height="38.41" width="41.98" x="422.54" y="191.62"/>
  <path class="cls-7" d="M333.37,213.56a.14.14,0,0,1,0-.09l.08-10.06c0-.15-.21-.23-.5-.24s-.47.08-.5.23l-.13,10.06a.14.14,0,0,1,0,.09l-1,1.07.6.75.59-.65a.58.58,0,0,1,.41-.17.59.59,0,0,1,.41.17l.58.66.62-.74Z"/>
  <path class="cls-8" d="M338.2,210c-.31-.17-.2-.27-1.2-.28h0a3.09,3.09,0,0,0-1.54.9c-1.6,2.6-1,8.94.1,14a2.49,2.49,0,0,0,1.59,2c4,1.55,6.1,1.58,6.64,1.55a1.27,1.27,0,0,0,1.07-1.37C345.45,216,341.53,211.74,338.2,210Z"/>
  <path class="cls-8" d="M330.11,210.61a2,2,0,0,0-1.73-.94,2.19,2.19,0,0,0-1,.22c-3.36,1.63-7.29,5.85-6.91,16.67a1.34,1.34,0,0,0,1.12,1.39,18.16,18.16,0,0,0,6.65-1.41,2.44,2.44,0,0,0,1.58-1.93C331,219.56,331.66,213.22,330.11,210.61Z"/>
  <path class="cls-7" d="M331.93,215.36l.58-.64c.09-.09.21-.22.33-.24L333,203h0a.48.48,0,0,0-.5.31l-.13,10.1a.21.21,0,0,1,0,.11l-.45.49a9.05,9.05,0,0,0-1-3.87,2.94,2.94,0,0,0-3.82-1c-3.6,1.75-7.8,6.29-7.41,17.58a2.19,2.19,0,0,0,1.93,2.32h.35a17.8,17.8,0,0,0,6.71-1.57,3.35,3.35,0,0,0,2.13-2.59,52,52,0,0,0,1.11-7.19C331.92,216.84,331.94,216.06,331.93,215.36Zm-2.08,9.25a2.44,2.44,0,0,1-1.58,1.93,18.16,18.16,0,0,1-6.65,1.41,1.34,1.34,0,0,1-1.12-1.39c-.38-10.82,3.55-15,6.91-16.67a2.19,2.19,0,0,1,1-.22,2,2,0,0,1,1.73.94C331.66,213.22,331,219.56,329.85,224.61Z"/>
  <path class="cls-7" d="M338.74,209.2a2.94,2.94,0,0,0-3.84,1,9.2,9.2,0,0,0-1,3.82l-.5-.46a.14.14,0,0,1,0-.09l.08-10.06c0-.13-.17-.21-.4-.23l-.12,11.37a.59.59,0,0,1,.4.17l.46.53a46,46,0,0,0,1,9.6,3.29,3.29,0,0,0,2.08,2.6,19.75,19.75,0,0,0,6.63,1.61l.27,0a2.19,2.19,0,0,0,2-2.19C346.41,215.55,342.3,211,338.74,209.2ZM345,226.85a1.34,1.34,0,0,1-1.15,1.37c-.54,0-2.62,0-6.62-1.55a2.44,2.44,0,0,1-1.54-2c-1.07-5.06-1.79-11.4-.19-14a3.09,3.09,0,0,1,1.54-.9h0c1,0,.89.11,1.2.28C341.53,211.74,345.56,216,345,226.85Z"/>
  <rect class="cls-9" height="2.38" width="128.49" x="307.8" y="306.24"/>
  <polygon class="cls-8" points="576.88 240.68 576.9 240.72 576.96 240.64 576.88 240.68"/>
  <path class="cls-8" d="M545,180.56a19.49,19.49,0,0,1-1,3.13L567.27,224Z"/>
  <path id="lamp-p2" class="cls-7" d="M581.29,254.72l2.77-1.6-5.41-9.36,3.49-4.28-2.54-2.07-2.54,3.12-31.69-61.91a16.07,16.07,0,0,0-.08-4.61l.27-.15a6.07,6.07,0,1,0-6-10.53l-.72.41c-6.09-4.42-15.46-5.55-24.59-2.24a32.52,32.52,0,0,0-4.13,1.84c5.63,2,11.1,8.39,13.81,16.93,2.26,7.13,2.07,14.11,0,19.08a32.69,32.69,0,0,0,3.69-1.1A29.3,29.3,0,0,0,542.19,187l32.54,56.33L526.1,303H510v6h38v-6H530.33l46.16-56.62ZM545,180.56,567.27,224,544,183.68A19.49,19.49,0,0,0,545,180.56Zm31.87,60.12.09,0-.07.08Z"/>
  <polyline class="cls-10" points="322.55 454.83 344.94 422.43 396.92 422.43 414.71 454.91"/>
  <rect class="cls-6" height="26.55" width="25.05" x="151.83" y="273.57"/>
  <path class="cls-5" d="M169.13,289.14l-4.16,2-1.26-.81,4.72-2.2a22.07,22.07,0,0,0-3.46-1.59l-2.77,2.61-1.24-.54,2.7-2.56a4.16,4.16,0,0,1-1.59-.94,1.86,1.86,0,0,1-.68-1.35,1.39,1.39,0,0,1,.49-1.08,1.75,1.75,0,0,1,1.21-.44,3.16,3.16,0,0,1,2.11.74,2.2,2.2,0,0,1,.88,1.72,2,2,0,0,1-.79,1.54,13.15,13.15,0,0,1,3.84,1.92Zm-5.21-3.44q1.32-1,1.32-1.66a1.05,1.05,0,0,0-.39-.84,1.39,1.39,0,0,0-.93-.33,1.61,1.61,0,0,0-1,.36,1.17,1.17,0,0,0-.48,1Q162.52,285.1,163.92,285.7Zm5-3.63v1.29h-2l-.85-1.29Z"/>
  <path class="cls-7" d="M449.8,203.48l.24.2a.31.31,0,0,1,.11.27l.14.11a.38.38,0,0,0,.53-.05h0l.34-.42a.38.38,0,0,0-.05-.53h0l-.92-.75a.38.38,0,0,0-.53.05h0l-.34.42a.38.38,0,0,0,.05.53h0l.14.11A.31.31,0,0,1,449.8,203.48Z"/>
  <path class="cls-7" d="M444.31,200.86a.61.61,0,0,1-.52.3h-.61a.61.61,0,0,1-.53-.31,10.62,10.62,0,1,0,1.67,0Zm-.9,20a9.39,9.39,0,1,1,9.39-9.39,9.39,9.39,0,0,1-9.39,9.39Z"/>
  <path class="cls-7" d="M444.31,200.86a.6.6,0,0,0,0-.64h-1.62a.6.6,0,0,0,0,.63h.76A5,5,0,0,1,444.31,200.86Z"/>
  <path class="cls-7" d="M443.19,199.93h.61a.61.61,0,0,1,.51.28h.35a.75.75,0,0,0,.74-.74v-1a.75.75,0,0,0-.74-.74h-2.35a.75.75,0,0,0-.74.74v1a.75.75,0,0,0,.74.74h.35A.61.61,0,0,1,443.19,199.93Z"/>
  <path class="cls-7" d="M443.48,213.27l-1.39-5.63a.12.12,0,0,1,.09-.15h2.69a.12.12,0,0,1,.12.12v0l-1.27,5.63a.12.12,0,0,1-.24,0Z"/>
  <path class="cls-5" d="M443.59,207.49h-1.4a.12.12,0,0,0-.11.13v0l1.39,5.63a.12.12,0,0,0,.12.09Z"/>
  <path class="cls-7" d="M443.59,205.32a.66.66,0,0,1,.3-.55l.4-.26a.06.06,0,0,1,.06.06h0l-.68,2.87a.07.07,0,0,1-.08,0Z"/>
  <path class="cls-5" d="M443.59,205.32a.66.66,0,0,0-.3-.55l-.4-.26a.06.06,0,0,0-.06.06h0l.68,2.87a.07.07,0,0,0,.08,0Z"/>
  <rect class="cls-11" height="17.42" width="34.21" x="274.72" y="149.83"/>
  <path class="cls-4" d="M280.77,275.59v-.43a1.34,1.34,0,0,1,1.39-1.21,1.23,1.23,0,0,1,1.15,1.3v.53Z"/>
  <path class="cls-12" d="M267.92,286.93v11.81c0,5.6,3.84,10.19,8.65,10.19h2.9c4.81,0,7.45-4.59,7.45-10.19V286.93Z"/>
  <rect class="cls-13" height="43.94" width="60.07" x="186.13" y="171.1"/>
  <polygon class="cls-7" points="602.69 308.58 452.08 308.58 446.15 317.62 530.98 317.62 594.41 444.57 599.41 442.07 537.23 317.62 602.69 317.62 602.69 308.58"/>
  <polygon class="cls-14" points="219.96 317.62 148.07 442.14 152.91 444.94 226.42 317.62 219.96 317.62"/>
  <rect class="cls-6" height="14.82" width="34.21" x="274.72" y="166.31"/>
  <polygon class="cls-6" points="495.37 236.87 453.39 236.87 453.39 275.28 473.96 275.28 495.37 242.68 495.37 236.87"/>
  <polygon class="cls-11" points="473.96 275.28 495.37 275.28 495.37 242.68 473.96 275.28"/>
  <polygon class="cls-15" points="343.92 420.96 321.08 454.01 323.55 455.71 345.5 423.96 376.39 423.96 378.36 420.96 343.92 420.96"/>
  <path class="cls-16" d="M397.49,323.93H345.92c-26.65,0-48.2-5.84-48.8,24.1l.24,29.43c0,26.84,21.72,43.47,48.57,43.47h51.55c26.84,0,48.57-16.65,48.57-43.49l.24-29.58C445.69,317.93,424.14,323.93,397.49,323.93Z"/>
  <path class="cls-5" d="M403.92,408.93v-2.56c0-1.51-2.25-2.44-3.76-2.44h-57.3a2.68,2.68,0,0,0-2.94,2.4v2.6Z"/>
  <path class="cls-17" d="M275,286.93l-1.58-9.42a1.28,1.28,0,0,0-1.39-1.07H272a1.18,1.18,0,0,0-.94,1.38l1.52,9.1Z"/>
  <path class="cls-17" d="M282.25,286.93l1.1-11.63a1.23,1.23,0,0,0-1.1-1.35h0a1.34,1.34,0,0,0-1.39,1.21l-1.12,11.77Z"/>
</svg>