<svg viewBox="0 0 350 306.32" xmlns="http://www.w3.org/2000/svg" xmlns:xlink="http://www.w3.org/1999/xlink"><linearGradient id="a" gradientUnits="userSpaceOnUse" x2="351.21" y1="253.98" y2="253.98"><stop offset="0" stop-color="#c69c6d"/><stop offset=".11" stop-color="#c0976a"/><stop offset=".26" stop-color="#af8a61"/><stop offset=".42" stop-color="#947451"/><stop offset=".6" stop-color="#6d563c"/><stop offset=".8" stop-color="#3c2f21"/><stop offset="1"/></linearGradient><linearGradient id="b" gradientTransform="matrix(1 0 0 -1 -.86 307.6)" x1="162.98" x2="62.2" xlink:href="#a" y1="245.24" y2="244.75"/><linearGradient id="c" x1="163.35" x2="62.4" xlink:href="#a" y1="63.21" y2="62.71"/><linearGradient id="d" x1="306.44" x2="350.9" xlink:href="#a" y1="267.49" y2="267.49"/><linearGradient id="e" x1="249.09" x2="350.28" xlink:href="#a" y1="246" y2="246"/><linearGradient id="f" x1="167.25" x2="267.77" xlink:href="#a" y1="163.23" y2="163.23"/><linearGradient id="g" gradientTransform="matrix(1 0 0 -1 0 308)" gradientUnits="userSpaceOnUse" x1="62.43" x2="163.57" y1="145.86" y2="145.86"><stop offset="0" stop-color="#c69c6d"/><stop offset=".1" stop-color="#a3815a"/><stop offset=".26" stop-color="#725a3f"/><stop offset=".42" stop-color="#493a28"/><stop offset=".58" stop-color="#292017"/><stop offset=".73" stop-color="#120e0a"/><stop offset=".87" stop-color="#050403"/><stop offset="1"/></linearGradient><linearGradient id="h" gradientTransform="matrix(1 0 0 -1 -.85 307.24)" x1="166.92" x2="267.69" xlink:href="#a" y1="244.99" y2="244.99"/><linearGradient id="i" gradientTransform="matrix(1 0 0 -1 .01 307.98)" x1="292.51" x2="349.93" xlink:href="#a" y1="184.75" y2="184.75"/><linearGradient id="j" gradientTransform="matrix(1 0 0 -1 .01 307.98)" x1="292.61" x2="349.93" xlink:href="#a" y1="171" y2="171"/><linearGradient id="k" gradientTransform="matrix(1 0 0 -1 .01 307.97)" x1="292.7" x2="349.93" xlink:href="#a" y1="157.25" y2="157.25"/><linearGradient id="l" gradientTransform="matrix(1 0 0 -1 0 308)" x1="250.48" x2="350.28" xlink:href="#a" y1="138.61" y2="138.61"/><linearGradient id="m" gradientTransform="matrix(1 0 0 -1 0 308)" x1="250.48" x2="350.28" xlink:href="#a" y1="124.96" y2="124.96"/><linearGradient id="n" gradientTransform="matrix(1 0 0 -1 0 308)" x1="250.48" x2="350.28" xlink:href="#a" y1="111.3" y2="111.3"/><linearGradient id="o" gradientTransform="matrix(1 0 0 -1 0 308)" x1="250.48" x2="350.28" xlink:href="#a" y1="97.65" y2="97.65"/><linearGradient id="p" gradientTransform="matrix(1 0 0 -1 0 308)" x1="250.44" x2="350.24" xlink:href="#a" y1="82.95" y2="82.95"/><linearGradient id="q" gradientTransform="matrix(.99 .05 -.05 1 12.5 -5.91)" gradientUnits="userSpaceOnUse" x1="68.76" x2="49.2" y1="246.05" y2="246.37"><stop offset="0" stop-color="#ececec"/><stop offset=".84" stop-color="#fff"/></linearGradient><linearGradient id="r" gradientTransform="matrix(.99 .05 -.05 1 12.5 -5.91)" gradientUnits="userSpaceOnUse" x1="69.54" x2="69.91" y1="253.81" y2="253.81"><stop offset="0" stop-color="#f8ab17"/><stop offset="1" stop-color="#f9eb21"/></linearGradient><linearGradient id="s" gradientTransform="matrix(.99 .05 -.05 1 12.5 -5.91)" gradientUnits="userSpaceOnUse" x1="66.75" x2="97.72" y1="249.85" y2="249.85"><stop offset="0" stop-color="#ececec"/><stop offset=".77" stop-color="#fff"/></linearGradient><linearGradient id="t" gradientUnits="userSpaceOnUse" x1="136.77" x2="125.03" y1="244.01" y2="244.34"><stop offset="0" stop-color="#fff"/><stop offset="1"/></linearGradient><linearGradient id="u" x1="113.62" x2="125.45" xlink:href="#t" y1="244.16" y2="244.16"/><linearGradient id="v" gradientTransform="matrix(.95 -.11 .1 .9 -12.28 48.28)" x1="159.32" x2="140.5" xlink:href="#q" y1="240.69" y2="241"/><linearGradient id="w" gradientTransform="matrix(.95 -.11 .1 .9 -12.28 48.28)" x1="160.07" x2="160.42" xlink:href="#r" y1="248.16" y2="248.16"/><linearGradient id="x" gradientTransform="matrix(.95 -.11 .1 .9 -12.28 48.28)" x1="157.39" x2="187.17" xlink:href="#s" y1="244.35" y2="244.35"/><linearGradient id="y" x1="236.75" x2="249.09" xlink:href="#a" y1="142.34" y2="142.34"/><linearGradient id="z" x1="226.04" x2="234.8" xlink:href="#a" y1="144.13" y2="144.13"/><linearGradient id="A" x1="189.32" x2="213.66" xlink:href="#a" y1="166.82" y2="166.82"/><linearGradient id="B" x1="189.32" x2="198.59" xlink:href="#a" y1="158.87" y2="158.87"/><linearGradient id="C" x1="84.68" x2="132.77" xlink:href="#a" y1="45.96" y2="45.96"/><linearGradient id="D" x1="132.77" x2="141.34" xlink:href="#a" y1="46.96" y2="46.96"/><linearGradient id="E" x1="158.81" x2="108.37" xlink:href="#a" y1="79.26" y2="79.02"/><linearGradient id="F" x1="232.12" x2="233.68" xlink:href="#a" y1="120.52" y2="120.52"/><linearGradient id="G" x1="191.98" x2="232.14" xlink:href="#a" y1="120.75" y2="120.75"/><linearGradient id="H" x1="92.88" x2="98.04" xlink:href="#a" y1="66.88" y2="66.88"/><linearGradient id="I" x1="97.53" x2="102.69" xlink:href="#a" y1="67.65" y2="67.65"/><linearGradient id="J" x1="91.86" x2="103.32" xlink:href="#a" y1="71.13" y2="71.13"/><path d="m351.21 306.32-351.21-.32v-102.61l350.28-1.75z" fill="url(#a)" opacity=".1"/><path d="m72.16 99.15 30.91-.15 60.62-39.61-.08-23.72a8.92 8.92 0 0 0 -8.95-8.89h-.05l-82.74.29a8.92 8.92 0 0 0 -8.87 8.93v.05l.19 54.19a8.92 8.92 0 0 0 8.95 8.89z" fill="#fff" opacity=".1"/><rect fill="#fff" height="72.03" opacity=".1" rx="8.92" transform="matrix(.99999391 -.00349065 .00349065 .99999391 -.22 .4)" width="100.58" x="63.11" y="26.98"/><rect fill="url(#b)" height="72.03" opacity=".1" rx="8.92" transform="matrix(.99999391 -.00349065 .00349065 .99999391 -.22 .4)" width="100.58" x="63.11" y="26.98"/><rect fill="#fff" height="72.03" opacity=".9" rx="8.92" transform="matrix(.99999391 -.00349065 .00349065 .99999391 -.22 .4)" width="100.58" x="63.47" y="27.06"/><path d="m67.59 87.74-.17-48.51a8.05 8.05 0 0 1 8.09-8l77-.1c4.48 0 6.5 3.39 6.51 7.8l.08 23.78 5.06-3.31-.16-23.73a8.92 8.92 0 0 0 -8.95-8.89h-.05l-82.74.29a8.92 8.92 0 0 0 -8.86 8.93v.05l.19 54.19a8.92 8.92 0 0 0 8.95 8.89l30.95-.13 5.23-3.42-33 .11a8.05 8.05 0 0 1 -8.13-7.95z" fill="url(#c)" opacity=".1"/><path d="m0 228.1v30.59l27.48-29.76z" fill="#d8cbad"/><path d="m0 202.39v27.88l27.48-1.34 24.84-27.04z" fill="#fff"/><path d="m349.94 114.69-57.43.37.26 40.07 57.17-.37z" fill="#c1ad73"/><path d="m350.24 229.11-76.02-.12-56.74 77.01h86.61l46.15-73.96z" fill="#fff"/><path d="m350.9 228.77-44.46 77.15 44.46.3z" fill="url(#d)" opacity=".02"/><path d="m134.44 306.32 81.6-103.79-78.31 7.82-75.32 95.97z" fill="#fff"/><path d="m0 228.8v34l39.11.21 3.15-34.01z" fill="#fff"/><path d="m331.18 263 19.1-33.89-76.06-.12-25.13 33.8z" fill="url(#e)" opacity=".1"/><path d="m249.18 263.01 25.04-34.01h-79.25l-26.94 33.8z" fill="#fff"/><rect fill="#fff" height="121.01" rx="4.67" width="100.52" x="167.25" y="102.05"/><rect fill="#fff" height="121.01" rx="4.67" width="100.52" x="167.22" y="102.05"/><path d="m263.1 102.72h-91.18a4.67 4.67 0 0 0 -4.67 4.67v111.68a4.67 4.67 0 0 0 4.67 4.67h91.18a4.67 4.67 0 0 0 4.67-4.67v-111.68a4.67 4.67 0 0 0 -4.67-4.67zm.18 112.38a4.29 4.29 0 0 1 -4.24 4.34h-82.87a4.29 4.29 0 0 1 -4.24-4.34v-103.74a4.29 4.29 0 0 1 4.24-4.34h82.83a4.29 4.29 0 0 1 4.24 4.34z" fill="url(#f)" opacity=".1"/><path d="m168.03 262.8 27.19-33.8h-79.25l-27.88 33.8z" fill="#d8cbad"/><path d="m96.47 263.01 25.04-34.01h-79.25l-26.94 33.8z" fill="#fff"/><path d="m160.8 182.76h14.2v22.73h-14.2z" fill="#fff"/><rect fill="#fff" height="121.01" rx="4.67" width="99.99" x="64.39" y="102.36"/><rect fill="url(#g)" height="121.01" opacity=".05" rx="4.67" width="101.14" x="62.43" y="101.64"/><path d="m99.06 101.66-31.06-.09a4.41 4.41 0 0 0 -4.52 4.3q0 .12 0 .24v18.61z" fill="#ececec"/><rect fill="#fff" height="72.03" opacity=".9" rx="8.92" transform="matrix(.99999391 -.00349065 .00349065 .99999391 -.22 .76)" width="100.58" x="167.02" y="27.4"/><rect fill="#fff" height="72.03" opacity=".9" rx="8.92" transform="matrix(.99999391 -.00349065 .00349065 .99999391 -.22 .76)" width="100.58" x="167.01" y="28.08"/><rect fill="url(#h)" height="72.03" opacity=".1" rx="8.92" transform="matrix(.99999391 -.00349065 .00349065 .99999391 -.22 .76)" width="100.58" x="167.02" y="26.99"/><path d="m195 39h12.24l60.26 52.75a8.79 8.79 0 0 0 .19-1.85l-.19-54.13a8.91 8.91 0 0 0 -8.94-8.88h-.06l-82.74.3a8.92 8.92 0 0 0 -8.89 8.94l.13 21.15z" fill="#ececec" opacity=".9"/><path d="m342.58 100.19a3.5 3.5 0 0 0 -3.51 3.42v3.57a3.59 3.59 0 0 0 -2.44 1.46l.56-3a3.46 3.46 0 0 0 -6.76-1.42l-4.71 22.26-3.54-19.48a3.89 3.89 0 0 0 -4-3c-1.86 0-3.1 2.34-2.76 4.19l5 27.59a3.48 3.48 0 0 0 4 2.81 3.41 3.41 0 0 0 2.78-3h.07a3.44 3.44 0 0 0 3.55-1.43l-.63 3a3.44 3.44 0 0 0 2.65 4.07 3.58 3.58 0 0 0 4.2-2.65l2-8.62v1.57a3.5 3.5 0 1 0 7 0l.08-27.94a3.5 3.5 0 0 0 -3.54-3.4z" fill="#c1ad73"/><path d="m349.94 155.66-57.26.71-.04-10.24 57.3-.71z" fill="#fff" opacity=".9"/><circle cx="304.88" cy="165.64" fill="#c1ad73" r="13.26"/><circle cx="336.71" cy="163.64" fill="#c1ad73" r="13.26"/><ellipse cx="289.11" cy="162.26" fill="#c1ad73" rx="17.18" ry="18.08"/><ellipse cx="314.01" cy="166.5" fill="#c1ad73" rx="17.18" ry="18.08"/><path d="m250.48 161.32h99.8v67.79h-99.8z" fill="#c1ad73"/><path d="m250.48 165.28h99.8v9.06h-99.8z" fill="#fff"/><path d="m250.48 178.93h99.8v9.06h-99.8z" fill="#fff"/><path d="m250.48 192.58h99.8v9.06h-99.8z" fill="#fff"/><path d="m250.48 206.23h99.8v9.06h-99.8z" fill="#fff"/><path d="m250.44 219.93h99.8v9.06h-99.8z" fill="#fff"/><path d="m250.48 165.28h99.8v9.06h-99.8z" fill="#ccc"/><path d="m250.48 178.93h99.8v9.06h-99.8z" fill="#ccc"/><path d="m250.48 192.58h99.8v9.06h-99.8z" fill="#ccc"/><path d="m250.48 206.23h99.8v9.06h-99.8z" fill="#ccc"/><path d="m250.44 219.93h99.8v9.06h-99.8z" fill="#ccc"/><g fill="#c1ad73"><path d="m349.94 164.09v-.45a13.19 13.19 0 0 0 -15.49-13.06z"/><path d="m200.07 44.2a6.26 6.26 0 0 0 6.12-5.2h-12.19a6.26 6.26 0 0 0 6.07 5.2z"/><path d="m202 27.63v-31.63h-4v31.68c-.11 0-.22-.68-.33-.68h4.94c-.2 0-.38.7-.61.63z" opacity=".9"/><rect height="2" opacity=".9" rx=".93" width="90" x="155" y="35"/><path d="m206.19 33h1.81v-6h-5.39c2.47 1 3.18 3 3.58 6z" opacity=".9"/><path d="m197.67 27h-5.67v6h2a7.65 7.65 0 0 1 3.67-6z" opacity=".9"/><path d="m194 33h12.23c-.4-3-1.11-5-3.58-6h-4.94a7.65 7.65 0 0 0 -3.71 6z" opacity=".9"/><path d="m194 33h12.23c-.4-3-1.11-5-3.58-6h-4.94a7.65 7.65 0 0 0 -3.71 6z" opacity=".9"/></g><path d="m56.29 213.73-.86 2.86" fill="none"/><rect fill="#c1ad73" height="21.42" opacity=".5" rx="1.48" width="2.96" x="187.38" y="66.17"/><rect fill="#c1ad73" height="76.35" opacity=".5" rx="1.48" width="2.96" x="142.52" y="114.13"/><path d="m349.94 128.17-57.36.36-.06-10.24 57.42-.36z" fill="#fff" opacity=".9"/><path d="m349.94 141.92-57.25.35-.07-10.24 57.32-.35z" fill="#fff" opacity=".9"/><path d="m349.94 155.66-57.16.36-.07-10.24 57.23-.36z" fill="#fff" opacity=".9"/><path d="m349.94 128.17-57.36.36-.06-10.24 57.42-.36z" fill="url(#i)" opacity=".1"/><path d="m349.94 141.92-57.25.35-.07-10.24 57.32-.35z" fill="url(#j)" opacity=".1"/><path d="m349.94 154.76-57.16 1.26-.07-10.24 57.23-.36z" fill="url(#k)" opacity=".1"/><circle cx="304.88" cy="165.23" fill="#c1ad73" r="13.26"/><circle cx="336.71" cy="163.23" fill="#d8cbad" r="13.26"/><ellipse cx="289.11" cy="161.85" fill="#d8cbad" rx="17.18" ry="18.08"/><ellipse cx="314.01" cy="166.09" fill="#d8cbad" rx="17.18" ry="18.08"/><path d="m250.48 160.91h99.8v67.79h-99.8z" fill="#d8cbad"/><path d="m250.48 164.86h99.8v9.06h-99.8z" fill="#fff"/><path d="m250.48 178.51h99.8v9.06h-99.8z" fill="#fff"/><path d="m250.48 192.17h99.8v9.06h-99.8z" fill="#fff"/><path d="m250.48 205.82h99.8v9.06h-99.8z" fill="#fff"/><path d="m250.44 220.52h99.8v9.06h-99.8z" fill="#fff"/><path d="m250.48 164.86h99.8v9.06h-99.8z" fill="url(#l)" opacity=".1"/><path d="m250.48 178.51h99.8v9.06h-99.8z" fill="url(#m)" opacity=".1"/><path d="m250.48 192.17h99.8v9.06h-99.8z" fill="url(#n)" opacity=".1"/><path d="m250.48 205.82h99.8v9.06h-99.8z" fill="url(#o)" opacity=".1"/><path d="m250.44 220.52h99.8v9.06h-99.8z" fill="url(#p)" opacity=".1"/><path d="m200.07 44.2a6.26 6.26 0 0 0 6.12-5.2h-12.19a6.26 6.26 0 0 0 6.07 5.2z" fill="#fff"/><path d="m202 27.22v-31.22h-4v31.27c-.11 0-.22-.27-.33-.27h4.94c-.2 0-.38.28-.61.22z" fill="#ececec" opacity=".9"/><rect fill="#fff" height="2" opacity=".9" rx=".93" width="90" x="155" y="35"/><path d="m206.19 33h1.81v-6h-5.39c2.47 1 3.18 3 3.58 6z" fill="#fff" opacity=".9"/><path d="m197.67 27h-5.67v6h2a7.65 7.65 0 0 1 3.67-6z" fill="#fff" opacity=".9"/><path d="m194 33h12.23c-.4-3-1.11-5-3.58-6h-4.94a7.65 7.65 0 0 0 -3.71 6z" fill="#ececec" opacity=".9"/><path d="m194 33h12.23c-.4-3-1.11-5-3.58-6h-4.94a7.65 7.65 0 0 0 -3.71 6z" fill="#fff" opacity=".9"/><path d="m136.29 170.48c-8.73 16.27-5.63 36.16 8.6 48.44 15.8 13.63 35.62 7.79 49.67-7.79z" fill="#b7b7b7"/><path d="m138.34 171.91c-8.3 15.32-5.23 33.66 8 45.07 14.72 12.67 32.94 7.49 46.23-7.23z" fill="#d6d6d6"/><path d="m144.9 189.35s-.88.28 0 1.56c0 0 .64 1.14 1.26.65 0 0 6.37-4.92 6.14-5.41s-7.4 3.2-7.4 3.2z" fill="#b7b7b7"/><path d="m170.61 207.64s-.28.84 1.24.84c0 0 1.24.15 1.21-.61 0 0-.23-7.71-.74-7.8s-1.71 7.57-1.71 7.57z" fill="#b7b7b7"/><path d="m149.21 199.24s-1 .86.52 1.89c0 0 1.15 1 1.81.05 0 0 6.69-9.78 6.24-10.25s-8.57 8.31-8.57 8.31z" fill="#b7b7b7"/><path d="m158.46 205.8s-.84 1 .91 1.73c0 0 1.34.76 1.77-.31 0 0 4.47-10.86 3.94-11.23s-6.62 9.81-6.62 9.81z" fill="#b7b7b7"/><path d="m178.07 207.17s-.13.53 1.05.39c0 0 1 0 .88-.48 0 0-1-4.6-1.4-4.61s-.53 4.7-.53 4.7z" fill="#b7b7b7"/><path d="m80.06 184s-.87 19.59-.06 22.19z" fill="#fff"/><circle cx="66.5" cy="207.43" fill="#b7b7b7" r="19.27"/><path d="m80 206.18c-.29-5.23-.34-10.49-.22-15.72.13-5.57.41-11.35 2.1-16.69 1.22-3.85 4.46-8.47 9-8.2 5 .3 8.33 6.15 10.54 10 4.79 8.28 7.45 17.84 9.63 27.08a37.35 37.35 0 0 1 1 9.61l-.38 13.72-28-.77z" fill="#d6d6d6"/><path d="m100.76 185.6a7.22 7.22 0 0 0 -.37-1.08c-.32-.48-.58-.51-1.13-.52a53.86 53.86 0 0 0 -8.25.42 29.56 29.56 0 0 0 -3.9.78c-.83.25-1.49.78-1.31 1.72.67 0 2.28.23 2.94.17l10.06-1a5.45 5.45 0 0 0 1-.16c.2-.04.96-.31.96-.33z" fill="#b7b7b7"/><path d="m100.76 185.6a1.41 1.41 0 0 0 -.21-.64 6.32 6.32 0 0 0 -1.26.24l-1.23.21c-4.08.68-8.15.87-12.26 1.28-.08 0 0 .29 0 .22.71 1.64 3.09 1.23 4.51 1.14 2-.13 4.07-.2 6.08-.44 1.09-.13 4.61-.23 4.37-2.01z" fill="#fff"/><path d="m103.54 195.53a6.49 6.49 0 0 0 -.44-1.08c-.37-.48-.69-.51-1.34-.52a75.56 75.56 0 0 0 -9.78.42 40.83 40.83 0 0 0 -4.62.78c-1 .25-1.77.78-1.55 1.72.79 0 2.71.23 3.49.17q6-.48 11.93-1a7.56 7.56 0 0 0 1.14-.16c.21-.04 1.17-.31 1.17-.33z" fill="#b7b7b7"/><path d="m103.54 195.53a1.27 1.27 0 0 0 -.25-.64 8.74 8.74 0 0 0 -1.49.24l-1.46.21c-2.05.29-4.12.51-6.18.74-2.35.26-6 .35-8.35.54-.09 0 0 .29 0 .22.52 1 .88 1.1 3.3 1.22.75 0 8-.44 9-.52s1.9-.16 2.83-.3c1.2-.18 2.75-.68 2.6-1.71z" fill="#fff"/><path d="m103.54 204.83a7.58 7.58 0 0 0 -.35-1.08c-.29-.48-.54-.51-1.06-.52a46.92 46.92 0 0 0 -7.7.42 26 26 0 0 0 -3.64.78 1.48 1.48 0 0 0 -1.22 1.72c.62 0 2.13.23 2.75.17l9.39-1a4.78 4.78 0 0 0 .9-.16c.18-.04.93-.31.93-.33z" fill="#b7b7b7"/><path d="m103.54 204.83a1.49 1.49 0 0 0 -.2-.64 5.54 5.54 0 0 0 -1.17.24l-1.15.21c-1.62.29-3.24.51-4.86.74-1.85.26-4.72.35-6.57.54-.07 0 0 .29 0 .22.41 1 .69 1.1 2.6 1.22.59 0 6.29-.44 7.08-.52s1.5-.16 2.23-.3c.94-.18 2.16-.68 2.04-1.71z" fill="#fff"/><path d="m93.27 166.15s13.24 7.18 17.9 43.07l1.11-.83s-5.9-37.53-19.01-42.24z" fill="#fff"/><path d="m61.55 191.32a3.74 3.74 0 0 0 -1 3.55s.93-2.68 2.86-2.82a12.52 12.52 0 0 1 4.19.63s-1.23-2.09-2.13-2.19 1.45-.83 2.13-.83-2-1-3.82-.13a12.2 12.2 0 0 1 -2.6.52 2.77 2.77 0 0 0 -2 1.68s1.88-.82 2.37-.41z" fill="#fff"/><path d="m137.2 204.97v78.91l-11.75-8.24v-71.19l5.1 6.56z" fill="#d6d6d6"/><path d="m116.27 178.68s3.07-5.93-5.21-13.54c.01 0-4.86 13.18 5.21 13.54z" fill="#d6d6d6"/><path d="m118.28 180.62c10.72 2.52 11.72-15.54 11.72-15.54-14.23 8.07-12.39 14.31-11.95 15.35a.33.33 0 0 0 .23.19z" fill="#d6d6d6"/><path d="m119 190.52 6.55.05c.37-1.77.58-2.8.58-2.8.35-3.87-4.51-5.15-6.85-5.55l-.48-.07c-.45-.06-.73-.08-.73-.08-2.41-.2-7.62-.19-8.25 3.67 0 0-.18 3.7-.37 9.15a.08.08 0 0 1 .08-.06l6.21.56a.08.08 0 0 1 0 .17l-6.31 1c-.49 15.17-.91 41.22 2 43.16h.09c2.83-1.06 7.83-21 11.2-35.82a.09.09 0 0 1 -.12.07l-6-1.64a.09.09 0 0 1 0-.19l6.31.05a.09.09 0 0 1 .09.1c.87-3.88 1.62-7.34 2.16-9.9l-6.19-1.7a.08.08 0 0 1 .03-.17zm0 28.83-6.68-1.89 7.13.11c-.05.05-.45 1.78-.45 1.78zm-3.41-9.35a.07.07 0 0 1 0 .14l-6.45 1.13c0-.05 0-1.7 0-1.7z" fill="#b7b7b7"/><path d="m119 190.52a.08.08 0 0 0 0 .15l6.19 1.7s.37-1.73.38-1.8z" fill="#fff"/><path d="m115.79 195.56a.08.08 0 0 0 0-.17l-6.21-.56a.08.08 0 0 0 -.08.06c0 .29-.1 1.24-.1 1.54a.07.07 0 0 0 0 .07z" fill="#fff"/><path d="m123 202.17-6.31-.05a.09.09 0 0 0 0 .19l6 1.64a.09.09 0 0 0 .12-.07c.07-.31.29-1.26.36-1.59a.09.09 0 0 0 -.17-.12z" fill="#fff"/><path d="m41.82 195.7a13.8 13.8 0 0 0 -1.82 13.07h-.08a12 12 0 0 0 .71 1.38 13.71 13.71 0 0 0 2.85 3.85 27.37 27.37 0 0 0 14.26 7.89l.09.23a2.45 2.45 0 0 0 2.2 1.59h.08a2.31 2.31 0 0 0 1.6-.59h.05a2.45 2.45 0 0 0 .65-2.64l-.18-.49a27.67 27.67 0 0 0 4.44-14.57 13.81 13.81 0 0 0 -24.85-9.68z" fill="#d6d6d6"/><path d="m46.23 193.5s-4.75 2.7-8.59 1.84c0 .01-.64-.47 8.59-1.84z" fill="#d6d6d6"/><path d="m43.4 179.86s-1.19 9.38 2.83 13.64c0 0-.62-1.42-2.83-13.64z" fill="#b7b7b7"/><path d="m46.23 193.5s-2.71-2.3-9.6.46" fill="#b7b7b7"/><path d="m46.78 192.79c-.36-.45-2.13-3.26 3.43-9.32 0 0-2.91 5.19-3.29 9.38 0 .03-.11-.02-.14-.06z" fill="#d6d6d6"/><path d="m113.68 206.92-.06 76.96 11.83-8.24v-71.19l-5.13 6.56z" fill="#fff"/><path d="m39.14 210.78v62.02l74.48 11.08v-67.56z" fill="#ccbb8b"/><path d="m39.14 210.78 7.82-8.14 8.35 9.34z" fill="#ccbb8b"/><path d="m55.31 212.22 7.82-8.14 8.36 9.34z" fill="#ccbb8b"/><path d="m71.2 213.23 7.82-8.14 8.36 9.34z" fill="#ccbb8b"/><path d="m87.38 214.48 7.81-8.14 8.36 9.34z" fill="#ccbb8b"/><path d="m103.55 215.68 10.13-8.76-.06 9.4" fill="#ccbb8b"/><path d="m60.28 236.26s1.54-2.78-2-6.63c-.01 0-2.54 6.22 2 6.63z" fill="#fff"/><path d="m61.65 236.74c4.77 1.46 5.68-7.19 5.68-7.19-6.62 3.54-5.95 6.58-5.78 7.09z" fill="#fff"/><path d="m65 251.08c0-.08-.12-.44.23-.5l1.4-.42c.47-.15.62-.13.76.11-.36-1.22 0-3 .75-5.37l3.48-12.63a1.11 1.11 0 0 0 -.84-1.37c-.85-.2-1 .2-1.34.75s-4.44 13.72-4.44 13.72-1.89 8.37-7.61 6.84a6.3 6.3 0 0 1 -1.6-.83 5.25 5.25 0 0 1 -1-1.33 6.3 6.3 0 0 1 -.18-4.64 11.12 11.12 0 0 1 1.5-3.21 5.65 5.65 0 0 1 .68-.78 4.58 4.58 0 0 1 3-1.26 13.85 13.85 0 0 1 1.67.19 1.11 1.11 0 0 0 1.37-.65 1.21 1.21 0 0 0 .05-1.2c-.37-.61-2.21-.88-2.6-.91-3.52-.3-6.62 2-8 5.86-.2.57-3.91 10.5 5.79 12.21 0 0 4.58.56 6.89-4.52a.49.49 0 0 1 .04-.06z" fill="url(#q)"/><path d="m68.11 251.37a2.09 2.09 0 0 1 -.34-.38 1.63 1.63 0 0 0 .34.38z" fill="url(#r)"/><path d="m93.53 254.24c-.3.16-.6.36-.89.51a2.89 2.89 0 0 1 -2.8-.09 4.8 4.8 0 0 1 -1.92-3.84c-.1-1.51.17-3 .19-4.54s-.33-3.59-1.66-4.58a3.65 3.65 0 0 0 -4.37.07c-.15.12-.31.29-.49.09a4.33 4.33 0 0 0 -5.44-2.44c-.12 0 0-.2-.17-.45a.79.79 0 0 0 -.25-.29 1.78 1.78 0 0 0 -1.14-.29.41.41 0 0 0 -.38.28c-.77 2.22-1.48 5.43-1.92 6.91a35.18 35.18 0 0 1 -1.44 4.42 2.74 2.74 0 0 1 -1.48 1.65 1.46 1.46 0 0 1 -1.68-.81c-.13-.28-.21-.64-.49-.72a.73.73 0 0 0 -.42 0l-1.42.42a.51.51 0 0 0 -.29.16.56.56 0 0 0 0 .43c.56 2.74 3.51 5.38 6.15 3.43a4.27 4.27 0 0 0 1-1.15c1.71-2.68 2.25-5.93 3.46-8.87.49-1.19 1.56-2.9 3-2.18.77.37.86 1.31.85 2.12a15.64 15.64 0 0 1 -.34 3c-.19.92-.55 3 1 3a.84.84 0 0 0 .48-.16 2.74 2.74 0 0 0 .9-1.75c.21-.9.42-1.8.68-2.68a4.74 4.74 0 0 1 .69-1.57 1.63 1.63 0 0 1 1.42-.72 1.68 1.68 0 0 1 1.27 1.2 4.87 4.87 0 0 1 .14 1.89 20.74 20.74 0 0 0 -.05 5.89 6.58 6.58 0 0 0 3.28 4.49 5.27 5.27 0 0 0 5.3-.33 2.25 2.25 0 0 0 1.09-1.56 1.14 1.14 0 0 0 -.47-1.09 1.35 1.35 0 0 0 -1.39.15z" fill="url(#s)"/><path d="m62.23 193.7a13.81 13.81 0 0 0 -23 12z" fill="#b7b7b7"/><path d="m168.4 199.5h14.55v1.05h-14.55z" fill="#fff"/><path d="m182.46 200.43h-.85a.34.34 0 0 0 -.33.34v1.58a.33.33 0 0 0 .33.33h.85a.34.34 0 0 0 .33-.34v-1.58a.33.33 0 0 0 -.33-.33zm.1.56v1.12a.34.34 0 0 1 -.33.34h-.41a.33.33 0 0 1 -.33-.33v-1.12a.34.34 0 0 1 .33-.34h.41a.33.33 0 0 1 .33.34z" fill="#b7b7b7"/><path d="m137.13 204.97v78.91l-11.74-8.24v-71.19l5.09 6.56z" fill="url(#t)" opacity=".08"/><path d="m113.68 206.92-.06 76.96 11.83-8.24v-71.19l-5.13 6.56z" fill="url(#u)" opacity=".15"/><path d="m181.37 129.53h74.29v2.63h-74.29z" fill="#ececec"/><path d="m181.37 150.66h74.29v2.63h-74.29z" fill="#ececec"/><path d="m181.37 171.78h69.07v2.63h-69.07z" fill="#ececec"/><path d="m181.37 192.9h69.07v2.63h-69.07z" fill="#ececec"/><rect fill="#e5e5e5" height="10.18" rx=".91" width="4.15" x="173.74" y="153.57"/><path d="m175.37 260.88c-7.32-.08-13.25-6.46-13.18-14.18l.53-62c.07-7.72 6.11-14 13.42-13.91 7.32.08 13.25 6.46 13.18 14.18l-.53 62c-.06 7.72-6.1 14.03-13.42 13.91z" fill="#b7b7b7"/><rect fill="#b7b7b7" height="17.41" rx=".91" width="5.76" x="172.89" y="157.75"/><path d="m164.01 187.69h24v24h-24z" fill="#d6d6d6"/><path d="m168.4 194.37h14.55v1.05h-14.55z" fill="#fff"/><path d="m168.4 196.93h14.55v1.05h-14.55z" fill="#fff"/><path d="m168.4 202.27h14.55v13.17h-14.55z" fill="#fff"/><circle cx="182.95" cy="201.04" fill="#e5e5e5" r="3.25"/><path d="m184.32 200.42h-.85a.34.34 0 0 0 -.33.34v1.58a.33.33 0 0 0 .33.33h.85a.34.34 0 0 0 .33-.34v-1.58a.33.33 0 0 0 -.33-.33zm.1.56v1.12a.34.34 0 0 1 -.33.34h-.41a.33.33 0 0 1 -.33-.33v-1.11a.34.34 0 0 1 .33-.34h.41a.33.33 0 0 1 .33.34z" fill="#b7b7b7"/><path d="m182.46 200.43h-.85a.34.34 0 0 0 -.33.34v1.58a.33.33 0 0 0 .33.33h.85a.34.34 0 0 0 .33-.34v-1.58a.33.33 0 0 0 -.33-.33zm.1.56v1.12a.34.34 0 0 1 -.33.34h-.41a.33.33 0 0 1 -.33-.33v-1.12a.34.34 0 0 1 .33-.34h.41a.33.33 0 0 1 .33.34z" fill="#b7b7b7"/><path d="m183.22 199.59v.5a.2.2 0 0 0 .2.19h.92a.19.19 0 0 0 .19-.19v-.5a.2.2 0 0 0 -.2-.19h-.92a.19.19 0 0 0 -.19.19zm.33-.06h.65a.2.2 0 0 1 .2.19v.28a.19.19 0 0 1 -.19.19h-.65a.2.2 0 0 1 -.2-.19v-.24a.19.19 0 0 1 .19-.23z" fill="#b7b7b7"/><path d="m181.37 199.59v.5a.2.2 0 0 0 .2.19h.92a.19.19 0 0 0 .19-.19v-.5a.2.2 0 0 0 -.2-.19h-.92a.19.19 0 0 0 -.19.19zm.33-.06h.65a.2.2 0 0 1 .2.19v.28a.19.19 0 0 1 -.19.19h-.65a.2.2 0 0 1 -.2-.19v-.24a.19.19 0 0 1 .19-.23z" fill="#b7b7b7"/><path d="m149.27 220.66c.23-1.89 5.39-33.16 5.39-33.16s16.32 3.87 18.07 13.62z" fill="#b7b7b7"/><path d="m149.27 220.66-4.02-4.09 3.6-24.89 5.81-4.18z" fill="#b7b7b7"/><path d="m170.63 202.28a3.82 3.82 0 1 0 -3.92 3.86l3.87-3.22a3.8 3.8 0 0 0 .05-.64z" fill="#e5e5e5"/><path d="m149.06 191.8 5.12-3.69-5.16 31.79-3.5-3.51z" fill="#fff"/><path d="m166.8 203.06-.46-.55a.28.28 0 0 0 -.4 0l-1 .85a.28.28 0 0 0 0 .4l.46.55a.28.28 0 0 0 .4 0l1-.85a.28.28 0 0 0 0-.4zm-.31.37-.73.6a.28.28 0 0 1 -.4 0l-.22-.27a.28.28 0 0 1 0-.4l.73-.6a.28.28 0 0 1 .4 0l.22.27a.28.28 0 0 1 0 .4z" fill="#b7b7b7"/><path d="m167.8 204.27-.46-.55a.28.28 0 0 0 -.4 0l-1 .85a.28.28 0 0 0 0 .4l.46.55a.28.28 0 0 0 .4 0l1-.85a.28.28 0 0 0 0-.4zm-.31.37-.73.6a.28.28 0 0 1 -.4 0l-.22-.27a.28.28 0 0 1 0-.4l.73-.6a.28.28 0 0 1 .4 0l.22.27a.28.28 0 0 1 0 .4z" fill="#b7b7b7"/><path d="m168.87 204.34.33-.28-2.44-2.94a.22.22 0 1 0 -.33.28z" fill="#d6d6d6"/><path d="m169.61 203.72.36-.3-2.73-3.3a.22.22 0 0 0 -.3 0 .22.22 0 0 0 0 .3z" fill="#b7b7b7"/><path d="m137.13 215.06v68.82l64.14-9.18-2.77-65.95z" fill="#ccbb8b"/><path d="m198.59 208.9-6.46-8.63-6.76 10.03z" fill="#ccbb8b"/><path d="m185.37 210.18-6.52-8.63-6.83 10.03z" fill="#ccbb8b"/><path d="m172.27 211.64-6.53-8.89-6.82 10.33z" fill="#ccbb8b"/><path d="m158.91 212.83-6.52-8.62-6.83 10.03z" fill="#ccbb8b"/><path d="m145.56 214.24-8.43-9.27v10.09" fill="#ccbb8b"/><path d="m155.36 242.75s1-2.61-2.8-5.39c0 0-1.42 5.71 2.8 5.39z" fill="#fff"/><path d="m156.69 243c4.59.55 4.17-7 4.17-7-5.56 4-4.51 6.52-4.27 6.94z" fill="#fff"/><path d="m161.87 254.77a.3.3 0 0 1 .14-.46l1.23-.57c.41-.2.55-.2.71 0-.5-1-.45-2.6-.09-4.72l1.37-11.35a1 1 0 0 0 -1-1c-.81 0-.93.33-1.12.85s-2.1 12.42-2.1 12.42-.52 7.46-6 7a6.05 6.05 0 0 1 -1.58-.48 4.64 4.64 0 0 1 -1.08-1 5.17 5.17 0 0 1 -.83-4 9.33 9.33 0 0 1 .92-3 5 5 0 0 1 .52-.77 4.36 4.36 0 0 1 2.53-1.52 13.74 13.74 0 0 1 1.56-.08 1 1 0 0 0 1.17-.76 1 1 0 0 0 -.12-1c-.43-.47-2.15-.42-2.52-.4a7.21 7.21 0 0 0 -6.45 6.2c-.1.51-2.07 9.59 7.08 9.61a6.53 6.53 0 0 0 5.67-4.9z" fill="url(#v)"/><path d="m164.73 254.56a1.88 1.88 0 0 1 -.37-.28 1.47 1.47 0 0 0 .37.28z" fill="url(#w)"/><path d="m188.47 253.26c-.25.19-.5.4-.74.57a2.85 2.85 0 0 1 -2.58.34 4.13 4.13 0 0 1 -2.31-3c-.31-1.28-.28-2.62-.49-3.92s-.82-3-2.18-3.68a3.58 3.58 0 0 0 -4 .7c-.12.12-.24.29-.43.15a4.11 4.11 0 0 0 -5.34-1.29c-.1.05-.07-.17-.22-.36a.7.7 0 0 0 -.27-.21 1.75 1.75 0 0 0 -1.08-.08.38.38 0 0 0 -.31.3c-.39 2-.57 4.88-.77 6.21a29.07 29.07 0 0 1 -.7 4 2.43 2.43 0 0 1 -1.12 1.63 1.39 1.39 0 0 1 -1.66-.45c-.16-.22-.29-.52-.56-.55a.72.72 0 0 0 -.38.1l-1.24.57a.48.48 0 0 0 -.24.18.46.46 0 0 0 0 .38c.91 2.27 4 4.09 6.14 2a3.78 3.78 0 0 0 .8-1.14c1.18-2.55 1.21-5.42 1.89-8.12.28-1.1 1-2.72 2.47-2.32.76.21 1 1 1.08 1.69a12.75 12.75 0 0 1 .13 2.64c0 .81-.07 2.65 1.33 2.41a.81.81 0 0 0 .42-.21 2.31 2.31 0 0 0 .57-1.63c.06-.8.13-1.6.23-2.4a4 4 0 0 1 .4-1.45 1.38 1.38 0 0 1 2.53 0 4 4 0 0 1 .4 1.6 16.9 16.9 0 0 0 .8 5.06 5.83 5.83 0 0 0 3.69 3.33 5.17 5.17 0 0 0 4.81-1.07 1.94 1.94 0 0 0 .77-1.5 1 1 0 0 0 -.59-.86 1.32 1.32 0 0 0 -1.25.38z" fill="url(#x)"/><g fill="#ececec" opacity=".9"><path d="m232.14 121.53a.61.61 0 0 1 0 .07h1.22c.19 0 .34-.22.33-.48v-1.21c0-.26-.15-.47-.34-.47h-1.22s0 0 0 0z"/><path d="m222.11 127.65c2.52 0 4.63-2.42 5.1-5.59l4.58-.05c.17 0 .3-.18.32-.4a.61.61 0 0 0 0-.07v-2s0 0 0 0c0-.24-.16-.44-.33-.44l-4.63.05c-.57-3-2.6-5.22-5-5.22h-29c-.63 0-1.15.73-1.15 1.62v10.45c0 .89.52 1.62 1.15 1.62h29z"/></g><circle cx="242.92" cy="142.34" fill="url(#y)" opacity=".1" r="6.17"/><path d="m226 147a5.15 5.15 0 0 0 7.28-7.28z" fill="url(#z)" opacity=".1"/><path d="m189.32 163.46h24.34v6.72h-24.34z" fill="url(#A)" opacity=".1"/><path d="m189.32 155.72h9.27v6.29h-9.27z" fill="url(#B)" opacity=".1"/><path d="m292.51 115.06.01 3.23 5.58-.02-3.49-3.22z" fill="#d8cbad"/><path d="m292.58 128.53.04 3.5 21.13-.12-3.99-3.48z" fill="#d8cbad"/><path d="m292.69 142.27v1.89s3.63 1.24 4.26 1.59l32.45-.2-4-3.48z" fill="#d8cbad"/><path d="m350.28 228.88-19.51 34.07 19.18-.03.33-5.46z" fill="#fff"/><path d="m349.94 145.42-20.54.14 12.16 10.81h8.38z" fill="#ccc"/><path d="m349.94 131.68-36.19.23 11.67 10.17 24.52-.16z" fill="#ccc"/><path d="m349.94 117.93-51.84.34 11.66 10.16 40.18-.26z" fill="#ccc"/><path d="m349.94 163.68v-.45a13.19 13.19 0 0 0 -15.49-13.06z" fill="#c1ad73"/><path d="m77.24 56.37h74.29v2.63h-74.29z" fill="#ececec"/><path d="m77.24 77.49h74.29v2.63h-74.29z" fill="#ececec"/><path d="m84.68 46a36.75 36.75 0 0 0 48.09 0 36.76 36.76 0 0 0 -48.09 0z" fill="#fff" opacity=".9"/><path d="m141.34 39v15.91l-8.57-8.96z" fill="#fff" opacity=".9"/><path d="m84.68 46a36.75 36.75 0 0 0 48.09 0 36.76 36.76 0 0 0 -48.09 0z" fill="url(#C)" opacity=".1"/><path d="m141.34 39v15.91l-8.57-8.96z" fill="url(#D)" opacity=".1"/><circle cx="96.8" cy="44.62" fill="#fff" r="1.33"/><path d="m108.72 95.58 42.33-.15a8.05 8.05 0 0 0 8.09-8l-.09-24.73z" fill="url(#E)" opacity=".1"/><path d="m91.86 66.88 1.73 8.5h4.34v-8.5z" fill="#fff"/><path d="m97.93 66.88h-.68-5.39l1.73 8.5h3.66.68 3.66l1.73-8.5z" fill="#ececec" opacity=".9"/><g opacity=".1"><path d="m232.14 121.53a.61.61 0 0 1 0 .07h1.22c.19 0 .34-.22.33-.48v-1.21c0-.26-.15-.47-.34-.47h-1.22s0 0 0 0z" fill="url(#F)"/><path d="m222.11 127.65c2.52 0 4.63-2.42 5.1-5.59l4.58-.05c.17 0 .3-.18.32-.4a.61.61 0 0 0 0-.07v-2s0 0 0 0c0-.24-.16-.44-.33-.44l-4.63.05c-.57-3-2.6-5.22-5-5.22h-29c-.63 0-1.15.73-1.15 1.62v10.45c0 .89.52 1.62 1.15 1.62h29z" fill="url(#G)"/></g><circle cx="95.46" cy="66.88" fill="url(#H)" opacity=".1" r="2.58"/><circle cx="100.11" cy="67.65" fill="url(#I)" opacity=".1" r="2.58"/><path d="m97.93 66.88h-.68-5.39l1.73 8.5h3.66.68 3.66l1.73-8.5z" fill="#f2f2f2"/><path d="m97.93 66.88h-.68-5.39l1.73 8.5h3.66.68 3.66l1.73-8.5z" fill="url(#J)" opacity=".1"/></svg>