<svg id="Layer_1" data-name="Layer 1" xmlns="http://www.w3.org/2000/svg" xmlns:xlink="http://www.w3.org/1999/xlink" viewBox="0 0 350 306.3"><defs><style>.cls-1,.cls-50,.cls-8{opacity:0.05;}.cls-1,.cls-10,.cls-13,.cls-16,.cls-17,.cls-18,.cls-19,.cls-2,.cls-20,.cls-21,.cls-22,.cls-23,.cls-24,.cls-25,.cls-26,.cls-27,.cls-28,.cls-29,.cls-3,.cls-30,.cls-31,.cls-32,.cls-35,.cls-37,.cls-38,.cls-39,.cls-4,.cls-40,.cls-41,.cls-42,.cls-43,.cls-48,.cls-49,.cls-50,.cls-7,.cls-8,.cls-9{isolation:isolate;}.cls-1{fill:url(#linear-gradient);}.cls-11,.cls-13,.cls-2{fill:#c1ad73;}.cls-2{opacity:0.5;}.cls-25,.cls-26,.cls-27,.cls-29,.cls-3,.cls-30,.cls-31,.cls-32,.cls-35,.cls-37,.cls-38,.cls-39,.cls-40,.cls-41,.cls-42,.cls-43,.cls-6{fill:#fff;}.cls-10,.cls-13,.cls-3{opacity:0.9;}.cls-16,.cls-17,.cls-18,.cls-19,.cls-20,.cls-21,.cls-22,.cls-23,.cls-4,.cls-7,.cls-9{opacity:0.1;}.cls-4{fill:url(#linear-gradient-2);}.cls-10,.cls-5{fill:#ececec;}.cls-7{fill:url(#linear-gradient-3);}.cls-8{fill:url(#linear-gradient-4);}.cls-9{fill:url(#linear-gradient-5);}.cls-12{fill:#ccc;}.cls-14{fill:none;}.cls-15{fill:#d8cbad;}.cls-16{fill:url(#linear-gradient-6);}.cls-17{fill:url(#linear-gradient-7);}.cls-18{fill:url(#linear-gradient-8);}.cls-19{fill:url(#linear-gradient-9);}.cls-20{fill:url(#linear-gradient-10);}.cls-21{fill:url(#linear-gradient-11);}.cls-22{fill:url(#linear-gradient-12);}.cls-23{fill:url(#linear-gradient-13);}.cls-24{opacity:0.03;fill:url(#linear-gradient-14);}.cls-25,.cls-26{font-size:4.65px;}.cls-25,.cls-26,.cls-27,.cls-29,.cls-37,.cls-38,.cls-39,.cls-40{font-family:PublicaSans-Medium, Publica Sans;}.cls-25{letter-spacing:-0.01em;}.cls-27{font-size:3.33px;}.cls-29{font-size:3.99px;}.cls-30,.cls-31,.cls-32{font-size:6.66px;}.cls-30,.cls-31,.cls-32,.cls-41,.cls-42,.cls-43{font-family:SofiaProSoftBold, Sofia Pro Soft;font-weight:700;}.cls-31{letter-spacing:-0.03em;}.cls-32{letter-spacing:-0.06em;}.cls-33{fill:#ffb43b;}.cls-34{fill:#c73b53;}.cls-35{opacity:0.65;}.cls-36{fill:#d0d0d0;}.cls-37,.cls-38,.cls-40{font-size:4.02px;}.cls-37{letter-spacing:-0.01em;}.cls-39{font-size:4.69px;}.cls-40{letter-spacing:0.01em;}.cls-41,.cls-42,.cls-43{font-size:6.7px;}.cls-42{letter-spacing:-0.03em;}.cls-43{letter-spacing:-0.06em;}.cls-44{fill:#00b533;}.cls-45{fill:url(#linear-gradient-15);}.cls-46{fill:url(#linear-gradient-16);}.cls-47{fill:url(#linear-gradient-17);}.cls-48{opacity:0.15;fill:url(#linear-gradient-18);}.cls-49{opacity:0.2;fill:url(#linear-gradient-19);}.cls-50{fill:url(#linear-gradient-20);}</style><linearGradient id="linear-gradient" x1="51.86" y1="144.24" x2="158.44" y2="144.24" gradientTransform="translate(0 52.01)" gradientUnits="userSpaceOnUse"><stop offset="0" stop-color="#c69c6d"/><stop offset="0.1" stop-color="#a3815a"/><stop offset="0.26" stop-color="#725a3f"/><stop offset="0.42" stop-color="#493a28"/><stop offset="0.58" stop-color="#292017"/><stop offset="0.73" stop-color="#120e0a"/><stop offset="0.87" stop-color="#050403"/><stop offset="1"/></linearGradient><linearGradient id="linear-gradient-2" x1="162.98" y1="10.76" x2="62.2" y2="11.25" gradientTransform="translate(0 52)" gradientUnits="userSpaceOnUse"><stop offset="0" stop-color="#c69c6d"/><stop offset="0.11" stop-color="#c0976a"/><stop offset="0.26" stop-color="#af8a61"/><stop offset="0.42" stop-color="#947451"/><stop offset="0.6" stop-color="#6d563c"/><stop offset="0.8" stop-color="#3c2f21"/><stop offset="1"/></linearGradient><linearGradient id="linear-gradient-3" x1="167" y1="110.35" x2="267.6" y2="110.35" xlink:href="#linear-gradient-2"/><linearGradient id="linear-gradient-4" x1="63.4" y1="110.15" x2="164.6" y2="110.15" gradientTransform="translate(0 52)" xlink:href="#linear-gradient"/><linearGradient id="linear-gradient-5" x1="166.89" y1="11" x2="267.69" y2="11" gradientTransform="translate(0.01 52)" xlink:href="#linear-gradient-2"/><linearGradient id="linear-gradient-6" x1="292.49" y1="71.22" x2="351.59" y2="71.22" gradientTransform="translate(0.01 51.98)" xlink:href="#linear-gradient-2"/><linearGradient id="linear-gradient-7" x1="292.59" y1="85.02" x2="351.69" y2="85.02" gradientTransform="translate(0.01 51.98)" xlink:href="#linear-gradient-2"/><linearGradient id="linear-gradient-8" x1="292.69" y1="98.73" x2="351.79" y2="98.73" gradientTransform="translate(0.01 51.97)" xlink:href="#linear-gradient-2"/><linearGradient id="linear-gradient-9" x1="250.5" y1="117.45" x2="350.3" y2="117.45" xlink:href="#linear-gradient-2"/><linearGradient id="linear-gradient-10" x1="250.5" y1="131.05" x2="350.3" y2="131.05" xlink:href="#linear-gradient-2"/><linearGradient id="linear-gradient-11" x1="250.5" y1="144.75" x2="350.3" y2="144.75" xlink:href="#linear-gradient-2"/><linearGradient id="linear-gradient-12" x1="250.5" y1="158.35" x2="350.3" y2="158.35" xlink:href="#linear-gradient-2"/><linearGradient id="linear-gradient-13" x1="250.4" y1="172.05" x2="350.2" y2="172.05" xlink:href="#linear-gradient-2"/><linearGradient id="linear-gradient-14" x1="51.6" y1="144.19" x2="158.41" y2="144.19" xlink:href="#linear-gradient"/><linearGradient id="linear-gradient-15" x1="101.24" y1="153.68" x2="89.52" y2="153.87" gradientTransform="matrix(1, 0.09, -0.09, 1, 17.22, 14.03)" gradientUnits="userSpaceOnUse"><stop offset="0" stop-color="#f8af42"/><stop offset="1" stop-color="#fed93c"/></linearGradient><linearGradient id="linear-gradient-16" x1="101.72" y1="158.04" x2="101.94" y2="158.04" gradientTransform="matrix(1, 0.09, -0.09, 1, 17.22, 14.03)" gradientUnits="userSpaceOnUse"><stop offset="0" stop-color="#f8ab17"/><stop offset="1" stop-color="#f9eb21"/></linearGradient><linearGradient id="linear-gradient-17" x1="100.05" y1="155.72" x2="118.62" y2="155.72" xlink:href="#linear-gradient-15"/><linearGradient id="linear-gradient-18" x1="63.66" y1="62.8" x2="92.53" y2="62.8" gradientTransform="translate(0 52)" xlink:href="#linear-gradient"/><linearGradient id="linear-gradient-19" x1="70.11" y1="67.69" x2="73.06" y2="67.69" gradientTransform="translate(0 52)" xlink:href="#linear-gradient"/><linearGradient id="linear-gradient-20" x1="180.18" y1="-13.13" x2="170.37" y2="354.96" gradientTransform="translate(0 52)" xlink:href="#linear-gradient"/></defs><title>NewDignityMealsIntroImage_LightOnArtboard 1</title><path class="cls-1" d="M77.4,104.7l70.2,5.8a11.78,11.78,0,0,1,10.8,12.68h0L145.7,277A11.78,11.78,0,0,1,133,287.8h0L62.7,282a11.78,11.78,0,0,1-10.8-12.68h0L64.6,115.6A11.94,11.94,0,0,1,77.4,104.7Z"/><polygon class="cls-2" points="169.4 184.5 350.6 185.6 351.2 308.3 -4.9 307.1 80.7 192.8 169.4 184.5"/><path class="cls-3" d="M72.3,27.2l82.7-.3a9.07,9.07,0,0,1,9,8.9l.2,54.2a9.07,9.07,0,0,1-8.9,9l-82.7.3a9.07,9.07,0,0,1-9-8.9l-.2-54.2a8.88,8.88,0,0,1,8.76-9h.14Z"/><path class="cls-4" d="M71.9,27.1l82.7-.3a9.07,9.07,0,0,1,9,8.9l.2,54.2a9.07,9.07,0,0,1-8.9,9l-82.7.3a9.07,9.07,0,0,1-9-8.9L63,36.1A9,9,0,0,1,71.9,27.1Z"/><path class="cls-5" d="M72.2,99.2l30.9-.2,60.6-39.6-.1-23.7a8.92,8.92,0,0,0-8.9-8.9h-.1l-82.7.3A8.92,8.92,0,0,0,63,36v.1l.2,54.2a8.94,8.94,0,0,0,9,8.9Z"/><path class="cls-6" d="M171.9,102.1h91.2a4.69,4.69,0,0,1,4.7,4.68h0V218.5a4.69,4.69,0,0,1-4.68,4.7H171.9a4.69,4.69,0,0,1-4.7-4.68h0V106.7a4.61,4.61,0,0,1,4.62-4.6h.08Z"/><path class="cls-7" d="M171.7,101.8h91.2a4.69,4.69,0,0,1,4.7,4.68h0V218.2a4.69,4.69,0,0,1-4.68,4.7H171.7a4.69,4.69,0,0,1-4.7-4.68h0V106.5A4.76,4.76,0,0,1,171.7,101.8Z"/><path class="cls-6" d="M69.1,102.4h90.7a4.69,4.69,0,0,1,4.7,4.68h0V218.8a4.69,4.69,0,0,1-4.68,4.7H69.1a4.69,4.69,0,0,1-4.7-4.68h0V107A4.67,4.67,0,0,1,69.1,102.4Z"/><path class="cls-8" d="M68.1,101.6h91.8a4.69,4.69,0,0,1,4.7,4.68h0V218a4.69,4.69,0,0,1-4.68,4.7H68.1A4.69,4.69,0,0,1,63.4,218s0,0,0,0h0V106.3a4.69,4.69,0,0,1,4.68-4.7h0Z"/><path class="cls-5" d="M99.1,101.7,68,101.6a4.38,4.38,0,0,0-4.5,4.26h0V124.7Z"/><path class="cls-3" d="M175.8,27.5l82.7-.3a9.07,9.07,0,0,1,9,8.9l.2,54.2a9.07,9.07,0,0,1-8.9,9l-82.7.3a9.07,9.07,0,0,1-9-8.9l-.2-54.2A9.07,9.07,0,0,1,175.8,27.5Z"/><path class="cls-3" d="M175.8,28.2l82.7-.3a9.07,9.07,0,0,1,9,8.9l.2,54.2a9.07,9.07,0,0,1-8.9,9l-82.7.3a9.07,9.07,0,0,1-9-8.9l-.2-54.2A9,9,0,0,1,175.8,28.2Z"/><path class="cls-9" d="M175.8,27.1l82.7-.3a9.07,9.07,0,0,1,9,8.9l.2,54.2a9.07,9.07,0,0,1-8.9,9l-82.7.3a9.07,9.07,0,0,1-9-8.9l-.2-54.2A9.07,9.07,0,0,1,175.8,27.1Z"/><path class="cls-10" d="M195,39h12.2l60.3,52.8a11,11,0,0,0,.2-1.8l-.2-54.1a8.92,8.92,0,0,0-8.9-8.9h-.1l-82.7.3a8.92,8.92,0,0,0-8.9,8.9l.1,21.2Z"/><path class="cls-11" d="M349.1,100.4c-1.9,0-3,1.5-3,3.4l-.1,27.9c0,1.9,1.1,3.4,3,3.4s3-1.5,3-3.4l.1-27.9C352.1,101.9,351,100.4,349.1,100.4Z"/><path class="cls-11" d="M342.6,100.2a3.46,3.46,0,0,0-3.5,3.4v3.6a3.27,3.27,0,0,0-2.4,1.5l.6-3a3.4,3.4,0,0,0-2.83-3.89h-.07a3.34,3.34,0,0,0-3.8,2.5l-4.7,22.3-3.5-19.5a3.9,3.9,0,0,0-4-3h0c-1.9,0-3.1,2.3-2.8,4.2l5,27.6a3.43,3.43,0,0,0,3.95,2.82h.05a3.5,3.5,0,0,0,2.8-3h.1a3.33,3.33,0,0,0,3.5-1.4l-.6,3a3.45,3.45,0,0,0,2.6,4.1,3.61,3.61,0,0,0,4.2-2.6l2-8.6v1.6a3.5,3.5,0,0,0,7,0l.1-27.9A3.82,3.82,0,0,0,342.6,100.2Z"/><path class="cls-11" d="M309.5,104.3a3.43,3.43,0,0,0-3.95-2.82h-.05a3.18,3.18,0,0,0-2.7,2.7,3.56,3.56,0,0,0-3.2-2,3.46,3.46,0,0,0-3.5,3.4l-.1,27.9a3.5,3.5,0,0,0,7,0l.1-26.2,4.7,25.7a3.45,3.45,0,0,0,6.8-1.2h0Z"/><path class="cls-11" d="M314.1,110h0a3.37,3.37,0,0,1,3.4,3.34h0v28a3.37,3.37,0,0,1-3.34,3.4h-.06a3.37,3.37,0,0,1-3.4-3.34h0v-28A3.37,3.37,0,0,1,314,110Z"/><rect class="cls-11" x="292.6" y="114.3" width="59" height="40.1" transform="translate(-0.49 1.18) rotate(-0.21)"/><rect class="cls-3" x="292.7" y="146" width="59" height="10.2" transform="translate(-0.55 1.18) rotate(-0.21)"/><rect class="cls-12" x="292.6" y="117.5" width="59" height="10.2" transform="translate(-0.45 1.18) rotate(-0.21)"/><rect class="cls-12" x="292.6" y="131.3" width="59" height="10.2" transform="translate(-0.5 1.18) rotate(-0.21)"/><rect class="cls-12" x="292.7" y="145" width="59" height="10.2" transform="translate(-0.55 1.18) rotate(-0.21)"/><circle class="cls-11" cx="304.9" cy="165.6" r="13.3"/><circle class="cls-11" cx="336.7" cy="163.6" r="13.3"/><ellipse class="cls-11" cx="289.1" cy="162.3" rx="17.2" ry="18.1"/><ellipse class="cls-11" cx="314" cy="166.5" rx="17.2" ry="18.1"/><circle class="cls-11" cx="268.9" cy="162" r="13.3"/><rect class="cls-11" x="250.5" y="161.3" width="99.8" height="67.8"/><rect class="cls-6" x="250.5" y="165.3" width="99.8" height="9.1"/><rect class="cls-6" x="250.5" y="178.9" width="99.8" height="9.1"/><rect class="cls-6" x="250.5" y="192.6" width="99.8" height="9.1"/><rect class="cls-6" x="250.5" y="206.2" width="99.8" height="9.1"/><rect class="cls-6" x="250.4" y="219.9" width="99.8" height="9.1"/><rect class="cls-12" x="250.5" y="165.3" width="99.8" height="9.1"/><rect class="cls-12" x="250.5" y="178.9" width="99.8" height="9.1"/><rect class="cls-12" x="250.5" y="192.6" width="99.8" height="9.1"/><rect class="cls-12" x="250.5" y="206.2" width="99.8" height="9.1"/><rect class="cls-12" x="250.4" y="219.9" width="99.8" height="9.1"/><polygon class="cls-12" points="309.8 127.8 351.6 127.7 351.5 117.4 298.1 117.6 309.8 127.8"/><polygon class="cls-12" points="325.4 141.5 351.6 141.4 351.6 131.2 313.8 131.3 325.4 141.5"/><polygon class="cls-12" points="341 155.2 351.7 155.1 351.6 144.9 329.4 145 341 155.2"/><path class="cls-11" d="M349.9,164.1v-.4a13.25,13.25,0,0,0-13.1-13.3,19.42,19.42,0,0,0-2.4.2Z"/><path class="cls-11" d="M200.1,44.2a6.22,6.22,0,0,0,6.1-5.2H194A6.22,6.22,0,0,0,200.1,44.2Z"/><path class="cls-13" d="M202,27.6V-4h-4V27.7c-.1,0-.2-.7-.3-.7h4.9C202.4,27,202.2,27.7,202,27.6Z"/><path class="cls-13" d="M155.9,35H244a.9.9,0,0,1,.9.9V36a.9.9,0,0,1-.9.9H155.9a.9.9,0,0,1-.9-.9v-.1A.9.9,0,0,1,155.9,35Z"/><path class="cls-13" d="M206.2,33H208V27h-5.4C205.1,28,205.8,30,206.2,33Z"/><path class="cls-13" d="M197.7,27H192v6h2A7.54,7.54,0,0,1,197.7,27Z"/><path class="cls-13" d="M194,33h12.2c-.4-3-1.1-5-3.6-6h-4.9A7.79,7.79,0,0,0,194,33Z"/><path class="cls-13" d="M194,33h12.2c-.4-3-1.1-5-3.6-6h-4.9A7.79,7.79,0,0,0,194,33Z"/><path class="cls-5" d="M150.4,218c6.7,1.6,20.4,5,21.1,13,.6,7.5-4.1,13.7-12.2,13.8-1.2,0-11.7-1.1-11.6-2.1Z"/><path class="cls-5" d="M89.5,294.1s5.5-.7,6.3-1.9,52.6,25.4,58.1,11.3c5.4-13.9-13.9-17.7-13.9-17.7l-38.3-15.5-8.9,13.4Z"/><path class="cls-5" d="M146,251.6s12.1,1.7,16.4,7.6c2.5,3.4,1.4,14.1-5.1,16.9s-12.3-1.5-12.3-1.5Z"/><path class="cls-5" d="M59.9,177.6c-2-1.1-9.5.5-11.8,1a19,19,0,0,0-4.6,1.5c-6.1,3.1-10,10.5-14.1,15.9L16.8,212.6,5.1,227.8c-.9,1.2-4.9,4.9-4.9,6.5l-1.4,72.6s54.5-38.5,51.7-50-.7-31.5,4-31.5c4.2,0,4.6-23.1,4.8-25.8.4-5.6.7-11.2.8-16.8,0-1,.7-4,.2-4.8A.78.78,0,0,0,59.9,177.6Z"/><path class="cls-5" d="M-.8,304.9,10.4,282S31.5,251.5,50,249.5L96.6,276l-7,18s-39.3,12.3-50.4,12.6-39-.3-39-.3Z"/><line class="cls-14" x1="56.3" y1="213.7" x2="55.4" y2="216.6"/><path class="cls-2" d="M188.9,66.2h0a1.54,1.54,0,0,1,1.5,1.5V86.2a1.54,1.54,0,0,1-1.5,1.5h0a1.54,1.54,0,0,1-1.5-1.5V67.7a1.42,1.42,0,0,1,1.34-1.5h.16Z"/><path class="cls-2" d="M188.7,114.1h0a1.54,1.54,0,0,1,1.5,1.5V189a1.54,1.54,0,0,1-1.5,1.5h0a1.54,1.54,0,0,1-1.5-1.5V115.6A1.54,1.54,0,0,1,188.7,114.1Z"/><path class="cls-11" d="M144,75.3V67.6a1.5,1.5,0,0,0-3,0v9.6Z"/><path class="cls-11" d="M142.5,87.6a1.54,1.54,0,0,0,1.5-1.5V75.3l-3,1.9V86A1.56,1.56,0,0,0,142.5,87.6Z"/><path class="cls-11" d="M349,99.9c-1.9,0-3,1.5-3,3.4v27.9c0,1.9,1.1,3.4,3,3.4s3-1.5,3-3.4V103.3C352,101.4,350.9,99.9,349,99.9Z"/><path class="cls-11" d="M342.5,99.7a3.46,3.46,0,0,0-3.5,3.4v3.6a3.27,3.27,0,0,0-2.4,1.5l.6-3a3.5,3.5,0,0,0-2.9-4,3.37,3.37,0,0,0-3.9,2.6l-4.6,22.3-3.6-19.3c-.3-1.9-2.1-2.8-4-2.8h0c-1.9,0-3.1,2.1-2.8,4l5.1,27.5a3.43,3.43,0,0,0,3.95,2.82h.05a3.39,3.39,0,0,0,2.8-3h.1a3.33,3.33,0,0,0,3.5-1.4l-.6,3a3.44,3.44,0,0,0,2.64,4.09H333a3.59,3.59,0,0,0,4.2-2.7l1.9-8.6v1.6a3.5,3.5,0,0,0,7,0V103.4A3.67,3.67,0,0,0,342.5,99.7Z"/><path class="cls-11" d="M309.5,103.9a3.43,3.43,0,0,0-3.95-2.82h-.05a3.29,3.29,0,0,0-2.7,2.7,3.56,3.56,0,0,0-3.2-2,3.46,3.46,0,0,0-3.5,3.4v27.9a3.5,3.5,0,0,0,7,0V107l4.8,25.6a3.45,3.45,0,0,0,6.8-1.2h0Z"/><path class="cls-11" d="M314.1,109.6h0a3.37,3.37,0,0,1,3.4,3.34h0v28a3.37,3.37,0,0,1-3.34,3.4h-.06a3.37,3.37,0,0,1-3.4-3.34h0V113a3.37,3.37,0,0,1,3.34-3.4h.06Z"/><rect class="cls-15" x="293.1" y="113.76" width="59" height="40.1" transform="translate(-1.32 3.23) rotate(-0.57)"/><rect class="cls-3" x="293.05" y="116.96" width="59" height="10.2" transform="translate(-1.2 3.23) rotate(-0.57)"/><rect class="cls-3" x="293.2" y="130.66" width="59" height="10.2" transform="translate(-1.34 3.23) rotate(-0.57)"/><rect class="cls-3" x="293.25" y="144.46" width="59" height="10.2" transform="translate(-1.48 3.23) rotate(-0.57)"/><polygon class="cls-16" points="351.6 128.2 292.6 128.5 292.5 118.3 351.5 117.9 351.6 128.2"/><polygon class="cls-17" points="351.7 141.9 292.7 142.3 292.6 132 351.6 131.7 351.7 141.9"/><polygon class="cls-18" points="351.8 155.6 292.8 156 292.7 145.8 351.7 145.4 351.8 155.6"/><circle class="cls-11" cx="304.9" cy="165.2" r="13.3"/><circle class="cls-15" cx="336.7" cy="163.2" r="13.3"/><ellipse class="cls-15" cx="289.1" cy="161.9" rx="17.2" ry="18.1"/><ellipse class="cls-15" cx="314" cy="166.1" rx="17.2" ry="18.1"/><circle class="cls-15" cx="268.9" cy="161.6" r="13.3"/><rect class="cls-15" x="250.5" y="160.9" width="99.8" height="67.8"/><rect class="cls-6" x="250.5" y="164.9" width="99.8" height="9.1"/><rect class="cls-6" x="250.5" y="178.5" width="99.8" height="9.1"/><rect class="cls-6" x="250.5" y="192.2" width="99.8" height="9.1"/><rect class="cls-6" x="250.5" y="205.8" width="99.8" height="9.1"/><rect class="cls-6" x="250.4" y="219.5" width="99.8" height="9.1"/><rect class="cls-19" x="250.5" y="164.9" width="99.8" height="9.1"/><rect class="cls-20" x="250.5" y="178.5" width="99.8" height="9.1"/><rect class="cls-21" x="250.5" y="192.2" width="99.8" height="9.1"/><rect class="cls-22" x="250.5" y="205.8" width="99.8" height="9.1"/><rect class="cls-23" x="250.4" y="219.5" width="99.8" height="9.1"/><polygon class="cls-12" points="309.8 128.4 351.6 128.2 351.5 117.9 298.1 118.3 309.8 128.4"/><polygon class="cls-12" points="325.4 142.1 351.7 141.9 351.6 131.7 313.8 131.9 325.4 142.1"/><polygon class="cls-12" points="341.1 155.7 351.8 155.6 351.7 145.4 329.4 145.6 341.1 155.7"/><path class="cls-11" d="M349.9,163.7v-.4A13.25,13.25,0,0,0,336.8,150a19.42,19.42,0,0,0-2.4.2Z"/><path class="cls-11" d="M144,74.9V67.4a1.5,1.5,0,0,0-3,0v9.4Z"/><path class="cls-15" d="M142.5,87.6a1.54,1.54,0,0,0,1.5-1.5V72.3l-3,2V86.1A1.54,1.54,0,0,0,142.5,87.6Z"/><path class="cls-6" d="M200.1,44.2a6.22,6.22,0,0,0,6.1-5.2H194A6.22,6.22,0,0,0,200.1,44.2Z"/><path class="cls-10" d="M202,27.2V-4h-4V27.3c-.1,0-.2-.3-.3-.3h4.9C202.4,27,202.2,27.3,202,27.2Z"/><path class="cls-3" d="M155.9,35H244a.9.9,0,0,1,.9.9V36a.9.9,0,0,1-.9.9H155.9a.9.9,0,0,1-.9-.9v-.1A.9.9,0,0,1,155.9,35Z"/><path class="cls-3" d="M206.2,33H208V27h-5.4C205.1,28,205.8,30,206.2,33Z"/><path class="cls-3" d="M197.7,27H192v6h2A7.54,7.54,0,0,1,197.7,27Z"/><path class="cls-10" d="M194,33h12.2c-.4-3-1.1-5-3.6-6h-4.9A7.79,7.79,0,0,0,194,33Z"/><path class="cls-3" d="M194,33h12.2c-.4-3-1.1-5-3.6-6h-4.9A7.79,7.79,0,0,0,194,33Z"/><path class="cls-5" d="M175.9,176.4c-2.3-3.4-7.3-4.5-11.4-4.5-2.4,0-9.8-.9-11.6.9s.1,7.3-.2,9.6c-.4,3.6-.5,7.2-1,10.8-.1,1.1,25.2,1.5,25.4-12.4A7.18,7.18,0,0,0,175.9,176.4Z"/><path class="cls-6" d="M77.3,104.7l70.2,5.8a11.78,11.78,0,0,1,10.8,12.68h0L145.6,277a11.78,11.78,0,0,1-12.68,10.8h0L62.6,282a11.78,11.78,0,0,1-10.8-12.68h0L64.5,115.6A11.94,11.94,0,0,1,77.3,104.7Z"/><polygon class="cls-15" points="292.5 114.4 292.5 115.1 294.2 115 293.5 114.4 292.5 114.4"/><path class="cls-24" d="M76.39,104.64l71.87,5.91a11.07,11.07,0,0,1,10.12,11.9L145.55,277.67a11.08,11.08,0,0,1-11.93,10.1l-71.87-5.91A11.07,11.07,0,0,1,51.63,270L64.36,114.74A11.12,11.12,0,0,1,76.39,104.64Z"/><text class="cls-25" transform="matrix(1, 0.08, -0.08, 1, 95.41, 235.61)">L</text><text class="cls-26" transform="matrix(1, 0.08, -0.08, 1, 97.86, 235.81)">og In</text><text class="cls-27" transform="matrix(1, 0.08, -0.08, 1, 95.25, 248.44)">Sign Up</text><g class="cls-28"><text class="cls-29" transform="matrix(1, 0.08, -0.08, 1, 108.29, 249.48)"><tspan xml:space="preserve">  </tspan></text></g><g class="cls-28"><text class="cls-30" transform="matrix(1, 0.08, -0.08, 1, 85.57, 189.89)">digni</text><text class="cls-31" transform="matrix(1, 0.08, -0.08, 1, 100.76, 191.11)">t</text></g><text class="cls-32" transform="matrix(1, 0.08, -0.08, 1, 103.05, 191.29)">y</text><g class="cls-28"><text class="cls-30" transform="matrix(1, 0.08, -0.08, 1, 106.1, 191.53)"><tspan xml:space="preserve"> meals</tspan></text></g><path class="cls-33" d="M103.13,180.93a1.31,1.31,0,0,0-.44-.6,2.86,2.86,0,0,0,1.25,2A3,3,0,0,1,103.13,180.93Z"/><line class="cls-14" x1="104.45" y1="180.49" x2="102.63" y2="180.27"/><rect class="cls-34" x="30.51" y="154.76" width="149.19" height="84.07" transform="translate(-99.68 285.33) rotate(-85.27)"/><rect class="cls-35" x="98.63" y="170.43" width="11.72" height="73.81" rx="2.69" ry="2.69" transform="translate(-111.22 293.21) rotate(-84.96)"/><rect class="cls-35" x="97.38" y="184.71" width="11.72" height="73.81" rx="2.69" ry="2.69" transform="translate(-126.59 304.99) rotate(-84.96)"/><rect class="cls-33" x="96.09" y="199.36" width="11.69" height="73.78" rx="1.45" ry="1.45" transform="translate(-142.36 317.04) rotate(-84.96)"/><path class="cls-36" d="M137.75,233.57a1.44,1.44,0,0,1,1.3,1.56l-.77,8.76a1.44,1.44,0,0,1-1.56,1.3L66.12,239a1.44,1.44,0,0,1-1.3-1.56l.77-8.76a1.44,1.44,0,0,1,1.56-1.3l70.61,6.23m0,0-70.61-6.23a1.47,1.47,0,0,0-1.59,1.33l-.77,8.76A1.47,1.47,0,0,0,66.11,239l70.61,6.23a1.47,1.47,0,0,0,1.59-1.33l.77-8.76a1.47,1.47,0,0,0-1.33-1.59Z"/><text class="cls-37" transform="translate(70.48 220.06) rotate(5.14)">P</text><text class="cls-38" transform="translate(72.94 220.28) rotate(5.14)">ass</text><text class="cls-37" transform="translate(79.49 220.85) rotate(5.14)">w</text><text class="cls-38" transform="translate(82.77 221.14) rotate(5.14)">o</text><text class="cls-38" transform="translate(85.15 221.35) rotate(5.14)">r</text><text class="cls-38" transform="translate(86.64 221.48) rotate(5.14)">d</text><g class="cls-28"><text class="cls-39" transform="translate(89.12 221.7) rotate(5.14)"><tspan xml:space="preserve">  </tspan></text></g><text class="cls-38" transform="translate(71.78 205.35) rotate(5.14)">Ema</text><text class="cls-40" transform="translate(80.05 206.08) rotate(5.14)">i</text><g class="cls-28"><text class="cls-38" transform="translate(81.08 206.17) rotate(5.14)"><tspan xml:space="preserve">l  </tspan></text></g><g class="cls-28"><text class="cls-41" transform="translate(85.7 190.66) rotate(5.14)">digni</text><text class="cls-42" transform="translate(100.96 192.03) rotate(5.14)">t</text></g><text class="cls-43" transform="translate(103.25 192.21) rotate(5.14)">y</text><g class="cls-28"><text class="cls-41" transform="translate(106.32 192.48) rotate(5.14)"><tspan xml:space="preserve"> meals</tspan></text></g><path class="cls-44" d="M100.36,172.55s1-1.55-1.1-3.82C99.27,168.73,97.62,172.21,100.36,172.55Z"/><path class="cls-44" d="M101.19,172.86c2.87.94,3.57-4,3.57-4-4.08,1.86-3.73,3.61-3.63,3.9Z"/><path class="cls-45" d="M103,181.1s-.06-.25.15-.28l.86-.21c.29-.07.38-.06.46.08a5.46,5.46,0,0,1,.55-3l2.34-7.11a.63.63,0,0,0-.42-.78h-.07c-.51-.14-.64.09-.83.4s-2.95,7.71-2.95,7.71-1.3,4.72-4.74,3.71a4,4,0,0,1-1-.51,3,3,0,0,1-.56-.78,3.4,3.4,0,0,1,0-2.65,6.12,6.12,0,0,1,1-1.79,3.26,3.26,0,0,1,.43-.43,2.84,2.84,0,0,1,1.82-.65,9,9,0,0,1,1,.15.68.68,0,0,0,.85-.34.65.65,0,0,0,.05-.68c-.21-.35-1.32-.55-1.56-.58a4.71,4.71,0,0,0-4.93,3.15c-.13.32-2.56,5.89,3.29,7.09a4.26,4.26,0,0,0,4.26-2.41Z"/><path class="cls-46" d="M104.84,181.34a1.23,1.23,0,0,1-.2-.23A1,1,0,0,0,104.84,181.34Z"/><path class="cls-47" d="M120.2,183.57l-.55.27a1.86,1.86,0,0,1-1.7-.12,2.71,2.71,0,0,1-1.09-2.23c0-.86.16-1.72.2-2.58a3.12,3.12,0,0,0-.92-2.65,2.33,2.33,0,0,0-2.65-.06c-.09.06-.19.16-.3,0a2.68,2.68,0,0,0-3.25-1.52c-.07,0,0-.12-.1-.26a.46.46,0,0,0-.14-.17,1.14,1.14,0,0,0-.68-.19.25.25,0,0,0-.23.15c-.51,1.25-1,3.06-1.29,3.89a19.08,19.08,0,0,1-1,2.46,1.59,1.59,0,0,1-.93.9.91.91,0,0,1-1-.5c-.07-.16-.12-.37-.28-.42a.47.47,0,0,0-.25,0l-.87.21a.31.31,0,0,0-.18.09.3.3,0,0,0,0,.25c.29,1.57,2,3.14,3.67,2.1a2.47,2.47,0,0,0,.66-.63c1.09-1.49,1.47-3.32,2.26-5,.32-.67,1-1.61,1.88-1.17a1.17,1.17,0,0,1,.47,1.23,8.37,8.37,0,0,1-.26,1.71c-.13.52-.39,1.7.54,1.72a.53.53,0,0,0,.29-.08,1.52,1.52,0,0,0,.58-1c.14-.51.29-1,.46-1.51a2.6,2.6,0,0,1,.45-.88.9.9,0,0,1,1.62.34,2.62,2.62,0,0,1,0,1.08,11.1,11.1,0,0,0-.14,3.35A3.82,3.82,0,0,0,117.4,185a3.37,3.37,0,0,0,3.22-.07,1.27,1.27,0,0,0,.69-.87.64.64,0,0,0-.27-.63A.86.86,0,0,0,120.2,183.57Z"/><path class="cls-5" d="M84,252.4l-14.3-.5A34.79,34.79,0,0,0,53,256.4l-6.5,3.7c-15.1,3.8-11.8-15.6-11.8-24.6h0c0-8.9,4.7-22.1,13.4-22.1l39.1,5.9c14.4,3.1,12.2,7.3,12.2,16.2h0C99.4,244.5,92.7,252.4,84,252.4Z"/><path class="cls-5" d="M78.4,252a130.59,130.59,0,0,0,17.2,6.2c4.6,1.3,9.6,2.6,14.3,1.8,5-.8,8.2-4.4,9.5-9.2a25.39,25.39,0,0,0,.7-6.1,11,11,0,0,0-4.2-8.4c-5.5-4.2-24-17.8-27.6-16.3Z"/><path class="cls-2" d="M104.6,236.8a15.52,15.52,0,0,1,8.3,3c2.6,2,2.3,6,1.8,8.4-1.7,8-9.2,6.6-14.7,4.1C96.4,250.5,101.2,236.9,104.6,236.8Z"/><path class="cls-48" d="M92.48,105.93l-14.81-1.2c-6.82-.51-12.61,4.18-13.13,10.78l-.93,9.39Z"/><polygon class="cls-49" points="70.34 118.58 70.09 120.8 73.08 118.84 70.34 118.58"/><polygon class="cls-50" points="206.62 39.15 350.75 164.3 350.82 316.11 -0.98 317.84 -1.28 167.8 194.32 39.25 206.62 39.15"/></svg>