<svg id="Layer_1" data-name="Layer 1" xmlns="http://www.w3.org/2000/svg" xmlns:xlink="http://www.w3.org/1999/xlink" viewBox="0 0 350 306.32"><defs><style>.cls-1,.cls-3,.cls-6{fill:#fff;}.cls-1,.cls-10,.cls-11,.cls-14,.cls-19,.cls-2,.cls-20,.cls-21,.cls-22,.cls-23,.cls-24,.cls-25,.cls-26,.cls-4,.cls-43,.cls-44,.cls-45,.cls-46,.cls-49,.cls-50,.cls-52{opacity:0.1;}.cls-1,.cls-10,.cls-11,.cls-12,.cls-14,.cls-16,.cls-18,.cls-19,.cls-2,.cls-20,.cls-21,.cls-22,.cls-23,.cls-24,.cls-25,.cls-26,.cls-3,.cls-38,.cls-4,.cls-43,.cls-44,.cls-45,.cls-46,.cls-49,.cls-50,.cls-52,.cls-8,.cls-9{isolation:isolate;}.cls-2{fill:url(#linear-gradient);}.cls-16,.cls-3,.cls-38,.cls-8{opacity:0.9;}.cls-4{fill:url(#linear-gradient-2);}.cls-5{fill:#d8cbad;}.cls-16,.cls-18,.cls-7{fill:#c1ad73;}.cls-13,.cls-8{fill:#ececec;}.cls-9{opacity:0.02;fill:url(#linear-gradient-3);}.cls-10{fill:url(#linear-gradient-4);}.cls-11{fill:url(#linear-gradient-5);}.cls-12{opacity:0.05;fill:url(#linear-gradient-6);}.cls-14{fill:url(#linear-gradient-7);}.cls-15{fill:#ccc;}.cls-17{fill:none;}.cls-18{opacity:0.5;}.cls-19{fill:url(#linear-gradient-8);}.cls-20{fill:url(#linear-gradient-9);}.cls-21{fill:url(#linear-gradient-10);}.cls-22{fill:url(#linear-gradient-11);}.cls-23{fill:url(#linear-gradient-12);}.cls-24{fill:url(#linear-gradient-13);}.cls-25{fill:url(#linear-gradient-14);}.cls-26{fill:url(#linear-gradient-15);}.cls-27{fill:#b7b7b7;}.cls-28{fill:#d6d6d6;}.cls-29{fill:url(#linear-gradient-16);}.cls-30{fill:url(#linear-gradient-17);}.cls-31{fill:url(#linear-gradient-18);}.cls-32{opacity:0.08;fill:url(#linear-gradient-19);}.cls-33{opacity:0.15;fill:url(#linear-gradient-20);}.cls-34{fill:#e5e5e5;}.cls-35{fill:url(#linear-gradient-21);}.cls-36{fill:url(#linear-gradient-22);}.cls-37{fill:url(#linear-gradient-23);}.cls-39,.cls-40,.cls-41,.cls-42{opacity:0.1;}.cls-39{fill:url(#linear-gradient-24);}.cls-40{fill:url(#linear-gradient-25);}.cls-41{fill:url(#linear-gradient-26);}.cls-42{fill:url(#linear-gradient-27);}.cls-43{fill:url(#linear-gradient-28);}.cls-44{fill:url(#linear-gradient-29);}.cls-45{fill:url(#linear-gradient-30);}.cls-47{fill:url(#linear-gradient-31);}.cls-48{fill:url(#linear-gradient-32);}.cls-49{fill:url(#linear-gradient-33);}.cls-50{fill:url(#linear-gradient-34);}.cls-51{fill:#f2f2f2;}.cls-52{fill:url(#linear-gradient-35);}</style><linearGradient id="linear-gradient" x1="162.98" y1="245.24" x2="62.2" y2="244.75" gradientTransform="matrix(1, 0, 0, -1, -0.86, 307.6)" gradientUnits="userSpaceOnUse"><stop offset="0" stop-color="#c69c6d"/><stop offset="0.11" stop-color="#c0976a"/><stop offset="0.26" stop-color="#af8a61"/><stop offset="0.42" stop-color="#947451"/><stop offset="0.6" stop-color="#6d563c"/><stop offset="0.8" stop-color="#3c2f21"/><stop offset="1"/></linearGradient><linearGradient id="linear-gradient-2" x1="163.35" y1="63.21" x2="62.4" y2="62.71" gradientTransform="matrix(1, 0, 0, 1, 0, 0)" xlink:href="#linear-gradient"/><linearGradient id="linear-gradient-3" x1="306.44" y1="267.49" x2="350.9" y2="267.49" gradientTransform="matrix(1, 0, 0, 1, 0, 0)" xlink:href="#linear-gradient"/><linearGradient id="linear-gradient-4" x1="249.09" y1="246" x2="350.28" y2="246" gradientTransform="matrix(1, 0, 0, 1, 0, 0)" xlink:href="#linear-gradient"/><linearGradient id="linear-gradient-5" x1="167.25" y1="163.23" x2="267.77" y2="163.23" gradientTransform="matrix(1, 0, 0, 1, 0, 0)" xlink:href="#linear-gradient"/><linearGradient id="linear-gradient-6" x1="62.43" y1="145.86" x2="163.57" y2="145.86" gradientTransform="matrix(1, 0, 0, -1, 0, 308)" gradientUnits="userSpaceOnUse"><stop offset="0" stop-color="#c69c6d"/><stop offset="0.1" stop-color="#a3815a"/><stop offset="0.26" stop-color="#725a3f"/><stop offset="0.42" stop-color="#493a28"/><stop offset="0.58" stop-color="#292017"/><stop offset="0.73" stop-color="#120e0a"/><stop offset="0.87" stop-color="#050403"/><stop offset="1"/></linearGradient><linearGradient id="linear-gradient-7" x1="166.92" y1="244.99" x2="267.69" y2="244.99" gradientTransform="matrix(1, 0, 0, -1, -0.85, 307.24)" xlink:href="#linear-gradient"/><linearGradient id="linear-gradient-8" x1="292.51" y1="184.75" x2="349.93" y2="184.75" gradientTransform="matrix(1, 0, 0, -1, 0.01, 307.98)" xlink:href="#linear-gradient"/><linearGradient id="linear-gradient-9" x1="292.61" y1="171" x2="349.93" y2="171" gradientTransform="matrix(1, 0, 0, -1, 0.01, 307.98)" xlink:href="#linear-gradient"/><linearGradient id="linear-gradient-10" x1="292.7" y1="157.25" x2="349.93" y2="157.25" gradientTransform="matrix(1, 0, 0, -1, 0.01, 307.97)" xlink:href="#linear-gradient"/><linearGradient id="linear-gradient-11" x1="250.48" y1="138.61" x2="350.28" y2="138.61" gradientTransform="matrix(1, 0, 0, -1, 0, 308)" xlink:href="#linear-gradient"/><linearGradient id="linear-gradient-12" x1="250.48" y1="124.96" x2="350.28" y2="124.96" gradientTransform="matrix(1, 0, 0, -1, 0, 308)" xlink:href="#linear-gradient"/><linearGradient id="linear-gradient-13" x1="250.48" y1="111.3" x2="350.28" y2="111.3" gradientTransform="matrix(1, 0, 0, -1, 0, 308)" xlink:href="#linear-gradient"/><linearGradient id="linear-gradient-14" x1="250.48" y1="97.65" x2="350.28" y2="97.65" gradientTransform="matrix(1, 0, 0, -1, 0, 308)" xlink:href="#linear-gradient"/><linearGradient id="linear-gradient-15" x1="250.44" y1="82.95" x2="350.24" y2="82.95" gradientTransform="matrix(1, 0, 0, -1, 0, 308)" xlink:href="#linear-gradient"/><linearGradient id="linear-gradient-16" x1="68.76" y1="246.05" x2="49.2" y2="246.37" gradientTransform="matrix(0.99, 0.05, -0.05, 1, 12.5, -5.91)" gradientUnits="userSpaceOnUse"><stop offset="0" stop-color="#ececec"/><stop offset="0.84" stop-color="#fff"/></linearGradient><linearGradient id="linear-gradient-17" x1="69.54" y1="253.81" x2="69.91" y2="253.81" gradientTransform="matrix(0.99, 0.05, -0.05, 1, 12.5, -5.91)" gradientUnits="userSpaceOnUse"><stop offset="0" stop-color="#f8ab17"/><stop offset="1" stop-color="#f9eb21"/></linearGradient><linearGradient id="linear-gradient-18" x1="66.75" y1="249.85" x2="97.72" y2="249.85" gradientTransform="matrix(0.99, 0.05, -0.05, 1, 12.5, -5.91)" gradientUnits="userSpaceOnUse"><stop offset="0" stop-color="#ececec"/><stop offset="0.77" stop-color="#fff"/></linearGradient><linearGradient id="linear-gradient-19" x1="136.77" y1="244.01" x2="125.03" y2="244.34" gradientUnits="userSpaceOnUse"><stop offset="0" stop-color="#fff"/><stop offset="1"/></linearGradient><linearGradient id="linear-gradient-20" x1="113.62" y1="244.16" x2="125.45" y2="244.16" xlink:href="#linear-gradient-19"/><linearGradient id="linear-gradient-21" x1="159.32" y1="240.69" x2="140.5" y2="241" gradientTransform="matrix(0.95, -0.11, 0.1, 0.9, -12.28, 48.28)" xlink:href="#linear-gradient-16"/><linearGradient id="linear-gradient-22" x1="160.07" y1="248.16" x2="160.42" y2="248.16" gradientTransform="matrix(0.95, -0.11, 0.1, 0.9, -12.28, 48.28)" xlink:href="#linear-gradient-17"/><linearGradient id="linear-gradient-23" x1="157.39" y1="244.35" x2="187.17" y2="244.35" gradientTransform="matrix(0.95, -0.11, 0.1, 0.9, -12.28, 48.28)" xlink:href="#linear-gradient-18"/><linearGradient id="linear-gradient-24" x1="236.75" y1="142.34" x2="249.09" y2="142.34" gradientTransform="matrix(1, 0, 0, 1, 0, 0)" xlink:href="#linear-gradient"/><linearGradient id="linear-gradient-25" x1="226.04" y1="144.13" x2="234.8" y2="144.13" gradientTransform="matrix(1, 0, 0, 1, 0, 0)" xlink:href="#linear-gradient"/><linearGradient id="linear-gradient-26" x1="189.32" y1="166.82" x2="213.66" y2="166.82" gradientTransform="matrix(1, 0, 0, 1, 0, 0)" xlink:href="#linear-gradient"/><linearGradient id="linear-gradient-27" x1="189.32" y1="158.87" x2="198.59" y2="158.87" gradientTransform="matrix(1, 0, 0, 1, 0, 0)" xlink:href="#linear-gradient"/><linearGradient id="linear-gradient-28" x1="84.68" y1="45.96" x2="132.77" y2="45.96" gradientTransform="matrix(1, 0, 0, 1, 0, 0)" xlink:href="#linear-gradient"/><linearGradient id="linear-gradient-29" x1="132.77" y1="46.96" x2="141.34" y2="46.96" gradientTransform="matrix(1, 0, 0, 1, 0, 0)" xlink:href="#linear-gradient"/><linearGradient id="linear-gradient-30" x1="158.81" y1="79.26" x2="108.37" y2="79.02" gradientTransform="matrix(1, 0, 0, 1, 0, 0)" xlink:href="#linear-gradient"/><linearGradient id="linear-gradient-31" x1="232.12" y1="120.52" x2="233.68" y2="120.52" gradientTransform="matrix(1, 0, 0, 1, 0, 0)" xlink:href="#linear-gradient"/><linearGradient id="linear-gradient-32" x1="191.98" y1="120.75" x2="232.14" y2="120.75" gradientTransform="matrix(1, 0, 0, 1, 0, 0)" xlink:href="#linear-gradient"/><linearGradient id="linear-gradient-33" x1="92.88" y1="66.88" x2="98.04" y2="66.88" gradientTransform="matrix(1, 0, 0, 1, 0, 0)" xlink:href="#linear-gradient"/><linearGradient id="linear-gradient-34" x1="97.53" y1="67.65" x2="102.69" y2="67.65" gradientTransform="matrix(1, 0, 0, 1, 0, 0)" xlink:href="#linear-gradient"/><linearGradient id="linear-gradient-35" x1="91.86" y1="71.13" x2="103.32" y2="71.13" gradientTransform="matrix(1, 0, 0, 1, 0, 0)" xlink:href="#linear-gradient"/></defs><title>DM_LightV2Artboard 1</title><path class="cls-1" d="M72.16,99.15,103.07,99l60.62-39.61-.08-23.72a8.92,8.92,0,0,0-8.95-8.89h-.05l-82.74.29A8.92,8.92,0,0,0,63,36v.05l.19,54.19a8.92,8.92,0,0,0,8.95,8.89Z"/><rect class="cls-1" x="63.11" y="26.98" width="100.58" height="72.03" rx="8.92" ry="8.92" transform="translate(-0.22 0.4) rotate(-0.2)"/><rect class="cls-2" x="63.11" y="26.98" width="100.58" height="72.03" rx="8.92" ry="8.92" transform="translate(-0.22 0.4) rotate(-0.2)"/><rect class="cls-3" x="63.47" y="27.06" width="100.58" height="72.03" rx="8.92" ry="8.92" transform="translate(-0.22 0.4) rotate(-0.2)"/><path class="cls-4" d="M67.59,87.74l-.17-48.51a8.05,8.05,0,0,1,8.09-8l77-.1c4.48,0,6.5,3.39,6.51,7.8l.08,23.78,5.06-3.31L164,35.67a8.92,8.92,0,0,0-8.95-8.89H155l-82.74.29A8.92,8.92,0,0,0,63.4,36v.05l.19,54.19a8.92,8.92,0,0,0,8.95,8.89h0L103.49,99l5.23-3.42-33,.11A8.05,8.05,0,0,1,67.59,87.74Z"/><polygon class="cls-5" points="0 228.1 0 258.69 27.48 228.93 0 228.1"/><polygon class="cls-6" points="0 202.39 0 230.27 27.48 228.93 52.32 201.89 0 202.39"/><polygon class="cls-7" points="349.94 114.69 292.51 115.06 292.77 155.13 349.94 154.76 349.94 114.69"/><polygon class="cls-8" points="351.21 306.32 0 306 0 203.39 350.28 201.64 351.21 306.32"/><polygon class="cls-6" points="350.24 229.11 274.22 228.99 217.48 306 304.09 306 350.24 232.04 350.24 229.11"/><polygon class="cls-9" points="350.9 228.77 306.44 305.92 350.9 306.22 350.9 228.77"/><polygon class="cls-6" points="134.44 306.32 216.04 202.53 137.73 210.35 62.41 306.32 134.44 306.32"/><polygon class="cls-6" points="0 228.8 0 262.8 39.11 263.01 42.26 229 0 228.8"/><polygon class="cls-10" points="331.18 263 350.28 229.11 274.22 228.99 249.09 262.79 331.18 263"/><polygon class="cls-6" points="249.18 263.01 274.22 229 194.97 229 168.03 262.8 249.18 263.01"/><rect class="cls-6" x="167.25" y="102.05" width="100.52" height="121.01" rx="4.67" ry="4.67"/><rect class="cls-6" x="167.22" y="102.05" width="100.52" height="121.01" rx="4.67" ry="4.67"/><path class="cls-11" d="M263.1,102.72H171.92a4.67,4.67,0,0,0-4.67,4.67V219.07a4.67,4.67,0,0,0,4.67,4.67H263.1a4.67,4.67,0,0,0,4.67-4.67V107.39A4.67,4.67,0,0,0,263.1,102.72Zm.18,112.38a4.29,4.29,0,0,1-4.24,4.34H176.17a4.29,4.29,0,0,1-4.24-4.34V111.36a4.29,4.29,0,0,1,4.24-4.34H259a4.29,4.29,0,0,1,4.24,4.34Z"/><polygon class="cls-5" points="168.03 262.8 195.22 229 115.97 229 88.09 262.8 168.03 262.8"/><polygon class="cls-6" points="96.47 263.01 121.51 229 42.26 229 15.32 262.8 96.47 263.01"/><rect class="cls-6" x="160.8" y="182.76" width="14.2" height="22.73"/><rect class="cls-6" x="64.39" y="102.36" width="99.99" height="121.01" rx="4.67" ry="4.67"/><rect class="cls-12" x="62.43" y="101.64" width="101.14" height="121.01" rx="4.67" ry="4.67"/><path class="cls-13" d="M99.06,101.66,68,101.57a4.41,4.41,0,0,0-4.52,4.3q0,.12,0,.24v18.61Z"/><rect class="cls-3" x="167.02" y="27.4" width="100.58" height="72.03" rx="8.92" ry="8.92" transform="translate(-0.22 0.76) rotate(-0.2)"/><rect class="cls-3" x="167.01" y="28.08" width="100.58" height="72.03" rx="8.92" ry="8.92" transform="translate(-0.22 0.76) rotate(-0.2)"/><rect class="cls-14" x="167.02" y="26.99" width="100.58" height="72.03" rx="8.92" ry="8.92" transform="translate(-0.22 0.76) rotate(-0.2)"/><path class="cls-8" d="M195,39h12.24L267.5,91.75a8.79,8.79,0,0,0,.19-1.85l-.19-54.13a8.91,8.91,0,0,0-8.94-8.88h-.06l-82.74.3a8.92,8.92,0,0,0-8.89,8.94L167,57.28Z"/><path class="cls-7" d="M342.58,100.19a3.5,3.5,0,0,0-3.51,3.42v3.57a3.59,3.59,0,0,0-2.44,1.46l.56-3a3.46,3.46,0,0,0-6.76-1.42l-4.71,22.26L322.18,107a3.89,3.89,0,0,0-4-3h0c-1.86,0-3.1,2.34-2.76,4.19l5,27.59a3.48,3.48,0,0,0,4,2.81,3.41,3.41,0,0,0,2.78-3h.07a3.44,3.44,0,0,0,3.55-1.43l-.63,3a3.44,3.44,0,0,0,2.65,4.07,3.58,3.58,0,0,0,4.2-2.65l2-8.62v1.57a3.5,3.5,0,1,0,7,0l.08-27.94A3.5,3.5,0,0,0,342.58,100.19Z"/><path class="cls-7" d="M309.54,104.29a3.43,3.43,0,0,0-6.73-.11,3.58,3.58,0,0,0-3.21-2,3.53,3.53,0,0,0-3.54,3.42L296,133.53a3.5,3.5,0,0,0,7,0l.07-26.19,4.7,25.66a3.44,3.44,0,1,0,6.77-1.23Z"/><path class="cls-7" d="M314.13,110h0a3.43,3.43,0,0,1,3.43,3.43v27.94a3.43,3.43,0,0,1-3.43,3.43h0a3.43,3.43,0,0,1-3.43-3.43V113.41A3.43,3.43,0,0,1,314.13,110Z"/><polygon class="cls-3" points="349.94 155.66 292.68 156.37 292.64 146.13 349.94 145.42 349.94 155.66"/><circle class="cls-7" cx="304.88" cy="165.64" r="13.26"/><circle class="cls-7" cx="336.71" cy="163.64" r="13.26"/><ellipse class="cls-7" cx="289.11" cy="162.26" rx="17.18" ry="18.08"/><ellipse class="cls-7" cx="314.01" cy="166.5" rx="17.18" ry="18.08"/><circle class="cls-7" cx="268.92" cy="162.02" r="13.26"/><rect class="cls-7" x="250.48" y="161.32" width="99.8" height="67.79"/><rect class="cls-6" x="250.48" y="165.28" width="99.8" height="9.06"/><rect class="cls-6" x="250.48" y="178.93" width="99.8" height="9.06"/><rect class="cls-6" x="250.48" y="192.58" width="99.8" height="9.06"/><rect class="cls-6" x="250.48" y="206.23" width="99.8" height="9.06"/><rect class="cls-6" x="250.44" y="219.93" width="99.8" height="9.06"/><rect class="cls-15" x="250.48" y="165.28" width="99.8" height="9.06"/><rect class="cls-15" x="250.48" y="178.93" width="99.8" height="9.06"/><rect class="cls-15" x="250.48" y="192.58" width="99.8" height="9.06"/><rect class="cls-15" x="250.48" y="206.23" width="99.8" height="9.06"/><rect class="cls-15" x="250.44" y="219.93" width="99.8" height="9.06"/><path class="cls-7" d="M349.94,164.09v-.45a13.19,13.19,0,0,0-15.49-13.06Z"/><path class="cls-7" d="M200.07,44.2a6.26,6.26,0,0,0,6.12-5.2H194A6.26,6.26,0,0,0,200.07,44.2Z"/><path class="cls-16" d="M202,27.63V-4h-4V27.68c-.11,0-.22-.68-.33-.68h4.94C202.41,27,202.23,27.7,202,27.63Z"/><rect class="cls-16" x="155" y="35" width="90" height="2" rx="0.93" ry="0.93"/><path class="cls-16" d="M206.19,33H208V27h-5.39C205.08,28,205.79,30,206.19,33Z"/><path class="cls-16" d="M197.67,27H192v6h2A7.65,7.65,0,0,1,197.67,27Z"/><path class="cls-16" d="M194,33h12.23c-.4-3-1.11-5-3.58-6h-4.94A7.65,7.65,0,0,0,194,33Z"/><path class="cls-16" d="M194,33h12.23c-.4-3-1.11-5-3.58-6h-4.94A7.65,7.65,0,0,0,194,33Z"/><line class="cls-17" x1="56.29" y1="213.73" x2="55.43" y2="216.59"/><rect class="cls-18" x="187.38" y="66.17" width="2.96" height="21.42" rx="1.48" ry="1.48"/><rect class="cls-18" x="142.52" y="114.13" width="2.96" height="76.35" rx="1.48" ry="1.48"/><polygon class="cls-3" points="349.94 128.17 292.58 128.53 292.52 118.29 349.94 117.93 349.94 128.17"/><polygon class="cls-3" points="349.94 141.92 292.69 142.27 292.62 132.03 349.94 131.68 349.94 141.92"/><polygon class="cls-3" points="349.94 155.66 292.78 156.02 292.71 145.78 349.94 145.42 349.94 155.66"/><polygon class="cls-19" points="349.94 128.17 292.58 128.53 292.52 118.29 349.94 117.93 349.94 128.17"/><polygon class="cls-20" points="349.94 141.92 292.69 142.27 292.62 132.03 349.94 131.68 349.94 141.92"/><polygon class="cls-21" points="349.94 154.76 292.78 156.02 292.71 145.78 349.94 145.42 349.94 154.76"/><circle class="cls-7" cx="304.88" cy="165.23" r="13.26"/><circle class="cls-5" cx="336.71" cy="163.23" r="13.26"/><ellipse class="cls-5" cx="289.11" cy="161.85" rx="17.18" ry="18.08"/><ellipse class="cls-5" cx="314.01" cy="166.09" rx="17.18" ry="18.08"/><circle class="cls-5" cx="268.92" cy="161.61" r="13.26"/><rect class="cls-5" x="250.48" y="160.91" width="99.8" height="67.79"/><rect class="cls-6" x="250.48" y="164.86" width="99.8" height="9.06"/><rect class="cls-6" x="250.48" y="178.51" width="99.8" height="9.06"/><rect class="cls-6" x="250.48" y="192.17" width="99.8" height="9.06"/><rect class="cls-6" x="250.48" y="205.82" width="99.8" height="9.06"/><rect class="cls-6" x="250.44" y="220.52" width="99.8" height="9.06"/><rect class="cls-22" x="250.48" y="164.86" width="99.8" height="9.06"/><rect class="cls-23" x="250.48" y="178.51" width="99.8" height="9.06"/><rect class="cls-24" x="250.48" y="192.17" width="99.8" height="9.06"/><rect class="cls-25" x="250.48" y="205.82" width="99.8" height="9.06"/><rect class="cls-26" x="250.44" y="220.52" width="99.8" height="9.06"/><path class="cls-6" d="M200.07,44.2a6.26,6.26,0,0,0,6.12-5.2H194A6.26,6.26,0,0,0,200.07,44.2Z"/><path class="cls-8" d="M202,27.22V-4h-4V27.27c-.11,0-.22-.27-.33-.27h4.94C202.41,27,202.23,27.28,202,27.22Z"/><rect class="cls-3" x="155" y="35" width="90" height="2" rx="0.93" ry="0.93"/><path class="cls-3" d="M206.19,33H208V27h-5.39C205.08,28,205.79,30,206.19,33Z"/><path class="cls-3" d="M197.67,27H192v6h2A7.65,7.65,0,0,1,197.67,27Z"/><path class="cls-8" d="M194,33h12.23c-.4-3-1.11-5-3.58-6h-4.94A7.65,7.65,0,0,0,194,33Z"/><path class="cls-3" d="M194,33h12.23c-.4-3-1.11-5-3.58-6h-4.94A7.65,7.65,0,0,0,194,33Z"/><path class="cls-27" d="M136.29,170.48c-8.73,16.27-5.63,36.16,8.6,48.44,15.8,13.63,35.62,7.79,49.67-7.79Z"/><path class="cls-28" d="M138.34,171.91c-8.3,15.32-5.23,33.66,8,45.07,14.72,12.67,32.94,7.49,46.23-7.23Z"/><path class="cls-27" d="M144.9,189.35s-.88.28,0,1.56c0,0,.64,1.14,1.26.65,0,0,6.37-4.92,6.14-5.41S144.9,189.35,144.9,189.35Z"/><path class="cls-27" d="M170.61,207.64s-.28.84,1.24.84c0,0,1.24.15,1.21-.61,0,0-.23-7.71-.74-7.8S170.61,207.64,170.61,207.64Z"/><path class="cls-27" d="M149.21,199.24s-1,.86.52,1.89c0,0,1.15,1,1.81.05,0,0,6.69-9.78,6.24-10.25S149.21,199.24,149.21,199.24Z"/><path class="cls-27" d="M158.46,205.8s-.84,1,.91,1.73c0,0,1.34.76,1.77-.31,0,0,4.47-10.86,3.94-11.23S158.46,205.8,158.46,205.8Z"/><path class="cls-27" d="M178.07,207.17s-.13.53,1.05.39c0,0,1,0,.88-.48,0,0-1-4.6-1.4-4.61S178.07,207.17,178.07,207.17Z"/><path class="cls-6" d="M80.06,184s-.87,19.59-.06,22.19Z"/><circle class="cls-27" cx="66.5" cy="207.43" r="19.27"/><path class="cls-28" d="M80,206.18c-.29-5.23-.34-10.49-.22-15.72.13-5.57.41-11.35,2.1-16.69,1.22-3.85,4.46-8.47,9-8.2,5,.3,8.33,6.15,10.54,10,4.79,8.28,7.45,17.84,9.63,27.08a37.35,37.35,0,0,1,1,9.61l-.38,13.72-28-.77Z"/><path class="cls-27" d="M100.76,185.6a7.22,7.22,0,0,0-.37-1.08c-.32-.48-.58-.51-1.13-.52a53.86,53.86,0,0,0-8.25.42,29.56,29.56,0,0,0-3.9.78c-.83.25-1.49.78-1.31,1.72.67,0,2.28.23,2.94.17l10.06-1a5.45,5.45,0,0,0,1-.16C100,185.89,100.76,185.62,100.76,185.6Z"/><path class="cls-6" d="M100.76,185.6a1.41,1.41,0,0,0-.21-.64,6.32,6.32,0,0,0-1.26.24l-1.23.21c-4.08.68-8.15.87-12.26,1.28-.08,0,0,.29,0,.22.71,1.64,3.09,1.23,4.51,1.14,2-.13,4.07-.2,6.08-.44C97.48,187.48,101,187.38,100.76,185.6Z"/><path class="cls-27" d="M103.54,195.53a6.49,6.49,0,0,0-.44-1.08c-.37-.48-.69-.51-1.34-.52a75.56,75.56,0,0,0-9.78.42,40.83,40.83,0,0,0-4.62.78c-1,.25-1.77.78-1.55,1.72.79,0,2.71.23,3.49.17q6-.48,11.93-1a7.56,7.56,0,0,0,1.14-.16C102.58,195.82,103.54,195.55,103.54,195.53Z"/><path class="cls-6" d="M103.54,195.53a1.27,1.27,0,0,0-.25-.64,8.74,8.74,0,0,0-1.49.24l-1.46.21c-2.05.29-4.12.51-6.18.74-2.35.26-6,.35-8.35.54-.09,0,0,.29,0,.22.52,1,.88,1.1,3.3,1.22.75,0,8-.44,9-.52s1.9-.16,2.83-.3C102.14,197.06,103.69,196.56,103.54,195.53Z"/><path class="cls-27" d="M103.54,204.83a7.58,7.58,0,0,0-.35-1.08c-.29-.48-.54-.51-1.06-.52a46.92,46.92,0,0,0-7.7.42,26,26,0,0,0-3.64.78,1.48,1.48,0,0,0-1.22,1.72c.62,0,2.13.23,2.75.17l9.39-1a4.78,4.78,0,0,0,.9-.16C102.79,205.12,103.54,204.85,103.54,204.83Z"/><path class="cls-6" d="M103.54,204.83a1.49,1.49,0,0,0-.2-.64,5.54,5.54,0,0,0-1.17.24l-1.15.21c-1.62.29-3.24.51-4.86.74-1.85.26-4.72.35-6.57.54-.07,0,0,.29,0,.22.41,1,.69,1.1,2.6,1.22.59,0,6.29-.44,7.08-.52s1.5-.16,2.23-.3C102.44,206.36,103.66,205.86,103.54,204.83Z"/><path class="cls-6" d="M93.27,166.15s13.24,7.18,17.9,43.07l1.11-.83S106.38,170.86,93.27,166.15Z"/><path class="cls-6" d="M61.55,191.32a3.74,3.74,0,0,0-1,3.55s.93-2.68,2.86-2.82a12.52,12.52,0,0,1,4.19.63s-1.23-2.09-2.13-2.19,1.45-.83,2.13-.83-2-1-3.82-.13a12.2,12.2,0,0,1-2.6.52,2.77,2.77,0,0,0-2,1.68S61.06,190.91,61.55,191.32Z"/><polygon class="cls-28" points="137.2 204.97 137.2 283.88 125.45 275.64 125.45 204.45 130.55 211.01 137.2 204.97"/><path class="cls-28" d="M116.27,178.68s3.07-5.93-5.21-13.54C111.07,165.14,106.2,178.32,116.27,178.68Z"/><path class="cls-28" d="M118.28,180.62C129,183.14,130,165.08,130,165.08c-14.23,8.07-12.39,14.31-11.95,15.35A.33.33,0,0,0,118.28,180.62Z"/><path class="cls-27" d="M119,190.52l6.55.05c.37-1.77.58-2.8.58-2.8.35-3.87-4.51-5.15-6.85-5.55h0l-.48-.07c-.45-.06-.73-.08-.73-.08h0c-2.41-.2-7.62-.19-8.25,3.67,0,0-.18,3.7-.37,9.15a.08.08,0,0,1,.08-.06l6.21.56a.08.08,0,0,1,0,.17l-6.31,1h0c-.49,15.17-.91,41.22,2,43.16v0h.09v0c2.83-1.06,7.83-21,11.2-35.82a.09.09,0,0,1-.12.07l-6-1.64a.09.09,0,0,1,0-.19l6.31.05a.09.09,0,0,1,.09.1c.87-3.88,1.62-7.34,2.16-9.9l-6.19-1.7A.08.08,0,0,1,119,190.52ZM119,219.35l-6.68-1.89,7.13.11C119.4,217.62,119,219.35,119,219.35ZM115.59,210a.07.07,0,0,1,0,.14l-6.45,1.13c0-.05,0-1.7,0-1.7Z"/><path class="cls-6" d="M119,190.52a.08.08,0,0,0,0,.15l6.19,1.7h0s.37-1.73.38-1.8h0Z"/><path class="cls-6" d="M115.79,195.56a.08.08,0,0,0,0-.17l-6.21-.56a.08.08,0,0,0-.08.06h0c0,.29-.1,1.24-.1,1.54a.07.07,0,0,0,0,.07h0Z"/><path class="cls-6" d="M123,202.17l-6.31-.05a.09.09,0,0,0,0,.19l6,1.64a.09.09,0,0,0,.12-.07h0c.07-.31.29-1.26.36-1.59h0A.09.09,0,0,0,123,202.17Z"/><path class="cls-28" d="M41.82,195.7A13.8,13.8,0,0,0,40,208.77l-.08,0a12,12,0,0,0,.71,1.38A13.71,13.71,0,0,0,43.48,214a27.37,27.37,0,0,0,14.26,7.89l.09.23a2.45,2.45,0,0,0,2.2,1.59v0l.08,0a2.31,2.31,0,0,0,1.6-.59l.05,0v0a2.45,2.45,0,0,0,.65-2.64l-.18-.49a27.67,27.67,0,0,0,4.44-14.57,13.81,13.81,0,0,0-24.85-9.68Z"/><path class="cls-28" d="M46.23,193.5s-4.75,2.7-8.59,1.84C37.64,195.35,37,194.87,46.23,193.5Z"/><path class="cls-27" d="M43.4,179.86s-1.19,9.38,2.83,13.64C46.23,193.5,45.61,192.08,43.4,179.86Z"/><path class="cls-27" d="M46.23,193.5s-2.71-2.3-9.6.46"/><path class="cls-28" d="M46.78,192.79c-.36-.45-2.13-3.26,3.43-9.32,0,0-2.91,5.19-3.29,9.38C46.92,192.88,46.81,192.83,46.78,192.79Z"/><polygon class="cls-6" points="113.68 206.92 113.62 283.88 125.45 275.64 125.45 204.45 120.32 211.01 113.68 206.92"/><polygon class="cls-7" points="39.14 210.78 39.14 272.8 113.62 283.88 113.62 216.32 39.14 210.78"/><polygon class="cls-7" points="39.14 210.78 46.96 202.64 55.31 211.98 39.14 210.78"/><polygon class="cls-7" points="55.31 212.22 63.13 204.08 71.49 213.42 55.31 212.22"/><polygon class="cls-7" points="71.2 213.23 79.02 205.09 87.38 214.43 71.2 213.23"/><polygon class="cls-7" points="87.38 214.48 95.19 206.34 103.55 215.68 87.38 214.48"/><polyline class="cls-7" points="103.55 215.68 113.68 206.92 113.62 216.32"/><path class="cls-6" d="M60.28,236.26s1.54-2.78-2-6.63C58.27,229.63,55.74,235.85,60.28,236.26Z"/><path class="cls-6" d="M61.65,236.74c4.77,1.46,5.68-7.19,5.68-7.19-6.62,3.54-5.95,6.58-5.78,7.09Z"/><path class="cls-29" d="M65,251.08c0-.08-.12-.44.23-.5l1.4-.42c.47-.15.62-.13.76.11-.36-1.22,0-3,.75-5.37l3.48-12.63a1.11,1.11,0,0,0-.84-1.37c-.85-.2-1,.2-1.34.75S65,245.37,65,245.37s-1.89,8.37-7.61,6.84a6.3,6.3,0,0,1-1.6-.83,5.25,5.25,0,0,1-1-1.33,6.3,6.3,0,0,1-.18-4.64,11.12,11.12,0,0,1,1.5-3.21,5.65,5.65,0,0,1,.68-.78,4.58,4.58,0,0,1,3-1.26,13.85,13.85,0,0,1,1.67.19,1.11,1.11,0,0,0,1.37-.65,1.21,1.21,0,0,0,.05-1.2c-.37-.61-2.21-.88-2.6-.91-3.52-.3-6.62,2-8,5.86-.2.57-3.91,10.5,5.79,12.21,0,0,4.58.56,6.89-4.52A.49.49,0,0,1,65,251.08Z"/><path class="cls-30" d="M68.11,251.37a2.09,2.09,0,0,1-.34-.38A1.63,1.63,0,0,0,68.11,251.37Z"/><path class="cls-31" d="M93.53,254.24c-.3.16-.6.36-.89.51a2.89,2.89,0,0,1-2.8-.09,4.8,4.8,0,0,1-1.92-3.84c-.1-1.51.17-3,.19-4.54s-.33-3.59-1.66-4.58a3.65,3.65,0,0,0-4.37.07c-.15.12-.31.29-.49.09a4.33,4.33,0,0,0-5.44-2.44c-.12,0,0-.2-.17-.45a.79.79,0,0,0-.25-.29,1.78,1.78,0,0,0-1.14-.29.41.41,0,0,0-.38.28c-.77,2.22-1.48,5.43-1.92,6.91A35.18,35.18,0,0,1,70.85,250a2.74,2.74,0,0,1-1.48,1.65,1.46,1.46,0,0,1-1.68-.81c-.13-.28-.21-.64-.49-.72a.73.73,0,0,0-.42,0l-1.42.42a.51.51,0,0,0-.29.16.56.56,0,0,0,0,.43c.56,2.74,3.51,5.38,6.15,3.43a4.27,4.27,0,0,0,1-1.15c1.71-2.68,2.25-5.93,3.46-8.87.49-1.19,1.56-2.9,3-2.18.77.37.86,1.31.85,2.12a15.64,15.64,0,0,1-.34,3c-.19.92-.55,3,1,3a.84.84,0,0,0,.48-.16,2.74,2.74,0,0,0,.9-1.75c.21-.9.42-1.8.68-2.68a4.74,4.74,0,0,1,.69-1.57,1.63,1.63,0,0,1,1.42-.72,1.68,1.68,0,0,1,1.27,1.2,4.87,4.87,0,0,1,.14,1.89,20.74,20.74,0,0,0-.05,5.89A6.58,6.58,0,0,0,89,257.07a5.27,5.27,0,0,0,5.3-.33,2.25,2.25,0,0,0,1.09-1.56,1.14,1.14,0,0,0-.47-1.09A1.35,1.35,0,0,0,93.53,254.24Z"/><path class="cls-27" d="M62.23,193.7a13.81,13.81,0,0,0-23,12Z"/><rect class="cls-6" x="168.4" y="199.5" width="14.55" height="1.05"/><path class="cls-27" d="M182.46,200.43h-.85a.34.34,0,0,0-.33.34v1.58a.33.33,0,0,0,.33.33h.85a.34.34,0,0,0,.33-.34v-1.58A.33.33,0,0,0,182.46,200.43Zm.1.56v1.12a.34.34,0,0,1-.33.34h-.41a.33.33,0,0,1-.33-.33V201a.34.34,0,0,1,.33-.34h.41A.33.33,0,0,1,182.56,201Z"/><polygon class="cls-32" points="137.13 204.97 137.13 283.88 125.39 275.64 125.39 204.45 130.48 211.01 137.13 204.97"/><polygon class="cls-33" points="113.68 206.92 113.62 283.88 125.45 275.64 125.45 204.45 120.32 211.01 113.68 206.92"/><rect class="cls-13" x="181.37" y="129.53" width="74.29" height="2.63"/><rect class="cls-13" x="181.37" y="150.66" width="74.29" height="2.63"/><rect class="cls-13" x="181.37" y="171.78" width="69.07" height="2.63"/><rect class="cls-13" x="181.37" y="192.9" width="69.07" height="2.63"/><rect class="cls-34" x="173.74" y="153.57" width="4.15" height="10.18" rx="0.91" ry="0.91"/><path class="cls-27" d="M175.37,260.88h0c-7.32-.08-13.25-6.46-13.18-14.18l.53-62c.07-7.72,6.11-14,13.42-13.91h0c7.32.08,13.25,6.46,13.18,14.18l-.53,62C188.73,254.69,182.69,261,175.37,260.88Z"/><rect class="cls-27" x="172.89" y="157.75" width="5.76" height="17.41" rx="0.91" ry="0.91"/><rect class="cls-28" x="164.01" y="187.69" width="24" height="24"/><rect class="cls-6" x="168.4" y="194.37" width="14.55" height="1.05"/><rect class="cls-6" x="168.4" y="196.93" width="14.55" height="1.05"/><rect class="cls-6" x="168.4" y="202.27" width="14.55" height="13.17"/><circle class="cls-34" cx="182.95" cy="201.04" r="3.25"/><path class="cls-27" d="M184.32,200.42h-.85a.34.34,0,0,0-.33.34v1.58a.33.33,0,0,0,.33.33h.85a.34.34,0,0,0,.33-.34v-1.58A.33.33,0,0,0,184.32,200.42Zm.1.56v1.12a.34.34,0,0,1-.33.34h-.41a.33.33,0,0,1-.33-.33V201a.34.34,0,0,1,.33-.34h.41A.33.33,0,0,1,184.42,201Z"/><path class="cls-27" d="M182.46,200.43h-.85a.34.34,0,0,0-.33.34v1.58a.33.33,0,0,0,.33.33h.85a.34.34,0,0,0,.33-.34v-1.58A.33.33,0,0,0,182.46,200.43Zm.1.56v1.12a.34.34,0,0,1-.33.34h-.41a.33.33,0,0,1-.33-.33V201a.34.34,0,0,1,.33-.34h.41A.33.33,0,0,1,182.56,201Z"/><path class="cls-27" d="M183.22,199.59v.5a.2.2,0,0,0,.2.19h.92a.19.19,0,0,0,.19-.19v-.5a.2.2,0,0,0-.2-.19h-.92A.19.19,0,0,0,183.22,199.59Zm.33-.06h.65a.2.2,0,0,1,.2.19V200a.19.19,0,0,1-.19.19h-.65a.2.2,0,0,1-.2-.19v-.24A.19.19,0,0,1,183.55,199.53Z"/><path class="cls-27" d="M181.37,199.59v.5a.2.2,0,0,0,.2.19h.92a.19.19,0,0,0,.19-.19v-.5a.2.2,0,0,0-.2-.19h-.92A.19.19,0,0,0,181.37,199.59Zm.33-.06h.65a.2.2,0,0,1,.2.19V200a.19.19,0,0,1-.19.19h-.65a.2.2,0,0,1-.2-.19v-.24A.19.19,0,0,1,181.7,199.53Z"/><path class="cls-27" d="M149.27,220.66c.23-1.89,5.39-33.16,5.39-33.16s16.32,3.87,18.07,13.62Z"/><polygon class="cls-27" points="149.27 220.66 145.25 216.57 148.85 191.68 154.66 187.5 149.27 220.66"/><path class="cls-34" d="M170.63,202.28a3.82,3.82,0,1,0-3.92,3.86l3.87-3.22A3.8,3.8,0,0,0,170.63,202.28Z"/><polygon class="cls-6" points="149.06 191.8 154.18 188.11 149.02 219.9 145.52 216.39 149.06 191.8"/><path class="cls-27" d="M166.8,203.06l-.46-.55a.28.28,0,0,0-.4,0l-1,.85a.28.28,0,0,0,0,.4l.46.55a.28.28,0,0,0,.4,0l1-.85A.28.28,0,0,0,166.8,203.06Zm-.31.37-.73.6a.28.28,0,0,1-.4,0l-.22-.27a.28.28,0,0,1,0-.4l.73-.6a.28.28,0,0,1,.4,0l.22.27A.28.28,0,0,1,166.49,203.43Z"/><path class="cls-27" d="M167.8,204.27l-.46-.55a.28.28,0,0,0-.4,0l-1,.85a.28.28,0,0,0,0,.4l.46.55a.28.28,0,0,0,.4,0l1-.85A.28.28,0,0,0,167.8,204.27Zm-.31.37-.73.6a.28.28,0,0,1-.4,0l-.22-.27a.28.28,0,0,1,0-.4l.73-.6a.28.28,0,0,1,.4,0l.22.27A.28.28,0,0,1,167.49,204.64Z"/><path class="cls-28" d="M168.87,204.34l.33-.28-2.44-2.94a.22.22,0,1,0-.33.28Z"/><path class="cls-27" d="M169.61,203.72l.36-.3-2.73-3.3a.22.22,0,0,0-.3,0l0,0a.22.22,0,0,0,0,.3Z"/><polygon class="cls-7" points="137.13 215.06 137.13 283.88 201.27 274.7 198.5 208.75 137.13 215.06"/><polygon class="cls-7" points="198.59 208.9 192.13 200.27 185.37 210.3 198.59 208.9"/><polygon class="cls-7" points="185.37 210.18 178.85 201.55 172.02 211.58 185.37 210.18"/><polygon class="cls-7" points="172.27 211.64 165.74 202.75 158.92 213.08 172.27 211.64"/><polygon class="cls-7" points="158.91 212.83 152.39 204.21 145.56 214.24 158.91 212.83"/><polyline class="cls-7" points="145.56 214.24 137.13 204.97 137.13 215.06"/><path class="cls-6" d="M155.36,242.75s1-2.61-2.8-5.39C152.56,237.36,151.14,243.07,155.36,242.75Z"/><path class="cls-6" d="M156.69,243c4.59.55,4.17-7,4.17-7-5.56,4-4.51,6.52-4.27,6.94Z"/><path class="cls-35" d="M161.87,254.77a.3.3,0,0,1,.14-.46l1.23-.57c.41-.2.55-.2.71,0-.5-1-.45-2.6-.09-4.72l1.37-11.35a1,1,0,0,0-1-1c-.81,0-.93.33-1.12.85s-2.1,12.42-2.1,12.42-.52,7.46-6,7a6.05,6.05,0,0,1-1.58-.48,4.64,4.64,0,0,1-1.08-1,5.17,5.17,0,0,1-.83-4,9.33,9.33,0,0,1,.92-3,5,5,0,0,1,.52-.77,4.36,4.36,0,0,1,2.53-1.52,13.74,13.74,0,0,1,1.56-.08,1,1,0,0,0,1.17-.76,1,1,0,0,0-.12-1c-.43-.47-2.15-.42-2.52-.4a7.21,7.21,0,0,0-6.45,6.2c-.1.51-2.07,9.59,7.08,9.61a6.53,6.53,0,0,0,5.67-4.9Z"/><path class="cls-36" d="M164.73,254.56a1.88,1.88,0,0,1-.37-.28A1.47,1.47,0,0,0,164.73,254.56Z"/><path class="cls-37" d="M188.47,253.26c-.25.19-.5.4-.74.57a2.85,2.85,0,0,1-2.58.34,4.13,4.13,0,0,1-2.31-3c-.31-1.28-.28-2.62-.49-3.92s-.82-3-2.18-3.68a3.58,3.58,0,0,0-4,.7c-.12.12-.24.29-.43.15a4.11,4.11,0,0,0-5.34-1.29c-.1.05-.07-.17-.22-.36a.7.7,0,0,0-.27-.21,1.75,1.75,0,0,0-1.08-.08.38.38,0,0,0-.31.3c-.39,2-.57,4.88-.77,6.21a29.07,29.07,0,0,1-.7,4,2.43,2.43,0,0,1-1.12,1.63,1.39,1.39,0,0,1-1.66-.45c-.16-.22-.29-.52-.56-.55a.72.72,0,0,0-.38.1l-1.24.57a.48.48,0,0,0-.24.18.46.46,0,0,0,0,.38c.91,2.27,4,4.09,6.14,2a3.78,3.78,0,0,0,.8-1.14c1.18-2.55,1.21-5.42,1.89-8.12.28-1.1,1-2.72,2.47-2.32.76.21,1,1,1.08,1.69a12.75,12.75,0,0,1,.13,2.64c0,.81-.07,2.65,1.33,2.41a.81.81,0,0,0,.42-.21,2.31,2.31,0,0,0,.57-1.63c.06-.8.13-1.6.23-2.4a4,4,0,0,1,.4-1.45,1.38,1.38,0,0,1,2.53,0,4,4,0,0,1,.4,1.6,16.9,16.9,0,0,0,.8,5.06,5.83,5.83,0,0,0,3.69,3.33,5.17,5.17,0,0,0,4.81-1.07,1.94,1.94,0,0,0,.77-1.5,1,1,0,0,0-.59-.86A1.32,1.32,0,0,0,188.47,253.26Z"/><g class="cls-38"><path class="cls-13" d="M232.14,121.53a.61.61,0,0,1,0,.07h1.22c.19,0,.34-.22.33-.48v-1.21c0-.26-.15-.47-.34-.47h-1.22s0,0,0,0Z"/><path class="cls-13" d="M222.11,127.65c2.52,0,4.63-2.42,5.1-5.59l4.58-.05c.17,0,.3-.18.32-.4a.61.61,0,0,0,0-.07v-2s0,0,0,0c0-.24-.16-.44-.33-.44l-4.63.05c-.57-3-2.6-5.22-5-5.22h-29c-.63,0-1.15.73-1.15,1.62V126c0,.89.52,1.62,1.15,1.62h29Z"/></g><circle class="cls-39" cx="242.92" cy="142.34" r="6.17"/><path class="cls-40" d="M226,147a5.15,5.15,0,0,0,7.28-7.28Z"/><rect class="cls-41" x="189.32" y="163.46" width="24.34" height="6.72"/><rect class="cls-42" x="189.32" y="155.72" width="9.27" height="6.29"/><polygon class="cls-5" points="292.51 115.06 292.52 118.29 298.1 118.27 294.61 115.05 292.51 115.06"/><polygon class="cls-5" points="292.58 128.53 292.62 132.03 313.75 131.91 309.76 128.43 292.58 128.53"/><path class="cls-5" d="M292.69,142.27v1.89s3.63,1.24,4.26,1.59l32.45-.2-4-3.48Z"/><polygon class="cls-6" points="350.28 228.88 330.77 262.95 349.95 262.92 350.28 257.46 350.28 228.88"/><path class="cls-7" d="M349.94,100.07a3,3,0,0,0-.94-.16c-1.89,0-3,1.54-3,3.43v27.94c0,1.89,1.11,3.43,3,3.43a3,3,0,0,0,.94-.16Z"/><polygon class="cls-15" points="349.94 145.42 329.4 145.56 341.56 156.37 349.94 156.37 349.94 145.42"/><polygon class="cls-15" points="349.94 131.68 313.75 131.91 325.42 142.08 349.94 141.92 349.94 131.68"/><polygon class="cls-15" points="349.94 117.93 298.1 118.27 309.76 128.43 349.94 128.17 349.94 117.93"/><path class="cls-7" d="M349.94,163.68v-.45a13.19,13.19,0,0,0-15.49-13.06Z"/><rect class="cls-13" x="77.24" y="56.37" width="74.29" height="2.63"/><rect class="cls-13" x="77.24" y="77.49" width="74.29" height="2.63"/><path class="cls-3" d="M84.68,46a36.75,36.75,0,0,0,48.09,0,36.76,36.76,0,0,0-48.09,0Z"/><polygon class="cls-3" points="141.34 39 141.34 54.91 132.77 45.95 141.34 39"/><path class="cls-43" d="M84.68,46a36.75,36.75,0,0,0,48.09,0,36.76,36.76,0,0,0-48.09,0Z"/><polygon class="cls-44" points="141.34 39 141.34 54.91 132.77 45.95 141.34 39"/><circle class="cls-6" cx="96.8" cy="44.62" r="1.33"/><path class="cls-45" d="M108.72,95.58l42.33-.15a8.05,8.05,0,0,0,8.09-8l-.09-24.73Z"/><polygon class="cls-6" points="91.86 66.88 93.59 75.38 97.93 75.38 97.93 66.88 91.86 66.88"/><polygon class="cls-8" points="97.93 66.88 97.25 66.88 91.86 66.88 93.59 75.38 97.25 75.38 97.93 75.38 101.59 75.38 103.32 66.88 97.93 66.88"/><g class="cls-46"><path class="cls-47" d="M232.14,121.53a.61.61,0,0,1,0,.07h1.22c.19,0,.34-.22.33-.48v-1.21c0-.26-.15-.47-.34-.47h-1.22s0,0,0,0Z"/><path class="cls-48" d="M222.11,127.65c2.52,0,4.63-2.42,5.1-5.59l4.58-.05c.17,0,.3-.18.32-.4a.61.61,0,0,0,0-.07v-2s0,0,0,0c0-.24-.16-.44-.33-.44l-4.63.05c-.57-3-2.6-5.22-5-5.22h-29c-.63,0-1.15.73-1.15,1.62V126c0,.89.52,1.62,1.15,1.62h29Z"/></g><circle class="cls-49" cx="95.46" cy="66.88" r="2.58"/><circle class="cls-50" cx="100.11" cy="67.65" r="2.58"/><polygon class="cls-51" points="97.93 66.88 97.25 66.88 91.86 66.88 93.59 75.38 97.25 75.38 97.93 75.38 101.59 75.38 103.32 66.88 97.93 66.88"/><polygon class="cls-52" points="97.93 66.88 97.25 66.88 91.86 66.88 93.59 75.38 97.25 75.38 97.93 75.38 101.59 75.38 103.32 66.88 97.93 66.88"/></svg>