<svg id="dm-light-svg" viewBox="0 0 350 297.1" xmlns="http://www.w3.org/2000/svg" xmlns:xlink="http://www.w3.org/1999/xlink">
  <defs>
    <style>.cls-1{fill:none;}.cls-19,.cls-2,.cls-5{fill:#fff;}.cls-3,.cls-9{fill:#c1ad73;}.cls-4{fill:#d8cbad;}.cls-140,.cls-5{opacity:0.9;}.cls-10,.cls-11,.cls-12,.cls-13,.cls-131,.cls-132,.cls-133,.cls-134,.cls-135,.cls-141,.cls-6,.cls-7,.cls-8{opacity:0.1;}.cls-10,.cls-11,.cls-12,.cls-13,.cls-131,.cls-132,.cls-133,.cls-134,.cls-135,.cls-141,.cls-16,.cls-19,.cls-20,.cls-6,.cls-7,.cls-8{isolation:isolate;}.cls-6{fill:url(#linear-gradient);}.cls-7{fill:url(#linear-gradient-2);}.cls-8{fill:url(#linear-gradient-3);}.cls-9{opacity:0.5;}.cls-10{fill:url(#linear-gradient-4);}.cls-11{fill:url(#linear-gradient-5);}.cls-12{fill:url(#linear-gradient-6);}.cls-13{fill:url(#linear-gradient-7);}.cls-14{fill:#262642;}.cls-15{fill:#ca3b53;}.cls-16{opacity:0.1;fill:url(#linear-gradient-8);}.cls-17{fill:#ebbbc3;}.cls-18{fill:#ffb43b;}.cls-20{opacity:0.05;fill:url(#linear-gradient-9);}.cls-21{fill:#00b533;}.cls-22{clip-path:url(#clip-path);}.cls-23{fill:#f8af42;}.cls-24{fill:#f8b042;}.cls-25{fill:#f8b142;}.cls-26{fill:#f8b242;}.cls-27{fill:#f9b341;}.cls-28{fill:#f9b441;}.cls-29{fill:#f9b541;}.cls-30{fill:#f9b641;}.cls-31{fill:#f9b741;}.cls-32{fill:#f9b841;}.cls-33{fill:#f9b941;}.cls-34{fill:#faba40;}.cls-35{fill:#fabb40;}.cls-36{fill:#fabc40;}.cls-37{fill:#fabd40;}.cls-38{fill:#fabe40;}.cls-39{fill:#fabf40;}.cls-40{fill:#fac040;}.cls-41{fill:#fbc13f;}.cls-42{fill:#fbc23f;}.cls-43{fill:#fbc33f;}.cls-44{fill:#fbc53f;}.cls-45{fill:#fbc63f;}.cls-46{fill:#fbc73f;}.cls-47{fill:#fcc83e;}.cls-48{fill:#fcc93e;}.cls-49{fill:#fcca3e;}.cls-50{fill:#fccb3e;}.cls-51{fill:#fccc3e;}.cls-52{fill:#fccd3e;}.cls-53{fill:#fcce3e;}.cls-54{fill:#fdcf3d;}.cls-55{fill:#fdd03d;}.cls-56{fill:#fdd13d;}.cls-57{fill:#fdd23d;}.cls-58{fill:#fdd33d;}.cls-59{fill:#fdd43d;}.cls-60{fill:#fdd53d;}.cls-61{fill:#fed63c;}.cls-62{fill:#fed73c;}.cls-63{fill:#fed83c;}.cls-64{clip-path:url(#clip-path-2);}.cls-65{fill:#f8ab17;}.cls-66{fill:#f8ac17;}.cls-67{fill:#f8ad17;}.cls-68{fill:#f8ae17;}.cls-69{fill:#f8af18;}.cls-70{fill:#f8b018;}.cls-71{fill:#f8b118;}.cls-72{fill:#f8b218;}.cls-73{fill:#f8b318;}.cls-74{fill:#f8b418;}.cls-75{fill:#f8b519;}.cls-76{fill:#f8b619;}.cls-77{fill:#f8b719;}.cls-78{fill:#f8b819;}.cls-79{fill:#f8b919;}.cls-80{fill:#f8ba19;}.cls-81{fill:#f8bb1a;}.cls-82{fill:#f8bc1a;}.cls-83{fill:#f8bd1a;}.cls-84{fill:#f8be1a;}.cls-85{fill:#f8bf1a;}.cls-86{fill:#f8c01a;}.cls-87{fill:#f8c11a;}.cls-88{fill:#f8c21b;}.cls-89{fill:#f8c31b;}.cls-90{fill:#f8c41b;}.cls-91{fill:#f8c51b;}.cls-92{fill:#f8c61b;}.cls-93{fill:#f8c71b;}.cls-94{fill:#f8c81c;}.cls-95{fill:#f8c91c;}.cls-96{fill:#f8ca1c;}.cls-97{fill:#f9cc1c;}.cls-98{fill:#f9cd1c;}.cls-99{fill:#f9ce1c;}.cls-100{fill:#f9cf1d;}.cls-101{fill:#f9d01d;}.cls-102{fill:#f9d11d;}.cls-103{fill:#f9d21d;}.cls-104{fill:#f9d31d;}.cls-105{fill:#f9d41d;}.cls-106{fill:#f9d51e;}.cls-107{fill:#f9d61e;}.cls-108{fill:#f9d71e;}.cls-109{fill:#f9d81e;}.cls-110{fill:#f9d91e;}.cls-111{fill:#f9da1e;}.cls-112{fill:#f9db1e;}.cls-113{fill:#f9dc1f;}.cls-114{fill:#f9dd1f;}.cls-115{fill:#f9de1f;}.cls-116{fill:#f9df1f;}.cls-117{fill:#f9e01f;}.cls-118{fill:#f9e11f;}.cls-119{fill:#f9e220;}.cls-120{fill:#f9e320;}.cls-121{fill:#f9e420;}.cls-122{fill:#f9e520;}.cls-123{fill:#f9e620;}.cls-124{fill:#f9e720;}.cls-125{fill:#f9e821;}.cls-126{fill:#f9e921;}.cls-127{fill:#f9ea21;}.cls-128{fill:#f9eb21;}.cls-129{clip-path:url(#clip-path-3);}.cls-130{fill:#fed93c;}.cls-131{fill:url(#linear-gradient-10);}.cls-132{fill:url(#linear-gradient-11);}.cls-133{fill:url(#linear-gradient-12);}.cls-134{fill:url(#linear-gradient-13);}.cls-135{fill:url(#linear-gradient-14);}.cls-136{opacity:0.3;}.cls-137{clip-path:url(#clip-path-4);}.cls-138{clip-path:url(#clip-path-5);}.cls-139{clip-path:url(#clip-path-6);}.cls-140,.cls-142{fill:#ececec;}.cls-141{fill:url(#linear-gradient-15);}</style>
    <linearGradient gradientTransform="translate(641.33 238.74) rotate(-179.63)" gradientUnits="userSpaceOnUse" id="linear-gradient" x1="291.52" x2="350.58" y1="118.33" y2="118.33">
      <stop offset="0" stop-color="#c69c6d"/>
      <stop offset="0.11" stop-color="#c0976a"/>
      <stop offset="0.26" stop-color="#af8a61"/>
      <stop offset="0.42" stop-color="#947451"/>
      <stop offset="0.6" stop-color="#6d563c"/>
      <stop offset="0.8" stop-color="#3c2f21"/>
      <stop offset="1"/>
    </linearGradient>
    <linearGradient gradientTransform="translate(641.42 266.23) rotate(-179.63)" id="linear-gradient-2" x1="291.61" x2="350.67" xlink:href="#linear-gradient" y1="132.08" y2="132.08"/>
    <linearGradient gradientTransform="translate(641.51 293.73) rotate(-179.63)" id="linear-gradient-3" x1="291.7" x2="350.76" xlink:href="#linear-gradient" y1="145.82" y2="145.82"/>
    <linearGradient gradientTransform="translate(0.21 -0.77) rotate(0.2)" id="linear-gradient-4" x1="165.92" x2="266.7" xlink:href="#linear-gradient" y1="58.09" y2="58.09"/>
    <linearGradient gradientTransform="translate(0.21 -0.4) rotate(0.2)" id="linear-gradient-5" x1="161.98" x2="61.2" xlink:href="#linear-gradient" y1="57.85" y2="58.34"/>
    <linearGradient gradientTransform="matrix(1, 0, 0, 1, 0, 0)" id="linear-gradient-6" x1="163.56" x2="63.04" xlink:href="#linear-gradient" y1="157.25" y2="157.25"/>
    <linearGradient gradientTransform="matrix(1, 0, 0, 1, 0, 0)" id="linear-gradient-7" x1="166.05" x2="266.57" xlink:href="#linear-gradient" y1="157.41" y2="157.41"/>
    <linearGradient gradientUnits="userSpaceOnUse" id="linear-gradient-8" x1="134.45" x2="74.03" y1="149.37" y2="192.91">
      <stop offset="0" stop-color="#fff"/>
      <stop offset="0.09" stop-color="#f9f9f9"/>
      <stop offset="0.22" stop-color="#e8e8e8"/>
      <stop offset="0.36" stop-color="#cdcdcd"/>
      <stop offset="0.52" stop-color="#a6a6a6"/>
      <stop offset="0.68" stop-color="#757575"/>
      <stop offset="0.85" stop-color="#393939"/>
      <stop offset="1"/>
    </linearGradient>
    <linearGradient gradientUnits="userSpaceOnUse" id="linear-gradient-9" x1="180.28" x2="171.05" y1="33.82" y2="380.21">
      <stop offset="0" stop-color="#c69c6d"/>
      <stop offset="0.1" stop-color="#a3815a"/>
      <stop offset="0.26" stop-color="#725a3f"/>
      <stop offset="0.42" stop-color="#493a28"/>
      <stop offset="0.58" stop-color="#292017"/>
      <stop offset="0.73" stop-color="#120e0a"/>
      <stop offset="0.87" stop-color="#050403"/>
      <stop offset="1"/>
    </linearGradient>
    <clipPath id="clip-path">
      <path class="cls-1" d="M123.86,151.75a.13.13,0,0,1,.2-.08l.57.24c.19.08.24.12.22.23a3.54,3.54,0,0,1,1.55-1.36l4.22-2.75a.4.4,0,0,0,.05-.61c-.23-.28-.4-.21-.63-.13s-4.8,2.81-4.8,2.81-2.66,1.93-4.18,0a2.63,2.63,0,0,1-.32-.65,1.9,1.9,0,0,1,0-.63,2.14,2.14,0,0,1,1.07-1.38,4.21,4.21,0,0,1,1.28-.54,2.35,2.35,0,0,1,.42,0,2.1,2.1,0,0,1,1.28.4,6.35,6.35,0,0,1,.5.49.5.5,0,0,0,.61.17.42.42,0,0,0,.31-.33c0-.27-.52-.82-.64-.93a3.43,3.43,0,0,0-4.05-.36c-.2.11-3.84,2-1.05,5a3.12,3.12,0,0,0,3.38.47Z"/>
    </clipPath>
    <clipPath id="clip-path-2">
      <path class="cls-1" d="M124.8,152.63a.78.78,0,0,1,0-.2A.61.61,0,0,0,124.8,152.63Z"/>
    </clipPath>
    <clipPath id="clip-path-3">
      <path class="cls-1" d="M132.51,160l-.42-.08a1.33,1.33,0,0,1-.9-.75,1.68,1.68,0,0,1,.3-1.6c.33-.46.79-.83,1.16-1.26a1.93,1.93,0,0,0,.57-1.75,1.67,1.67,0,0,0-1.46-1.11c-.08,0-.17,0-.18-.1a1.79,1.79,0,0,0-1.21-2.1s0-.07.05-.17a.29.29,0,0,0,0-.15.79.79,0,0,0-.31-.38.18.18,0,0,0-.19,0c-.79.44-1.81,1.19-2.32,1.5a12.84,12.84,0,0,1-1.55.89,1.14,1.14,0,0,1-.89.09.61.61,0,0,1-.36-.67c0-.11.08-.24,0-.34a.34.34,0,0,0-.15-.1l-.57-.24a.23.23,0,0,0-.14,0,.2.2,0,0,0-.12.12,1.72,1.72,0,0,0,1.2,2.57,1.79,1.79,0,0,0,.63-.06,19.81,19.81,0,0,0,3.3-1.67c.45-.22,1.22-.43,1.53.15.16.31,0,.6-.24.83a5.42,5.42,0,0,1-.85.78c-.29.21-.91.72-.4,1.11a.39.39,0,0,0,.2.08,1.05,1.05,0,0,0,.72-.27c.29-.2.58-.41.88-.6a1.78,1.78,0,0,1,.61-.28.74.74,0,0,1,.64.16.64.64,0,0,1,.13.67,1.65,1.65,0,0,1-.41.58,7.06,7.06,0,0,0-1.45,1.68,2.4,2.4,0,0,0,0,2.14,2.43,2.43,0,0,0,1.83,1.27.9.9,0,0,0,.74-.17.4.4,0,0,0,.11-.43A.62.62,0,0,0,132.51,160Z"/>
    </clipPath>
    <linearGradient gradientTransform="matrix(1, 0, 0, 1, 0, 0)" id="linear-gradient-10" x1="249.48" x2="349.28" xlink:href="#linear-gradient" y1="164.49" y2="164.49"/>
    <linearGradient gradientTransform="matrix(1, 0, 0, 1, 0, 0)" id="linear-gradient-11" x1="249.48" x2="349.28" xlink:href="#linear-gradient" y1="178.14" y2="178.14"/>
    <linearGradient gradientTransform="matrix(1, 0, 0, 1, 0, 0)" id="linear-gradient-12" x1="249.48" x2="349.28" xlink:href="#linear-gradient" y1="191.79" y2="191.79"/>
    <linearGradient gradientTransform="matrix(1, 0, 0, 1, 0, 0)" id="linear-gradient-13" x1="249.48" x2="349.28" xlink:href="#linear-gradient" y1="205.44" y2="205.44"/>
    <linearGradient gradientTransform="matrix(1, 0, 0, 1, 0, 0)" id="linear-gradient-14" x1="249.44" x2="349.24" xlink:href="#linear-gradient" y1="219.14" y2="219.14"/>
    <clipPath id="clip-path-4">
      <path class="cls-2" d="M123.86,151.75a.13.13,0,0,1,.2-.08l.57.24c.19.08.24.12.22.23a3.54,3.54,0,0,1,1.55-1.36l4.22-2.75a.4.4,0,0,0,.05-.61c-.23-.28-.4-.21-.63-.13s-4.8,2.81-4.8,2.81-2.66,1.93-4.18,0a2.63,2.63,0,0,1-.32-.65,1.9,1.9,0,0,1,0-.63,2.14,2.14,0,0,1,1.07-1.38,4.21,4.21,0,0,1,1.28-.54,2.35,2.35,0,0,1,.42,0,2.1,2.1,0,0,1,1.28.4,6.35,6.35,0,0,1,.5.49.5.5,0,0,0,.61.17.42.42,0,0,0,.31-.33c0-.27-.52-.82-.64-.93a3.43,3.43,0,0,0-4.05-.36c-.2.11-3.84,2-1.05,5a3.12,3.12,0,0,0,3.38.47Z"/>
    </clipPath>
    <clipPath id="clip-path-5">
      <path class="cls-2" d="M124.8,152.63a.78.78,0,0,1,0-.2A.61.61,0,0,0,124.8,152.63Z"/>
    </clipPath>
    <clipPath id="clip-path-6">
      <path class="cls-2" d="M132.51,160l-.42-.08a1.33,1.33,0,0,1-.9-.75,1.68,1.68,0,0,1,.3-1.6c.33-.46.79-.83,1.16-1.26a1.93,1.93,0,0,0,.57-1.75,1.67,1.67,0,0,0-1.46-1.11c-.08,0-.17,0-.18-.1a1.79,1.79,0,0,0-1.21-2.1s0-.07.05-.17a.29.29,0,0,0,0-.15.79.79,0,0,0-.31-.38.18.18,0,0,0-.19,0c-.79.44-1.81,1.19-2.32,1.5a12.84,12.84,0,0,1-1.55.89,1.14,1.14,0,0,1-.89.09.61.61,0,0,1-.36-.67c0-.11.08-.24,0-.34a.34.34,0,0,0-.15-.1l-.57-.24a.23.23,0,0,0-.14,0,.2.2,0,0,0-.12.12,1.72,1.72,0,0,0,1.2,2.57,1.79,1.79,0,0,0,.63-.06,19.81,19.81,0,0,0,3.3-1.67c.45-.22,1.22-.43,1.53.15.16.31,0,.6-.24.83a5.42,5.42,0,0,1-.85.78c-.29.21-.91.72-.4,1.11a.39.39,0,0,0,.2.08,1.05,1.05,0,0,0,.72-.27c.29-.2.58-.41.88-.6a1.78,1.78,0,0,1,.61-.28.74.74,0,0,1,.64.16.64.64,0,0,1,.13.67,1.65,1.65,0,0,1-.41.58,7.06,7.06,0,0,0-1.45,1.68,2.4,2.4,0,0,0,0,2.14,2.43,2.43,0,0,0,1.83,1.27.9.9,0,0,0,.74-.17.4.4,0,0,0,.11-.43A.62.62,0,0,0,132.51,160Z"/>
    </clipPath>
    <linearGradient gradientTransform="translate(259.65 148.9) rotate(88.94)" id="linear-gradient-15" x1="47.96" x2="60.03" xlink:href="#linear-gradient" y1="206.69" y2="206.69"/>
  </defs>
  <title>DMsceneArtboard 1 copy 2</title>
  <path class="cls-3" d="M348,95c-1.89,0-3,1.54-3,3.43v27.94c0,1.89,1.11,3.43,3,3.43s3-1.54,3-3.43V98.44C351,96.55,349.89,95,348,95Z"/>
  <path class="cls-3" d="M341.5,94.82a3.5,3.5,0,0,0-3.5,3.43v3.57a3.59,3.59,0,0,0-2.44,1.47l.56-3a3.46,3.46,0,0,0-6.77-1.4l-4.65,22.28-3.58-19.32c-.34-1.86-2.15-2.75-4-2.75h0c-1.86,0-3.09,2.14-2.75,4l5.09,27.47a3.42,3.42,0,0,0,6.77-.29l.07,0a3.44,3.44,0,0,0,3.54-1.45l-.62,3a3.44,3.44,0,0,0,2.66,4.06,3.58,3.58,0,0,0,4.19-2.66l1.93-8.63v1.57a3.5,3.5,0,0,0,7,0V98.25A3.5,3.5,0,0,0,341.5,94.82Z"/>
  <path class="cls-3" d="M308.47,99a3.43,3.43,0,0,0-6.73-.09,3.58,3.58,0,0,0-3.21-2,3.53,3.53,0,0,0-3.53,3.43v27.94a3.5,3.5,0,0,0,7,0V102.1l4.78,25.64a3.44,3.44,0,0,0,6.77-1.25Z"/>
  <rect class="cls-3" height="34.8" rx="3.43" ry="3.43" width="6.86" x="309.7" y="104.66"/>
  <rect class="cls-4" height="40.07" transform="translate(643.1 257.94) rotate(179.63)" width="59" x="291.63" y="109.98"/>
  <rect class="cls-5" height="10.24" transform="translate(642.87 234.57) rotate(179.63)" width="59" x="291.56" y="113.21"/>
  <rect class="cls-5" height="10.24" transform="translate(643.14 262.06) rotate(179.63)" width="59" x="291.64" y="126.95"/>
  <rect class="cls-5" height="10.24" transform="translate(643.4 289.56) rotate(179.63)" width="59" x="291.73" y="140.7"/>
  <rect class="cls-6" height="10.24" transform="translate(642.87 234.57) rotate(179.63)" width="59" x="291.56" y="113.21"/>
  <rect class="cls-7" height="10.24" transform="translate(643.14 262.06) rotate(179.63)" width="59" x="291.64" y="126.95"/>
  <rect class="cls-8" height="10.24" transform="translate(643.4 289.56) rotate(179.63)" width="59" x="291.73" y="140.7"/>
  <rect class="cls-5" height="72.03" rx="8.92" ry="8.92" transform="translate(-0.21 0.4) rotate(-0.2)" width="100.58" x="62.11" y="22.07"/>
  <rect class="cls-5" height="72.03" rx="8.92" ry="8.92" transform="translate(-0.21 0.77) rotate(-0.2)" width="100.58" x="166.02" y="22.07"/>
  <polygon class="cls-9" points="168.35 179.64 349.62 180.72 350.21 301 -5.94 299.78 79.73 187.7 168.35 179.64"/>
  <rect class="cls-10" height="72.03" rx="8.92" ry="8.92" transform="translate(-0.21 0.77) rotate(-0.2)" width="100.58" x="166.02" y="22.07"/>
  <rect class="cls-11" height="72.03" rx="8.92" ry="8.92" transform="translate(-0.21 0.4) rotate(-0.2)" width="100.58" x="62.11" y="22.07"/>
  <rect class="cls-9" height="21.42" rx="1.48" ry="1.48" width="2.96" x="185.38" y="58.85"/>
  <rect class="cls-2" height="121.01" rx="4.67" ry="4.67" width="100.52" x="166.38" y="96.74"/>
  <rect class="cls-4" height="76.35" rx="1.48" ry="1.48" width="2.96" x="185.38" y="107.82"/>
  <rect class="cls-12" height="121.01" rx="4.67" ry="4.67" width="100.52" x="62.43" y="96.74"/>
  <circle class="cls-3" cx="303.88" cy="160.33" r="13.26"/>
  <circle class="cls-4" cx="335.71" cy="158.32" r="13.26"/>
  <ellipse class="cls-4" cx="288.11" cy="156.94" rx="17.18" ry="18.08"/>
  <ellipse class="cls-4" cx="313.01" cy="161.19" rx="17.18" ry="18.08"/>
  <rect class="cls-13" height="121.01" rx="4.67" ry="4.67" width="100.52" x="166.05" y="96.9"/>
  <circle class="cls-4" cx="267.92" cy="156.71" r="13.26"/>
  <path class="cls-14" d="M190.32,145.46c9,10,2.44,13.58-4.82,18.82L88.55,234.82c-6.15,4.4-13.62,6-20.81,0L29,194.72C22.32,187,24.81,177.55,31,173.15l69.54-45.77c5.33-2.88,21.27-14.68,33.5-21.74,7.78-4.49,13.58-.56,17.45,2.79"/>
  <polygon class="cls-15" points="36.42 173.4 89.22 228.59 185.74 157.68 135.39 109.37 36.42 173.4"/>
  <polygon class="cls-16" points="36.42 173.4 89.22 228.59 185.74 157.68 135.39 109.37 36.42 173.4"/>
  <path class="cls-17" d="M94.1,146.67c-.89-.91-2.1-2.63-4-1.5l-4.22,2.75c-1,.81-2.34,1.91,1,4.87l37.09,39.57a2.44,2.44,0,0,0,3.31.05l4-3c1.16-.86,1.64-2.05.86-3.18"/>
  <path class="cls-17" d="M84.26,153.35c-.89-.91-2.1-2.63-4-1.5L76,154.59c-1,.81-2.34,1.91,1,4.87L114.08,199a2.44,2.44,0,0,0,3.31.05l4-3c1.16-.86,1.64-2.05.86-3.18"/>
  <path class="cls-18" d="M63.59,164a1.14,1.14,0,0,1,.2-1.71l6.7-4.45a1.66,1.66,0,0,1,2,0l39.71,41.3c2,2.26.2,3.47-.37,3.93l-5.49,4.13a2.65,2.65,0,0,1-3.74-.41Z"/>
  <path class="cls-2" d="M83,158.11a.82.82,0,0,1-1.12-.09l-.36-.38-.6.46-.31-.32,1.78-1.39.67.69A.64.64,0,0,1,83,158.11Zm-.32-.32a.3.3,0,0,0,0-.48l-.33-.34-.57.44.33.34A.38.38,0,0,0,82.7,157.78Z"/>
  <path class="cls-2" d="M84.37,159.36l-1.27,1-.29-.3.21-.16a.74.74,0,0,1-.61-.22.67.67,0,0,1,.16-1,.86.86,0,0,1,1.16,0,.59.59,0,0,1,.16.58l.2-.16Zm-.92.19a.38.38,0,0,0,.08-.59.49.49,0,0,0-.66,0,.38.38,0,0,0-.07.59A.48.48,0,0,0,83.44,159.55Z"/>
  <path class="cls-2" d="M85.13,160.84l-.26-.27a.21.21,0,0,0,0-.33.23.23,0,0,0-.3-.06c-.1.08,0,.22.09.41s.27.49,0,.69a.66.66,0,0,1-.87-.18c-.28-.29-.31-.63-.07-.82l.28.29c-.1.09-.09.22,0,.34a.25.25,0,0,0,.33.07c.11-.09,0-.24-.11-.44s-.22-.47,0-.65a.63.63,0,0,1,.83.16C85.34,160.33,85.36,160.66,85.13,160.84Z"/>
  <path class="cls-2" d="M86.25,162l-.26-.27a.21.21,0,0,0,0-.33.23.23,0,0,0-.3-.06c-.1.08,0,.22.09.41s.27.49,0,.69a.66.66,0,0,1-.87-.18c-.28-.29-.31-.63-.07-.82l.28.29c-.1.09-.09.22,0,.34a.25.25,0,0,0,.33.07c.11-.09,0-.24-.11-.44s-.22-.47,0-.65a.63.63,0,0,1,.83.16C86.47,161.51,86.49,161.83,86.25,162Z"/>
  <polygon class="cls-2" points="88.57 163.74 86.98 164.39 86.61 164 87.2 163.17 86.19 163.57 85.83 163.19 86.77 161.87 87.07 162.18 86.31 163.19 87.54 162.67 87.8 162.94 87.04 163.96 88.27 163.43 88.57 163.74"/>
  <path class="cls-2" d="M89.18,165.53a.92.92,0,0,1-1.24-.1.72.72,0,0,1,.07-1.13.92.92,0,0,1,1.25.1A.72.72,0,0,1,89.18,165.53Zm-.88-.92a.38.38,0,0,0-.08.59.49.49,0,0,0,.66,0,.38.38,0,0,0,.08-.59A.49.49,0,0,0,88.3,164.61Z"/>
  <path class="cls-2" d="M90.74,165.93l-.33.26a.55.55,0,0,0-.76-.13l-.61.48-.29-.3,1.27-1,.29.3-.28.22A.69.69,0,0,1,90.74,165.93Z"/>
  <path class="cls-2" d="M92.47,166.87l-1.78,1.39-.29-.3.21-.16a.74.74,0,0,1-.61-.22.67.67,0,0,1,.16-1,.86.86,0,0,1,1.16,0,.59.59,0,0,1,.16.58l.72-.56Zm-1.44.59a.38.38,0,0,0,.08-.59.49.49,0,0,0-.66,0,.38.38,0,0,0-.07.59A.48.48,0,0,0,91,167.46Z"/>
  <polygon class="cls-2" points="91.88 149.6 91.46 149.93 92.17 150.67 91.87 150.9 91.16 150.16 90.73 150.5 91.5 151.3 91.18 151.54 90.11 150.42 91.89 149.04 92.96 150.16 92.65 150.4 91.88 149.6"/>
  <path class="cls-2" d="M93.88,152.84l-.84.65-.29-.3.79-.61a.24.24,0,0,0,0-.39.31.31,0,0,0-.43,0l-.79.61-.29-.3.79-.61a.24.24,0,0,0,0-.38.31.31,0,0,0-.43,0l-.79.61-.29-.3,1.27-1,.29.3-.2.16a.55.55,0,0,1,.55.16.42.42,0,0,1,.07.52.59.59,0,0,1,.58.16A.47.47,0,0,1,93.88,152.84Z"/>
  <path class="cls-2" d="M95.67,153.92l-1.27,1-.29-.3.21-.16a.74.74,0,0,1-.61-.22.67.67,0,0,1,.16-1,.86.86,0,0,1,1.16,0,.59.59,0,0,1,.16.58l.2-.16Zm-.92.19a.38.38,0,0,0,.08-.59.49.49,0,0,0-.66,0,.38.38,0,0,0-.07.59A.48.48,0,0,0,94.75,154.11Z"/>
  <path class="cls-2" d="M96.25,154.21a.21.21,0,0,1,0-.33.27.27,0,0,1,.36,0,.21.21,0,0,1,0,.33A.27.27,0,0,1,96.25,154.21Zm0,.28-1.27,1-.29-.3,1.27-1Z"/>
  <polygon class="cls-2" points="97.31 154.69 95.53 156.07 95.24 155.78 97.02 154.39 97.31 154.69"/>
  <path class="cls-2" d="M111.72,148.21a.41.41,0,0,1,.52.07.31.31,0,0,1,0,.47l-2.63,2a.4.4,0,0,1-.52-.07.32.32,0,0,1,0-.47l0,0a1,1,0,0,1-.83-.3,1.08,1.08,0,0,1,.23-1.68,1.37,1.37,0,0,1,1.87.09.81.81,0,0,1,.18.79Zm-2.79,1.36a.72.72,0,0,0,.92.05.56.56,0,0,0,.1-.83.67.67,0,0,0-.91,0A.53.53,0,0,0,108.93,149.57Z"/>
  <path class="cls-2" d="M113.16,149.3a.39.39,0,0,1,0,.6.5.5,0,0,1-.66-.06.4.4,0,0,1,0-.61A.51.51,0,0,1,113.16,149.3Zm-2.62,2.45a.4.4,0,0,1-.52-.07.32.32,0,0,1,0-.47l1.53-1.16a.41.41,0,0,1,.52.07.31.31,0,0,1,0,.47Z"/>
  <path class="cls-2" d="M110.6,152.69a.33.33,0,0,1,.3.34.72.72,0,0,0,.16.57c.38.41.8.28,1.19,0l.06,0a1,1,0,0,1-.87-.3,1.08,1.08,0,0,1,.23-1.68,1.37,1.37,0,0,1,1.87.09.81.81,0,0,1,.18.79l0,0a.41.41,0,0,1,.52.07.31.31,0,0,1,0,.47l-1.49,1.13a1.53,1.53,0,0,1-2.25,0,1.19,1.19,0,0,1-.31-1.07A.37.37,0,0,1,110.6,152.69Zm1.46.23a.72.72,0,0,0,.92.05.56.56,0,0,0,.1-.83.67.67,0,0,0-.91,0A.53.53,0,0,0,112.06,152.92Z"/>
  <path class="cls-2" d="M115.15,154a.93.93,0,0,1,.83.27c.38.41.34.88-.23,1.32l-1,.73a.4.4,0,0,1-.52-.07.32.32,0,0,1,0-.47l.83-.63c.27-.2.28-.44.11-.62a.48.48,0,0,0-.72,0l-.82.62a.4.4,0,0,1-.52-.07.32.32,0,0,1,0-.47l1.53-1.16a.41.41,0,0,1,.52.07.31.31,0,0,1,0,.47Z"/>
  <path class="cls-2" d="M118.32,154.82a.39.39,0,0,1,0,.6.5.5,0,0,1-.66-.06.4.4,0,0,1,0-.61A.51.51,0,0,1,118.32,154.82Zm-2.62,2.45a.4.4,0,0,1-.52-.07.32.32,0,0,1,0-.47l1.53-1.16a.41.41,0,0,1,.52.07.31.31,0,0,1,0,.47Z"/>
  <path class="cls-2" d="M118.05,156.55l.53-.4a.41.41,0,0,1,.52.07.31.31,0,0,1,0,.47l-.53.4.19.21a.25.25,0,0,1-.06.37.33.33,0,0,1-.42,0l-.19-.21-1.3,1a.4.4,0,0,1-.52-.07.32.32,0,0,1,0-.47l1.3-1-.14-.15a.26.26,0,0,1,.06-.37.32.32,0,0,1,.42,0Z"/>
  <path class="cls-2" d="M116.91,160.53a.41.41,0,0,1-.49-.21.31.31,0,0,1,.22-.43l1.12-.33.94-1.67a.38.38,0,0,1,.51-.11.33.33,0,0,1,.14.47l-.67,1.09,1.31-.4a.4.4,0,0,1,.49.21.31.31,0,0,1-.21.43Z"/>
  <path class="cls-2" d="M122.61,164.68a.4.4,0,0,1-.52-.07.32.32,0,0,1,0-.47l.83-.63c.26-.2.27-.45.12-.61a.48.48,0,0,0-.7,0l-.82.62a.4.4,0,0,1-.52-.07.32.32,0,0,1,0-.47l.84-.64a.38.38,0,0,0,.11-.59.48.48,0,0,0-.7,0l-.82.62a.4.4,0,0,1-.52-.07.32.32,0,0,1,0-.47l1.53-1.16a.41.41,0,0,1,.52.07.31.31,0,0,1,0,.47l0,0a.8.8,0,0,1,.77.22.71.71,0,0,1,.18.89.9.9,0,0,1,.88.24c.4.43.35.94-.25,1.4Z"/>
  <path class="cls-2" d="M124.3,166.68a1.66,1.66,0,0,1-.76-.49,1.13,1.13,0,0,1,.17-1.75,1.42,1.42,0,0,1,1.93.16,1.11,1.11,0,0,1-.19,1.73.26.26,0,0,1-.34,0L124,165.14a.5.5,0,0,0,.08.7.71.71,0,0,0,.39.24.33.33,0,0,1,.29.36A.35.35,0,0,1,124.3,166.68Zm.82-1a.43.43,0,0,0,0-.66.59.59,0,0,0-.74-.12Z"/>
  <path class="cls-2" d="M127.77,167.41a.41.41,0,0,1,.52.07.31.31,0,0,1,0,.47l-1.53,1.16a.4.4,0,0,1-.52-.07.32.32,0,0,1,0-.47l0,0a1,1,0,0,1-.83-.3,1.08,1.08,0,0,1,.23-1.68,1.37,1.37,0,0,1,1.87.09.81.81,0,0,1,.18.79Zm-1.69.53a.72.72,0,0,0,.92.05.56.56,0,0,0,.1-.83.67.67,0,0,0-.91,0A.53.53,0,0,0,126.09,167.94Z"/>
  <path class="cls-2" d="M127.69,170.12a.4.4,0,0,1-.52-.07.32.32,0,0,1,0-.47l2.63-2a.41.41,0,0,1,.52.07.31.31,0,0,1,0,.47Z"/>
  <path class="cls-2" d="M128.59,170.26a.31.31,0,0,1,.2.35.55.55,0,0,0,.14.48c.11.12.24.22.34.14s.07-.14,0-.3l-.11-.27c-.3-.7,0-.91.17-1.05a1,1,0,0,1,1.23.27.88.88,0,0,1,.27.9.29.29,0,0,1-.35.19.38.38,0,0,1-.27-.38.43.43,0,0,0-.11-.29c-.11-.12-.23-.17-.31-.11s-.06.13,0,.26l.15.35a.73.73,0,0,1-.15,1,1.05,1.05,0,0,1-1.36-.3.9.9,0,0,1-.24-1.05A.33.33,0,0,1,128.59,170.26Z"/>
  <polygon class="cls-2" points="85.78 179.63 85.41 179.91 84.22 178.69 86.28 177.06 86.64 177.43 84.94 178.77 85.78 179.63"/>
  <path class="cls-2" d="M87.62,180.84a1.07,1.07,0,0,1-1.45-.11.84.84,0,0,1,.07-1.31,1.08,1.08,0,0,1,1.46.11A.84.84,0,0,1,87.62,180.84Zm-1-1.06a.44.44,0,0,0-.08.69.57.57,0,0,0,.77,0,.44.44,0,0,0,.08-.69A.57.57,0,0,0,86.58,179.78Z"/>
  <path class="cls-2" d="M89.9,181.84l-1.37,1.09a1,1,0,0,1-1.39-.11.79.79,0,0,1-.1-1.1l.32.33a.41.41,0,0,0,.08.52.54.54,0,0,0,.73,0l.23-.18a.88.88,0,0,1-.7-.27.76.76,0,0,1,.14-1.17,1,1,0,0,1,1.3,0,.71.71,0,0,1,.2.66l.22-.17Zm-1,.2a.44.44,0,0,0,.08-.69.57.57,0,0,0-.77,0,.44.44,0,0,0-.08.69A.56.56,0,0,0,88.86,182Z"/>
  <polygon class="cls-2" points="89.86 184.47 89.5 184.1 91.56 182.47 91.93 182.84 89.86 184.47"/>
  <path class="cls-2" d="M92.33,185.33l-.92.73-.34-.35.86-.68a.34.34,0,0,0,.06-.53.43.43,0,0,0-.6,0l-.86.68-.34-.35,1.47-1.16L92,184l-.22.17a.74.74,0,0,1,.65.22A.6.6,0,0,1,92.33,185.33Z"/>
  <ellipse class="cls-19" cx="53.99" cy="206.69" rx="5.57" ry="6.04" transform="translate(-153.66 256.86) rotate(-88.94)"/>
  <polygon class="cls-20" points="206.19 34.1 350.24 159.2 350.06 294.54 0.74 296.11 0.19 159.75 193.96 34.1 206.19 34.1"/>
  <path class="cls-21" d="M125.94,146.23s1.19-.4,1-2.42C126.91,143.81,124.55,144.93,125.94,146.23Z"/>
  <path class="cls-21" d="M126.27,146.72c1.21,1.66,3.63-.58,3.63-.58-3-.71-3.57.34-3.64.53Z"/>
  <g class="cls-22">
    <polygon class="cls-23" points="123.28 153.66 129.79 146.54 130.97 147.55 124.33 154.56 123.28 153.66"/>
    <polygon class="cls-23" points="123.13 153.54 129.65 146.42 129.79 146.54 123.28 153.66 123.13 153.54"/>
    <polygon class="cls-24" points="122.99 153.41 129.5 146.29 129.65 146.42 123.13 153.54 122.99 153.41"/>
    <polygon class="cls-25" points="122.84 153.29 129.35 146.17 129.5 146.29 122.99 153.41 122.84 153.29"/>
    <polygon class="cls-26" points="122.69 153.16 129.21 146.04 129.35 146.17 122.84 153.29 122.69 153.16"/>
    <polygon class="cls-27" points="122.55 153.04 129.06 145.92 129.21 146.04 122.69 153.16 122.55 153.04"/>
    <polygon class="cls-28" points="122.4 152.91 128.92 145.79 129.06 145.92 122.55 153.04 122.4 152.91"/>
    <polygon class="cls-29" points="122.26 152.79 128.77 145.67 128.92 145.79 122.4 152.91 122.26 152.79"/>
    <polygon class="cls-30" points="122.11 152.66 128.63 145.54 128.77 145.67 122.26 152.79 122.11 152.66"/>
    <polygon class="cls-31" points="121.96 152.54 128.48 145.42 128.63 145.54 122.11 152.66 121.96 152.54"/>
    <polygon class="cls-32" points="121.82 152.41 128.33 145.29 128.48 145.42 121.96 152.54 121.82 152.41"/>
    <polygon class="cls-33" points="121.67 152.28 128.19 145.17 128.33 145.29 121.82 152.41 121.67 152.28"/>
    <polygon class="cls-34" points="121.53 152.16 128.04 145.04 128.19 145.17 121.67 152.28 121.53 152.16"/>
    <polygon class="cls-35" points="121.38 152.03 127.89 144.92 128.04 145.04 121.53 152.16 121.38 152.03"/>
    <polygon class="cls-36" points="121.23 151.91 127.75 144.79 127.89 144.92 121.38 152.03 121.23 151.91"/>
    <polygon class="cls-37" points="121.09 151.78 127.6 144.67 127.75 144.79 121.23 151.91 121.09 151.78"/>
    <polygon class="cls-38" points="120.94 151.66 127.46 144.54 127.6 144.67 121.09 151.78 120.94 151.66"/>
    <polygon class="cls-39" points="120.8 151.53 127.31 144.41 127.46 144.54 120.94 151.66 120.8 151.53"/>
    <polygon class="cls-40" points="120.65 151.41 127.17 144.29 127.31 144.41 120.8 151.53 120.65 151.41"/>
    <polygon class="cls-41" points="120.5 151.28 127.02 144.16 127.17 144.29 120.65 151.41 120.5 151.28"/>
    <polygon class="cls-42" points="120.36 151.16 126.87 144.04 127.02 144.16 120.5 151.28 120.36 151.16"/>
    <polygon class="cls-43" points="120.21 151.03 126.73 143.91 126.87 144.04 120.36 151.16 120.21 151.03"/>
    <polygon class="cls-44" points="120.07 150.91 126.58 143.79 126.73 143.91 120.21 151.03 120.07 150.91"/>
    <polygon class="cls-45" points="119.92 150.78 126.44 143.66 126.58 143.79 120.07 150.91 119.92 150.78"/>
    <polygon class="cls-46" points="119.77 150.66 126.29 143.54 126.44 143.66 119.92 150.78 119.77 150.66"/>
    <polygon class="cls-47" points="119.63 150.53 126.14 143.41 126.29 143.54 119.77 150.66 119.63 150.53"/>
    <polygon class="cls-48" points="119.48 150.41 126 143.29 126.14 143.41 119.63 150.53 119.48 150.41"/>
    <polygon class="cls-49" points="119.34 150.28 125.85 143.16 126 143.29 119.48 150.41 119.34 150.28"/>
    <polygon class="cls-50" points="119.19 150.16 125.7 143.04 125.85 143.16 119.34 150.28 119.19 150.16"/>
    <polygon class="cls-51" points="119.04 150.03 125.56 142.91 125.7 143.04 119.19 150.16 119.04 150.03"/>
    <polygon class="cls-52" points="118.9 149.91 125.41 142.79 125.56 142.91 119.04 150.03 118.9 149.91"/>
    <polygon class="cls-53" points="118.75 149.78 125.27 142.66 125.41 142.79 118.9 149.91 118.75 149.78"/>
    <polygon class="cls-54" points="118.61 149.65 125.12 142.54 125.27 142.66 118.75 149.78 118.61 149.65"/>
    <polygon class="cls-55" points="118.46 149.53 124.97 142.41 125.12 142.54 118.61 149.65 118.46 149.53"/>
    <polygon class="cls-56" points="118.31 149.4 124.83 142.28 124.97 142.41 118.46 149.53 118.31 149.4"/>
    <polygon class="cls-57" points="118.17 149.28 124.68 142.16 124.83 142.28 118.31 149.4 118.17 149.28"/>
    <polygon class="cls-58" points="118.02 149.15 124.54 142.03 124.68 142.16 118.17 149.28 118.02 149.15"/>
    <polygon class="cls-59" points="117.88 149.03 124.39 141.91 124.54 142.03 118.02 149.15 117.88 149.03"/>
    <polygon class="cls-60" points="117.73 148.9 124.25 141.78 124.39 141.91 117.88 149.03 117.73 148.9"/>
    <polygon class="cls-61" points="117.58 148.78 124.1 141.66 124.25 141.78 117.73 148.9 117.58 148.78"/>
    <polygon class="cls-62" points="117.44 148.65 119.65 145.86 123.84 141.43 124.1 141.66 117.58 148.78 117.44 148.65"/>
    <polygon class="cls-63" points="119.65 145.86 117.44 148.65 117.19 148.44 119.65 145.86"/>
  </g>
  <g class="cls-64">
    <path class="cls-65" d="M124.7,152.35l-.1.1Z"/>
    <polygon class="cls-65" points="124.78 152.43 124.69 152.53 124.69 152.53 124.78 152.43 124.78 152.43"/>
    <polygon class="cls-66" points="124.78 152.43 124.69 152.53 124.69 152.53 124.78 152.43 124.78 152.43"/>
    <polygon class="cls-67" points="124.79 152.43 124.69 152.53 124.69 152.53 124.78 152.43 124.79 152.43"/>
    <polygon class="cls-68" points="124.79 152.43 124.69 152.53 124.69 152.53 124.79 152.43 124.79 152.43"/>
    <polygon class="cls-69" points="124.79 152.43 124.69 152.53 124.69 152.53 124.79 152.43 124.79 152.43"/>
    <polygon class="cls-70" points="124.79 152.44 124.7 152.53 124.69 152.53 124.79 152.43 124.79 152.44"/>
    <polygon class="cls-71" points="124.79 152.44 124.7 152.54 124.7 152.53 124.79 152.44 124.79 152.44"/>
    <polygon class="cls-72" points="124.8 152.44 124.7 152.54 124.7 152.54 124.79 152.44 124.8 152.44"/>
    <polygon class="cls-73" points="124.8 152.44 124.7 152.54 124.7 152.54 124.8 152.44 124.8 152.44"/>
    <polygon class="cls-74" points="124.8 152.44 124.7 152.54 124.7 152.54 124.8 152.44 124.8 152.44"/>
    <polygon class="cls-75" points="124.8 152.44 124.71 152.54 124.7 152.54 124.8 152.44 124.8 152.44"/>
    <polygon class="cls-76" points="124.8 152.44 124.71 152.54 124.71 152.54 124.8 152.44 124.8 152.44"/>
    <polygon class="cls-77" points="124.8 152.45 124.71 152.55 124.71 152.54 124.8 152.44 124.8 152.45"/>
    <polygon class="cls-78" points="124.81 152.45 124.71 152.55 124.71 152.55 124.8 152.45 124.81 152.45"/>
    <polygon class="cls-79" points="124.81 152.45 124.71 152.55 124.71 152.55 124.81 152.45 124.81 152.45"/>
    <polygon class="cls-80" points="124.81 152.45 124.72 152.55 124.71 152.55 124.81 152.45 124.81 152.45"/>
    <polygon class="cls-81" points="124.81 152.45 124.72 152.55 124.72 152.55 124.81 152.45 124.81 152.45"/>
    <polygon class="cls-82" points="124.81 152.45 124.72 152.55 124.72 152.55 124.81 152.45 124.81 152.45"/>
    <polygon class="cls-83" points="124.81 152.46 124.72 152.56 124.72 152.55 124.81 152.45 124.81 152.46"/>
    <polygon class="cls-84" points="124.82 152.46 124.72 152.56 124.72 152.56 124.81 152.46 124.82 152.46"/>
    <polygon class="cls-85" points="124.82 152.46 124.72 152.56 124.72 152.56 124.82 152.46 124.82 152.46"/>
    <polygon class="cls-86" points="124.82 152.46 124.72 152.56 124.72 152.56 124.82 152.46 124.82 152.46"/>
    <polygon class="cls-87" points="124.82 152.46 124.73 152.56 124.72 152.56 124.82 152.46 124.82 152.46"/>
    <polygon class="cls-88" points="124.82 152.46 124.73 152.56 124.73 152.56 124.82 152.46 124.82 152.46"/>
    <polygon class="cls-89" points="124.83 152.46 124.73 152.56 124.73 152.56 124.82 152.46 124.83 152.46"/>
    <polygon class="cls-90" points="124.83 152.47 124.73 152.57 124.73 152.56 124.83 152.46 124.83 152.47"/>
    <polygon class="cls-91" points="124.83 152.47 124.73 152.57 124.73 152.57 124.83 152.47 124.83 152.47"/>
    <polygon class="cls-92" points="124.83 152.47 124.74 152.57 124.73 152.57 124.83 152.47 124.83 152.47"/>
    <polygon class="cls-93" points="124.83 152.47 124.74 152.57 124.74 152.57 124.83 152.47 124.83 152.47"/>
    <polygon class="cls-94" points="124.83 152.47 124.74 152.57 124.74 152.57 124.83 152.47 124.83 152.47"/>
    <polygon class="cls-95" points="124.84 152.47 124.74 152.57 124.74 152.57 124.83 152.47 124.84 152.47"/>
    <polygon class="cls-96" points="124.84 152.47 124.74 152.58 124.74 152.57 124.84 152.47 124.84 152.47"/>
    <polygon class="cls-97" points="124.84 152.48 124.75 152.58 124.74 152.58 124.84 152.47 124.84 152.48"/>
    <polygon class="cls-98" points="124.84 152.48 124.75 152.58 124.75 152.58 124.84 152.48 124.84 152.48"/>
    <polygon class="cls-99" points="124.84 152.48 124.75 152.58 124.75 152.58 124.84 152.48 124.84 152.48"/>
    <polygon class="cls-100" points="124.85 152.48 124.75 152.58 124.75 152.58 124.84 152.48 124.85 152.48"/>
    <polygon class="cls-101" points="124.85 152.48 124.75 152.58 124.75 152.58 124.85 152.48 124.85 152.48"/>
    <polygon class="cls-102" points="124.85 152.48 124.75 152.59 124.75 152.58 124.85 152.48 124.85 152.48"/>
    <polygon class="cls-103" points="124.85 152.49 124.76 152.59 124.75 152.59 124.85 152.48 124.85 152.49"/>
    <polygon class="cls-104" points="124.85 152.49 124.76 152.59 124.76 152.59 124.85 152.49 124.85 152.49"/>
    <polygon class="cls-105" points="124.86 152.49 124.76 152.59 124.76 152.59 124.85 152.49 124.86 152.49"/>
    <polygon class="cls-106" points="124.86 152.49 124.76 152.59 124.76 152.59 124.86 152.49 124.86 152.49"/>
    <polygon class="cls-107" points="124.86 152.49 124.76 152.59 124.76 152.59 124.86 152.49 124.86 152.49"/>
    <polygon class="cls-108" points="124.86 152.49 124.77 152.59 124.76 152.59 124.86 152.49 124.86 152.49"/>
    <polygon class="cls-109" points="124.86 152.5 124.77 152.6 124.77 152.59 124.86 152.49 124.86 152.5"/>
    <polygon class="cls-110" points="124.86 152.5 124.77 152.6 124.77 152.6 124.86 152.5 124.86 152.5"/>
    <polygon class="cls-111" points="124.87 152.5 124.77 152.6 124.77 152.6 124.86 152.5 124.87 152.5"/>
    <polygon class="cls-112" points="124.87 152.5 124.77 152.6 124.77 152.6 124.87 152.5 124.87 152.5"/>
    <polygon class="cls-113" points="124.87 152.5 124.77 152.6 124.77 152.6 124.87 152.5 124.87 152.5"/>
    <polygon class="cls-114" points="124.87 152.5 124.78 152.6 124.77 152.6 124.87 152.5 124.87 152.5"/>
    <polygon class="cls-115" points="124.87 152.5 124.78 152.6 124.78 152.6 124.87 152.5 124.87 152.5"/>
    <polygon class="cls-116" points="124.88 152.51 124.78 152.61 124.78 152.6 124.87 152.5 124.88 152.51"/>
    <polygon class="cls-117" points="124.88 152.51 124.78 152.61 124.78 152.61 124.88 152.51 124.88 152.51"/>
    <polygon class="cls-118" points="124.88 152.51 124.78 152.61 124.78 152.61 124.88 152.51 124.88 152.51"/>
    <polygon class="cls-119" points="124.88 152.51 124.78 152.61 124.78 152.61 124.88 152.51 124.88 152.51"/>
    <polygon class="cls-120" points="124.88 152.51 124.79 152.61 124.78 152.61 124.88 152.51 124.88 152.51"/>
    <polygon class="cls-121" points="124.88 152.51 124.79 152.61 124.79 152.61 124.88 152.51 124.88 152.51"/>
    <polygon class="cls-122" points="124.89 152.51 124.79 152.62 124.79 152.61 124.88 152.51 124.89 152.51"/>
    <polygon class="cls-123" points="124.89 152.52 124.79 152.62 124.79 152.62 124.89 152.51 124.89 152.52"/>
    <polygon class="cls-124" points="124.89 152.52 124.79 152.62 124.79 152.62 124.89 152.52 124.89 152.52"/>
    <polygon class="cls-125" points="124.89 152.52 124.8 152.62 124.79 152.62 124.89 152.52 124.89 152.52"/>
    <polygon class="cls-126" points="124.89 152.52 124.8 152.62 124.8 152.62 124.89 152.52 124.89 152.52"/>
    <polygon class="cls-127" points="124.89 152.52 124.8 152.62 124.8 152.62 124.89 152.52 124.89 152.52"/>
    <polygon class="cls-128" points="124.9 152.53 124.8 152.63 124.8 152.62 124.89 152.52 124.9 152.53"/>
    <path class="cls-128" d="M124.6,152.45l.1-.1Z"/>
  </g>
  <g class="cls-129">
    <polygon class="cls-23" points="127.25 147.84 122.27 153.09 122.27 153.09 127.25 147.84 127.25 147.84"/>
    <polygon class="cls-23" points="127.88 148.08 122.48 153.78 122.01 153.37 127.41 147.67 127.88 148.08"/>
    <polygon class="cls-24" points="128.36 148.49 122.96 154.18 122.48 153.78 127.88 148.08 128.36 148.49"/>
    <polygon class="cls-25" points="128.36 148.49 122.96 154.18 122.96 154.18 128.36 148.49 128.36 148.49"/>
    <polygon class="cls-26" points="128.36 148.49 122.96 154.18 122.96 154.18 128.36 148.49 128.36 148.49"/>
    <polygon class="cls-27" points="128.83 148.9 123.44 154.59 122.96 154.18 128.36 148.49 128.83 148.9"/>
    <polygon class="cls-28" points="128.83 148.9 123.44 154.59 123.44 154.59 128.83 148.9 128.83 148.9"/>
    <polygon class="cls-29" points="129.31 149.31 123.91 155 123.44 154.59 128.83 148.9 129.31 149.31"/>
    <polygon class="cls-30" points="129.31 149.31 123.91 155 123.91 155 129.31 149.31 129.31 149.31"/>
    <polygon class="cls-31" points="129.78 149.71 124.39 155.41 123.91 155 129.31 149.31 129.78 149.71"/>
    <polygon class="cls-32" points="129.78 149.71 124.39 155.41 124.39 155.41 129.78 149.71 129.78 149.71"/>
    <polygon class="cls-33" points="130.26 150.12 124.86 155.82 124.39 155.41 129.78 149.71 130.26 150.12"/>
    <polygon class="cls-34" points="130.26 150.12 124.86 155.82 124.86 155.82 130.26 150.12 130.26 150.12"/>
    <polygon class="cls-35" points="130.73 150.53 125.34 156.22 124.86 155.82 130.26 150.12 130.73 150.53"/>
    <polygon class="cls-36" points="130.73 150.53 125.34 156.22 125.34 156.22 130.73 150.53 130.73 150.53"/>
    <polygon class="cls-37" points="130.73 150.53 125.34 156.22 125.34 156.22 130.73 150.53 130.73 150.53"/>
    <polygon class="cls-38" points="131.21 150.94 125.81 156.63 125.34 156.22 130.73 150.53 131.21 150.94"/>
    <polygon class="cls-39" points="131.21 150.94 125.81 156.63 125.81 156.63 131.21 150.94 131.21 150.94"/>
    <polygon class="cls-40" points="131.68 151.34 126.29 157.04 125.81 156.63 131.21 150.94 131.68 151.34"/>
    <polygon class="cls-41" points="132.16 151.75 126.76 157.45 126.29 157.04 131.68 151.34 132.16 151.75"/>
    <polygon class="cls-42" points="132.16 151.75 126.76 157.45 126.76 157.45 132.16 151.75 132.16 151.75"/>
    <polygon class="cls-43" points="132.63 152.16 127.24 157.85 126.76 157.45 132.16 151.75 132.63 152.16"/>
    <polygon class="cls-44" points="132.63 152.16 127.24 157.85 127.24 157.85 132.63 152.16 132.63 152.16"/>
    <polygon class="cls-45" points="133.11 152.57 127.71 158.26 127.24 157.85 132.63 152.16 133.11 152.57"/>
    <polygon class="cls-46" points="133.11 152.57 127.71 158.26 127.71 158.26 133.11 152.57 133.11 152.57"/>
    <polygon class="cls-47" points="133.11 152.57 127.71 158.26 127.71 158.26 133.11 152.57 133.11 152.57"/>
    <polygon class="cls-48" points="133.59 152.98 128.19 158.67 127.71 158.26 133.11 152.57 133.59 152.98"/>
    <polygon class="cls-49" points="133.59 152.98 128.19 158.67 128.19 158.67 133.59 152.98 133.59 152.98"/>
    <polygon class="cls-50" points="134.06 153.38 128.66 159.08 128.19 158.67 133.59 152.98 134.06 153.38"/>
    <polygon class="cls-51" points="134.06 153.38 128.66 159.08 128.66 159.08 134.06 153.38 134.06 153.38"/>
    <polygon class="cls-52" points="134.54 153.79 129.14 159.49 128.66 159.08 134.06 153.38 134.54 153.79"/>
    <polygon class="cls-53" points="134.54 153.79 129.14 159.49 129.14 159.49 134.54 153.79 134.54 153.79"/>
    <polygon class="cls-54" points="135.01 154.2 129.62 159.9 129.14 159.49 134.54 153.79 135.01 154.2"/>
    <polygon class="cls-55" points="135.49 154.61 130.09 160.3 129.62 159.9 135.01 154.2 135.49 154.61"/>
    <polygon class="cls-56" points="135.49 154.61 130.09 160.3 130.09 160.3 135.49 154.61 135.49 154.61"/>
    <polygon class="cls-57" points="135.49 154.61 130.09 160.3 130.09 160.3 135.49 154.61 135.49 154.61"/>
    <polygon class="cls-58" points="135.96 155.01 130.57 160.71 130.09 160.3 135.49 154.61 135.96 155.01"/>
    <polygon class="cls-59" points="135.96 155.01 130.57 160.71 130.57 160.71 135.96 155.01 135.96 155.01"/>
    <polygon class="cls-60" points="136.44 155.42 131.04 161.12 130.57 160.71 135.96 155.01 136.44 155.42"/>
    <polygon class="cls-61" points="136.44 155.42 131.04 161.12 131.04 161.12 136.44 155.42 136.44 155.42"/>
    <polygon class="cls-62" points="136.91 155.83 131.52 161.53 131.04 161.12 136.44 155.42 136.91 155.83"/>
    <polygon class="cls-63" points="136.91 155.83 131.52 161.53 131.52 161.53 136.91 155.83 136.91 155.83"/>
    <polygon class="cls-130" points="137.39 156.24 131.99 161.93 131.52 161.53 136.91 155.83 137.39 156.24"/>
    <polygon class="cls-130" points="132.25 161.66 137.23 156.41 137.23 156.41 132.25 161.66 132.25 161.66"/>
  </g>
  <rect class="cls-4" height="67.79" width="99.8" x="249.48" y="156.01"/>
  <rect class="cls-19" height="9.06" width="99.8" x="249.48" y="159.96"/>
  <rect class="cls-19" height="9.06" width="99.8" x="249.48" y="173.61"/>
  <rect class="cls-19" height="9.06" width="99.8" x="249.48" y="187.26"/>
  <rect class="cls-19" height="9.06" width="99.8" x="249.48" y="200.91"/>
  <rect class="cls-19" height="9.06" width="99.8" x="249.44" y="214.62"/>
  <rect class="cls-131" height="9.06" width="99.8" x="249.48" y="159.96"/>
  <rect class="cls-132" height="9.06" width="99.8" x="249.48" y="173.61"/>
  <rect class="cls-133" height="9.06" width="99.8" x="249.48" y="187.26"/>
  <rect class="cls-134" height="9.06" width="99.8" x="249.48" y="200.91"/>
  <rect class="cls-135" height="9.06" width="99.8" x="249.44" y="214.62"/>
  <g class="cls-136">
    <path class="cls-2" d="M94.1,146.67c-.89-.91-2.1-2.63-4-1.5l-4.22,2.75c-1,.81-2.34,1.91,1,4.87l37.09,39.57a2.44,2.44,0,0,0,3.31.05l4-3c1.16-.86,1.64-2.05.86-3.18"/>
    <path class="cls-2" d="M84.26,153.35c-.89-.91-2.1-2.63-4-1.5L76,154.59c-1,.81-2.34,1.91,1,4.87L114.08,199a2.44,2.44,0,0,0,3.31.05l4-3c1.16-.86,1.64-2.05.86-3.18"/>
    <path class="cls-2" d="M63.59,164a1.14,1.14,0,0,1,.2-1.71l6.7-4.45a1.66,1.66,0,0,1,2,0l39.71,41.3c2,2.26.2,3.47-.37,3.93l-5.49,4.13a2.65,2.65,0,0,1-3.74-.41Z"/>
    <path class="cls-2" d="M83,158.11a.82.82,0,0,1-1.12-.09l-.36-.38-.6.46-.31-.32,1.78-1.39.67.69A.64.64,0,0,1,83,158.11Zm-.32-.32a.3.3,0,0,0,0-.48l-.33-.34-.57.44.33.34A.38.38,0,0,0,82.7,157.78Z"/>
    <path class="cls-2" d="M84.37,159.36l-1.27,1-.29-.3.21-.16a.74.74,0,0,1-.61-.22.67.67,0,0,1,.16-1,.86.86,0,0,1,1.16,0,.59.59,0,0,1,.16.58l.2-.16Zm-.92.19a.38.38,0,0,0,.08-.59.49.49,0,0,0-.66,0,.38.38,0,0,0-.07.59A.48.48,0,0,0,83.44,159.55Z"/>
    <path class="cls-2" d="M85.13,160.84l-.26-.27a.21.21,0,0,0,0-.33.23.23,0,0,0-.3-.06c-.1.08,0,.22.09.41s.27.49,0,.69a.66.66,0,0,1-.87-.18c-.28-.29-.31-.63-.07-.82l.28.29c-.1.09-.09.22,0,.34a.25.25,0,0,0,.33.07c.11-.09,0-.24-.11-.44s-.22-.47,0-.65a.63.63,0,0,1,.83.16C85.34,160.33,85.36,160.66,85.13,160.84Z"/>
    <path class="cls-2" d="M86.25,162l-.26-.27a.21.21,0,0,0,0-.33.23.23,0,0,0-.3-.06c-.1.08,0,.22.09.41s.27.49,0,.69a.66.66,0,0,1-.87-.18c-.28-.29-.31-.63-.07-.82l.28.29c-.1.09-.09.22,0,.34a.25.25,0,0,0,.33.07c.11-.09,0-.24-.11-.44s-.22-.47,0-.65a.63.63,0,0,1,.83.16C86.47,161.51,86.49,161.83,86.25,162Z"/>
    <polygon class="cls-2" points="88.57 163.74 86.98 164.39 86.61 164 87.2 163.17 86.19 163.57 85.83 163.19 86.77 161.87 87.07 162.18 86.31 163.19 87.54 162.67 87.8 162.94 87.04 163.96 88.27 163.43 88.57 163.74"/>
    <path class="cls-2" d="M89.18,165.53a.92.92,0,0,1-1.24-.1.72.72,0,0,1,.07-1.13.92.92,0,0,1,1.25.1A.72.72,0,0,1,89.18,165.53Zm-.88-.92a.38.38,0,0,0-.08.59.49.49,0,0,0,.66,0,.38.38,0,0,0,.08-.59A.49.49,0,0,0,88.3,164.61Z"/>
    <path class="cls-2" d="M90.74,165.93l-.33.26a.55.55,0,0,0-.76-.13l-.61.48-.29-.3,1.27-1,.29.3-.28.22A.69.69,0,0,1,90.74,165.93Z"/>
    <path class="cls-2" d="M92.47,166.87l-1.78,1.39-.29-.3.21-.16a.74.74,0,0,1-.61-.22.67.67,0,0,1,.16-1,.86.86,0,0,1,1.16,0,.59.59,0,0,1,.16.58l.72-.56Zm-1.44.59a.38.38,0,0,0,.08-.59.49.49,0,0,0-.66,0,.38.38,0,0,0-.07.59A.48.48,0,0,0,91,167.46Z"/>
    <polygon class="cls-2" points="91.88 149.6 91.46 149.93 92.17 150.67 91.87 150.9 91.16 150.16 90.73 150.5 91.5 151.3 91.18 151.54 90.11 150.42 91.89 149.04 92.96 150.16 92.65 150.4 91.88 149.6"/>
    <path class="cls-2" d="M93.88,152.84l-.84.65-.29-.3.79-.61a.24.24,0,0,0,0-.39.31.31,0,0,0-.43,0l-.79.61-.29-.3.79-.61a.24.24,0,0,0,0-.38.31.31,0,0,0-.43,0l-.79.61-.29-.3,1.27-1,.29.3-.2.16a.55.55,0,0,1,.55.16.42.42,0,0,1,.07.52.59.59,0,0,1,.58.16A.47.47,0,0,1,93.88,152.84Z"/>
    <path class="cls-2" d="M95.67,153.92l-1.27,1-.29-.3.21-.16a.74.74,0,0,1-.61-.22.67.67,0,0,1,.16-1,.86.86,0,0,1,1.16,0,.59.59,0,0,1,.16.58l.2-.16Zm-.92.19a.38.38,0,0,0,.08-.59.49.49,0,0,0-.66,0,.38.38,0,0,0-.07.59A.48.48,0,0,0,94.75,154.11Z"/>
    <path class="cls-2" d="M96.25,154.21a.21.21,0,0,1,0-.33.27.27,0,0,1,.36,0,.21.21,0,0,1,0,.33A.27.27,0,0,1,96.25,154.21Zm0,.28-1.27,1-.29-.3,1.27-1Z"/>
    <polygon class="cls-2" points="97.31 154.69 95.53 156.07 95.24 155.78 97.02 154.39 97.31 154.69"/>
    <path class="cls-2" d="M111.72,148.21a.41.41,0,0,1,.52.07.31.31,0,0,1,0,.47l-2.63,2a.4.4,0,0,1-.52-.07.32.32,0,0,1,0-.47l0,0a1,1,0,0,1-.83-.3,1.08,1.08,0,0,1,.23-1.68,1.37,1.37,0,0,1,1.87.09.81.81,0,0,1,.18.79Zm-2.79,1.36a.72.72,0,0,0,.92.05.56.56,0,0,0,.1-.83.67.67,0,0,0-.91,0A.53.53,0,0,0,108.93,149.57Z"/>
    <path class="cls-2" d="M113.16,149.3a.39.39,0,0,1,0,.6.5.5,0,0,1-.66-.06.4.4,0,0,1,0-.61A.51.51,0,0,1,113.16,149.3Zm-2.62,2.45a.4.4,0,0,1-.52-.07.32.32,0,0,1,0-.47l1.53-1.16a.41.41,0,0,1,.52.07.31.31,0,0,1,0,.47Z"/>
    <path class="cls-2" d="M110.6,152.69a.33.33,0,0,1,.3.34.72.72,0,0,0,.16.57c.38.41.8.28,1.19,0l.06,0a1,1,0,0,1-.87-.3,1.08,1.08,0,0,1,.23-1.68,1.37,1.37,0,0,1,1.87.09.81.81,0,0,1,.18.79l0,0a.41.41,0,0,1,.52.07.31.31,0,0,1,0,.47l-1.49,1.13a1.53,1.53,0,0,1-2.25,0,1.19,1.19,0,0,1-.31-1.07A.37.37,0,0,1,110.6,152.69Zm1.46.23a.72.72,0,0,0,.92.05.56.56,0,0,0,.1-.83.67.67,0,0,0-.91,0A.53.53,0,0,0,112.06,152.92Z"/>
    <path class="cls-2" d="M115.15,154a.93.93,0,0,1,.83.27c.38.41.34.88-.23,1.32l-1,.73a.4.4,0,0,1-.52-.07.32.32,0,0,1,0-.47l.83-.63c.27-.2.28-.44.11-.62a.48.48,0,0,0-.72,0l-.82.62a.4.4,0,0,1-.52-.07.32.32,0,0,1,0-.47l1.53-1.16a.41.41,0,0,1,.52.07.31.31,0,0,1,0,.47Z"/>
    <path class="cls-2" d="M118.32,154.82a.39.39,0,0,1,0,.6.5.5,0,0,1-.66-.06.4.4,0,0,1,0-.61A.51.51,0,0,1,118.32,154.82Zm-2.62,2.45a.4.4,0,0,1-.52-.07.32.32,0,0,1,0-.47l1.53-1.16a.41.41,0,0,1,.52.07.31.31,0,0,1,0,.47Z"/>
    <path class="cls-2" d="M118.05,156.55l.53-.4a.41.41,0,0,1,.52.07.31.31,0,0,1,0,.47l-.53.4.19.21a.25.25,0,0,1-.06.37.33.33,0,0,1-.42,0l-.19-.21-1.3,1a.4.4,0,0,1-.52-.07.32.32,0,0,1,0-.47l1.3-1-.14-.15a.26.26,0,0,1,.06-.37.32.32,0,0,1,.42,0Z"/>
    <path class="cls-2" d="M116.91,160.53a.41.41,0,0,1-.49-.21.31.31,0,0,1,.22-.43l1.12-.33.94-1.67a.38.38,0,0,1,.51-.11.33.33,0,0,1,.14.47l-.67,1.09,1.31-.4a.4.4,0,0,1,.49.21.31.31,0,0,1-.21.43Z"/>
    <path class="cls-2" d="M122.61,164.68a.4.4,0,0,1-.52-.07.32.32,0,0,1,0-.47l.83-.63c.26-.2.27-.45.12-.61a.48.48,0,0,0-.7,0l-.82.62a.4.4,0,0,1-.52-.07.32.32,0,0,1,0-.47l.84-.64a.38.38,0,0,0,.11-.59.48.48,0,0,0-.7,0l-.82.62a.4.4,0,0,1-.52-.07.32.32,0,0,1,0-.47l1.53-1.16a.41.41,0,0,1,.52.07.31.31,0,0,1,0,.47l0,0a.8.8,0,0,1,.77.22.71.71,0,0,1,.18.89.9.9,0,0,1,.88.24c.4.43.35.94-.25,1.4Z"/>
    <path class="cls-2" d="M124.3,166.68a1.66,1.66,0,0,1-.76-.49,1.13,1.13,0,0,1,.17-1.75,1.42,1.42,0,0,1,1.93.16,1.11,1.11,0,0,1-.19,1.73.26.26,0,0,1-.34,0L124,165.14a.5.5,0,0,0,.08.7.71.71,0,0,0,.39.24.33.33,0,0,1,.29.36A.35.35,0,0,1,124.3,166.68Zm.82-1a.43.43,0,0,0,0-.66.59.59,0,0,0-.74-.12Z"/>
    <path class="cls-2" d="M127.77,167.41a.41.41,0,0,1,.52.07.31.31,0,0,1,0,.47l-1.53,1.16a.4.4,0,0,1-.52-.07.32.32,0,0,1,0-.47l0,0a1,1,0,0,1-.83-.3,1.08,1.08,0,0,1,.23-1.68,1.37,1.37,0,0,1,1.87.09.81.81,0,0,1,.18.79Zm-1.69.53a.72.72,0,0,0,.92.05.56.56,0,0,0,.1-.83.67.67,0,0,0-.91,0A.53.53,0,0,0,126.09,167.94Z"/>
    <path class="cls-2" d="M127.69,170.12a.4.4,0,0,1-.52-.07.32.32,0,0,1,0-.47l2.63-2a.41.41,0,0,1,.52.07.31.31,0,0,1,0,.47Z"/>
    <path class="cls-2" d="M128.59,170.26a.31.31,0,0,1,.2.35.55.55,0,0,0,.14.48c.11.12.24.22.34.14s.07-.14,0-.3l-.11-.27c-.3-.7,0-.91.17-1.05a1,1,0,0,1,1.23.27.88.88,0,0,1,.27.9.29.29,0,0,1-.35.19.38.38,0,0,1-.27-.38.43.43,0,0,0-.11-.29c-.11-.12-.23-.17-.31-.11s-.06.13,0,.26l.15.35a.73.73,0,0,1-.15,1,1.05,1.05,0,0,1-1.36-.3.9.9,0,0,1-.24-1.05A.33.33,0,0,1,128.59,170.26Z"/>
    <polygon class="cls-2" points="85.78 179.63 85.41 179.91 84.22 178.69 86.28 177.06 86.64 177.43 84.94 178.77 85.78 179.63"/>
    <path class="cls-2" d="M87.62,180.84a1.07,1.07,0,0,1-1.45-.11.84.84,0,0,1,.07-1.31,1.08,1.08,0,0,1,1.46.11A.84.84,0,0,1,87.62,180.84Zm-1-1.06a.44.44,0,0,0-.08.69.57.57,0,0,0,.77,0,.44.44,0,0,0,.08-.69A.57.57,0,0,0,86.58,179.78Z"/>
    <path class="cls-2" d="M89.9,181.84l-1.37,1.09a1,1,0,0,1-1.39-.11.79.79,0,0,1-.1-1.1l.32.33a.41.41,0,0,0,.08.52.54.54,0,0,0,.73,0l.23-.18a.88.88,0,0,1-.7-.27.76.76,0,0,1,.14-1.17,1,1,0,0,1,1.3,0,.71.71,0,0,1,.2.66l.22-.17Zm-1,.2a.44.44,0,0,0,.08-.69.57.57,0,0,0-.77,0,.44.44,0,0,0-.08.69A.56.56,0,0,0,88.86,182Z"/>
    <polygon class="cls-2" points="89.86 184.47 89.5 184.1 91.56 182.47 91.93 182.84 89.86 184.47"/>
    <path class="cls-2" d="M92.33,185.33l-.92.73-.34-.35.86-.68a.34.34,0,0,0,.06-.53.43.43,0,0,0-.6,0l-.86.68-.34-.35,1.47-1.16L92,184l-.22.17a.74.74,0,0,1,.65.22A.6.6,0,0,1,92.33,185.33Z"/>
  </g>
  <g class="cls-136">
    <path class="cls-2" d="M125.94,146.23s1.19-.4,1-2.42C126.91,143.81,124.55,144.93,125.94,146.23Z"/>
    <path class="cls-2" d="M126.27,146.72c1.21,1.66,3.63-.58,3.63-.58-3-.71-3.57.34-3.64.53Z"/>
    <path class="cls-2" d="M123.86,151.75a.13.13,0,0,1,.2-.08l.57.24c.19.08.24.12.22.23a3.54,3.54,0,0,1,1.55-1.36l4.22-2.75a.4.4,0,0,0,.05-.61c-.23-.28-.4-.21-.63-.13s-4.8,2.81-4.8,2.81-2.66,1.93-4.18,0a2.63,2.63,0,0,1-.32-.65,1.9,1.9,0,0,1,0-.63,2.14,2.14,0,0,1,1.07-1.38,4.21,4.21,0,0,1,1.28-.54,2.35,2.35,0,0,1,.42,0,2.1,2.1,0,0,1,1.28.4,6.35,6.35,0,0,1,.5.49.5.5,0,0,0,.61.17.42.42,0,0,0,.31-.33c0-.27-.52-.82-.64-.93a3.43,3.43,0,0,0-4.05-.36c-.2.11-3.84,2-1.05,5a3.12,3.12,0,0,0,3.38.47Z"/>
    <g class="cls-137">
      <polygon class="cls-2" points="123.28 153.66 129.79 146.54 130.97 147.55 124.33 154.56 123.28 153.66"/>
      <polygon class="cls-2" points="123.13 153.54 129.65 146.42 129.79 146.54 123.28 153.66 123.13 153.54"/>
      <polygon class="cls-2" points="122.99 153.41 129.5 146.29 129.65 146.42 123.13 153.54 122.99 153.41"/>
      <polygon class="cls-2" points="122.84 153.29 129.35 146.17 129.5 146.29 122.99 153.41 122.84 153.29"/>
      <polygon class="cls-2" points="122.69 153.16 129.21 146.04 129.35 146.17 122.84 153.29 122.69 153.16"/>
      <polygon class="cls-2" points="122.55 153.04 129.06 145.92 129.21 146.04 122.69 153.16 122.55 153.04"/>
      <polygon class="cls-2" points="122.4 152.91 128.92 145.79 129.06 145.92 122.55 153.04 122.4 152.91"/>
      <polygon class="cls-2" points="122.26 152.79 128.77 145.67 128.92 145.79 122.4 152.91 122.26 152.79"/>
      <polygon class="cls-2" points="122.11 152.66 128.63 145.54 128.77 145.67 122.26 152.79 122.11 152.66"/>
      <polygon class="cls-2" points="121.96 152.54 128.48 145.42 128.63 145.54 122.11 152.66 121.96 152.54"/>
      <polygon class="cls-2" points="121.82 152.41 128.33 145.29 128.48 145.42 121.96 152.54 121.82 152.41"/>
      <polygon class="cls-2" points="121.67 152.28 128.19 145.17 128.33 145.29 121.82 152.41 121.67 152.28"/>
      <polygon class="cls-2" points="121.53 152.16 128.04 145.04 128.19 145.17 121.67 152.28 121.53 152.16"/>
      <polygon class="cls-2" points="121.38 152.03 127.89 144.92 128.04 145.04 121.53 152.16 121.38 152.03"/>
      <polygon class="cls-2" points="121.23 151.91 127.75 144.79 127.89 144.92 121.38 152.03 121.23 151.91"/>
      <polygon class="cls-2" points="121.09 151.78 127.6 144.67 127.75 144.79 121.23 151.91 121.09 151.78"/>
      <polygon class="cls-2" points="120.94 151.66 127.46 144.54 127.6 144.67 121.09 151.78 120.94 151.66"/>
      <polygon class="cls-2" points="120.8 151.53 127.31 144.41 127.46 144.54 120.94 151.66 120.8 151.53"/>
      <polygon class="cls-2" points="120.65 151.41 127.17 144.29 127.31 144.41 120.8 151.53 120.65 151.41"/>
      <polygon class="cls-2" points="120.5 151.28 127.02 144.16 127.17 144.29 120.65 151.41 120.5 151.28"/>
      <polygon class="cls-2" points="120.36 151.16 126.87 144.04 127.02 144.16 120.5 151.28 120.36 151.16"/>
      <polygon class="cls-2" points="120.21 151.03 126.73 143.91 126.87 144.04 120.36 151.16 120.21 151.03"/>
      <polygon class="cls-2" points="120.07 150.91 126.58 143.79 126.73 143.91 120.21 151.03 120.07 150.91"/>
      <polygon class="cls-2" points="119.92 150.78 126.44 143.66 126.58 143.79 120.07 150.91 119.92 150.78"/>
      <polygon class="cls-2" points="119.77 150.66 126.29 143.54 126.44 143.66 119.92 150.78 119.77 150.66"/>
      <polygon class="cls-2" points="119.63 150.53 126.14 143.41 126.29 143.54 119.77 150.66 119.63 150.53"/>
      <polygon class="cls-2" points="119.48 150.41 126 143.29 126.14 143.41 119.63 150.53 119.48 150.41"/>
      <polygon class="cls-2" points="119.34 150.28 125.85 143.16 126 143.29 119.48 150.41 119.34 150.28"/>
      <polygon class="cls-2" points="119.19 150.16 125.7 143.04 125.85 143.16 119.34 150.28 119.19 150.16"/>
      <polygon class="cls-2" points="119.04 150.03 125.56 142.91 125.7 143.04 119.19 150.16 119.04 150.03"/>
      <polygon class="cls-2" points="118.9 149.91 125.41 142.79 125.56 142.91 119.04 150.03 118.9 149.91"/>
      <polygon class="cls-2" points="118.75 149.78 125.27 142.66 125.41 142.79 118.9 149.91 118.75 149.78"/>
      <polygon class="cls-2" points="118.61 149.65 125.12 142.54 125.27 142.66 118.75 149.78 118.61 149.65"/>
      <polygon class="cls-2" points="118.46 149.53 124.97 142.41 125.12 142.54 118.61 149.65 118.46 149.53"/>
      <polygon class="cls-2" points="118.31 149.4 124.83 142.28 124.97 142.41 118.46 149.53 118.31 149.4"/>
      <polygon class="cls-2" points="118.17 149.28 124.68 142.16 124.83 142.28 118.31 149.4 118.17 149.28"/>
      <polygon class="cls-2" points="118.02 149.15 124.54 142.03 124.68 142.16 118.17 149.28 118.02 149.15"/>
      <polygon class="cls-2" points="117.88 149.03 124.39 141.91 124.54 142.03 118.02 149.15 117.88 149.03"/>
      <polygon class="cls-2" points="117.73 148.9 124.25 141.78 124.39 141.91 117.88 149.03 117.73 148.9"/>
      <polygon class="cls-2" points="117.58 148.78 124.1 141.66 124.25 141.78 117.73 148.9 117.58 148.78"/>
      <polygon class="cls-2" points="117.44 148.65 119.65 145.86 123.84 141.43 124.1 141.66 117.58 148.78 117.44 148.65"/>
      <polygon class="cls-2" points="119.65 145.86 117.44 148.65 117.19 148.44 119.65 145.86"/>
    </g>
    <path class="cls-2" d="M124.8,152.63a.78.78,0,0,1,0-.2A.61.61,0,0,0,124.8,152.63Z"/>
    <g class="cls-138">
      <path class="cls-2" d="M124.7,152.35l-.1.1Z"/>
      <polygon class="cls-2" points="124.78 152.43 124.69 152.53 124.69 152.53 124.78 152.43 124.78 152.43"/>
      <polygon class="cls-2" points="124.78 152.43 124.69 152.53 124.69 152.53 124.78 152.43 124.78 152.43"/>
      <polygon class="cls-2" points="124.79 152.43 124.69 152.53 124.69 152.53 124.78 152.43 124.79 152.43"/>
      <polygon class="cls-2" points="124.79 152.43 124.69 152.53 124.69 152.53 124.79 152.43 124.79 152.43"/>
      <polygon class="cls-2" points="124.79 152.43 124.69 152.53 124.69 152.53 124.79 152.43 124.79 152.43"/>
      <polygon class="cls-2" points="124.79 152.44 124.7 152.53 124.69 152.53 124.79 152.43 124.79 152.44"/>
      <polygon class="cls-2" points="124.79 152.44 124.7 152.54 124.7 152.53 124.79 152.44 124.79 152.44"/>
      <polygon class="cls-2" points="124.8 152.44 124.7 152.54 124.7 152.54 124.79 152.44 124.8 152.44"/>
      <polygon class="cls-2" points="124.8 152.44 124.7 152.54 124.7 152.54 124.8 152.44 124.8 152.44"/>
      <polygon class="cls-2" points="124.8 152.44 124.7 152.54 124.7 152.54 124.8 152.44 124.8 152.44"/>
      <polygon class="cls-2" points="124.8 152.44 124.71 152.54 124.7 152.54 124.8 152.44 124.8 152.44"/>
      <polygon class="cls-2" points="124.8 152.44 124.71 152.54 124.71 152.54 124.8 152.44 124.8 152.44"/>
      <polygon class="cls-2" points="124.8 152.45 124.71 152.55 124.71 152.54 124.8 152.44 124.8 152.45"/>
      <polygon class="cls-2" points="124.81 152.45 124.71 152.55 124.71 152.55 124.8 152.45 124.81 152.45"/>
      <polygon class="cls-2" points="124.81 152.45 124.71 152.55 124.71 152.55 124.81 152.45 124.81 152.45"/>
      <polygon class="cls-2" points="124.81 152.45 124.72 152.55 124.71 152.55 124.81 152.45 124.81 152.45"/>
      <polygon class="cls-2" points="124.81 152.45 124.72 152.55 124.72 152.55 124.81 152.45 124.81 152.45"/>
      <polygon class="cls-2" points="124.81 152.45 124.72 152.55 124.72 152.55 124.81 152.45 124.81 152.45"/>
      <polygon class="cls-2" points="124.81 152.46 124.72 152.56 124.72 152.55 124.81 152.45 124.81 152.46"/>
      <polygon class="cls-2" points="124.82 152.46 124.72 152.56 124.72 152.56 124.81 152.46 124.82 152.46"/>
      <polygon class="cls-2" points="124.82 152.46 124.72 152.56 124.72 152.56 124.82 152.46 124.82 152.46"/>
      <polygon class="cls-2" points="124.82 152.46 124.72 152.56 124.72 152.56 124.82 152.46 124.82 152.46"/>
      <polygon class="cls-2" points="124.82 152.46 124.73 152.56 124.72 152.56 124.82 152.46 124.82 152.46"/>
      <polygon class="cls-2" points="124.82 152.46 124.73 152.56 124.73 152.56 124.82 152.46 124.82 152.46"/>
      <polygon class="cls-2" points="124.83 152.46 124.73 152.56 124.73 152.56 124.82 152.46 124.83 152.46"/>
      <polygon class="cls-2" points="124.83 152.47 124.73 152.57 124.73 152.56 124.83 152.46 124.83 152.47"/>
      <polygon class="cls-2" points="124.83 152.47 124.73 152.57 124.73 152.57 124.83 152.47 124.83 152.47"/>
      <polygon class="cls-2" points="124.83 152.47 124.74 152.57 124.73 152.57 124.83 152.47 124.83 152.47"/>
      <polygon class="cls-2" points="124.83 152.47 124.74 152.57 124.74 152.57 124.83 152.47 124.83 152.47"/>
      <polygon class="cls-2" points="124.83 152.47 124.74 152.57 124.74 152.57 124.83 152.47 124.83 152.47"/>
      <polygon class="cls-2" points="124.84 152.47 124.74 152.57 124.74 152.57 124.83 152.47 124.84 152.47"/>
      <polygon class="cls-2" points="124.84 152.47 124.74 152.58 124.74 152.57 124.84 152.47 124.84 152.47"/>
      <polygon class="cls-2" points="124.84 152.48 124.75 152.58 124.74 152.58 124.84 152.47 124.84 152.48"/>
      <polygon class="cls-2" points="124.84 152.48 124.75 152.58 124.75 152.58 124.84 152.48 124.84 152.48"/>
      <polygon class="cls-2" points="124.84 152.48 124.75 152.58 124.75 152.58 124.84 152.48 124.84 152.48"/>
      <polygon class="cls-2" points="124.85 152.48 124.75 152.58 124.75 152.58 124.84 152.48 124.85 152.48"/>
      <polygon class="cls-2" points="124.85 152.48 124.75 152.58 124.75 152.58 124.85 152.48 124.85 152.48"/>
      <polygon class="cls-2" points="124.85 152.48 124.75 152.59 124.75 152.58 124.85 152.48 124.85 152.48"/>
      <polygon class="cls-2" points="124.85 152.49 124.76 152.59 124.75 152.59 124.85 152.48 124.85 152.49"/>
      <polygon class="cls-2" points="124.85 152.49 124.76 152.59 124.76 152.59 124.85 152.49 124.85 152.49"/>
      <polygon class="cls-2" points="124.86 152.49 124.76 152.59 124.76 152.59 124.85 152.49 124.86 152.49"/>
      <polygon class="cls-2" points="124.86 152.49 124.76 152.59 124.76 152.59 124.86 152.49 124.86 152.49"/>
      <polygon class="cls-2" points="124.86 152.49 124.76 152.59 124.76 152.59 124.86 152.49 124.86 152.49"/>
      <polygon class="cls-2" points="124.86 152.49 124.77 152.59 124.76 152.59 124.86 152.49 124.86 152.49"/>
      <polygon class="cls-2" points="124.86 152.5 124.77 152.6 124.77 152.59 124.86 152.49 124.86 152.5"/>
      <polygon class="cls-2" points="124.86 152.5 124.77 152.6 124.77 152.6 124.86 152.5 124.86 152.5"/>
      <polygon class="cls-2" points="124.87 152.5 124.77 152.6 124.77 152.6 124.86 152.5 124.87 152.5"/>
      <polygon class="cls-2" points="124.87 152.5 124.77 152.6 124.77 152.6 124.87 152.5 124.87 152.5"/>
      <polygon class="cls-2" points="124.87 152.5 124.77 152.6 124.77 152.6 124.87 152.5 124.87 152.5"/>
      <polygon class="cls-2" points="124.87 152.5 124.78 152.6 124.77 152.6 124.87 152.5 124.87 152.5"/>
      <polygon class="cls-2" points="124.87 152.5 124.78 152.6 124.78 152.6 124.87 152.5 124.87 152.5"/>
      <polygon class="cls-2" points="124.88 152.51 124.78 152.61 124.78 152.6 124.87 152.5 124.88 152.51"/>
      <polygon class="cls-2" points="124.88 152.51 124.78 152.61 124.78 152.61 124.88 152.51 124.88 152.51"/>
      <polygon class="cls-2" points="124.88 152.51 124.78 152.61 124.78 152.61 124.88 152.51 124.88 152.51"/>
      <polygon class="cls-2" points="124.88 152.51 124.78 152.61 124.78 152.61 124.88 152.51 124.88 152.51"/>
      <polygon class="cls-2" points="124.88 152.51 124.79 152.61 124.78 152.61 124.88 152.51 124.88 152.51"/>
      <polygon class="cls-2" points="124.88 152.51 124.79 152.61 124.79 152.61 124.88 152.51 124.88 152.51"/>
      <polygon class="cls-2" points="124.89 152.51 124.79 152.62 124.79 152.61 124.88 152.51 124.89 152.51"/>
      <polygon class="cls-2" points="124.89 152.52 124.79 152.62 124.79 152.62 124.89 152.51 124.89 152.52"/>
      <polygon class="cls-2" points="124.89 152.52 124.79 152.62 124.79 152.62 124.89 152.52 124.89 152.52"/>
      <polygon class="cls-2" points="124.89 152.52 124.8 152.62 124.79 152.62 124.89 152.52 124.89 152.52"/>
      <polygon class="cls-2" points="124.89 152.52 124.8 152.62 124.8 152.62 124.89 152.52 124.89 152.52"/>
      <polygon class="cls-2" points="124.89 152.52 124.8 152.62 124.8 152.62 124.89 152.52 124.89 152.52"/>
      <polygon class="cls-2" points="124.9 152.53 124.8 152.63 124.8 152.62 124.89 152.52 124.9 152.53"/>
      <path class="cls-2" d="M124.6,152.45l.1-.1Z"/>
    </g>
    <path class="cls-2" d="M132.51,160l-.42-.08a1.33,1.33,0,0,1-.9-.75,1.68,1.68,0,0,1,.3-1.6c.33-.46.79-.83,1.16-1.26a1.93,1.93,0,0,0,.57-1.75,1.67,1.67,0,0,0-1.46-1.11c-.08,0-.17,0-.18-.1a1.79,1.79,0,0,0-1.21-2.1s0-.07.05-.17a.29.29,0,0,0,0-.15.79.79,0,0,0-.31-.38.18.18,0,0,0-.19,0c-.79.44-1.81,1.19-2.32,1.5a12.84,12.84,0,0,1-1.55.89,1.14,1.14,0,0,1-.89.09.61.61,0,0,1-.36-.67c0-.11.08-.24,0-.34a.34.34,0,0,0-.15-.1l-.57-.24a.23.23,0,0,0-.14,0,.2.2,0,0,0-.12.12,1.72,1.72,0,0,0,1.2,2.57,1.79,1.79,0,0,0,.63-.06,19.81,19.81,0,0,0,3.3-1.67c.45-.22,1.22-.43,1.53.15.16.31,0,.6-.24.83a5.42,5.42,0,0,1-.85.78c-.29.21-.91.72-.4,1.11a.39.39,0,0,0,.2.08,1.05,1.05,0,0,0,.72-.27c.29-.2.58-.41.88-.6a1.78,1.78,0,0,1,.61-.28.74.74,0,0,1,.64.16.64.64,0,0,1,.13.67,1.65,1.65,0,0,1-.41.58,7.06,7.06,0,0,0-1.45,1.68,2.4,2.4,0,0,0,0,2.14,2.43,2.43,0,0,0,1.83,1.27.9.9,0,0,0,.74-.17.4.4,0,0,0,.11-.43A.62.62,0,0,0,132.51,160Z"/>
    <g class="cls-139">
      <polygon class="cls-2" points="127.25 147.84 122.27 153.09 122.27 153.09 127.25 147.84 127.25 147.84"/>
      <polygon class="cls-2" points="127.88 148.08 122.48 153.78 122.01 153.37 127.41 147.67 127.88 148.08"/>
      <polygon class="cls-2" points="128.36 148.49 122.96 154.18 122.48 153.78 127.88 148.08 128.36 148.49"/>
      <polygon class="cls-2" points="128.36 148.49 122.96 154.18 122.96 154.18 128.36 148.49 128.36 148.49"/>
      <polygon class="cls-2" points="128.36 148.49 122.96 154.18 122.96 154.18 128.36 148.49 128.36 148.49"/>
      <polygon class="cls-2" points="128.83 148.9 123.44 154.59 122.96 154.18 128.36 148.49 128.83 148.9"/>
      <polygon class="cls-2" points="128.83 148.9 123.44 154.59 123.44 154.59 128.83 148.9 128.83 148.9"/>
      <polygon class="cls-2" points="129.31 149.31 123.91 155 123.44 154.59 128.83 148.9 129.31 149.31"/>
      <polygon class="cls-2" points="129.31 149.31 123.91 155 123.91 155 129.31 149.31 129.31 149.31"/>
      <polygon class="cls-2" points="129.78 149.71 124.39 155.41 123.91 155 129.31 149.31 129.78 149.71"/>
      <polygon class="cls-2" points="129.78 149.71 124.39 155.41 124.39 155.41 129.78 149.71 129.78 149.71"/>
      <polygon class="cls-2" points="130.26 150.12 124.86 155.82 124.39 155.41 129.78 149.71 130.26 150.12"/>
      <polygon class="cls-2" points="130.26 150.12 124.86 155.82 124.86 155.82 130.26 150.12 130.26 150.12"/>
      <polygon class="cls-2" points="130.73 150.53 125.34 156.22 124.86 155.82 130.26 150.12 130.73 150.53"/>
      <polygon class="cls-2" points="130.73 150.53 125.34 156.22 125.34 156.22 130.73 150.53 130.73 150.53"/>
      <polygon class="cls-2" points="130.73 150.53 125.34 156.22 125.34 156.22 130.73 150.53 130.73 150.53"/>
      <polygon class="cls-2" points="131.21 150.94 125.81 156.63 125.34 156.22 130.73 150.53 131.21 150.94"/>
      <polygon class="cls-2" points="131.21 150.94 125.81 156.63 125.81 156.63 131.21 150.94 131.21 150.94"/>
      <polygon class="cls-2" points="131.68 151.34 126.29 157.04 125.81 156.63 131.21 150.94 131.68 151.34"/>
      <polygon class="cls-2" points="132.16 151.75 126.76 157.45 126.29 157.04 131.68 151.34 132.16 151.75"/>
      <polygon class="cls-2" points="132.16 151.75 126.76 157.45 126.76 157.45 132.16 151.75 132.16 151.75"/>
      <polygon class="cls-2" points="132.63 152.16 127.24 157.85 126.76 157.45 132.16 151.75 132.63 152.16"/>
      <polygon class="cls-2" points="132.63 152.16 127.24 157.85 127.24 157.85 132.63 152.16 132.63 152.16"/>
      <polygon class="cls-2" points="133.11 152.57 127.71 158.26 127.24 157.85 132.63 152.16 133.11 152.57"/>
      <polygon class="cls-2" points="133.11 152.57 127.71 158.26 127.71 158.26 133.11 152.57 133.11 152.57"/>
      <polygon class="cls-2" points="133.11 152.57 127.71 158.26 127.71 158.26 133.11 152.57 133.11 152.57"/>
      <polygon class="cls-2" points="133.59 152.98 128.19 158.67 127.71 158.26 133.11 152.57 133.59 152.98"/>
      <polygon class="cls-2" points="133.59 152.98 128.19 158.67 128.19 158.67 133.59 152.98 133.59 152.98"/>
      <polygon class="cls-2" points="134.06 153.38 128.66 159.08 128.19 158.67 133.59 152.98 134.06 153.38"/>
      <polygon class="cls-2" points="134.06 153.38 128.66 159.08 128.66 159.08 134.06 153.38 134.06 153.38"/>
      <polygon class="cls-2" points="134.54 153.79 129.14 159.49 128.66 159.08 134.06 153.38 134.54 153.79"/>
      <polygon class="cls-2" points="134.54 153.79 129.14 159.49 129.14 159.49 134.54 153.79 134.54 153.79"/>
      <polygon class="cls-2" points="135.01 154.2 129.62 159.9 129.14 159.49 134.54 153.79 135.01 154.2"/>
      <polygon class="cls-2" points="135.49 154.61 130.09 160.3 129.62 159.9 135.01 154.2 135.49 154.61"/>
      <polygon class="cls-2" points="135.49 154.61 130.09 160.3 130.09 160.3 135.49 154.61 135.49 154.61"/>
      <polygon class="cls-2" points="135.49 154.61 130.09 160.3 130.09 160.3 135.49 154.61 135.49 154.61"/>
      <polygon class="cls-2" points="135.96 155.01 130.57 160.71 130.09 160.3 135.49 154.61 135.96 155.01"/>
      <polygon class="cls-2" points="135.96 155.01 130.57 160.71 130.57 160.71 135.96 155.01 135.96 155.01"/>
      <polygon class="cls-2" points="136.44 155.42 131.04 161.12 130.57 160.71 135.96 155.01 136.44 155.42"/>
      <polygon class="cls-2" points="136.44 155.42 131.04 161.12 131.04 161.12 136.44 155.42 136.44 155.42"/>
      <polygon class="cls-2" points="136.91 155.83 131.52 161.53 131.04 161.12 136.44 155.42 136.91 155.83"/>
      <polygon class="cls-2" points="136.91 155.83 131.52 161.53 131.52 161.53 136.91 155.83 136.91 155.83"/>
      <polygon class="cls-2" points="137.39 156.24 131.99 161.93 131.52 161.53 136.91 155.83 137.39 156.24"/>
      <polygon class="cls-2" points="132.25 161.66 137.23 156.41 137.23 156.41 132.25 161.66 132.25 161.66"/>
    </g>
  </g>
  <polygon class="cls-140" points="308.76 123.53 350.58 123.26 350.52 113.02 297.1 113.36 308.76 123.53"/>
  <polygon class="cls-140" points="324.42 137.18 350.67 137 350.61 126.76 312.75 127.01 324.42 137.18"/>
  <polygon class="cls-140" points="340.06 150.82 350.76 150.75 350.7 140.51 328.4 140.65 340.06 150.82"/>
  <path class="cls-3" d="M348.94,158.77c0-.15,0-.3,0-.45a13.19,13.19,0,0,0-15.49-13.06Z"/>
  <ellipse class="cls-141" cx="53.99" cy="206.69" rx="5.57" ry="6.04" transform="translate(-153.66 256.86) rotate(-88.94)"/>
  <path class="cls-142" d="M98.06,96.76,67,96.67a4.41,4.41,0,0,0-4.52,4.54l0,18.61Z"/>
  <path class="cls-142" d="M71.16,94.25l30.91-.11,60.62-39.61-.08-23.72a8.92,8.92,0,0,0-9-8.89l-82.74.29a8.92,8.92,0,0,0-8.89,9l.19,54.19A8.92,8.92,0,0,0,71.16,94.25Z"/>
  <path class="cls-3" d="M142,68V60.34a1.5,1.5,0,0,0-3,0v9.61Z"/>
  <path class="cls-4" d="M140.5,80.27a1.5,1.5,0,0,0,1.5-1.48V68l-3,1.95v8.85A1.5,1.5,0,0,0,140.5,80.27Z"/>
  <path class="cls-140" d="M194,34.1h12.24L266.5,86.85A8.79,8.79,0,0,0,266.7,85l-.19-54.13a8.91,8.91,0,0,0-9-8.88l-82.74.3a8.92,8.92,0,0,0-8.89,8.94L166,52.38Z"/>
  <path class="cls-2" d="M199.07,39.29a6.26,6.26,0,0,0,6.12-5.2H193A6.26,6.26,0,0,0,199.07,39.29Z"/>
  <g id="kitchen-l2">
  <path class="cls-140" d="M201,22.31V-8.9h-4V22.37c-.11.05-.22-.27-.33-.27h4.94C201.41,22.1,201.23,22.38,201,22.31Z"/>
  <path class="cls-140" d="M193,28.1h0Z"/>
  <rect class="cls-5" height="2" rx="0.93" ry="0.93" width="90" x="154" y="30.1"/>
  <path class="cls-5" d="M205.19,28.1H207v-6h-5.39C204.08,23.1,204.79,25.1,205.19,28.1Z"/>
  <path class="cls-5" d="M196.67,22.1H191v6h2A7.65,7.65,0,0,1,196.67,22.1Z"/>
  <path class="cls-140" d="M193,28.1h12.23c-.4-3-1.11-5-3.58-6h-4.94A7.65,7.65,0,0,0,193,28.1Z"/>
  <path class="cls-5" d="M193,28.1h12.23c-.4-3-1.11-5-3.58-6h-4.94A7.65,7.65,0,0,0,193,28.1Z"/>
  </g>
  <ellipse class="cls-141" cx="53.99" cy="206.69" rx="5.57" ry="6.04" transform="translate(-153.66 256.86) rotate(-88.94)"/>
  <path class="cls-2" d="M162.27,208.62c-.11-.42.33-27.49.33-27.49-.46.54-13.87,10-11.68,8.5l-1.28,1.09c-2.83,2-9.38,6.79-9.38,6.79l-10.84,7.44c-1.61,1.08-6.22-2.54-6.22-2.54-1.07-1.37-4.94-9.68-5.26-10.75-.29-1.47-4.37-7.89-5.34-9.15l-10.43-13A8.51,8.51,0,0,0,91,166.93c-5.48,2.86-7.15,10-4,15.25l2,3.36h0l3.56,5.75s2,6.41,2,6.44c0,4-1.61,19.15-2.34,21.71-.29,1-17.78,14.85-20.61,16.51-2.4,1.41-13.64-11.07-13.64-11.07l-12.66-13c-1-1.09.14,2.81-.23,4.23l-1.49,5.69A5,5,0,0,1,41.22,225c-1.93,1-4.77,2.41-6,2.4s-3.58,3.11-5.18,6.23l-.82.22-34.37,3.47a.1.1,0,0,0-.09.09l-2.3,73a.1.1,0,0,0,.13.09l64.32-21.79,15.14.58c11.31.19,26.1-6,36.13-9.88a100.3,100.3,0,0,0,19.91-10.79c4.74-2.64,18.35-11.4,26.78-20.76,5-5.58,7.8-9.52,8.28-18.4C163.42,224.06,163.72,214.32,162.27,208.62Z"/>
  <path class="cls-4" d="M99.74,171.79c-1.74-1.91-3.81-3.11-6.85-1.92s-5.45,5-3.59,8.13c.86,1.46,1.45,3.62,3.1,3.46.84-.08,2.28-1.44,3-1.89l6.36-4a.66.66,0,0,0,.18-.94A30.41,30.41,0,0,0,99.74,171.79Z"/>
  <path class="cls-2" d="M33.72,199.58c-1.3.72-2.5,2.74-3.18,4.15-2.35,4.89-5.14,14.11-3.15,18.91a5.71,5.71,0,0,0,3.43,3.11c4.28,1.5,13.81,3.18,15.93-10.53a16.65,16.65,0,0,0,.23-1.92Z"/>
  <path class="cls-4" d="M31.88,214.89a1.7,1.7,0,0,0-1.9,1.18,5.05,5.05,0,0,0-.14.52c-.7,3.85-.54,6.15,2.3,6.89s3.39.05,5.41-3.61a12.69,12.69,0,0,0,.75-2,1.69,1.69,0,0,0-1.35-2.16Z"/>
</svg>