<?xml version="1.0" encoding="utf-8"?>
<!-- Generator: Adobe Illustrator 20.0.0, SVG Export Plug-In . SVG Version: 6.00 Build 0)  -->
<svg version="1.1" id="Layer_1" xmlns="http://www.w3.org/2000/svg" xmlns:xlink="http://www.w3.org/1999/xlink" x="0px" y="0px"
	 viewBox="0 0 350 297.1" style="enable-background:new 0 0 350 297.1;" xml:space="preserve">
<style type="text/css">
	.st0{opacity:0.5;fill:#C1AD73;enable-background:new    ;}
	.st1{fill:#FFFFFF;}
	.st2{opacity:5.000000e-02;fill:url(#SVGID_1_);enable-background:new    ;}
	.st3{fill:#C1AD73;}
	.st4{fill:#D8CBAD;}
	.st5{opacity:0.9;fill:#FFFFFF;enable-background:new    ;}
	.st6{opacity:0.1;fill:url(#SVGID_2_);enable-background:new    ;}
	.st7{opacity:0.1;fill:url(#SVGID_3_);enable-background:new    ;}
	.st8{opacity:0.1;fill:url(#SVGID_4_);enable-background:new    ;}
	.st9{opacity:0.1;fill:url(#SVGID_5_);enable-background:new    ;}
	.st10{opacity:0.1;fill:url(#SVGID_6_);enable-background:new    ;}
	.st11{opacity:0.1;fill:url(#SVGID_7_);enable-background:new    ;}
	.st12{opacity:5.000000e-02;fill:url(#SVGID_8_);enable-background:new    ;}
	.st13{fill:#00B533;}
	.st14{clip-path:url(#SVGID_10_);}
	.st15{fill:#F8AF42;}
	.st16{fill:#F8B042;}
	.st17{fill:#F8B142;}
	.st18{fill:#F8B242;}
	.st19{fill:#F9B341;}
	.st20{fill:#F9B441;}
	.st21{fill:#F9B541;}
	.st22{fill:#F9B641;}
	.st23{fill:#F9B741;}
	.st24{fill:#F9B841;}
	.st25{fill:#F9B941;}
	.st26{fill:#FABA40;}
	.st27{fill:#FABB40;}
	.st28{fill:#FABC40;}
	.st29{fill:#FABD40;}
	.st30{fill:#FABE40;}
	.st31{fill:#FABF40;}
	.st32{fill:#FAC040;}
	.st33{fill:#FBC13F;}
	.st34{fill:#FBC23F;}
	.st35{fill:#FBC33F;}
	.st36{fill:#FBC53F;}
	.st37{fill:#FBC63F;}
	.st38{fill:#FBC73F;}
	.st39{fill:#FCC83E;}
	.st40{fill:#FCC93E;}
	.st41{fill:#FCCA3E;}
	.st42{fill:#FCCB3E;}
	.st43{fill:#FCCC3E;}
	.st44{fill:#FCCD3E;}
	.st45{fill:#FCCE3E;}
	.st46{fill:#FDCF3D;}
	.st47{fill:#FDD03D;}
	.st48{fill:#FDD13D;}
	.st49{fill:#FDD23D;}
	.st50{fill:#FDD33D;}
	.st51{fill:#FDD43D;}
	.st52{fill:#FDD53D;}
	.st53{fill:#FED63C;}
	.st54{fill:#FED73C;}
	.st55{fill:#FED83C;}
	.st56{clip-path:url(#SVGID_12_);}
	.st57{fill:#F8AB17;}
	.st58{fill:#F8AC17;}
	.st59{fill:#F8AD17;}
	.st60{fill:#F8AE17;}
	.st61{fill:#F8AF18;}
	.st62{fill:#F8B018;}
	.st63{fill:#F8B118;}
	.st64{fill:#F8B218;}
	.st65{fill:#F8B318;}
	.st66{fill:#F8B418;}
	.st67{fill:#F8B519;}
	.st68{fill:#F8B619;}
	.st69{fill:#F8B719;}
	.st70{fill:#F8B819;}
	.st71{fill:#F8B919;}
	.st72{fill:#F8BA19;}
	.st73{fill:#F8BB1A;}
	.st74{fill:#F8BC1A;}
	.st75{fill:#F8BD1A;}
	.st76{fill:#F8BE1A;}
	.st77{fill:#F8BF1A;}
	.st78{fill:#F8C01A;}
	.st79{fill:#F8C11A;}
	.st80{fill:#F8C21B;}
	.st81{fill:#F8C31B;}
	.st82{fill:#F8C41B;}
	.st83{fill:#F8C51B;}
	.st84{fill:#F8C61B;}
	.st85{fill:#F8C71B;}
	.st86{fill:#F8C81C;}
	.st87{fill:#F8C91C;}
	.st88{fill:#F8CA1C;}
	.st89{fill:#F9CC1C;}
	.st90{fill:#F9CD1C;}
	.st91{fill:#F9CE1C;}
	.st92{fill:#F9CF1D;}
	.st93{fill:#F9D01D;}
	.st94{fill:#F9D11D;}
	.st95{fill:#F9D21D;}
	.st96{fill:#F9D31D;}
	.st97{fill:#F9D41D;}
	.st98{fill:#F9D51E;}
	.st99{fill:#F9D61E;}
	.st100{fill:#F9D71E;}
	.st101{fill:#F9D81E;}
	.st102{fill:#F9D91E;}
	.st103{fill:#F9DA1E;}
	.st104{fill:#F9DB1E;}
	.st105{fill:#F9DC1F;}
	.st106{fill:#F9DD1F;}
	.st107{fill:#F9DE1F;}
	.st108{fill:#F9DF1F;}
	.st109{fill:#F9E01F;}
	.st110{fill:#F9E11F;}
	.st111{fill:#F9E220;}
	.st112{fill:#F9E320;}
	.st113{fill:#F9E420;}
	.st114{fill:#F9E520;}
	.st115{fill:#F9E620;}
	.st116{fill:#F9E720;}
	.st117{fill:#F9E821;}
	.st118{fill:#F9E921;}
	.st119{fill:#F9EA21;}
	.st120{fill:#F9EB21;}
	.st121{clip-path:url(#SVGID_14_);}
	.st122{fill:#FED93C;}
	.st123{opacity:0.1;fill:url(#SVGID_15_);enable-background:new    ;}
	.st124{opacity:0.1;fill:url(#SVGID_16_);enable-background:new    ;}
	.st125{opacity:0.1;fill:url(#SVGID_17_);enable-background:new    ;}
	.st126{opacity:0.1;fill:url(#SVGID_18_);enable-background:new    ;}
	.st127{opacity:0.1;fill:url(#SVGID_19_);enable-background:new    ;}
	.st128{fill:#CCCCCC;}
	.st129{opacity:0.1;fill:url(#SVGID_20_);enable-background:new    ;}
	.st130{fill:#ECECEC;}
	.st131{opacity:0.9;fill:#ECECEC;enable-background:new    ;}
	.st132{opacity:0.1;fill:url(#SVGID_21_);enable-background:new    ;}
	.st133{fill:#CA3B53;}
	.st134{fill:#EBBBC3;}
	.st135{fill:#FFB43B;}
	.st136{opacity:0.1;fill:url(#SVGID_22_);enable-background:new    ;}
	.st137{clip-path:url(#SVGID_24_);}
	.st138{clip-path:url(#SVGID_26_);}
	.st139{clip-path:url(#SVGID_28_);}
</style>
<title>AMMA_HereArtboard 1 copy 3</title>
<polygon class="st0" points="168.4,179.5 349.6,180.6 350.2,300.9 -5.9,299.7 79.7,187.6 "/>
<path class="st1" d="M67.1,96.6h91.2c2.6,0,4.7,2.1,4.7,4.7V213c0,2.6-2.1,4.7-4.7,4.7H67.1c-2.6,0-4.7-2.1-4.7-4.7V101.3
	C62.4,98.7,64.5,96.6,67.1,96.6z"/>
<linearGradient id="SVGID_1_" gradientUnits="userSpaceOnUse" x1="62.43" y1="140.855" x2="162.95" y2="140.855" gradientTransform="matrix(1 0 0 -1 0 298)">
	<stop  offset="0" style="stop-color:#C69C6D"/>
	<stop  offset="0.1" style="stop-color:#A3815A"/>
	<stop  offset="0.26" style="stop-color:#725A3F"/>
	<stop  offset="0.42" style="stop-color:#493A28"/>
	<stop  offset="0.58" style="stop-color:#292017"/>
	<stop  offset="0.73" style="stop-color:#120E0A"/>
	<stop  offset="0.87" style="stop-color:#050403"/>
	<stop  offset="1" style="stop-color:#000000"/>
</linearGradient>
<path class="st2" d="M67.1,96.6h91.2c2.6,0,4.7,2.1,4.7,4.7V213c0,2.6-2.1,4.7-4.7,4.7H67.1c-2.6,0-4.7-2.1-4.7-4.7V101.3
	C62.4,98.7,64.5,96.6,67.1,96.6z"/>
<path class="st3" d="M348,94.9c-1.9,0-3,1.5-3,3.4v27.9c0,1.9,1.1,3.4,3,3.4s3-1.5,3-3.4V98.3C351,96.4,349.9,94.9,348,94.9z"/>
<path class="st3" d="M341.5,94.7c-1.9,0-3.5,1.5-3.5,3.4v3.6c-1,0.1-1.9,0.7-2.4,1.5l0.6-3c0.3-1.9-1-3.7-2.9-4
	c-1.8-0.3-3.5,0.8-3.9,2.6l-4.6,22.3l-3.6-19.3c-0.3-1.9-2.1-2.8-4-2.8l0,0c-1.9,0-3.1,2.1-2.8,4l5.1,27.5c0.3,1.9,2.1,3.1,4,2.8
	c1.5-0.3,2.7-1.5,2.8-3h0.1c1.4,0.3,2.8-0.3,3.5-1.4l-0.6,3c-0.4,1.9,0.8,3.7,2.7,4.1c1.9,0.4,3.7-0.8,4.2-2.7l1.9-8.6v1.6
	c0,1.9,1.6,3.5,3.5,3.5s3.5-1.6,3.5-3.5V98.2C345,96.2,343.4,94.7,341.5,94.7z"/>
<path class="st3" d="M308.5,98.9c-0.3-1.9-2.1-3.1-4-2.8c-1.4,0.3-2.5,1.3-2.7,2.7c-0.6-1.2-1.8-2-3.2-2c-1.9,0-3.5,1.5-3.5,3.4
	v27.9c0,1.9,1.6,3.5,3.5,3.5s3.5-1.6,3.5-3.5V102l4.8,25.6c0.3,1.9,2.1,3.1,4,2.8c1.9-0.3,3.1-2.1,2.8-4L308.5,98.9z"/>
<path class="st3" d="M313.1,104.6L313.1,104.6c1.9,0,3.4,1.5,3.4,3.4v27.9c0,1.9-1.5,3.4-3.4,3.4l0,0c-1.9,0-3.4-1.5-3.4-3.4V108
	C309.7,106.1,311.2,104.6,313.1,104.6z"/>
<rect x="291.6" y="109.9" transform="matrix(1 -6.457588e-03 6.457588e-03 1 -0.8322 2.0764)" class="st4" width="59" height="40.1"/>
<rect x="291.6" y="113.1" transform="matrix(1 -6.457588e-03 6.457588e-03 1 -0.7568 2.0757)" class="st5" width="59" height="10.2"/>
<rect x="291.6" y="126.8" transform="matrix(1 -6.457588e-03 6.457588e-03 1 -0.8455 2.0766)" class="st5" width="59" height="10.2"/>
<rect x="291.7" y="140.6" transform="matrix(1 -6.457588e-03 6.457588e-03 1 -0.9343 2.0774)" class="st5" width="59" height="10.2"/>
<linearGradient id="SVGID_2_" gradientUnits="userSpaceOnUse" x1="291.5078" y1="179.7607" x2="350.5727" y2="179.7607" gradientTransform="matrix(1 0 0 -1 1.296418e-02 297.9864)">
	<stop  offset="0" style="stop-color:#C69C6D"/>
	<stop  offset="0.11" style="stop-color:#C0976A"/>
	<stop  offset="0.26" style="stop-color:#AF8A61"/>
	<stop  offset="0.42" style="stop-color:#947451"/>
	<stop  offset="0.6" style="stop-color:#6D563C"/>
	<stop  offset="0.8" style="stop-color:#3C2F21"/>
	<stop  offset="1" style="stop-color:#000000"/>
</linearGradient>
<polygon class="st6" points="350.6,123.2 291.6,123.5 291.5,113.3 350.5,112.9 "/>
<linearGradient id="SVGID_3_" gradientUnits="userSpaceOnUse" x1="291.6065" y1="166.011" x2="350.6714" y2="166.011" gradientTransform="matrix(1 0 0 -1 5.426224e-03 297.9776)">
	<stop  offset="0" style="stop-color:#C69C6D"/>
	<stop  offset="0.11" style="stop-color:#C0976A"/>
	<stop  offset="0.26" style="stop-color:#AF8A61"/>
	<stop  offset="0.42" style="stop-color:#947451"/>
	<stop  offset="0.6" style="stop-color:#6D563C"/>
	<stop  offset="0.8" style="stop-color:#3C2F21"/>
	<stop  offset="1" style="stop-color:#000000"/>
</linearGradient>
<polygon class="st7" points="350.7,136.9 291.7,137.3 291.6,127 350.6,126.7 "/>
<linearGradient id="SVGID_4_" gradientUnits="userSpaceOnUse" x1="291.6954" y1="152.2613" x2="350.7603" y2="152.2613" gradientTransform="matrix(1 0 0 -1 7.901742e-03 297.9787)">
	<stop  offset="0" style="stop-color:#C69C6D"/>
	<stop  offset="0.11" style="stop-color:#C0976A"/>
	<stop  offset="0.26" style="stop-color:#AF8A61"/>
	<stop  offset="0.42" style="stop-color:#947451"/>
	<stop  offset="0.6" style="stop-color:#6D563C"/>
	<stop  offset="0.8" style="stop-color:#3C2F21"/>
	<stop  offset="1" style="stop-color:#000000"/>
</linearGradient>
<polygon class="st8" points="350.8,150.6 291.8,151 291.7,140.8 350.7,140.4 "/>
<path class="st5" d="M70.9,22.1l82.7-0.3c4.9,0,8.9,4,9,8.9l0.2,54.2c0,4.9-4,8.9-8.9,9l-82.7,0.3c-4.9,0-8.9-4-9-8.9L62,31.1
	C62,26.2,66,22.1,70.9,22.1z"/>
<path class="st5" d="M174.8,22.1l82.7-0.3c4.9,0,8.9,4,9,8.9l0.2,54.2c0,4.9-4,8.9-8.9,9l-82.7,0.3c-4.9,0-8.9-4-9-8.9l-0.2-54.2
	C165.9,26.2,169.9,22.2,174.8,22.1z"/>
<linearGradient id="SVGID_5_" gradientUnits="userSpaceOnUse" x1="165.9195" y1="239.9897" x2="266.6881" y2="239.9897" gradientTransform="matrix(1 0 0 -1 -2.689078e-03 297.9993)">
	<stop  offset="0" style="stop-color:#C69C6D"/>
	<stop  offset="0.11" style="stop-color:#C0976A"/>
	<stop  offset="0.26" style="stop-color:#AF8A61"/>
	<stop  offset="0.42" style="stop-color:#947451"/>
	<stop  offset="0.6" style="stop-color:#6D563C"/>
	<stop  offset="0.8" style="stop-color:#3C2F21"/>
	<stop  offset="1" style="stop-color:#000000"/>
</linearGradient>
<path class="st9" d="M174.8,22.1l82.7-0.3c4.9,0,8.9,4,9,8.9l0.2,54.2c0,4.9-4,8.9-8.9,9l-82.7,0.3c-4.9,0-8.9-4-9-8.9l-0.2-54.2
	C165.9,26.2,169.9,22.2,174.8,22.1z"/>
<linearGradient id="SVGID_6_" gradientUnits="userSpaceOnUse" x1="161.9801" y1="240.2381" x2="61.2001" y2="239.7481" gradientTransform="matrix(1 0 0 -1 -1.397537e-03 297.9993)">
	<stop  offset="0" style="stop-color:#C69C6D"/>
	<stop  offset="0.11" style="stop-color:#C0976A"/>
	<stop  offset="0.26" style="stop-color:#AF8A61"/>
	<stop  offset="0.42" style="stop-color:#947451"/>
	<stop  offset="0.6" style="stop-color:#6D563C"/>
	<stop  offset="0.8" style="stop-color:#3C2F21"/>
	<stop  offset="1" style="stop-color:#000000"/>
</linearGradient>
<path class="st10" d="M70.9,22.1l82.7-0.3c4.9,0,8.9,4,9,8.9l0.2,54.2c0,4.9-4,8.9-8.9,9l-82.7,0.3c-4.9,0-8.9-4-9-8.9L62,31.1
	C62,26.2,66,22.1,70.9,22.1z"/>
<path class="st0" d="M186.9,58.8L186.9,58.8c0.8,0,1.5,0.7,1.5,1.5v18.5c0,0.8-0.7,1.5-1.5,1.5h0c-0.8,0-1.5-0.7-1.5-1.5V60.2
	C185.4,59.4,186,58.8,186.9,58.8z"/>
<path class="st1" d="M171.1,96.6h91.2c2.6,0,4.7,2.1,4.7,4.7V213c0,2.6-2.1,4.7-4.7,4.7h-91.2c-2.6,0-4.7-2.1-4.7-4.7V101.3
	C166.4,98.7,168.5,96.6,171.1,96.6z"/>
<path class="st4" d="M186.9,107.7L186.9,107.7c0.8,0,1.5,0.7,1.5,1.5v73.4c0,0.8-0.7,1.5-1.5,1.5h0c-0.8,0-1.5-0.7-1.5-1.5v-73.4
	C185.4,108.4,186,107.7,186.9,107.7z"/>
<circle class="st3" cx="303.9" cy="160.2" r="13.3"/>
<circle class="st4" cx="335.7" cy="158.2" r="13.3"/>
<ellipse class="st4" cx="288.1" cy="156.9" rx="17.2" ry="18.1"/>
<ellipse class="st4" cx="313" cy="161.1" rx="17.2" ry="18.1"/>
<linearGradient id="SVGID_7_" gradientUnits="userSpaceOnUse" x1="166.05" y1="140.695" x2="266.57" y2="140.695" gradientTransform="matrix(1 0 0 -1 0 298)">
	<stop  offset="0" style="stop-color:#C69C6D"/>
	<stop  offset="0.11" style="stop-color:#C0976A"/>
	<stop  offset="0.26" style="stop-color:#AF8A61"/>
	<stop  offset="0.42" style="stop-color:#947451"/>
	<stop  offset="0.6" style="stop-color:#6D563C"/>
	<stop  offset="0.8" style="stop-color:#3C2F21"/>
	<stop  offset="1" style="stop-color:#000000"/>
</linearGradient>
<path class="st11" d="M170.7,96.8h91.2c2.6,0,4.7,2.1,4.7,4.7v111.7c0,2.6-2.1,4.7-4.7,4.7h-91.2c-2.6,0-4.7-2.1-4.7-4.7V101.5
	C166.1,98.9,168.1,96.8,170.7,96.8z"/>
<circle class="st4" cx="267.9" cy="156.6" r="13.3"/>
<ellipse transform="matrix(1.849939e-02 -0.9998 0.9998 1.849939e-02 -153.5813 256.7732)" class="st1" cx="54" cy="206.6" rx="5.6" ry="6"/>
<linearGradient id="SVGID_8_" gradientUnits="userSpaceOnUse" x1="180.2991" y1="265.28" x2="171.0291" y2="-82.66" gradientTransform="matrix(1 0 0 -1 0 298)">
	<stop  offset="0" style="stop-color:#C69C6D"/>
	<stop  offset="0.1" style="stop-color:#A3815A"/>
	<stop  offset="0.26" style="stop-color:#725A3F"/>
	<stop  offset="0.42" style="stop-color:#493A28"/>
	<stop  offset="0.58" style="stop-color:#292017"/>
	<stop  offset="0.73" style="stop-color:#120E0A"/>
	<stop  offset="0.87" style="stop-color:#050403"/>
	<stop  offset="1" style="stop-color:#000000"/>
</linearGradient>
<polygon class="st12" points="206.2,33 350.2,158.7 350.1,294.6 0.7,296.2 0.2,159.2 194,33 "/>
<path class="st13" d="M125.9,146.1c0,0,1.2-0.4,1-2.4C126.9,143.7,124.6,144.8,125.9,146.1z"/>
<path class="st13" d="M126.3,146.6c1.2,1.7,3.6-0.6,3.6-0.6C126.9,145.3,126.3,146.4,126.3,146.6L126.3,146.6z"/>
<g>
	<defs>
		<path id="SVGID_9_" d="M123.9,151.6c0-0.1,0.1-0.1,0.2-0.1c0,0,0,0,0,0l0.6,0.2c0.2,0.1,0.2,0.1,0.2,0.2c0.4-0.6,0.9-1.1,1.6-1.4
			l4.2-2.8c0.2-0.1,0.2-0.4,0.1-0.6c0,0,0,0,0-0.1c-0.2-0.3-0.4-0.2-0.6-0.1s-4.8,2.8-4.8,2.8s-2.7,1.9-4.2,0
			c-0.1-0.2-0.2-0.4-0.3-0.6c0-0.2,0-0.4,0-0.6c0.1-0.6,0.5-1.1,1.1-1.4c0.4-0.2,0.8-0.4,1.3-0.5c0.1,0,0.3,0,0.4,0
			c0.5,0,0.9,0.1,1.3,0.4c0.2,0.2,0.3,0.3,0.5,0.5c0.1,0.2,0.4,0.3,0.6,0.2c0.2,0,0.3-0.2,0.3-0.3c0-0.3-0.5-0.8-0.6-0.9
			c-1.1-1-2.8-1.1-4.1-0.4c-0.2,0.1-3.8,2-1.1,5C121.4,152.1,122.7,152.2,123.9,151.6L123.9,151.6z"/>
	</defs>
	<clipPath id="SVGID_10_">
		<use xlink:href="#SVGID_9_"  style="overflow:visible;"/>
	</clipPath>
	<g class="st14">
		<polygon class="st15" points="123.3,153.6 129.8,146.4 131,147.5 124.3,154.5 		"/>
		<polygon class="st15" points="123.1,153.4 129.6,146.3 129.8,146.4 123.3,153.6 		"/>
		<polygon class="st16" points="123,153.3 129.5,146.2 129.6,146.3 123.1,153.4 		"/>
		<polygon class="st17" points="122.8,153.2 129.4,146.1 129.5,146.2 123,153.3 		"/>
		<polygon class="st18" points="122.7,153.1 129.2,145.9 129.4,146.1 122.8,153.2 		"/>
		<polygon class="st19" points="122.6,152.9 129.1,145.8 129.2,145.9 122.7,153.1 		"/>
		<polygon class="st20" points="122.4,152.8 128.9,145.7 129.1,145.8 122.6,152.9 		"/>
		<polygon class="st21" points="122.3,152.7 128.8,145.6 128.9,145.7 122.4,152.8 		"/>
		<polygon class="st22" points="122.1,152.6 128.6,145.4 128.8,145.6 122.3,152.7 		"/>
		<polygon class="st23" points="122,152.4 128.5,145.3 128.6,145.4 122.1,152.6 		"/>
		<polygon class="st24" points="121.8,152.3 128.3,145.2 128.5,145.3 122,152.4 		"/>
		<polygon class="st25" points="121.7,152.2 128.2,145.1 128.3,145.2 121.8,152.3 		"/>
		<polygon class="st26" points="121.5,152.1 128,144.9 128.2,145.1 121.7,152.2 		"/>
		<polygon class="st27" points="121.4,151.9 127.9,144.8 128,144.9 121.5,152.1 		"/>
		<polygon class="st28" points="121.2,151.8 127.8,144.7 127.9,144.8 121.4,151.9 		"/>
		<polygon class="st29" points="121.1,151.7 127.6,144.6 127.8,144.7 121.2,151.8 		"/>
		<polygon class="st30" points="120.9,151.6 127.5,144.4 127.6,144.6 121.1,151.7 		"/>
		<polygon class="st31" points="120.8,151.4 127.3,144.3 127.5,144.4 120.9,151.6 		"/>
		<polygon class="st32" points="120.7,151.3 127.2,144.2 127.3,144.3 120.8,151.4 		"/>
		<polygon class="st33" points="120.5,151.2 127,144.1 127.2,144.2 120.7,151.3 		"/>
		<polygon class="st34" points="120.4,151.1 126.9,143.9 127,144.1 120.5,151.2 		"/>
		<polygon class="st35" points="120.2,150.9 126.7,143.8 126.9,143.9 120.4,151.1 		"/>
		<polygon class="st36" points="120.1,150.8 126.6,143.7 126.7,143.8 120.2,150.9 		"/>
		<polygon class="st37" points="119.9,150.7 126.4,143.6 126.6,143.7 120.1,150.8 		"/>
		<polygon class="st38" points="119.8,150.6 126.3,143.4 126.4,143.6 119.9,150.7 		"/>
		<polygon class="st39" points="119.6,150.4 126.1,143.3 126.3,143.4 119.8,150.6 		"/>
		<polygon class="st40" points="119.5,150.3 126,143.2 126.1,143.3 119.6,150.4 		"/>
		<polygon class="st41" points="119.3,150.2 125.8,143.1 126,143.2 119.5,150.3 		"/>
		<polygon class="st42" points="119.2,150.1 125.7,142.9 125.8,143.1 119.3,150.2 		"/>
		<polygon class="st43" points="119,149.9 125.6,142.8 125.7,142.9 119.2,150.1 		"/>
		<polygon class="st44" points="118.9,149.8 125.4,142.7 125.6,142.8 119,149.9 		"/>
		<polygon class="st45" points="118.8,149.7 125.3,142.6 125.4,142.7 118.9,149.8 		"/>
		<polygon class="st46" points="118.6,149.6 125.1,142.4 125.3,142.6 118.8,149.7 		"/>
		<polygon class="st47" points="118.5,149.4 125,142.3 125.1,142.4 118.6,149.6 		"/>
		<polygon class="st48" points="118.3,149.3 124.8,142.2 125,142.3 118.5,149.4 		"/>
		<polygon class="st49" points="118.2,149.2 124.7,142.1 124.8,142.2 118.3,149.3 		"/>
		<polygon class="st50" points="118,149.1 124.5,141.9 124.7,142.1 118.2,149.2 		"/>
		<polygon class="st51" points="117.9,148.9 124.4,141.8 124.5,141.9 118,149.1 		"/>
		<polygon class="st52" points="117.7,148.8 124.2,141.7 124.4,141.8 117.9,148.9 		"/>
		<polygon class="st53" points="117.6,148.7 124.1,141.6 124.2,141.7 117.7,148.8 		"/>
		<polygon class="st54" points="117.4,148.6 119.7,145.8 123.8,141.3 124.1,141.6 117.6,148.7 		"/>
		<polygon class="st55" points="119.7,145.8 117.4,148.6 117.2,148.4 		"/>
	</g>
</g>
<g>
	<defs>
		<path id="SVGID_11_" d="M124.8,152.5c0-0.1,0-0.1,0-0.2C124.8,152.4,124.8,152.5,124.8,152.5z"/>
	</defs>
	<clipPath id="SVGID_12_">
		<use xlink:href="#SVGID_11_"  style="overflow:visible;"/>
	</clipPath>
	<g class="st56">
		<path class="st57" d="M124.7,152.2l-0.1,0.1L124.7,152.2z"/>
		<polygon class="st57" points="124.8,152.3 124.7,152.4 124.7,152.4 124.8,152.3 		"/>
		<polygon class="st58" points="124.8,152.3 124.7,152.4 124.7,152.4 124.8,152.3 		"/>
		<polygon class="st59" points="124.8,152.3 124.7,152.4 124.7,152.4 124.8,152.3 		"/>
		<polygon class="st60" points="124.8,152.3 124.7,152.4 124.7,152.4 124.8,152.3 		"/>
		<polygon class="st61" points="124.8,152.3 124.7,152.4 124.7,152.4 124.8,152.3 		"/>
		<polygon class="st62" points="124.8,152.3 124.7,152.4 124.7,152.4 124.8,152.3 		"/>
		<polygon class="st63" points="124.8,152.3 124.7,152.4 124.7,152.4 124.8,152.3 		"/>
		<polygon class="st64" points="124.8,152.3 124.7,152.4 124.7,152.4 124.8,152.3 		"/>
		<polygon class="st65" points="124.8,152.3 124.7,152.4 124.7,152.4 124.8,152.3 		"/>
		<polygon class="st66" points="124.8,152.3 124.7,152.4 124.7,152.4 124.8,152.3 		"/>
		<polygon class="st67" points="124.8,152.3 124.7,152.4 124.7,152.4 124.8,152.3 		"/>
		<polygon class="st68" points="124.8,152.4 124.7,152.4 124.7,152.4 124.8,152.3 		"/>
		<polygon class="st69" points="124.8,152.4 124.7,152.4 124.7,152.4 124.8,152.4 		"/>
		<polygon class="st70" points="124.8,152.4 124.7,152.4 124.7,152.4 124.8,152.4 		"/>
		<polygon class="st71" points="124.8,152.4 124.7,152.4 124.7,152.4 124.8,152.4 		"/>
		<polygon class="st72" points="124.8,152.4 124.7,152.4 124.7,152.4 124.8,152.4 		"/>
		<polygon class="st73" points="124.8,152.4 124.7,152.5 124.7,152.4 124.8,152.4 		"/>
		<polygon class="st74" points="124.8,152.4 124.7,152.5 124.7,152.5 124.8,152.4 		"/>
		<polygon class="st75" points="124.8,152.4 124.7,152.5 124.7,152.5 124.8,152.4 		"/>
		<polygon class="st76" points="124.8,152.4 124.7,152.5 124.7,152.5 124.8,152.4 		"/>
		<polygon class="st77" points="124.8,152.4 124.7,152.5 124.7,152.5 124.8,152.4 		"/>
		<polygon class="st78" points="124.8,152.4 124.7,152.5 124.7,152.5 124.8,152.4 		"/>
		<polygon class="st79" points="124.8,152.4 124.7,152.5 124.7,152.5 124.8,152.4 		"/>
		<polygon class="st80" points="124.8,152.4 124.7,152.5 124.7,152.5 124.8,152.4 		"/>
		<polygon class="st81" points="124.8,152.4 124.7,152.5 124.7,152.5 124.8,152.4 		"/>
		<polygon class="st82" points="124.8,152.4 124.7,152.5 124.7,152.5 124.8,152.4 		"/>
		<polygon class="st83" points="124.8,152.4 124.7,152.5 124.7,152.5 124.8,152.4 		"/>
		<polygon class="st84" points="124.8,152.4 124.7,152.5 124.7,152.5 124.8,152.4 		"/>
		<polygon class="st85" points="124.8,152.4 124.7,152.5 124.7,152.5 124.8,152.4 		"/>
		<polygon class="st86" points="124.8,152.4 124.7,152.5 124.7,152.5 124.8,152.4 		"/>
		<polygon class="st87" points="124.8,152.4 124.7,152.5 124.7,152.5 124.8,152.4 		"/>
		<polygon class="st88" points="124.8,152.4 124.7,152.5 124.7,152.5 124.8,152.4 		"/>
		<polygon class="st89" points="124.8,152.4 124.8,152.5 124.7,152.5 124.8,152.4 		"/>
		<polygon class="st90" points="124.8,152.4 124.8,152.5 124.8,152.5 124.8,152.4 		"/>
		<polygon class="st91" points="124.8,152.4 124.8,152.5 124.8,152.5 124.8,152.4 		"/>
		<polygon class="st92" points="124.8,152.4 124.8,152.5 124.8,152.5 124.8,152.4 		"/>
		<polygon class="st93" points="124.8,152.4 124.8,152.5 124.8,152.5 124.8,152.4 		"/>
		<polygon class="st94" points="124.8,152.4 124.8,152.5 124.8,152.5 124.8,152.4 		"/>
		<polygon class="st95" points="124.8,152.4 124.8,152.5 124.8,152.5 124.8,152.4 		"/>
		<polygon class="st96" points="124.8,152.4 124.8,152.5 124.8,152.5 124.8,152.4 		"/>
		<polygon class="st97" points="124.9,152.4 124.8,152.5 124.8,152.5 124.8,152.4 		"/>
		<polygon class="st98" points="124.9,152.4 124.8,152.5 124.8,152.5 124.9,152.4 		"/>
		<polygon class="st99" points="124.9,152.4 124.8,152.5 124.8,152.5 124.9,152.4 		"/>
		<polygon class="st100" points="124.9,152.4 124.8,152.5 124.8,152.5 124.9,152.4 		"/>
		<polygon class="st101" points="124.9,152.4 124.8,152.5 124.8,152.5 124.9,152.4 		"/>
		<polygon class="st102" points="124.9,152.4 124.8,152.5 124.8,152.5 124.9,152.4 		"/>
		<polygon class="st103" points="124.9,152.4 124.8,152.5 124.8,152.5 124.9,152.4 		"/>
		<polygon class="st104" points="124.9,152.4 124.8,152.5 124.8,152.5 124.9,152.4 		"/>
		<polygon class="st105" points="124.9,152.4 124.8,152.5 124.8,152.5 124.9,152.4 		"/>
		<polygon class="st106" points="124.9,152.4 124.8,152.5 124.8,152.5 124.9,152.4 		"/>
		<polygon class="st107" points="124.9,152.4 124.8,152.5 124.8,152.5 124.9,152.4 		"/>
		<polygon class="st108" points="124.9,152.4 124.8,152.5 124.8,152.5 124.9,152.4 		"/>
		<polygon class="st109" points="124.9,152.4 124.8,152.5 124.8,152.5 124.9,152.4 		"/>
		<polygon class="st110" points="124.9,152.4 124.8,152.5 124.8,152.5 124.9,152.4 		"/>
		<polygon class="st111" points="124.9,152.4 124.8,152.5 124.8,152.5 124.9,152.4 		"/>
		<polygon class="st112" points="124.9,152.4 124.8,152.5 124.8,152.5 124.9,152.4 		"/>
		<polygon class="st113" points="124.9,152.4 124.8,152.5 124.8,152.5 124.9,152.4 		"/>
		<polygon class="st114" points="124.9,152.4 124.8,152.5 124.8,152.5 124.9,152.4 		"/>
		<polygon class="st115" points="124.9,152.4 124.8,152.5 124.8,152.5 124.9,152.4 		"/>
		<polygon class="st116" points="124.9,152.4 124.8,152.5 124.8,152.5 124.9,152.4 		"/>
		<polygon class="st117" points="124.9,152.4 124.8,152.5 124.8,152.5 124.9,152.4 		"/>
		<polygon class="st118" points="124.9,152.4 124.8,152.5 124.8,152.5 124.9,152.4 		"/>
		<polygon class="st119" points="124.9,152.4 124.8,152.5 124.8,152.5 124.9,152.4 		"/>
		<polygon class="st120" points="124.9,152.4 124.8,152.5 124.8,152.5 124.9,152.4 		"/>
		<path class="st120" d="M124.6,152.4l0.1-0.1L124.6,152.4z"/>
	</g>
</g>
<g>
	<defs>
		<path id="SVGID_13_" d="M132.5,159.9l-0.4-0.1c-0.4-0.1-0.7-0.4-0.9-0.8c-0.2-0.5-0.1-1.2,0.3-1.6c0.3-0.5,0.8-0.8,1.2-1.3
			c0.5-0.4,0.7-1.1,0.6-1.8c-0.2-0.6-0.8-1.1-1.5-1.1c-0.1,0-0.2,0-0.2-0.1c0.2-0.9-0.3-1.8-1.2-2.1c0,0,0-0.1,0.1-0.2
			c0,0,0-0.1,0-0.1c-0.1-0.2-0.2-0.3-0.3-0.4c-0.1,0-0.1,0-0.2,0c-0.8,0.4-1.8,1.2-2.3,1.5c-0.5,0.3-1,0.6-1.6,0.9
			c-0.3,0.2-0.6,0.2-0.9,0.1c-0.3-0.1-0.4-0.4-0.4-0.7c0-0.1,0.1-0.2,0-0.3c0,0-0.1-0.1-0.2-0.1l-0.6-0.2c0,0-0.1,0-0.1,0
			c-0.1,0-0.1,0.1-0.1,0.1c-0.5,0.8-0.2,1.9,0.6,2.4c0.2,0.1,0.4,0.2,0.6,0.2c0.2,0,0.4,0,0.6-0.1c1.1-0.5,2.3-1,3.3-1.7
			c0.4-0.2,1.2-0.4,1.5,0.1c0.2,0.3,0,0.6-0.2,0.8c-0.3,0.3-0.5,0.6-0.9,0.8c-0.3,0.2-0.9,0.7-0.4,1.1c0.1,0,0.1,0.1,0.2,0.1
			c0.3,0,0.5-0.1,0.7-0.3c0.3-0.2,0.6-0.4,0.9-0.6c0.2-0.1,0.4-0.2,0.6-0.3c0.2,0,0.5,0,0.6,0.2c0.2,0.2,0.2,0.4,0.1,0.7
			c-0.1,0.2-0.2,0.4-0.4,0.6c-0.6,0.5-1.1,1-1.4,1.7c-0.3,0.7-0.3,1.5,0,2.1c0.4,0.7,1.1,1.2,1.8,1.3c0.3,0.1,0.5,0,0.7-0.2
			c0.1-0.1,0.2-0.3,0.1-0.4C132.9,160.1,132.7,159.9,132.5,159.9z"/>
	</defs>
	<clipPath id="SVGID_14_">
		<use xlink:href="#SVGID_13_"  style="overflow:visible;"/>
	</clipPath>
	<g class="st121">
		<polygon class="st15" points="127.2,147.8 122.3,153 122.3,153 127.2,147.8 		"/>
		<polygon class="st15" points="127.9,148 122.5,153.7 122,153.3 127.4,147.6 		"/>
		<polygon class="st16" points="128.4,148.4 123,154.1 122.5,153.7 127.9,148 		"/>
		<polygon class="st17" points="128.4,148.4 123,154.1 123,154.1 128.4,148.4 		"/>
		<polygon class="st18" points="128.4,148.4 123,154.1 123,154.1 128.4,148.4 		"/>
		<polygon class="st19" points="128.8,148.8 123.4,154.5 123,154.1 128.4,148.4 		"/>
		<polygon class="st20" points="128.8,148.8 123.4,154.5 123.4,154.5 128.8,148.8 		"/>
		<polygon class="st21" points="129.3,149.2 123.9,154.9 123.4,154.5 128.8,148.8 		"/>
		<polygon class="st22" points="129.3,149.2 123.9,154.9 123.9,154.9 129.3,149.2 		"/>
		<polygon class="st23" points="129.8,149.6 124.4,155.3 123.9,154.9 129.3,149.2 		"/>
		<polygon class="st24" points="129.8,149.6 124.4,155.3 124.4,155.3 129.8,149.6 		"/>
		<polygon class="st25" points="130.3,150 124.9,155.7 124.4,155.3 129.8,149.6 		"/>
		<polygon class="st26" points="130.3,150 124.9,155.7 124.9,155.7 130.3,150 		"/>
		<polygon class="st27" points="130.7,150.4 125.3,156.1 124.9,155.7 130.3,150 		"/>
		<polygon class="st28" points="130.7,150.4 125.3,156.1 125.3,156.1 130.7,150.4 		"/>
		<polygon class="st29" points="130.7,150.4 125.3,156.1 125.3,156.1 130.7,150.4 		"/>
		<polygon class="st30" points="131.2,150.8 125.8,156.5 125.3,156.1 130.7,150.4 		"/>
		<polygon class="st31" points="131.2,150.8 125.8,156.5 125.8,156.5 131.2,150.8 		"/>
		<polygon class="st32" points="131.7,151.2 126.3,156.9 125.8,156.5 131.2,150.8 		"/>
		<polygon class="st33" points="132.2,151.6 126.8,157.4 126.3,156.9 131.7,151.2 		"/>
		<polygon class="st34" points="132.2,151.6 126.8,157.4 126.8,157.4 132.2,151.6 		"/>
		<polygon class="st35" points="132.6,152.1 127.2,157.8 126.8,157.4 132.2,151.6 		"/>
		<polygon class="st36" points="132.6,152.1 127.2,157.8 127.2,157.8 132.6,152.1 		"/>
		<polygon class="st37" points="133.1,152.5 127.7,158.2 127.2,157.8 132.6,152.1 		"/>
		<polygon class="st38" points="133.1,152.5 127.7,158.2 127.7,158.2 133.1,152.5 		"/>
		<polygon class="st39" points="133.1,152.5 127.7,158.2 127.7,158.2 133.1,152.5 		"/>
		<polygon class="st40" points="133.6,152.9 128.2,158.6 127.7,158.2 133.1,152.5 		"/>
		<polygon class="st41" points="133.6,152.9 128.2,158.6 128.2,158.6 133.6,152.9 		"/>
		<polygon class="st42" points="134.1,153.3 128.7,159 128.2,158.6 133.6,152.9 		"/>
		<polygon class="st43" points="134.1,153.3 128.7,159 128.7,159 134.1,153.3 		"/>
		<polygon class="st44" points="134.5,153.7 129.1,159.4 128.7,159 134.1,153.3 		"/>
		<polygon class="st45" points="134.5,153.7 129.1,159.4 129.1,159.4 134.5,153.7 		"/>
		<polygon class="st46" points="135,154.1 129.6,159.8 129.1,159.4 134.5,153.7 		"/>
		<polygon class="st47" points="135.5,154.5 130.1,160.2 129.6,159.8 135,154.1 		"/>
		<polygon class="st48" points="135.5,154.5 130.1,160.2 130.1,160.2 135.5,154.5 		"/>
		<polygon class="st49" points="135.5,154.5 130.1,160.2 130.1,160.2 135.5,154.5 		"/>
		<polygon class="st50" points="136,154.9 130.6,160.6 130.1,160.2 135.5,154.5 		"/>
		<polygon class="st51" points="136,154.9 130.6,160.6 130.6,160.6 136,154.9 		"/>
		<polygon class="st52" points="136.4,155.3 131,161 130.6,160.6 136,154.9 		"/>
		<polygon class="st53" points="136.4,155.3 131,161 131,161 136.4,155.3 		"/>
		<polygon class="st54" points="136.9,155.7 131.5,161.4 131,161 136.4,155.3 		"/>
		<polygon class="st55" points="136.9,155.7 131.5,161.4 131.5,161.4 136.9,155.7 		"/>
		<polygon class="st122" points="137.4,156.1 132,161.8 131.5,161.4 136.9,155.7 		"/>
		<polygon class="st122" points="132.2,161.6 137.2,156.3 137.2,156.3 132.2,161.6 		"/>
	</g>
</g>
<rect x="249.5" y="155.9" class="st4" width="99.8" height="67.8"/>
<rect x="249.5" y="159.9" class="st1" width="99.8" height="9.1"/>
<rect x="249.5" y="173.5" class="st1" width="99.8" height="9.1"/>
<rect x="249.5" y="187.2" class="st1" width="99.8" height="9.1"/>
<rect x="249.5" y="200.8" class="st1" width="99.8" height="9.1"/>
<rect x="249.4" y="214.5" class="st1" width="99.8" height="9.1"/>
<linearGradient id="SVGID_15_" gradientUnits="userSpaceOnUse" x1="249.48" y1="133.61" x2="349.28" y2="133.61" gradientTransform="matrix(1 0 0 -1 0 298)">
	<stop  offset="0" style="stop-color:#C69C6D"/>
	<stop  offset="0.11" style="stop-color:#C0976A"/>
	<stop  offset="0.26" style="stop-color:#AF8A61"/>
	<stop  offset="0.42" style="stop-color:#947451"/>
	<stop  offset="0.6" style="stop-color:#6D563C"/>
	<stop  offset="0.8" style="stop-color:#3C2F21"/>
	<stop  offset="1" style="stop-color:#000000"/>
</linearGradient>
<rect x="249.5" y="159.9" class="st123" width="99.8" height="9.1"/>
<linearGradient id="SVGID_16_" gradientUnits="userSpaceOnUse" x1="249.48" y1="119.96" x2="349.28" y2="119.96" gradientTransform="matrix(1 0 0 -1 0 298)">
	<stop  offset="0" style="stop-color:#C69C6D"/>
	<stop  offset="0.11" style="stop-color:#C0976A"/>
	<stop  offset="0.26" style="stop-color:#AF8A61"/>
	<stop  offset="0.42" style="stop-color:#947451"/>
	<stop  offset="0.6" style="stop-color:#6D563C"/>
	<stop  offset="0.8" style="stop-color:#3C2F21"/>
	<stop  offset="1" style="stop-color:#000000"/>
</linearGradient>
<rect x="249.5" y="173.5" class="st124" width="99.8" height="9.1"/>
<linearGradient id="SVGID_17_" gradientUnits="userSpaceOnUse" x1="249.48" y1="106.3" x2="349.28" y2="106.3" gradientTransform="matrix(1 0 0 -1 0 298)">
	<stop  offset="0" style="stop-color:#C69C6D"/>
	<stop  offset="0.11" style="stop-color:#C0976A"/>
	<stop  offset="0.26" style="stop-color:#AF8A61"/>
	<stop  offset="0.42" style="stop-color:#947451"/>
	<stop  offset="0.6" style="stop-color:#6D563C"/>
	<stop  offset="0.8" style="stop-color:#3C2F21"/>
	<stop  offset="1" style="stop-color:#000000"/>
</linearGradient>
<rect x="249.5" y="187.2" class="st125" width="99.8" height="9.1"/>
<linearGradient id="SVGID_18_" gradientUnits="userSpaceOnUse" x1="249.48" y1="92.65" x2="349.28" y2="92.65" gradientTransform="matrix(1 0 0 -1 0 298)">
	<stop  offset="0" style="stop-color:#C69C6D"/>
	<stop  offset="0.11" style="stop-color:#C0976A"/>
	<stop  offset="0.26" style="stop-color:#AF8A61"/>
	<stop  offset="0.42" style="stop-color:#947451"/>
	<stop  offset="0.6" style="stop-color:#6D563C"/>
	<stop  offset="0.8" style="stop-color:#3C2F21"/>
	<stop  offset="1" style="stop-color:#000000"/>
</linearGradient>
<rect x="249.5" y="200.8" class="st126" width="99.8" height="9.1"/>
<linearGradient id="SVGID_19_" gradientUnits="userSpaceOnUse" x1="249.44" y1="78.95" x2="349.24" y2="78.95" gradientTransform="matrix(1 0 0 -1 0 298)">
	<stop  offset="0" style="stop-color:#C69C6D"/>
	<stop  offset="0.11" style="stop-color:#C0976A"/>
	<stop  offset="0.26" style="stop-color:#AF8A61"/>
	<stop  offset="0.42" style="stop-color:#947451"/>
	<stop  offset="0.6" style="stop-color:#6D563C"/>
	<stop  offset="0.8" style="stop-color:#3C2F21"/>
	<stop  offset="1" style="stop-color:#000000"/>
</linearGradient>
<rect x="249.4" y="214.5" class="st127" width="99.8" height="9.1"/>
<polygon class="st128" points="308.8,123.4 350.6,123.2 350.5,112.9 297.1,113.3 "/>
<polygon class="st128" points="324.4,137.1 350.7,136.9 350.6,126.7 312.8,126.9 "/>
<polygon class="st128" points="340.1,150.7 350.8,150.6 350.7,140.4 328.4,140.6 "/>
<path class="st3" d="M348.9,158.7c0-0.1,0-0.3,0-0.4c0-7.3-5.8-13.2-13.1-13.3c-0.8,0-1.6,0.1-2.4,0.2L348.9,158.7z"/>
<linearGradient id="SVGID_20_" gradientUnits="userSpaceOnUse" x1="47.96" y1="91.3959" x2="60.0397" y2="91.3959" gradientTransform="matrix(1 0 0 -1 6.234743e-03 298.0071)">
	<stop  offset="0" style="stop-color:#C69C6D"/>
	<stop  offset="0.11" style="stop-color:#C0976A"/>
	<stop  offset="0.26" style="stop-color:#AF8A61"/>
	<stop  offset="0.42" style="stop-color:#947451"/>
	<stop  offset="0.6" style="stop-color:#6D563C"/>
	<stop  offset="0.8" style="stop-color:#3C2F21"/>
	<stop  offset="1" style="stop-color:#000000"/>
</linearGradient>
<path class="st129" d="M48,206.5c0.1-3.1,2.8-5.5,6.1-5.5c3.3,0.1,6,2.6,5.9,5.7s-2.8,5.5-6.1,5.5C50.6,212.1,47.9,209.6,48,206.5z"
	/>
<path class="st130" d="M98.1,96.7L67,96.6c-2.4-0.1-4.5,1.9-4.5,4.3c0,0.1,0,0.2,0,0.2v18.6L98.1,96.7z"/>
<path class="st130" d="M71.2,94.2l30.9-0.2l60.6-39.6l-0.1-23.7c0-4.9-4-8.9-8.9-8.9c0,0,0,0-0.1,0l-82.7,0.3c-4.9,0-8.9,4-8.9,8.9
	c0,0,0,0,0,0.1l0.2,54.2C62.2,90.2,66.2,94.2,71.2,94.2C71.1,94.2,71.1,94.2,71.2,94.2z"/>
<path class="st3" d="M142,67.9v-7.7c0-0.8-0.7-1.5-1.5-1.5s-1.5,0.7-1.5,1.5v9.6L142,67.9z"/>
<path class="st4" d="M140.5,80.2c0.8,0,1.5-0.7,1.5-1.5V67.9l-3,1.9v8.8C139,79.5,139.7,80.2,140.5,80.2z"/>
<path class="st131" d="M194,34h12.2l60.3,52.8c0.1-0.6,0.2-1.2,0.2-1.8l-0.2-54.1c0-4.9-4-8.9-8.9-8.9c0,0,0,0-0.1,0l-82.7,0.3
	c-4.9,0-8.9,4-8.9,8.9l0.1,21.2L194,34z"/>
<path class="st1" d="M199.1,39.2c3,0,5.6-2.2,6.1-5.2H193C193.5,37,196.1,39.2,199.1,39.2z"/>
<path class="st131" d="M201,22.2V-9h-4v31.3c-0.1,0-0.2-0.3-0.3-0.3h4.9C201.4,22,201.2,22.3,201,22.2z"/>
<path class="st5" d="M154.9,30h88.1c0.5,0,0.9,0.4,0.9,0.9v0.1c0,0.5-0.4,0.9-0.9,0.9h-88.1c-0.5,0-0.9-0.4-0.9-0.9v-0.1
	C154,30.4,154.4,30,154.9,30z"/>
<path class="st5" d="M205.2,28h1.8v-6h-5.4C204.1,23,204.8,25,205.2,28z"/>
<path class="st5" d="M196.7,22H191v6h2C193.2,25.5,194.5,23.3,196.7,22z"/>
<path class="st131" d="M193,28h12.2c-0.4-3-1.1-5-3.6-6h-4.9C194.6,23.3,193.2,25.5,193,28z"/>
<path class="st5" d="M193,28h12.2c-0.4-3-1.1-5-3.6-6h-4.9C194.6,23.3,193.2,25.5,193,28z"/>
<path class="st4" d="M99.2,169l0.8,1.3c0.4,0.6,0.1,1.5-0.5,1.8c0,0-0.1,0-0.1,0.1l-7.3,3.3c-0.5,0.2-1.1,0-1.3-0.5c0,0,0,0,0,0
	c-0.8-1.7-2-5.3,0.5-7.3c0.6-0.6,1.4-1,2.2-1.2C95.9,165.9,97.7,166.9,99.2,169z"/>
<path class="st130" d="M161.7,205.3c-0.1-0.4-11.6-13.8-11.6-13.8c-0.4-0.2,0-0.6-0.6-0.1l-8.8,6.1l-10,7.5c-1.8,1-6.2,5.4-8.1,4.2
	l-1.9-0.5c-1.4-0.4-1.6-4-1.5-5.4l-0.6-11.1c0-2.7-0.8-5.3-2.4-7.4l-14-17.7c-3.4-4.3-8.5-4.7-12.8-1.3s-3.4,13.1,0,17.4l0,0l5.7,12
	c-1.3,3.2-5,19.6-5.7,22.1c-0.3,1-14.9,15.3-17.6,17c-3.2,2-24.8-21.1-24.8-21.1c-0.6-0.7,0.3-0.9-0.4-0.2c-0.3,0.2-0.5,0.6-0.6,0.9
	l-1.5,5.9c-0.3,1.3-1.2,2.5-2.4,3.1c-1.9,1-4.7,2.5-6,2.5s-3.5,3.1-5.1,6.2l-0.8,0.2l-34.2,3.8l-1.4,72.8l80.9-27.6l0,0
	c11.2,0,23.9-0.8,33.9-4.7c7-2.9,13.6-6.6,19.7-11c4.7-2.7,18.1-11.5,26.4-20.9C163.4,235.3,165.7,220.4,161.7,205.3z"/>
<path class="st1" d="M33.7,199.5c-1.3,0.7-2.5,2.7-3.2,4.1c-2.4,4.9-5.1,14.1-3.1,18.9c0.7,1.5,1.9,2.6,3.4,3.1
	c4.3,1.5,13.8,3.2,15.9-10.5c0.1-0.6,0.2-1.3,0.2-1.9L33.7,199.5z"/>
<path class="st4" d="M31.9,214.8c-0.8-0.1-1.6,0.4-1.9,1.2c-0.1,0.2-0.1,0.3-0.1,0.5c-0.7,3.9-0.5,6.1,2.3,6.9s3.4,0.1,5.4-3.6
	c0.3-0.6,0.6-1.3,0.8-2c0.3-0.9-0.2-1.8-1.1-2.1c-0.1,0-0.1,0-0.2-0.1L31.9,214.8z"/>
<path class="st1" d="M190.3,146.4c9,10,2.4,13.6-4.8,18.8l-96.9,70.5c-6.2,4.4-13.6,6-20.8,0L29,195.6c-6.7-7.7-4.2-17.2,1.9-21.6
	l69.5-45.8c5.3-2.9,21.3-14.7,33.5-21.7c7.8-4.5,13.6-0.6,17.4,2.8"/>
<polygon class="st1" points="36.4,174.3 89.2,229.5 185.7,158.6 135.4,110.3 "/>
<linearGradient id="SVGID_21_" gradientUnits="userSpaceOnUse" x1="135.45" y1="148.73" x2="75.03" y2="105.18" gradientTransform="matrix(1 0 0 -1 0 298)">
	<stop  offset="0" style="stop-color:#FFFFFF"/>
	<stop  offset="9.000000e-02" style="stop-color:#F9F9F9"/>
	<stop  offset="0.22" style="stop-color:#E8E8E8"/>
	<stop  offset="0.36" style="stop-color:#CDCDCD"/>
	<stop  offset="0.52" style="stop-color:#A6A6A6"/>
	<stop  offset="0.68" style="stop-color:#757575"/>
	<stop  offset="0.85" style="stop-color:#393939"/>
	<stop  offset="1" style="stop-color:#000000"/>
</linearGradient>
<polygon class="st132" points="37.4,173.3 90.2,228.5 186.7,157.6 136.4,109.3 "/>
<polygon class="st133" points="36.4,173.3 89.2,228.5 185.7,157.6 135.4,109.3 "/>
<path class="st134" d="M94.1,146.6c-0.9-0.9-2.1-2.6-4-1.5l-4.2,2.8c-1,0.8-2.3,1.9,1,4.9l37.1,39.6c0.9,0.9,2.4,0.9,3.3,0.1l4-3
	c1.2-0.9,1.6-2.1,0.9-3.2"/>
<path class="st134" d="M84.3,153.2c-0.9-0.9-2.1-2.6-4-1.5l-4.3,2.8c-1,0.8-2.3,1.9,1,4.9l37.1,39.6c0.9,0.9,2.4,0.9,3.3,0.1l4-3
	c1.2-0.9,1.6-2.1,0.9-3.2"/>
<path class="st135" d="M63.6,163.9c-0.4-0.5-0.4-1.2,0.1-1.6c0,0,0.1-0.1,0.1-0.1l6.7-4.4c0.6-0.4,1.4-0.4,2,0l39.8,41.3
	c2,2.3,0.2,3.5-0.4,3.9l-5.5,4.1c-1.1,0.9-2.8,0.7-3.7-0.4c0,0,0,0,0,0L63.6,163.9z"/>
<path class="st1" d="M83,158c-0.3,0.3-0.8,0.2-1.1-0.1l-0.4-0.4l-0.6,0.5l-0.3-0.3l1.8-1.4l0.7,0.7c0.3,0.2,0.3,0.6,0.1,0.9
	C83.1,157.9,83.1,158,83,158z M82.7,157.7c0.1-0.1,0.2-0.3,0.1-0.4c0,0,0,0-0.1-0.1l-0.3-0.3l-0.6,0.4l0.3,0.3
	C82.2,157.8,82.5,157.9,82.7,157.7C82.7,157.7,82.7,157.7,82.7,157.7L82.7,157.7z"/>
<path class="st1" d="M84.4,159.3l-1.3,1l-0.3-0.3l0.2-0.2c-0.2,0-0.5-0.1-0.6-0.2c-0.2-0.3-0.2-0.7,0.1-0.9c0,0,0.1,0,0.1-0.1
	c0.3-0.3,0.8-0.3,1.2,0c0.2,0.1,0.2,0.4,0.2,0.6l0.2-0.2L84.4,159.3z M83.5,159.4c0.2-0.1,0.2-0.3,0.1-0.5c0,0,0,0-0.1-0.1
	c-0.2-0.2-0.5-0.2-0.7,0c-0.2,0.1-0.2,0.3-0.1,0.5c0,0,0,0,0.1,0.1C83,159.6,83.3,159.6,83.5,159.4L83.5,159.4z"/>
<path class="st1" d="M85.1,160.7l-0.3-0.3c0.1-0.1,0.1-0.2,0-0.3c0,0,0,0,0,0c-0.1-0.1-0.2-0.1-0.3-0.1c-0.1,0.1,0,0.2,0.1,0.4
	s0.3,0.5,0,0.7c-0.3,0.2-0.7,0.1-0.9-0.2c-0.3-0.3-0.3-0.6-0.1-0.8l0.3,0.3c-0.1,0.1-0.1,0.2,0,0.3c0.1,0.1,0.2,0.1,0.3,0.1
	c0.1-0.1,0-0.2-0.1-0.4s-0.2-0.5,0-0.6c0.3-0.2,0.6-0.1,0.8,0.2C85.3,160.2,85.4,160.6,85.1,160.7z"/>
<path class="st1" d="M86.2,161.9l-0.3-0.3c0.1-0.1,0.1-0.2,0-0.3c0,0,0,0,0,0c-0.1-0.1-0.2-0.1-0.3-0.1c-0.1,0.1,0,0.2,0.1,0.4
	s0.3,0.5,0,0.7c-0.3,0.2-0.7,0.1-0.9-0.2c-0.3-0.3-0.3-0.6-0.1-0.8l0.3,0.3c-0.1,0.1-0.1,0.2,0,0.3c0.1,0.1,0.2,0.1,0.3,0.1
	c0.1-0.1,0-0.2-0.1-0.4s-0.2-0.5,0-0.6c0.3-0.2,0.6-0.1,0.8,0.2C86.5,161.4,86.5,161.7,86.2,161.9z"/>
<polygon class="st1" points="88.6,163.6 87,164.3 86.6,163.9 87.2,163.1 86.2,163.5 85.8,163.1 86.8,161.8 87.1,162.1 86.3,163.1 
	87.5,162.6 87.8,162.8 87,163.9 88.3,163.3 "/>
<path class="st1" d="M89.2,165.4c-0.4,0.3-0.9,0.3-1.2-0.1c-0.3-0.3-0.3-0.7-0.1-1c0,0,0.1-0.1,0.1-0.1c0.4-0.3,0.9-0.3,1.2,0.1
	c0.3,0.3,0.3,0.7,0.1,1C89.3,165.4,89.2,165.4,89.2,165.4z M88.3,164.5c-0.2,0.1-0.2,0.3-0.1,0.5c0,0,0,0,0.1,0.1
	c0.2,0.2,0.5,0.2,0.7,0c0.2-0.1,0.2-0.3,0.1-0.5c0,0,0,0-0.1-0.1C88.8,164.3,88.5,164.3,88.3,164.5L88.3,164.5z"/>
<path class="st1" d="M90.7,165.8l-0.3,0.3c-0.2-0.2-0.5-0.3-0.8-0.1l-0.6,0.5l-0.3-0.3l1.3-1l0.3,0.3l-0.3,0.2
	C90.3,165.6,90.6,165.6,90.7,165.8z"/>
<path class="st1" d="M92.5,166.8l-1.8,1.4l-0.3-0.3l0.2-0.2c-0.2,0-0.5-0.1-0.6-0.2c-0.2-0.3-0.2-0.7,0.1-0.9c0,0,0.1,0,0.1-0.1
	c0.3-0.3,0.8-0.3,1.2,0c0.2,0.1,0.2,0.4,0.2,0.6l0.7-0.6L92.5,166.8z M91,167.4c0.2-0.1,0.2-0.3,0.1-0.5c0,0,0,0-0.1-0.1
	c-0.2-0.2-0.5-0.2-0.7,0c-0.2,0.1-0.2,0.3-0.1,0.5c0,0,0,0,0.1,0.1C90.6,167.5,90.8,167.5,91,167.4L91,167.4z"/>
<polygon class="st1" points="91.9,149.5 91.5,149.8 92.2,150.6 91.9,150.8 91.2,150.1 90.7,150.4 91.5,151.2 91.2,151.4 90.1,150.3 
	91.9,148.9 93,150.1 92.7,150.3 "/>
<path class="st1" d="M93.9,152.7l-0.8,0.6l-0.3-0.3l0.8-0.6c0.1-0.1,0.1-0.2,0.1-0.3c0,0,0,0-0.1-0.1c-0.1-0.1-0.3-0.1-0.4,0
	l-0.8,0.6l-0.3-0.3l0.8-0.6c0.1-0.1,0.1-0.2,0-0.3c0,0,0,0,0,0c-0.1-0.1-0.3-0.1-0.4,0l-0.8,0.6l-0.3-0.3l1.3-1l0.3,0.3l-0.2,0.2
	c0.2-0.1,0.4,0,0.6,0.2c0.1,0.1,0.2,0.4,0.1,0.5c0.2-0.1,0.5-0.1,0.7,0.1c0.2,0.2,0.2,0.5,0,0.7C94,152.7,93.9,152.7,93.9,152.7z"/>
<path class="st1" d="M95.7,153.8l-1.3,1l-0.3-0.3l0.2-0.2c-0.2,0-0.5-0.1-0.6-0.2c-0.2-0.3-0.2-0.7,0.1-0.9c0,0,0.1,0,0.1-0.1
	c0.3-0.3,0.8-0.3,1.2,0c0.2,0.1,0.2,0.4,0.2,0.6l0.2-0.2L95.7,153.8z M94.8,154c0.2-0.1,0.2-0.3,0.1-0.5c0,0,0,0-0.1-0.1
	c-0.2-0.2-0.5-0.2-0.7,0c-0.2,0.1-0.2,0.3-0.1,0.5c0,0,0,0,0.1,0.1C94.3,154.2,94.6,154.2,94.8,154L94.8,154z"/>
<path class="st1" d="M96.2,154.1c-0.1-0.1-0.1-0.2,0-0.3c0,0,0,0,0,0c0.1-0.1,0.3-0.1,0.4,0c0.1,0.1,0.1,0.2,0,0.3c0,0,0,0,0,0
	C96.5,154.2,96.4,154.2,96.2,154.1z M96.2,154.4l-1.3,1l-0.3-0.3l1.3-1L96.2,154.4z"/>
<polygon class="st1" points="97.3,154.6 95.5,156 95.2,155.7 97,154.3 "/>
<path class="st1" d="M111.7,148.1c0.2-0.1,0.4-0.1,0.5,0.1c0.1,0.1,0.1,0.3,0,0.4c0,0,0,0,0,0l-2.6,2c-0.2,0.1-0.4,0.1-0.5-0.1
	c-0.1-0.1-0.1-0.3,0-0.5c0,0,0,0,0,0l0,0c-0.3,0-0.6-0.1-0.8-0.3c-0.4-0.4-0.4-1.1,0-1.5c0.1-0.1,0.1-0.1,0.2-0.2
	c0.5-0.5,1.4-0.4,1.9,0.1c0.2,0.2,0.3,0.5,0.2,0.8L111.7,148.1z M108.9,149.5c0.3,0.2,0.6,0.3,0.9,0.1c0.3-0.2,0.3-0.5,0.1-0.8
	c0,0,0,0,0-0.1c-0.3-0.2-0.7-0.2-0.9,0C108.8,148.9,108.7,149.2,108.9,149.5C108.9,149.4,108.9,149.5,108.9,149.5z"/>
<path class="st1" d="M113.2,149.2c0.2,0.1,0.2,0.4,0.1,0.5c0,0,0,0-0.1,0.1c-0.2,0.1-0.5,0.1-0.7-0.1c-0.2-0.1-0.2-0.4,0-0.6
	c0,0,0,0,0,0C112.7,149,113,149,113.2,149.2z M110.5,151.6c-0.2,0.1-0.4,0.1-0.5-0.1c-0.1-0.1-0.1-0.3,0-0.5c0,0,0,0,0,0l1.5-1.2
	c0.2-0.1,0.4-0.1,0.5,0.1c0.1,0.1,0.1,0.3,0,0.4c0,0,0,0,0,0L110.5,151.6z"/>
<path class="st1" d="M110.6,152.6c0.2,0,0.3,0.2,0.3,0.3c0,0.2,0,0.4,0.2,0.6c0.4,0.4,0.8,0.3,1.2,0h0.1c-0.3,0-0.6-0.1-0.9-0.3
	c-0.4-0.4-0.4-1.1,0-1.5c0.1-0.1,0.1-0.1,0.2-0.2c0.5-0.5,1.4-0.4,1.9,0.1c0.2,0.2,0.3,0.5,0.2,0.8l0,0c0.2-0.1,0.4-0.1,0.5,0.1
	c0.1,0.1,0.1,0.3,0,0.4c0,0,0,0,0,0l-1.5,1.1c-0.6,0.6-1.5,0.7-2.2,0.1c0,0-0.1-0.1-0.1-0.1c-0.3-0.3-0.4-0.7-0.3-1.1
	C110.2,152.7,110.4,152.6,110.6,152.6C110.6,152.6,110.6,152.6,110.6,152.6z M112.1,152.8c0.3,0.2,0.6,0.3,0.9,0.1
	c0.3-0.2,0.3-0.5,0.1-0.8c0,0,0,0,0-0.1c-0.3-0.2-0.7-0.2-0.9,0C111.9,152.2,111.9,152.5,112.1,152.8
	C112,152.8,112,152.8,112.1,152.8L112.1,152.8z"/>
<path class="st1" d="M115.2,153.9c0.3-0.1,0.6,0,0.8,0.3c0.4,0.4,0.3,0.9-0.2,1.3l-1,0.7c-0.2,0.1-0.4,0.1-0.5-0.1
	c-0.1-0.1-0.1-0.3,0-0.5c0,0,0,0,0,0l0.8-0.6c0.3-0.2,0.3-0.4,0.1-0.6c-0.2-0.2-0.5-0.2-0.7,0c0,0,0,0,0,0l-0.8,0.6
	c-0.2,0.1-0.4,0.1-0.5-0.1c-0.1-0.1-0.1-0.3,0-0.5c0,0,0,0,0,0l1.5-1.2c0.2-0.1,0.4-0.1,0.5,0.1
	C115.3,153.5,115.3,153.7,115.2,153.9C115.2,153.8,115.2,153.9,115.2,153.9L115.2,153.9z"/>
<path class="st1" d="M118.3,154.7c0.2,0.1,0.2,0.4,0.1,0.5c0,0,0,0-0.1,0.1c-0.2,0.1-0.5,0.1-0.7-0.1c-0.2-0.1-0.2-0.4,0-0.6
	c0,0,0,0,0,0C117.9,154.5,118.1,154.5,118.3,154.7z M115.7,157.2c-0.2,0.1-0.4,0.1-0.5-0.1c-0.1-0.1-0.1-0.3,0-0.5c0,0,0,0,0,0
	l1.5-1.2c0.2-0.1,0.4-0.1,0.5,0.1c0.1,0.1,0.1,0.3,0,0.4c0,0,0,0,0,0L115.7,157.2z"/>
<path class="st1" d="M118.1,156.4l0.5-0.4c0.2-0.1,0.4-0.1,0.5,0.1c0.1,0.1,0.1,0.3,0,0.4c0,0,0,0,0,0l-0.5,0.4l0.2,0.2
	c0.1,0.1,0.1,0.3,0,0.4c0,0,0,0,0,0c-0.1,0.1-0.3,0.1-0.4,0l-0.2-0.2l-1.3,1c-0.2,0.1-0.4,0.1-0.5-0.1c-0.1-0.1-0.1-0.3,0-0.5
	c0,0,0,0,0,0l1.3-1l-0.1-0.1c-0.1-0.1-0.1-0.3,0.1-0.4c0,0,0,0,0,0c0.1-0.1,0.3-0.1,0.4,0L118.1,156.4z"/>
<path class="st1" d="M116.9,160.4c-0.2,0.1-0.4,0-0.5-0.2c-0.1-0.2,0-0.3,0.2-0.4c0,0,0,0,0.1,0l1.1-0.3l0.9-1.7
	c0.1-0.2,0.3-0.2,0.5-0.1c0.2,0.1,0.2,0.3,0.2,0.4c0,0,0,0,0,0l-0.7,1.1l1.3-0.4c0.2-0.1,0.4,0,0.5,0.2c0.1,0.2,0,0.3-0.2,0.4
	c0,0,0,0-0.1,0L116.9,160.4z"/>
<path class="st1" d="M122.6,164.6c-0.2,0.1-0.4,0.1-0.5-0.1c-0.1-0.1-0.1-0.3,0-0.5c0,0,0,0,0,0l0.8-0.6c0.3-0.2,0.3-0.4,0.1-0.6
	c-0.2-0.2-0.5-0.2-0.7,0c0,0,0,0,0,0l-0.8,0.6c-0.2,0.1-0.4,0.1-0.5-0.1c-0.1-0.1-0.1-0.3,0-0.5c0,0,0,0,0,0l0.8-0.6
	c0.2-0.1,0.3-0.3,0.2-0.5c0,0,0-0.1-0.1-0.1c-0.2-0.2-0.5-0.2-0.7,0c0,0,0,0,0,0l-0.8,0.6c-0.2,0.1-0.4,0.1-0.5-0.1
	c-0.1-0.1-0.1-0.3,0-0.5c0,0,0,0,0,0l1.5-1.2c0.2-0.1,0.4-0.1,0.5,0.1c0.1,0.1,0.1,0.3,0,0.4c0,0,0,0,0,0l0,0c0.3-0.1,0.6,0,0.8,0.2
	c0.3,0.2,0.3,0.6,0.2,0.9c0.3-0.1,0.7,0,0.9,0.2c0.4,0.4,0.3,0.9-0.2,1.4L122.6,164.6z"/>
<path class="st1" d="M124.3,166.6c-0.3-0.1-0.6-0.3-0.8-0.5c-0.4-0.4-0.5-1.2,0-1.6c0.1-0.1,0.1-0.1,0.2-0.2
	c0.6-0.5,1.4-0.4,1.9,0.2c0.4,0.4,0.4,1.1,0,1.6c-0.1,0.1-0.1,0.1-0.2,0.2c-0.1,0.1-0.2,0.1-0.3,0L124,165c-0.2,0.2-0.1,0.5,0.1,0.7
	c0.1,0.1,0.2,0.2,0.4,0.2c0.2,0,0.3,0.2,0.3,0.4C124.7,166.5,124.6,166.6,124.3,166.6C124.3,166.6,124.3,166.6,124.3,166.6z
	 M125.1,165.6c0.2-0.2,0.2-0.4,0.1-0.6c0,0,0,0-0.1-0.1c-0.2-0.2-0.5-0.3-0.7-0.1L125.1,165.6z"/>
<path class="st1" d="M127.8,167.3c0.2-0.1,0.4-0.1,0.5,0.1c0.1,0.1,0.1,0.3,0,0.4c0,0,0,0,0,0l-1.5,1.1c-0.2,0.1-0.4,0.1-0.5-0.1
	c-0.1-0.1-0.1-0.3,0-0.5c0,0,0,0,0,0l0,0c-0.3,0-0.6-0.1-0.8-0.3c-0.4-0.4-0.4-1.1,0-1.5c0.1-0.1,0.1-0.1,0.2-0.2
	c0.5-0.5,1.4-0.4,1.9,0.1C127.7,166.8,127.8,167.1,127.8,167.3L127.8,167.3z M126.1,167.8c0.3,0.2,0.6,0.3,0.9,0.1
	c0.3-0.2,0.3-0.5,0.1-0.8c0,0,0,0,0-0.1c-0.3-0.2-0.7-0.2-0.9,0C125.9,167.2,125.9,167.6,126.1,167.8
	C126.1,167.8,126.1,167.8,126.1,167.8L126.1,167.8z"/>
<path class="st1" d="M127.7,170c-0.2,0.1-0.4,0.1-0.5-0.1c-0.1-0.1-0.1-0.3,0-0.5c0,0,0,0,0,0l2.6-2c0.2-0.1,0.4-0.1,0.5,0.1
	c0.1,0.1,0.1,0.3,0,0.4c0,0,0,0,0,0L127.7,170z"/>
<path class="st1" d="M128.6,170.2c0.1,0.1,0.2,0.2,0.2,0.4c0,0.2,0,0.4,0.1,0.5c0.1,0.1,0.2,0.2,0.3,0.1s0.1-0.1,0-0.3l-0.1-0.3
	c-0.3-0.7,0-0.9,0.2-1.1c0.4-0.2,0.9-0.1,1.2,0.3c0.3,0.2,0.4,0.6,0.3,0.9c0,0.1-0.2,0.2-0.4,0.2c-0.2-0.1-0.3-0.2-0.3-0.4
	c0-0.1,0-0.2-0.1-0.3c-0.1-0.1-0.2-0.2-0.3-0.1s-0.1,0.1,0,0.3l0.1,0.4c0.2,0.3,0.2,0.8-0.1,1c-0.5,0.3-1,0.1-1.4-0.3
	c-0.3-0.3-0.4-0.7-0.2-1.1C128.3,170.2,128.4,170.1,128.6,170.2z"/>
<polygon class="st1" points="85.8,179.5 85.4,179.8 84.2,178.6 86.3,177 86.6,177.3 84.9,178.7 "/>
<path class="st1" d="M87.6,180.7c-0.4,0.3-1.1,0.3-1.4-0.1c-0.3-0.3-0.4-0.8-0.1-1.2c0,0,0.1-0.1,0.1-0.1c0.4-0.3,1.1-0.3,1.5,0.1
	c0.3,0.3,0.4,0.8,0.1,1.2C87.7,180.7,87.7,180.7,87.6,180.7z M86.6,179.7c-0.2,0.1-0.3,0.4-0.1,0.6c0,0,0,0.1,0.1,0.1
	c0.2,0.2,0.6,0.2,0.8,0c0.2-0.1,0.3-0.4,0.1-0.6c0,0,0-0.1-0.1-0.1C87.2,179.5,86.8,179.5,86.6,179.7
	C86.6,179.7,86.6,179.7,86.6,179.7L86.6,179.7z"/>
<path class="st1" d="M89.9,181.7l-1.4,1.1c-0.4,0.3-1,0.3-1.4-0.1c-0.3-0.3-0.4-0.8-0.1-1.1l0.3,0.3c-0.1,0.2-0.1,0.4,0.1,0.5
	c0.2,0.2,0.5,0.2,0.7,0l0.2-0.2c-0.3,0-0.5-0.1-0.7-0.3c-0.3-0.3-0.3-0.8,0-1.1c0,0,0.1-0.1,0.1-0.1c0.4-0.3,0.9-0.3,1.3,0
	c0.2,0.2,0.3,0.4,0.2,0.7l0.2-0.2L89.9,181.7z M88.9,181.9c0.2-0.1,0.3-0.4,0.1-0.6c0,0,0-0.1-0.1-0.1c-0.2-0.2-0.6-0.2-0.8,0
	c-0.2,0.1-0.3,0.4-0.1,0.6c0,0,0,0.1,0.1,0.1C88.3,182.1,88.7,182.1,88.9,181.9L88.9,181.9z"/>
<polygon class="st1" points="89.9,184.4 89.5,184 91.6,182.4 91.9,182.7 "/>
<path class="st1" d="M92.3,185.2l-0.9,0.7l-0.3-0.4l0.9-0.7c0.2-0.1,0.2-0.3,0.1-0.5c0,0,0,0,0-0.1c-0.2-0.2-0.4-0.2-0.6,0l-0.9,0.7
	l-0.3-0.4l1.5-1.2l0.3,0.4l-0.2,0.2c0.2,0,0.5,0,0.7,0.2C92.7,184.6,92.7,184.9,92.3,185.2C92.4,185.2,92.4,185.2,92.3,185.2z"/>
<linearGradient id="SVGID_22_" gradientUnits="userSpaceOnUse" x1="24.83" y1="126.1099" x2="194.413" y2="126.1099" gradientTransform="matrix(1 0 0 -1 -3.000000e-02 298.14)">
	<stop  offset="0" style="stop-color:#C69C6D"/>
	<stop  offset="0.11" style="stop-color:#C0976A"/>
	<stop  offset="0.26" style="stop-color:#AF8A61"/>
	<stop  offset="0.42" style="stop-color:#947451"/>
	<stop  offset="0.6" style="stop-color:#6D563C"/>
	<stop  offset="0.8" style="stop-color:#3C2F21"/>
	<stop  offset="1" style="stop-color:#000000"/>
</linearGradient>
<path class="st136" d="M190.3,146.4c9,10,2.5,13.6-4.8,18.8l-96.8,70.4c-6.1,4.4-13.6,6-20.8,0l-38.8-40.2
	c-6.7-7.7-4.3-17.2,1.9-21.6l69.5-45.7c5.3-2.9,21.2-14.7,33.5-21.7c7.8-4.5,13.6-0.5,17.4,2.8"/>
<path class="st1" d="M161,204.9c-0.1-0.4-8.3-15.7-8.3-15.7s-0.4-0.9-0.7-0.8c-0.8,0.6-22.1,16.1-22.1,16.1c-1.8,1-6.2,5.4-8.1,4.2
	l-1.9-0.5c-1.4-0.4-1.6-4-1.5-5.4l-0.5-11.1c0-2.7-0.8-5.3-2.4-7.4l-14-17.7c-3.4-4.3-8.5-4.7-12.8-1.3s-3.4,13.1,0,17.4l0,0l5.7,12
	c-1.3,3.2-5,19.6-5.7,22.1c-0.3,1-16.2,16.6-18.9,18.3c-1.5,2.2-7.4-4.2-13.2-10.5c-5.4-5.9-10.8-11.7-10.8-11.6l-1.9,6.2
	c-0.3,1.3-1.2,2.5-2.4,3.1c-1.9,1-4.7,2.5-6,2.5s-3.5,3.1-5.1,6.2l-0.8,0.2l-34.2,3.8L-6,308.1l80.9-27.6l0,0
	c11.2,0,23.9-0.8,33.9-4.7c7-2.9,13.6-6.6,19.7-11c4.7-2.7,18.1-11.5,26.4-20.9C162.8,234.9,165.1,220,161,204.9z"/>
<path class="st4" d="M99.6,168.5c-1.7-1.9-3.8-3.1-6.8-1.9s-5.4,5-3.6,8.1c0.9,1.5,1.4,3.6,3.1,3.5c0.8-0.1,2.3-1.4,3-1.9l6.4-4
	c0.3-0.2,0.4-0.6,0.2-0.9c0,0,0,0,0,0C101.1,170.3,100.4,169.4,99.6,168.5z"/>
<path class="st13" d="M125.9,146.2c0,0,1.2-0.4,1-2.4C126.9,143.8,124.6,144.9,125.9,146.2z"/>
<path class="st13" d="M126.3,146.7c1.2,1.7,3.6-0.6,3.6-0.6C126.9,145.4,126.3,146.5,126.3,146.7L126.3,146.7z"/>
<g>
	<defs>
		<path id="SVGID_23_" d="M123.9,151.8c0-0.1,0.1-0.1,0.2-0.1c0,0,0,0,0,0l0.6,0.2c0.2,0.1,0.2,0.1,0.2,0.2c0.4-0.6,0.9-1.1,1.6-1.4
			l4.2-2.8c0.2-0.1,0.2-0.4,0.1-0.6c0,0,0,0,0-0.1c-0.2-0.3-0.4-0.2-0.6-0.1s-4.8,2.8-4.8,2.8s-2.7,1.9-4.2,0
			c-0.1-0.2-0.2-0.4-0.3-0.6c0-0.2,0-0.4,0-0.6c0.1-0.6,0.5-1.1,1.1-1.4c0.4-0.2,0.8-0.4,1.3-0.5c0.1,0,0.3,0,0.4,0
			c0.5,0,0.9,0.1,1.3,0.4c0.2,0.2,0.3,0.3,0.5,0.5c0.1,0.2,0.4,0.3,0.6,0.2c0.2,0,0.3-0.2,0.3-0.3c0-0.3-0.5-0.8-0.6-0.9
			c-1.1-1-2.8-1.1-4.1-0.4c-0.2,0.1-3.8,2-1.1,5C121.4,152.2,122.7,152.3,123.9,151.8L123.9,151.8z"/>
	</defs>
	<clipPath id="SVGID_24_">
		<use xlink:href="#SVGID_23_"  style="overflow:visible;"/>
	</clipPath>
	<g class="st137">
		<polygon class="st15" points="123.3,153.7 129.8,146.5 131,147.6 124.3,154.6 		"/>
		<polygon class="st15" points="123.1,153.5 129.6,146.4 129.8,146.5 123.3,153.7 		"/>
		<polygon class="st16" points="123,153.4 129.5,146.3 129.6,146.4 123.1,153.5 		"/>
		<polygon class="st17" points="122.8,153.3 129.4,146.2 129.5,146.3 123,153.4 		"/>
		<polygon class="st18" points="122.7,153.2 129.2,146 129.4,146.2 122.8,153.3 		"/>
		<polygon class="st19" points="122.6,153 129.1,145.9 129.2,146 122.7,153.2 		"/>
		<polygon class="st20" points="122.4,152.9 128.9,145.8 129.1,145.9 122.6,153 		"/>
		<polygon class="st21" points="122.3,152.8 128.8,145.7 128.9,145.8 122.4,152.9 		"/>
		<polygon class="st22" points="122.1,152.7 128.6,145.5 128.8,145.7 122.3,152.8 		"/>
		<polygon class="st23" points="122,152.5 128.5,145.4 128.6,145.5 122.1,152.7 		"/>
		<polygon class="st24" points="121.8,152.4 128.3,145.3 128.5,145.4 122,152.5 		"/>
		<polygon class="st25" points="121.7,152.3 128.2,145.2 128.3,145.3 121.8,152.4 		"/>
		<polygon class="st26" points="121.5,152.2 128,145 128.2,145.2 121.7,152.3 		"/>
		<polygon class="st27" points="121.4,152 127.9,144.9 128,145 121.5,152.2 		"/>
		<polygon class="st28" points="121.2,151.9 127.8,144.8 127.9,144.9 121.4,152 		"/>
		<polygon class="st29" points="121.1,151.8 127.6,144.7 127.8,144.8 121.2,151.9 		"/>
		<polygon class="st30" points="120.9,151.7 127.5,144.5 127.6,144.7 121.1,151.8 		"/>
		<polygon class="st31" points="120.8,151.5 127.3,144.4 127.5,144.5 120.9,151.7 		"/>
		<polygon class="st32" points="120.7,151.4 127.2,144.3 127.3,144.4 120.8,151.5 		"/>
		<polygon class="st33" points="120.5,151.3 127,144.2 127.2,144.3 120.7,151.4 		"/>
		<polygon class="st34" points="120.4,151.2 126.9,144 127,144.2 120.5,151.3 		"/>
		<polygon class="st35" points="120.2,151 126.7,143.9 126.9,144 120.4,151.2 		"/>
		<polygon class="st36" points="120.1,150.9 126.6,143.8 126.7,143.9 120.2,151 		"/>
		<polygon class="st37" points="119.9,150.8 126.4,143.7 126.6,143.8 120.1,150.9 		"/>
		<polygon class="st38" points="119.8,150.7 126.3,143.5 126.4,143.7 119.9,150.8 		"/>
		<polygon class="st39" points="119.6,150.5 126.1,143.4 126.3,143.5 119.8,150.7 		"/>
		<polygon class="st40" points="119.5,150.4 126,143.3 126.1,143.4 119.6,150.5 		"/>
		<polygon class="st41" points="119.3,150.3 125.8,143.2 126,143.3 119.5,150.4 		"/>
		<polygon class="st42" points="119.2,150.2 125.7,143 125.8,143.2 119.3,150.3 		"/>
		<polygon class="st43" points="119,150 125.6,142.9 125.7,143 119.2,150.2 		"/>
		<polygon class="st44" points="118.9,149.9 125.4,142.8 125.6,142.9 119,150 		"/>
		<polygon class="st45" points="118.8,149.8 125.3,142.7 125.4,142.8 118.9,149.9 		"/>
		<polygon class="st46" points="118.6,149.6 125.1,142.5 125.3,142.7 118.8,149.8 		"/>
		<polygon class="st47" points="118.5,149.5 125,142.4 125.1,142.5 118.6,149.6 		"/>
		<polygon class="st48" points="118.3,149.4 124.8,142.3 125,142.4 118.5,149.5 		"/>
		<polygon class="st49" points="118.2,149.3 124.7,142.2 124.8,142.3 118.3,149.4 		"/>
		<polygon class="st50" points="118,149.1 124.5,142 124.7,142.2 118.2,149.3 		"/>
		<polygon class="st51" points="117.9,149 124.4,141.9 124.5,142 118,149.1 		"/>
		<polygon class="st52" points="117.7,148.9 124.2,141.8 124.4,141.9 117.9,149 		"/>
		<polygon class="st53" points="117.6,148.8 124.1,141.7 124.2,141.8 117.7,148.9 		"/>
		<polygon class="st54" points="117.4,148.6 119.7,145.9 123.8,141.4 124.1,141.7 117.6,148.8 		"/>
		<polygon class="st55" points="119.7,145.9 117.4,148.6 117.2,148.4 		"/>
	</g>
</g>
<g>
	<defs>
		<path id="SVGID_25_" d="M124.8,152.6c0-0.1,0-0.1,0-0.2C124.8,152.5,124.8,152.6,124.8,152.6z"/>
	</defs>
	<clipPath id="SVGID_26_">
		<use xlink:href="#SVGID_25_"  style="overflow:visible;"/>
	</clipPath>
	<g class="st138">
		<path class="st57" d="M124.7,152.4l-0.1,0.1L124.7,152.4z"/>
		<polygon class="st57" points="124.8,152.4 124.7,152.5 124.7,152.5 124.8,152.4 		"/>
		<polygon class="st58" points="124.8,152.4 124.7,152.5 124.7,152.5 124.8,152.4 		"/>
		<polygon class="st59" points="124.8,152.4 124.7,152.5 124.7,152.5 124.8,152.4 		"/>
		<polygon class="st60" points="124.8,152.4 124.7,152.5 124.7,152.5 124.8,152.4 		"/>
		<polygon class="st61" points="124.8,152.4 124.7,152.5 124.7,152.5 124.8,152.4 		"/>
		<polygon class="st62" points="124.8,152.4 124.7,152.5 124.7,152.5 124.8,152.4 		"/>
		<polygon class="st63" points="124.8,152.4 124.7,152.5 124.7,152.5 124.8,152.4 		"/>
		<polygon class="st64" points="124.8,152.4 124.7,152.5 124.7,152.5 124.8,152.4 		"/>
		<polygon class="st65" points="124.8,152.4 124.7,152.5 124.7,152.5 124.8,152.4 		"/>
		<polygon class="st66" points="124.8,152.4 124.7,152.5 124.7,152.5 124.8,152.4 		"/>
		<polygon class="st67" points="124.8,152.4 124.7,152.5 124.7,152.5 124.8,152.4 		"/>
		<polygon class="st68" points="124.8,152.4 124.7,152.5 124.7,152.5 124.8,152.4 		"/>
		<polygon class="st69" points="124.8,152.4 124.7,152.6 124.7,152.5 124.8,152.4 		"/>
		<polygon class="st70" points="124.8,152.4 124.7,152.6 124.7,152.6 124.8,152.4 		"/>
		<polygon class="st71" points="124.8,152.4 124.7,152.6 124.7,152.6 124.8,152.4 		"/>
		<polygon class="st72" points="124.8,152.4 124.7,152.6 124.7,152.6 124.8,152.4 		"/>
		<polygon class="st73" points="124.8,152.4 124.7,152.6 124.7,152.6 124.8,152.4 		"/>
		<polygon class="st74" points="124.8,152.4 124.7,152.6 124.7,152.6 124.8,152.4 		"/>
		<polygon class="st75" points="124.8,152.5 124.7,152.6 124.7,152.6 124.8,152.4 		"/>
		<polygon class="st76" points="124.8,152.5 124.7,152.6 124.7,152.6 124.8,152.5 		"/>
		<polygon class="st77" points="124.8,152.5 124.7,152.6 124.7,152.6 124.8,152.5 		"/>
		<polygon class="st78" points="124.8,152.5 124.7,152.6 124.7,152.6 124.8,152.5 		"/>
		<polygon class="st79" points="124.8,152.5 124.7,152.6 124.7,152.6 124.8,152.5 		"/>
		<polygon class="st80" points="124.8,152.5 124.7,152.6 124.7,152.6 124.8,152.5 		"/>
		<polygon class="st81" points="124.8,152.5 124.7,152.6 124.7,152.6 124.8,152.5 		"/>
		<polygon class="st82" points="124.8,152.5 124.7,152.6 124.7,152.6 124.8,152.5 		"/>
		<polygon class="st83" points="124.8,152.5 124.7,152.6 124.7,152.6 124.8,152.5 		"/>
		<polygon class="st84" points="124.8,152.5 124.7,152.6 124.7,152.6 124.8,152.5 		"/>
		<polygon class="st85" points="124.8,152.5 124.7,152.6 124.7,152.6 124.8,152.5 		"/>
		<polygon class="st86" points="124.8,152.5 124.7,152.6 124.7,152.6 124.8,152.5 		"/>
		<polygon class="st87" points="124.8,152.5 124.7,152.6 124.7,152.6 124.8,152.5 		"/>
		<polygon class="st88" points="124.8,152.5 124.7,152.6 124.7,152.6 124.8,152.5 		"/>
		<polygon class="st89" points="124.8,152.5 124.8,152.6 124.7,152.6 124.8,152.5 		"/>
		<polygon class="st90" points="124.8,152.5 124.8,152.6 124.8,152.6 124.8,152.5 		"/>
		<polygon class="st91" points="124.8,152.5 124.8,152.6 124.8,152.6 124.8,152.5 		"/>
		<polygon class="st92" points="124.8,152.5 124.8,152.6 124.8,152.6 124.8,152.5 		"/>
		<polygon class="st93" points="124.8,152.5 124.8,152.6 124.8,152.6 124.8,152.5 		"/>
		<polygon class="st94" points="124.8,152.5 124.8,152.6 124.8,152.6 124.8,152.5 		"/>
		<polygon class="st95" points="124.8,152.5 124.8,152.6 124.8,152.6 124.8,152.5 		"/>
		<polygon class="st96" points="124.8,152.5 124.8,152.6 124.8,152.6 124.8,152.5 		"/>
		<polygon class="st97" points="124.9,152.5 124.8,152.6 124.8,152.6 124.8,152.5 		"/>
		<polygon class="st98" points="124.9,152.5 124.8,152.6 124.8,152.6 124.9,152.5 		"/>
		<polygon class="st99" points="124.9,152.5 124.8,152.6 124.8,152.6 124.9,152.5 		"/>
		<polygon class="st100" points="124.9,152.5 124.8,152.6 124.8,152.6 124.9,152.5 		"/>
		<polygon class="st101" points="124.9,152.5 124.8,152.6 124.8,152.6 124.9,152.5 		"/>
		<polygon class="st102" points="124.9,152.5 124.8,152.6 124.8,152.6 124.9,152.5 		"/>
		<polygon class="st103" points="124.9,152.5 124.8,152.6 124.8,152.6 124.9,152.5 		"/>
		<polygon class="st104" points="124.9,152.5 124.8,152.6 124.8,152.6 124.9,152.5 		"/>
		<polygon class="st105" points="124.9,152.5 124.8,152.6 124.8,152.6 124.9,152.5 		"/>
		<polygon class="st106" points="124.9,152.5 124.8,152.6 124.8,152.6 124.9,152.5 		"/>
		<polygon class="st107" points="124.9,152.5 124.8,152.6 124.8,152.6 124.9,152.5 		"/>
		<polygon class="st108" points="124.9,152.5 124.8,152.6 124.8,152.6 124.9,152.5 		"/>
		<polygon class="st109" points="124.9,152.5 124.8,152.6 124.8,152.6 124.9,152.5 		"/>
		<polygon class="st110" points="124.9,152.5 124.8,152.6 124.8,152.6 124.9,152.5 		"/>
		<polygon class="st111" points="124.9,152.5 124.8,152.6 124.8,152.6 124.9,152.5 		"/>
		<polygon class="st112" points="124.9,152.5 124.8,152.6 124.8,152.6 124.9,152.5 		"/>
		<polygon class="st113" points="124.9,152.5 124.8,152.6 124.8,152.6 124.9,152.5 		"/>
		<polygon class="st114" points="124.9,152.5 124.8,152.6 124.8,152.6 124.9,152.5 		"/>
		<polygon class="st115" points="124.9,152.5 124.8,152.6 124.8,152.6 124.9,152.5 		"/>
		<polygon class="st116" points="124.9,152.5 124.8,152.6 124.8,152.6 124.9,152.5 		"/>
		<polygon class="st117" points="124.9,152.5 124.8,152.6 124.8,152.6 124.9,152.5 		"/>
		<polygon class="st118" points="124.9,152.5 124.8,152.6 124.8,152.6 124.9,152.5 		"/>
		<polygon class="st119" points="124.9,152.5 124.8,152.6 124.8,152.6 124.9,152.5 		"/>
		<polygon class="st120" points="124.9,152.5 124.8,152.6 124.8,152.6 124.9,152.5 		"/>
		<path class="st120" d="M124.6,152.4l0.1-0.1L124.6,152.4z"/>
	</g>
</g>
<g>
	<defs>
		<path id="SVGID_27_" d="M132.5,160l-0.4-0.1c-0.4-0.1-0.7-0.4-0.9-0.8c-0.2-0.5-0.1-1.2,0.3-1.6c0.3-0.5,0.8-0.8,1.2-1.3
			c0.5-0.4,0.7-1.1,0.6-1.8c-0.2-0.6-0.8-1.1-1.5-1.1c-0.1,0-0.2,0-0.2-0.1c0.2-0.9-0.3-1.8-1.2-2.1c0,0,0-0.1,0.1-0.2
			c0,0,0-0.1,0-0.1c-0.1-0.2-0.2-0.3-0.3-0.4c-0.1,0-0.1,0-0.2,0c-0.8,0.4-1.8,1.2-2.3,1.5c-0.5,0.3-1,0.6-1.6,0.9
			c-0.3,0.2-0.6,0.2-0.9,0.1c-0.3-0.1-0.4-0.4-0.4-0.7c0-0.1,0.1-0.2,0-0.3c0,0-0.1-0.1-0.2-0.1l-0.6-0.2c0,0-0.1,0-0.1,0
			c-0.1,0-0.1,0.1-0.1,0.1c-0.5,0.8-0.2,1.9,0.6,2.4c0.2,0.1,0.4,0.2,0.6,0.2c0.2,0,0.4,0,0.6-0.1c1.1-0.5,2.3-1,3.3-1.7
			c0.4-0.2,1.2-0.4,1.5,0.1c0.2,0.3,0,0.6-0.2,0.8c-0.3,0.3-0.5,0.6-0.9,0.8c-0.3,0.2-0.9,0.7-0.4,1.1c0.1,0,0.1,0.1,0.2,0.1
			c0.3,0,0.5-0.1,0.7-0.3c0.3-0.2,0.6-0.4,0.9-0.6c0.2-0.1,0.4-0.2,0.6-0.3c0.2,0,0.5,0,0.6,0.2c0.2,0.2,0.2,0.4,0.1,0.7
			c-0.1,0.2-0.2,0.4-0.4,0.6c-0.6,0.5-1.1,1-1.4,1.7c-0.3,0.7-0.3,1.5,0,2.1c0.4,0.7,1.1,1.2,1.8,1.3c0.3,0.1,0.5,0,0.7-0.2
			c0.1-0.1,0.2-0.3,0.1-0.4C132.9,160.2,132.7,160,132.5,160z"/>
	</defs>
	<clipPath id="SVGID_28_">
		<use xlink:href="#SVGID_27_"  style="overflow:visible;"/>
	</clipPath>
	<g class="st139">
		<polygon class="st15" points="127.2,147.8 122.3,153.1 122.3,153.1 127.2,147.8 		"/>
		<polygon class="st15" points="127.9,148.1 122.5,153.8 122,153.4 127.4,147.7 		"/>
		<polygon class="st16" points="128.4,148.5 123,154.2 122.5,153.8 127.9,148.1 		"/>
		<polygon class="st17" points="128.4,148.5 123,154.2 123,154.2 128.4,148.5 		"/>
		<polygon class="st18" points="128.4,148.5 123,154.2 123,154.2 128.4,148.5 		"/>
		<polygon class="st19" points="128.8,148.9 123.4,154.6 123,154.2 128.4,148.5 		"/>
		<polygon class="st20" points="128.8,148.9 123.4,154.6 123.4,154.6 128.8,148.9 		"/>
		<polygon class="st21" points="129.3,149.3 123.9,155 123.4,154.6 128.8,148.9 		"/>
		<polygon class="st22" points="129.3,149.3 123.9,155 123.9,155 129.3,149.3 		"/>
		<polygon class="st23" points="129.8,149.7 124.4,155.4 123.9,155 129.3,149.3 		"/>
		<polygon class="st24" points="129.8,149.7 124.4,155.4 124.4,155.4 129.8,149.7 		"/>
		<polygon class="st25" points="130.3,150.1 124.9,155.8 124.4,155.4 129.8,149.7 		"/>
		<polygon class="st26" points="130.3,150.1 124.9,155.8 124.9,155.8 130.3,150.1 		"/>
		<polygon class="st27" points="130.7,150.5 125.3,156.2 124.9,155.8 130.3,150.1 		"/>
		<polygon class="st28" points="130.7,150.5 125.3,156.2 125.3,156.2 130.7,150.5 		"/>
		<polygon class="st29" points="130.7,150.5 125.3,156.2 125.3,156.2 130.7,150.5 		"/>
		<polygon class="st30" points="131.2,150.9 125.8,156.6 125.3,156.2 130.7,150.5 		"/>
		<polygon class="st31" points="131.2,150.9 125.8,156.6 125.8,156.6 131.2,150.9 		"/>
		<polygon class="st32" points="131.7,151.3 126.3,157 125.8,156.6 131.2,150.9 		"/>
		<polygon class="st33" points="132.2,151.8 126.8,157.4 126.3,157 131.7,151.3 		"/>
		<polygon class="st34" points="132.2,151.8 126.8,157.4 126.8,157.4 132.2,151.8 		"/>
		<polygon class="st35" points="132.6,152.2 127.2,157.9 126.8,157.4 132.2,151.8 		"/>
		<polygon class="st36" points="132.6,152.2 127.2,157.9 127.2,157.9 132.6,152.2 		"/>
		<polygon class="st37" points="133.1,152.6 127.7,158.3 127.2,157.9 132.6,152.2 		"/>
		<polygon class="st38" points="133.1,152.6 127.7,158.3 127.7,158.3 133.1,152.6 		"/>
		<polygon class="st39" points="133.1,152.6 127.7,158.3 127.7,158.3 133.1,152.6 		"/>
		<polygon class="st40" points="133.6,153 128.2,158.7 127.7,158.3 133.1,152.6 		"/>
		<polygon class="st41" points="133.6,153 128.2,158.7 128.2,158.7 133.6,153 		"/>
		<polygon class="st42" points="134.1,153.4 128.7,159.1 128.2,158.7 133.6,153 		"/>
		<polygon class="st43" points="134.1,153.4 128.7,159.1 128.7,159.1 134.1,153.4 		"/>
		<polygon class="st44" points="134.5,153.8 129.1,159.5 128.7,159.1 134.1,153.4 		"/>
		<polygon class="st45" points="134.5,153.8 129.1,159.5 129.1,159.5 134.5,153.8 		"/>
		<polygon class="st46" points="135,154.2 129.6,159.9 129.1,159.5 134.5,153.8 		"/>
		<polygon class="st47" points="135.5,154.6 130.1,160.3 129.6,159.9 135,154.2 		"/>
		<polygon class="st48" points="135.5,154.6 130.1,160.3 130.1,160.3 135.5,154.6 		"/>
		<polygon class="st49" points="135.5,154.6 130.1,160.3 130.1,160.3 135.5,154.6 		"/>
		<polygon class="st50" points="136,155 130.6,160.7 130.1,160.3 135.5,154.6 		"/>
		<polygon class="st51" points="136,155 130.6,160.7 130.6,160.7 136,155 		"/>
		<polygon class="st52" points="136.4,155.4 131,161.1 130.6,160.7 136,155 		"/>
		<polygon class="st53" points="136.4,155.4 131,161.1 131,161.1 136.4,155.4 		"/>
		<polygon class="st54" points="136.9,155.8 131.5,161.5 131,161.1 136.4,155.4 		"/>
		<polygon class="st55" points="136.9,155.8 131.5,161.5 131.5,161.5 136.9,155.8 		"/>
		<polygon class="st122" points="137.4,156.2 132,161.9 131.5,161.5 136.9,155.8 		"/>
		<polygon class="st122" points="132.2,161.7 137.2,156.4 137.2,156.4 132.2,161.7 		"/>
	</g>
</g>
</svg>
