<svg id="Layer_1" data-name="Layer 1" xmlns="http://www.w3.org/2000/svg" xmlns:xlink="http://www.w3.org/1999/xlink" viewBox="0 0 350 297.1"><defs><style>.cls-1{fill:none;}.cls-118,.cls-2{fill:#c1ad73;}.cls-3{fill:#ececec;}.cls-118,.cls-3,.cls-4{opacity:0.9;}.cls-125,.cls-4,.cls-6{fill:#fff;}.cls-5{fill:#ccc;}.cls-117,.cls-121,.cls-6{isolation:isolate;}.cls-7{fill:#00b533;}.cls-8{clip-path:url(#clip-path);}.cls-9{fill:#f8af42;}.cls-10{fill:#f8b042;}.cls-11{fill:#f8b142;}.cls-12{fill:#f8b242;}.cls-13{fill:#f9b341;}.cls-14{fill:#f9b441;}.cls-15{fill:#f9b541;}.cls-16{fill:#f9b641;}.cls-17{fill:#f9b741;}.cls-18{fill:#f9b841;}.cls-19{fill:#f9b941;}.cls-20{fill:#faba40;}.cls-21{fill:#fabb40;}.cls-22{fill:#fabc40;}.cls-23{fill:#fabd40;}.cls-24{fill:#fabe40;}.cls-25{fill:#fabf40;}.cls-26{fill:#fac040;}.cls-27{fill:#fbc13f;}.cls-28{fill:#fbc23f;}.cls-29{fill:#fbc33f;}.cls-30{fill:#fbc53f;}.cls-31{fill:#fbc63f;}.cls-32{fill:#fbc73f;}.cls-33{fill:#fcc83e;}.cls-34{fill:#fcc93e;}.cls-35{fill:#fcca3e;}.cls-36{fill:#fccb3e;}.cls-37{fill:#fccc3e;}.cls-38{fill:#fccd3e;}.cls-39{fill:#fcce3e;}.cls-40{fill:#fdcf3d;}.cls-41{fill:#fdd03d;}.cls-42{fill:#fdd13d;}.cls-43{fill:#fdd23d;}.cls-44{fill:#fdd33d;}.cls-45{fill:#fdd43d;}.cls-46{fill:#fdd53d;}.cls-47{fill:#fed63c;}.cls-48{fill:#fed73c;}.cls-49{fill:#fed83c;}.cls-50{clip-path:url(#clip-path-2);}.cls-51{fill:#f8ab17;}.cls-52{fill:#f8ac17;}.cls-53{fill:#f8ad17;}.cls-54{fill:#f8ae17;}.cls-55{fill:#f8af18;}.cls-56{fill:#f8b018;}.cls-57{fill:#f8b118;}.cls-58{fill:#f8b218;}.cls-59{fill:#f8b318;}.cls-60{fill:#f8b418;}.cls-61{fill:#f8b519;}.cls-62{fill:#f8b619;}.cls-63{fill:#f8b719;}.cls-64{fill:#f8b819;}.cls-65{fill:#f8b919;}.cls-66{fill:#f8ba19;}.cls-67{fill:#f8bb1a;}.cls-68{fill:#f8bc1a;}.cls-69{fill:#f8bd1a;}.cls-70{fill:#f8be1a;}.cls-71{fill:#f8bf1a;}.cls-72{fill:#f8c01a;}.cls-73{fill:#f8c11a;}.cls-74{fill:#f8c21b;}.cls-75{fill:#f8c31b;}.cls-76{fill:#f8c41b;}.cls-77{fill:#f8c51b;}.cls-78{fill:#f8c61b;}.cls-79{fill:#f8c71b;}.cls-80{fill:#f8c81c;}.cls-81{fill:#f8c91c;}.cls-82{fill:#f8ca1c;}.cls-83{fill:#f9cc1c;}.cls-84{fill:#f9cd1c;}.cls-85{fill:#f9ce1c;}.cls-86{fill:#f9cf1d;}.cls-87{fill:#f9d01d;}.cls-88{fill:#f9d11d;}.cls-89{fill:#f9d21d;}.cls-90{fill:#f9d31d;}.cls-91{fill:#f9d41d;}.cls-92{fill:#f9d51e;}.cls-93{fill:#f9d61e;}.cls-94{fill:#f9d71e;}.cls-95{fill:#f9d81e;}.cls-96{fill:#f9d91e;}.cls-97{fill:#f9da1e;}.cls-98{fill:#f9db1e;}.cls-99{fill:#f9dc1f;}.cls-100{fill:#f9dd1f;}.cls-101{fill:#f9de1f;}.cls-102{fill:#f9df1f;}.cls-103{fill:#f9e01f;}.cls-104{fill:#f9e11f;}.cls-105{fill:#f9e220;}.cls-106{fill:#f9e320;}.cls-107{fill:#f9e420;}.cls-108{fill:#f9e520;}.cls-109{fill:#f9e620;}.cls-110{fill:#f9e720;}.cls-111{fill:#f9e821;}.cls-112{fill:#f9e921;}.cls-113{fill:#f9ea21;}.cls-114{fill:#f9eb21;}.cls-115{clip-path:url(#clip-path-3);}.cls-116{fill:#fed93c;}.cls-117{opacity:0.1;fill:url(#linear-gradient);}.cls-119{fill:#d8cbad;}.cls-120{fill:#262642;}.cls-121{opacity:0.1;fill:url(#linear-gradient-2);}.cls-122{fill:#ca3b53;}.cls-123{fill:#ebbbc3;}.cls-124{fill:#ffb43b;}.cls-126{clip-path:url(#clip-path-4);}.cls-127{clip-path:url(#clip-path-5);}.cls-128{clip-path:url(#clip-path-6);}</style><clipPath id="clip-path"><path class="cls-1" d="M123.86,151.75a.13.13,0,0,1,.2-.08l.57.24c.19.08.24.12.22.23a3.54,3.54,0,0,1,1.55-1.36l4.22-2.75a.4.4,0,0,0,.05-.61c-.23-.28-.4-.21-.63-.13s-4.8,2.81-4.8,2.81-2.66,1.93-4.18,0a2.63,2.63,0,0,1-.32-.65,1.9,1.9,0,0,1,0-.63,2.14,2.14,0,0,1,1.07-1.38,4.21,4.21,0,0,1,1.28-.54,2.35,2.35,0,0,1,.42,0,2.1,2.1,0,0,1,1.28.4,6.35,6.35,0,0,1,.5.49.5.5,0,0,0,.61.17.42.42,0,0,0,.31-.33c0-.27-.52-.82-.64-.93a3.43,3.43,0,0,0-4.05-.36c-.2.11-3.84,2-1.05,5a3.12,3.12,0,0,0,3.38.47Z"/></clipPath><clipPath id="clip-path-2"><path class="cls-1" d="M124.8,152.63a.78.78,0,0,1,0-.2A.61.61,0,0,0,124.8,152.63Z"/></clipPath><clipPath id="clip-path-3"><path class="cls-1" d="M132.51,160l-.42-.08a1.33,1.33,0,0,1-.9-.75,1.68,1.68,0,0,1,.3-1.6c.33-.46.79-.83,1.16-1.26a1.93,1.93,0,0,0,.57-1.75,1.67,1.67,0,0,0-1.46-1.11c-.08,0-.17,0-.18-.1a1.79,1.79,0,0,0-1.21-2.1s0-.07.05-.17a.29.29,0,0,0,0-.15.79.79,0,0,0-.31-.38.18.18,0,0,0-.19,0c-.79.44-1.81,1.19-2.32,1.5a12.84,12.84,0,0,1-1.55.89,1.14,1.14,0,0,1-.89.09.61.61,0,0,1-.36-.67c0-.11.08-.24,0-.34a.34.34,0,0,0-.15-.1l-.57-.24a.23.23,0,0,0-.14,0,.2.2,0,0,0-.12.12,1.72,1.72,0,0,0,1.2,2.57,1.79,1.79,0,0,0,.63-.06,19.81,19.81,0,0,0,3.3-1.67c.45-.22,1.22-.43,1.53.15.16.31,0,.6-.24.83a5.42,5.42,0,0,1-.85.78c-.29.21-.91.72-.4,1.11a.39.39,0,0,0,.2.08,1.05,1.05,0,0,0,.72-.27c.29-.2.58-.41.88-.6a1.78,1.78,0,0,1,.61-.28.74.74,0,0,1,.64.16.64.64,0,0,1,.13.67,1.65,1.65,0,0,1-.41.58,7.06,7.06,0,0,0-1.45,1.68,2.4,2.4,0,0,0,0,2.14,2.43,2.43,0,0,0,1.83,1.27.9.9,0,0,0,.74-.17.4.4,0,0,0,.11-.43A.62.62,0,0,0,132.51,160Z"/></clipPath><linearGradient id="linear-gradient" x1="47.96" y1="206.69" x2="60.03" y2="206.69" gradientTransform="translate(259.65 148.9) rotate(88.94)" gradientUnits="userSpaceOnUse"><stop offset="0" stop-color="#c69c6d"/><stop offset="0.11" stop-color="#c0976a"/><stop offset="0.26" stop-color="#af8a61"/><stop offset="0.42" stop-color="#947451"/><stop offset="0.6" stop-color="#6d563c"/><stop offset="0.8" stop-color="#3c2f21"/><stop offset="1"/></linearGradient><linearGradient id="linear-gradient-2" x1="135.45" y1="149.37" x2="75.03" y2="192.91" gradientUnits="userSpaceOnUse"><stop offset="0" stop-color="#fff"/><stop offset="0.09" stop-color="#f9f9f9"/><stop offset="0.22" stop-color="#e8e8e8"/><stop offset="0.36" stop-color="#cdcdcd"/><stop offset="0.52" stop-color="#a6a6a6"/><stop offset="0.68" stop-color="#757575"/><stop offset="0.85" stop-color="#393939"/><stop offset="1"/></linearGradient><clipPath id="clip-path-4"><path class="cls-1" d="M123.86,151.85a.13.13,0,0,1,.2-.08l.57.24c.19.08.24.12.22.23a3.54,3.54,0,0,1,1.55-1.36l4.22-2.75a.4.4,0,0,0,.05-.61c-.23-.28-.4-.21-.63-.13s-4.8,2.81-4.8,2.81-2.66,1.93-4.18,0a2.63,2.63,0,0,1-.32-.65,1.9,1.9,0,0,1,0-.63,2.14,2.14,0,0,1,1.07-1.38,4.21,4.21,0,0,1,1.28-.54,2.35,2.35,0,0,1,.42,0,2.1,2.1,0,0,1,1.28.4,6.35,6.35,0,0,1,.5.49.5.5,0,0,0,.61.17.42.42,0,0,0,.31-.33c0-.27-.52-.82-.64-.93a3.43,3.43,0,0,0-4.05-.36c-.2.11-3.84,2-1.05,5a3.12,3.12,0,0,0,3.38.47Z"/></clipPath><clipPath id="clip-path-5"><path class="cls-1" d="M124.8,152.72a.78.78,0,0,1,0-.2A.61.61,0,0,0,124.8,152.72Z"/></clipPath><clipPath id="clip-path-6"><path class="cls-1" d="M132.51,160.1l-.42-.08a1.33,1.33,0,0,1-.9-.75,1.68,1.68,0,0,1,.3-1.6c.33-.46.79-.83,1.16-1.26a1.93,1.93,0,0,0,.57-1.75,1.67,1.67,0,0,0-1.46-1.11c-.08,0-.17,0-.18-.1a1.79,1.79,0,0,0-1.21-2.1s0-.07.05-.17a.29.29,0,0,0,0-.15.79.79,0,0,0-.31-.38.18.18,0,0,0-.19,0c-.79.44-1.81,1.19-2.32,1.5A12.84,12.84,0,0,1,126,153a1.14,1.14,0,0,1-.89.09.61.61,0,0,1-.36-.67c0-.11.08-.24,0-.34a.34.34,0,0,0-.15-.1l-.57-.24a.23.23,0,0,0-.14,0,.2.2,0,0,0-.12.12,1.72,1.72,0,0,0,1.2,2.57,1.79,1.79,0,0,0,.63-.06,19.81,19.81,0,0,0,3.3-1.67c.45-.22,1.22-.43,1.53.15.16.31,0,.6-.24.83a5.42,5.42,0,0,1-.85.78c-.29.21-.91.72-.4,1.11a.39.39,0,0,0,.2.08,1.05,1.05,0,0,0,.72-.27c.29-.2.58-.41.88-.6a1.78,1.78,0,0,1,.61-.28.74.74,0,0,1,.64.16.64.64,0,0,1,.13.67,1.65,1.65,0,0,1-.41.58,7.06,7.06,0,0,0-1.45,1.68,2.4,2.4,0,0,0,0,2.14,2.43,2.43,0,0,0,1.83,1.27.9.9,0,0,0,.74-.17.4.4,0,0,0,.11-.43A.62.62,0,0,0,132.51,160.1Z"/></clipPath></defs><title>DMArtboard 1 copy 5</title><polygon class="cls-2" points="168.35 179.64 349.62 180.72 350.21 301 -5.94 299.78 79.73 187.7 168.35 179.64"/><rect class="cls-3" x="62.43" y="96.74" width="100.52" height="121.01" rx="4.67" ry="4.67"/><path class="cls-2" d="M348,95c-1.89,0-3,1.54-3,3.43v27.94c0,1.89,1.11,3.43,3,3.43s3-1.54,3-3.43V98.44C351,96.55,349.89,95,348,95Z"/><path class="cls-2" d="M341.5,94.82a3.5,3.5,0,0,0-3.5,3.43v3.57a3.59,3.59,0,0,0-2.44,1.47l.56-3a3.46,3.46,0,0,0-6.77-1.4l-4.65,22.28-3.58-19.32c-.34-1.86-2.15-2.75-4-2.75h0c-1.86,0-3.09,2.14-2.75,4l5.09,27.47a3.42,3.42,0,0,0,6.77-.29l.07,0a3.44,3.44,0,0,0,3.54-1.45l-.62,3a3.44,3.44,0,0,0,2.66,4.06,3.58,3.58,0,0,0,4.19-2.66l1.93-8.63v1.57a3.5,3.5,0,0,0,7,0V98.25A3.5,3.5,0,0,0,341.5,94.82Z"/><path class="cls-2" d="M308.47,99a3.43,3.43,0,0,0-6.73-.09,3.58,3.58,0,0,0-3.21-2,3.53,3.53,0,0,0-3.53,3.43v27.94a3.5,3.5,0,0,0,7,0V102.1l4.78,25.64a3.44,3.44,0,0,0,6.77-1.25Z"/><rect class="cls-2" x="309.7" y="104.66" width="6.86" height="34.8" rx="3.43" ry="3.43"/><rect class="cls-2" x="291.63" y="109.98" width="59" height="40.07" transform="translate(643.1 257.94) rotate(179.63)"/><rect class="cls-4" x="291.56" y="113.21" width="59" height="10.24" transform="translate(642.87 234.57) rotate(179.63)"/><rect class="cls-4" x="291.64" y="126.95" width="59" height="10.24" transform="translate(643.14 262.06) rotate(179.63)"/><rect class="cls-4" x="291.73" y="140.7" width="59" height="10.24" transform="translate(643.4 289.56) rotate(179.63)"/><rect class="cls-5" x="291.56" y="113.21" width="59" height="10.24" transform="translate(642.87 234.57) rotate(179.63)"/><rect class="cls-5" x="291.64" y="126.95" width="59" height="10.24" transform="translate(643.14 262.06) rotate(179.63)"/><rect class="cls-5" x="291.73" y="140.7" width="59" height="10.24" transform="translate(643.4 289.56) rotate(179.63)"/><rect class="cls-3" x="62.11" y="22.07" width="100.58" height="72.03" rx="8.92" ry="8.92" transform="translate(-0.21 0.4) rotate(-0.2)"/><rect class="cls-4" x="166.02" y="22.07" width="100.58" height="72.03" rx="8.92" ry="8.92" transform="translate(-0.21 0.77) rotate(-0.2)"/><rect class="cls-3" x="166.02" y="22.07" width="100.58" height="72.03" rx="8.92" ry="8.92" transform="translate(-0.21 0.77) rotate(-0.2)"/><rect class="cls-2" x="185.38" y="58.85" width="2.96" height="21.42" rx="1.48" ry="1.48"/><rect class="cls-3" x="166.38" y="96.74" width="100.52" height="121.01" rx="4.67" ry="4.67"/><rect class="cls-2" x="185.38" y="107.82" width="2.96" height="76.35" rx="1.48" ry="1.48"/><circle class="cls-2" cx="303.88" cy="160.33" r="13.26"/><circle class="cls-2" cx="335.71" cy="158.32" r="13.26"/><ellipse class="cls-2" cx="288.11" cy="156.94" rx="17.18" ry="18.08"/><ellipse class="cls-2" cx="313.01" cy="161.19" rx="17.18" ry="18.08"/><circle class="cls-2" cx="267.92" cy="156.71" r="13.26"/><ellipse class="cls-6" cx="53.99" cy="206.69" rx="5.57" ry="6.04" transform="translate(-153.66 256.86) rotate(-88.94)"/><path class="cls-7" d="M125.94,146.23s1.19-.4,1-2.42C126.91,143.81,124.55,144.93,125.94,146.23Z"/><path class="cls-7" d="M126.27,146.72c1.21,1.66,3.63-.58,3.63-.58-3-.71-3.57.34-3.64.53Z"/><g class="cls-8"><polygon class="cls-9" points="123.28 153.66 129.79 146.54 130.97 147.55 124.33 154.56 123.28 153.66"/><polygon class="cls-9" points="123.13 153.54 129.65 146.42 129.79 146.54 123.28 153.66 123.13 153.54"/><polygon class="cls-10" points="122.99 153.41 129.5 146.29 129.65 146.42 123.13 153.54 122.99 153.41"/><polygon class="cls-11" points="122.84 153.29 129.35 146.17 129.5 146.29 122.99 153.41 122.84 153.29"/><polygon class="cls-12" points="122.69 153.16 129.21 146.04 129.35 146.17 122.84 153.29 122.69 153.16"/><polygon class="cls-13" points="122.55 153.04 129.06 145.92 129.21 146.04 122.69 153.16 122.55 153.04"/><polygon class="cls-14" points="122.4 152.91 128.92 145.79 129.06 145.92 122.55 153.04 122.4 152.91"/><polygon class="cls-15" points="122.26 152.79 128.77 145.67 128.92 145.79 122.4 152.91 122.26 152.79"/><polygon class="cls-16" points="122.11 152.66 128.63 145.54 128.77 145.67 122.26 152.79 122.11 152.66"/><polygon class="cls-17" points="121.96 152.54 128.48 145.42 128.63 145.54 122.11 152.66 121.96 152.54"/><polygon class="cls-18" points="121.82 152.41 128.33 145.29 128.48 145.42 121.96 152.54 121.82 152.41"/><polygon class="cls-19" points="121.67 152.28 128.19 145.17 128.33 145.29 121.82 152.41 121.67 152.28"/><polygon class="cls-20" points="121.53 152.16 128.04 145.04 128.19 145.17 121.67 152.28 121.53 152.16"/><polygon class="cls-21" points="121.38 152.03 127.89 144.92 128.04 145.04 121.53 152.16 121.38 152.03"/><polygon class="cls-22" points="121.23 151.91 127.75 144.79 127.89 144.92 121.38 152.03 121.23 151.91"/><polygon class="cls-23" points="121.09 151.78 127.6 144.67 127.75 144.79 121.23 151.91 121.09 151.78"/><polygon class="cls-24" points="120.94 151.66 127.46 144.54 127.6 144.67 121.09 151.78 120.94 151.66"/><polygon class="cls-25" points="120.8 151.53 127.31 144.41 127.46 144.54 120.94 151.66 120.8 151.53"/><polygon class="cls-26" points="120.65 151.41 127.17 144.29 127.31 144.41 120.8 151.53 120.65 151.41"/><polygon class="cls-27" points="120.5 151.28 127.02 144.16 127.17 144.29 120.65 151.41 120.5 151.28"/><polygon class="cls-28" points="120.36 151.16 126.87 144.04 127.02 144.16 120.5 151.28 120.36 151.16"/><polygon class="cls-29" points="120.21 151.03 126.73 143.91 126.87 144.04 120.36 151.16 120.21 151.03"/><polygon class="cls-30" points="120.07 150.91 126.58 143.79 126.73 143.91 120.21 151.03 120.07 150.91"/><polygon class="cls-31" points="119.92 150.78 126.44 143.66 126.58 143.79 120.07 150.91 119.92 150.78"/><polygon class="cls-32" points="119.77 150.66 126.29 143.54 126.44 143.66 119.92 150.78 119.77 150.66"/><polygon class="cls-33" points="119.63 150.53 126.14 143.41 126.29 143.54 119.77 150.66 119.63 150.53"/><polygon class="cls-34" points="119.48 150.41 126 143.29 126.14 143.41 119.63 150.53 119.48 150.41"/><polygon class="cls-35" points="119.34 150.28 125.85 143.16 126 143.29 119.48 150.41 119.34 150.28"/><polygon class="cls-36" points="119.19 150.16 125.7 143.04 125.85 143.16 119.34 150.28 119.19 150.16"/><polygon class="cls-37" points="119.04 150.03 125.56 142.91 125.7 143.04 119.19 150.16 119.04 150.03"/><polygon class="cls-38" points="118.9 149.91 125.41 142.79 125.56 142.91 119.04 150.03 118.9 149.91"/><polygon class="cls-39" points="118.75 149.78 125.27 142.66 125.41 142.79 118.9 149.91 118.75 149.78"/><polygon class="cls-40" points="118.61 149.65 125.12 142.54 125.27 142.66 118.75 149.78 118.61 149.65"/><polygon class="cls-41" points="118.46 149.53 124.97 142.41 125.12 142.54 118.61 149.65 118.46 149.53"/><polygon class="cls-42" points="118.31 149.4 124.83 142.28 124.97 142.41 118.46 149.53 118.31 149.4"/><polygon class="cls-43" points="118.17 149.28 124.68 142.16 124.83 142.28 118.31 149.4 118.17 149.28"/><polygon class="cls-44" points="118.02 149.15 124.54 142.03 124.68 142.16 118.17 149.28 118.02 149.15"/><polygon class="cls-45" points="117.88 149.03 124.39 141.91 124.54 142.03 118.02 149.15 117.88 149.03"/><polygon class="cls-46" points="117.73 148.9 124.25 141.78 124.39 141.91 117.88 149.03 117.73 148.9"/><polygon class="cls-47" points="117.58 148.78 124.1 141.66 124.25 141.78 117.73 148.9 117.58 148.78"/><polygon class="cls-48" points="117.44 148.65 119.65 145.86 123.84 141.43 124.1 141.66 117.58 148.78 117.44 148.65"/><polygon class="cls-49" points="119.65 145.86 117.44 148.65 117.19 148.44 119.65 145.86"/></g><g class="cls-50"><path class="cls-51" d="M124.7,152.35l-.1.1Z"/><polygon class="cls-51" points="124.78 152.43 124.69 152.53 124.69 152.53 124.78 152.43 124.78 152.43"/><polygon class="cls-52" points="124.78 152.43 124.69 152.53 124.69 152.53 124.78 152.43 124.78 152.43"/><polygon class="cls-53" points="124.79 152.43 124.69 152.53 124.69 152.53 124.78 152.43 124.79 152.43"/><polygon class="cls-54" points="124.79 152.43 124.69 152.53 124.69 152.53 124.79 152.43 124.79 152.43"/><polygon class="cls-55" points="124.79 152.43 124.69 152.53 124.69 152.53 124.79 152.43 124.79 152.43"/><polygon class="cls-56" points="124.79 152.44 124.7 152.53 124.69 152.53 124.79 152.43 124.79 152.44"/><polygon class="cls-57" points="124.79 152.44 124.7 152.54 124.7 152.53 124.79 152.44 124.79 152.44"/><polygon class="cls-58" points="124.8 152.44 124.7 152.54 124.7 152.54 124.79 152.44 124.8 152.44"/><polygon class="cls-59" points="124.8 152.44 124.7 152.54 124.7 152.54 124.8 152.44 124.8 152.44"/><polygon class="cls-60" points="124.8 152.44 124.7 152.54 124.7 152.54 124.8 152.44 124.8 152.44"/><polygon class="cls-61" points="124.8 152.44 124.71 152.54 124.7 152.54 124.8 152.44 124.8 152.44"/><polygon class="cls-62" points="124.8 152.44 124.71 152.54 124.71 152.54 124.8 152.44 124.8 152.44"/><polygon class="cls-63" points="124.8 152.45 124.71 152.55 124.71 152.54 124.8 152.44 124.8 152.45"/><polygon class="cls-64" points="124.81 152.45 124.71 152.55 124.71 152.55 124.8 152.45 124.81 152.45"/><polygon class="cls-65" points="124.81 152.45 124.71 152.55 124.71 152.55 124.81 152.45 124.81 152.45"/><polygon class="cls-66" points="124.81 152.45 124.72 152.55 124.71 152.55 124.81 152.45 124.81 152.45"/><polygon class="cls-67" points="124.81 152.45 124.72 152.55 124.72 152.55 124.81 152.45 124.81 152.45"/><polygon class="cls-68" points="124.81 152.45 124.72 152.55 124.72 152.55 124.81 152.45 124.81 152.45"/><polygon class="cls-69" points="124.81 152.46 124.72 152.56 124.72 152.55 124.81 152.45 124.81 152.46"/><polygon class="cls-70" points="124.82 152.46 124.72 152.56 124.72 152.56 124.81 152.46 124.82 152.46"/><polygon class="cls-71" points="124.82 152.46 124.72 152.56 124.72 152.56 124.82 152.46 124.82 152.46"/><polygon class="cls-72" points="124.82 152.46 124.72 152.56 124.72 152.56 124.82 152.46 124.82 152.46"/><polygon class="cls-73" points="124.82 152.46 124.73 152.56 124.72 152.56 124.82 152.46 124.82 152.46"/><polygon class="cls-74" points="124.82 152.46 124.73 152.56 124.73 152.56 124.82 152.46 124.82 152.46"/><polygon class="cls-75" points="124.83 152.46 124.73 152.56 124.73 152.56 124.82 152.46 124.83 152.46"/><polygon class="cls-76" points="124.83 152.47 124.73 152.57 124.73 152.56 124.83 152.46 124.83 152.47"/><polygon class="cls-77" points="124.83 152.47 124.73 152.57 124.73 152.57 124.83 152.47 124.83 152.47"/><polygon class="cls-78" points="124.83 152.47 124.74 152.57 124.73 152.57 124.83 152.47 124.83 152.47"/><polygon class="cls-79" points="124.83 152.47 124.74 152.57 124.74 152.57 124.83 152.47 124.83 152.47"/><polygon class="cls-80" points="124.83 152.47 124.74 152.57 124.74 152.57 124.83 152.47 124.83 152.47"/><polygon class="cls-81" points="124.84 152.47 124.74 152.57 124.74 152.57 124.83 152.47 124.84 152.47"/><polygon class="cls-82" points="124.84 152.47 124.74 152.58 124.74 152.57 124.84 152.47 124.84 152.47"/><polygon class="cls-83" points="124.84 152.48 124.75 152.58 124.74 152.58 124.84 152.47 124.84 152.48"/><polygon class="cls-84" points="124.84 152.48 124.75 152.58 124.75 152.58 124.84 152.48 124.84 152.48"/><polygon class="cls-85" points="124.84 152.48 124.75 152.58 124.75 152.58 124.84 152.48 124.84 152.48"/><polygon class="cls-86" points="124.85 152.48 124.75 152.58 124.75 152.58 124.84 152.48 124.85 152.48"/><polygon class="cls-87" points="124.85 152.48 124.75 152.58 124.75 152.58 124.85 152.48 124.85 152.48"/><polygon class="cls-88" points="124.85 152.48 124.75 152.59 124.75 152.58 124.85 152.48 124.85 152.48"/><polygon class="cls-89" points="124.85 152.49 124.76 152.59 124.75 152.59 124.85 152.48 124.85 152.49"/><polygon class="cls-90" points="124.85 152.49 124.76 152.59 124.76 152.59 124.85 152.49 124.85 152.49"/><polygon class="cls-91" points="124.86 152.49 124.76 152.59 124.76 152.59 124.85 152.49 124.86 152.49"/><polygon class="cls-92" points="124.86 152.49 124.76 152.59 124.76 152.59 124.86 152.49 124.86 152.49"/><polygon class="cls-93" points="124.86 152.49 124.76 152.59 124.76 152.59 124.86 152.49 124.86 152.49"/><polygon class="cls-94" points="124.86 152.49 124.77 152.59 124.76 152.59 124.86 152.49 124.86 152.49"/><polygon class="cls-95" points="124.86 152.5 124.77 152.6 124.77 152.59 124.86 152.49 124.86 152.5"/><polygon class="cls-96" points="124.86 152.5 124.77 152.6 124.77 152.6 124.86 152.5 124.86 152.5"/><polygon class="cls-97" points="124.87 152.5 124.77 152.6 124.77 152.6 124.86 152.5 124.87 152.5"/><polygon class="cls-98" points="124.87 152.5 124.77 152.6 124.77 152.6 124.87 152.5 124.87 152.5"/><polygon class="cls-99" points="124.87 152.5 124.77 152.6 124.77 152.6 124.87 152.5 124.87 152.5"/><polygon class="cls-100" points="124.87 152.5 124.78 152.6 124.77 152.6 124.87 152.5 124.87 152.5"/><polygon class="cls-101" points="124.87 152.5 124.78 152.6 124.78 152.6 124.87 152.5 124.87 152.5"/><polygon class="cls-102" points="124.88 152.51 124.78 152.61 124.78 152.6 124.87 152.5 124.88 152.51"/><polygon class="cls-103" points="124.88 152.51 124.78 152.61 124.78 152.61 124.88 152.51 124.88 152.51"/><polygon class="cls-104" points="124.88 152.51 124.78 152.61 124.78 152.61 124.88 152.51 124.88 152.51"/><polygon class="cls-105" points="124.88 152.51 124.78 152.61 124.78 152.61 124.88 152.51 124.88 152.51"/><polygon class="cls-106" points="124.88 152.51 124.79 152.61 124.78 152.61 124.88 152.51 124.88 152.51"/><polygon class="cls-107" points="124.88 152.51 124.79 152.61 124.79 152.61 124.88 152.51 124.88 152.51"/><polygon class="cls-108" points="124.89 152.51 124.79 152.62 124.79 152.61 124.88 152.51 124.89 152.51"/><polygon class="cls-109" points="124.89 152.52 124.79 152.62 124.79 152.62 124.89 152.51 124.89 152.52"/><polygon class="cls-110" points="124.89 152.52 124.79 152.62 124.79 152.62 124.89 152.52 124.89 152.52"/><polygon class="cls-111" points="124.89 152.52 124.8 152.62 124.79 152.62 124.89 152.52 124.89 152.52"/><polygon class="cls-112" points="124.89 152.52 124.8 152.62 124.8 152.62 124.89 152.52 124.89 152.52"/><polygon class="cls-113" points="124.89 152.52 124.8 152.62 124.8 152.62 124.89 152.52 124.89 152.52"/><polygon class="cls-114" points="124.9 152.53 124.8 152.63 124.8 152.62 124.89 152.52 124.9 152.53"/><path class="cls-114" d="M124.6,152.45l.1-.1Z"/></g><g class="cls-115"><polygon class="cls-9" points="127.25 147.84 122.27 153.09 122.27 153.09 127.25 147.84 127.25 147.84"/><polygon class="cls-9" points="127.88 148.08 122.48 153.78 122.01 153.37 127.41 147.67 127.88 148.08"/><polygon class="cls-10" points="128.36 148.49 122.96 154.18 122.48 153.78 127.88 148.08 128.36 148.49"/><polygon class="cls-11" points="128.36 148.49 122.96 154.18 122.96 154.18 128.36 148.49 128.36 148.49"/><polygon class="cls-12" points="128.36 148.49 122.96 154.18 122.96 154.18 128.36 148.49 128.36 148.49"/><polygon class="cls-13" points="128.83 148.9 123.44 154.59 122.96 154.18 128.36 148.49 128.83 148.9"/><polygon class="cls-14" points="128.83 148.9 123.44 154.59 123.44 154.59 128.83 148.9 128.83 148.9"/><polygon class="cls-15" points="129.31 149.31 123.91 155 123.44 154.59 128.83 148.9 129.31 149.31"/><polygon class="cls-16" points="129.31 149.31 123.91 155 123.91 155 129.31 149.31 129.31 149.31"/><polygon class="cls-17" points="129.78 149.71 124.39 155.41 123.91 155 129.31 149.31 129.78 149.71"/><polygon class="cls-18" points="129.78 149.71 124.39 155.41 124.39 155.41 129.78 149.71 129.78 149.71"/><polygon class="cls-19" points="130.26 150.12 124.86 155.82 124.39 155.41 129.78 149.71 130.26 150.12"/><polygon class="cls-20" points="130.26 150.12 124.86 155.82 124.86 155.82 130.26 150.12 130.26 150.12"/><polygon class="cls-21" points="130.73 150.53 125.34 156.22 124.86 155.82 130.26 150.12 130.73 150.53"/><polygon class="cls-22" points="130.73 150.53 125.34 156.22 125.34 156.22 130.73 150.53 130.73 150.53"/><polygon class="cls-23" points="130.73 150.53 125.34 156.22 125.34 156.22 130.73 150.53 130.73 150.53"/><polygon class="cls-24" points="131.21 150.94 125.81 156.63 125.34 156.22 130.73 150.53 131.21 150.94"/><polygon class="cls-25" points="131.21 150.94 125.81 156.63 125.81 156.63 131.21 150.94 131.21 150.94"/><polygon class="cls-26" points="131.68 151.34 126.29 157.04 125.81 156.63 131.21 150.94 131.68 151.34"/><polygon class="cls-27" points="132.16 151.75 126.76 157.45 126.29 157.04 131.68 151.34 132.16 151.75"/><polygon class="cls-28" points="132.16 151.75 126.76 157.45 126.76 157.45 132.16 151.75 132.16 151.75"/><polygon class="cls-29" points="132.63 152.16 127.24 157.85 126.76 157.45 132.16 151.75 132.63 152.16"/><polygon class="cls-30" points="132.63 152.16 127.24 157.85 127.24 157.85 132.63 152.16 132.63 152.16"/><polygon class="cls-31" points="133.11 152.57 127.71 158.26 127.24 157.85 132.63 152.16 133.11 152.57"/><polygon class="cls-32" points="133.11 152.57 127.71 158.26 127.71 158.26 133.11 152.57 133.11 152.57"/><polygon class="cls-33" points="133.11 152.57 127.71 158.26 127.71 158.26 133.11 152.57 133.11 152.57"/><polygon class="cls-34" points="133.59 152.98 128.19 158.67 127.71 158.26 133.11 152.57 133.59 152.98"/><polygon class="cls-35" points="133.59 152.98 128.19 158.67 128.19 158.67 133.59 152.98 133.59 152.98"/><polygon class="cls-36" points="134.06 153.38 128.66 159.08 128.19 158.67 133.59 152.98 134.06 153.38"/><polygon class="cls-37" points="134.06 153.38 128.66 159.08 128.66 159.08 134.06 153.38 134.06 153.38"/><polygon class="cls-38" points="134.54 153.79 129.14 159.49 128.66 159.08 134.06 153.38 134.54 153.79"/><polygon class="cls-39" points="134.54 153.79 129.14 159.49 129.14 159.49 134.54 153.79 134.54 153.79"/><polygon class="cls-40" points="135.01 154.2 129.62 159.9 129.14 159.49 134.54 153.79 135.01 154.2"/><polygon class="cls-41" points="135.49 154.61 130.09 160.3 129.62 159.9 135.01 154.2 135.49 154.61"/><polygon class="cls-42" points="135.49 154.61 130.09 160.3 130.09 160.3 135.49 154.61 135.49 154.61"/><polygon class="cls-43" points="135.49 154.61 130.09 160.3 130.09 160.3 135.49 154.61 135.49 154.61"/><polygon class="cls-44" points="135.96 155.01 130.57 160.71 130.09 160.3 135.49 154.61 135.96 155.01"/><polygon class="cls-45" points="135.96 155.01 130.57 160.71 130.57 160.71 135.96 155.01 135.96 155.01"/><polygon class="cls-46" points="136.44 155.42 131.04 161.12 130.57 160.71 135.96 155.01 136.44 155.42"/><polygon class="cls-47" points="136.44 155.42 131.04 161.12 131.04 161.12 136.44 155.42 136.44 155.42"/><polygon class="cls-48" points="136.91 155.83 131.52 161.53 131.04 161.12 136.44 155.42 136.91 155.83"/><polygon class="cls-49" points="136.91 155.83 131.52 161.53 131.52 161.53 136.91 155.83 136.91 155.83"/><polygon class="cls-116" points="137.39 156.24 131.99 161.93 131.52 161.53 136.91 155.83 137.39 156.24"/><polygon class="cls-116" points="132.25 161.66 137.23 156.41 137.23 156.41 132.25 161.66 132.25 161.66"/></g><rect class="cls-2" x="249.48" y="156.01" width="99.8" height="67.79"/><rect class="cls-6" x="249.48" y="159.96" width="99.8" height="9.06"/><rect class="cls-6" x="249.48" y="173.61" width="99.8" height="9.06"/><rect class="cls-6" x="249.48" y="187.26" width="99.8" height="9.06"/><rect class="cls-6" x="249.48" y="200.91" width="99.8" height="9.06"/><rect class="cls-6" x="249.44" y="214.62" width="99.8" height="9.06"/><rect class="cls-5" x="249.48" y="159.96" width="99.8" height="9.06"/><rect class="cls-5" x="249.48" y="173.61" width="99.8" height="9.06"/><rect class="cls-5" x="249.48" y="187.26" width="99.8" height="9.06"/><rect class="cls-5" x="249.48" y="200.91" width="99.8" height="9.06"/><rect class="cls-5" x="249.44" y="214.62" width="99.8" height="9.06"/><polygon class="cls-5" points="308.76 123.53 350.58 123.26 350.52 113.02 297.1 113.36 308.76 123.53"/><polygon class="cls-5" points="324.42 137.18 350.67 137 350.61 126.76 312.75 127.01 324.42 137.18"/><polygon class="cls-5" points="340.06 150.82 350.76 150.75 350.7 140.51 328.4 140.65 340.06 150.82"/><path class="cls-2" d="M348.94,158.77c0-.15,0-.3,0-.45a13.19,13.19,0,0,0-15.49-13.06Z"/><ellipse class="cls-117" cx="53.99" cy="206.69" rx="5.57" ry="6.04" transform="translate(-153.66 256.86) rotate(-88.94)"/><path class="cls-3" d="M71.16,94.25l30.91-.11,60.62-39.61-.08-23.72a8.92,8.92,0,0,0-9-8.89l-82.74.29a8.92,8.92,0,0,0-8.89,9l.19,54.19A8.92,8.92,0,0,0,71.16,94.25Z"/><path class="cls-2" d="M142,68V60.34a1.5,1.5,0,0,0-3,0v9.61Z"/><path class="cls-2" d="M140.5,80.27a1.5,1.5,0,0,0,1.5-1.48V68l-3,1.95v8.85A1.5,1.5,0,0,0,140.5,80.27Z"/><path class="cls-2" d="M199.07,39.29a6.26,6.26,0,0,0,6.12-5.2H193A6.26,6.26,0,0,0,199.07,39.29Z"/><path class="cls-118" d="M201,22.31V-8.9h-4V22.37c-.11.05-.22-.27-.33-.27h4.94C201.41,22.1,201.23,22.38,201,22.31Z"/><rect class="cls-118" x="154" y="30.1" width="90" height="2" rx="0.93" ry="0.93"/><path class="cls-118" d="M205.19,28.1H207v-6h-5.39C204.08,23.1,204.79,25.1,205.19,28.1Z"/><path class="cls-118" d="M196.67,22.1H191v6h2A7.65,7.65,0,0,1,196.67,22.1Z"/><path class="cls-118" d="M193,28.1h12.23c-.4-3-1.11-5-3.58-6h-4.94A7.65,7.65,0,0,0,193,28.1Z"/><path class="cls-118" d="M193,28.1h12.23c-.4-3-1.11-5-3.58-6h-4.94A7.65,7.65,0,0,0,193,28.1Z"/><path class="cls-119" d="M99.17,169.1l.75,1.32a1.34,1.34,0,0,1-.62,1.89L92,175.58a1,1,0,0,1-1.34-.5c-.77-1.68-2-5.33.46-7.31a4.46,4.46,0,0,1,2.22-1.18C95.91,166,97.68,167,99.17,169.1Z"/><path class="cls-5" d="M33.72,199.58c-1.3.72-2.5,2.74-3.18,4.15-2.35,4.89-5.14,14.11-3.15,18.91a5.71,5.71,0,0,0,3.43,3.11c4.28,1.5,13.81,3.18,15.93-10.53a16.65,16.65,0,0,0,.23-1.92Z"/><path class="cls-2" d="M31.88,214.89a1.7,1.7,0,0,0-1.9,1.18,5.05,5.05,0,0,0-.14.52c-.7,3.85-.54,6.15,2.3,6.89s3.39.05,5.41-3.61a12.69,12.69,0,0,0,.75-2,1.69,1.69,0,0,0-1.35-2.16Z"/><path class="cls-120" d="M190.32,146.46c9,10,2.44,13.58-4.82,18.82L88.55,235.82c-6.15,4.4-13.62,6-20.81,0L29,195.72C22.32,188,24.81,178.55,31,174.15l69.54-45.77c5.33-2.88,21.27-14.68,33.5-21.74,7.78-4.49,13.58-.56,17.45,2.79"/><polygon class="cls-120" points="36.42 174.4 89.22 229.59 185.74 158.68 135.39 110.37 36.42 174.4"/><polygon class="cls-121" points="37.42 173.4 90.22 228.59 186.74 157.68 136.39 109.37 37.42 173.4"/><polygon class="cls-122" points="36.42 173.4 89.22 228.59 185.74 157.68 135.39 109.37 36.42 173.4"/><path class="cls-123" d="M94.1,146.67c-.89-.91-2.1-2.63-4-1.5l-4.22,2.75c-1,.81-2.34,1.91,1,4.87l37.09,39.57a2.44,2.44,0,0,0,3.31.05l4-3c1.16-.86,1.64-2.05.86-3.18"/><path class="cls-123" d="M84.26,153.35c-.89-.91-2.1-2.63-4-1.5L76,154.59c-1,.81-2.34,1.91,1,4.87L114.08,199a2.44,2.44,0,0,0,3.31.05l4-3c1.16-.86,1.64-2.05.86-3.18"/><path class="cls-124" d="M63.59,164a1.14,1.14,0,0,1,.2-1.71l6.7-4.45a1.66,1.66,0,0,1,2,0l39.71,41.3c2,2.26.2,3.47-.37,3.93l-5.49,4.13a2.65,2.65,0,0,1-3.74-.41Z"/><path class="cls-125" d="M83,158.11a.82.82,0,0,1-1.12-.09l-.36-.38-.6.46-.31-.32,1.78-1.39.67.69A.64.64,0,0,1,83,158.11Zm-.32-.32a.3.3,0,0,0,0-.48l-.33-.34-.57.44.33.34A.38.38,0,0,0,82.7,157.78Z"/><path class="cls-125" d="M84.37,159.36l-1.27,1-.29-.3.21-.16a.74.74,0,0,1-.61-.22.67.67,0,0,1,.16-1,.86.86,0,0,1,1.16,0,.59.59,0,0,1,.16.58l.2-.16Zm-.92.19a.38.38,0,0,0,.08-.59.49.49,0,0,0-.66,0,.38.38,0,0,0-.07.59A.48.48,0,0,0,83.44,159.55Z"/><path class="cls-125" d="M85.13,160.84l-.26-.27a.21.21,0,0,0,0-.33.23.23,0,0,0-.3-.06c-.1.08,0,.22.09.41s.27.49,0,.69a.66.66,0,0,1-.87-.18c-.28-.29-.31-.63-.07-.82l.28.29c-.1.09-.09.22,0,.34a.25.25,0,0,0,.33.07c.11-.09,0-.24-.11-.44s-.22-.47,0-.65a.63.63,0,0,1,.83.16C85.34,160.33,85.36,160.66,85.13,160.84Z"/><path class="cls-125" d="M86.25,162l-.26-.27a.21.21,0,0,0,0-.33.23.23,0,0,0-.3-.06c-.1.08,0,.22.09.41s.27.49,0,.69a.66.66,0,0,1-.87-.18c-.28-.29-.31-.63-.07-.82l.28.29c-.1.09-.09.22,0,.34a.25.25,0,0,0,.33.07c.11-.09,0-.24-.11-.44s-.22-.47,0-.65a.63.63,0,0,1,.83.16C86.47,161.51,86.49,161.83,86.25,162Z"/><polygon class="cls-125" points="88.57 163.74 86.98 164.39 86.61 164 87.2 163.17 86.19 163.57 85.83 163.19 86.77 161.87 87.07 162.18 86.31 163.19 87.54 162.67 87.8 162.94 87.04 163.96 88.27 163.43 88.57 163.74"/><path class="cls-125" d="M89.18,165.53a.92.92,0,0,1-1.24-.1.72.72,0,0,1,.07-1.13.92.92,0,0,1,1.25.1A.72.72,0,0,1,89.18,165.53Zm-.88-.92a.38.38,0,0,0-.08.59.49.49,0,0,0,.66,0,.38.38,0,0,0,.08-.59A.49.49,0,0,0,88.3,164.61Z"/><path class="cls-125" d="M90.74,165.93l-.33.26a.55.55,0,0,0-.76-.13l-.61.48-.29-.3,1.27-1,.29.3-.28.22A.69.69,0,0,1,90.74,165.93Z"/><path class="cls-125" d="M92.47,166.87l-1.78,1.39-.29-.3.21-.16a.74.74,0,0,1-.61-.22.67.67,0,0,1,.16-1,.86.86,0,0,1,1.16,0,.59.59,0,0,1,.16.58l.72-.56Zm-1.44.59a.38.38,0,0,0,.08-.59.49.49,0,0,0-.66,0,.38.38,0,0,0-.07.59A.48.48,0,0,0,91,167.46Z"/><polygon class="cls-125" points="91.88 149.6 91.46 149.93 92.17 150.67 91.87 150.9 91.16 150.16 90.73 150.5 91.5 151.3 91.18 151.54 90.11 150.42 91.89 149.04 92.96 150.16 92.65 150.4 91.88 149.6"/><path class="cls-125" d="M93.88,152.84l-.84.65-.29-.3.79-.61a.24.24,0,0,0,0-.39.31.31,0,0,0-.43,0l-.79.61-.29-.3.79-.61a.24.24,0,0,0,0-.38.31.31,0,0,0-.43,0l-.79.61-.29-.3,1.27-1,.29.3-.2.16a.55.55,0,0,1,.55.16.42.42,0,0,1,.07.52.59.59,0,0,1,.58.16A.47.47,0,0,1,93.88,152.84Z"/><path class="cls-125" d="M95.67,153.92l-1.27,1-.29-.3.21-.16a.74.74,0,0,1-.61-.22.67.67,0,0,1,.16-1,.86.86,0,0,1,1.16,0,.59.59,0,0,1,.16.58l.2-.16Zm-.92.19a.38.38,0,0,0,.08-.59.49.49,0,0,0-.66,0,.38.38,0,0,0-.07.59A.48.48,0,0,0,94.75,154.11Z"/><path class="cls-125" d="M96.25,154.21a.21.21,0,0,1,0-.33.27.27,0,0,1,.36,0,.21.21,0,0,1,0,.33A.27.27,0,0,1,96.25,154.21Zm0,.28-1.27,1-.29-.3,1.27-1Z"/><polygon class="cls-125" points="97.31 154.69 95.53 156.07 95.24 155.78 97.02 154.39 97.31 154.69"/><path class="cls-125" d="M111.72,148.21a.41.41,0,0,1,.52.07.31.31,0,0,1,0,.47l-2.63,2a.4.4,0,0,1-.52-.07.32.32,0,0,1,0-.47l0,0a1,1,0,0,1-.83-.3,1.08,1.08,0,0,1,.23-1.68,1.37,1.37,0,0,1,1.87.09.81.81,0,0,1,.18.79Zm-2.79,1.36a.72.72,0,0,0,.92.05.56.56,0,0,0,.1-.83.67.67,0,0,0-.91,0A.53.53,0,0,0,108.93,149.57Z"/><path class="cls-125" d="M113.16,149.3a.39.39,0,0,1,0,.6.5.5,0,0,1-.66-.06.4.4,0,0,1,0-.61A.51.51,0,0,1,113.16,149.3Zm-2.62,2.45a.4.4,0,0,1-.52-.07.32.32,0,0,1,0-.47l1.53-1.16a.41.41,0,0,1,.52.07.31.31,0,0,1,0,.47Z"/><path class="cls-125" d="M110.6,152.69a.33.33,0,0,1,.3.34.72.72,0,0,0,.16.57c.38.41.8.28,1.19,0l.06,0a1,1,0,0,1-.87-.3,1.08,1.08,0,0,1,.23-1.68,1.37,1.37,0,0,1,1.87.09.81.81,0,0,1,.18.79l0,0a.41.41,0,0,1,.52.07.31.31,0,0,1,0,.47l-1.49,1.13a1.53,1.53,0,0,1-2.25,0,1.19,1.19,0,0,1-.31-1.07A.37.37,0,0,1,110.6,152.69Zm1.46.23a.72.72,0,0,0,.92.05.56.56,0,0,0,.1-.83.67.67,0,0,0-.91,0A.53.53,0,0,0,112.06,152.92Z"/><path class="cls-125" d="M115.15,154a.93.93,0,0,1,.83.27c.38.41.34.88-.23,1.32l-1,.73a.4.4,0,0,1-.52-.07.32.32,0,0,1,0-.47l.83-.63c.27-.2.28-.44.11-.62a.48.48,0,0,0-.72,0l-.82.62a.4.4,0,0,1-.52-.07.32.32,0,0,1,0-.47l1.53-1.16a.41.41,0,0,1,.52.07.31.31,0,0,1,0,.47Z"/><path class="cls-125" d="M118.32,154.82a.39.39,0,0,1,0,.6.5.5,0,0,1-.66-.06.4.4,0,0,1,0-.61A.51.51,0,0,1,118.32,154.82Zm-2.62,2.45a.4.4,0,0,1-.52-.07.32.32,0,0,1,0-.47l1.53-1.16a.41.41,0,0,1,.52.07.31.31,0,0,1,0,.47Z"/><path class="cls-125" d="M118.05,156.55l.53-.4a.41.41,0,0,1,.52.07.31.31,0,0,1,0,.47l-.53.4.19.21a.25.25,0,0,1-.06.37.33.33,0,0,1-.42,0l-.19-.21-1.3,1a.4.4,0,0,1-.52-.07.32.32,0,0,1,0-.47l1.3-1-.14-.15a.26.26,0,0,1,.06-.37.32.32,0,0,1,.42,0Z"/><path class="cls-125" d="M116.91,160.53a.41.41,0,0,1-.49-.21.31.31,0,0,1,.22-.43l1.12-.33.94-1.67a.38.38,0,0,1,.51-.11.33.33,0,0,1,.14.47l-.67,1.09,1.31-.4a.4.4,0,0,1,.49.21.31.31,0,0,1-.21.43Z"/><path class="cls-125" d="M122.61,164.68a.4.4,0,0,1-.52-.07.32.32,0,0,1,0-.47l.83-.63c.26-.2.27-.45.12-.61a.48.48,0,0,0-.7,0l-.82.62a.4.4,0,0,1-.52-.07.32.32,0,0,1,0-.47l.84-.64a.38.38,0,0,0,.11-.59.48.48,0,0,0-.7,0l-.82.62a.4.4,0,0,1-.52-.07.32.32,0,0,1,0-.47l1.53-1.16a.41.41,0,0,1,.52.07.31.31,0,0,1,0,.47l0,0a.8.8,0,0,1,.77.22.71.71,0,0,1,.18.89.9.9,0,0,1,.88.24c.4.43.35.94-.25,1.4Z"/><path class="cls-125" d="M124.3,166.68a1.66,1.66,0,0,1-.76-.49,1.13,1.13,0,0,1,.17-1.75,1.42,1.42,0,0,1,1.93.16,1.11,1.11,0,0,1-.19,1.73.26.26,0,0,1-.34,0L124,165.14a.5.5,0,0,0,.08.7.71.71,0,0,0,.39.24.33.33,0,0,1,.29.36A.35.35,0,0,1,124.3,166.68Zm.82-1a.43.43,0,0,0,0-.66.59.59,0,0,0-.74-.12Z"/><path class="cls-125" d="M127.77,167.41a.41.41,0,0,1,.52.07.31.31,0,0,1,0,.47l-1.53,1.16a.4.4,0,0,1-.52-.07.32.32,0,0,1,0-.47l0,0a1,1,0,0,1-.83-.3,1.08,1.08,0,0,1,.23-1.68,1.37,1.37,0,0,1,1.87.09.81.81,0,0,1,.18.79Zm-1.69.53a.72.72,0,0,0,.92.05.56.56,0,0,0,.1-.83.67.67,0,0,0-.91,0A.53.53,0,0,0,126.09,167.94Z"/><path class="cls-125" d="M127.69,170.12a.4.4,0,0,1-.52-.07.32.32,0,0,1,0-.47l2.63-2a.41.41,0,0,1,.52.07.31.31,0,0,1,0,.47Z"/><path class="cls-125" d="M128.59,170.26a.31.31,0,0,1,.2.35.55.55,0,0,0,.14.48c.11.12.24.22.34.14s.07-.14,0-.3l-.11-.27c-.3-.7,0-.91.17-1.05a1,1,0,0,1,1.23.27.88.88,0,0,1,.27.9.29.29,0,0,1-.35.19.38.38,0,0,1-.27-.38.43.43,0,0,0-.11-.29c-.11-.12-.23-.17-.31-.11s-.06.13,0,.26l.15.35a.73.73,0,0,1-.15,1,1.05,1.05,0,0,1-1.36-.3.9.9,0,0,1-.24-1.05A.33.33,0,0,1,128.59,170.26Z"/><polygon class="cls-125" points="85.78 179.63 85.41 179.91 84.22 178.69 86.28 177.06 86.64 177.43 84.94 178.77 85.78 179.63"/><path class="cls-125" d="M87.62,180.84a1.07,1.07,0,0,1-1.45-.11.84.84,0,0,1,.07-1.31,1.08,1.08,0,0,1,1.46.11A.84.84,0,0,1,87.62,180.84Zm-1-1.06a.44.44,0,0,0-.08.69.57.57,0,0,0,.77,0,.44.44,0,0,0,.08-.69A.57.57,0,0,0,86.58,179.78Z"/><path class="cls-125" d="M89.9,181.84l-1.37,1.09a1,1,0,0,1-1.39-.11.79.79,0,0,1-.1-1.1l.32.33a.41.41,0,0,0,.08.52.54.54,0,0,0,.73,0l.23-.18a.88.88,0,0,1-.7-.27.76.76,0,0,1,.14-1.17,1,1,0,0,1,1.3,0,.71.71,0,0,1,.2.66l.22-.17Zm-1,.2a.44.44,0,0,0,.08-.69.57.57,0,0,0-.77,0,.44.44,0,0,0-.08.69A.56.56,0,0,0,88.86,182Z"/><polygon class="cls-125" points="89.86 184.47 89.5 184.1 91.56 182.47 91.93 182.84 89.86 184.47"/><path class="cls-125" d="M92.33,185.33l-.92.73-.34-.35.86-.68a.34.34,0,0,0,.06-.53.43.43,0,0,0-.6,0l-.86.68-.34-.35,1.47-1.16L92,184l-.22.17a.74.74,0,0,1,.65.22A.6.6,0,0,1,92.33,185.33Z"/><path class="cls-5" d="M161,205c-.11-.41-8.26-15.67-8.26-15.67S130,204.7,130,204.7c-1.79,1-6.19,5.36-8.13,4.22l-1.87-.47c-1.38-.45-1.56-4-1.5-5.43L118,191.9a13.08,13.08,0,0,0-2.36-7.43l-14-17.72c-3.38-4.26-8.54-4.71-12.81-1.34s-3.38,13.14,0,17.41h0l5.7,12c-1.29,3.21-5,19.58-5.73,22.14-.27,1-14.91,15.32-17.59,17-3.15,2-25.63-21.52-25.71-21.16L44,219.43a5,5,0,0,1-2.44,3.15c-1.91,1-4.72,2.46-6,2.46s-3.52,3.14-5.08,6.25l-.81.23-34.21,3.84L-6,308.18l80.9-27.57h0c11.25,0,23.94-.76,33.87-4.74a99.82,99.82,0,0,0,19.69-11c4.68-2.68,18.13-11.54,26.41-20.95C162.81,235,165.08,220.09,161,205Z"/><path class="cls-2" d="M99.62,168.58c-1.74-1.91-3.81-3.11-6.85-1.92s-5.45,5-3.59,8.13c.86,1.46,1.45,3.62,3.1,3.46.84-.08,2.28-1.44,3-1.89l6.36-4a.66.66,0,0,0,.18-.94A30.41,30.41,0,0,0,99.62,168.58Z"/><path class="cls-7" d="M125.94,146.33s1.19-.4,1-2.42C126.91,143.91,124.55,145,125.94,146.33Z"/><path class="cls-7" d="M126.27,146.82c1.21,1.66,3.63-.58,3.63-.58-3-.71-3.57.34-3.64.53Z"/><g class="cls-126"><polygon class="cls-9" points="123.28 153.76 129.79 146.64 130.97 147.65 124.33 154.66 123.28 153.76"/><polygon class="cls-9" points="123.13 153.64 129.65 146.52 129.79 146.64 123.28 153.76 123.13 153.64"/><polygon class="cls-10" points="122.99 153.51 129.5 146.39 129.65 146.52 123.13 153.64 122.99 153.51"/><polygon class="cls-11" points="122.84 153.38 129.35 146.27 129.5 146.39 122.99 153.51 122.84 153.38"/><polygon class="cls-12" points="122.69 153.26 129.21 146.14 129.35 146.27 122.84 153.38 122.69 153.26"/><polygon class="cls-13" points="122.55 153.13 129.06 146.02 129.21 146.14 122.69 153.26 122.55 153.13"/><polygon class="cls-14" points="122.4 153.01 128.92 145.89 129.06 146.02 122.55 153.13 122.4 153.01"/><polygon class="cls-15" points="122.26 152.88 128.77 145.76 128.92 145.89 122.4 153.01 122.26 152.88"/><polygon class="cls-16" points="122.11 152.76 128.63 145.64 128.77 145.76 122.26 152.88 122.11 152.76"/><polygon class="cls-17" points="121.96 152.63 128.48 145.51 128.63 145.64 122.11 152.76 121.96 152.63"/><polygon class="cls-18" points="121.82 152.51 128.33 145.39 128.48 145.51 121.96 152.63 121.82 152.51"/><polygon class="cls-19" points="121.67 152.38 128.19 145.26 128.33 145.39 121.82 152.51 121.67 152.38"/><polygon class="cls-20" points="121.53 152.26 128.04 145.14 128.19 145.26 121.67 152.38 121.53 152.26"/><polygon class="cls-21" points="121.38 152.13 127.89 145.01 128.04 145.14 121.53 152.26 121.38 152.13"/><polygon class="cls-22" points="121.23 152.01 127.75 144.89 127.89 145.01 121.38 152.13 121.23 152.01"/><polygon class="cls-23" points="121.09 151.88 127.6 144.76 127.75 144.89 121.23 152.01 121.09 151.88"/><polygon class="cls-24" points="120.94 151.76 127.46 144.64 127.6 144.76 121.09 151.88 120.94 151.76"/><polygon class="cls-25" points="120.8 151.63 127.31 144.51 127.46 144.64 120.94 151.76 120.8 151.63"/><polygon class="cls-26" points="120.65 151.51 127.17 144.39 127.31 144.51 120.8 151.63 120.65 151.51"/><polygon class="cls-27" points="120.5 151.38 127.02 144.26 127.17 144.39 120.65 151.51 120.5 151.38"/><polygon class="cls-28" points="120.36 151.25 126.87 144.14 127.02 144.26 120.5 151.38 120.36 151.25"/><polygon class="cls-29" points="120.21 151.13 126.73 144.01 126.87 144.14 120.36 151.25 120.21 151.13"/><polygon class="cls-30" points="120.07 151 126.58 143.89 126.73 144.01 120.21 151.13 120.07 151"/><polygon class="cls-31" points="119.92 150.88 126.44 143.76 126.58 143.89 120.07 151 119.92 150.88"/><polygon class="cls-32" points="119.77 150.75 126.29 143.64 126.44 143.76 119.92 150.88 119.77 150.75"/><polygon class="cls-33" points="119.63 150.63 126.14 143.51 126.29 143.64 119.77 150.75 119.63 150.63"/><polygon class="cls-34" points="119.48 150.5 126 143.38 126.14 143.51 119.63 150.63 119.48 150.5"/><polygon class="cls-35" points="119.34 150.38 125.85 143.26 126 143.38 119.48 150.5 119.34 150.38"/><polygon class="cls-36" points="119.19 150.25 125.7 143.13 125.85 143.26 119.34 150.38 119.19 150.25"/><polygon class="cls-37" points="119.04 150.13 125.56 143.01 125.7 143.13 119.19 150.25 119.04 150.13"/><polygon class="cls-38" points="118.9 150 125.41 142.88 125.56 143.01 119.04 150.13 118.9 150"/><polygon class="cls-39" points="118.75 149.88 125.27 142.76 125.41 142.88 118.9 150 118.75 149.88"/><polygon class="cls-40" points="118.61 149.75 125.12 142.63 125.27 142.76 118.75 149.88 118.61 149.75"/><polygon class="cls-41" points="118.46 149.63 124.97 142.51 125.12 142.63 118.61 149.75 118.46 149.63"/><polygon class="cls-42" points="118.31 149.5 124.83 142.38 124.97 142.51 118.46 149.63 118.31 149.5"/><polygon class="cls-43" points="118.17 149.38 124.68 142.26 124.83 142.38 118.31 149.5 118.17 149.38"/><polygon class="cls-44" points="118.02 149.25 124.54 142.13 124.68 142.26 118.17 149.38 118.02 149.25"/><polygon class="cls-45" points="117.88 149.13 124.39 142.01 124.54 142.13 118.02 149.25 117.88 149.13"/><polygon class="cls-46" points="117.73 149 124.25 141.88 124.39 142.01 117.88 149.13 117.73 149"/><polygon class="cls-47" points="117.58 148.88 124.1 141.76 124.25 141.88 117.73 149 117.58 148.88"/><polygon class="cls-48" points="117.44 148.75 119.65 145.96 123.84 141.53 124.1 141.76 117.58 148.88 117.44 148.75"/><polygon class="cls-49" points="119.65 145.96 117.44 148.75 117.19 148.54 119.65 145.96"/></g><g class="cls-127"><path class="cls-51" d="M124.7,152.45l-.1.1Z"/><polygon class="cls-51" points="124.78 152.53 124.69 152.63 124.69 152.62 124.78 152.52 124.78 152.53"/><polygon class="cls-52" points="124.78 152.53 124.69 152.63 124.69 152.63 124.78 152.53 124.78 152.53"/><polygon class="cls-53" points="124.79 152.53 124.69 152.63 124.69 152.63 124.78 152.53 124.79 152.53"/><polygon class="cls-54" points="124.79 152.53 124.69 152.63 124.69 152.63 124.79 152.53 124.79 152.53"/><polygon class="cls-55" points="124.79 152.53 124.69 152.63 124.69 152.63 124.79 152.53 124.79 152.53"/><polygon class="cls-56" points="124.79 152.53 124.7 152.63 124.69 152.63 124.79 152.53 124.79 152.53"/><polygon class="cls-57" points="124.79 152.53 124.7 152.63 124.7 152.63 124.79 152.53 124.79 152.53"/><polygon class="cls-58" points="124.8 152.54 124.7 152.64 124.7 152.63 124.79 152.53 124.8 152.54"/><polygon class="cls-59" points="124.8 152.54 124.7 152.64 124.7 152.64 124.8 152.54 124.8 152.54"/><polygon class="cls-60" points="124.8 152.54 124.7 152.64 124.7 152.64 124.8 152.54 124.8 152.54"/><polygon class="cls-61" points="124.8 152.54 124.71 152.64 124.7 152.64 124.8 152.54 124.8 152.54"/><polygon class="cls-62" points="124.8 152.54 124.71 152.64 124.71 152.64 124.8 152.54 124.8 152.54"/><polygon class="cls-63" points="124.8 152.54 124.71 152.64 124.71 152.64 124.8 152.54 124.8 152.54"/><polygon class="cls-64" points="124.81 152.54 124.71 152.65 124.71 152.64 124.8 152.54 124.81 152.54"/><polygon class="cls-65" points="124.81 152.55 124.71 152.65 124.71 152.65 124.81 152.54 124.81 152.55"/><polygon class="cls-66" points="124.81 152.55 124.72 152.65 124.71 152.65 124.81 152.55 124.81 152.55"/><polygon class="cls-67" points="124.81 152.55 124.72 152.65 124.72 152.65 124.81 152.55 124.81 152.55"/><polygon class="cls-68" points="124.81 152.55 124.72 152.65 124.72 152.65 124.81 152.55 124.81 152.55"/><polygon class="cls-69" points="124.81 152.55 124.72 152.65 124.72 152.65 124.81 152.55 124.81 152.55"/><polygon class="cls-70" points="124.82 152.55 124.72 152.66 124.72 152.65 124.81 152.55 124.82 152.55"/><polygon class="cls-71" points="124.82 152.56 124.72 152.66 124.72 152.66 124.82 152.55 124.82 152.56"/><polygon class="cls-72" points="124.82 152.56 124.72 152.66 124.72 152.66 124.82 152.56 124.82 152.56"/><polygon class="cls-73" points="124.82 152.56 124.73 152.66 124.72 152.66 124.82 152.56 124.82 152.56"/><polygon class="cls-74" points="124.82 152.56 124.73 152.66 124.73 152.66 124.82 152.56 124.82 152.56"/><polygon class="cls-75" points="124.83 152.56 124.73 152.66 124.73 152.66 124.82 152.56 124.83 152.56"/><polygon class="cls-76" points="124.83 152.56 124.73 152.66 124.73 152.66 124.83 152.56 124.83 152.56"/><polygon class="cls-77" points="124.83 152.56 124.73 152.67 124.73 152.66 124.83 152.56 124.83 152.56"/><polygon class="cls-78" points="124.83 152.57 124.74 152.67 124.73 152.67 124.83 152.56 124.83 152.57"/><polygon class="cls-79" points="124.83 152.57 124.74 152.67 124.74 152.67 124.83 152.57 124.83 152.57"/><polygon class="cls-80" points="124.83 152.57 124.74 152.67 124.74 152.67 124.83 152.57 124.83 152.57"/><polygon class="cls-81" points="124.84 152.57 124.74 152.67 124.74 152.67 124.83 152.57 124.84 152.57"/><polygon class="cls-82" points="124.84 152.57 124.74 152.67 124.74 152.67 124.84 152.57 124.84 152.57"/><polygon class="cls-83" points="124.84 152.57 124.75 152.68 124.74 152.67 124.84 152.57 124.84 152.57"/><polygon class="cls-84" points="124.84 152.58 124.75 152.68 124.75 152.68 124.84 152.57 124.84 152.58"/><polygon class="cls-85" points="124.84 152.58 124.75 152.68 124.75 152.68 124.84 152.58 124.84 152.58"/><polygon class="cls-86" points="124.85 152.58 124.75 152.68 124.75 152.68 124.84 152.58 124.85 152.58"/><polygon class="cls-87" points="124.85 152.58 124.75 152.68 124.75 152.68 124.85 152.58 124.85 152.58"/><polygon class="cls-88" points="124.85 152.58 124.75 152.68 124.75 152.68 124.85 152.58 124.85 152.58"/><polygon class="cls-89" points="124.85 152.58 124.76 152.68 124.75 152.68 124.85 152.58 124.85 152.58"/><polygon class="cls-90" points="124.85 152.59 124.76 152.69 124.76 152.68 124.85 152.58 124.85 152.59"/><polygon class="cls-91" points="124.86 152.59 124.76 152.69 124.76 152.69 124.85 152.59 124.86 152.59"/><polygon class="cls-92" points="124.86 152.59 124.76 152.69 124.76 152.69 124.86 152.59 124.86 152.59"/><polygon class="cls-93" points="124.86 152.59 124.76 152.69 124.76 152.69 124.86 152.59 124.86 152.59"/><polygon class="cls-94" points="124.86 152.59 124.77 152.69 124.76 152.69 124.86 152.59 124.86 152.59"/><polygon class="cls-95" points="124.86 152.59 124.77 152.69 124.77 152.69 124.86 152.59 124.86 152.59"/><polygon class="cls-96" points="124.86 152.59 124.77 152.69 124.77 152.69 124.86 152.59 124.86 152.59"/><polygon class="cls-97" points="124.87 152.6 124.77 152.7 124.77 152.69 124.86 152.59 124.87 152.6"/><polygon class="cls-98" points="124.87 152.6 124.77 152.7 124.77 152.7 124.87 152.6 124.87 152.6"/><polygon class="cls-99" points="124.87 152.6 124.77 152.7 124.77 152.7 124.87 152.6 124.87 152.6"/><polygon class="cls-100" points="124.87 152.6 124.78 152.7 124.77 152.7 124.87 152.6 124.87 152.6"/><polygon class="cls-101" points="124.87 152.6 124.78 152.7 124.78 152.7 124.87 152.6 124.87 152.6"/><polygon class="cls-102" points="124.88 152.6 124.78 152.7 124.78 152.7 124.87 152.6 124.88 152.6"/><polygon class="cls-103" points="124.88 152.6 124.78 152.71 124.78 152.7 124.88 152.6 124.88 152.6"/><polygon class="cls-104" points="124.88 152.61 124.78 152.71 124.78 152.71 124.88 152.6 124.88 152.61"/><polygon class="cls-105" points="124.88 152.61 124.78 152.71 124.78 152.71 124.88 152.61 124.88 152.61"/><polygon class="cls-106" points="124.88 152.61 124.79 152.71 124.78 152.71 124.88 152.61 124.88 152.61"/><polygon class="cls-107" points="124.88 152.61 124.79 152.71 124.79 152.71 124.88 152.61 124.88 152.61"/><polygon class="cls-108" points="124.89 152.61 124.79 152.71 124.79 152.71 124.88 152.61 124.89 152.61"/><polygon class="cls-109" points="124.89 152.62 124.79 152.72 124.79 152.71 124.89 152.61 124.89 152.62"/><polygon class="cls-110" points="124.89 152.62 124.79 152.72 124.79 152.72 124.89 152.62 124.89 152.62"/><polygon class="cls-111" points="124.89 152.62 124.8 152.72 124.79 152.72 124.89 152.62 124.89 152.62"/><polygon class="cls-112" points="124.89 152.62 124.8 152.72 124.8 152.72 124.89 152.62 124.89 152.62"/><polygon class="cls-113" points="124.89 152.62 124.8 152.72 124.8 152.72 124.89 152.62 124.89 152.62"/><polygon class="cls-114" points="124.9 152.62 124.8 152.72 124.8 152.72 124.89 152.62 124.9 152.62"/><path class="cls-114" d="M124.6,152.55l.1-.1Z"/></g><g class="cls-128"><polygon class="cls-9" points="127.25 147.94 122.27 153.19 122.27 153.19 127.25 147.94 127.25 147.94"/><polygon class="cls-9" points="127.88 148.18 122.48 153.87 122.01 153.47 127.41 147.77 127.88 148.18"/><polygon class="cls-10" points="128.36 148.59 122.96 154.28 122.48 153.87 127.88 148.18 128.36 148.59"/><polygon class="cls-11" points="128.36 148.59 122.96 154.28 122.96 154.28 128.36 148.59 128.36 148.59"/><polygon class="cls-12" points="128.36 148.59 122.96 154.28 122.96 154.28 128.36 148.59 128.36 148.59"/><polygon class="cls-13" points="128.83 148.99 123.44 154.69 122.96 154.28 128.36 148.59 128.83 148.99"/><polygon class="cls-14" points="128.83 148.99 123.44 154.69 123.44 154.69 128.83 148.99 128.83 148.99"/><polygon class="cls-15" points="129.31 149.4 123.91 155.1 123.44 154.69 128.83 148.99 129.31 149.4"/><polygon class="cls-16" points="129.31 149.4 123.91 155.1 123.91 155.1 129.31 149.4 129.31 149.4"/><polygon class="cls-17" points="129.78 149.81 124.39 155.5 123.91 155.1 129.31 149.4 129.78 149.81"/><polygon class="cls-18" points="129.78 149.81 124.39 155.5 124.39 155.5 129.78 149.81 129.78 149.81"/><polygon class="cls-19" points="130.26 150.22 124.86 155.91 124.39 155.5 129.78 149.81 130.26 150.22"/><polygon class="cls-20" points="130.26 150.22 124.86 155.91 124.86 155.91 130.26 150.22 130.26 150.22"/><polygon class="cls-21" points="130.73 150.63 125.34 156.32 124.86 155.91 130.26 150.22 130.73 150.63"/><polygon class="cls-22" points="130.73 150.63 125.34 156.32 125.34 156.32 130.73 150.63 130.73 150.63"/><polygon class="cls-23" points="130.73 150.63 125.34 156.32 125.34 156.32 130.73 150.63 130.73 150.63"/><polygon class="cls-24" points="131.21 151.03 125.81 156.73 125.34 156.32 130.73 150.63 131.21 151.03"/><polygon class="cls-25" points="131.21 151.03 125.81 156.73 125.81 156.73 131.21 151.03 131.21 151.03"/><polygon class="cls-26" points="131.68 151.44 126.29 157.14 125.81 156.73 131.21 151.03 131.68 151.44"/><polygon class="cls-27" points="132.16 151.85 126.76 157.54 126.29 157.14 131.68 151.44 132.16 151.85"/><polygon class="cls-28" points="132.16 151.85 126.76 157.54 126.76 157.54 132.16 151.85 132.16 151.85"/><polygon class="cls-29" points="132.63 152.26 127.24 157.95 126.76 157.54 132.16 151.85 132.63 152.26"/><polygon class="cls-30" points="132.63 152.26 127.24 157.95 127.24 157.95 132.63 152.26 132.63 152.26"/><polygon class="cls-31" points="133.11 152.66 127.71 158.36 127.24 157.95 132.63 152.26 133.11 152.66"/><polygon class="cls-32" points="133.11 152.66 127.71 158.36 127.71 158.36 133.11 152.66 133.11 152.66"/><polygon class="cls-33" points="133.11 152.66 127.71 158.36 127.71 158.36 133.11 152.66 133.11 152.66"/><polygon class="cls-34" points="133.59 153.07 128.19 158.77 127.71 158.36 133.11 152.66 133.59 153.07"/><polygon class="cls-35" points="133.59 153.07 128.19 158.77 128.19 158.77 133.59 153.07 133.59 153.07"/><polygon class="cls-36" points="134.06 153.48 128.66 159.18 128.19 158.77 133.59 153.07 134.06 153.48"/><polygon class="cls-37" points="134.06 153.48 128.66 159.18 128.66 159.18 134.06 153.48 134.06 153.48"/><polygon class="cls-38" points="134.54 153.89 129.14 159.58 128.66 159.18 134.06 153.48 134.54 153.89"/><polygon class="cls-39" points="134.54 153.89 129.14 159.58 129.14 159.58 134.54 153.89 134.54 153.89"/><polygon class="cls-40" points="135.01 154.3 129.62 159.99 129.14 159.58 134.54 153.89 135.01 154.3"/><polygon class="cls-41" points="135.49 154.71 130.09 160.4 129.62 159.99 135.01 154.3 135.49 154.71"/><polygon class="cls-42" points="135.49 154.71 130.09 160.4 130.09 160.4 135.49 154.71 135.49 154.71"/><polygon class="cls-43" points="135.49 154.71 130.09 160.4 130.09 160.4 135.49 154.71 135.49 154.71"/><polygon class="cls-44" points="135.96 155.11 130.57 160.81 130.09 160.4 135.49 154.71 135.96 155.11"/><polygon class="cls-45" points="135.96 155.11 130.57 160.81 130.57 160.81 135.96 155.11 135.96 155.11"/><polygon class="cls-46" points="136.44 155.52 131.04 161.22 130.57 160.81 135.96 155.11 136.44 155.52"/><polygon class="cls-47" points="136.44 155.52 131.04 161.22 131.04 161.22 136.44 155.52 136.44 155.52"/><polygon class="cls-48" points="136.91 155.93 131.52 161.62 131.04 161.22 136.44 155.52 136.91 155.93"/><polygon class="cls-49" points="136.91 155.93 131.52 161.62 131.52 161.62 136.91 155.93 136.91 155.93"/><polygon class="cls-116" points="137.39 156.34 131.99 162.03 131.52 161.62 136.91 155.93 137.39 156.34"/><polygon class="cls-116" points="132.25 161.76 137.23 156.51 137.23 156.51 132.25 161.76 132.25 161.76"/></g></svg>