<svg id="Layer_1" data-name="Layer 1" xmlns="http://www.w3.org/2000/svg" xmlns:xlink="http://www.w3.org/1999/xlink" viewBox="0 0 350 306.32"><defs><style>.cls-1{fill:#d8cbad;}.cls-2,.cls-6{fill:#fff;}.cls-3,.cls-8{fill:#c1ad73;}.cls-4,.cls-5{fill:#ececec;}.cls-4,.cls-6,.cls-8{opacity:0.9;}.cls-10,.cls-11,.cls-12,.cls-4,.cls-6,.cls-8{isolation:isolate;}.cls-7{fill:#ccc;}.cls-9{fill:none;}.cls-10,.cls-11,.cls-12{opacity:0.1;}.cls-10{fill:url(#linear-gradient);}.cls-11{fill:url(#linear-gradient-2);}.cls-12{fill:url(#linear-gradient-3);}.cls-13{fill:#d6d6d6;}.cls-14{fill:url(#linear-gradient-4);}.cls-15{fill:url(#linear-gradient-5);}.cls-16{fill:url(#linear-gradient-6);}.cls-17{fill:#b7b7b7;}.cls-18{opacity:0.08;fill:url(#linear-gradient-7);}.cls-19{opacity:0.15;fill:url(#linear-gradient-8);}.cls-20{fill:url(#linear-gradient-9);}.cls-21{fill:url(#linear-gradient-10);}.cls-22{fill:url(#linear-gradient-11);}</style><linearGradient id="linear-gradient" x1="292.51" y1="184.75" x2="349.93" y2="184.75" gradientTransform="matrix(1, 0, 0, -1, 0.01, 307.98)" gradientUnits="userSpaceOnUse"><stop offset="0" stop-color="#c69c6d"/><stop offset="0.11" stop-color="#c0976a"/><stop offset="0.26" stop-color="#af8a61"/><stop offset="0.42" stop-color="#947451"/><stop offset="0.6" stop-color="#6d563c"/><stop offset="0.8" stop-color="#3c2f21"/><stop offset="1"/></linearGradient><linearGradient id="linear-gradient-2" x1="292.61" y1="171" x2="349.93" y2="171" xlink:href="#linear-gradient"/><linearGradient id="linear-gradient-3" x1="292.7" y1="157.25" x2="349.93" y2="157.25" gradientTransform="matrix(1, 0, 0, -1, 0.01, 307.97)" xlink:href="#linear-gradient"/><linearGradient id="linear-gradient-4" x1="72.95" y1="225.54" x2="53.38" y2="225.86" gradientTransform="matrix(0.99, 0.05, -0.05, 1, 7.29, 14.36)" gradientUnits="userSpaceOnUse"><stop offset="0" stop-color="#ececec"/><stop offset="0.84" stop-color="#fff"/></linearGradient><linearGradient id="linear-gradient-5" x1="73.72" y1="233.3" x2="74.09" y2="233.3" gradientTransform="matrix(0.99, 0.05, -0.05, 1, 7.29, 14.36)" gradientUnits="userSpaceOnUse"><stop offset="0" stop-color="#f8ab17"/><stop offset="1" stop-color="#f9eb21"/></linearGradient><linearGradient id="linear-gradient-6" x1="70.94" y1="229.34" x2="101.9" y2="229.34" gradientTransform="matrix(0.99, 0.05, -0.05, 1, 7.29, 14.36)" gradientUnits="userSpaceOnUse"><stop offset="0" stop-color="#ececec"/><stop offset="0.77" stop-color="#fff"/></linearGradient><linearGradient id="linear-gradient-7" x1="136.77" y1="244.01" x2="125.03" y2="244.34" gradientUnits="userSpaceOnUse"><stop offset="0" stop-color="#fff"/><stop offset="1"/></linearGradient><linearGradient id="linear-gradient-8" x1="113.62" y1="244.16" x2="125.45" y2="244.16" xlink:href="#linear-gradient-7"/><linearGradient id="linear-gradient-9" x1="175.33" y1="288.27" x2="156.51" y2="288.58" gradientTransform="matrix(0.95, -0.11, 0.1, 0.9, -32.22, 7.2)" xlink:href="#linear-gradient-4"/><linearGradient id="linear-gradient-10" x1="176.08" y1="295.74" x2="176.43" y2="295.74" gradientTransform="matrix(0.95, -0.11, 0.1, 0.9, -32.22, 7.2)" xlink:href="#linear-gradient-5"/><linearGradient id="linear-gradient-11" x1="173.4" y1="291.93" x2="203.18" y2="291.93" gradientTransform="matrix(0.95, -0.11, 0.1, 0.9, -32.22, 7.2)" xlink:href="#linear-gradient-6"/></defs><title>DM_RegularArtboard 1 copy</title><polygon class="cls-1" points="0 228.1 0 258.69 27.48 228.93 0 228.1"/><polygon class="cls-2" points="0 202.39 0 230.27 27.48 228.93 52.32 201.89 0 202.39"/><polygon class="cls-3" points="349.94 114.69 292.51 115.06 292.77 155.13 349.94 154.76 349.94 114.69"/><polygon class="cls-4" points="351.21 306.32 0 306 0 203.39 350.28 201.64 351.21 306.32"/><polygon class="cls-2" points="350.24 229.11 274.22 228.99 217.48 306 304.09 306 350.24 232.04 350.24 229.11"/><polygon class="cls-5" points="350.28 228.86 305.82 306.01 350.28 306.31 350.28 228.86"/><polygon class="cls-2" points="134.44 306.32 216.04 202.53 137.73 210.35 62.41 306.32 134.44 306.32"/><polygon class="cls-2" points="0 228.8 0 262.8 39.11 263.01 42.26 229 0 228.8"/><polygon class="cls-5" points="331.18 263 350.28 229.11 274.22 228.99 249.09 262.79 331.18 263"/><polygon class="cls-2" points="249.18 263.01 274.22 229 194.97 229 168.03 262.8 249.18 263.01"/><polygon class="cls-1" points="168.03 262.8 195.22 229 115.97 229 88.09 262.8 168.03 262.8"/><polygon class="cls-2" points="96.47 263.01 121.51 229 42.26 229 15.32 262.8 96.47 263.01"/><rect class="cls-2" x="160.8" y="182.76" width="14.2" height="22.73"/><rect class="cls-6" x="63.47" y="27.06" width="100.58" height="72.03" rx="8.92" ry="8.92" transform="translate(-0.22 0.4) rotate(-0.2)"/><rect class="cls-5" x="63.11" y="26.98" width="100.58" height="72.03" rx="8.92" ry="8.92" transform="translate(-0.22 0.4) rotate(-0.2)"/><path class="cls-5" d="M72.16,99.15,103.07,99l60.62-39.61-.08-23.72a8.92,8.92,0,0,0-8.95-8.89h-.05l-82.74.29A8.92,8.92,0,0,0,63,36v.05l.19,54.19a8.92,8.92,0,0,0,8.95,8.89Z"/><rect class="cls-2" x="64.39" y="102.36" width="99.99" height="121.01" rx="4.67" ry="4.67"/><rect class="cls-5" x="62.43" y="101.64" width="101.14" height="121.01" rx="4.67" ry="4.67"/><path class="cls-5" d="M99.06,101.66,68,101.57a4.41,4.41,0,0,0-4.52,4.3q0,.12,0,.24v18.61Z"/><rect class="cls-6" x="167.02" y="27.4" width="100.58" height="72.03" rx="8.92" ry="8.92" transform="translate(-0.22 0.76) rotate(-0.2)"/><rect class="cls-6" x="167.01" y="28.08" width="100.58" height="72.03" rx="8.92" ry="8.92" transform="translate(-0.22 0.76) rotate(-0.2)"/><rect class="cls-5" x="167.02" y="26.99" width="100.58" height="72.03" rx="8.92" ry="8.92" transform="translate(-0.22 0.76) rotate(-0.2)"/><path class="cls-4" d="M195,39h12.24L267.5,91.75a8.79,8.79,0,0,0,.19-1.85l-.19-54.13a8.91,8.91,0,0,0-8.94-8.88h-.06l-82.74.3a8.92,8.92,0,0,0-8.89,8.94L167,57.28Z"/><path class="cls-3" d="M342.58,100.19a3.5,3.5,0,0,0-3.51,3.42v3.57a3.59,3.59,0,0,0-2.44,1.46l.56-3a3.46,3.46,0,0,0-6.76-1.42l-4.71,22.26L322.18,107a3.89,3.89,0,0,0-4-3h0c-1.86,0-3.1,2.34-2.76,4.19l5,27.59a3.48,3.48,0,0,0,4,2.81,3.41,3.41,0,0,0,2.78-3h.07a3.44,3.44,0,0,0,3.55-1.43l-.63,3a3.44,3.44,0,0,0,2.65,4.07,3.58,3.58,0,0,0,4.2-2.65l2-8.62v1.57a3.5,3.5,0,1,0,7,0l.08-27.94A3.5,3.5,0,0,0,342.58,100.19Z"/><path class="cls-3" d="M309.54,104.29a3.43,3.43,0,0,0-6.73-.11,3.58,3.58,0,0,0-3.21-2,3.53,3.53,0,0,0-3.54,3.42L296,133.53a3.5,3.5,0,0,0,7,0l.07-26.19,4.7,25.66a3.44,3.44,0,1,0,6.77-1.23Z"/><path class="cls-3" d="M314.13,110h0a3.43,3.43,0,0,1,3.43,3.43v27.94a3.43,3.43,0,0,1-3.43,3.43h0a3.43,3.43,0,0,1-3.43-3.43V113.41A3.43,3.43,0,0,1,314.13,110Z"/><polygon class="cls-6" points="349.94 155.66 292.68 156.37 292.64 146.13 349.94 145.42 349.94 155.66"/><circle class="cls-3" cx="304.88" cy="165.64" r="13.26"/><circle class="cls-3" cx="336.71" cy="163.64" r="13.26"/><ellipse class="cls-3" cx="289.11" cy="162.26" rx="17.18" ry="18.08"/><ellipse class="cls-3" cx="314.01" cy="166.5" rx="17.18" ry="18.08"/><circle class="cls-3" cx="268.92" cy="162.02" r="13.26"/><rect class="cls-3" x="250.48" y="161.32" width="99.8" height="67.79"/><rect class="cls-2" x="250.48" y="165.28" width="99.8" height="9.06"/><rect class="cls-2" x="250.48" y="178.93" width="99.8" height="9.06"/><rect class="cls-2" x="250.48" y="192.58" width="99.8" height="9.06"/><rect class="cls-2" x="250.48" y="206.23" width="99.8" height="9.06"/><rect class="cls-2" x="250.44" y="219.93" width="99.8" height="9.06"/><rect class="cls-7" x="250.48" y="165.28" width="99.8" height="9.06"/><rect class="cls-7" x="250.48" y="178.93" width="99.8" height="9.06"/><rect class="cls-7" x="250.48" y="192.58" width="99.8" height="9.06"/><rect class="cls-7" x="250.48" y="206.23" width="99.8" height="9.06"/><rect class="cls-7" x="250.44" y="219.93" width="99.8" height="9.06"/><path class="cls-3" d="M349.94,164.09v-.45a13.19,13.19,0,0,0-15.49-13.06Z"/><path class="cls-3" d="M200.07,44.2a6.26,6.26,0,0,0,6.12-5.2H194A6.26,6.26,0,0,0,200.07,44.2Z"/><path class="cls-8" d="M202,27.63V-4h-4V27.68c-.11,0-.22-.68-.33-.68h4.94C202.41,27,202.23,27.7,202,27.63Z"/><rect class="cls-8" x="155" y="35" width="90" height="2" rx="0.93" ry="0.93"/><path class="cls-8" d="M206.19,33H208V27h-5.39C205.08,28,205.79,30,206.19,33Z"/><path class="cls-8" d="M197.67,27H192v6h2A7.65,7.65,0,0,1,197.67,27Z"/><path class="cls-8" d="M194,33h12.23c-.4-3-1.11-5-3.58-6h-4.94A7.65,7.65,0,0,0,194,33Z"/><path class="cls-8" d="M194,33h12.23c-.4-3-1.11-5-3.58-6h-4.94A7.65,7.65,0,0,0,194,33Z"/><line class="cls-9" x1="56.29" y1="213.73" x2="55.43" y2="216.59"/><rect class="cls-3" x="187.38" y="66.17" width="2.96" height="21.42" rx="1.48" ry="1.48"/><rect class="cls-8" x="142.52" y="114.13" width="2.96" height="76.35" rx="1.48" ry="1.48"/><rect class="cls-5" x="166.58" y="101.64" width="101.14" height="121.01" rx="4.67" ry="4.67"/><rect class="cls-8" x="187.38" y="114.13" width="2.96" height="76.35" rx="1.48" ry="1.48"/><path class="cls-3" d="M144,75.31V67.65a1.5,1.5,0,0,0-3,0v9.61Z"/><path class="cls-3" d="M142.5,87.59a1.5,1.5,0,0,0,1.5-1.48V75.31l-3,1.95v8.85A1.5,1.5,0,0,0,142.5,87.59Z"/><polygon class="cls-6" points="349.94 128.17 292.58 128.53 292.52 118.29 349.94 117.93 349.94 128.17"/><polygon class="cls-6" points="349.94 141.92 292.69 142.27 292.62 132.03 349.94 131.68 349.94 141.92"/><polygon class="cls-6" points="349.94 155.66 292.78 156.02 292.71 145.78 349.94 145.42 349.94 155.66"/><polygon class="cls-10" points="349.94 128.17 292.58 128.53 292.52 118.29 349.94 117.93 349.94 128.17"/><polygon class="cls-11" points="349.94 141.92 292.69 142.27 292.62 132.03 349.94 131.68 349.94 141.92"/><polygon class="cls-12" points="349.94 154.76 292.78 156.02 292.71 145.78 349.94 145.42 349.94 154.76"/><circle class="cls-3" cx="304.88" cy="165.23" r="13.26"/><ellipse class="cls-3" cx="289.11" cy="161.85" rx="17.18" ry="18.08"/><circle class="cls-3" cx="268.92" cy="161.61" r="13.26"/><rect class="cls-3" x="250.48" y="160.91" width="99.8" height="67.79"/><rect class="cls-2" x="250.48" y="164.86" width="99.8" height="9.06"/><rect class="cls-2" x="250.48" y="178.51" width="99.8" height="9.06"/><rect class="cls-2" x="250.48" y="192.17" width="99.8" height="9.06"/><rect class="cls-2" x="250.48" y="205.82" width="99.8" height="9.06"/><rect class="cls-2" x="250.44" y="220.52" width="99.8" height="9.06"/><path class="cls-3" d="M144,74.94V67.43a1.5,1.5,0,0,0-3,0v9.42Z"/><path class="cls-2" d="M200.07,44.2a6.26,6.26,0,0,0,6.12-5.2H194A6.26,6.26,0,0,0,200.07,44.2Z"/><path class="cls-4" d="M202,27.22V-4h-4V27.27c-.11,0-.22-.27-.33-.27h4.94C202.41,27,202.23,27.28,202,27.22Z"/><rect class="cls-6" x="155" y="35" width="90" height="2" rx="0.93" ry="0.93"/><path class="cls-6" d="M206.19,33H208V27h-5.39C205.08,28,205.79,30,206.19,33Z"/><path class="cls-6" d="M197.67,27H192v6h2A7.65,7.65,0,0,1,197.67,27Z"/><path class="cls-4" d="M194,33h12.23c-.4-3-1.11-5-3.58-6h-4.94A7.65,7.65,0,0,0,194,33Z"/><path class="cls-6" d="M194,33h12.23c-.4-3-1.11-5-3.58-6h-4.94A7.65,7.65,0,0,0,194,33Z"/><polygon class="cls-13" points="137.2 204.97 137.2 283.88 125.45 275.64 125.45 204.45 130.55 211.01 137.2 204.97"/><polygon class="cls-2" points="113.68 206.92 113.62 283.88 125.45 275.64 125.45 204.45 120.32 211.01 113.68 206.92"/><polygon class="cls-3" points="39.14 210.78 39.14 272.8 113.62 283.88 113.62 216.32 39.14 210.78"/><polygon class="cls-3" points="39.14 210.78 46.96 202.64 55.31 211.98 39.14 210.78"/><polygon class="cls-3" points="55.31 212.22 63.13 204.08 71.49 213.42 55.31 212.22"/><polygon class="cls-3" points="71.2 213.23 79.02 205.09 87.38 214.43 71.2 213.23"/><polygon class="cls-3" points="87.38 214.48 95.19 206.34 103.55 215.68 87.38 214.48"/><polyline class="cls-3" points="103.55 215.68 113.68 206.92 113.62 216.32"/><path class="cls-2" d="M60.28,236.26s1.54-2.78-2-6.63C58.27,229.63,55.74,235.85,60.28,236.26Z"/><path class="cls-2" d="M61.65,236.74c4.77,1.46,5.68-7.19,5.68-7.19-6.62,3.54-5.95,6.58-5.78,7.09Z"/><path class="cls-14" d="M65,251.08c0-.08-.12-.44.23-.5l1.4-.42c.47-.15.62-.13.76.11-.36-1.22,0-3,.75-5.37l3.48-12.63a1.11,1.11,0,0,0-.84-1.37c-.85-.2-1,.2-1.34.75S65,245.37,65,245.37s-1.89,8.37-7.61,6.84a6.3,6.3,0,0,1-1.6-.83,5.25,5.25,0,0,1-1-1.33,6.3,6.3,0,0,1-.18-4.64,11.12,11.12,0,0,1,1.5-3.21,5.65,5.65,0,0,1,.68-.78,4.58,4.58,0,0,1,3-1.26,13.85,13.85,0,0,1,1.67.19,1.11,1.11,0,0,0,1.37-.65,1.21,1.21,0,0,0,.05-1.2c-.37-.61-2.21-.88-2.6-.91-3.52-.3-6.62,2-8,5.86-.2.57-3.91,10.5,5.79,12.21,0,0,4.58.56,6.89-4.52A.49.49,0,0,1,65,251.08Z"/><path class="cls-15" d="M68.11,251.37a2.09,2.09,0,0,1-.34-.38A1.63,1.63,0,0,0,68.11,251.37Z"/><path class="cls-16" d="M93.53,254.24c-.3.16-.6.36-.89.51a2.89,2.89,0,0,1-2.8-.09,4.8,4.8,0,0,1-1.92-3.84c-.1-1.51.17-3,.19-4.54s-.33-3.59-1.66-4.58a3.65,3.65,0,0,0-4.37.07c-.15.12-.31.29-.49.09a4.33,4.33,0,0,0-5.44-2.44c-.12,0,0-.2-.17-.45a.79.79,0,0,0-.25-.29,1.78,1.78,0,0,0-1.14-.29.41.41,0,0,0-.38.28c-.77,2.22-1.48,5.43-1.92,6.91A35.18,35.18,0,0,1,70.85,250a2.74,2.74,0,0,1-1.48,1.65,1.46,1.46,0,0,1-1.68-.81c-.13-.28-.21-.64-.49-.72a.73.73,0,0,0-.42,0l-1.42.42a.51.51,0,0,0-.29.16.56.56,0,0,0,0,.43c.56,2.74,3.51,5.38,6.15,3.43a4.27,4.27,0,0,0,1-1.15c1.71-2.68,2.25-5.93,3.46-8.87.49-1.19,1.56-2.9,3-2.18.77.37.86,1.31.85,2.12a15.64,15.64,0,0,1-.34,3c-.19.92-.55,3,1,3a.84.84,0,0,0,.48-.16,2.74,2.74,0,0,0,.9-1.75c.21-.9.42-1.8.68-2.68a4.74,4.74,0,0,1,.69-1.57,1.63,1.63,0,0,1,1.42-.72,1.68,1.68,0,0,1,1.27,1.2,4.87,4.87,0,0,1,.14,1.89,20.74,20.74,0,0,0-.05,5.89A6.58,6.58,0,0,0,89,257.07a5.27,5.27,0,0,0,5.3-.33,2.25,2.25,0,0,0,1.09-1.56,1.14,1.14,0,0,0-.47-1.09A1.35,1.35,0,0,0,93.53,254.24Z"/><path class="cls-17" d="M182.46,200.43h-.85a.34.34,0,0,0-.33.34v1.58a.33.33,0,0,0,.33.33h.85a.34.34,0,0,0,.33-.34v-1.58A.33.33,0,0,0,182.46,200.43Zm.1.56v1.12a.34.34,0,0,1-.33.34h-.41a.33.33,0,0,1-.33-.33V201a.34.34,0,0,1,.33-.34h.41A.33.33,0,0,1,182.56,201Z"/><polygon class="cls-18" points="137.13 204.97 137.13 283.88 125.39 275.64 125.39 204.45 130.48 211.01 137.13 204.97"/><polygon class="cls-19" points="113.68 206.92 113.62 283.88 125.45 275.64 125.45 204.45 120.32 211.01 113.68 206.92"/><polygon class="cls-3" points="137.13 215.06 137.13 283.88 201.27 274.7 198.5 208.75 137.13 215.06"/><polygon class="cls-3" points="198.59 208.9 192.13 200.27 185.37 210.3 198.59 208.9"/><polygon class="cls-3" points="185.37 210.18 178.85 201.55 172.02 211.58 185.37 210.18"/><polygon class="cls-3" points="172.27 211.64 165.74 202.75 158.92 213.08 172.27 211.64"/><polygon class="cls-3" points="158.91 212.83 152.39 204.21 145.56 214.24 158.91 212.83"/><polyline class="cls-3" points="145.56 214.24 137.13 204.97 137.13 215.06"/><path class="cls-2" d="M155.36,242.75s1-2.61-2.8-5.39C152.56,237.36,151.14,243.07,155.36,242.75Z"/><path class="cls-2" d="M156.69,243c4.59.55,4.17-7,4.17-7-5.56,4-4.51,6.52-4.27,6.94Z"/><path class="cls-20" d="M161.87,254.77a.3.3,0,0,1,.14-.46l1.23-.57c.41-.2.55-.2.71,0-.5-1-.45-2.6-.09-4.72l1.37-11.35a1,1,0,0,0-1-1c-.81,0-.93.33-1.12.85s-2.1,12.42-2.1,12.42-.52,7.46-6,7a6.05,6.05,0,0,1-1.58-.48,4.64,4.64,0,0,1-1.08-1,5.17,5.17,0,0,1-.83-4,9.33,9.33,0,0,1,.92-3,5,5,0,0,1,.52-.77,4.36,4.36,0,0,1,2.53-1.52,13.74,13.74,0,0,1,1.56-.08,1,1,0,0,0,1.17-.76,1,1,0,0,0-.12-1c-.43-.47-2.15-.42-2.52-.4a7.21,7.21,0,0,0-6.45,6.2c-.1.51-2.07,9.59,7.08,9.61a6.53,6.53,0,0,0,5.67-4.9Z"/><path class="cls-21" d="M164.73,254.56a1.88,1.88,0,0,1-.37-.28A1.47,1.47,0,0,0,164.73,254.56Z"/><path class="cls-22" d="M188.47,253.26c-.25.19-.5.4-.74.57a2.85,2.85,0,0,1-2.58.34,4.13,4.13,0,0,1-2.31-3c-.31-1.28-.28-2.62-.49-3.92s-.82-3-2.18-3.68a3.58,3.58,0,0,0-4,.7c-.12.12-.24.29-.43.15a4.11,4.11,0,0,0-5.34-1.29c-.1.05-.07-.17-.22-.36a.7.7,0,0,0-.27-.21,1.75,1.75,0,0,0-1.08-.08.38.38,0,0,0-.31.3c-.39,2-.57,4.88-.77,6.21a29.07,29.07,0,0,1-.7,4,2.43,2.43,0,0,1-1.12,1.63,1.39,1.39,0,0,1-1.66-.45c-.16-.22-.29-.52-.56-.55a.72.72,0,0,0-.38.1l-1.24.57a.48.48,0,0,0-.24.18.46.46,0,0,0,0,.38c.91,2.27,4,4.09,6.14,2a3.78,3.78,0,0,0,.8-1.14c1.18-2.55,1.21-5.42,1.89-8.12.28-1.1,1-2.72,2.47-2.32.76.21,1,1,1.08,1.69a12.75,12.75,0,0,1,.13,2.64c0,.81-.07,2.65,1.33,2.41a.81.81,0,0,0,.42-.21,2.31,2.31,0,0,0,.57-1.63c.06-.8.13-1.6.23-2.4a4,4,0,0,1,.4-1.45,1.38,1.38,0,0,1,2.53,0,4,4,0,0,1,.4,1.6,16.9,16.9,0,0,0,.8,5.06,5.83,5.83,0,0,0,3.69,3.33,5.17,5.17,0,0,0,4.81-1.07,1.94,1.94,0,0,0,.77-1.5,1,1,0,0,0-.59-.86A1.32,1.32,0,0,0,188.47,253.26Z"/><polygon class="cls-2" points="350.28 228.88 330.77 262.95 349.95 262.92 350.28 257.46 350.28 228.88"/><path class="cls-3" d="M349.94,100.07a3,3,0,0,0-.94-.16c-1.89,0-3,1.54-3,3.43v27.94c0,1.89,1.11,3.43,3,3.43a3,3,0,0,0,.94-.16Z"/><polygon class="cls-7" points="349.94 145.42 296 145.78 304.88 152.38 349.94 156.37 349.94 145.42"/><polygon class="cls-7" points="349.94 131.68 292.62 132.03 292.69 142.27 349.94 141.92 349.94 131.68"/><polygon class="cls-7" points="349.94 117.93 292.52 118.29 292.58 128.53 349.94 128.17 349.94 117.93"/><circle class="cls-3" cx="336.71" cy="163.23" r="13.26"/><ellipse class="cls-3" cx="314.01" cy="166.09" rx="17.18" ry="18.08"/><path class="cls-3" d="M349.94,163.68v-.45a13.19,13.19,0,0,0-15.49-13.06Z"/><rect class="cls-7" x="250.48" y="164.86" width="99.8" height="9.06"/><rect class="cls-7" x="250.48" y="178.51" width="99.8" height="9.06"/><rect class="cls-7" x="250.48" y="192.17" width="99.8" height="9.06"/><rect class="cls-7" x="250.48" y="205.82" width="99.8" height="9.06"/><rect class="cls-7" x="250.44" y="220.52" width="99.8" height="9.06"/></svg>