<svg viewBox="0 0 350 306.32" xmlns="http://www.w3.org/2000/svg" xmlns:xlink="http://www.w3.org/1999/xlink"><linearGradient id="a" gradientTransform="matrix(1 0 0 -1 .01 307.98)" gradientUnits="userSpaceOnUse" x1="292.51" x2="349.93" y1="184.75" y2="184.75"><stop offset="0" stop-color="#c69c6d"/><stop offset=".11" stop-color="#c0976a"/><stop offset=".26" stop-color="#af8a61"/><stop offset=".42" stop-color="#947451"/><stop offset=".6" stop-color="#6d563c"/><stop offset=".8" stop-color="#3c2f21"/><stop offset="1"/></linearGradient><linearGradient id="b" x1="292.61" x2="349.93" xlink:href="#a" y1="171" y2="171"/><linearGradient id="c" gradientTransform="matrix(1 0 0 -1 .01 307.97)" x1="292.7" x2="349.93" xlink:href="#a" y1="157.25" y2="157.25"/><linearGradient id="d" gradientTransform="matrix(.99 .05 -.05 1 7.29 14.36)" gradientUnits="userSpaceOnUse" x1="72.95" x2="53.38" y1="225.54" y2="225.86"><stop offset="0" stop-color="#ececec"/><stop offset=".84" stop-color="#fff"/></linearGradient><linearGradient id="e" gradientTransform="matrix(.99 .05 -.05 1 7.29 14.36)" gradientUnits="userSpaceOnUse" x1="73.72" x2="74.09" y1="233.3" y2="233.3"><stop offset="0" stop-color="#f8ab17"/><stop offset="1" stop-color="#f9eb21"/></linearGradient><linearGradient id="f" gradientTransform="matrix(.99 .05 -.05 1 7.29 14.36)" gradientUnits="userSpaceOnUse" x1="70.94" x2="101.9" y1="229.34" y2="229.34"><stop offset="0" stop-color="#ececec"/><stop offset=".77" stop-color="#fff"/></linearGradient><linearGradient id="g" gradientUnits="userSpaceOnUse" x1="136.77" x2="125.03" y1="244.01" y2="244.34"><stop offset="0" stop-color="#fff"/><stop offset="1"/></linearGradient><linearGradient id="h" x1="113.62" x2="125.45" xlink:href="#g" y1="244.16" y2="244.16"/><linearGradient id="i" gradientTransform="matrix(.95 -.11 .1 .9 -32.22 7.2)" x1="175.33" x2="156.51" xlink:href="#d" y1="288.27" y2="288.58"/><linearGradient id="j" gradientTransform="matrix(.95 -.11 .1 .9 -32.22 7.2)" x1="176.08" x2="176.43" xlink:href="#e" y1="295.74" y2="295.74"/><linearGradient id="k" gradientTransform="matrix(.95 -.11 .1 .9 -32.22 7.2)" x1="173.4" x2="203.18" xlink:href="#f" y1="291.93" y2="291.93"/><path d="m0 228.1v30.59l27.48-29.76z" fill="#d8cbad"/><path d="m0 202.39v27.88l27.48-1.34 24.84-27.04z" fill="#fff"/><path d="m349.94 114.69-57.43.37.26 40.07 57.17-.37z" fill="#c1ad73"/><path d="m351.21 306.32-351.21-.32v-102.61l350.28-1.75z" fill="#ececec" opacity=".9"/><path d="m350.24 229.11-76.02-.12-56.74 77.01h86.61l46.15-73.96z" fill="#fff"/><path d="m350.28 228.86-44.46 77.15 44.46.3z" fill="#ececec"/><path d="m134.44 306.32 81.6-103.79-78.31 7.82-75.32 95.97z" fill="#fff"/><path d="m0 228.8v34l39.11.21 3.15-34.01z" fill="#fff"/><path d="m331.18 263 19.1-33.89-76.06-.12-25.13 33.8z" fill="#ececec"/><path d="m249.18 263.01 25.04-34.01h-79.25l-26.94 33.8z" fill="#fff"/><path d="m168.03 262.8 27.19-33.8h-79.25l-27.88 33.8z" fill="#d8cbad"/><path d="m96.47 263.01 25.04-34.01h-79.25l-26.94 33.8z" fill="#fff"/><path d="m160.8 182.76h14.2v22.73h-14.2z" fill="#fff"/><rect fill="#fff" height="72.03" opacity=".9" rx="8.92" transform="matrix(.99999391 -.00349065 .00349065 .99999391 -.22 .4)" width="100.58" x="63.47" y="27.06"/><rect fill="#ececec" height="72.03" rx="8.92" transform="matrix(.99999391 -.00349065 .00349065 .99999391 -.22 .4)" width="100.58" x="63.11" y="26.98"/><path d="m72.16 99.15 30.91-.15 60.62-39.61-.08-23.72a8.92 8.92 0 0 0 -8.95-8.89h-.05l-82.74.29a8.92 8.92 0 0 0 -8.87 8.93v.05l.19 54.19a8.92 8.92 0 0 0 8.95 8.89z" fill="#ececec"/><rect fill="#fff" height="121.01" rx="4.67" width="99.99" x="64.39" y="102.36"/><rect fill="#ececec" height="121.01" rx="4.67" width="101.14" x="62.43" y="101.64"/><path d="m99.06 101.66-31.06-.09a4.41 4.41 0 0 0 -4.52 4.3q0 .12 0 .24v18.61z" fill="#ececec"/><rect fill="#fff" height="72.03" opacity=".9" rx="8.92" transform="matrix(.99999391 -.00349065 .00349065 .99999391 -.22 .76)" width="100.58" x="167.02" y="27.4"/><rect fill="#fff" height="72.03" opacity=".9" rx="8.92" transform="matrix(.99999391 -.00349065 .00349065 .99999391 -.22 .76)" width="100.58" x="167.01" y="28.08"/><rect fill="#ececec" height="72.03" rx="8.92" transform="matrix(.99999391 -.00349065 .00349065 .99999391 -.22 .76)" width="100.58" x="167.02" y="26.99"/><path d="m195 39h12.24l60.26 52.75a8.79 8.79 0 0 0 .19-1.85l-.19-54.13a8.91 8.91 0 0 0 -8.94-8.88h-.06l-82.74.3a8.92 8.92 0 0 0 -8.89 8.94l.13 21.15z" fill="#ececec" opacity=".9"/><path d="m342.58 100.19a3.5 3.5 0 0 0 -3.51 3.42v3.57a3.59 3.59 0 0 0 -2.44 1.46l.56-3a3.46 3.46 0 0 0 -6.76-1.42l-4.71 22.26-3.54-19.48a3.89 3.89 0 0 0 -4-3c-1.86 0-3.1 2.34-2.76 4.19l5 27.59a3.48 3.48 0 0 0 4 2.81 3.41 3.41 0 0 0 2.78-3h.07a3.44 3.44 0 0 0 3.55-1.43l-.63 3a3.44 3.44 0 0 0 2.65 4.07 3.58 3.58 0 0 0 4.2-2.65l2-8.62v1.57a3.5 3.5 0 1 0 7 0l.08-27.94a3.5 3.5 0 0 0 -3.54-3.4z" fill="#c1ad73"/><path d="m309.54 104.29a3.43 3.43 0 0 0 -6.73-.11 3.58 3.58 0 0 0 -3.21-2 3.53 3.53 0 0 0 -3.54 3.42l-.06 27.93a3.5 3.5 0 0 0 7 0l.07-26.19 4.7 25.66a3.44 3.44 0 1 0 6.77-1.23z" fill="#c1ad73"/><path d="m314.13 110a3.43 3.43 0 0 1 3.43 3.43v27.94a3.43 3.43 0 0 1 -3.43 3.43 3.43 3.43 0 0 1 -3.43-3.43v-27.96a3.43 3.43 0 0 1 3.43-3.41z" fill="#c1ad73"/><path d="m349.94 155.66-57.26.71-.04-10.24 57.3-.71z" fill="#fff" opacity=".9"/><circle cx="304.88" cy="165.64" fill="#c1ad73" r="13.26"/><circle cx="336.71" cy="163.64" fill="#c1ad73" r="13.26"/><ellipse cx="289.11" cy="162.26" fill="#c1ad73" rx="17.18" ry="18.08"/><ellipse cx="314.01" cy="166.5" fill="#c1ad73" rx="17.18" ry="18.08"/><circle cx="268.92" cy="162.02" fill="#c1ad73" r="13.26"/><path d="m250.48 161.32h99.8v67.79h-99.8z" fill="#c1ad73"/><path d="m250.48 165.28h99.8v9.06h-99.8z" fill="#fff"/><path d="m250.48 178.93h99.8v9.06h-99.8z" fill="#fff"/><path d="m250.48 192.58h99.8v9.06h-99.8z" fill="#fff"/><path d="m250.48 206.23h99.8v9.06h-99.8z" fill="#fff"/><path d="m250.44 219.93h99.8v9.06h-99.8z" fill="#fff"/><path d="m250.48 165.28h99.8v9.06h-99.8z" fill="#ccc"/><path d="m250.48 178.93h99.8v9.06h-99.8z" fill="#ccc"/><path d="m250.48 192.58h99.8v9.06h-99.8z" fill="#ccc"/><path d="m250.48 206.23h99.8v9.06h-99.8z" fill="#ccc"/><path d="m250.44 219.93h99.8v9.06h-99.8z" fill="#ccc"/><g fill="#c1ad73"><path d="m349.94 164.09v-.45a13.19 13.19 0 0 0 -15.49-13.06z"/><path d="m200.07 44.2a6.26 6.26 0 0 0 6.12-5.2h-12.19a6.26 6.26 0 0 0 6.07 5.2z"/><path d="m202 27.63v-31.63h-4v31.68c-.11 0-.22-.68-.33-.68h4.94c-.2 0-.38.7-.61.63z" opacity=".9"/><rect height="2" opacity=".9" rx=".93" width="90" x="155" y="35"/><path d="m206.19 33h1.81v-6h-5.39c2.47 1 3.18 3 3.58 6z" opacity=".9"/><path d="m197.67 27h-5.67v6h2a7.65 7.65 0 0 1 3.67-6z" opacity=".9"/><path d="m194 33h12.23c-.4-3-1.11-5-3.58-6h-4.94a7.65 7.65 0 0 0 -3.71 6z" opacity=".9"/><path d="m194 33h12.23c-.4-3-1.11-5-3.58-6h-4.94a7.65 7.65 0 0 0 -3.71 6z" opacity=".9"/></g><path d="m56.29 213.73-.86 2.86" fill="none"/><rect fill="#c1ad73" height="21.42" rx="1.48" width="2.96" x="187.38" y="66.17"/><rect fill="#c1ad73" height="76.35" opacity=".9" rx="1.48" width="2.96" x="142.52" y="114.13"/><rect fill="#ececec" height="121.01" rx="4.67" width="101.14" x="166.58" y="101.64"/><rect fill="#c1ad73" height="76.35" opacity=".9" rx="1.48" width="2.96" x="187.38" y="114.13"/><path d="m144 75.31v-7.66a1.5 1.5 0 0 0 -3 0v9.61z" fill="#c1ad73"/><path d="m142.5 87.59a1.5 1.5 0 0 0 1.5-1.48v-10.8l-3 1.95v8.85a1.5 1.5 0 0 0 1.5 1.48z" fill="#c1ad73"/><path d="m349.94 128.17-57.36.36-.06-10.24 57.42-.36z" fill="#fff" opacity=".9"/><path d="m349.94 141.92-57.25.35-.07-10.24 57.32-.35z" fill="#fff" opacity=".9"/><path d="m349.94 155.66-57.16.36-.07-10.24 57.23-.36z" fill="#fff" opacity=".9"/><path d="m349.94 128.17-57.36.36-.06-10.24 57.42-.36z" fill="url(#a)" opacity=".1"/><path d="m349.94 141.92-57.25.35-.07-10.24 57.32-.35z" fill="url(#b)" opacity=".1"/><path d="m349.94 154.76-57.16 1.26-.07-10.24 57.23-.36z" fill="url(#c)" opacity=".1"/><circle cx="304.88" cy="165.23" fill="#c1ad73" r="13.26"/><ellipse cx="289.11" cy="161.85" fill="#c1ad73" rx="17.18" ry="18.08"/><circle cx="268.92" cy="161.61" fill="#c1ad73" r="13.26"/><path d="m250.48 160.91h99.8v67.79h-99.8z" fill="#c1ad73"/><path d="m250.48 164.86h99.8v9.06h-99.8z" fill="#fff"/><path d="m250.48 178.51h99.8v9.06h-99.8z" fill="#fff"/><path d="m250.48 192.17h99.8v9.06h-99.8z" fill="#fff"/><path d="m250.48 205.82h99.8v9.06h-99.8z" fill="#fff"/><path d="m250.44 220.52h99.8v9.06h-99.8z" fill="#fff"/><path d="m144 74.94v-7.51a1.5 1.5 0 0 0 -3 0v9.42z" fill="#c1ad73"/><path d="m200.07 44.2a6.26 6.26 0 0 0 6.12-5.2h-12.19a6.26 6.26 0 0 0 6.07 5.2z" fill="#fff"/><path d="m202 27.22v-31.22h-4v31.27c-.11 0-.22-.27-.33-.27h4.94c-.2 0-.38.28-.61.22z" fill="#ececec" opacity=".9"/><rect fill="#fff" height="2" opacity=".9" rx=".93" width="90" x="155" y="35"/><path d="m206.19 33h1.81v-6h-5.39c2.47 1 3.18 3 3.58 6z" fill="#fff" opacity=".9"/><path d="m197.67 27h-5.67v6h2a7.65 7.65 0 0 1 3.67-6z" fill="#fff" opacity=".9"/><path d="m194 33h12.23c-.4-3-1.11-5-3.58-6h-4.94a7.65 7.65 0 0 0 -3.71 6z" fill="#ececec" opacity=".9"/><path d="m194 33h12.23c-.4-3-1.11-5-3.58-6h-4.94a7.65 7.65 0 0 0 -3.71 6z" fill="#fff" opacity=".9"/><path d="m137.2 204.97v78.91l-11.75-8.24v-71.19l5.1 6.56z" fill="#d6d6d6"/><path d="m113.68 206.92-.06 76.96 11.83-8.24v-71.19l-5.13 6.56z" fill="#fff"/><path d="m39.14 210.78v62.02l74.48 11.08v-67.56z" fill="#c1ad73"/><path d="m39.14 210.78 7.82-8.14 8.35 9.34z" fill="#c1ad73"/><path d="m55.31 212.22 7.82-8.14 8.36 9.34z" fill="#c1ad73"/><path d="m71.2 213.23 7.82-8.14 8.36 9.34z" fill="#c1ad73"/><path d="m87.38 214.48 7.81-8.14 8.36 9.34z" fill="#c1ad73"/><path d="m103.55 215.68 10.13-8.76-.06 9.4" fill="#c1ad73"/><path d="m60.28 236.26s1.54-2.78-2-6.63c-.01 0-2.54 6.22 2 6.63z" fill="#fff"/><path d="m61.65 236.74c4.77 1.46 5.68-7.19 5.68-7.19-6.62 3.54-5.95 6.58-5.78 7.09z" fill="#fff"/><path d="m65 251.08c0-.08-.12-.44.23-.5l1.4-.42c.47-.15.62-.13.76.11-.36-1.22 0-3 .75-5.37l3.48-12.63a1.11 1.11 0 0 0 -.84-1.37c-.85-.2-1 .2-1.34.75s-4.44 13.72-4.44 13.72-1.89 8.37-7.61 6.84a6.3 6.3 0 0 1 -1.6-.83 5.25 5.25 0 0 1 -1-1.33 6.3 6.3 0 0 1 -.18-4.64 11.12 11.12 0 0 1 1.5-3.21 5.65 5.65 0 0 1 .68-.78 4.58 4.58 0 0 1 3-1.26 13.85 13.85 0 0 1 1.67.19 1.11 1.11 0 0 0 1.37-.65 1.21 1.21 0 0 0 .05-1.2c-.37-.61-2.21-.88-2.6-.91-3.52-.3-6.62 2-8 5.86-.2.57-3.91 10.5 5.79 12.21 0 0 4.58.56 6.89-4.52a.49.49 0 0 1 .04-.06z" fill="url(#d)"/><path d="m68.11 251.37a2.09 2.09 0 0 1 -.34-.38 1.63 1.63 0 0 0 .34.38z" fill="url(#e)"/><path d="m93.53 254.24c-.3.16-.6.36-.89.51a2.89 2.89 0 0 1 -2.8-.09 4.8 4.8 0 0 1 -1.92-3.84c-.1-1.51.17-3 .19-4.54s-.33-3.59-1.66-4.58a3.65 3.65 0 0 0 -4.37.07c-.15.12-.31.29-.49.09a4.33 4.33 0 0 0 -5.44-2.44c-.12 0 0-.2-.17-.45a.79.79 0 0 0 -.25-.29 1.78 1.78 0 0 0 -1.14-.29.41.41 0 0 0 -.38.28c-.77 2.22-1.48 5.43-1.92 6.91a35.18 35.18 0 0 1 -1.44 4.42 2.74 2.74 0 0 1 -1.48 1.65 1.46 1.46 0 0 1 -1.68-.81c-.13-.28-.21-.64-.49-.72a.73.73 0 0 0 -.42 0l-1.42.42a.51.51 0 0 0 -.29.16.56.56 0 0 0 0 .43c.56 2.74 3.51 5.38 6.15 3.43a4.27 4.27 0 0 0 1-1.15c1.71-2.68 2.25-5.93 3.46-8.87.49-1.19 1.56-2.9 3-2.18.77.37.86 1.31.85 2.12a15.64 15.64 0 0 1 -.34 3c-.19.92-.55 3 1 3a.84.84 0 0 0 .48-.16 2.74 2.74 0 0 0 .9-1.75c.21-.9.42-1.8.68-2.68a4.74 4.74 0 0 1 .69-1.57 1.63 1.63 0 0 1 1.42-.72 1.68 1.68 0 0 1 1.27 1.2 4.87 4.87 0 0 1 .14 1.89 20.74 20.74 0 0 0 -.05 5.89 6.58 6.58 0 0 0 3.28 4.49 5.27 5.27 0 0 0 5.3-.33 2.25 2.25 0 0 0 1.09-1.56 1.14 1.14 0 0 0 -.47-1.09 1.35 1.35 0 0 0 -1.39.15z" fill="url(#f)"/><path d="m182.46 200.43h-.85a.34.34 0 0 0 -.33.34v1.58a.33.33 0 0 0 .33.33h.85a.34.34 0 0 0 .33-.34v-1.58a.33.33 0 0 0 -.33-.33zm.1.56v1.12a.34.34 0 0 1 -.33.34h-.41a.33.33 0 0 1 -.33-.33v-1.12a.34.34 0 0 1 .33-.34h.41a.33.33 0 0 1 .33.34z" fill="#b7b7b7"/><path d="m137.13 204.97v78.91l-11.74-8.24v-71.19l5.09 6.56z" fill="url(#g)" opacity=".08"/><path d="m113.68 206.92-.06 76.96 11.83-8.24v-71.19l-5.13 6.56z" fill="url(#h)" opacity=".15"/><path d="m137.13 215.06v68.82l64.14-9.18-2.77-65.95z" fill="#c1ad73"/><path d="m198.59 208.9-6.46-8.63-6.76 10.03z" fill="#c1ad73"/><path d="m185.37 210.18-6.52-8.63-6.83 10.03z" fill="#c1ad73"/><path d="m172.27 211.64-6.53-8.89-6.82 10.33z" fill="#c1ad73"/><path d="m158.91 212.83-6.52-8.62-6.83 10.03z" fill="#c1ad73"/><path d="m145.56 214.24-8.43-9.27v10.09" fill="#c1ad73"/><path d="m155.36 242.75s1-2.61-2.8-5.39c0 0-1.42 5.71 2.8 5.39z" fill="#fff"/><path d="m156.69 243c4.59.55 4.17-7 4.17-7-5.56 4-4.51 6.52-4.27 6.94z" fill="#fff"/><path d="m161.87 254.77a.3.3 0 0 1 .14-.46l1.23-.57c.41-.2.55-.2.71 0-.5-1-.45-2.6-.09-4.72l1.37-11.35a1 1 0 0 0 -1-1c-.81 0-.93.33-1.12.85s-2.1 12.42-2.1 12.42-.52 7.46-6 7a6.05 6.05 0 0 1 -1.58-.48 4.64 4.64 0 0 1 -1.08-1 5.17 5.17 0 0 1 -.83-4 9.33 9.33 0 0 1 .92-3 5 5 0 0 1 .52-.77 4.36 4.36 0 0 1 2.53-1.52 13.74 13.74 0 0 1 1.56-.08 1 1 0 0 0 1.17-.76 1 1 0 0 0 -.12-1c-.43-.47-2.15-.42-2.52-.4a7.21 7.21 0 0 0 -6.45 6.2c-.1.51-2.07 9.59 7.08 9.61a6.53 6.53 0 0 0 5.67-4.9z" fill="url(#i)"/><path d="m164.73 254.56a1.88 1.88 0 0 1 -.37-.28 1.47 1.47 0 0 0 .37.28z" fill="url(#j)"/><path d="m188.47 253.26c-.25.19-.5.4-.74.57a2.85 2.85 0 0 1 -2.58.34 4.13 4.13 0 0 1 -2.31-3c-.31-1.28-.28-2.62-.49-3.92s-.82-3-2.18-3.68a3.58 3.58 0 0 0 -4 .7c-.12.12-.24.29-.43.15a4.11 4.11 0 0 0 -5.34-1.29c-.1.05-.07-.17-.22-.36a.7.7 0 0 0 -.27-.21 1.75 1.75 0 0 0 -1.08-.08.38.38 0 0 0 -.31.3c-.39 2-.57 4.88-.77 6.21a29.07 29.07 0 0 1 -.7 4 2.43 2.43 0 0 1 -1.12 1.63 1.39 1.39 0 0 1 -1.66-.45c-.16-.22-.29-.52-.56-.55a.72.72 0 0 0 -.38.1l-1.24.57a.48.48 0 0 0 -.24.18.46.46 0 0 0 0 .38c.91 2.27 4 4.09 6.14 2a3.78 3.78 0 0 0 .8-1.14c1.18-2.55 1.21-5.42 1.89-8.12.28-1.1 1-2.72 2.47-2.32.76.21 1 1 1.08 1.69a12.75 12.75 0 0 1 .13 2.64c0 .81-.07 2.65 1.33 2.41a.81.81 0 0 0 .42-.21 2.31 2.31 0 0 0 .57-1.63c.06-.8.13-1.6.23-2.4a4 4 0 0 1 .4-1.45 1.38 1.38 0 0 1 2.53 0 4 4 0 0 1 .4 1.6 16.9 16.9 0 0 0 .8 5.06 5.83 5.83 0 0 0 3.69 3.33 5.17 5.17 0 0 0 4.81-1.07 1.94 1.94 0 0 0 .77-1.5 1 1 0 0 0 -.59-.86 1.32 1.32 0 0 0 -1.25.38z" fill="url(#k)"/><path d="m350.28 228.88-19.51 34.07 19.18-.03.33-5.46z" fill="#fff"/><path d="m349.94 100.07a3 3 0 0 0 -.94-.16c-1.89 0-3 1.54-3 3.43v27.94c0 1.89 1.11 3.43 3 3.43a3 3 0 0 0 .94-.16z" fill="#c1ad73"/><path d="m349.94 145.42-53.94.36 8.88 6.6 45.06 3.99z" fill="#ccc"/><path d="m349.94 131.68-57.32.35.07 10.24 57.25-.35z" fill="#ccc"/><path d="m349.94 117.93-57.42.36.06 10.24 57.36-.36z" fill="#ccc"/><circle cx="336.71" cy="163.23" fill="#c1ad73" r="13.26"/><ellipse cx="314.01" cy="166.09" fill="#c1ad73" rx="17.18" ry="18.08"/><path d="m349.94 163.68v-.45a13.19 13.19 0 0 0 -15.49-13.06z" fill="#c1ad73"/><path d="m250.48 164.86h99.8v9.06h-99.8z" fill="#ccc"/><path d="m250.48 178.51h99.8v9.06h-99.8z" fill="#ccc"/><path d="m250.48 192.17h99.8v9.06h-99.8z" fill="#ccc"/><path d="m250.48 205.82h99.8v9.06h-99.8z" fill="#ccc"/><path d="m250.44 220.52h99.8v9.06h-99.8z" fill="#ccc"/></svg>