<?xml version="1.0" encoding="utf-8"?>
<!-- Generator: Adobe Illustrator 20.0.0, SVG Export Plug-In . SVG Version: 6.00 Build 0)  -->
<svg version="1.1" id="Layer_1" xmlns="http://www.w3.org/2000/svg" xmlns:xlink="http://www.w3.org/1999/xlink" x="0px" y="0px"
	 viewBox="0 0 350 297.1" style="enable-background:new 0 0 350 297.1;" xml:space="preserve">
<style type="text/css">
	.st0{fill:#C1AD73;}
	.st1{opacity:0.9;fill:#ECECEC;enable-background:new    ;}
	.st2{opacity:0.9;fill:#FFFFFF;enable-background:new    ;}
	.st3{fill:#CCCCCC;}
	.st4{fill:#ECECEC;}
	.st5{fill:#FFFFFF;}
	.st6{fill:#00B533;}
	.st7{clip-path:url(#SVGID_2_);}
	.st8{fill:#F8AF42;}
	.st9{fill:#F8B042;}
	.st10{fill:#F8B142;}
	.st11{fill:#F8B242;}
	.st12{fill:#F9B341;}
	.st13{fill:#F9B441;}
	.st14{fill:#F9B541;}
	.st15{fill:#F9B641;}
	.st16{fill:#F9B741;}
	.st17{fill:#F9B841;}
	.st18{fill:#F9B941;}
	.st19{fill:#FABA40;}
	.st20{fill:#FABB40;}
	.st21{fill:#FABC40;}
	.st22{fill:#FABD40;}
	.st23{fill:#FABE40;}
	.st24{fill:#FABF40;}
	.st25{fill:#FAC040;}
	.st26{fill:#FBC13F;}
	.st27{fill:#FBC23F;}
	.st28{fill:#FBC33F;}
	.st29{fill:#FBC53F;}
	.st30{fill:#FBC63F;}
	.st31{fill:#FBC73F;}
	.st32{fill:#FCC83E;}
	.st33{fill:#FCC93E;}
	.st34{fill:#FCCA3E;}
	.st35{fill:#FCCB3E;}
	.st36{fill:#FCCC3E;}
	.st37{fill:#FCCD3E;}
	.st38{fill:#FCCE3E;}
	.st39{fill:#FDCF3D;}
	.st40{fill:#FDD03D;}
	.st41{fill:#FDD13D;}
	.st42{fill:#FDD23D;}
	.st43{fill:#FDD33D;}
	.st44{fill:#FDD43D;}
	.st45{fill:#FDD53D;}
	.st46{fill:#FED63C;}
	.st47{fill:#FED73C;}
	.st48{fill:#FED83C;}
	.st49{clip-path:url(#SVGID_4_);}
	.st50{fill:#F8AB17;}
	.st51{fill:#F8AC17;}
	.st52{fill:#F8AD17;}
	.st53{fill:#F8AE17;}
	.st54{fill:#F8AF18;}
	.st55{fill:#F8B018;}
	.st56{fill:#F8B118;}
	.st57{fill:#F8B218;}
	.st58{fill:#F8B318;}
	.st59{fill:#F8B418;}
	.st60{fill:#F8B519;}
	.st61{fill:#F8B619;}
	.st62{fill:#F8B719;}
	.st63{fill:#F8B819;}
	.st64{fill:#F8B919;}
	.st65{fill:#F8BA19;}
	.st66{fill:#F8BB1A;}
	.st67{fill:#F8BC1A;}
	.st68{fill:#F8BD1A;}
	.st69{fill:#F8BE1A;}
	.st70{fill:#F8BF1A;}
	.st71{fill:#F8C01A;}
	.st72{fill:#F8C11A;}
	.st73{fill:#F8C21B;}
	.st74{fill:#F8C31B;}
	.st75{fill:#F8C41B;}
	.st76{fill:#F8C51B;}
	.st77{fill:#F8C61B;}
	.st78{fill:#F8C71B;}
	.st79{fill:#F8C81C;}
	.st80{fill:#F8C91C;}
	.st81{fill:#F8CA1C;}
	.st82{fill:#F9CC1C;}
	.st83{fill:#F9CD1C;}
	.st84{fill:#F9CE1C;}
	.st85{fill:#F9CF1D;}
	.st86{fill:#F9D01D;}
	.st87{fill:#F9D11D;}
	.st88{fill:#F9D21D;}
	.st89{fill:#F9D31D;}
	.st90{fill:#F9D41D;}
	.st91{fill:#F9D51E;}
	.st92{fill:#F9D61E;}
	.st93{fill:#F9D71E;}
	.st94{fill:#F9D81E;}
	.st95{fill:#F9D91E;}
	.st96{fill:#F9DA1E;}
	.st97{fill:#F9DB1E;}
	.st98{fill:#F9DC1F;}
	.st99{fill:#F9DD1F;}
	.st100{fill:#F9DE1F;}
	.st101{fill:#F9DF1F;}
	.st102{fill:#F9E01F;}
	.st103{fill:#F9E11F;}
	.st104{fill:#F9E220;}
	.st105{fill:#F9E320;}
	.st106{fill:#F9E420;}
	.st107{fill:#F9E520;}
	.st108{fill:#F9E620;}
	.st109{fill:#F9E720;}
	.st110{fill:#F9E821;}
	.st111{fill:#F9E921;}
	.st112{fill:#F9EA21;}
	.st113{fill:#F9EB21;}
	.st114{clip-path:url(#SVGID_6_);}
	.st115{fill:#FED93C;}
	.st116{opacity:0.1;fill:url(#SVGID_7_);enable-background:new    ;}
	.st117{opacity:0.9;fill:#C1AD73;enable-background:new    ;}
	.st118{fill:#D8CBAD;}
	.st119{fill:#262642;}
	.st120{opacity:0.1;fill:url(#SVGID_8_);enable-background:new    ;}
	.st121{fill:#CA3B53;}
	.st122{fill:#EBBBC3;}
	.st123{fill:#FFB43B;}
	.st124{clip-path:url(#SVGID_10_);}
	.st125{clip-path:url(#SVGID_12_);}
	.st126{clip-path:url(#SVGID_14_);}
</style>
<title>AMMA_HereArtboard 1 copy 5</title>
<polygon class="st0" points="168.4,179.6 349.6,180.7 350.2,301 -5.9,299.8 79.7,187.7 "/>
<path class="st1" d="M67.1,96.7h91.2c2.6,0,4.7,2.1,4.7,4.7v111.7c0,2.6-2.1,4.7-4.7,4.7H67.1c-2.6,0-4.7-2.1-4.7-4.7V101.4
	C62.4,98.8,64.5,96.7,67.1,96.7z"/>
<path class="st0" d="M348,95c-1.9,0-3,1.5-3,3.4v27.9c0,1.9,1.1,3.4,3,3.4s3-1.5,3-3.4V98.4C351,96.6,349.9,95,348,95z"/>
<path class="st0" d="M341.5,94.8c-1.9,0-3.5,1.5-3.5,3.4v3.6c-1,0.1-1.9,0.7-2.4,1.5l0.6-3c0.3-1.9-1-3.7-2.9-4
	c-1.8-0.3-3.5,0.8-3.9,2.6l-4.6,22.3l-3.6-19.3c-0.3-1.9-2.1-2.8-4-2.8l0,0c-1.9,0-3.1,2.1-2.8,4l5.1,27.5c0.3,1.9,2.1,3.1,4,2.8
	c1.5-0.3,2.7-1.5,2.8-3h0.1c1.4,0.3,2.8-0.3,3.5-1.4l-0.6,3c-0.4,1.9,0.8,3.7,2.7,4.1c1.9,0.4,3.7-0.8,4.2-2.7l1.9-8.6v1.6
	c0,1.9,1.6,3.5,3.5,3.5s3.5-1.6,3.5-3.5V98.2C345,96.3,343.4,94.8,341.5,94.8z"/>
<path class="st0" d="M308.5,99c-0.3-1.9-2.1-3.1-4-2.8c-1.4,0.3-2.5,1.3-2.7,2.7c-0.6-1.2-1.8-2-3.2-2c-1.9,0-3.5,1.5-3.5,3.4v27.9
	c0,1.9,1.6,3.5,3.5,3.5s3.5-1.6,3.5-3.5v-26.2l4.8,25.6c0.3,1.9,2.1,3.1,4,2.8c1.9-0.3,3.1-2.1,2.8-4L308.5,99z"/>
<path class="st0" d="M313.1,104.7L313.1,104.7c1.9,0,3.4,1.5,3.4,3.4V136c0,1.9-1.5,3.4-3.4,3.4l0,0c-1.9,0-3.4-1.5-3.4-3.4v-27.9
	C309.7,106.2,311.2,104.7,313.1,104.7z"/>
<rect x="291.6" y="110" transform="matrix(1 -6.457588e-03 6.457588e-03 1 -0.8328 2.0765)" class="st0" width="59" height="40.1"/>
<rect x="291.6" y="113.2" transform="matrix(1 -6.457588e-03 6.457588e-03 1 -0.7573 2.0757)" class="st2" width="59" height="10.2"/>
<rect x="291.7" y="126.9" transform="matrix(1 -6.457588e-03 6.457588e-03 1 -0.8461 2.0766)" class="st2" width="59" height="10.2"/>
<rect x="291.7" y="140.7" transform="matrix(1 -6.457588e-03 6.457588e-03 1 -0.9349 2.0774)" class="st2" width="59" height="10.2"/>
<rect x="291.6" y="113.2" transform="matrix(1 -6.457588e-03 6.457588e-03 1 -0.7573 2.0757)" class="st3" width="59" height="10.2"/>
<rect x="291.7" y="126.9" transform="matrix(1 -6.457588e-03 6.457588e-03 1 -0.8461 2.0766)" class="st3" width="59" height="10.2"/>
<rect x="291.7" y="140.7" transform="matrix(1 -6.457588e-03 6.457588e-03 1 -0.9349 2.0774)" class="st3" width="59" height="10.2"/>
<path class="st1" d="M70.9,22.2l82.7-0.3c4.9,0,8.9,4,9,8.9l0.2,54.2c0,4.9-4,8.9-8.9,9l-82.7,0.3c-4.9,0-8.9-4-9-8.9L62,31.2
	C62,26.2,66,22.2,70.9,22.2z"/>
<path class="st2" d="M174.8,22.2l82.7-0.3c4.9,0,8.9,4,9,8.9l0.2,54.2c0,4.9-4,8.9-8.9,9l-82.7,0.3c-4.9,0-8.9-4-9-8.9l-0.2-54.2
	C165.9,26.3,169.9,22.2,174.8,22.2z"/>
<path class="st1" d="M174.8,22.2l82.7-0.3c4.9,0,8.9,4,9,8.9l0.2,54.2c0,4.9-4,8.9-8.9,9l-82.7,0.3c-4.9,0-8.9-4-9-8.9l-0.2-54.2
	C165.9,26.3,169.9,22.2,174.8,22.2z"/>
<path class="st0" d="M186.9,58.8L186.9,58.8c0.8,0,1.5,0.7,1.5,1.5v18.5c0,0.8-0.7,1.5-1.5,1.5h0c-0.8,0-1.5-0.7-1.5-1.5V60.3
	C185.4,59.5,186,58.8,186.9,58.8z"/>
<path class="st4" d="M171.1,96.7h91.2c2.6,0,4.7,2.1,4.7,4.7v111.7c0,2.6-2.1,4.7-4.7,4.7h-91.2c-2.6,0-4.7-2.1-4.7-4.7V101.4
	C166.4,98.8,168.5,96.7,171.1,96.7z"/>
<path class="st0" d="M186.9,107.8L186.9,107.8c0.8,0,1.5,0.7,1.5,1.5v73.4c0,0.8-0.7,1.5-1.5,1.5h0c-0.8,0-1.5-0.7-1.5-1.5v-73.4
	C185.4,108.5,186,107.8,186.9,107.8z"/>
<circle class="st0" cx="303.9" cy="160.3" r="13.3"/>
<circle class="st0" cx="335.7" cy="158.3" r="13.3"/>
<ellipse class="st0" cx="288.1" cy="156.9" rx="17.2" ry="18.1"/>
<ellipse class="st0" cx="313" cy="161.2" rx="17.2" ry="18.1"/>
<circle class="st0" cx="267.9" cy="156.7" r="13.3"/>
<ellipse transform="matrix(1.849939e-02 -0.9998 0.9998 1.849939e-02 -153.6729 256.8632)" class="st5" cx="54" cy="206.7" rx="5.6" ry="6"/>
<path class="st6" d="M125.9,146.2c0,0,1.2-0.4,1-2.4C126.9,143.8,124.6,144.9,125.9,146.2z"/>
<path class="st6" d="M126.3,146.7c1.2,1.7,3.6-0.6,3.6-0.6C126.9,145.4,126.3,146.5,126.3,146.7L126.3,146.7z"/>
<g>
	<defs>
		<path id="SVGID_1_" d="M123.9,151.8c0-0.1,0.1-0.1,0.2-0.1c0,0,0,0,0,0l0.6,0.2c0.2,0.1,0.2,0.1,0.2,0.2c0.4-0.6,0.9-1.1,1.6-1.4
			l4.2-2.8c0.2-0.1,0.2-0.4,0.1-0.6c0,0,0,0,0-0.1c-0.2-0.3-0.4-0.2-0.6-0.1s-4.8,2.8-4.8,2.8s-2.7,1.9-4.2,0
			c-0.1-0.2-0.2-0.4-0.3-0.6c0-0.2,0-0.4,0-0.6c0.1-0.6,0.5-1.1,1.1-1.4c0.4-0.2,0.8-0.4,1.3-0.5c0.1,0,0.3,0,0.4,0
			c0.5,0,0.9,0.1,1.3,0.4c0.2,0.2,0.3,0.3,0.5,0.5c0.1,0.2,0.4,0.3,0.6,0.2c0.2,0,0.3-0.2,0.3-0.3c0-0.3-0.5-0.8-0.6-0.9
			c-1.1-1-2.8-1.1-4.1-0.4c-0.2,0.1-3.8,2-1.1,5C121.4,152.2,122.7,152.3,123.9,151.8L123.9,151.8z"/>
	</defs>
	<clipPath id="SVGID_2_">
		<use xlink:href="#SVGID_1_"  style="overflow:visible;"/>
	</clipPath>
	<g class="st7">
		<polygon class="st8" points="123.3,153.7 129.8,146.5 131,147.6 124.3,154.6 		"/>
		<polygon class="st8" points="123.1,153.5 129.6,146.4 129.8,146.5 123.3,153.7 		"/>
		<polygon class="st9" points="123,153.4 129.5,146.3 129.6,146.4 123.1,153.5 		"/>
		<polygon class="st10" points="122.8,153.3 129.4,146.2 129.5,146.3 123,153.4 		"/>
		<polygon class="st11" points="122.7,153.2 129.2,146 129.4,146.2 122.8,153.3 		"/>
		<polygon class="st12" points="122.6,153 129.1,145.9 129.2,146 122.7,153.2 		"/>
		<polygon class="st13" points="122.4,152.9 128.9,145.8 129.1,145.9 122.6,153 		"/>
		<polygon class="st14" points="122.3,152.8 128.8,145.7 128.9,145.8 122.4,152.9 		"/>
		<polygon class="st15" points="122.1,152.7 128.6,145.5 128.8,145.7 122.3,152.8 		"/>
		<polygon class="st16" points="122,152.5 128.5,145.4 128.6,145.5 122.1,152.7 		"/>
		<polygon class="st17" points="121.8,152.4 128.3,145.3 128.5,145.4 122,152.5 		"/>
		<polygon class="st18" points="121.7,152.3 128.2,145.2 128.3,145.3 121.8,152.4 		"/>
		<polygon class="st19" points="121.5,152.2 128,145 128.2,145.2 121.7,152.3 		"/>
		<polygon class="st20" points="121.4,152 127.9,144.9 128,145 121.5,152.2 		"/>
		<polygon class="st21" points="121.2,151.9 127.8,144.8 127.9,144.9 121.4,152 		"/>
		<polygon class="st22" points="121.1,151.8 127.6,144.7 127.8,144.8 121.2,151.9 		"/>
		<polygon class="st23" points="120.9,151.7 127.5,144.5 127.6,144.7 121.1,151.8 		"/>
		<polygon class="st24" points="120.8,151.5 127.3,144.4 127.5,144.5 120.9,151.7 		"/>
		<polygon class="st25" points="120.7,151.4 127.2,144.3 127.3,144.4 120.8,151.5 		"/>
		<polygon class="st26" points="120.5,151.3 127,144.2 127.2,144.3 120.7,151.4 		"/>
		<polygon class="st27" points="120.4,151.2 126.9,144 127,144.2 120.5,151.3 		"/>
		<polygon class="st28" points="120.2,151 126.7,143.9 126.9,144 120.4,151.2 		"/>
		<polygon class="st29" points="120.1,150.9 126.6,143.8 126.7,143.9 120.2,151 		"/>
		<polygon class="st30" points="119.9,150.8 126.4,143.7 126.6,143.8 120.1,150.9 		"/>
		<polygon class="st31" points="119.8,150.7 126.3,143.5 126.4,143.7 119.9,150.8 		"/>
		<polygon class="st32" points="119.6,150.5 126.1,143.4 126.3,143.5 119.8,150.7 		"/>
		<polygon class="st33" points="119.5,150.4 126,143.3 126.1,143.4 119.6,150.5 		"/>
		<polygon class="st34" points="119.3,150.3 125.8,143.2 126,143.3 119.5,150.4 		"/>
		<polygon class="st35" points="119.2,150.2 125.7,143 125.8,143.2 119.3,150.3 		"/>
		<polygon class="st36" points="119,150 125.6,142.9 125.7,143 119.2,150.2 		"/>
		<polygon class="st37" points="118.9,149.9 125.4,142.8 125.6,142.9 119,150 		"/>
		<polygon class="st38" points="118.8,149.8 125.3,142.7 125.4,142.8 118.9,149.9 		"/>
		<polygon class="st39" points="118.6,149.6 125.1,142.5 125.3,142.7 118.8,149.8 		"/>
		<polygon class="st40" points="118.5,149.5 125,142.4 125.1,142.5 118.6,149.6 		"/>
		<polygon class="st41" points="118.3,149.4 124.8,142.3 125,142.4 118.5,149.5 		"/>
		<polygon class="st42" points="118.2,149.3 124.7,142.2 124.8,142.3 118.3,149.4 		"/>
		<polygon class="st43" points="118,149.1 124.5,142 124.7,142.2 118.2,149.3 		"/>
		<polygon class="st44" points="117.9,149 124.4,141.9 124.5,142 118,149.1 		"/>
		<polygon class="st45" points="117.7,148.9 124.2,141.8 124.4,141.9 117.9,149 		"/>
		<polygon class="st46" points="117.6,148.8 124.1,141.7 124.2,141.8 117.7,148.9 		"/>
		<polygon class="st47" points="117.4,148.6 119.7,145.9 123.8,141.4 124.1,141.7 117.6,148.8 		"/>
		<polygon class="st48" points="119.7,145.9 117.4,148.6 117.2,148.4 		"/>
	</g>
</g>
<g>
	<defs>
		<path id="SVGID_3_" d="M124.8,152.6c0-0.1,0-0.1,0-0.2C124.8,152.5,124.8,152.6,124.8,152.6z"/>
	</defs>
	<clipPath id="SVGID_4_">
		<use xlink:href="#SVGID_3_"  style="overflow:visible;"/>
	</clipPath>
	<g class="st49">
		<path class="st50" d="M124.7,152.4l-0.1,0.1L124.7,152.4z"/>
		<polygon class="st50" points="124.8,152.4 124.7,152.5 124.7,152.5 124.8,152.4 		"/>
		<polygon class="st51" points="124.8,152.4 124.7,152.5 124.7,152.5 124.8,152.4 		"/>
		<polygon class="st52" points="124.8,152.4 124.7,152.5 124.7,152.5 124.8,152.4 		"/>
		<polygon class="st53" points="124.8,152.4 124.7,152.5 124.7,152.5 124.8,152.4 		"/>
		<polygon class="st54" points="124.8,152.4 124.7,152.5 124.7,152.5 124.8,152.4 		"/>
		<polygon class="st55" points="124.8,152.4 124.7,152.5 124.7,152.5 124.8,152.4 		"/>
		<polygon class="st56" points="124.8,152.4 124.7,152.5 124.7,152.5 124.8,152.4 		"/>
		<polygon class="st57" points="124.8,152.4 124.7,152.5 124.7,152.5 124.8,152.4 		"/>
		<polygon class="st58" points="124.8,152.4 124.7,152.5 124.7,152.5 124.8,152.4 		"/>
		<polygon class="st59" points="124.8,152.4 124.7,152.5 124.7,152.5 124.8,152.4 		"/>
		<polygon class="st60" points="124.8,152.4 124.7,152.5 124.7,152.5 124.8,152.4 		"/>
		<polygon class="st61" points="124.8,152.4 124.7,152.5 124.7,152.5 124.8,152.4 		"/>
		<polygon class="st62" points="124.8,152.4 124.7,152.6 124.7,152.5 124.8,152.4 		"/>
		<polygon class="st63" points="124.8,152.4 124.7,152.6 124.7,152.6 124.8,152.4 		"/>
		<polygon class="st64" points="124.8,152.4 124.7,152.6 124.7,152.6 124.8,152.4 		"/>
		<polygon class="st65" points="124.8,152.4 124.7,152.6 124.7,152.6 124.8,152.4 		"/>
		<polygon class="st66" points="124.8,152.4 124.7,152.6 124.7,152.6 124.8,152.4 		"/>
		<polygon class="st67" points="124.8,152.4 124.7,152.6 124.7,152.6 124.8,152.4 		"/>
		<polygon class="st68" points="124.8,152.5 124.7,152.6 124.7,152.6 124.8,152.4 		"/>
		<polygon class="st69" points="124.8,152.5 124.7,152.6 124.7,152.6 124.8,152.5 		"/>
		<polygon class="st70" points="124.8,152.5 124.7,152.6 124.7,152.6 124.8,152.5 		"/>
		<polygon class="st71" points="124.8,152.5 124.7,152.6 124.7,152.6 124.8,152.5 		"/>
		<polygon class="st72" points="124.8,152.5 124.7,152.6 124.7,152.6 124.8,152.5 		"/>
		<polygon class="st73" points="124.8,152.5 124.7,152.6 124.7,152.6 124.8,152.5 		"/>
		<polygon class="st74" points="124.8,152.5 124.7,152.6 124.7,152.6 124.8,152.5 		"/>
		<polygon class="st75" points="124.8,152.5 124.7,152.6 124.7,152.6 124.8,152.5 		"/>
		<polygon class="st76" points="124.8,152.5 124.7,152.6 124.7,152.6 124.8,152.5 		"/>
		<polygon class="st77" points="124.8,152.5 124.7,152.6 124.7,152.6 124.8,152.5 		"/>
		<polygon class="st78" points="124.8,152.5 124.7,152.6 124.7,152.6 124.8,152.5 		"/>
		<polygon class="st79" points="124.8,152.5 124.7,152.6 124.7,152.6 124.8,152.5 		"/>
		<polygon class="st80" points="124.8,152.5 124.7,152.6 124.7,152.6 124.8,152.5 		"/>
		<polygon class="st81" points="124.8,152.5 124.7,152.6 124.7,152.6 124.8,152.5 		"/>
		<polygon class="st82" points="124.8,152.5 124.8,152.6 124.7,152.6 124.8,152.5 		"/>
		<polygon class="st83" points="124.8,152.5 124.8,152.6 124.8,152.6 124.8,152.5 		"/>
		<polygon class="st84" points="124.8,152.5 124.8,152.6 124.8,152.6 124.8,152.5 		"/>
		<polygon class="st85" points="124.8,152.5 124.8,152.6 124.8,152.6 124.8,152.5 		"/>
		<polygon class="st86" points="124.8,152.5 124.8,152.6 124.8,152.6 124.8,152.5 		"/>
		<polygon class="st87" points="124.8,152.5 124.8,152.6 124.8,152.6 124.8,152.5 		"/>
		<polygon class="st88" points="124.8,152.5 124.8,152.6 124.8,152.6 124.8,152.5 		"/>
		<polygon class="st89" points="124.8,152.5 124.8,152.6 124.8,152.6 124.8,152.5 		"/>
		<polygon class="st90" points="124.9,152.5 124.8,152.6 124.8,152.6 124.8,152.5 		"/>
		<polygon class="st91" points="124.9,152.5 124.8,152.6 124.8,152.6 124.9,152.5 		"/>
		<polygon class="st92" points="124.9,152.5 124.8,152.6 124.8,152.6 124.9,152.5 		"/>
		<polygon class="st93" points="124.9,152.5 124.8,152.6 124.8,152.6 124.9,152.5 		"/>
		<polygon class="st94" points="124.9,152.5 124.8,152.6 124.8,152.6 124.9,152.5 		"/>
		<polygon class="st95" points="124.9,152.5 124.8,152.6 124.8,152.6 124.9,152.5 		"/>
		<polygon class="st96" points="124.9,152.5 124.8,152.6 124.8,152.6 124.9,152.5 		"/>
		<polygon class="st97" points="124.9,152.5 124.8,152.6 124.8,152.6 124.9,152.5 		"/>
		<polygon class="st98" points="124.9,152.5 124.8,152.6 124.8,152.6 124.9,152.5 		"/>
		<polygon class="st99" points="124.9,152.5 124.8,152.6 124.8,152.6 124.9,152.5 		"/>
		<polygon class="st100" points="124.9,152.5 124.8,152.6 124.8,152.6 124.9,152.5 		"/>
		<polygon class="st101" points="124.9,152.5 124.8,152.6 124.8,152.6 124.9,152.5 		"/>
		<polygon class="st102" points="124.9,152.5 124.8,152.6 124.8,152.6 124.9,152.5 		"/>
		<polygon class="st103" points="124.9,152.5 124.8,152.6 124.8,152.6 124.9,152.5 		"/>
		<polygon class="st104" points="124.9,152.5 124.8,152.6 124.8,152.6 124.9,152.5 		"/>
		<polygon class="st105" points="124.9,152.5 124.8,152.6 124.8,152.6 124.9,152.5 		"/>
		<polygon class="st106" points="124.9,152.5 124.8,152.6 124.8,152.6 124.9,152.5 		"/>
		<polygon class="st107" points="124.9,152.5 124.8,152.6 124.8,152.6 124.9,152.5 		"/>
		<polygon class="st108" points="124.9,152.5 124.8,152.6 124.8,152.6 124.9,152.5 		"/>
		<polygon class="st109" points="124.9,152.5 124.8,152.6 124.8,152.6 124.9,152.5 		"/>
		<polygon class="st110" points="124.9,152.5 124.8,152.6 124.8,152.6 124.9,152.5 		"/>
		<polygon class="st111" points="124.9,152.5 124.8,152.6 124.8,152.6 124.9,152.5 		"/>
		<polygon class="st112" points="124.9,152.5 124.8,152.6 124.8,152.6 124.9,152.5 		"/>
		<polygon class="st113" points="124.9,152.5 124.8,152.6 124.8,152.6 124.9,152.5 		"/>
		<path class="st113" d="M124.6,152.4l0.1-0.1L124.6,152.4z"/>
	</g>
</g>
<g>
	<defs>
		<path id="SVGID_5_" d="M132.5,160l-0.4-0.1c-0.4-0.1-0.7-0.4-0.9-0.8c-0.2-0.5-0.1-1.2,0.3-1.6c0.3-0.5,0.8-0.8,1.2-1.3
			c0.5-0.4,0.7-1.1,0.6-1.8c-0.2-0.6-0.8-1.1-1.5-1.1c-0.1,0-0.2,0-0.2-0.1c0.2-0.9-0.3-1.8-1.2-2.1c0,0,0-0.1,0.1-0.2
			c0,0,0-0.1,0-0.1c-0.1-0.2-0.2-0.3-0.3-0.4c-0.1,0-0.1,0-0.2,0c-0.8,0.4-1.8,1.2-2.3,1.5c-0.5,0.3-1,0.6-1.6,0.9
			c-0.3,0.2-0.6,0.2-0.9,0.1c-0.3-0.1-0.4-0.4-0.4-0.7c0-0.1,0.1-0.2,0-0.3c0,0-0.1-0.1-0.2-0.1l-0.6-0.2c0,0-0.1,0-0.1,0
			c-0.1,0-0.1,0.1-0.1,0.1c-0.5,0.8-0.2,1.9,0.6,2.4c0.2,0.1,0.4,0.2,0.6,0.2c0.2,0,0.4,0,0.6-0.1c1.1-0.5,2.3-1,3.3-1.7
			c0.4-0.2,1.2-0.4,1.5,0.1c0.2,0.3,0,0.6-0.2,0.8c-0.3,0.3-0.5,0.6-0.9,0.8c-0.3,0.2-0.9,0.7-0.4,1.1c0.1,0,0.1,0.1,0.2,0.1
			c0.3,0,0.5-0.1,0.7-0.3c0.3-0.2,0.6-0.4,0.9-0.6c0.2-0.1,0.4-0.2,0.6-0.3c0.2,0,0.5,0,0.6,0.2c0.2,0.2,0.2,0.4,0.1,0.7
			c-0.1,0.2-0.2,0.4-0.4,0.6c-0.6,0.5-1.1,1-1.4,1.7c-0.3,0.7-0.3,1.5,0,2.1c0.4,0.7,1.1,1.2,1.8,1.3c0.3,0.1,0.5,0,0.7-0.2
			c0.1-0.1,0.2-0.3,0.1-0.4C132.9,160.2,132.7,160,132.5,160z"/>
	</defs>
	<clipPath id="SVGID_6_">
		<use xlink:href="#SVGID_5_"  style="overflow:visible;"/>
	</clipPath>
	<g class="st114">
		<polygon class="st8" points="127.2,147.8 122.3,153.1 122.3,153.1 127.2,147.8 		"/>
		<polygon class="st8" points="127.9,148.1 122.5,153.8 122,153.4 127.4,147.7 		"/>
		<polygon class="st9" points="128.4,148.5 123,154.2 122.5,153.8 127.9,148.1 		"/>
		<polygon class="st10" points="128.4,148.5 123,154.2 123,154.2 128.4,148.5 		"/>
		<polygon class="st11" points="128.4,148.5 123,154.2 123,154.2 128.4,148.5 		"/>
		<polygon class="st12" points="128.8,148.9 123.4,154.6 123,154.2 128.4,148.5 		"/>
		<polygon class="st13" points="128.8,148.9 123.4,154.6 123.4,154.6 128.8,148.9 		"/>
		<polygon class="st14" points="129.3,149.3 123.9,155 123.4,154.6 128.8,148.9 		"/>
		<polygon class="st15" points="129.3,149.3 123.9,155 123.9,155 129.3,149.3 		"/>
		<polygon class="st16" points="129.8,149.7 124.4,155.4 123.9,155 129.3,149.3 		"/>
		<polygon class="st17" points="129.8,149.7 124.4,155.4 124.4,155.4 129.8,149.7 		"/>
		<polygon class="st18" points="130.3,150.1 124.9,155.8 124.4,155.4 129.8,149.7 		"/>
		<polygon class="st19" points="130.3,150.1 124.9,155.8 124.9,155.8 130.3,150.1 		"/>
		<polygon class="st20" points="130.7,150.5 125.3,156.2 124.9,155.8 130.3,150.1 		"/>
		<polygon class="st21" points="130.7,150.5 125.3,156.2 125.3,156.2 130.7,150.5 		"/>
		<polygon class="st22" points="130.7,150.5 125.3,156.2 125.3,156.2 130.7,150.5 		"/>
		<polygon class="st23" points="131.2,150.9 125.8,156.6 125.3,156.2 130.7,150.5 		"/>
		<polygon class="st24" points="131.2,150.9 125.8,156.6 125.8,156.6 131.2,150.9 		"/>
		<polygon class="st25" points="131.7,151.3 126.3,157 125.8,156.6 131.2,150.9 		"/>
		<polygon class="st26" points="132.2,151.8 126.8,157.4 126.3,157 131.7,151.3 		"/>
		<polygon class="st27" points="132.2,151.8 126.8,157.4 126.8,157.4 132.2,151.8 		"/>
		<polygon class="st28" points="132.6,152.2 127.2,157.9 126.8,157.4 132.2,151.8 		"/>
		<polygon class="st29" points="132.6,152.2 127.2,157.9 127.2,157.9 132.6,152.2 		"/>
		<polygon class="st30" points="133.1,152.6 127.7,158.3 127.2,157.9 132.6,152.2 		"/>
		<polygon class="st31" points="133.1,152.6 127.7,158.3 127.7,158.3 133.1,152.6 		"/>
		<polygon class="st32" points="133.1,152.6 127.7,158.3 127.7,158.3 133.1,152.6 		"/>
		<polygon class="st33" points="133.6,153 128.2,158.7 127.7,158.3 133.1,152.6 		"/>
		<polygon class="st34" points="133.6,153 128.2,158.7 128.2,158.7 133.6,153 		"/>
		<polygon class="st35" points="134.1,153.4 128.7,159.1 128.2,158.7 133.6,153 		"/>
		<polygon class="st36" points="134.1,153.4 128.7,159.1 128.7,159.1 134.1,153.4 		"/>
		<polygon class="st37" points="134.5,153.8 129.1,159.5 128.7,159.1 134.1,153.4 		"/>
		<polygon class="st38" points="134.5,153.8 129.1,159.5 129.1,159.5 134.5,153.8 		"/>
		<polygon class="st39" points="135,154.2 129.6,159.9 129.1,159.5 134.5,153.8 		"/>
		<polygon class="st40" points="135.5,154.6 130.1,160.3 129.6,159.9 135,154.2 		"/>
		<polygon class="st41" points="135.5,154.6 130.1,160.3 130.1,160.3 135.5,154.6 		"/>
		<polygon class="st42" points="135.5,154.6 130.1,160.3 130.1,160.3 135.5,154.6 		"/>
		<polygon class="st43" points="136,155 130.6,160.7 130.1,160.3 135.5,154.6 		"/>
		<polygon class="st44" points="136,155 130.6,160.7 130.6,160.7 136,155 		"/>
		<polygon class="st45" points="136.4,155.4 131,161.1 130.6,160.7 136,155 		"/>
		<polygon class="st46" points="136.4,155.4 131,161.1 131,161.1 136.4,155.4 		"/>
		<polygon class="st47" points="136.9,155.8 131.5,161.5 131,161.1 136.4,155.4 		"/>
		<polygon class="st48" points="136.9,155.8 131.5,161.5 131.5,161.5 136.9,155.8 		"/>
		<polygon class="st115" points="137.4,156.2 132,161.9 131.5,161.5 136.9,155.8 		"/>
		<polygon class="st115" points="132.2,161.7 137.2,156.4 137.2,156.4 132.2,161.7 		"/>
	</g>
</g>
<rect x="249.5" y="156" class="st0" width="99.8" height="67.8"/>
<rect x="249.5" y="160" class="st5" width="99.8" height="9.1"/>
<rect x="249.5" y="173.6" class="st5" width="99.8" height="9.1"/>
<rect x="249.5" y="187.3" class="st5" width="99.8" height="9.1"/>
<rect x="249.5" y="200.9" class="st5" width="99.8" height="9.1"/>
<rect x="249.4" y="214.6" class="st5" width="99.8" height="9.1"/>
<rect x="249.5" y="160" class="st3" width="99.8" height="9.1"/>
<rect x="249.5" y="173.6" class="st3" width="99.8" height="9.1"/>
<rect x="249.5" y="187.3" class="st3" width="99.8" height="9.1"/>
<rect x="249.5" y="200.9" class="st3" width="99.8" height="9.1"/>
<rect x="249.4" y="214.6" class="st3" width="99.8" height="9.1"/>
<polygon class="st3" points="308.8,123.5 350.6,123.3 350.5,113 297.1,113.4 "/>
<polygon class="st3" points="324.4,137.2 350.7,137 350.6,126.8 312.8,127 "/>
<polygon class="st3" points="340.1,150.8 350.8,150.8 350.7,140.5 328.4,140.6 "/>
<path class="st0" d="M348.9,158.8c0-0.1,0-0.3,0-0.4c0-7.3-5.8-13.2-13.1-13.3c-0.8,0-1.6,0.1-2.4,0.2L348.9,158.8z"/>
<linearGradient id="SVGID_7_" gradientUnits="userSpaceOnUse" x1="47.96" y1="91.3061" x2="60.0397" y2="91.3061" gradientTransform="matrix(1 0 0 -1 1.787702e-02 298.009)">
	<stop  offset="0" style="stop-color:#C69C6D"/>
	<stop  offset="0.11" style="stop-color:#C0976A"/>
	<stop  offset="0.26" style="stop-color:#AF8A61"/>
	<stop  offset="0.42" style="stop-color:#947451"/>
	<stop  offset="0.6" style="stop-color:#6D563C"/>
	<stop  offset="0.8" style="stop-color:#3C2F21"/>
	<stop  offset="1" style="stop-color:#000000"/>
</linearGradient>
<path class="st116" d="M48,206.6c0.1-3.1,2.8-5.5,6.1-5.5c3.3,0.1,6,2.6,5.9,5.7s-2.8,5.5-6.1,5.5S47.9,209.7,48,206.6z"/>
<path class="st1" d="M71.2,94.2l30.9-0.1l60.6-39.6l-0.1-23.7c0-4.9-4-8.9-8.9-8.9c0,0,0,0-0.1,0l-82.7,0.3c-4.9,0-8.9,4-8.9,8.9
	c0,0,0,0,0,0.1l0.2,54.2C62.2,90.3,66.2,94.3,71.2,94.2C71.2,94.2,71.2,94.2,71.2,94.2z"/>
<path class="st0" d="M142,68v-7.7c0-0.8-0.7-1.5-1.5-1.5s-1.5,0.7-1.5,1.5v9.6L142,68z"/>
<path class="st0" d="M140.5,80.3c0.8,0,1.5-0.7,1.5-1.5V68l-3,1.9v8.8C139,79.6,139.7,80.3,140.5,80.3z"/>
<path class="st0" d="M199.1,39.3c3,0,5.6-2.2,6.1-5.2H193C193.5,37.1,196.1,39.2,199.1,39.3z"/>
<path class="st117" d="M201,22.3V-8.9h-4v31.3c-0.1,0-0.2-0.3-0.3-0.3h4.9C201.4,22.1,201.2,22.4,201,22.3z"/>
<path class="st117" d="M154.9,30.1h88.1c0.5,0,0.9,0.4,0.9,0.9v0.1c0,0.5-0.4,0.9-0.9,0.9h-88.1c-0.5,0-0.9-0.4-0.9-0.9V31
	C154,30.5,154.4,30.1,154.9,30.1z"/>
<path class="st117" d="M205.2,28.1h1.8v-6h-5.4C204.1,23.1,204.8,25.1,205.2,28.1z"/>
<path class="st117" d="M196.7,22.1H191v6h2C193.2,25.6,194.5,23.4,196.7,22.1z"/>
<path class="st117" d="M193,28.1h12.2c-0.4-3-1.1-5-3.6-6h-4.9C194.6,23.4,193.2,25.6,193,28.1z"/>
<path class="st117" d="M193,28.1h12.2c-0.4-3-1.1-5-3.6-6h-4.9C194.6,23.4,193.2,25.6,193,28.1z"/>
<path class="st118" d="M99.2,169.1l0.8,1.3c0.4,0.6,0.1,1.5-0.5,1.8c0,0-0.1,0-0.1,0.1l-7.3,3.3c-0.5,0.2-1.1,0-1.3-0.5c0,0,0,0,0,0
	c-0.8-1.7-2-5.3,0.5-7.3c0.6-0.6,1.4-1,2.2-1.2C95.9,166,97.7,167,99.2,169.1z"/>
<path class="st3" d="M33.7,199.6c-1.3,0.7-2.5,2.7-3.2,4.1c-2.4,4.9-5.1,14.1-3.1,18.9c0.7,1.5,1.9,2.6,3.4,3.1
	c4.3,1.5,13.8,3.2,15.9-10.5c0.1-0.6,0.2-1.3,0.2-1.9L33.7,199.6z"/>
<path class="st0" d="M31.9,214.9c-0.8-0.1-1.7,0.4-1.9,1.2c-0.1,0.2-0.1,0.3-0.1,0.5c-0.7,3.9-0.5,6.1,2.3,6.9s3.4,0.1,5.4-3.6
	c0.3-0.6,0.6-1.3,0.8-2c0.3-0.9-0.2-1.8-1.1-2.1c-0.1,0-0.1,0-0.2-0.1L31.9,214.9z"/>
<path class="st119" d="M190.3,146.5c9,10,2.4,13.6-4.8,18.8l-96.9,70.5c-6.2,4.4-13.6,6-20.8,0L29,195.7c-6.7-7.7-4.2-17.2,2-21.6
	l69.5-45.8c5.3-2.9,21.3-14.7,33.5-21.7c7.8-4.5,13.6-0.6,17.4,2.8"/>
<polygon class="st119" points="36.4,174.4 89.2,229.6 185.7,158.7 135.4,110.4 "/>
<linearGradient id="SVGID_8_" gradientUnits="userSpaceOnUse" x1="135.4532" y1="148.6255" x2="75.0332" y2="105.0855" gradientTransform="matrix(1 0 0 -1 0 298)">
	<stop  offset="0" style="stop-color:#FFFFFF"/>
	<stop  offset="9.000000e-02" style="stop-color:#F9F9F9"/>
	<stop  offset="0.22" style="stop-color:#E8E8E8"/>
	<stop  offset="0.36" style="stop-color:#CDCDCD"/>
	<stop  offset="0.52" style="stop-color:#A6A6A6"/>
	<stop  offset="0.68" style="stop-color:#757575"/>
	<stop  offset="0.85" style="stop-color:#393939"/>
	<stop  offset="1" style="stop-color:#000000"/>
</linearGradient>
<polygon class="st120" points="37.4,173.4 90.2,228.6 186.7,157.7 136.4,109.4 "/>
<polygon class="st121" points="36.4,173.4 89.2,228.6 185.7,157.7 135.4,109.4 "/>
<path class="st122" d="M94.1,146.7c-0.9-0.9-2.1-2.6-4-1.5l-4.2,2.8c-1,0.8-2.3,1.9,1,4.9l37.1,39.6c0.9,0.9,2.4,0.9,3.3,0.1l4-3
	c1.2-0.9,1.6-2.1,0.9-3.2"/>
<path class="st122" d="M84.3,153.4c-0.9-0.9-2.1-2.6-4-1.5l-4.3,2.7c-1,0.8-2.3,1.9,1,4.9l37.1,39.5c0.9,0.9,2.4,0.9,3.3,0.1l4-3
	c1.2-0.9,1.6-2.1,0.9-3.2"/>
<path class="st123" d="M63.6,164c-0.4-0.5-0.4-1.2,0.1-1.6c0,0,0.1-0.1,0.1-0.1l6.7-4.4c0.6-0.4,1.4-0.4,2,0l39.7,41.3
	c2,2.3,0.2,3.5-0.4,3.9l-5.5,4.1c-1.1,0.9-2.8,0.7-3.7-0.4c0,0,0,0,0,0L63.6,164z"/>
<path class="st5" d="M83,158.1c-0.3,0.3-0.8,0.2-1.1-0.1l-0.4-0.4l-0.6,0.5l-0.3-0.3l1.8-1.4l0.7,0.7c0.3,0.2,0.3,0.6,0.1,0.9
	C83.1,158,83.1,158.1,83,158.1z M82.7,157.8c0.1-0.1,0.2-0.3,0.1-0.4c0,0,0,0-0.1-0.1l-0.3-0.3l-0.6,0.4l0.3,0.3
	C82.2,157.9,82.5,158,82.7,157.8C82.7,157.8,82.7,157.8,82.7,157.8L82.7,157.8z"/>
<path class="st5" d="M84.4,159.4l-1.3,1l-0.3-0.3l0.2-0.2c-0.2,0-0.5-0.1-0.6-0.2c-0.2-0.3-0.2-0.7,0.1-0.9c0,0,0.1,0,0.1-0.1
	c0.3-0.3,0.8-0.3,1.2,0c0.2,0.1,0.2,0.4,0.2,0.6l0.2-0.2L84.4,159.4z M83.5,159.6c0.2-0.1,0.2-0.3,0.1-0.5c0,0,0,0-0.1-0.1
	c-0.2-0.2-0.5-0.2-0.7,0c-0.2,0.1-0.2,0.3-0.1,0.5c0,0,0,0,0.1,0.1C83,159.7,83.3,159.7,83.5,159.6L83.5,159.6z"/>
<path class="st5" d="M85.1,160.8l-0.3-0.3c0.1-0.1,0.1-0.2,0-0.3c0,0,0,0,0,0c-0.1-0.1-0.2-0.1-0.3-0.1c-0.1,0.1,0,0.2,0.1,0.4
	s0.3,0.5,0,0.7c-0.3,0.2-0.7,0.1-0.9-0.2c-0.3-0.3-0.3-0.6-0.1-0.8l0.3,0.3c-0.1,0.1-0.1,0.2,0,0.3c0.1,0.1,0.2,0.1,0.3,0.1
	c0.1-0.1,0-0.2-0.1-0.4s-0.2-0.5,0-0.6c0.3-0.2,0.6-0.1,0.8,0.2C85.3,160.3,85.4,160.7,85.1,160.8z"/>
<path class="st5" d="M86.2,162l-0.3-0.3c0.1-0.1,0.1-0.2,0-0.3c0,0,0,0,0,0c-0.1-0.1-0.2-0.1-0.3-0.1c-0.1,0.1,0,0.2,0.1,0.4
	s0.3,0.5,0,0.7c-0.3,0.2-0.7,0.1-0.9-0.2c-0.3-0.3-0.3-0.6-0.1-0.8l0.3,0.3c-0.1,0.1-0.1,0.2,0,0.3c0.1,0.1,0.2,0.1,0.3,0.1
	c0.1-0.1,0-0.2-0.1-0.4s-0.2-0.5,0-0.6c0.3-0.2,0.6-0.1,0.8,0.2C86.5,161.5,86.5,161.8,86.2,162z"/>
<polygon class="st5" points="88.6,163.7 87,164.4 86.6,164 87.2,163.2 86.2,163.6 85.8,163.2 86.8,161.9 87.1,162.2 86.3,163.2 
	87.5,162.7 87.8,162.9 87,164 88.3,163.4 "/>
<path class="st5" d="M89.2,165.5c-0.4,0.3-0.9,0.3-1.2-0.1c-0.3-0.3-0.3-0.7-0.1-1c0,0,0.1-0.1,0.1-0.1c0.4-0.3,0.9-0.3,1.2,0.1
	c0.3,0.3,0.3,0.7,0.1,1C89.3,165.5,89.2,165.5,89.2,165.5z M88.3,164.6c-0.2,0.1-0.2,0.3-0.1,0.5c0,0,0,0,0.1,0.1
	c0.2,0.2,0.5,0.2,0.7,0c0.2-0.1,0.2-0.3,0.1-0.5c0,0,0,0-0.1-0.1C88.8,164.4,88.5,164.4,88.3,164.6z"/>
<path class="st5" d="M90.7,165.9l-0.3,0.3c-0.2-0.2-0.5-0.3-0.8-0.1l-0.6,0.5l-0.3-0.3l1.3-1l0.3,0.3l-0.3,0.2
	C90.3,165.7,90.6,165.7,90.7,165.9z"/>
<path class="st5" d="M92.5,166.9l-1.8,1.4l-0.3-0.3l0.2-0.2c-0.2,0-0.5-0.1-0.6-0.2c-0.2-0.3-0.2-0.7,0.1-0.9c0,0,0.1,0,0.1-0.1
	c0.3-0.3,0.8-0.3,1.2,0c0.2,0.1,0.2,0.4,0.2,0.6l0.7-0.6L92.5,166.9z M91,167.5c0.2-0.1,0.2-0.3,0.1-0.5c0,0,0,0-0.1-0.1
	c-0.2-0.2-0.5-0.2-0.7,0c-0.2,0.1-0.2,0.3-0.1,0.5c0,0,0,0,0.1,0.1C90.6,167.6,90.8,167.6,91,167.5L91,167.5z"/>
<polygon class="st5" points="91.9,149.6 91.5,149.9 92.2,150.7 91.9,150.9 91.2,150.2 90.7,150.5 91.5,151.3 91.2,151.5 90.1,150.4 
	91.9,149 93,150.2 92.7,150.4 "/>
<path class="st5" d="M93.9,152.8l-0.8,0.6l-0.3-0.3l0.8-0.6c0.1-0.1,0.1-0.2,0.1-0.3c0,0,0,0-0.1-0.1c-0.1-0.1-0.3-0.1-0.4,0
	l-0.8,0.6l-0.3-0.3l0.8-0.6c0.1-0.1,0.1-0.2,0-0.3c0,0,0,0,0,0c-0.1-0.1-0.3-0.1-0.4,0l-0.8,0.6l-0.3-0.3l1.3-1l0.3,0.3l-0.2,0.2
	c0.2-0.1,0.4,0,0.6,0.2c0.1,0.1,0.2,0.4,0.1,0.5c0.2-0.1,0.4,0,0.6,0.2C94.1,152.3,94.1,152.6,93.9,152.8
	C93.9,152.8,93.9,152.8,93.9,152.8z"/>
<path class="st5" d="M95.7,153.9l-1.3,1l-0.3-0.3l0.2-0.2c-0.2,0-0.5-0.1-0.6-0.2c-0.2-0.3-0.2-0.7,0.1-0.9c0,0,0.1,0,0.1-0.1
	c0.3-0.3,0.8-0.3,1.2,0c0.2,0.1,0.2,0.4,0.2,0.6l0.2-0.2L95.7,153.9z M94.8,154.1c0.2-0.1,0.2-0.3,0.1-0.5c0,0,0,0-0.1-0.1
	c-0.2-0.2-0.5-0.2-0.7,0c-0.2,0.1-0.2,0.3-0.1,0.5c0,0,0,0,0.1,0.1C94.3,154.3,94.6,154.3,94.8,154.1z"/>
<path class="st5" d="M96.2,154.2c-0.1-0.1-0.1-0.2,0-0.3c0,0,0,0,0,0c0.1-0.1,0.3-0.1,0.4,0c0.1,0.1,0.1,0.2,0,0.3c0,0,0,0,0,0
	C96.5,154.3,96.4,154.3,96.2,154.2z M96.2,154.5l-1.3,1l-0.3-0.3l1.3-1L96.2,154.5z"/>
<polygon class="st5" points="97.3,154.7 95.5,156.1 95.2,155.8 97,154.4 "/>
<path class="st5" d="M111.7,148.2c0.2-0.1,0.4-0.1,0.5,0.1c0.1,0.1,0.1,0.3,0,0.4c0,0,0,0,0,0l-2.6,2c-0.2,0.1-0.4,0.1-0.5-0.1
	c-0.1-0.1-0.1-0.3,0-0.5c0,0,0,0,0,0l0,0c-0.3,0-0.6-0.1-0.8-0.3c-0.4-0.4-0.4-1.1,0-1.5c0.1-0.1,0.1-0.1,0.2-0.2
	c0.5-0.5,1.4-0.4,1.9,0.1c0.2,0.2,0.3,0.5,0.2,0.8L111.7,148.2z M108.9,149.6c0.3,0.2,0.6,0.3,0.9,0.1c0.3-0.2,0.3-0.5,0.1-0.8
	c0,0,0,0,0-0.1c-0.3-0.2-0.7-0.2-0.9,0C108.8,149,108.7,149.3,108.9,149.6C108.9,149.5,108.9,149.6,108.9,149.6z"/>
<path class="st5" d="M113.2,149.3c0.2,0.1,0.2,0.4,0.1,0.5c0,0,0,0-0.1,0.1c-0.2,0.1-0.5,0.1-0.7-0.1c-0.2-0.1-0.2-0.4,0-0.6
	c0,0,0,0,0,0C112.7,149.1,113,149.1,113.2,149.3z M110.5,151.8c-0.2,0.1-0.4,0.1-0.5-0.1c-0.1-0.1-0.1-0.3,0-0.5c0,0,0,0,0,0
	l1.5-1.2c0.2-0.1,0.4-0.1,0.5,0.1c0.1,0.1,0.1,0.3,0,0.4c0,0,0,0,0,0L110.5,151.8z"/>
<path class="st5" d="M110.6,152.7c0.2,0,0.3,0.2,0.3,0.3c0,0.2,0,0.4,0.2,0.6c0.4,0.4,0.8,0.3,1.2,0h0.1c-0.3,0-0.6-0.1-0.9-0.3
	c-0.4-0.4-0.4-1.1,0-1.5c0.1-0.1,0.1-0.1,0.2-0.2c0.5-0.5,1.4-0.4,1.9,0.1c0.2,0.2,0.3,0.5,0.2,0.8l0,0c0.2-0.1,0.4-0.1,0.5,0.1
	c0.1,0.1,0.1,0.3,0,0.4c0,0,0,0,0,0l-1.5,1.1c-0.6,0.6-1.5,0.7-2.2,0.1c0,0-0.1-0.1-0.1-0.1c-0.3-0.3-0.4-0.7-0.3-1.1
	C110.2,152.9,110.3,152.7,110.6,152.7C110.5,152.7,110.6,152.7,110.6,152.7z M112.1,152.9c0.3,0.2,0.6,0.3,0.9,0.1
	c0.3-0.2,0.3-0.5,0.1-0.8c0,0,0,0,0-0.1c-0.3-0.2-0.7-0.2-0.9,0C111.9,152.3,111.9,152.6,112.1,152.9
	C112,152.9,112,152.9,112.1,152.9z"/>
<path class="st5" d="M115.2,154c0.3-0.1,0.6,0,0.8,0.3c0.4,0.4,0.3,0.9-0.2,1.3l-1,0.7c-0.2,0.1-0.4,0.1-0.5-0.1
	c-0.1-0.1-0.1-0.3,0-0.5c0,0,0,0,0,0l0.8-0.6c0.3-0.2,0.3-0.4,0.1-0.6c-0.2-0.2-0.5-0.2-0.7,0c0,0,0,0,0,0l-0.8,0.6
	c-0.2,0.1-0.4,0.1-0.5-0.1c-0.1-0.1-0.1-0.3,0-0.5c0,0,0,0,0,0l1.5-1.2c0.2-0.1,0.4-0.1,0.5,0.1C115.3,153.6,115.3,153.8,115.2,154
	C115.2,154,115.2,154,115.2,154L115.2,154z"/>
<path class="st5" d="M118.3,154.8c0.2,0.1,0.2,0.4,0.1,0.5c0,0,0,0-0.1,0.1c-0.2,0.1-0.5,0.1-0.7-0.1c-0.2-0.1-0.2-0.4,0-0.6
	c0,0,0,0,0,0C117.9,154.6,118.1,154.6,118.3,154.8z M115.7,157.3c-0.2,0.1-0.4,0.1-0.5-0.1c-0.1-0.1-0.1-0.3,0-0.5c0,0,0,0,0,0
	l1.5-1.2c0.2-0.1,0.4-0.1,0.5,0.1c0.1,0.1,0.1,0.3,0,0.4c0,0,0,0,0,0L115.7,157.3z"/>
<path class="st5" d="M118.1,156.6l0.5-0.4c0.2-0.1,0.4-0.1,0.5,0.1c0.1,0.1,0.1,0.3,0,0.4c0,0,0,0,0,0l-0.5,0.4l0.2,0.2
	c0.1,0.1,0.1,0.3,0,0.4c0,0,0,0,0,0c-0.1,0.1-0.3,0.1-0.4,0l-0.2-0.2l-1.3,1c-0.2,0.1-0.4,0.1-0.5-0.1c-0.1-0.1-0.1-0.3,0-0.5
	c0,0,0,0,0,0l1.3-1l-0.1-0.1c-0.1-0.1-0.1-0.3,0.1-0.4c0,0,0,0,0,0c0.1-0.1,0.3-0.1,0.4,0L118.1,156.6z"/>
<path class="st5" d="M116.9,160.5c-0.2,0.1-0.4,0-0.5-0.2c-0.1-0.2,0-0.3,0.2-0.4c0,0,0,0,0.1,0l1.1-0.3l0.9-1.7
	c0.1-0.2,0.3-0.2,0.5-0.1c0.2,0.1,0.2,0.3,0.2,0.4c0,0,0,0,0,0l-0.7,1.1l1.3-0.4c0.2-0.1,0.4,0,0.5,0.2c0.1,0.2,0,0.3-0.2,0.4
	c0,0,0,0-0.1,0L116.9,160.5z"/>
<path class="st5" d="M122.6,164.7c-0.2,0.1-0.4,0.1-0.5-0.1c-0.1-0.1-0.1-0.3,0-0.5c0,0,0,0,0,0l0.8-0.6c0.3-0.2,0.3-0.4,0.1-0.6
	c-0.2-0.2-0.5-0.2-0.7,0c0,0,0,0,0,0l-0.8,0.6c-0.2,0.1-0.4,0.1-0.5-0.1c-0.1-0.1-0.1-0.3,0-0.5c0,0,0,0,0,0l0.8-0.6
	c0.2-0.1,0.3-0.3,0.2-0.5c0,0,0-0.1-0.1-0.1c-0.2-0.2-0.5-0.2-0.7,0c0,0,0,0,0,0l-0.8,0.6c-0.2,0.1-0.4,0.1-0.5-0.1
	c-0.1-0.1-0.1-0.3,0-0.5c0,0,0,0,0,0l1.5-1.2c0.2-0.1,0.4-0.1,0.5,0.1c0.1,0.1,0.1,0.3,0,0.4c0,0,0,0,0,0l0,0c0.3-0.1,0.6,0,0.8,0.2
	c0.3,0.2,0.3,0.6,0.2,0.9c0.3-0.1,0.7,0,0.9,0.2c0.4,0.4,0.3,0.9-0.2,1.4L122.6,164.7z"/>
<path class="st5" d="M124.3,166.7c-0.3-0.1-0.6-0.3-0.8-0.5c-0.4-0.4-0.5-1.2,0-1.6c0.1-0.1,0.1-0.1,0.2-0.2
	c0.6-0.5,1.4-0.4,1.9,0.2c0.4,0.4,0.4,1.1,0,1.6c-0.1,0.1-0.1,0.1-0.2,0.2c-0.1,0.1-0.2,0.1-0.3,0l-1.1-1.2
	c-0.2,0.2-0.1,0.5,0.1,0.7c0.1,0.1,0.2,0.2,0.4,0.2c0.2,0,0.3,0.2,0.3,0.4C124.7,166.6,124.5,166.7,124.3,166.7
	C124.3,166.7,124.3,166.7,124.3,166.7z M125.1,165.7c0.2-0.2,0.2-0.4,0.1-0.6c0,0,0,0-0.1-0.1c-0.2-0.2-0.5-0.3-0.7-0.1L125.1,165.7
	z"/>
<path class="st5" d="M127.8,167.4c0.2-0.1,0.4-0.1,0.5,0.1c0.1,0.1,0.1,0.3,0,0.4c0,0,0,0,0,0l-1.5,1.2c-0.2,0.1-0.4,0.1-0.5-0.1
	c-0.1-0.1-0.1-0.3,0-0.5c0,0,0,0,0,0l0,0c-0.3,0-0.6-0.1-0.8-0.3c-0.4-0.4-0.4-1.1,0-1.5c0.1-0.1,0.1-0.1,0.2-0.2
	c0.5-0.5,1.4-0.4,1.9,0.1C127.7,166.9,127.8,167.2,127.8,167.4L127.8,167.4z M126.1,167.9c0.3,0.2,0.6,0.3,0.9,0.1
	c0.3-0.2,0.3-0.5,0.1-0.8c0,0,0,0,0-0.1c-0.3-0.2-0.7-0.2-0.9,0C125.9,167.3,125.9,167.7,126.1,167.9
	C126.1,167.9,126.1,167.9,126.1,167.9L126.1,167.9z"/>
<path class="st5" d="M127.7,170.1c-0.2,0.1-0.4,0.1-0.5-0.1c-0.1-0.1-0.1-0.3,0-0.5c0,0,0,0,0,0l2.6-2c0.2-0.1,0.4-0.1,0.5,0.1
	c0.1,0.1,0.1,0.3,0,0.4c0,0,0,0,0,0L127.7,170.1z"/>
<path class="st5" d="M128.6,170.3c0.1,0.1,0.2,0.2,0.2,0.4c0,0.2,0,0.4,0.1,0.5c0.1,0.1,0.2,0.2,0.3,0.1s0.1-0.1,0-0.3l-0.1-0.3
	c-0.3-0.7,0-0.9,0.2-1.1c0.4-0.2,0.9-0.1,1.2,0.3c0.3,0.2,0.4,0.6,0.3,0.9c0,0.1-0.2,0.2-0.4,0.2c-0.2-0.1-0.3-0.2-0.3-0.4
	c0-0.1,0-0.2-0.1-0.3c-0.1-0.1-0.2-0.2-0.3-0.1s-0.1,0.1,0,0.3l0.1,0.4c0.2,0.3,0.2,0.8-0.1,1c-0.5,0.3-1,0.1-1.4-0.3
	c-0.3-0.3-0.4-0.7-0.2-1.1C128.3,170.3,128.4,170.2,128.6,170.3z"/>
<polygon class="st5" points="85.8,179.6 85.4,179.9 84.2,178.7 86.3,177.1 86.6,177.4 84.9,178.8 "/>
<path class="st5" d="M87.6,180.8c-0.4,0.3-1.1,0.3-1.4-0.1c-0.3-0.3-0.4-0.8-0.1-1.2c0,0,0.1-0.1,0.1-0.1c0.4-0.3,1.1-0.3,1.5,0.1
	c0.3,0.3,0.4,0.8,0.1,1.2C87.7,180.8,87.7,180.8,87.6,180.8z M86.6,179.8c-0.2,0.1-0.3,0.4-0.1,0.6c0,0,0,0.1,0.1,0.1
	c0.2,0.2,0.6,0.2,0.8,0c0.2-0.1,0.3-0.4,0.1-0.6c0,0,0-0.1-0.1-0.1C87.2,179.6,86.8,179.6,86.6,179.8
	C86.6,179.8,86.6,179.8,86.6,179.8L86.6,179.8z"/>
<path class="st5" d="M89.9,181.8l-1.4,1.1c-0.4,0.3-1,0.3-1.4-0.1c-0.3-0.3-0.4-0.8-0.1-1.1l0.3,0.3c-0.1,0.2-0.1,0.4,0.1,0.5
	c0.2,0.2,0.5,0.2,0.7,0l0.2-0.2c-0.3,0-0.5-0.1-0.7-0.3c-0.3-0.3-0.3-0.8,0-1.1c0,0,0.1-0.1,0.1-0.1c0.4-0.3,0.9-0.3,1.3,0
	c0.2,0.2,0.3,0.4,0.2,0.7l0.2-0.2L89.9,181.8z M88.9,182c0.2-0.1,0.3-0.4,0.1-0.6c0,0,0-0.1-0.1-0.1c-0.2-0.2-0.6-0.2-0.8,0
	c-0.2,0.1-0.3,0.4-0.1,0.6c0,0,0,0.1,0.1,0.1C88.3,182.2,88.7,182.2,88.9,182L88.9,182z"/>
<polygon class="st5" points="89.9,184.5 89.5,184.1 91.6,182.5 91.9,182.8 "/>
<path class="st5" d="M92.3,185.3l-0.9,0.7l-0.3-0.4l0.9-0.7c0.2-0.1,0.2-0.3,0.1-0.5c0,0,0,0,0-0.1c-0.2-0.2-0.4-0.2-0.6,0l-0.9,0.7
	l-0.3-0.4l1.5-1.2L92,184l-0.2,0.2c0.2,0,0.5,0,0.7,0.2c0.2,0.2,0.2,0.6,0,0.8C92.4,185.3,92.4,185.3,92.3,185.3z"/>
<path class="st3" d="M161,205c-0.1-0.4-8.3-15.7-8.3-15.7L130,204.7c-1.8,1-6.2,5.4-8.1,4.2l-1.9-0.5c-1.4-0.4-1.6-4-1.5-5.4
	l-0.5-11.1c0-2.7-0.8-5.3-2.4-7.4l-14-17.7c-3.4-4.3-8.5-4.7-12.8-1.3s-3.4,13.1,0,17.4l0,0l5.7,12c-1.3,3.2-5,19.6-5.7,22.1
	c-0.3,1-16.4,16.8-19,18.4c-1.6,1-7.4-5-13.2-11.1c-5.4-5.7-11-11.6-11-11.5l-1.5,6.6c-0.3,1.3-1.2,2.5-2.4,3.1
	c-1.9,1-4.7,2.5-6,2.5s-3.5,3.1-5.1,6.2l-0.8,0.2l-34.2,3.8L-6,308.2l80.9-27.6l0,0c11.2,0,23.9-0.8,33.9-4.7
	c7-2.9,13.6-6.6,19.7-11c4.7-2.7,18.1-11.5,26.4-20.9C162.8,235,165.1,220.1,161,205z"/>
<path class="st0" d="M99.6,168.6c-1.7-1.9-3.8-3.1-6.8-1.9s-5.4,5-3.6,8.1c0.9,1.5,1.4,3.6,3.1,3.5c0.8-0.1,2.3-1.4,3-1.9l6.4-4
	c0.3-0.2,0.4-0.6,0.2-0.9c0,0,0,0,0,0C101.1,170.4,100.4,169.5,99.6,168.6z"/>
<path class="st6" d="M125.9,146.3c0,0,1.2-0.4,1-2.4C126.9,143.9,124.6,145,125.9,146.3z"/>
<path class="st6" d="M126.3,146.8c1.2,1.7,3.6-0.6,3.6-0.6C126.9,145.5,126.3,146.6,126.3,146.8L126.3,146.8z"/>
<g>
	<defs>
		<path id="SVGID_9_" d="M123.9,151.9c0-0.1,0.1-0.1,0.2-0.1c0,0,0,0,0,0l0.6,0.2c0.2,0.1,0.2,0.1,0.2,0.2c0.4-0.6,0.9-1.1,1.6-1.4
			l4.2-2.8c0.2-0.1,0.2-0.4,0.1-0.6c0,0,0,0,0-0.1c-0.2-0.3-0.4-0.2-0.6-0.1s-4.8,2.8-4.8,2.8s-2.7,1.9-4.2,0
			c-0.1-0.2-0.2-0.4-0.3-0.6c0-0.2,0-0.4,0-0.6c0.1-0.6,0.5-1.1,1.1-1.4c0.4-0.2,0.8-0.4,1.3-0.5c0.1,0,0.3,0,0.4,0
			c0.5,0,0.9,0.1,1.3,0.4c0.2,0.2,0.3,0.3,0.5,0.5c0.1,0.2,0.4,0.3,0.6,0.2c0.2,0,0.3-0.2,0.3-0.3c0-0.3-0.5-0.8-0.6-0.9
			c-1.1-1-2.8-1.1-4.1-0.4c-0.2,0.1-3.8,2-1.1,5C121.4,152.3,122.7,152.4,123.9,151.9L123.9,151.9z"/>
	</defs>
	<clipPath id="SVGID_10_">
		<use xlink:href="#SVGID_9_"  style="overflow:visible;"/>
	</clipPath>
	<g class="st124">
		<polygon class="st8" points="123.3,153.8 129.8,146.6 131,147.6 124.3,154.7 		"/>
		<polygon class="st8" points="123.1,153.6 129.6,146.5 129.8,146.6 123.3,153.8 		"/>
		<polygon class="st9" points="123,153.5 129.5,146.4 129.6,146.5 123.1,153.6 		"/>
		<polygon class="st10" points="122.8,153.4 129.4,146.3 129.5,146.4 123,153.5 		"/>
		<polygon class="st11" points="122.7,153.3 129.2,146.1 129.4,146.3 122.8,153.4 		"/>
		<polygon class="st12" points="122.6,153.1 129.1,146 129.2,146.1 122.7,153.3 		"/>
		<polygon class="st13" points="122.4,153 128.9,145.9 129.1,146 122.6,153.1 		"/>
		<polygon class="st14" points="122.3,152.9 128.8,145.8 128.9,145.9 122.4,153 		"/>
		<polygon class="st15" points="122.1,152.8 128.6,145.6 128.8,145.8 122.3,152.9 		"/>
		<polygon class="st16" points="122,152.6 128.5,145.5 128.6,145.6 122.1,152.8 		"/>
		<polygon class="st17" points="121.8,152.5 128.3,145.4 128.5,145.5 122,152.6 		"/>
		<polygon class="st18" points="121.7,152.4 128.2,145.3 128.3,145.4 121.8,152.5 		"/>
		<polygon class="st19" points="121.5,152.3 128,145.1 128.2,145.3 121.7,152.4 		"/>
		<polygon class="st20" points="121.4,152.1 127.9,145 128,145.1 121.5,152.3 		"/>
		<polygon class="st21" points="121.2,152 127.8,144.9 127.9,145 121.4,152.1 		"/>
		<polygon class="st22" points="121.1,151.9 127.6,144.8 127.8,144.9 121.2,152 		"/>
		<polygon class="st23" points="120.9,151.8 127.5,144.6 127.6,144.8 121.1,151.9 		"/>
		<polygon class="st24" points="120.8,151.6 127.3,144.5 127.5,144.6 120.9,151.8 		"/>
		<polygon class="st25" points="120.7,151.5 127.2,144.4 127.3,144.5 120.8,151.6 		"/>
		<polygon class="st26" points="120.5,151.4 127,144.3 127.2,144.4 120.7,151.5 		"/>
		<polygon class="st27" points="120.4,151.2 126.9,144.1 127,144.3 120.5,151.4 		"/>
		<polygon class="st28" points="120.2,151.1 126.7,144 126.9,144.1 120.4,151.2 		"/>
		<polygon class="st29" points="120.1,151 126.6,143.9 126.7,144 120.2,151.1 		"/>
		<polygon class="st30" points="119.9,150.9 126.4,143.8 126.6,143.9 120.1,151 		"/>
		<polygon class="st31" points="119.8,150.8 126.3,143.6 126.4,143.8 119.9,150.9 		"/>
		<polygon class="st32" points="119.6,150.6 126.1,143.5 126.3,143.6 119.8,150.8 		"/>
		<polygon class="st33" points="119.5,150.5 126,143.4 126.1,143.5 119.6,150.6 		"/>
		<polygon class="st34" points="119.3,150.4 125.8,143.3 126,143.4 119.5,150.5 		"/>
		<polygon class="st35" points="119.2,150.2 125.7,143.1 125.8,143.3 119.3,150.4 		"/>
		<polygon class="st36" points="119,150.1 125.6,143 125.7,143.1 119.2,150.2 		"/>
		<polygon class="st37" points="118.9,150 125.4,142.9 125.6,143 119,150.1 		"/>
		<polygon class="st38" points="118.8,149.9 125.3,142.8 125.4,142.9 118.9,150 		"/>
		<polygon class="st39" points="118.6,149.8 125.1,142.6 125.3,142.8 118.8,149.9 		"/>
		<polygon class="st40" points="118.5,149.6 125,142.5 125.1,142.6 118.6,149.8 		"/>
		<polygon class="st41" points="118.3,149.5 124.8,142.4 125,142.5 118.5,149.6 		"/>
		<polygon class="st42" points="118.2,149.4 124.7,142.3 124.8,142.4 118.3,149.5 		"/>
		<polygon class="st43" points="118,149.2 124.5,142.1 124.7,142.3 118.2,149.4 		"/>
		<polygon class="st44" points="117.9,149.1 124.4,142 124.5,142.1 118,149.2 		"/>
		<polygon class="st45" points="117.7,149 124.2,141.9 124.4,142 117.9,149.1 		"/>
		<polygon class="st46" points="117.6,148.9 124.1,141.8 124.2,141.9 117.7,149 		"/>
		<polygon class="st47" points="117.4,148.8 119.7,146 123.8,141.5 124.1,141.8 117.6,148.9 		"/>
		<polygon class="st48" points="119.7,146 117.4,148.8 117.2,148.5 		"/>
	</g>
</g>
<g>
	<defs>
		<path id="SVGID_11_" d="M124.8,152.7c0-0.1,0-0.1,0-0.2C124.8,152.6,124.8,152.7,124.8,152.7z"/>
	</defs>
	<clipPath id="SVGID_12_">
		<use xlink:href="#SVGID_11_"  style="overflow:visible;"/>
	</clipPath>
	<g class="st125">
		<path class="st50" d="M124.7,152.4l-0.1,0.1L124.7,152.4z"/>
		<polygon class="st50" points="124.8,152.5 124.7,152.6 124.7,152.6 124.8,152.5 		"/>
		<polygon class="st51" points="124.8,152.5 124.7,152.6 124.7,152.6 124.8,152.5 		"/>
		<polygon class="st52" points="124.8,152.5 124.7,152.6 124.7,152.6 124.8,152.5 		"/>
		<polygon class="st53" points="124.8,152.5 124.7,152.6 124.7,152.6 124.8,152.5 		"/>
		<polygon class="st54" points="124.8,152.5 124.7,152.6 124.7,152.6 124.8,152.5 		"/>
		<polygon class="st55" points="124.8,152.5 124.7,152.6 124.7,152.6 124.8,152.5 		"/>
		<polygon class="st56" points="124.8,152.5 124.7,152.6 124.7,152.6 124.8,152.5 		"/>
		<polygon class="st57" points="124.8,152.5 124.7,152.6 124.7,152.6 124.8,152.5 		"/>
		<polygon class="st58" points="124.8,152.5 124.7,152.6 124.7,152.6 124.8,152.5 		"/>
		<polygon class="st59" points="124.8,152.5 124.7,152.6 124.7,152.6 124.8,152.5 		"/>
		<polygon class="st60" points="124.8,152.5 124.7,152.6 124.7,152.6 124.8,152.5 		"/>
		<polygon class="st61" points="124.8,152.5 124.7,152.6 124.7,152.6 124.8,152.5 		"/>
		<polygon class="st62" points="124.8,152.5 124.7,152.6 124.7,152.6 124.8,152.5 		"/>
		<polygon class="st63" points="124.8,152.5 124.7,152.6 124.7,152.6 124.8,152.5 		"/>
		<polygon class="st64" points="124.8,152.6 124.7,152.6 124.7,152.6 124.8,152.5 		"/>
		<polygon class="st65" points="124.8,152.6 124.7,152.6 124.7,152.6 124.8,152.6 		"/>
		<polygon class="st66" points="124.8,152.6 124.7,152.6 124.7,152.6 124.8,152.6 		"/>
		<polygon class="st67" points="124.8,152.6 124.7,152.6 124.7,152.6 124.8,152.6 		"/>
		<polygon class="st68" points="124.8,152.6 124.7,152.6 124.7,152.6 124.8,152.6 		"/>
		<polygon class="st69" points="124.8,152.6 124.7,152.7 124.7,152.6 124.8,152.6 		"/>
		<polygon class="st70" points="124.8,152.6 124.7,152.7 124.7,152.7 124.8,152.6 		"/>
		<polygon class="st71" points="124.8,152.6 124.7,152.7 124.7,152.7 124.8,152.6 		"/>
		<polygon class="st72" points="124.8,152.6 124.7,152.7 124.7,152.7 124.8,152.6 		"/>
		<polygon class="st73" points="124.8,152.6 124.7,152.7 124.7,152.7 124.8,152.6 		"/>
		<polygon class="st74" points="124.8,152.6 124.7,152.7 124.7,152.7 124.8,152.6 		"/>
		<polygon class="st75" points="124.8,152.6 124.7,152.7 124.7,152.7 124.8,152.6 		"/>
		<polygon class="st76" points="124.8,152.6 124.7,152.7 124.7,152.7 124.8,152.6 		"/>
		<polygon class="st77" points="124.8,152.6 124.7,152.7 124.7,152.7 124.8,152.6 		"/>
		<polygon class="st78" points="124.8,152.6 124.7,152.7 124.7,152.7 124.8,152.6 		"/>
		<polygon class="st79" points="124.8,152.6 124.7,152.7 124.7,152.7 124.8,152.6 		"/>
		<polygon class="st80" points="124.8,152.6 124.7,152.7 124.7,152.7 124.8,152.6 		"/>
		<polygon class="st81" points="124.8,152.6 124.7,152.7 124.7,152.7 124.8,152.6 		"/>
		<polygon class="st82" points="124.8,152.6 124.8,152.7 124.7,152.7 124.8,152.6 		"/>
		<polygon class="st83" points="124.8,152.6 124.8,152.7 124.8,152.7 124.8,152.6 		"/>
		<polygon class="st84" points="124.8,152.6 124.8,152.7 124.8,152.7 124.8,152.6 		"/>
		<polygon class="st85" points="124.8,152.6 124.8,152.7 124.8,152.7 124.8,152.6 		"/>
		<polygon class="st86" points="124.8,152.6 124.8,152.7 124.8,152.7 124.8,152.6 		"/>
		<polygon class="st87" points="124.8,152.6 124.8,152.7 124.8,152.7 124.8,152.6 		"/>
		<polygon class="st88" points="124.8,152.6 124.8,152.7 124.8,152.7 124.8,152.6 		"/>
		<polygon class="st89" points="124.8,152.6 124.8,152.7 124.8,152.7 124.8,152.6 		"/>
		<polygon class="st90" points="124.9,152.6 124.8,152.7 124.8,152.7 124.8,152.6 		"/>
		<polygon class="st91" points="124.9,152.6 124.8,152.7 124.8,152.7 124.9,152.6 		"/>
		<polygon class="st92" points="124.9,152.6 124.8,152.7 124.8,152.7 124.9,152.6 		"/>
		<polygon class="st93" points="124.9,152.6 124.8,152.7 124.8,152.7 124.9,152.6 		"/>
		<polygon class="st94" points="124.9,152.6 124.8,152.7 124.8,152.7 124.9,152.6 		"/>
		<polygon class="st95" points="124.9,152.6 124.8,152.7 124.8,152.7 124.9,152.6 		"/>
		<polygon class="st96" points="124.9,152.6 124.8,152.7 124.8,152.7 124.9,152.6 		"/>
		<polygon class="st97" points="124.9,152.6 124.8,152.7 124.8,152.7 124.9,152.6 		"/>
		<polygon class="st98" points="124.9,152.6 124.8,152.7 124.8,152.7 124.9,152.6 		"/>
		<polygon class="st99" points="124.9,152.6 124.8,152.7 124.8,152.7 124.9,152.6 		"/>
		<polygon class="st100" points="124.9,152.6 124.8,152.7 124.8,152.7 124.9,152.6 		"/>
		<polygon class="st101" points="124.9,152.6 124.8,152.7 124.8,152.7 124.9,152.6 		"/>
		<polygon class="st102" points="124.9,152.6 124.8,152.7 124.8,152.7 124.9,152.6 		"/>
		<polygon class="st103" points="124.9,152.6 124.8,152.7 124.8,152.7 124.9,152.6 		"/>
		<polygon class="st104" points="124.9,152.6 124.8,152.7 124.8,152.7 124.9,152.6 		"/>
		<polygon class="st105" points="124.9,152.6 124.8,152.7 124.8,152.7 124.9,152.6 		"/>
		<polygon class="st106" points="124.9,152.6 124.8,152.7 124.8,152.7 124.9,152.6 		"/>
		<polygon class="st107" points="124.9,152.6 124.8,152.7 124.8,152.7 124.9,152.6 		"/>
		<polygon class="st108" points="124.9,152.6 124.8,152.7 124.8,152.7 124.9,152.6 		"/>
		<polygon class="st109" points="124.9,152.6 124.8,152.7 124.8,152.7 124.9,152.6 		"/>
		<polygon class="st110" points="124.9,152.6 124.8,152.7 124.8,152.7 124.9,152.6 		"/>
		<polygon class="st111" points="124.9,152.6 124.8,152.7 124.8,152.7 124.9,152.6 		"/>
		<polygon class="st112" points="124.9,152.6 124.8,152.7 124.8,152.7 124.9,152.6 		"/>
		<polygon class="st113" points="124.9,152.6 124.8,152.7 124.8,152.7 124.9,152.6 		"/>
		<path class="st113" d="M124.6,152.6l0.1-0.1L124.6,152.6z"/>
	</g>
</g>
<g>
	<defs>
		<path id="SVGID_13_" d="M132.5,160.1l-0.4-0.1c-0.4-0.1-0.7-0.4-0.9-0.8c-0.2-0.5-0.1-1.2,0.3-1.6c0.3-0.5,0.8-0.8,1.2-1.3
			c0.5-0.4,0.7-1.1,0.6-1.8c-0.2-0.6-0.8-1.1-1.5-1.1c-0.1,0-0.2,0-0.2-0.1c0.2-0.9-0.3-1.8-1.2-2.1c0,0,0-0.1,0.1-0.2
			c0,0,0-0.1,0-0.1c-0.1-0.2-0.2-0.3-0.3-0.4c-0.1,0-0.1,0-0.2,0c-0.8,0.4-1.8,1.2-2.3,1.5c-0.5,0.3-1,0.6-1.6,0.9
			c-0.3,0.2-0.6,0.2-0.9,0.1c-0.3-0.1-0.4-0.4-0.4-0.7c0-0.1,0.1-0.2,0-0.3c0,0-0.1-0.1-0.2-0.1l-0.6-0.2c0,0-0.1,0-0.1,0
			c-0.1,0-0.1,0.1-0.1,0.1c-0.5,0.8-0.2,1.9,0.6,2.4c0.2,0.1,0.4,0.2,0.6,0.2c0.2,0,0.4,0,0.6-0.1c1.1-0.5,2.3-1,3.3-1.7
			c0.4-0.2,1.2-0.4,1.5,0.1c0.2,0.3,0,0.6-0.2,0.8c-0.3,0.3-0.5,0.6-0.9,0.8c-0.3,0.2-0.9,0.7-0.4,1.1c0.1,0,0.1,0.1,0.2,0.1
			c0.3,0,0.5-0.1,0.7-0.3c0.3-0.2,0.6-0.4,0.9-0.6c0.2-0.1,0.4-0.2,0.6-0.3c0.2,0,0.5,0,0.6,0.2c0.2,0.2,0.2,0.4,0.1,0.7
			c-0.1,0.2-0.2,0.4-0.4,0.6c-0.6,0.5-1.1,1-1.4,1.7c-0.3,0.7-0.3,1.5,0,2.1c0.4,0.7,1.1,1.2,1.8,1.3c0.3,0.1,0.5,0,0.7-0.2
			c0.1-0.1,0.2-0.3,0.1-0.4C132.8,160.2,132.7,160.1,132.5,160.1z"/>
	</defs>
	<clipPath id="SVGID_14_">
		<use xlink:href="#SVGID_13_"  style="overflow:visible;"/>
	</clipPath>
	<g class="st126">
		<polygon class="st8" points="127.2,147.9 122.3,153.2 122.3,153.2 127.2,147.9 		"/>
		<polygon class="st8" points="127.9,148.2 122.5,153.9 122,153.5 127.4,147.8 		"/>
		<polygon class="st9" points="128.4,148.6 123,154.3 122.5,153.9 127.9,148.2 		"/>
		<polygon class="st10" points="128.4,148.6 123,154.3 123,154.3 128.4,148.6 		"/>
		<polygon class="st11" points="128.4,148.6 123,154.3 123,154.3 128.4,148.6 		"/>
		<polygon class="st12" points="128.8,149 123.4,154.7 123,154.3 128.4,148.6 		"/>
		<polygon class="st13" points="128.8,149 123.4,154.7 123.4,154.7 128.8,149 		"/>
		<polygon class="st14" points="129.3,149.4 123.9,155.1 123.4,154.7 128.8,149 		"/>
		<polygon class="st15" points="129.3,149.4 123.9,155.1 123.9,155.1 129.3,149.4 		"/>
		<polygon class="st16" points="129.8,149.8 124.4,155.5 123.9,155.1 129.3,149.4 		"/>
		<polygon class="st17" points="129.8,149.8 124.4,155.5 124.4,155.5 129.8,149.8 		"/>
		<polygon class="st18" points="130.3,150.2 124.9,155.9 124.4,155.5 129.8,149.8 		"/>
		<polygon class="st19" points="130.3,150.2 124.9,155.9 124.9,155.9 130.3,150.2 		"/>
		<polygon class="st20" points="130.7,150.6 125.3,156.3 124.9,155.9 130.3,150.2 		"/>
		<polygon class="st21" points="130.7,150.6 125.3,156.3 125.3,156.3 130.7,150.6 		"/>
		<polygon class="st22" points="130.7,150.6 125.3,156.3 125.3,156.3 130.7,150.6 		"/>
		<polygon class="st23" points="131.2,151 125.8,156.7 125.3,156.3 130.7,150.6 		"/>
		<polygon class="st24" points="131.2,151 125.8,156.7 125.8,156.7 131.2,151 		"/>
		<polygon class="st25" points="131.7,151.4 126.3,157.1 125.8,156.7 131.2,151 		"/>
		<polygon class="st26" points="132.2,151.9 126.8,157.5 126.3,157.1 131.7,151.4 		"/>
		<polygon class="st27" points="132.2,151.9 126.8,157.5 126.8,157.5 132.2,151.9 		"/>
		<polygon class="st28" points="132.6,152.3 127.2,157.9 126.8,157.5 132.2,151.9 		"/>
		<polygon class="st29" points="132.6,152.3 127.2,157.9 127.2,157.9 132.6,152.3 		"/>
		<polygon class="st30" points="133.1,152.7 127.7,158.4 127.2,157.9 132.6,152.3 		"/>
		<polygon class="st31" points="133.1,152.7 127.7,158.4 127.7,158.4 133.1,152.7 		"/>
		<polygon class="st32" points="133.1,152.7 127.7,158.4 127.7,158.4 133.1,152.7 		"/>
		<polygon class="st33" points="133.6,153.1 128.2,158.8 127.7,158.4 133.1,152.7 		"/>
		<polygon class="st34" points="133.6,153.1 128.2,158.8 128.2,158.8 133.6,153.1 		"/>
		<polygon class="st35" points="134.1,153.5 128.7,159.2 128.2,158.8 133.6,153.1 		"/>
		<polygon class="st36" points="134.1,153.5 128.7,159.2 128.7,159.2 134.1,153.5 		"/>
		<polygon class="st37" points="134.5,153.9 129.1,159.6 128.7,159.2 134.1,153.5 		"/>
		<polygon class="st38" points="134.5,153.9 129.1,159.6 129.1,159.6 134.5,153.9 		"/>
		<polygon class="st39" points="135,154.3 129.6,160 129.1,159.6 134.5,153.9 		"/>
		<polygon class="st40" points="135.5,154.7 130.1,160.4 129.6,160 135,154.3 		"/>
		<polygon class="st41" points="135.5,154.7 130.1,160.4 130.1,160.4 135.5,154.7 		"/>
		<polygon class="st42" points="135.5,154.7 130.1,160.4 130.1,160.4 135.5,154.7 		"/>
		<polygon class="st43" points="136,155.1 130.6,160.8 130.1,160.4 135.5,154.7 		"/>
		<polygon class="st44" points="136,155.1 130.6,160.8 130.6,160.8 136,155.1 		"/>
		<polygon class="st45" points="136.4,155.5 131,161.2 130.6,160.8 136,155.1 		"/>
		<polygon class="st46" points="136.4,155.5 131,161.2 131,161.2 136.4,155.5 		"/>
		<polygon class="st47" points="136.9,155.9 131.5,161.6 131,161.2 136.4,155.5 		"/>
		<polygon class="st48" points="136.9,155.9 131.5,161.6 131.5,161.6 136.9,155.9 		"/>
		<polygon class="st115" points="137.4,156.3 132,162 131.5,161.6 136.9,155.9 		"/>
		<polygon class="st115" points="132.2,161.8 137.2,156.5 137.2,156.5 132.2,161.8 		"/>
	</g>
</g>
</svg>
