<svg id="Layer_1" data-name="Layer 1" xmlns="http://www.w3.org/2000/svg" xmlns:xlink="http://www.w3.org/1999/xlink" viewBox="0 0 350 306.3"><defs><style>.cls-1,.cls-7{fill:#c1ad73;}.cls-2,.cls-3{fill:#ececec;}.cls-2,.cls-4,.cls-7{opacity:0.9;isolation:isolate;}.cls-11,.cls-14,.cls-19,.cls-4,.cls-6{fill:#fff;}.cls-5{fill:#ccc;}.cls-8{fill:#2b3149;}.cls-9{fill:none;}.cls-10{fill:#c73b53;}.cls-11{opacity:0.65;}.cls-12{fill:#ffb43b;}.cls-13{fill:#d0d0d0;}.cls-14,.cls-21{font-size:4px;}.cls-14{font-family:PublicaSans-Medium, Publica Sans;}.cls-15{letter-spacing:-0.01em;}.cls-16{letter-spacing:0em;}.cls-17{font-size:4.67px;}.cls-18{letter-spacing:0.01em;}.cls-19{font-size:6.67px;font-family:SofiaProSoftBold, Sofia Pro Soft;font-weight:700;}.cls-20{letter-spacing:-0.02em;}.cls-22{fill:#00b533;}.cls-23{fill:url(#linear-gradient);}.cls-24{fill:url(#linear-gradient-2);}.cls-25{fill:url(#linear-gradient-3);}</style><linearGradient id="linear-gradient" x1="103.18" y1="179.69" x2="91.45" y2="179.88" gradientTransform="matrix(1, 0.09, -0.09, 1, 17.22, -11.97)" gradientUnits="userSpaceOnUse"><stop offset="0" stop-color="#f8af42"/><stop offset="1" stop-color="#fed93c"/></linearGradient><linearGradient id="linear-gradient-2" x1="103.65" y1="184.11" x2="103.87" y2="184.11" gradientTransform="matrix(1, 0.09, -0.09, 1, 17.22, -11.97)" gradientUnits="userSpaceOnUse"><stop offset="0" stop-color="#f8ab17"/><stop offset="1" stop-color="#f9eb21"/></linearGradient><linearGradient id="linear-gradient-3" x1="101.98" y1="181.86" x2="120.54" y2="181.86" xlink:href="#linear-gradient"/></defs><title>NewDignityMealsIntroImageArtboard 1</title><polygon class="cls-1" points="169.4 185.3 350.6 186.4 351.2 306.6 -7.6 307.1 80.7 193.3 169.4 185.3"/><path class="cls-2" d="M72.7,28.4l82.7-.3a9.07,9.07,0,0,1,9,8.9l.2,54.2a9.07,9.07,0,0,1-8.9,9l-82.7.2a9.07,9.07,0,0,1-9-8.9l-.2-54.2A8.92,8.92,0,0,1,72.7,28.4Z"/><path class="cls-3" d="M68.6,102.7h91.2a4.69,4.69,0,0,1,4.7,4.7V219a4.69,4.69,0,0,1-4.7,4.7H68.6a4.69,4.69,0,0,1-4.7-4.7V107.3A4.67,4.67,0,0,1,68.6,102.7Z"/><path class="cls-1" d="M349.1,100.7c-1.9,0-3,1.5-3,3.4l-.1,28c0,1.9,1.1,3.4,3,3.4s3-1.5,3-3.4l.1-27.9C352.1,102.3,351,100.7,349.1,100.7Z"/><path class="cls-1" d="M342.6,100.5a3.46,3.46,0,0,0-3.5,3.4v3.6a3.27,3.27,0,0,0-2.4,1.5l.6-3a3.4,3.4,0,0,0-2.9-3.9,3.34,3.34,0,0,0-3.8,2.5l-4.7,22.3-3.5-19.5a3.9,3.9,0,0,0-4-3h0c-1.9,0-3.1,2.3-2.8,4.2l5,27.6a3.43,3.43,0,0,0,4,2.8,3.5,3.5,0,0,0,2.8-3h.1a3.33,3.33,0,0,0,3.5-1.4l-.6,3a3.45,3.45,0,0,0,2.6,4.1,3.61,3.61,0,0,0,4.2-2.6l2-8.6v1.6a3.5,3.5,0,1,0,7,0l.1-27.9C346,102,344.5,100.5,342.6,100.5Z"/><path class="cls-1" d="M309.5,104.6a3.43,3.43,0,0,0-4-2.8,3.18,3.18,0,0,0-2.7,2.7,3.56,3.56,0,0,0-3.2-2,3.46,3.46,0,0,0-3.5,3.4l-.1,27.9a3.5,3.5,0,0,0,7,0l.1-26.2,4.7,25.7a3.45,3.45,0,1,0,6.8-1.2Z"/><path class="cls-1" d="M314.1,110.3h0a3.37,3.37,0,0,1,3.4,3.4v27.9a3.37,3.37,0,0,1-3.4,3.4h0a3.37,3.37,0,0,1-3.4-3.4V113.7A3.37,3.37,0,0,1,314.1,110.3Z"/><rect class="cls-1" x="292.6" y="114.6" width="59" height="40.1" transform="translate(-0.49 1.18) rotate(-0.21)"/><rect class="cls-4" x="292.7" y="146.3" width="59" height="10.2" transform="translate(-0.55 1.18) rotate(-0.21)"/><rect class="cls-5" x="292.6" y="117.8" width="59" height="10.2" transform="translate(-0.45 1.18) rotate(-0.21)"/><rect class="cls-5" x="292.6" y="131.6" width="59" height="10.2" transform="translate(-0.5 1.18) rotate(-0.21)"/><rect class="cls-5" x="292.7" y="145.3" width="59" height="10.2" transform="translate(-0.55 1.18) rotate(-0.21)"/><path class="cls-4" d="M175.8,27.9l82.7-.3a9.07,9.07,0,0,1,9,8.9l.2,54.2a9.07,9.07,0,0,1-8.9,9l-82.7.3a9.07,9.07,0,0,1-9-8.9l-.2-54.2A8.94,8.94,0,0,1,175.8,27.9Z"/><path class="cls-2" d="M175.8,28.5l82.7-.3a9.07,9.07,0,0,1,9,8.9l.2,54.2a9.07,9.07,0,0,1-8.9,9l-82.7.3a9.07,9.07,0,0,1-9-8.9l-.2-54.2A9.07,9.07,0,0,1,175.8,28.5Z"/><path class="cls-3" d="M171.9,102.4h91.2a4.69,4.69,0,0,1,4.7,4.7V218.8a4.69,4.69,0,0,1-4.7,4.7H171.9a4.69,4.69,0,0,1-4.7-4.7V107A4.67,4.67,0,0,1,171.9,102.4Z"/><circle class="cls-1" cx="304.9" cy="166" r="13.3"/><circle class="cls-1" cx="336.7" cy="163.9" r="13.3"/><ellipse class="cls-1" cx="289.1" cy="162.6" rx="17.2" ry="18.1"/><ellipse class="cls-1" cx="314" cy="166.8" rx="17.2" ry="18.1"/><circle class="cls-1" cx="268.9" cy="162.3" r="13.3"/><rect class="cls-1" x="250.5" y="161.6" width="99.8" height="67.8"/><rect class="cls-6" x="250.5" y="165.6" width="99.8" height="9.1"/><rect class="cls-6" x="250.5" y="179.2" width="99.8" height="9.1"/><rect class="cls-6" x="250.5" y="192.9" width="99.8" height="9.1"/><rect class="cls-6" x="250.5" y="206.6" width="99.8" height="9.1"/><rect class="cls-6" x="250.4" y="220.2" width="99.8" height="9.1"/><rect class="cls-5" x="250.5" y="165.6" width="99.8" height="9.1"/><rect class="cls-5" x="250.5" y="179.2" width="99.8" height="9.1"/><rect class="cls-5" x="250.5" y="192.9" width="99.8" height="9.1"/><rect class="cls-5" x="250.5" y="206.6" width="99.8" height="9.1"/><rect class="cls-5" x="250.4" y="220.2" width="99.8" height="9.1"/><polygon class="cls-5" points="309.8 128.1 351.6 128 351.5 117.7 298.1 117.9 309.8 128.1"/><polygon class="cls-5" points="325.4 141.8 351.6 141.7 351.6 131.5 313.8 131.6 325.4 141.8"/><polygon class="cls-5" points="341 155.5 351.7 155.5 351.6 145.2 329.4 145.3 341 155.5"/><path class="cls-1" d="M349.9,164.4V164a13.25,13.25,0,0,0-13.1-13.3,19.42,19.42,0,0,0-2.4.2Z"/><path class="cls-1" d="M200.1,44.5a6.22,6.22,0,0,0,6.1-5.2H194A6.22,6.22,0,0,0,200.1,44.5Z"/><path class="cls-7" d="M202,27.9V-3.7h-4V28c-.1,0-.2-.7-.3-.7h4.9C202.4,27.3,202.2,28,202,27.9Z"/><path class="cls-7" d="M155.9,35.3H244a.9.9,0,0,1,.9.9v.1a.9.9,0,0,1-.9.9H155.9a.9.9,0,0,1-.9-.9v-.1A.9.9,0,0,1,155.9,35.3Z"/><path class="cls-7" d="M206.2,33.3H208v-6h-5.4C205.1,28.3,205.8,30.3,206.2,33.3Z"/><path class="cls-7" d="M197.7,27.3H192v6h2A7.54,7.54,0,0,1,197.7,27.3Z"/><path class="cls-7" d="M194,33.3h12.2c-.4-3-1.1-5-3.6-6h-4.9A7.79,7.79,0,0,0,194,33.3Z"/><path class="cls-7" d="M194,33.3h12.2c-.4-3-1.1-5-3.6-6h-4.9A7.79,7.79,0,0,0,194,33.3Z"/><path class="cls-5" d="M150.4,218.3c6.7,1.6,20.4,5,21.1,13,.6,7.5-4.1,13.7-12.2,13.8-1.2,0-11.7-1.1-11.6-2.1Z"/><path class="cls-5" d="M89.5,294.5s5.5-.7,6.3-1.9,52.6,25.5,58.1,11.3c5.4-13.9-13.9-17.7-13.9-17.7l-38.3-15.5-8.9,13.4Z"/><path class="cls-5" d="M147,252.9s12.1,1.7,16.4,7.7c2.5,3.4,1.4,14.1-5.1,16.9S146,276,146,276Z"/><path class="cls-5" d="M175.9,176.8c-2.3-3.4-7.3-4.5-11.4-4.5-2.4,0-9.8-.9-11.6.9s.1,7.3-.2,9.6c-.4,3.6-.5,7.2-1,10.8-.1,1.1,25.2,1.5,25.4-12.4A6.84,6.84,0,0,0,175.9,176.8Z"/><path class="cls-5" d="M59.9,178c-2-1.1-9.5.5-11.8,1a19,19,0,0,0-4.6,1.5c-6.1,3.1-10,10.5-14.1,15.9L16.8,212.9,5.1,228.1c-.9,1.2-4.9,4.9-4.9,6.5l-1.4,72.6s54.5-38.5,51.7-50-.7-31.5,4-31.5c4.2,0,4.6-23.1,4.8-25.8.4-5.6.7-11.2.8-16.8,0-1,.7-4,.2-4.8C60.2,178.2,60,178.1,59.9,178Z"/><path class="cls-5" d="M-.8,305.2l11.2-22.8S31.5,251.9,50,249.9l46.6,26.5-7,18S50.3,306.7,39.2,307s-39-.3-39-.3Z"/><path class="cls-8" d="M77.3,105l70.2,5.8a11.78,11.78,0,0,1,10.8,12.7L145.6,277.2A11.78,11.78,0,0,1,132.9,288l-70.2-5.8a11.78,11.78,0,0,1-10.8-12.7L64.6,115.8A11.78,11.78,0,0,1,77.3,105Z"/><line class="cls-9" x1="56.3" y1="214.1" x2="55.4" y2="216.9"/><path class="cls-1" d="M188.9,66.5h0a1.54,1.54,0,0,1,1.5,1.5V86.5a1.54,1.54,0,0,1-1.5,1.5h0a1.54,1.54,0,0,1-1.5-1.5V68A1.47,1.47,0,0,1,188.9,66.5Z"/><path class="cls-1" d="M188.7,114.4h0a1.54,1.54,0,0,1,1.5,1.5v73.4a1.54,1.54,0,0,1-1.5,1.5h0a1.54,1.54,0,0,1-1.5-1.5V115.9A1.54,1.54,0,0,1,188.7,114.4Z"/><path class="cls-1" d="M144,75.6V68a1.5,1.5,0,0,0-3,0v9.6Z"/><path class="cls-1" d="M142.5,87.9a1.54,1.54,0,0,0,1.5-1.5V75.6l-3,1.9v8.8A1.56,1.56,0,0,0,142.5,87.9Z"/><rect class="cls-10" x="63.27" y="121.31" width="83.73" height="148.59" transform="translate(17.6 -8.48) rotate(5.04)"/><rect class="cls-11" x="67.24" y="200.82" width="73.81" height="11.72" rx="2.59" ry="2.59" transform="translate(18.57 -8.35) rotate(5.04)"/><rect class="cls-11" x="65.98" y="215.1" width="73.81" height="11.72" rx="2.89" ry="2.89" transform="translate(19.82 -8.19) rotate(5.04)"/><rect class="cls-12" x="95.75" y="198.7" width="11.69" height="73.78" rx="1.45" ry="1.45" transform="translate(-142.01 316.09) rotate(-84.96)"/><path class="cls-13" d="M137.41,232.89a1.44,1.44,0,0,1,1.3,1.56l-.77,8.76a1.44,1.44,0,0,1-1.56,1.3l-70.61-6.23a1.44,1.44,0,0,1-1.3-1.56l.77-8.76a1.44,1.44,0,0,1,1.56-1.3l70.61,6.23m0,0-70.61-6.23A1.47,1.47,0,0,0,65.22,228l-.77,8.76a1.47,1.47,0,0,0,1.33,1.59l70.61,6.23a1.47,1.47,0,0,0,1.59-1.33l.77-8.76a1.47,1.47,0,0,0-1.33-1.59Z"/><text class="cls-14" transform="translate(70.15 219.39) rotate(5.04)"><tspan class="cls-15">P</tspan><tspan x="2.47" y="0">ass</tspan><tspan class="cls-15" x="9.04" y="0">w</tspan><tspan x="12.34" y="0">o</tspan><tspan class="cls-16" x="14.73" y="0">r</tspan><tspan x="16.22" y="0">d</tspan><tspan class="cls-17" x="18.71" y="0" xml:space="preserve">  </tspan></text><text class="cls-14" transform="translate(71.44 204.67) rotate(5.04)">Ema<tspan class="cls-18" x="8.3" y="0">i</tspan><tspan x="9.34" y="0" xml:space="preserve">l  </tspan></text><text class="cls-19" transform="translate(85.37 189.99) rotate(5.04)">dignit<tspan class="cls-20" x="17.62" y="0">y</tspan><tspan x="20.7" y="0" xml:space="preserve"> meals</tspan><tspan class="cls-21" x="40.45" y="0"> </tspan></text><path class="cls-22" d="M100,171.88s1-1.55-1.1-3.82C98.93,168.05,97.29,171.54,100,171.88Z"/><path class="cls-22" d="M100.85,172.18c2.87.94,3.57-4,3.57-4-4.08,1.86-3.73,3.61-3.63,3.9Z"/><path class="cls-23" d="M102.64,180.43s-.06-.25.15-.28l.86-.21c.29-.07.38-.06.46.08a5.46,5.46,0,0,1,.55-3l2.34-7.11a.63.63,0,0,0-.49-.8c-.51-.14-.64.09-.83.4s-2.95,7.71-2.95,7.71-1.3,4.72-4.74,3.71a4,4,0,0,1-1-.51,3,3,0,0,1-.56-.78,3.4,3.4,0,0,1,0-2.65,6.12,6.12,0,0,1,1-1.79,3.26,3.26,0,0,1,.43-.43,2.84,2.84,0,0,1,1.82-.65,9,9,0,0,1,1,.15.68.68,0,0,0,.85-.34.65.65,0,0,0,.05-.68c-.21-.35-1.32-.55-1.56-.58a4.71,4.71,0,0,0-4.93,3.15c-.13.32-2.56,5.89,3.29,7.09a4.26,4.26,0,0,0,4.26-2.41Z"/><path class="cls-24" d="M104.5,180.67a1.23,1.23,0,0,1-.2-.23A1,1,0,0,0,104.5,180.67Z"/><path class="cls-25" d="M119.87,182.9l-.55.27a1.86,1.86,0,0,1-1.7-.12,2.71,2.71,0,0,1-1.09-2.23c0-.86.16-1.72.2-2.58a3.12,3.12,0,0,0-.92-2.65,2.33,2.33,0,0,0-2.65-.06c-.09.06-.19.16-.3,0a2.68,2.68,0,0,0-3.25-1.52c-.07,0,0-.12-.1-.26a.46.46,0,0,0-.14-.17,1.14,1.14,0,0,0-.68-.19.25.25,0,0,0-.23.15c-.51,1.25-1,3.06-1.29,3.89a19.08,19.08,0,0,1-1,2.46,1.59,1.59,0,0,1-.93.9.91.91,0,0,1-1-.5c-.07-.16-.12-.37-.28-.42a.47.47,0,0,0-.25,0l-.87.21a.31.31,0,0,0-.18.09.3.3,0,0,0,0,.25c.29,1.57,2,3.14,3.67,2.1a2.47,2.47,0,0,0,.66-.63c1.09-1.49,1.47-3.32,2.26-5,.32-.67,1-1.61,1.88-1.17.46.23.5.77.47,1.23a8.37,8.37,0,0,1-.26,1.71c-.13.52-.39,1.7.54,1.72a.53.53,0,0,0,.29-.08,1.52,1.52,0,0,0,.58-1c.14-.51.29-1,.46-1.51a2.6,2.6,0,0,1,.45-.88.9.9,0,0,1,1.62.34,2.62,2.62,0,0,1,0,1.08,11.1,11.1,0,0,0-.14,3.35,3.82,3.82,0,0,0,1.93,2.61,3.37,3.37,0,0,0,3.22-.07,1.27,1.27,0,0,0,.69-.87.64.64,0,0,0-.27-.63A.86.86,0,0,0,119.87,182.9Z"/><path class="cls-5" d="M84,252.7l-14.3-.5A34.79,34.79,0,0,0,53,256.7l-6.5,3.7c-15.1,3.8-11.8-15.6-11.8-24.6h0c0-8.9,4.7-22.1,13.4-22.1l39.1,5.9c14.4,3.1,12.2,7.3,12.2,16.2h0C99.4,244.8,92.7,252.7,84,252.7Z"/><path class="cls-5" d="M78.4,252.3c3,1.3,6.1,2.5,9.2,3.6a80.12,80.12,0,0,0,17.3,4.5c3.8.4,8.5-.1,11.3-3a14.56,14.56,0,0,0,3.7-7.8,17.53,17.53,0,0,0,.3-4.6,11,11,0,0,0-4.2-8.4c-5.5-4.2-24-17.8-27.6-16.3Z"/><path class="cls-1" d="M104.6,237.1a15.52,15.52,0,0,1,8.3,3c2.6,2,2.3,6,1.8,8.4-1.7,8-9.2,6.6-14.7,4.1C96.4,250.9,101.2,237.2,104.6,237.1Z"/></svg>