<svg viewBox="0 0 357.86 290.3" xmlns="http://www.w3.org/2000/svg" xmlns:xlink="http://www.w3.org/1999/xlink"><linearGradient id="a" gradientTransform="translate(0 -1488)" gradientUnits="userSpaceOnUse" x1="348.84" x2="464.74" y1="1748.67" y2="1748.67"><stop offset="0" stop-color="#c69c6d"/><stop offset=".1" stop-color="#a3815a"/><stop offset=".26" stop-color="#725a3f"/><stop offset=".42" stop-color="#493a28"/><stop offset=".58" stop-color="#292017"/><stop offset=".73" stop-color="#120e0a"/><stop offset=".87" stop-color="#050403"/><stop offset="1"/></linearGradient><linearGradient id="b" x1="245.14" x2="326.57" xlink:href="#a" y1="1740.72" y2="1740.72"/><linearGradient id="c" x1="-84.71" x2="31.19" xlink:href="#a" y1="1748.67" y2="1748.67"/><linearGradient id="d" x1="226.44" x2="240.04" xlink:href="#a" y1="1691.37" y2="1691.37"/><linearGradient id="e" x1="1.44" x2="117.34" xlink:href="#a" y1="1748.67" y2="1748.67"/><linearGradient id="f" gradientTransform="matrix(1 0 0 -1 0 292)" x1="143.44" x2="259.34" xlink:href="#a" y1="31.33" y2="31.33"/><linearGradient id="g" gradientTransform="matrix(1 0 0 -1 0 292)" x1="285.44" x2="401.34" xlink:href="#a" y1="31.33" y2="31.33"/><path d="m394.04 229.47-45.21 62.4 72.5-.1 43.41-62.3z" fill="url(#a)" opacity=".05"/><path d="m7.64 84.15h350.39v150.4h-350.39z" fill="#c1ad73"/><path d="m7.6 169 135.27-84.47-135.27-.32v98.51c.01-8.84 0-13.72 0-13.72z" fill="#c1ad73"/><path d="m8.21 169 135.27-84.47-135.27-.32v98.51c.01-8.84 0-13.72 0-13.72z" fill="#c1ad73"/><path d="m8.21 169 135.27-84.47-135.27-.32v98.51c.01-8.84 0-13.72 0-13.72z" fill="#c1ad73"/><path d="m253.13 14.12a17.77 17.77 0 1 0 18.08 17.45 17.83 17.83 0 0 0 -18.08-17.45z" fill="none" stroke="#c1ad73" stroke-miterlimit="10"/><g fill="#c1ad73"><path d="m253.85 10.17h-1.18a1.09 1.09 0 0 0 -.9.63l3.07-.09a1.25 1.25 0 0 0 -.99-.54z"/><path d="m267.77 16.83a.72.72 0 0 0 -.09-1l-1.81-1.36a.72.72 0 0 0 -1 .09l-.4.51a20 20 0 0 1 2.9 2.29z"/><path d="m267.37 17.36-.22.28a.72.72 0 0 1 -1 .09l-.27-.18a.43.43 0 0 0 -.18-.54l-.45-.36c-.09-.18-.36-.18-.63-.09l-.27-.18a.72.72 0 0 1 -.09-1l.24-.3a19.78 19.78 0 0 0 -9.64-3.22 1 1 0 0 1 -1 .54h-1.19a1 1 0 0 1 -1-.54 20.11 20.11 0 1 0 15.7 5.5zm-13.6 32.29a17.77 17.77 0 1 1 17.44-18.09 17.83 17.83 0 0 1 -17.45 18.08z"/><path d="m264.37 16.38.27.18c.27-.09.54-.09.63.09l.45.36a.43.43 0 0 1 .18.54l.27.18a.72.72 0 0 0 1-.09l.22-.28a20 20 0 0 0 -2.86-2.28l-.24.3a.72.72 0 0 0 .08 1z"/><path d="m264.37 16.38.27.18c.27-.09.54-.09.63.09l.45.36a.43.43 0 0 1 .18.54l.27.18a.72.72 0 0 0 1-.09l.22-.28a20 20 0 0 0 -2.86-2.28l-.24.3a.72.72 0 0 0 .08 1z"/><path d="m254.84 10.68-3.07.09a1.31 1.31 0 0 0 -.18.63 1.29 1.29 0 0 0 .18.54c.45 0 .9-.09 1.45-.09a4.92 4.92 0 0 1 1.63 0 1.28 1.28 0 0 0 .18-.54 1.31 1.31 0 0 0 -.19-.63z"/><path d="m252.67 10.17h1.18a1.25 1.25 0 0 1 1 .54h.63a1.36 1.36 0 0 0 1.36-1.36v-2.09a1.36 1.36 0 0 0 -1.31-1.37h-.12l-4.41.11a1.36 1.36 0 0 0 -1.36 1.36v2.09a1.36 1.36 0 0 0 1.36 1.36h.72a1.09 1.09 0 0 1 .95-.64z"/><path d="m256.11 24.42h-2.44l.27 11c-.18 0-.27-.09-.27-.18l-2.79-10.53 2.8 10.58c0 .18.36.18.36 0l2.26-10.67c.07-.11-.01-.2-.19-.2z"/><path d="m251.05 24.51c-.18 0-.27.18-.18.27.03-.18.13-.27.18-.27z"/><path d="m253.94 35.45-.27-11h-2.62c-.08 0-.15.08-.17.23l2.79 10.54c0 .14.09.23.27.23z"/><path d="m253.94 35.45-.27-11h-2.62c-.08 0-.15.08-.17.23l2.79 10.54c0 .14.09.23.27.23z"/><path d="m253.76 24.24 1.18-5.42c0-.09 0-.18-.09-.18l-.72.54a1.29 1.29 0 0 0 -.54 1.08l.17 4z"/><path d="m253.67 24.47h.09v-.21c0 .07-.09.08-.17.08v-4.08a1 1 0 0 0 -.54-1l-.72-.45c-.09 0-.09.09-.09.18l1.36 5.42h.09z"/><path d="m253.75 24.26-.17-4v4.07c.08 0 .15-.01.17-.07z"/><path d="m253.75 24.26-.17-4v4.07c.08 0 .15-.01.17-.07z"/></g><path d="m319.94 243.27-1.6 1.2 5.8 8-5.3 7.6-73-.9h.2c-.6 0-.9.4-.9 1a.92.92 0 0 0 .83 1l74.1 1 6.5-9.6z" fill="url(#b)" opacity=".05"/><path d="m7.84 79.84h350v4.38h-350z" fill="#ececec"/><path d="m-39.51 229.47-45.2 62.4 72.5-.1 43.4-62.3z" fill="url(#c)" opacity=".05"/><path d="m226.44 197.57h13.6v11.6h-13.6z" fill="url(#d)" opacity=".05"/><path d="m226.44 197.57h13.6v11.6h-13.6z" fill="#fff"/><path d="m358.03 158.59v-74.44h-50.38z" fill="#c1ad73"/><path d="m253.41 26.88-.09-5.16" fill="#c1ad73"/><path d="m184.44 84.39h16.7v8.2h-16.7z" fill="#fff"/><path d="m252.94 84.39h16.7v8.2h-16.7z" fill="#fff"/><path d="m186.04 86.79h13.7v5.4h-13.7z" fill="none"/><path d="m254.54 86.79h13.7v5.4h-13.7z" fill="none"/><text fill="#c1ad73" font-family="ArialMT, Arial" font-size="4" transform="translate(260.36 89.63)">$</text><path d="m7.74 213.27h352.5v4.2h-352.5z" fill="#ececec"/><path d="m45.3 130.33-24.93-.02 5.29 12.41.75-.61 13 .16.6.6z" fill="#fff"/><path d="m45.3 115.28h-5.59-13.15-6.19l5.29 12.25.75-.61 13 .15.6.61z" fill="#fff"/><path d="m74.11 130.33-24.94-.02 5.3 12.41.75-.61 13 .16.59.6z" fill="#fff"/><path d="m74.11 115.01-24.94-.02 5.3 12.41.75-.61 13 .16.59.6z" fill="#fff"/><path d="m108.14 114.07h-4.9s-9.3 20.1-.5 28.3h6c8.8-8.2-.6-28.3-.6-28.3z" fill="#ccc"/><path d="m123.24 114.07h-4.9s-9.3 20.1-.5 28.3h6c8.8-8.2-.6-28.3-.6-28.3z" fill="#ccc"/><path d="m153.54 114.07h-4.9s-9.3 20.1-.5 28.3h6c8.8-8.2-.6-28.3-.6-28.3z" fill="#ccc"/><path d="m138.39 114.07h-4.9s-9.3 20.1-.5 28.3h6c8.8-8.2-.6-28.3-.6-28.3z" fill="#ccc"/><path d="m6.54 229.57h351.5v62.3h-351.5z" fill="#fff"/><path d="m8.11 230.15h351.5v62.3h-351.5z" fill="#ececec"/><path d="m46.64 229.47-45.2 62.4 72.5-.1 43.4-62.3z" fill="url(#e)" opacity=".05"/><path d="m188.64 229.47-45.2 62.4 72.5-.1 43.4-62.3z" fill="url(#f)" opacity=".05"/><path d="m330.64 229.47-45.2 62.4 72.5-.1 43.4-62.3z" fill="url(#g)" opacity=".05"/><path d="m6.84 257.97h365" fill="none" stroke="#fff" stroke-miterlimit="10"/><ellipse cx="253.64" cy="233.57" fill="#ececec" rx="6" ry="5.7"/><path d="m47.54 151.07h16.7v8.2h-16.7z" fill="#fff"/><path d="m116.04 151.07h16.7v8.2h-16.7z" fill="#fff"/><path d="m184.44 151.07h16.7v8.2h-16.7z" fill="#fff"/><path d="m252.94 151.07h16.7v8.2h-16.7z" fill="#fff"/><path d="m321.34 151.07h16.7v8.2h-16.7z" fill="#fff"/><path d="m49.14 153.57h13.7v5.4h-13.7z" fill="none"/><text fill="#c1ad73" font-family="ArialMT, Arial" font-size="4" transform="translate(54.96 156.38)">$</text><path d="m117.84 153.57h13.7v5.4h-13.7z" fill="none"/><text fill="#c1ad73" font-family="ArialMT, Arial" font-size="4" transform="translate(123.73 156.38)">$</text><path d="m186.04 154.57h13.7v5.4h-13.7z" fill="none"/><text fill="#c1ad73" font-family="ArialMT, Arial" font-size="4" transform="translate(191.91 156.38)">$</text><path d="m254.54 153.57h13.7v5.4h-13.7z" fill="none"/><text fill="#c1ad73" font-family="ArialMT, Arial" font-size="4" transform="translate(260.36 156.38)">$</text><path d="m322.94 153.57h13.7v5.4h-13.7z" fill="none"/><text fill="#c1ad73" font-family="ArialMT, Arial" font-size="4" transform="translate(328.81 156.38)">$</text><path d="m47.54 83.97h16.7v8.2h-16.7z" fill="#fff"/><path d="m116.04 83.97h16.7v8.2h-16.7z" fill="#fff"/><path d="m184.44 83.97h16.7v8.2h-16.7z" fill="#fff" opacity=".05"/><path d="m252.94 84.12h16.7v8.05h-16.7z" fill="#fff"/><path d="m321.34 84.11h16.7v8.06h-16.7z" fill="#fff"/><path d="m49.14 86.37h13.7v5.4h-13.7z" fill="none"/><text fill="#c1ad73" font-family="ArialMT, Arial" font-size="4" transform="translate(54.96 89.21)">$</text><path d="m117.84 86.37h13.7v5.4h-13.7z" fill="none"/><text fill="#c1ad73" font-family="ArialMT, Arial" font-size="4" transform="translate(123.73 89.21)">$</text><path d="m186.04 86.37h13.7v5.4h-13.7z" fill="none"/><text fill="#c1ad73" font-family="ArialMT, Arial" font-size="4" transform="translate(191.91 89.21)">$</text><path d="m254.54 86.37h13.7v5.4h-13.7z" fill="none"/><text fill="#c1ad73" font-family="ArialMT, Arial" font-size="4" transform="translate(260.36 89.21)">$</text><path d="m322.94 86.37h13.7v5.4h-13.7z" fill="none"/><text fill="#c1ad73" font-family="ArialMT, Arial" font-size="4" transform="translate(328.81 89.21)">$</text><path d="m101.34 175.97h11.4v33.2h-11.4z" fill="#fff"/><path d="m115.24 175.97h11.4v33.2h-11.4z" fill="#fff"/><path d="m129.34 175.97h11.4v33.2h-11.4z" fill="#fff"/><path d="m188.3 208.76h-.14a6.57 6.57 0 0 1 -6.57-6.57v-9.86a6.57 6.57 0 0 1 6.57-6.57h.14a6.57 6.57 0 0 1 6.57 6.57v9.9a6.57 6.57 0 0 1 -6.57 6.57z" fill="#ececec"/><path d="m202.95 208.76h-.14a6.57 6.57 0 0 1 -6.57-6.57v-9.86a6.57 6.57 0 0 1 6.57-6.57h.14a6.57 6.57 0 0 1 6.57 6.57v9.9a6.67 6.67 0 0 1 -6.57 6.53z" fill="#ececec"/><path d="m242.34 197.57h13.6v11.6h-13.6z" fill="#ccc" opacity=".6"/><path d="m258.24 197.57h13.6v11.6h-13.6z" fill="#ccc" opacity=".6"/><path d="m274.14 197.57h13.6v11.6h-13.6z" fill="#ccc" opacity=".6"/><path d="m269.19 184.32h17.56v14.98h-17.56z" fill="#fff"/><path d="m31.34 194.47 6.6 12.2h-13.2z" fill="#ececec"/><path d="m46.54 194.47 6.6 12.2h-13.2z" fill="#ececec"/><path d="m61.64 194.47 6.6 12.2h-13.2z" fill="#ececec"/><path d="m77.24 194.67 6.5 12h-13z" fill="#ececec"/><path d="m46.54 179.97 6.6 12.2h-13.2z" fill="#ececec"/><path d="m61.64 179.97 6.6 12.2h-13.2z" fill="#ececec"/><path d="m76.74 179.97 6.7 12.2h-13.3z" fill="#ececec"/><path d="m31.34 180.12 6.6 12.1h-13.2z" fill="#ececec"/><path d="m306.74 208.07h-5.2a2.9 2.9 0 0 1 -2.9-2.9v-1.5a2.9 2.9 0 0 1 2.9-2.9h5.2a2.9 2.9 0 0 1 2.9 2.9v1.5a2.9 2.9 0 0 1 -2.9 2.9z" fill="#ececec"/><path d="m306.74 199.67h-5.2a2.9 2.9 0 0 1 -2.9-2.9v-1.5a2.9 2.9 0 0 1 2.9-2.9h5.2a2.9 2.9 0 0 1 2.9 2.9v1.5a2.9 2.9 0 0 1 -2.9 2.9z" fill="#ececec"/><path d="m320.15 189.25h-5.83a3.25 3.25 0 0 1 -3.25-3.25v-1.68a3.25 3.25 0 0 1 3.25-3.25h5.83a3.25 3.25 0 0 1 3.25 3.25v1.68a3.25 3.25 0 0 1 -3.25 3.25z" fill="#ececec"/><path d="m319.84 208.07h-5.2a2.9 2.9 0 0 1 -2.9-2.9v-1.5a2.9 2.9 0 0 1 2.9-2.9h5.2a2.9 2.9 0 0 1 2.9 2.9v1.5a2.9 2.9 0 0 1 -2.9 2.9z" fill="#ececec"/><path d="m319.84 199.67h-5.2a2.9 2.9 0 0 1 -2.9-2.9v-1.5a2.9 2.9 0 0 1 2.9-2.9h5.2a2.9 2.9 0 0 1 2.9 2.9v1.5a2.9 2.9 0 0 1 -2.9 2.9z" fill="#ececec"/><path d="m327.73 142.46h-25.37a1.85 1.85 0 0 1 -1.82-1.82v-7.9a1.85 1.85 0 0 1 1.82-1.82h25.37a1.85 1.85 0 0 1 1.82 1.82v7.9a2 2 0 0 1 -1.82 1.82z" fill="#fff"/><path d="m359.48 142.46h-25.37a1.85 1.85 0 0 1 -1.82-1.82v-7.9a1.85 1.85 0 0 1 1.82-1.82h25.37a1.85 1.85 0 0 1 1.82 1.82v7.9a2 2 0 0 1 -1.82 1.82z" fill="#fff"/><path d="m359.48 128.18h-25.37a1.85 1.85 0 0 1 -1.82-1.82v-7.9a1.85 1.85 0 0 1 1.82-1.82h25.37a1.85 1.85 0 0 1 1.82 1.82v7.9a2 2 0 0 1 -1.82 1.82z" fill="#fff"/><path d="m327.73 128.18h-25.37a1.85 1.85 0 0 1 -1.82-1.82v-7.9a1.85 1.85 0 0 1 1.82-1.82h25.37a1.85 1.85 0 0 1 1.82 1.82v7.9a2 2 0 0 1 -1.82 1.82z" fill="#fff"/><path d="m332.94 208.07h-5.2a2.9 2.9 0 0 1 -2.9-2.9v-1.5a2.9 2.9 0 0 1 2.9-2.9h5.2a2.9 2.9 0 0 1 2.9 2.9v1.5a3 3 0 0 1 -2.9 2.9z" fill="#ececec"/><path d="m345.65 208.07h-5.83a3.25 3.25 0 0 1 -3.25-3.25v-1.68a3.25 3.25 0 0 1 3.25-3.25h5.83a3.25 3.25 0 0 1 3.25 3.25v1.68a3.25 3.25 0 0 1 -3.25 3.25z" fill="#ececec"/><path d="m345.65 198.66h-5.83a3.25 3.25 0 0 1 -3.25-3.25v-1.68a3.25 3.25 0 0 1 3.25-3.25h5.83a3.25 3.25 0 0 1 3.25 3.25v1.68a3.25 3.25 0 0 1 -3.25 3.25z" fill="#ececec"/><path d="m345.65 189.25h-5.83a3.25 3.25 0 0 1 -3.25-3.25v-1.68a3.25 3.25 0 0 1 3.25-3.25h5.83a3.25 3.25 0 0 1 3.25 3.25v1.68a3.25 3.25 0 0 1 -3.25 3.25z" fill="#ececec"/><path d="m248.66 117.08c0-.91-1.81-2.54-3.81-2.54s-3.85 1.46-3.85 2.54v22.3a4.26 4.26 0 0 0 7.62 0z" fill="#ececec"/><path d="m268.42 142a4.3 4.3 0 0 0 4.17-6.53l-19-11.79a3.81 3.81 0 0 0 -4 2 4 4 0 0 0 0 4.53z" fill="#ececec"/><path d="m283.11 117.08c0-.91-1.81-2.54-3.81-2.54s-3.81 1.45-3.81 2.54v22.3a4.26 4.26 0 0 0 7.62 0z" fill="#ececec"/><path d="m278.4 116.17a4.19 4.19 0 0 0 -.91-4.53 3.83 3.83 0 0 0 -4.53-.91l-16 15.78a3.88 3.88 0 0 0 .91 4.35 4 4 0 0 0 4.35 1.09z" fill="#ececec"/><path d="m7.84 147.47h350v4h-350z" fill="#ececec"/><ellipse cx="314.04" cy="267.57" fill="#ccc" rx="6.5" ry="6.1"/><ellipse cx="314.14" cy="267.67" fill="#fff" rx="4.3" ry="4.1"/><path d="m311.54 271 5.1-6.6a4.46 4.46 0 0 0 -2.6-.8 4 4 0 0 0 -2.5 7.4z" fill="#c1ad73"/><ellipse cx="259.84" cy="267.07" fill="#ccc" rx="6.5" ry="6.1"/><ellipse cx="260.04" cy="267.17" fill="#fff" rx="4.3" ry="4.1"/><path d="m257.45 270.47 5.1-6.6a4.46 4.46 0 0 0 -2.6-.8 4.17 4.17 0 0 0 -4.3 4v.06a4.39 4.39 0 0 0 1.8 3.34z" fill="#c1ad73"/><path d="m354.74 176.47a1.26 1.26 0 0 0 -1.22-1.3h-.08a.75.75 0 0 0 -.5.1l-10.3 3.1-1.9 7.9 2.6.7 1.5-7 8.9-2.3a1.39 1.39 0 0 0 1-1.2z" fill="#fff"/><path d="m320 243.27-1.6 1.2 5.8 8-5.3 7.6-73-.9h.2c-.6 0-.9.4-.9 1a.92.92 0 0 0 .83 1l74.1 1 6.5-9.6z" fill="#ccc"/><path d="m354.74 176.47a1.26 1.26 0 0 0 -1.22-1.3h-.08a.75.75 0 0 0 -.5.1l-10.3 3.1-1.9 7.9 2.6.7 1.5-7 8.9-2.3a1.39 1.39 0 0 0 1-1.2z" fill="#ccc"/><path d="m184.44 84.14h16.7v8.03h-16.7z" fill="#fff"/><text fill="#c1ad73" font-family="ArialMT, Arial" font-size="4" transform="translate(191.74 89.21)">$</text><path d="m246.99 184.32h17.56v14.98h-17.56z" fill="#fff"/><path d="m213.54 203.27 12.4 38 106 5.3 12-62.5z" fill="#ccc"/><path d="m217.44 205.47 10.5 33.6 101.8 4.4 10.8-56.4z" fill="#ececec"/><path d="m7.84 79.47h350v5h-350z" fill="#ececec"/><path d="m226.46 196.46h17.56l-.03 2.27-17.61 2.65z" fill="#fff"/><path d="m143.24 175.97h11.4v33.2h-11.4z" fill="#fff"/><path d="m206.91 129.62a12 12 0 0 0 12-12h-24a12 12 0 0 0 12 12z" fill="#fff"/><path d="m206.91 143.79a12 12 0 0 0 12-12h-24a12 12 0 0 0 12 12z" fill="#fff"/><path d="m181 129.62a12 12 0 0 0 12-12h-24a12 12 0 0 0 12 12z" fill="#fff"/><path d="m181 143.79a12 12 0 0 0 12-12h-24a12 12 0 0 0 12 12z" fill="#fff"/><path d="m0 222.27h7.64v52.84h-7.64z" fill="#fff"/></svg>