<svg id="Layer_1" data-name="Layer 1" xmlns="http://www.w3.org/2000/svg" xmlns:xlink="http://www.w3.org/1999/xlink" viewBox="0 0 350 290.28"><defs><style>.cls-1{opacity:0.02;fill:url(#linear-gradient);}.cls-1,.cls-5{isolation:isolate;}.cls-2{fill:#ececec;}.cls-3,.cls-9{fill:#ccc;}.cls-4,.cls-8{fill:#fff;}.cls-5{opacity:0.05;fill:url(#linear-gradient-2);}.cls-6{fill:none;stroke:#fff;stroke-miterlimit:10;}.cls-7{fill:#c1ad73;}.cls-8{font-size:4px;font-family:MyriadPro-Regular, Myriad Pro;}.cls-9{opacity:0.6;}</style><linearGradient id="linear-gradient" x1="0.78" y1="158.5" x2="350.63" y2="158.5" gradientUnits="userSpaceOnUse"><stop offset="0" stop-color="#c69c6d"/><stop offset="0.1" stop-color="#a3815a"/><stop offset="0.26" stop-color="#725a3f"/><stop offset="0.42" stop-color="#493a28"/><stop offset="0.58" stop-color="#292017"/><stop offset="0.73" stop-color="#120e0a"/><stop offset="0.87" stop-color="#050403"/><stop offset="1"/></linearGradient><linearGradient id="linear-gradient-2" x1="-1.31" y1="260.53" x2="350.14" y2="260.53" xlink:href="#linear-gradient"/></defs><title>InstashopArtboard 1</title><rect class="cls-1" x="0.78" y="83.3" width="349.86" height="150.39"/><rect class="cls-2" x="-0.06" y="213.13" width="352.5" height="4.17"/><circle class="cls-2" cx="167.33" cy="139.85" r="3.83"/><circle class="cls-2" cx="176.24" cy="139.85" r="3.83"/><circle class="cls-2" cx="185.15" cy="139.85" r="3.83"/><circle class="cls-2" cx="194.06" cy="139.85" r="3.83"/><circle class="cls-2" cx="167.33" cy="130.56" r="3.83"/><circle class="cls-2" cx="180.78" cy="132.38" r="3.83"/><circle class="cls-2" cx="194.06" cy="130.56" r="3.83"/><circle class="cls-2" cx="174.95" cy="126.87" r="3.83"/><circle class="cls-2" cx="186.61" cy="125.81" r="3.83"/><circle class="cls-2" cx="202.68" cy="139.85" r="3.83"/><circle class="cls-2" cx="202.68" cy="130.56" r="3.83"/><polygon class="cls-2" points="30.92 135.29 27.54 135.28 21 135.28 21 135.29 16.64 135.3 19.47 142.62 19.82 142.26 27.48 142.33 27.82 142.71 30.92 135.29"/><polygon class="cls-2" points="30.92 124.3 27.54 124.28 21 124.28 21 124.31 16.64 124.32 19.47 131.63 19.82 131.28 27.48 131.35 27.82 131.72 30.92 124.3"/><polygon class="cls-2" points="30.92 113.31 27.54 113.28 21 113.28 21 113.33 16.64 113.33 19.47 120.65 19.82 120.3 27.48 120.36 27.82 120.74 30.92 113.31"/><polygon class="cls-2" points="46.88 135.29 43.51 135.28 36 135.28 36 135.29 32.12 135.3 35.19 142.62 35.66 142.26 43.38 142.33 43.76 142.71 46.88 135.29"/><polygon class="cls-2" points="46.88 124.3 43.51 124.28 36 124.28 36 124.31 32.12 124.32 35.19 131.63 35.66 131.28 43.38 131.35 43.76 131.72 46.88 124.3"/><polygon class="cls-2" points="62.85 135.29 59.47 135.28 52 135.28 52 135.29 48.1 135.3 51.17 142.62 51.63 142.26 59.35 142.33 59.72 142.71 62.85 135.29"/><polygon class="cls-2" points="62.85 124.3 59.47 124.28 52 124.28 52 124.31 48.1 124.32 51.17 131.63 51.63 131.28 59.35 131.35 59.72 131.72 62.85 124.3"/><polygon class="cls-2" points="62.85 113.31 59.47 113.28 52 113.28 52 113.33 48.1 113.33 51.17 120.65 51.63 120.3 59.35 120.36 59.72 120.74 62.85 113.31"/><polygon class="cls-2" points="78.81 135.29 75.44 135.28 68 135.28 68 135.29 64.09 135.3 67.14 142.62 67.6 142.26 75.32 142.33 75.69 142.71 78.81 135.29"/><path class="cls-3" d="M101.8,121.7l-1.85,0-1.66,0s-6.73,14.58-.37,20.58h4.34C108.62,136.28,101.8,121.7,101.8,121.7Z"/><path class="cls-3" d="M112.8,121.7l-1.85,0-1.66,0s-6.73,14.58-.37,20.58h4.34C119.62,136.28,112.8,121.7,112.8,121.7Z"/><path class="cls-3" d="M134.8,121.7l-1.85,0-1.66,0s-6.73,14.58-.37,20.58h4.34C141.62,136.28,134.8,121.7,134.8,121.7Z"/><rect class="cls-4" x="-1.31" y="229.39" width="351.45" height="62.29"/><rect class="cls-5" x="-1.31" y="229.39" width="351.45" height="62.29"/><polygon class="cls-2" points="38.83 229.29 -6.43 291.71 66.11 291.6 109.5 229.33 38.83 229.29"/><polygon class="cls-2" points="180.83 229.29 135.56 291.71 208.1 291.6 251.5 229.33 180.83 229.29"/><polygon class="cls-2" points="322.83 229.29 277.56 291.71 350.11 291.6 393.5 229.33 322.83 229.29"/><line class="cls-6" x1="-1" y1="257.78" x2="364" y2="257.78"/><ellipse class="cls-3" cx="306.73" cy="262.28" rx="8.93" ry="8.41"/><ellipse class="cls-3" cx="245.59" cy="260.28" rx="8.93" ry="8.41"/><path class="cls-3" d="M244.78,267.28h5.86c5.29-5,8.8-11,8.95-18h0c0-1,0-.42,0-.5s0-.5,0-.5h0a27.66,27.66,0,0,0-.81-5.24l-3.35,0a20.5,20.5,0,0,1,1.08,6.3C256.4,257.33,251.52,263.28,244.78,267.28Z"/><path class="cls-3" d="M310.4,269.79a23.4,23.4,0,0,0,11.33-19.51h0c0-1,0-.42,0-.5s0-.5,0-.5h0a22,22,0,0,0-.81-5.6l-3.35-.22a18.24,18.24,0,0,1,.93,5.95c-.13,10.83-5.63,19-16.63,19l-.41.14Z"/><ellipse class="cls-2" cx="245.79" cy="233.37" rx="6.02" ry="5.66"/><ellipse class="cls-2" cx="306.83" cy="262.37" rx="6.02" ry="5.66"/><ellipse class="cls-2" cx="245.79" cy="260.37" rx="6.02" ry="5.66"/><path class="cls-7" d="M303.28,266.94l7.12-9.12a6.23,6.23,0,0,0-3.57-1.11,5.85,5.85,0,0,0-6,5.66A5.55,5.55,0,0,0,303.28,266.94Z"/><path class="cls-7" d="M242,264.94l7.12-9.12a6.23,6.23,0,0,0-3.57-1.11,5.85,5.85,0,0,0-6,5.66A5.55,5.55,0,0,0,242,264.94Z"/><path class="cls-7" d="M137.13,17.56l.51.4a.65.65,0,0,1,.25.57l.29.23a.8.8,0,0,0,1.12-.13l.69-.88a.8.8,0,0,0-.13-1.12l-2-1.53a.8.8,0,0,0-1.12.13l-.69.88a.8.8,0,0,0,.13,1.12l.29.23A.65.65,0,0,1,137.13,17.56Z"/><path class="cls-7" d="M125.6,12.28a1.28,1.28,0,0,1-1.09.64l-1.28,0a1.28,1.28,0,0,1-1.12-.63,22.2,22.2,0,1,0,3.49,0Zm-1.18,41.79a19.64,19.64,0,1,1,19.3-20A19.64,19.64,0,0,1,124.42,54.07Z"/><path class="cls-7" d="M125.58,12.28a1.25,1.25,0,0,0,0-1.33l-3.38.06a1.25,1.25,0,0,0,0,1.31q.78-.07,1.58-.08C124.34,12.22,125,12.24,125.58,12.28Z"/><path class="cls-7" d="M123.2,10.41l1.27,0a1.27,1.27,0,0,1,1.07.56h.72a1.56,1.56,0,0,0,1.53-1.58l0-2.19a1.56,1.56,0,0,0-1.58-1.53l-4.83.08a1.56,1.56,0,0,0-1.53,1.58l0,2.19A1.56,1.56,0,0,0,121.43,11h.72A1.27,1.27,0,0,1,123.2,10.41Z"/><line class="cls-7" x1="124.58" y1="26.7" x2="124.49" y2="20.96"/><path class="cls-7" d="M124.26,38.26l-3.11-11.73a.25.25,0,0,1,.23-.31l5.58-.09a.25.25,0,0,1,.25.3l-2.46,11.82A.25.25,0,0,1,124.26,38.26Z"/><path class="cls-7" d="M124.31,26.18l-2.92,0a.25.25,0,0,0-.23.31l3.11,11.73a.24.24,0,0,0,.25.18Z"/><path class="cls-7" d="M124.23,21.63a1.38,1.38,0,0,1,.6-1.16l.83-.57a.13.13,0,0,1,.12.15l-1.31,6a.15.15,0,0,1-.17.1Z"/><path class="cls-7" d="M124.23,21.63a1.38,1.38,0,0,0-.64-1.14l-.85-.54a.13.13,0,0,0-.12.16l1.51,6a.15.15,0,0,0,.17.09Z"/><rect class="cls-7" x="39.74" y="151.94" width="16.75" height="8.25"/><rect class="cls-7" x="108.18" y="151.94" width="16.75" height="8.25"/><rect class="cls-7" x="176.62" y="151.94" width="16.75" height="8.25"/><rect class="cls-7" x="245.06" y="151.94" width="16.75" height="8.25"/><rect class="cls-7" x="313.5" y="151.94" width="16.75" height="8.25"/><text class="cls-8" transform="translate(47.12 157.21)">$</text><text class="cls-8" transform="translate(115.89 157.21)">$</text><text class="cls-8" transform="translate(184.07 157.21)">$</text><text class="cls-8" transform="translate(252.52 157.21)">$</text><text class="cls-8" transform="translate(320.97 157.21)">$</text><rect class="cls-7" x="39.74" y="83.77" width="16.75" height="8.25"/><rect class="cls-7" x="108.18" y="83.77" width="16.75" height="8.25"/><rect class="cls-7" x="176.62" y="83.77" width="16.75" height="8.25"/><rect class="cls-7" x="245.06" y="83.77" width="16.75" height="8.25"/><rect class="cls-7" x="313.5" y="83.77" width="16.75" height="8.25"/><text class="cls-8" transform="translate(47.12 89.04)">$</text><text class="cls-8" transform="translate(115.89 89.04)">$</text><text class="cls-8" transform="translate(184.07 89.04)">$</text><text class="cls-8" transform="translate(252.52 89.04)">$</text><text class="cls-8" transform="translate(320.97 89.04)">$</text><rect class="cls-2" x="93.5" y="175.79" width="11.43" height="33.15"/><rect class="cls-2" x="107.45" y="175.79" width="11.43" height="33.15"/><rect class="cls-2" x="121.48" y="175.79" width="11.43" height="33.15"/><rect class="cls-2" x="135.37" y="175.79" width="11.43" height="33.15"/><rect class="cls-3" x="156.41" y="191.96" width="9.66" height="16.61" rx="4.83" ry="4.83"/><rect class="cls-3" x="177.43" y="191.96" width="9.66" height="16.61" rx="4.83" ry="4.83"/><rect class="cls-3" x="187.94" y="191.96" width="9.66" height="16.61" rx="4.83" ry="4.83"/><rect class="cls-9" x="218.64" y="197.41" width="13.57" height="11.62"/><rect class="cls-9" x="234.53" y="197.41" width="13.57" height="11.62"/><rect class="cls-9" x="250.42" y="197.41" width="13.57" height="11.62"/><rect class="cls-9" x="234.53" y="188.02" width="13.57" height="11.62"/><rect class="cls-9" x="266.33" y="197.41" width="13.57" height="11.62"/><rect class="cls-9" x="266.33" y="188.02" width="13.57" height="11.62"/><polygon class="cls-9" points="23.04 196.96 28.21 206.48 17.86 206.48 23.04 196.96"/><polygon class="cls-9" points="34.9 196.96 40.08 206.48 29.72 206.48 34.9 196.96"/><polygon class="cls-9" points="46.76 196.96 51.94 206.48 41.59 206.48 46.76 196.96"/><polygon class="cls-9" points="58.62 196.96 63.8 206.48 53.45 206.48 58.62 196.96"/><polygon class="cls-9" points="70.49 196.96 75.66 206.48 65.31 206.48 70.49 196.96"/><polygon class="cls-9" points="23.04 185.58 28.21 195.11 17.86 195.11 23.04 185.58"/><polygon class="cls-9" points="46.76 185.58 51.94 195.11 41.59 195.11 46.76 185.58"/><polygon class="cls-9" points="58.62 185.58 63.8 195.11 53.45 195.11 58.62 185.58"/><polygon class="cls-9" points="70.49 185.58 75.66 195.11 65.31 195.11 70.49 185.58"/><polygon class="cls-9" points="23.04 174.2 28.21 183.73 17.86 183.73 23.04 174.2"/><polygon class="cls-9" points="58.62 174.2 63.8 183.73 53.45 183.73 58.62 174.2"/><rect class="cls-2" x="290.79" y="200.57" width="11.01" height="7.34" rx="2.9" ry="2.9"/><rect class="cls-2" x="290.79" y="192.17" width="11.01" height="7.34" rx="2.9" ry="2.9"/><rect class="cls-2" x="290.79" y="183.77" width="11.01" height="7.34" rx="2.9" ry="2.9"/><rect class="cls-2" x="303.87" y="200.57" width="11.01" height="7.34" rx="2.9" ry="2.9"/><rect class="cls-2" x="303.87" y="192.17" width="11.01" height="7.34" rx="2.9" ry="2.9"/><rect class="cls-2" x="292.79" y="135.43" width="17.32" height="6.89" rx="1.15" ry="1.15"/><rect class="cls-2" x="311.88" y="135.43" width="17.32" height="6.89" rx="1.15" ry="1.15"/><rect class="cls-2" x="330.97" y="135.43" width="17.32" height="6.89" rx="1.15" ry="1.15"/><rect class="cls-2" x="311.88" y="126.8" width="17.32" height="6.89" rx="1.15" ry="1.15"/><rect class="cls-2" x="330.97" y="126.8" width="17.32" height="6.89" rx="1.15" ry="1.15"/><rect class="cls-2" x="311.88" y="118.17" width="17.32" height="6.89" rx="1.15" ry="1.15"/><rect class="cls-2" x="311.88" y="109.55" width="17.32" height="6.89" rx="1.15" ry="1.15"/><rect class="cls-2" x="330.97" y="118.17" width="17.32" height="6.89" rx="1.15" ry="1.15"/><rect class="cls-2" x="316.94" y="200.57" width="11.01" height="7.34" rx="2.9" ry="2.9"/><rect class="cls-2" x="330.08" y="200.57" width="11.01" height="7.34" rx="2.9" ry="2.9"/><rect class="cls-2" x="330.08" y="192.17" width="11.01" height="7.34" rx="2.9" ry="2.9"/><rect class="cls-2" x="330.08" y="183.77" width="11.01" height="7.34" rx="2.9" ry="2.9"/><path class="cls-3" d="M351,246.59l-142.83-5.34-.13-.25L179.76,188.1l.74-.08,178-19.57Zm-142.22-6.32,141.31,5.29,7.29-76L181.34,188.93Z"/><rect class="cls-3" x="204.39" y="183.78" width="1" height="60.86" transform="translate(-72.13 108.72) rotate(-25.43)"/><rect class="cls-3" x="217.51" y="183.6" width="1" height="61.21" transform="translate(-69.82 111.41) rotate(-24.84)"/><rect class="cls-3" x="230.5" y="181.11" width="1" height="64.65" transform="translate(-68.88 118.64) rotate(-25.2)"/><rect class="cls-3" x="242.89" y="180.18" width="1" height="65.74" transform="translate(-67.11 122.39) rotate(-24.92)"/><rect class="cls-3" x="255.74" y="178.74" width="1" height="67.96" transform="translate(-65.68 127.4) rotate(-24.85)"/><rect class="cls-3" x="268.29" y="177.32" width="1" height="69.63" transform="translate(-64.24 132.52) rotate(-24.84)"/><rect class="cls-3" x="281.03" y="175.45" width="1" height="71.98" transform="translate(-62.89 138.34) rotate(-24.92)"/><rect class="cls-3" x="293.8" y="174.7" width="1" height="73.42" transform="translate(-61.31 141.76) rotate(-24.61)"/><rect class="cls-3" x="306.52" y="172.28" width="1" height="76.47" transform="translate(-60.37 150.48) rotate(-25.16)"/><rect class="cls-3" x="319.33" y="171.08" width="1" height="78.92" transform="translate(-58.95 154.49) rotate(-24.94)"/><rect class="cls-3" x="332.08" y="169.73" width="1" height="80.06" transform="translate(-57.25 158.4) rotate(-24.73)"/><rect class="cls-3" x="339.96" y="169.55" width="1" height="57.86" transform="translate(-51.95 162.1) rotate(-24.94)"/><rect class="cls-3" x="347.27" y="169.97" width="1" height="32.93" transform="translate(-46.08 162.17) rotate(-24.67)"/><rect class="cls-3" x="189.99" y="200.44" width="164.8" height="1" transform="translate(-16.95 25.28) rotate(-5.15)"/><rect class="cls-3" x="201.98" y="225.2" width="152.53" height="1" transform="translate(-9.43 12.15) rotate(-2.46)"/><path class="cls-3" d="M238.09,131a1.84,1.84,0,0,0-3.34,0v9.74a1.85,1.85,0,0,0,3.33,0Z"/><path class="cls-3" d="M238.09,118a1.84,1.84,0,0,0-3.34,0v9.74a1.85,1.85,0,0,0,3.33,0Z"/><path class="cls-3" d="M243.09,131a1.84,1.84,0,0,0-3.34,0v9.74a1.85,1.85,0,0,0,3.33,0Z"/><path class="cls-3" d="M243.09,118a1.84,1.84,0,0,0-3.34,0v9.74a1.85,1.85,0,0,0,3.33,0Z"/><path class="cls-3" d="M248.09,131a1.84,1.84,0,0,0-3.34,0v9.74a1.85,1.85,0,0,0,3.33,0Z"/><path class="cls-3" d="M256.68,141.8a1.84,1.84,0,0,0,1.75-2.84l-8.3-5.1a1.85,1.85,0,0,0-1.75,2.84Z"/><path class="cls-3" d="M263.09,131a1.84,1.84,0,0,0-3.34,0v9.74a1.85,1.85,0,0,0,3.33,0Z"/><path class="cls-3" d="M261,130.6a1.84,1.84,0,0,0-2.35-2.37l-6.91,6.86a1.85,1.85,0,0,0,2.35,2.37Z"/><path class="cls-3" d="M268.09,131a1.84,1.84,0,0,0-3.34,0v9.74a1.85,1.85,0,0,0,3.33,0Z"/><path class="cls-3" d="M273.09,131a1.84,1.84,0,0,0-3.34,0v9.74a1.85,1.85,0,0,0,3.33,0Z"/><path class="cls-3" d="M268.09,118a1.84,1.84,0,0,0-3.34,0v9.74a1.85,1.85,0,0,0,3.33,0Z"/><rect class="cls-2" y="79.28" width="350" height="5"/><rect class="cls-2" y="147.28" width="350" height="4"/></svg>