<svg id="Layer_1" data-name="Layer 1" xmlns="http://www.w3.org/2000/svg" xmlns:xlink="http://www.w3.org/1999/xlink" viewBox="0 0 350 290.28"><defs><style>.cls-1,.cls-7{fill:#c1ad73;}.cls-2{fill:#ececec;}.cls-3,.cls-8{fill:#ccc;}.cls-4{fill:#fff;}.cls-5{opacity:0.05;isolation:isolate;fill:url(#linear-gradient);}.cls-6{fill:none;stroke:#fff;stroke-miterlimit:10;}.cls-7{font-size:4px;font-family:MyriadPro-Regular, Myriad Pro;}.cls-8{opacity:0.6;}</style><linearGradient id="linear-gradient" x1="-1.31" y1="260.53" x2="350.14" y2="260.53" gradientUnits="userSpaceOnUse"><stop offset="0" stop-color="#c69c6d"/><stop offset="0.1" stop-color="#a3815a"/><stop offset="0.26" stop-color="#725a3f"/><stop offset="0.42" stop-color="#493a28"/><stop offset="0.58" stop-color="#292017"/><stop offset="0.73" stop-color="#120e0a"/><stop offset="0.87" stop-color="#050403"/><stop offset="1"/></linearGradient></defs><title>InstashopGoldArtboard 1</title><rect class="cls-1" x="-0.22" y="83.3" width="349.86" height="150.39"/><rect class="cls-2" x="-0.06" y="213.13" width="352.5" height="4.17"/><circle class="cls-2" cx="167.33" cy="139.85" r="3.83"/><circle class="cls-2" cx="176.24" cy="139.85" r="3.83"/><circle class="cls-2" cx="185.15" cy="139.85" r="3.83"/><circle class="cls-2" cx="194.06" cy="139.85" r="3.83"/><circle class="cls-2" cx="167.33" cy="130.56" r="3.83"/><circle class="cls-2" cx="180.78" cy="132.38" r="3.83"/><circle class="cls-2" cx="194.06" cy="130.56" r="3.83"/><circle class="cls-2" cx="174.95" cy="126.87" r="3.83"/><circle class="cls-2" cx="186.61" cy="125.81" r="3.83"/><circle class="cls-2" cx="202.68" cy="139.85" r="3.83"/><circle class="cls-2" cx="202.68" cy="130.56" r="3.83"/><polygon class="cls-2" points="25.7 134.39 21.96 134.28 15 134.28 15 134.49 10.02 134.49 13.08 142.61 13.43 142.21 21.9 142.29 22.28 142.66 25.7 134.39"/><polygon class="cls-2" points="25.7 122.3 21.96 122.28 15 122.28 15 122.31 10.02 122.31 13.08 130.43 13.43 130.03 21.9 130.11 22.28 130.53 25.7 122.3"/><polygon class="cls-2" points="25.7 110.21 21.96 110.28 15 110.28 15 110.13 10.02 110.14 13.08 118.25 13.43 117.86 21.9 117.93 22.28 118.39 25.7 110.21"/><polygon class="cls-2" points="43.41 134.39 39.66 134.28 31 134.28 31 134.49 26.87 134.49 30.36 142.61 30.92 142.21 39.5 142.29 39.93 142.66 43.41 134.39"/><polygon class="cls-2" points="43.41 122.3 39.66 122.28 31 122.28 31 122.31 26.87 122.31 30.36 130.43 30.92 130.03 39.5 130.11 39.93 130.53 43.41 122.3"/><polygon class="cls-2" points="61.11 134.39 57.36 134.28 49 134.28 49 134.49 44.72 134.49 48.14 142.61 48.66 142.21 57.22 142.29 57.64 142.66 61.11 134.39"/><polygon class="cls-2" points="61.11 122.3 57.36 122.28 49 122.28 49 122.31 44.72 122.31 48.14 130.43 48.66 130.03 57.22 130.11 57.64 130.53 61.11 122.3"/><polygon class="cls-2" points="61.11 110.21 57.36 110.28 49 110.28 49 110.13 44.72 110.14 48.14 118.25 48.66 117.86 57.22 117.93 57.64 118.39 61.11 110.21"/><polygon class="cls-2" points="78.81 134.39 75.07 134.28 67 134.28 67 134.49 62.57 134.49 65.91 142.61 66.4 142.21 74.95 142.29 75.35 142.66 78.81 134.39"/><path class="cls-3" d="M100.3,113.95l-2.55,0-2.28,0S86.2,134,95,142.28h6C109.69,134,100.3,113.95,100.3,113.95Z"/><path class="cls-3" d="M115.44,113.95l-2.55,0-2.28,0s-9.26,20.07-.51,28.34h6C124.83,134,115.44,113.95,115.44,113.95Z"/><path class="cls-3" d="M145.73,113.95l-2.55,0-2.28,0s-9.26,20.07-.51,28.34h6C155.13,134,145.73,113.95,145.73,113.95Z"/><rect class="cls-4" x="-1.31" y="229.39" width="351.45" height="62.29"/><rect class="cls-5" x="-1.31" y="229.39" width="351.45" height="62.29"/><polygon class="cls-2" points="38.83 229.29 -6.43 291.71 66.11 291.6 109.5 229.33 38.83 229.29"/><polygon class="cls-2" points="180.83 229.29 135.56 291.71 208.1 291.6 251.5 229.33 180.83 229.29"/><polygon class="cls-2" points="322.83 229.29 277.56 291.71 350.11 291.6 393.5 229.33 322.83 229.29"/><line class="cls-6" x1="-1" y1="257.78" x2="364" y2="257.78"/><ellipse class="cls-2" cx="245.79" cy="233.37" rx="6.02" ry="5.66"/><path class="cls-1" d="M132.15,25.14l.46.36a.59.59,0,0,1,.22.51l.26.21a.73.73,0,0,0,1-.12l.63-.8a.72.72,0,0,0-.12-1l-1.77-1.39a.73.73,0,0,0-1,.12l-.63.8a.72.72,0,0,0,.12,1l.26.21A.59.59,0,0,1,132.15,25.14Z"/><path class="cls-1" d="M121.7,20.37a1.16,1.16,0,0,1-1,.58l-1.16,0a1.16,1.16,0,0,1-1-.57,20.12,20.12,0,1,0,3.16,0Zm-1.07,37.77a17.75,17.75,0,1,1,17.49-18.05A17.78,17.78,0,0,1,120.63,58.14Z"/><path class="cls-1" d="M121.68,20.37a1.13,1.13,0,0,0,0-1.21l-3.06.05a1.13,1.13,0,0,0,0,1.19q.71-.06,1.43-.08C120.56,20.32,121.12,20.33,121.68,20.37Z"/><path class="cls-1" d="M119.52,18.68l1.15,0a1.15,1.15,0,0,1,1,.5h.66a1.41,1.41,0,0,0,1.38-1.43l0-2a1.41,1.41,0,0,0-1.43-1.38l-4.38.07a1.41,1.41,0,0,0-1.38,1.43l0,2a1.41,1.41,0,0,0,1.43,1.38h.66A1.15,1.15,0,0,1,119.52,18.68Z"/><line class="cls-1" x1="120.78" y1="33.4" x2="120.69" y2="28.22"/><path class="cls-1" d="M120.49,43.86l-2.82-10.6a.22.22,0,0,1,.21-.28l5.05-.09a.22.22,0,0,1,.22.27l-2.23,10.69A.22.22,0,0,1,120.49,43.86Z"/><path class="cls-1" d="M120.53,32.93l-2.65,0a.22.22,0,0,0-.21.28l2.82,10.6a.22.22,0,0,0,.23.17Z"/><path class="cls-1" d="M120.46,28.82a1.25,1.25,0,0,1,.55-1.05l.75-.51a.11.11,0,0,1,.11.14l-1.19,5.44a.14.14,0,0,1-.15.09Z"/><path class="cls-1" d="M120.46,28.82a1.25,1.25,0,0,0-.58-1l-.77-.49a.11.11,0,0,0-.11.14l1.37,5.4a.14.14,0,0,0,.15.08Z"/><rect class="cls-4" x="39.74" y="150.94" width="16.75" height="8.25"/><rect class="cls-4" x="108.18" y="150.94" width="16.75" height="8.25"/><rect class="cls-4" x="176.62" y="151.94" width="16.75" height="8.25"/><rect class="cls-4" x="245.06" y="150.94" width="16.75" height="8.25"/><rect class="cls-4" x="313.5" y="150.94" width="16.75" height="8.25"/><text class="cls-7" transform="translate(47.12 156.21)">$</text><text class="cls-7" transform="translate(115.89 156.21)">$</text><text class="cls-7" transform="translate(184.07 157.21)">$</text><text class="cls-7" transform="translate(252.52 156.21)">$</text><text class="cls-7" transform="translate(320.97 156.21)">$</text><rect class="cls-4" x="39.74" y="83.77" width="16.75" height="8.25"/><rect class="cls-4" x="108.18" y="83.77" width="16.75" height="8.25"/><rect class="cls-4" x="176.62" y="83.77" width="16.75" height="8.25"/><rect class="cls-4" x="245.06" y="83.77" width="16.75" height="8.25"/><rect class="cls-4" x="313.5" y="83.77" width="16.75" height="8.25"/><text class="cls-7" transform="translate(47.12 89.04)">$</text><text class="cls-7" transform="translate(115.89 89.04)">$</text><text class="cls-7" transform="translate(184.07 89.04)">$</text><text class="cls-7" transform="translate(252.52 89.04)">$</text><text class="cls-7" transform="translate(320.97 89.04)">$</text><rect class="cls-2" x="93.5" y="175.79" width="11.43" height="33.15"/><rect class="cls-2" x="107.45" y="175.79" width="11.43" height="33.15"/><rect class="cls-2" x="121.48" y="175.79" width="11.43" height="33.15"/><rect class="cls-2" x="135.37" y="175.79" width="11.43" height="33.15"/><rect class="cls-3" x="161.41" y="191.72" width="9.8" height="16.84" rx="4.83" ry="4.83"/><rect class="cls-3" x="182.73" y="191.72" width="9.8" height="16.84" rx="4.83" ry="4.83"/><rect class="cls-3" x="193.39" y="191.72" width="9.8" height="16.84" rx="4.83" ry="4.83"/><rect class="cls-8" x="218.64" y="197.41" width="13.57" height="11.62"/><rect class="cls-8" x="234.53" y="197.41" width="13.57" height="11.62"/><rect class="cls-8" x="250.42" y="197.41" width="13.57" height="11.62"/><rect class="cls-8" x="234.53" y="188.02" width="13.57" height="11.62"/><rect class="cls-8" x="266.33" y="197.41" width="13.57" height="11.62"/><rect class="cls-8" x="266.33" y="188.02" width="13.57" height="11.62"/><polygon class="cls-8" points="23.52 194.33 30.13 206.48 16.92 206.48 23.52 194.33"/><polygon class="cls-8" points="38.66 194.33 45.27 206.48 32.06 206.48 38.66 194.33"/><polygon class="cls-8" points="53.8 194.33 60.41 206.48 47.2 206.48 53.8 194.33"/><polygon class="cls-8" points="69.41 194.45 75.95 206.48 62.87 206.48 69.41 194.45"/><polygon class="cls-8" points="38.66 179.81 45.27 191.96 32.06 191.96 38.66 179.81"/><polygon class="cls-8" points="53.8 179.81 60.41 191.96 47.2 191.96 53.8 179.81"/><polygon class="cls-8" points="68.94 179.81 75.55 191.96 62.34 191.96 68.94 179.81"/><polygon class="cls-8" points="53.8 165.29 60.41 177.44 47.2 177.44 53.8 165.29"/><rect class="cls-2" x="290.79" y="200.57" width="11.01" height="7.34" rx="2.9" ry="2.9"/><rect class="cls-2" x="290.79" y="192.17" width="11.01" height="7.34" rx="2.9" ry="2.9"/><rect class="cls-2" x="290.79" y="183.77" width="11.01" height="7.34" rx="2.9" ry="2.9"/><rect class="cls-2" x="303.87" y="200.57" width="11.01" height="7.34" rx="2.9" ry="2.9"/><rect class="cls-2" x="303.87" y="192.17" width="11.01" height="7.34" rx="2.9" ry="2.9"/><rect class="cls-2" x="292.79" y="134.78" width="18.96" height="7.54" rx="1.15" ry="1.15"/><rect class="cls-2" x="313.69" y="134.78" width="18.96" height="7.54" rx="1.15" ry="1.15"/><rect class="cls-2" x="334.59" y="134.78" width="18.96" height="7.54" rx="1.15" ry="1.15"/><rect class="cls-2" x="313.69" y="125.33" width="18.96" height="7.54" rx="1.15" ry="1.15"/><rect class="cls-2" x="334.59" y="125.33" width="18.96" height="7.54" rx="1.15" ry="1.15"/><rect class="cls-2" x="313.69" y="115.88" width="18.96" height="7.54" rx="1.15" ry="1.15"/><rect class="cls-2" x="313.69" y="106.44" width="18.96" height="7.54" rx="1.15" ry="1.15"/><rect class="cls-2" x="334.59" y="115.88" width="18.96" height="7.54" rx="1.15" ry="1.15"/><rect class="cls-2" x="316.94" y="200.57" width="11.01" height="7.34" rx="2.9" ry="2.9"/><rect class="cls-2" x="330.08" y="200.57" width="11.01" height="7.34" rx="2.9" ry="2.9"/><rect class="cls-2" x="330.08" y="192.17" width="11.01" height="7.34" rx="2.9" ry="2.9"/><rect class="cls-2" x="330.08" y="183.77" width="11.01" height="7.34" rx="2.9" ry="2.9"/><path class="cls-3" d="M236,128.08a2.32,2.32,0,0,0-4.23,0v12.33a2.34,2.34,0,0,0,4.22,0Z"/><path class="cls-3" d="M236,111.61a2.32,2.32,0,0,0-4.23,0v12.33a2.34,2.34,0,0,0,4.22,0Z"/><path class="cls-3" d="M242.31,128.08a2.32,2.32,0,0,0-4.23,0v12.33a2.34,2.34,0,0,0,4.22,0Z"/><path class="cls-3" d="M242.31,111.61a2.32,2.32,0,0,0-4.23,0v12.33a2.34,2.34,0,0,0,4.22,0Z"/><path class="cls-3" d="M248.64,128.08a2.32,2.32,0,0,0-4.23,0v12.33a2.34,2.34,0,0,0,4.22,0Z"/><path class="cls-3" d="M259.53,141.79a2.32,2.32,0,0,0,2.21-3.6l-10.51-6.46a2.34,2.34,0,0,0-2.21,3.6Z"/><path class="cls-3" d="M267.64,128.08a2.32,2.32,0,0,0-4.23,0v12.33a2.34,2.34,0,0,0,4.22,0Z"/><path class="cls-3" d="M265,127.59a2.32,2.32,0,0,0-3-3l-8.75,8.69a2.34,2.34,0,0,0,3,3Z"/><path class="cls-3" d="M274,128.08a2.32,2.32,0,0,0-4.23,0v12.33a2.34,2.34,0,0,0,4.22,0Z"/><path class="cls-3" d="M280.3,128.08a2.32,2.32,0,0,0-4.23,0v12.33a2.34,2.34,0,0,0,4.22,0Z"/><path class="cls-3" d="M274,111.61a2.32,2.32,0,0,0-4.23,0v12.33a2.34,2.34,0,0,0,4.22,0Z"/><rect class="cls-2" y="79.28" width="350" height="5"/><rect class="cls-2" y="147.28" width="350" height="4"/><polygon class="cls-3" points="205.68 203.09 218.06 241.15 324.11 246.42 336.11 183.86 205.68 203.09"/><polygon class="cls-2" points="209.57 205.25 220.11 238.9 321.85 243.28 332.67 186.86 209.57 205.25"/><ellipse class="cls-3" cx="306.21" cy="267.39" rx="6.46" ry="6.08"/><ellipse class="cls-2" cx="306.28" cy="267.46" rx="4.35" ry="4.09"/><path class="cls-1" d="M303.72,270.76l5.14-6.59a4.5,4.5,0,0,0-2.58-.8,4.23,4.23,0,0,0-4.35,4.09A4,4,0,0,0,303.72,270.76Z"/><ellipse class="cls-3" cx="252.03" cy="266.95" rx="6.46" ry="6.08"/><ellipse class="cls-2" cx="252.18" cy="267.01" rx="4.35" ry="4.09"/><path class="cls-1" d="M249.44,270.31l5.14-6.59a4.5,4.5,0,0,0-2.58-.8,4.23,4.23,0,0,0-4.35,4.09A4,4,0,0,0,249.44,270.31Z"/><path class="cls-3" d="M346.91,176.28a1.28,1.28,0,0,0-1.26-1.3,1.35,1.35,0,0,0-.54.1l-10.32,3.12-1.85,7.88,2.55.67,1.52-7,8.86-2.29v0A1.25,1.25,0,0,0,346.91,176.28Z"/><path class="cls-3" d="M312.15,243.09l-1.62,1.17,5.78,8L311,259.87l-73-.95v0h.17a.92.92,0,0,0-.92,1,.89.89,0,0,0,.88,1H238l74.12,1,6.53-9.63Z"/></svg>