<svg id="Layer_1" data-name="Layer 1" xmlns="http://www.w3.org/2000/svg" xmlns:xlink="http://www.w3.org/1999/xlink" viewBox="0 0 357.86 290.3"><defs><style>.cls-1{fill:#d8cbad;}.cls-2{opacity:0.02;fill:url(#linear-gradient);}.cls-2,.cls-20,.cls-22,.cls-24,.cls-25,.cls-26,.cls-27,.cls-28,.cls-30,.cls-31{isolation:isolate;}.cls-24,.cls-3{fill:#c1ad73;}.cls-4{opacity:0.1;}.cls-29,.cls-5{fill:none;}.cls-6{fill:url(#linear-gradient-2);}.cls-7{fill:url(#linear-gradient-3);}.cls-8{fill:url(#linear-gradient-4);}.cls-9{fill:url(#linear-gradient-5);}.cls-10{fill:url(#linear-gradient-6);}.cls-11{fill:url(#linear-gradient-7);}.cls-12{fill:url(#linear-gradient-8);}.cls-13{fill:url(#linear-gradient-9);}.cls-14{fill:url(#linear-gradient-10);}.cls-15{fill:url(#linear-gradient-11);}.cls-16{fill:url(#linear-gradient-12);}.cls-17{fill:url(#linear-gradient-13);}.cls-18{fill:url(#linear-gradient-14);}.cls-19{fill:url(#linear-gradient-15);}.cls-20,.cls-22,.cls-25,.cls-26,.cls-27,.cls-28,.cls-30{opacity:0.05;}.cls-20{fill:url(#linear-gradient-16);}.cls-21{fill:#ececec;}.cls-22{fill:url(#linear-gradient-17);}.cls-23,.cls-25{fill:#fff;}.cls-24{font-size:4px;font-family:ArialMT, Arial;}.cls-26{fill:url(#linear-gradient-18);}.cls-27{fill:url(#linear-gradient-19);}.cls-28{fill:url(#linear-gradient-20);}.cls-29{stroke:#fff;stroke-miterlimit:10;}.cls-30{fill:url(#linear-gradient-21);}.cls-31{opacity:0.1;fill:url(#linear-gradient-22);}</style><linearGradient id="linear-gradient" x1="7.13" y1="681.56" x2="358.91" y2="681.56" gradientTransform="translate(0 -528)" gradientUnits="userSpaceOnUse"><stop offset="0" stop-color="#c69c6d"/><stop offset="0.1" stop-color="#a3815a"/><stop offset="0.26" stop-color="#725a3f"/><stop offset="0.42" stop-color="#493a28"/><stop offset="0.58" stop-color="#292017"/><stop offset="0.73" stop-color="#120e0a"/><stop offset="0.87" stop-color="#050403"/><stop offset="1"/></linearGradient><linearGradient id="linear-gradient-2" x1="243.33" y1="1881.07" x2="247.16" y2="1881.07" gradientTransform="translate(4.79 -1862.81) rotate(-0.57)" xlink:href="#linear-gradient"/><linearGradient id="linear-gradient-3" x1="212.42" y1="1897.03" x2="252.57" y2="1897.03" gradientTransform="translate(4.79 -1862.81) rotate(-0.57)" xlink:href="#linear-gradient"/><linearGradient id="linear-gradient-4" x1="243.33" y1="1881.72" x2="247.16" y2="1881.72" gradientTransform="translate(4.79 -1862.81) rotate(-0.57)" xlink:href="#linear-gradient"/><linearGradient id="linear-gradient-5" x1="212.42" y1="1881.72" x2="252.57" y2="1881.72" gradientTransform="translate(4.79 -1862.81) rotate(-0.57)" xlink:href="#linear-gradient"/><linearGradient id="linear-gradient-6" x1="230.73" y1="1876.42" x2="234.16" y2="1876.42" gradientTransform="translate(4.79 -1862.81) rotate(-0.57)" xlink:href="#linear-gradient"/><linearGradient id="linear-gradient-7" x1="228.82" y1="1873.46" x2="236.02" y2="1873.46" gradientTransform="translate(4.79 -1862.81) rotate(-0.57)" xlink:href="#linear-gradient"/><linearGradient id="linear-gradient-8" x1="229.9" y1="1895.03" x2="235.39" y2="1895.03" gradientTransform="translate(4.79 -1862.81) rotate(-0.57)" xlink:href="#linear-gradient"/><linearGradient id="linear-gradient-9" x1="229.9" y1="1889.73" x2="232.87" y2="1889.73" gradientTransform="translate(4.79 -1862.81) rotate(-0.57)" xlink:href="#linear-gradient"/><linearGradient id="linear-gradient-10" x1="229.9" y1="1895.05" x2="235.39" y2="1895.05" gradientTransform="translate(4.79 -1862.81) rotate(-0.57)" xlink:href="#linear-gradient"/><linearGradient id="linear-gradient-11" x1="229.9" y1="1895.05" x2="232.87" y2="1895.05" gradientTransform="translate(4.79 -1862.81) rotate(-0.57)" xlink:href="#linear-gradient"/><linearGradient id="linear-gradient-12" x1="232.72" y1="1886.57" x2="234.14" y2="1886.57" gradientTransform="translate(4.79 -1862.81) rotate(-0.57)" xlink:href="#linear-gradient"/><linearGradient id="linear-gradient-13" x1="231.27" y1="1886.74" x2="232.76" y2="1886.74" gradientTransform="translate(4.79 -1862.81) rotate(-0.57)" xlink:href="#linear-gradient"/><linearGradient id="linear-gradient-14" x1="232.72" y1="1887.4" x2="234.14" y2="1887.4" gradientTransform="translate(4.79 -1862.81) rotate(-0.57)" xlink:href="#linear-gradient"/><linearGradient id="linear-gradient-15" x1="231.27" y1="1887.4" x2="232.76" y2="1887.4" gradientTransform="translate(4.79 -1862.81) rotate(-0.57)" xlink:href="#linear-gradient"/><linearGradient id="linear-gradient-16" x1="245.14" y1="-1448.72" x2="326.57" y2="-1448.72" gradientTransform="matrix(1, 0, 0, -1, 0, -1196)" xlink:href="#linear-gradient"/><linearGradient id="linear-gradient-17" x1="-84.71" y1="-1456.67" x2="31.19" y2="-1456.67" gradientTransform="matrix(1, 0, 0, -1, 0, -1196)" xlink:href="#linear-gradient"/><linearGradient id="linear-gradient-18" x1="1.44" y1="-1456.67" x2="117.34" y2="-1456.67" gradientTransform="matrix(1, 0, 0, -1, 0, -1196)" xlink:href="#linear-gradient"/><linearGradient id="linear-gradient-19" x1="143.44" y1="288.67" x2="259.34" y2="288.67" gradientTransform="translate(0 -28)" xlink:href="#linear-gradient"/><linearGradient id="linear-gradient-20" x1="285.44" y1="288.67" x2="401.34" y2="288.67" gradientTransform="translate(0 -28)" xlink:href="#linear-gradient"/><linearGradient id="linear-gradient-21" x1="81.89" y1="280.72" x2="163.32" y2="280.72" gradientTransform="translate(0 -28)" xlink:href="#linear-gradient"/><linearGradient id="linear-gradient-22" x1="54.13" y1="243.27" x2="177.23" y2="243.27" gradientTransform="translate(0 -28)" xlink:href="#linear-gradient"/></defs><title>InstashopArtboard 1</title><rect class="cls-1" x="7.64" y="84.15" width="350.39" height="150.4"/><path class="cls-2" d="M239,22c7.9-7.87,13.06-7.74,15.06-7.59l2.43.22a18,18,0,0,1,11.82,7.65,41.56,41.56,0,0,1,2,3.91,14.53,14.53,0,0,1,.53,2.38c-.3.27,87.83,130.23,87.83,130.23.62.91-.18.47-.18,1.57l-.08,123.71a7.79,7.79,0,0,1-7.79,7.78L8,290.89c-2.7,0,1.89,3.24.5,1.16-.82-1.22-.24-5.63-.25-7.21L8,169.31C8,169.24,239,22,239,22Z"/><path class="cls-3" d="M7.6,169,142.87,84.53,7.6,84.21v98.51C7.61,173.88,7.6,169,7.6,169Z"/><path class="cls-3" d="M8.21,169,143.48,84.53,8.21,84.21v98.51C8.22,173.88,8.21,169,8.21,169Z"/><path class="cls-3" d="M8.21,169,143.48,84.53,8.21,84.21v98.51C8.22,173.88,8.21,169,8.21,169Z"/><g class="cls-4"><path class="cls-5" d="M253.13,14.12a17.77,17.77,0,1,0,18.08,17.45h0A17.83,17.83,0,0,0,253.13,14.12Z"/><path class="cls-5" d="M253.85,10.17h-1.18a1.09,1.09,0,0,0-.9.63l3.07-.09A1.25,1.25,0,0,0,253.85,10.17Z"/><path class="cls-6" d="M267.77,16.83a.72.72,0,0,0-.09-1l-1.81-1.36a.72.72,0,0,0-1,.09l-.4.51a20,20,0,0,1,2.9,2.29Z"/><path class="cls-7" d="M267.37,17.36l-.22.28a.72.72,0,0,1-1,.09l-.27-.18a.43.43,0,0,0-.18-.54l-.45-.36c-.09-.18-.36-.18-.63-.09l-.27-.18a.72.72,0,0,1-.09-1l.24-.3a19.78,19.78,0,0,0-9.64-3.22,1,1,0,0,1-1,.54h-1.19a1,1,0,0,1-1-.54,20.11,20.11,0,1,0,15.7,5.5Zm-13.6,32.29a17.77,17.77,0,1,1,17.44-18.09h0a17.83,17.83,0,0,1-17.45,18.08Z"/><path class="cls-8" d="M264.37,16.38l.27.18c.27-.09.54-.09.63.09l.45.36a.43.43,0,0,1,.18.54l.27.18a.72.72,0,0,0,1-.09l.22-.28a20,20,0,0,0-2.86-2.28l-.24.3A.72.72,0,0,0,264.37,16.38Z"/><path class="cls-9" d="M264.37,16.38l.27.18c.27-.09.54-.09.63.09l.45.36a.43.43,0,0,1,.18.54l.27.18a.72.72,0,0,0,1-.09l.22-.28a20,20,0,0,0-2.86-2.28l-.24.3A.72.72,0,0,0,264.37,16.38Z"/><path class="cls-10" d="M254.84,10.68l-3.07.09h0a1.31,1.31,0,0,0-.18.63,1.29,1.29,0,0,0,.18.54c.45,0,.9-.09,1.45-.09a4.92,4.92,0,0,1,1.63,0,1.28,1.28,0,0,0,.18-.54A1.31,1.31,0,0,0,254.84,10.68Z"/><path class="cls-11" d="M252.67,10.17h1.18a1.25,1.25,0,0,1,1,.54h.63a1.36,1.36,0,0,0,1.36-1.36h0V7.26a1.36,1.36,0,0,0-1.31-1.37h-.12L251,6a1.36,1.36,0,0,0-1.36,1.36h0V9.45A1.36,1.36,0,0,0,251,10.81h.72A1.09,1.09,0,0,1,252.67,10.17Z"/></g><g class="cls-4"><path class="cls-12" d="M256.11,24.42h-2.44l.27,11c-.18,0-.27-.09-.27-.18l-2.79-10.53h0l2.8,10.58c0,.18.36.18.36,0l2.26-10.67C256.37,24.51,256.29,24.42,256.11,24.42Z"/><path class="cls-13" d="M251.05,24.51h0c-.18,0-.27.18-.18.27h0C250.9,24.6,251,24.51,251.05,24.51Z"/><path class="cls-14" d="M253.94,35.45l-.27-11h-2.62c-.08,0-.15.08-.17.23l2.79,10.54C253.67,35.36,253.76,35.45,253.94,35.45Z"/><path class="cls-15" d="M253.94,35.45l-.27-11h-2.62c-.08,0-.15.08-.17.23l2.79,10.54C253.67,35.36,253.76,35.45,253.94,35.45Z"/><path class="cls-16" d="M253.76,24.24l1.18-5.42c0-.09,0-.18-.09-.18l-.72.54a1.29,1.29,0,0,0-.54,1.08l.17,4Z"/><path class="cls-17" d="M253.67,24.47h.09v-.21c0,.07-.09.08-.17.08V20.26a1,1,0,0,0-.54-1l-.72-.45c-.09,0-.09.09-.09.18l1.36,5.42h.09Z"/><path class="cls-18" d="M253.75,24.26l-.17-4v4.07C253.66,24.33,253.73,24.32,253.75,24.26Z"/><path class="cls-19" d="M253.75,24.26l-.17-4v4.07C253.66,24.33,253.73,24.32,253.75,24.26Z"/></g><path class="cls-20" d="M319.94,243.27l-1.6,1.2,5.8,8-5.3,7.6-73-.9h.2c-.6,0-.9.4-.9,1a.92.92,0,0,0,.83,1h0l74.1,1,6.5-9.6Z"/><rect class="cls-21" x="7.84" y="79.84" width="350" height="4.38"/><polygon class="cls-22" points="-39.51 229.47 -84.71 291.87 -12.21 291.77 31.19 229.47 -39.51 229.47"/><rect class="cls-23" x="228.44" y="199.3" width="17.58" height="9.87"/><rect class="cls-23" x="248.98" y="199.3" width="17.58" height="9.87"/><rect class="cls-23" x="269.09" y="199.3" width="17.58" height="9.87"/><polygon class="cls-3" points="358.03 158.59 358.03 84.15 307.65 84.15 358.03 158.59"/><line class="cls-5" x1="253.41" y1="26.88" x2="253.32" y2="21.72"/><rect class="cls-23" x="184.44" y="84.39" width="16.7" height="8.2"/><rect class="cls-23" x="252.94" y="84.39" width="16.7" height="8.2"/><rect class="cls-5" x="186.04" y="86.79" width="13.7" height="5.4"/><rect class="cls-5" x="254.54" y="86.79" width="13.7" height="5.4"/><text class="cls-24" transform="translate(260.36 89.63)">$</text><rect class="cls-21" x="7.74" y="213.27" width="352.5" height="4.2"/><polygon class="cls-23" points="45.3 130.33 20.37 130.31 25.66 142.72 26.41 142.11 39.41 142.27 40.01 142.87 45.3 130.33"/><polygon class="cls-23" points="45.3 115.28 39.71 115.28 26.56 115.28 26.56 115.28 20.37 115.28 25.66 127.53 26.41 126.92 39.41 127.07 40.01 127.68 45.3 115.28"/><polygon class="cls-23" points="74.11 130.33 49.17 130.31 54.47 142.72 55.22 142.11 68.22 142.27 68.81 142.87 74.11 130.33"/><path class="cls-21" d="M108.14,114.07h-4.9s-9.3,20.1-.5,28.3h6C117.54,134.17,108.14,114.07,108.14,114.07Z"/><path class="cls-21" d="M123.24,114.07h-4.9s-9.3,20.1-.5,28.3h6C132.64,134.17,123.24,114.07,123.24,114.07Z"/><path class="cls-21" d="M153.54,114.07h-4.9s-9.3,20.1-.5,28.3h6C162.94,134.17,153.54,114.07,153.54,114.07Z"/><rect class="cls-23" x="6.54" y="229.57" width="351.5" height="62.3"/><rect class="cls-25" x="8.11" y="230.15" width="351.5" height="62.3"/><polygon class="cls-26" points="46.64 229.47 1.44 291.87 73.94 291.77 117.34 229.47 46.64 229.47"/><polygon class="cls-27" points="188.64 229.47 143.44 291.87 215.94 291.77 259.34 229.47 188.64 229.47"/><polygon class="cls-28" points="330.64 229.47 285.44 291.87 357.94 291.77 401.34 229.47 330.64 229.47"/><line class="cls-29" x1="6.84" y1="257.97" x2="371.84" y2="257.97"/><rect class="cls-23" x="47.54" y="151.07" width="16.7" height="8.2"/><rect class="cls-23" x="116.04" y="151.07" width="16.7" height="8.2"/><rect class="cls-23" x="184.44" y="151.07" width="16.7" height="8.2"/><rect class="cls-23" x="252.94" y="151.07" width="16.7" height="8.2"/><rect class="cls-23" x="321.34" y="151.07" width="16.7" height="8.2"/><rect class="cls-5" x="49.14" y="153.57" width="13.7" height="5.4"/><text class="cls-24" transform="translate(54.96 156.38)">$</text><rect class="cls-5" x="117.84" y="153.57" width="13.7" height="5.4"/><text class="cls-24" transform="translate(123.73 156.38)">$</text><rect class="cls-5" x="186.04" y="154.57" width="13.7" height="5.4"/><text class="cls-24" transform="translate(191.91 156.38)">$</text><rect class="cls-5" x="254.54" y="153.57" width="13.7" height="5.4"/><text class="cls-24" transform="translate(260.36 156.38)">$</text><rect class="cls-5" x="322.94" y="153.57" width="13.7" height="5.4"/><text class="cls-24" transform="translate(328.81 156.38)">$</text><rect class="cls-23" x="47.54" y="83.97" width="16.7" height="8.2"/><rect class="cls-23" x="116.04" y="83.97" width="16.7" height="8.2"/><rect class="cls-25" x="184.44" y="83.97" width="16.7" height="8.2"/><rect class="cls-23" x="252.94" y="84.12" width="16.7" height="8.05"/><rect class="cls-23" x="321.34" y="84.11" width="16.7" height="8.06"/><rect class="cls-5" x="49.14" y="86.37" width="13.7" height="5.4"/><text class="cls-24" transform="translate(54.96 89.21)">$</text><rect class="cls-5" x="117.84" y="86.37" width="13.7" height="5.4"/><text class="cls-24" transform="translate(123.73 89.21)">$</text><rect class="cls-5" x="186.04" y="86.37" width="13.7" height="5.4"/><text class="cls-24" transform="translate(191.91 89.21)">$</text><rect class="cls-5" x="254.54" y="86.37" width="13.7" height="5.4"/><text class="cls-24" transform="translate(260.36 89.21)">$</text><rect class="cls-5" x="322.94" y="86.37" width="13.7" height="5.4"/><text class="cls-24" transform="translate(328.81 89.21)">$</text><rect class="cls-23" x="101.34" y="175.97" width="11.4" height="33.2"/><rect class="cls-23" x="115.24" y="175.97" width="11.4" height="33.2"/><rect class="cls-23" x="129.34" y="175.97" width="11.4" height="33.2"/><path class="cls-21" d="M188.3,208.76h-.14a6.57,6.57,0,0,1-6.57-6.57h0v-9.86a6.57,6.57,0,0,1,6.57-6.57h.14a6.57,6.57,0,0,1,6.57,6.57h0v9.9a6.57,6.57,0,0,1-6.57,6.57h0Z"/><path class="cls-21" d="M202.95,208.76h-.14a6.57,6.57,0,0,1-6.57-6.57h0v-9.86a6.57,6.57,0,0,1,6.57-6.57h.14a6.57,6.57,0,0,1,6.57,6.57h0v9.9A6.67,6.67,0,0,1,202.95,208.76Z"/><rect class="cls-23" x="269.19" y="187.07" width="17.56" height="10.5"/><polygon class="cls-21" points="31.34 194.47 37.94 206.67 24.74 206.67 31.34 194.47"/><polygon class="cls-21" points="46.54 194.47 53.14 206.67 39.94 206.67 46.54 194.47"/><polygon class="cls-21" points="61.64 194.47 68.24 206.67 55.04 206.67 61.64 194.47"/><polygon class="cls-21" points="77.24 194.67 83.74 206.67 70.74 206.67 77.24 194.67"/><polygon class="cls-21" points="46.54 179.97 53.14 192.17 39.94 192.17 46.54 179.97"/><polygon class="cls-21" points="61.64 179.97 68.24 192.17 55.04 192.17 61.64 179.97"/><polygon class="cls-21" points="76.74 179.97 83.44 192.17 70.14 192.17 76.74 179.97"/><path class="cls-21" d="M306.74,208.07h-5.2a2.9,2.9,0,0,1-2.9-2.9v-1.5a2.9,2.9,0,0,1,2.9-2.9h5.2a2.9,2.9,0,0,1,2.9,2.9v1.5A2.9,2.9,0,0,1,306.74,208.07Z"/><path class="cls-21" d="M306.74,199.67h-5.2a2.9,2.9,0,0,1-2.9-2.9v-1.5a2.9,2.9,0,0,1,2.9-2.9h5.2a2.9,2.9,0,0,1,2.9,2.9v1.5A2.9,2.9,0,0,1,306.74,199.67Z"/><path class="cls-21" d="M320.15,189.25h-5.83a3.25,3.25,0,0,1-3.25-3.25v-1.68a3.25,3.25,0,0,1,3.25-3.25h5.83a3.25,3.25,0,0,1,3.25,3.25V186A3.25,3.25,0,0,1,320.15,189.25Z"/><path class="cls-21" d="M319.84,208.07h-5.2a2.9,2.9,0,0,1-2.9-2.9v-1.5a2.9,2.9,0,0,1,2.9-2.9h5.2a2.9,2.9,0,0,1,2.9,2.9v1.5A2.9,2.9,0,0,1,319.84,208.07Z"/><path class="cls-21" d="M319.84,199.67h-5.2a2.9,2.9,0,0,1-2.9-2.9v-1.5a2.9,2.9,0,0,1,2.9-2.9h5.2a2.9,2.9,0,0,1,2.9,2.9v1.5A2.9,2.9,0,0,1,319.84,199.67Z"/><path class="cls-23" d="M327.73,142.46H302.36a1.85,1.85,0,0,1-1.82-1.82v-7.9a1.85,1.85,0,0,1,1.82-1.82h25.37a1.85,1.85,0,0,1,1.82,1.82v7.9A2,2,0,0,1,327.73,142.46Z"/><path class="cls-23" d="M359.48,142.46H334.11a1.85,1.85,0,0,1-1.82-1.82v-7.9a1.85,1.85,0,0,1,1.82-1.82h25.37a1.85,1.85,0,0,1,1.82,1.82v7.9A2,2,0,0,1,359.48,142.46Z"/><path class="cls-23" d="M359.48,128.18H334.11a1.85,1.85,0,0,1-1.82-1.82v-7.9a1.85,1.85,0,0,1,1.82-1.82h25.37a1.85,1.85,0,0,1,1.82,1.82v7.9A2,2,0,0,1,359.48,128.18Z"/><path class="cls-21" d="M332.94,208.07h-5.2a2.9,2.9,0,0,1-2.9-2.9v-1.5a2.9,2.9,0,0,1,2.9-2.9h5.2a2.9,2.9,0,0,1,2.9,2.9v1.5A3,3,0,0,1,332.94,208.07Z"/><path class="cls-21" d="M345.65,208.07h-5.83a3.25,3.25,0,0,1-3.25-3.25v-1.68a3.25,3.25,0,0,1,3.25-3.25h5.83a3.25,3.25,0,0,1,3.25,3.25v1.68A3.25,3.25,0,0,1,345.65,208.07Z"/><path class="cls-21" d="M345.65,198.66h-5.83a3.25,3.25,0,0,1-3.25-3.25v-1.68a3.25,3.25,0,0,1,3.25-3.25h5.83a3.25,3.25,0,0,1,3.25,3.25v1.68A3.25,3.25,0,0,1,345.65,198.66Z"/><path class="cls-21" d="M345.65,189.25h-5.83a3.25,3.25,0,0,1-3.25-3.25v-1.68a3.25,3.25,0,0,1,3.25-3.25h5.83a3.25,3.25,0,0,1,3.25,3.25V186A3.25,3.25,0,0,1,345.65,189.25Z"/><path class="cls-21" d="M248.66,117.08c0-.91-1.81-2.54-3.81-2.54S241,116,241,117.08v22.3a4.26,4.26,0,0,0,7.62,0Z"/><path class="cls-21" d="M268.42,142a4.3,4.3,0,0,0,4.17-6.53l-19-11.79a3.81,3.81,0,0,0-4,2,4,4,0,0,0,0,4.53Z"/><path class="cls-21" d="M283.11,117.08c0-.91-1.81-2.54-3.81-2.54s-3.81,1.45-3.81,2.54v22.3a4.26,4.26,0,0,0,7.62,0Z"/><path class="cls-21" d="M278.4,116.17a4.19,4.19,0,0,0-.91-4.53,3.83,3.83,0,0,0-4.53-.91l-16,15.78a3.88,3.88,0,0,0,.91,4.35,4,4,0,0,0,4.35,1.09Z"/><rect class="cls-21" x="7.84" y="147.47" width="350" height="4"/><rect class="cls-23" x="184.44" y="84.14" width="16.7" height="8.03"/><text class="cls-24" transform="translate(191.74 89.21)">$</text><rect class="cls-23" x="248.99" y="187.07" width="17.56" height="10.5"/><rect class="cls-21" x="7.84" y="79.47" width="350" height="5"/><rect class="cls-23" x="143.24" y="175.97" width="11.4" height="33.2"/><path class="cls-23" d="M206.91,129.62a12,12,0,0,0,12-12h-24a12,12,0,0,0,12,12Z"/><path class="cls-23" d="M206.91,143.79a12,12,0,0,0,12-12h-24A12,12,0,0,0,206.91,143.79Z"/><path class="cls-23" d="M181,143.79a12,12,0,0,0,12-12H169A12,12,0,0,0,181,143.79Z"/><rect class="cls-23" y="222.27" width="7.64" height="52.84"/><ellipse class="cls-21" cx="150.73" cy="267.57" rx="6.5" ry="6.1"/><ellipse class="cls-23" cx="150.83" cy="267.67" rx="4.3" ry="4.1"/><path class="cls-1" d="M148.23,271l5.1-6.6a4.46,4.46,0,0,0-2.6-.8,4,4,0,0,0-2.5,7.4Z"/><ellipse class="cls-21" cx="96.53" cy="267.07" rx="6.5" ry="6.1"/><ellipse class="cls-23" cx="96.73" cy="267.17" rx="4.3" ry="4.1"/><path class="cls-1" d="M94.14,270.47l5.1-6.6a4.46,4.46,0,0,0-2.6-.8,4.17,4.17,0,0,0-4.3,4v.06A4.39,4.39,0,0,0,94.14,270.47Z"/><path class="cls-30" d="M156.69,243.27l-1.6,1.2,5.8,8-5.3,7.6-73-.9h.2c-.6,0-.9.4-.9,1a.92.92,0,0,0,.83,1h0l74.1,1,6.5-9.6Z"/><path class="cls-23" d="M191.43,176.47a1.26,1.26,0,0,0-1.22-1.3h-.08a.75.75,0,0,0-.5.1l-10.3,3.1-1.9,7.9,2.6.7,1.5-7,8.9-2.3h0A1.39,1.39,0,0,0,191.43,176.47Z"/><polygon class="cls-23" points="50.23 203.27 62.63 241.27 168.63 246.57 180.63 184.07 50.23 203.27"/><polygon class="cls-31" points="54.13 205.47 64.63 239.07 166.43 243.47 177.23 187.07 54.13 205.47"/><path class="cls-23" d="M157.54,206.35h-4.9s-9.3,20.1-.5,28.3h6C166.94,226.45,157.54,206.35,157.54,206.35Z"/><polygon class="cls-23" points="144 222.67 138.41 222.67 125.27 222.67 125.27 222.67 119.08 222.67 124.36 234.92 125.11 234.31 138.12 234.46 138.72 235.07 144 222.67"/><path class="cls-23" d="M112.6,235.24H87.23a1.85,1.85,0,0,1-1.82-1.82v-7.9a1.85,1.85,0,0,1,1.82-1.82H112.6a1.85,1.85,0,0,1,1.82,1.82v7.9A2,2,0,0,1,112.6,235.24Z"/><polygon class="cls-23" points="92.34 206.94 98.94 219.04 85.74 219.04 92.34 206.94"/><path class="cls-23" d="M131.54,219.27a12,12,0,0,0,12-12h-24A12,12,0,0,0,131.54,219.27Z"/><path class="cls-23" d="M109.64,218.92h-5.2a2.9,2.9,0,0,1-2.9-2.9v-1.5a2.9,2.9,0,0,1,2.9-2.9h5.2a2.9,2.9,0,0,1,2.9,2.9V216a2.9,2.9,0,0,1-2.88,2.92Z"/></svg>