<svg id="Layer_1" data-name="Layer 1" xmlns="http://www.w3.org/2000/svg" viewBox="0 0 30 30"><defs><style>.cls-1{fill:#c1ad73;}.cls-2{fill:#fff;}</style></defs><title>LogoTabPortfolioSiteArtboard 1</title><rect class="cls-1" x="0.85" y="0.32" width="28.43" height="29.45"/><path class="cls-2" d="M20.94,19l-5.75,2.75-1.75-1.12,6.53-3a30.52,30.52,0,0,0-4.79-2.2L11.34,19l-1.72-.75,3.74-3.54a5.75,5.75,0,0,1-2.2-1.3,2.58,2.58,0,0,1-.94-1.87,1.92,1.92,0,0,1,.68-1.5,2.43,2.43,0,0,1,1.67-.61,4.37,4.37,0,0,1,2.92,1,3,3,0,0,1,1.21,2.38A2.79,2.79,0,0,1,15.62,15a18.19,18.19,0,0,1,5.31,2.65ZM13.8,14.26q1.83-1.44,1.83-2.29a1.45,1.45,0,0,0-.54-1.16,1.93,1.93,0,0,0-1.29-.46,2.22,2.22,0,0,0-1.35.49,1.62,1.62,0,0,0-.66,1.37Q11.79,13.43,13.8,14.26Zm6.9-5V11H17.89L16.71,9.24Z"/></svg>