<svg id="Layer_1" data-name="Layer 1" xmlns="http://www.w3.org/2000/svg" viewBox="0 0 350 280"><defs><style>.cls-1{fill:#ccc;}.cls-2,.cls-5{fill:#fff;}.cls-2{opacity:0.05;isolation:isolate;}.cls-3{fill:#ececec;}.cls-4,.cls-6{fill:#c1ad73;}.cls-6{opacity:0.5;}</style></defs><title>PrahsArtboard 1</title><polygon class="cls-1" points="293.16 330.75 10.87 202.31 119.63 202.17 383.78 254.07 293.16 330.75"/><path class="cls-2" d="M73.4,156.49a32.6,32.6,0,0,0,1.33-8.87c0-20.63-17-37.32-38-37.32a38.89,38.89,0,0,0-5.53.41c-18.31,2.63-32.4,17.81-32.4,36.58,0,3,.17,3.74,1,8.94Z"/><path class="cls-3" d="M57.54,144.39,349.73,51,351,159.3,73.4,156.48S59.58,157.5,57.54,144.39Z"/><path class="cls-1" d="M0,0-.2,156.23s3.81,3.07,13.56-12.86L91.3,0Z"/><polygon class="cls-1" points="350 156.25 -0.01 156.28 0.43 162.65 350 187.63 350 156.25"/><polygon class="cls-4" points="350 175.4 349.68 175.26 8.57 152.81 0.02 164.69 350 201.29 350 175.4"/><polygon class="cls-1" points="84.47 134.27 108.5 175.21 60.45 175.21 84.47 134.27"/><polygon class="cls-4" points="90.65 144.79 84.46 134.07 78.21 144.61 90.65 144.79"/><path class="cls-4" d="M82.58,145.45a5.19,5.19,0,0,1,2.36-.41,20.64,20.64,0,0,1,2.83.75,6.2,6.2,0,0,0,3.46,0l-.82-1.4H78.52l-.32.54A2.17,2.17,0,0,0,80.48,146,8.59,8.59,0,0,0,82.58,145.45Z"/><polygon class="cls-1" points="126.33 136.9 143.38 165.96 109.28 165.96 126.33 136.9"/><polygon class="cls-3" points="130.28 144 126.33 137.27 122.38 144 130.28 144"/><path class="cls-3" d="M123.34,145a4.7,4.7,0,0,0,1.27-.55,2.75,2.75,0,0,1,3,0A3.84,3.84,0,0,0,130,145a6.13,6.13,0,0,0,1.07-.12l-.89-1.51h-7.65l-.78,1.33A1.62,1.62,0,0,0,123.34,145Z"/><polygon class="cls-1" points="183.36 140.25 198.45 165.96 168.28 165.96 183.36 140.25"/><polygon class="cls-4" points="187.26 146.82 183.34 140.14 179.62 146.53 187.26 146.82"/><path class="cls-4" d="M180.72,147.38a4.15,4.15,0,0,0,1.12-.49,2.43,2.43,0,0,1,2.68,0,3.4,3.4,0,0,0,2.06.6,5.42,5.42,0,0,0,.94-.1l-.79-1.34L180,146l-.69,1.17A1.43,1.43,0,0,0,180.72,147.38Z"/><polygon class="cls-1" points="208.13 146.16 223.22 171.86 193.05 171.86 208.13 146.16"/><polygon class="cls-4" points="211.63 151.94 208.13 146 204.64 151.94 211.63 151.94"/><path class="cls-4" d="M205.49,153.28a4.15,4.15,0,0,0,1.12-.49,2.43,2.43,0,0,1,2.68,0,3.4,3.4,0,0,0,2.06.6,5.42,5.42,0,0,0,.94-.1l-.79-1.34h-6.77l-.69,1.17A1.43,1.43,0,0,0,205.49,153.28Z"/><polygon class="cls-1" points="226.12 140.25 246.18 169.33 206.06 169.33 226.12 140.25"/><polygon class="cls-4" points="230.84 147.14 226.12 140.33 221.28 147.28 230.84 147.14"/><path class="cls-4" d="M222.61,148.32a6,6,0,0,0,1.49-.55,3.71,3.71,0,0,1,3.56,0,5.1,5.1,0,0,0,2.73.67,8.42,8.42,0,0,0,1.26-.12l-1-1.51h-9l-.92,1.33A2.17,2.17,0,0,0,222.61,148.32Z"/><polygon class="cls-1" points="261.57 147.14 280.55 169.29 242.59 169.29 261.57 147.14"/><polygon class="cls-4" points="265.96 152.44 261.57 147.31 257.17 152.44 265.96 152.44"/><path class="cls-4" d="M258.24,153.28a6.62,6.62,0,0,0,1.41-.42,4.27,4.27,0,0,1,3.37,0,5.77,5.77,0,0,0,2.59.51,9.85,9.85,0,0,0,1.19-.09l-1-1.15h-8.51l-.87,1A2.49,2.49,0,0,0,258.24,153.28Z"/><polygon class="cls-1" points="281.5 143.21 300.35 168.8 262.66 168.8 281.5 143.21"/><polygon class="cls-4" points="285.74 148.96 281.5 143.1 277.34 148.94 285.74 148.96"/><path class="cls-4" d="M278.2,150.3a5.91,5.91,0,0,0,1.4-.49,3.69,3.69,0,0,1,3.35,0,5,5,0,0,0,2.57.59,8.43,8.43,0,0,0,1.18-.1l-1-1.33h-8.45l-.86,1.17A2.16,2.16,0,0,0,278.2,150.3Z"/><polygon class="cls-1" points="298.28 150.89 313.42 169.67 283.13 169.67 298.28 150.89"/><polygon class="cls-4" points="301.99 155.52 298.28 150.84 294.79 155.22 301.99 155.52"/><path class="cls-4" d="M295.62,156.1a5.06,5.06,0,0,0,1.13-.36,3.22,3.22,0,0,1,2.69,0,4.38,4.38,0,0,0,2.06.44,7.41,7.41,0,0,0,1-.08l-.79-1h-6.79l-.69.86A1.88,1.88,0,0,0,295.62,156.1Z"/><polygon class="cls-3" points="168.89 140.18 194.55 176.65 143.23 176.65 168.89 140.18"/><polygon class="cls-3" points="106.55 146.12 130.57 187.06 82.52 187.06 106.55 146.12"/><polygon class="cls-3" points="222.94 150.29 242 182.77 203.88 182.77 222.94 150.29"/><polygon class="cls-3" points="244.42 153.24 271.35 185.72 217.49 185.72 244.42 153.24"/><path class="cls-5" d="M100.24,156.87a3.19,3.19,0,0,0,1.1-.28,10.08,10.08,0,0,1,2-.93,2.33,2.33,0,0,1,1.67.5,4.25,4.25,0,0,0,1.48.71,1.34,1.34,0,0,0,.34,0,3.1,3.1,0,0,0,1.58-.29,10.08,10.08,0,0,1,2-.93,2.33,2.33,0,0,1,1.67.5l.61.36-.75-1.28h0l-5.36-9.13-5.36,9.13h0l-.32.55Z"/><polygon class="cls-3" points="168.89 140.18 194.55 176.65 143.23 176.65 168.89 140.18"/><path class="cls-6" d="M163.86,148.78a3,3,0,0,1,2.11.67,5.42,5.42,0,0,0,1.87.91,1.7,1.7,0,0,0,.42,0,3.91,3.91,0,0,0,2-.36,12.74,12.74,0,0,1,2.53-1.17,3,3,0,0,1,2.11.64c.31.19.62.39.94.56l-6.94-9.87-6.44,9.15A5.66,5.66,0,0,1,163.86,148.78Z"/><path class="cls-1" d="M240.37,0l-62,43.13L47.6,137.91c3.31,4.39,8.64,1.13,9.94,6.48L350,50.74l-.28-8.53L349.59,0Z"/><path class="cls-3" d="M91.3,0,13.36,143.37S26.19,132,47.6,137.91l193-138Z"/><path class="cls-4" d="M240.88,73.73c-.27,1.76,19.09,6.71,28.7,8.44,2.25.4,4.12.66,5.69.79A4.78,4.78,0,0,0,276.52,84a5,5,0,0,0,1.22.5l-3,86.35h9.84l-2.89-82,.67.88c5.79,7.47,18.84,21.89,20.4,20.9s-9-17-14.75-24.5a56.47,56.47,0,0,0-3.9-4.59,4.67,4.67,0,0,0,0-3.42,34.23,34.23,0,0,0,5.22-6.45c5-7.46,13.79-23.48,12.13-24.48s-13.19,13.4-18.17,20.89a48.2,48.2,0,0,0-2.88,4.82,20.06,20.06,0,0,0-.93,2.09,5.28,5.28,0,0,0-4.07,1.81c-1.36-.35-3-.69-4.83-1C261,74.07,241.16,72,240.88,73.73Z"/><path class="cls-4" d="M318,115.06c-4,5.12-11.2,16.14-10.13,16.82s10-9.22,14-14.35l.46-.61-2,56.28h6.75L325,114a3.48,3.48,0,0,0,.84-.35,3.42,3.42,0,0,0,.86-.75c1.08-.09,2.36-.27,3.91-.55,6.6-1.18,19.89-4.58,19.7-5.79s-13.8.23-20.39,1.41c-1.29.23-2.38.47-3.32.71a3.62,3.62,0,0,0-2.8-1.24,13.29,13.29,0,0,0-.64-1.43,33.29,33.29,0,0,0-2-3.31c-3.42-5.12-11.33-15-12.47-14.32S313.6,100,317,105.13a23.44,23.44,0,0,0,3.59,4.43,3.23,3.23,0,0,0,0,2.35A39.51,39.51,0,0,0,318,115.06Z"/><polygon class="cls-4" points="130.36 143.74 126.39 136.77 122.33 143.79 130.36 143.74"/><path class="cls-4" d="M123.34,145a4.7,4.7,0,0,0,1.27-.55,2.75,2.75,0,0,1,3,0A3.84,3.84,0,0,0,130,145a6.13,6.13,0,0,0,1.07-.12l-.89-1.51-7.52-.23-.78,1.33C122.06,145,122.56,145.2,123.34,145Z"/><path class="cls-4" d="M72.6,182.31a32.6,32.6,0,0,0,1.33-8.87c0-20.63-17-37.32-38-37.32a38.89,38.89,0,0,0-5.53.41C12.09,139.16-2,154.34-2,173.11c0,3,.17,3.74,1,8.94Z"/><polygon class="cls-1" points="30.33 134.74 58.4 182.57 2.27 182.57 30.33 134.74"/><polygon class="cls-3" points="64.6 135.98 118.74 200.29 10.46 200.29 64.6 135.98"/><polygon class="cls-5" points="76.12 149.66 64.63 135.97 53.07 149.7 76.12 149.66"/><path class="cls-5" d="M54.34,152.21a17.55,17.55,0,0,1,3.48-1.62,4.06,4.06,0,0,1,2.9.88,7.39,7.39,0,0,0,2.58,1.23,2.34,2.34,0,0,0,.58,0,5.39,5.39,0,0,0,2.74-.5,17.55,17.55,0,0,1,3.48-1.62,4.06,4.06,0,0,1,2.9.88,7.39,7.39,0,0,0,2.58,1.23,2.25,2.25,0,0,0,2.24-1l-2.05-2.44-12.39-.08v.08l-9.88-.06-2.78,3.31A4.88,4.88,0,0,0,54.34,152.21Z"/><polygon class="cls-3" points="0 196 42.29 196 10.67 141.97 0 160.35 0 196"/><path class="cls-5" d="M6.87,152.08c.61-.18,1.16.25,1.7.73a4,4,0,0,0,1.51,1,1,1,0,0,0,.34,0,2.36,2.36,0,0,0,1.61-.42A9.3,9.3,0,0,1,14,152c.61-.18,1.16.25,1.7.73a4,4,0,0,0,1.51,1,1,1,0,0,0,.25,0l-7-11.87L4.34,152.6l-.73,1.25a2.52,2.52,0,0,0,1.22-.41A9.3,9.3,0,0,1,6.87,152.08Z"/><path class="cls-5" d="M26.87,144.08c.61-.18,1.16.25,1.7.73a4,4,0,0,0,1.51,1,1,1,0,0,0,.34,0,2.36,2.36,0,0,0,1.61-.42A9.3,9.3,0,0,1,34,144a1.63,1.63,0,0,1,1.7.73,4.4,4.4,0,0,0,1.74,1.08l-7.1-12.21-7.19,12.2a4.3,4.3,0,0,0,1.64-.41A9.3,9.3,0,0,1,26.87,144.08Z"/><polygon class="cls-3" points="272.57 161.95 290.1 182.67 255.04 182.67 272.57 161.95"/><path class="cls-6" d="M272.64,161.81l-5.76,6.83a12.92,12.92,0,0,1,2.14-.2,2.46,2.46,0,0,1,1.76.53,4.49,4.49,0,0,0,1.57.75,1.42,1.42,0,0,0,.35,0,3.27,3.27,0,0,0,1.66-.3,10.65,10.65,0,0,1,2.11-1,4.68,4.68,0,0,1,2,.43Z"/><path class="cls-6" d="M244.39,153.24l-5.76,6.83a12.92,12.92,0,0,1,2.14-.2,2.46,2.46,0,0,1,1.76.53,4.49,4.49,0,0,0,1.57.75,1.42,1.42,0,0,0,.35,0,3.27,3.27,0,0,0,1.66-.3,10.65,10.65,0,0,1,2.11-1,4.68,4.68,0,0,1,2,.43Z"/><polygon class="cls-6" points="226.45 156.25 222.94 150.29 219.35 156.25 226.45 156.25"/><path class="cls-6" d="M220.15,157.58a4.46,4.46,0,0,0,1.17-.49,2.65,2.65,0,0,1,2.81,0,3.69,3.69,0,0,0,2.16.6,6,6,0,0,0,1-.1l-.83-1.34h-7.1l-.72,1.17A1.56,1.56,0,0,0,220.15,157.58Z"/></svg>