<svg id="Layer_1" data-name="Layer 1" xmlns="http://www.w3.org/2000/svg" xmlns:xlink="http://www.w3.org/1999/xlink" viewBox="0 0 350 280"><defs><style>.cls-1{fill:#ececec;}.cls-2,.cls-8{fill:#fff;}.cls-11,.cls-2,.cls-5,.cls-6{opacity:0.05;}.cls-11,.cls-12,.cls-2,.cls-3,.cls-4,.cls-5,.cls-6{isolation:isolate;}.cls-12,.cls-3,.cls-4{opacity:0.02;}.cls-3{fill:url(#linear-gradient);}.cls-4{fill:url(#linear-gradient-2);}.cls-5{fill:url(#linear-gradient-3);}.cls-6{fill:url(#linear-gradient-4);}.cls-7{fill:#d8cbad;}.cls-9{fill:#ccc;}.cls-10{fill:#c1ad73;}.cls-11{fill:url(#linear-gradient-5);}.cls-12{fill:url(#linear-gradient-6);}</style><linearGradient id="linear-gradient" x1="73.4" y1="-341.15" x2="351" y2="-341.15" gradientTransform="matrix(1, 0, 0, -1, 0, -236)" gradientUnits="userSpaceOnUse"><stop offset="0" stop-color="#c69c6d"/><stop offset="0.1" stop-color="#a3815a"/><stop offset="0.26" stop-color="#725a3f"/><stop offset="0.42" stop-color="#493a28"/><stop offset="0.58" stop-color="#292017"/><stop offset="0.73" stop-color="#120e0a"/><stop offset="0.87" stop-color="#050403"/><stop offset="1"/></linearGradient><linearGradient id="linear-gradient-2" x1="-3.97" y1="-376.33" x2="349.23" y2="-376.33" xlink:href="#linear-gradient"/><linearGradient id="linear-gradient-3" x1="0" y1="-303.75" x2="91.3" y2="-303.75" xlink:href="#linear-gradient"/><linearGradient id="linear-gradient-4" x1="-0.01" y1="-407.94" x2="350" y2="-407.94" xlink:href="#linear-gradient"/><linearGradient id="linear-gradient-5" x1="66.31" y1="-305.56" x2="350" y2="-305.56" xlink:href="#linear-gradient"/><linearGradient id="linear-gradient-6" x1="-87.89" y1="-462.82" x2="1.19" y2="-462.82" xlink:href="#linear-gradient"/></defs><title>Prahs-lightArtboard 1</title><polygon class="cls-1" points="293.16 330.75 10.87 202.31 119.63 202.17 383.78 254.07 293.16 330.75"/><path class="cls-2" d="M73.4,156.49a32.6,32.6,0,0,0,1.33-8.87c0-20.63-17-37.32-38-37.32a38.89,38.89,0,0,0-5.53.41c-18.31,2.63-32.4,17.81-32.4,36.58,0,3,.17,3.74,1,8.94Z"/><path class="cls-3" d="M73.44,139,349.73,51,351,159.3,73.4,156.48S75.48,152.11,73.44,139Z"/><path class="cls-4" d="M31.2,110.71,91.22-.66,348-.29l1.26,281.61-273.44-1L-2,150.71h0c-2.63-9.14-3.22-7.55,2.43-15.2C10.53,112.29,30.3,110.85,31.2,110.71Z"/><path class="cls-5" d="M0,0,.39,135.51s7.56-20.65,30.41-24.63L91.3,0Z"/><polygon class="cls-6" points="350 156.25 -0.01 156.28 0.43 162.65 350 187.63 350 156.25"/><polygon class="cls-7" points="350 175.4 349.68 175.26 3.18 152.01 0.02 164.69 350 201.29 350 175.4"/><path class="cls-7" d="M73.4,156.49a32.6,32.6,0,0,0,1.33-8.87c0-20.63-17-37.32-38-37.32a38.89,38.89,0,0,0-5.53.41c-18.31,2.63-32.4,17.81-32.4,36.58,0,3,.17,3.74,1,8.94Z"/><polygon class="cls-1" points="30.33 134.74 58.4 182.57 2.27 182.57 30.33 134.74"/><polygon class="cls-1" points="84.47 134.27 108.5 175.21 60.45 175.21 84.47 134.27"/><polygon class="cls-8" points="90.65 144.79 84.46 134.07 78.21 144.61 90.65 144.79"/><path class="cls-8" d="M82.58,145.45a5.19,5.19,0,0,1,2.36-.41,20.64,20.64,0,0,1,2.83.75,6.2,6.2,0,0,0,3.46,0l-.82-1.4H78.52l-.32.54A2.17,2.17,0,0,0,80.48,146,8.59,8.59,0,0,0,82.58,145.45Z"/><polygon class="cls-8" points="64.6 135.98 118.74 200.29 10.46 200.29 64.6 135.98"/><polygon class="cls-1" points="126.33 136.9 143.38 165.96 109.28 165.96 126.33 136.9"/><polygon class="cls-1" points="130.28 144 126.33 137.27 122.38 144 130.28 144"/><path class="cls-1" d="M123.34,145a4.7,4.7,0,0,0,1.27-.55,2.75,2.75,0,0,1,3,0A3.84,3.84,0,0,0,130,145a6.13,6.13,0,0,0,1.07-.12l-.89-1.51h-7.65l-.78,1.33A1.62,1.62,0,0,0,123.34,145Z"/><polygon class="cls-9" points="183.36 140.25 198.45 165.96 168.28 165.96 183.36 140.25"/><polygon class="cls-8" points="187.26 146.82 183.34 140.14 179.62 146.53 187.26 146.82"/><path class="cls-8" d="M180.72,147.38a4.15,4.15,0,0,0,1.12-.49,2.43,2.43,0,0,1,2.68,0,3.4,3.4,0,0,0,2.06.6,5.42,5.42,0,0,0,.94-.1l-.79-1.34L180,146l-.69,1.17A1.43,1.43,0,0,0,180.72,147.38Z"/><polygon class="cls-9" points="208.13 146.16 223.22 171.86 193.05 171.86 208.13 146.16"/><polygon class="cls-10" points="211.63 152 208.13 146.05 204.64 152 211.63 152"/><path class="cls-10" d="M205.49,153.28a4.15,4.15,0,0,0,1.12-.49,2.43,2.43,0,0,1,2.68,0,3.4,3.4,0,0,0,2.06.6,5.42,5.42,0,0,0,.94-.1l-.79-1.34h-6.77l-.69,1.17A1.43,1.43,0,0,0,205.49,153.28Z"/><polygon class="cls-9" points="226.12 140.25 246.18 169.33 206.06 169.33 226.12 140.25"/><polygon class="cls-10" points="230.84 147.14 226.12 140.33 221.28 147.28 230.84 147.14"/><path class="cls-10" d="M222.61,148.32a6,6,0,0,0,1.49-.55,3.71,3.71,0,0,1,3.56,0,5.1,5.1,0,0,0,2.73.67,8.42,8.42,0,0,0,1.26-.12l-1-1.51h-9l-.92,1.33A2.17,2.17,0,0,0,222.61,148.32Z"/><polygon class="cls-9" points="261.57 147.14 280.55 169.29 242.59 169.29 261.57 147.14"/><polygon class="cls-10" points="265.96 152.26 261.57 147.13 257.17 152.26 265.96 152.26"/><path class="cls-10" d="M258.24,153.28a6.62,6.62,0,0,0,1.41-.42,4.27,4.27,0,0,1,3.37,0,5.77,5.77,0,0,0,2.59.51,9.85,9.85,0,0,0,1.19-.09l-1-1.15h-8.51l-.87,1A2.49,2.49,0,0,0,258.24,153.28Z"/><polygon class="cls-9" points="281.5 143.21 300.35 168.8 262.66 168.8 281.5 143.21"/><polygon class="cls-10" points="285.74 148.96 281.5 143.1 277.34 148.94 285.74 148.96"/><path class="cls-10" d="M278.2,150.3a5.91,5.91,0,0,0,1.4-.49,3.69,3.69,0,0,1,3.35,0,5,5,0,0,0,2.57.59,8.43,8.43,0,0,0,1.18-.1l-1-1.33h-8.45l-.86,1.17A2.16,2.16,0,0,0,278.2,150.3Z"/><polygon class="cls-9" points="298.28 150.89 313.42 169.67 283.13 169.67 298.28 150.89"/><polygon class="cls-8" points="301.99 155.52 298.28 150.84 294.79 155.22 301.99 155.52"/><path class="cls-8" d="M295.62,156.1a5.06,5.06,0,0,0,1.13-.36,3.22,3.22,0,0,1,2.69,0,4.38,4.38,0,0,0,2.06.44,7.41,7.41,0,0,0,1-.08l-.79-1h-6.79l-.69.86A1.88,1.88,0,0,0,295.62,156.1Z"/><polygon class="cls-1" points="168.89 140.18 194.55 176.65 143.23 176.65 168.89 140.18"/><polygon class="cls-8" points="106.55 146.12 130.57 187.06 82.52 187.06 106.55 146.12"/><polygon class="cls-1" points="222.94 150.29 242 182.77 203.88 182.77 222.94 150.29"/><polygon class="cls-1" points="244.42 153.24 271.35 185.72 217.49 185.72 244.42 153.24"/><polygon class="cls-10" points="76.12 149.66 64.63 135.97 53.07 149.7 76.12 149.66"/><path class="cls-10" d="M54.34,152.21a17.55,17.55,0,0,1,3.48-1.62,4.06,4.06,0,0,1,2.9.88,7.39,7.39,0,0,0,2.58,1.23,2.34,2.34,0,0,0,.58,0,5.39,5.39,0,0,0,2.74-.5,17.55,17.55,0,0,1,3.48-1.62,4.06,4.06,0,0,1,2.9.88,7.39,7.39,0,0,0,2.58,1.23,2.25,2.25,0,0,0,2.24-1l-2.05-2.44-12.39-.08v.08l-9.88-.06-2.78,3.31A4.88,4.88,0,0,0,54.34,152.21Z"/><path class="cls-7" d="M100.24,156.87a3.19,3.19,0,0,0,1.1-.28,10.08,10.08,0,0,1,2-.93,2.33,2.33,0,0,1,1.67.5,4.25,4.25,0,0,0,1.48.71,1.34,1.34,0,0,0,.34,0,3.1,3.1,0,0,0,1.58-.29,10.08,10.08,0,0,1,2-.93,2.33,2.33,0,0,1,1.67.5l.61.36-.75-1.28h0l-5.36-9.13-5.36,9.13h0l-.32.55Z"/><polygon class="cls-8" points="168.89 140.18 194.55 176.65 143.23 176.65 168.89 140.18"/><path class="cls-7" d="M163.86,148.78a3,3,0,0,1,2.11.67,5.42,5.42,0,0,0,1.87.91,1.7,1.7,0,0,0,.42,0,3.91,3.91,0,0,0,2-.36,12.74,12.74,0,0,1,2.53-1.17,3,3,0,0,1,2.11.64c.31.19.62.39.94.56l-6.94-9.87-6.44,9.15A5.66,5.66,0,0,1,163.86,148.78Z"/><path class="cls-11" d="M240.37,0,66.31,124.36a40.41,40.41,0,0,1,7,14.75L350,50.74l-.28-8.53L349.59,0Z"/><polygon class="cls-8" points="0 196 42.29 196 10.67 141.97 0 160.35 0 196"/><path class="cls-10" d="M6.87,152.08c.61-.18,1.16.25,1.7.73a4,4,0,0,0,1.51,1,1,1,0,0,0,.34,0,2.36,2.36,0,0,0,1.61-.42A9.3,9.3,0,0,1,14,152c.61-.18,1.16.25,1.7.73a4,4,0,0,0,1.51,1,1,1,0,0,0,.25,0l-7-11.87L4.34,152.6l-.73,1.25a2.52,2.52,0,0,0,1.22-.41A9.3,9.3,0,0,1,6.87,152.08Z"/><polygon class="cls-8" points="130.36 143.74 126.39 136.77 122.33 143.79 130.36 143.74"/><path class="cls-8" d="M123.34,145a4.7,4.7,0,0,0,1.27-.55,2.75,2.75,0,0,1,3,0A3.84,3.84,0,0,0,130,145a6.13,6.13,0,0,0,1.07-.12l-.89-1.51-7.52-.23-.78,1.33C122.06,145,122.56,145.2,123.34,145Z"/><path class="cls-8" d="M26.87,144.08c.61-.18,1.16.25,1.7.73a4,4,0,0,0,1.51,1,1,1,0,0,0,.34,0,2.36,2.36,0,0,0,1.61-.42A9.3,9.3,0,0,1,34,144a1.63,1.63,0,0,1,1.7.73,4.4,4.4,0,0,0,1.74,1.08l-7.1-12.21-7.19,12.2a4.3,4.3,0,0,0,1.64-.41A9.3,9.3,0,0,1,26.87,144.08Z"/><path class="cls-12" d="M1.15,150.18c0-7-5.06-13.12-11.61-13.12H-76c-6.56,0-11.88,6.11-11.88,13.12v153.7A12.29,12.29,0,0,0-76,316.59h65.6c6.56,0,11.61-5.69,11.61-12.7Z"/><polygon class="cls-7" points="322.42 113.44 320.43 173.34 327.18 173.34 325.11 114.27 322.42 113.44"/><path class="cls-7" d="M328.57,115.22c-.68-1.12-1.29-2.06-1.85-2.85a3.62,3.62,0,0,0,.16-3.06,13.3,13.3,0,0,0,1.11-1.11,33.3,33.3,0,0,0,2.38-3c3.56-5,10-15.94,8.93-16.76s-9.1,8.73-12.68,13.74a23.44,23.44,0,0,0-2.86,4.93,3.23,3.23,0,0,0-2.2.84,39.52,39.52,0,0,0-3.87-1.3c-6.21-1.91-19.07-4.7-19.33-3.46-.16.81,5,3.12,10.4,5.16l8.47,2.93.27.08h0l3.71,1.28-.07.19.06,0a3.48,3.48,0,0,0,.63.66,3.42,3.42,0,0,0,1,.54c.47,1,1.09,2.11,1.91,3.46,3.46,5.74,11.38,16.95,12.44,16.34S332,121,328.57,115.22Z"/><path class="cls-7" d="M288.9,76.54a56.47,56.47,0,0,0-5.75,1.8A4.67,4.67,0,0,0,280,77a34.23,34.23,0,0,0-3.91-7.32c-4.92-7.51-16.26-21.85-17.82-20.71s7.2,17.37,12.16,24.87a48.2,48.2,0,0,0,3.32,4.53,20.07,20.07,0,0,0,1.56,1.67,5.28,5.28,0,0,0,.08,4.45c-.85,1.12-1.8,2.49-2.8,4.06-5.37,8.13-15,25.59-13.52,26.53s13.62-15,19-23.15C279.27,90,280.24,88.42,281,87a4.78,4.78,0,0,0,1.49-.73,5,5,0,0,0,.94-.93l1.08-.37,2.4-.85c3.53-1.25,7.15-2.26,10.71-3.41l6.87-2.23,2-.63c6-2.23,11-4.42,10.8-5.37C316.91,70.67,298,74.17,288.9,76.54Z"/><polygon class="cls-7" points="277.59 85.54 274.63 170.64 284.47 170.64 281.41 83.88 277.59 85.54"/><polygon class="cls-1" points="272.57 161.95 290.1 182.67 255.04 182.67 272.57 161.95"/><path class="cls-8" d="M272.64,161.81l-5.76,6.83a12.92,12.92,0,0,1,2.14-.2,2.46,2.46,0,0,1,1.76.53,4.49,4.49,0,0,0,1.57.75,1.42,1.42,0,0,0,.35,0,3.27,3.27,0,0,0,1.66-.3,10.65,10.65,0,0,1,2.11-1,4.68,4.68,0,0,1,2,.43Z"/><polygon class="cls-8" points="226.41 156.24 222.91 150.29 219.41 156.24 226.41 156.24"/><path class="cls-8" d="M220.15,157.58a4.41,4.41,0,0,0,1.17-.49,2.62,2.62,0,0,1,2.79,0,3.65,3.65,0,0,0,2.14.6,5.87,5.87,0,0,0,1-.1l-.82-1.34h-7l-.72,1.17A1.54,1.54,0,0,0,220.15,157.58Z"/><path class="cls-8" d="M244.39,153.39l-5.76,6.83a12.92,12.92,0,0,1,2.14-.2,2.46,2.46,0,0,1,1.76.53,4.49,4.49,0,0,0,1.57.75,1.42,1.42,0,0,0,.35,0,3.27,3.27,0,0,0,1.66-.3,10.65,10.65,0,0,1,2.11-1,4.68,4.68,0,0,1,2,.43Z"/></svg>