<svg id="Layer_1" data-name="Layer 1" xmlns="http://www.w3.org/2000/svg" xmlns:xlink="http://www.w3.org/1999/xlink" viewBox="0 0 350 280"><defs><style>.cls-1,.cls-20{fill:#c1ad73;}.cls-10,.cls-11,.cls-12,.cls-13,.cls-14,.cls-15,.cls-16,.cls-2,.cls-3,.cls-4,.cls-5,.cls-6,.cls-7,.cls-8,.cls-9{fill:#fff;}.cls-2{opacity:0.3;}.cls-4{opacity:0.35;}.cls-5{opacity:0.87;}.cls-6{opacity:0.2;}.cls-7{opacity:0.22;}.cls-20,.cls-8{opacity:0.45;}.cls-9{opacity:0.75;}.cls-10{opacity:0.5;}.cls-11{opacity:0.65;}.cls-12,.cls-19{opacity:0.7;}.cls-13{opacity:0.9;}.cls-14{opacity:0.8;}.cls-15{opacity:0.6;}.cls-16{opacity:0.1;}.cls-17,.cls-18{opacity:0.05;isolation:isolate;}.cls-17{fill:url(#linear-gradient);}.cls-18{fill:url(#linear-gradient-2);}</style><linearGradient id="linear-gradient" x1="403.63" y1="-129.1" x2="646.89" y2="-129.1" gradientTransform="translate(-491.23 122.23) rotate(3.9)" gradientUnits="userSpaceOnUse"><stop offset="0" stop-color="#c69c6d"/><stop offset="0.1" stop-color="#a3815a"/><stop offset="0.26" stop-color="#725a3f"/><stop offset="0.42" stop-color="#493a28"/><stop offset="0.58" stop-color="#292017"/><stop offset="0.73" stop-color="#120e0a"/><stop offset="0.87" stop-color="#050403"/><stop offset="1"/></linearGradient><linearGradient id="linear-gradient-2" x1="439.35" y1="-112.99" x2="646.98" y2="-112.99" xlink:href="#linear-gradient"/></defs><title>StellarCometArtboard 1</title><rect class="cls-1" x="-0.5" y="0.04" width="350.96" height="279.68"/><path class="cls-2" d="M323,85.73A10.59,10.59,0,0,1,318.51,94a10.59,10.59,0,0,1,4.49,8.27A10.59,10.59,0,0,1,327.49,94,10.59,10.59,0,0,1,323,85.73Z"/><path class="cls-3" d="M64.62,156.73a10.83,10.83,0,0,1-5.11,8.66,10.83,10.83,0,0,1,5.11,8.66,10.83,10.83,0,0,1,5.11-8.66A10.83,10.83,0,0,1,64.62,156.73Z"/><path class="cls-4" d="M1.87,156.73A22,22,0,0,1-8.49,174.3,22,22,0,0,1,1.87,191.87,22,22,0,0,1,12.22,174.3,22,22,0,0,1,1.87,156.73Z"/><path class="cls-3" d="M1.69,67.73c0,3.4-1.46,12.73-8.18,18,6.72,5.27,8.18,14.6,8.18,18,0-3.4,1.46-12.73,8.18-18C3.16,80.46,1.69,71.13,1.69,67.73Z"/><path class="cls-5" d="M134.77,52.73c0,2.55-1.29,9.53-7.24,13.47,5.94,3.94,7.24,10.92,7.24,13.47,0-2.55,1.29-9.53,7.24-13.47C136.07,62.25,134.77,55.27,134.77,52.73Z"/><path class="cls-6" d="M124,103.73a10.59,10.59,0,0,1-4.49,8.27,10.59,10.59,0,0,1,4.49,8.27,10.59,10.59,0,0,1,4.49-8.27A10.59,10.59,0,0,1,124,103.73Z"/><path class="cls-7" d="M121.5,214.83c0,3.23-1.43,12.1-8,17.11,6.55,5,8,13.88,8,17.11,0-3.23,1.43-12.1,8-17.11C122.92,226.93,121.5,218.06,121.5,214.83Z"/><path class="cls-8" d="M281.24,119.45c0,4.25-2.1,15.9-11.73,22.49,9.63,6.58,11.73,18.24,11.73,22.49,0-4.25,2.1-15.9,11.73-22.49C283.34,135.35,281.24,123.7,281.24,119.45Z"/><path class="cls-3" d="M282.5,208.83c0,2.78-1.43,10.41-8,14.72,6.55,4.31,8,11.94,8,14.72,0-2.78,1.43-10.41,8-14.72C283.92,219.24,282.5,211.61,282.5,208.83Z"/><path class="cls-9" d="M222.5,241.83c0,3.08-1.43,11.54-8,16.32,6.55,4.78,8,13.24,8,16.32,0-3.08,1.43-11.54,8-16.32C223.92,253.37,222.5,244.91,222.5,241.83Z"/><path class="cls-10" d="M328.89,244.19c.11,2.67-1,10-7.08,14.42,6.45,3.88,8.12,11.14,8.23,13.8-.11-2.67,1-10,7.08-14.42C330.67,254.12,329,246.86,328.89,244.19Z"/><path class="cls-11" d="M47.82,212.4c.09,2.3-.77,8.66-5.78,12.44,5.29,3.36,6.67,9.63,6.77,11.93-.09-2.3.77-8.66,5.78-12.44C49.29,221,47.92,214.7,47.82,212.4Z"/><path class="cls-3" d="M214.77,145.83a7.69,7.69,0,0,1-3.25,6,7.69,7.69,0,0,1,3.25,6,7.69,7.69,0,0,1,3.25-6A7.69,7.69,0,0,1,214.77,145.83Z"/><path class="cls-3" d="M79.77,254.83a7.69,7.69,0,0,1-3.25,6,7.69,7.69,0,0,1,3.25,6,7.69,7.69,0,0,1,3.25-6A7.69,7.69,0,0,1,79.77,254.83Z"/><path class="cls-3" d="M31.77,127.83a7.69,7.69,0,0,1-3.25,6,7.69,7.69,0,0,1,3.25,6,7.69,7.69,0,0,1,3.25-6A7.69,7.69,0,0,1,31.77,127.83Z"/><path class="cls-3" d="M31.87,31.83c0,1.58-.6,5.93-3.38,8.38,2.77,2.45,3.38,6.8,3.38,8.38,0-1.58.6-5.93,3.38-8.38C32.47,37.76,31.87,33.41,31.87,31.83Z"/><path class="cls-3" d="M243.88,23.83c0,2.22-1.14,8.3-6.36,11.74,5.23,3.44,6.36,9.52,6.36,11.74,0-2.22,1.14-8.3,6.36-11.74C245,32.13,243.88,26,243.88,23.83Z"/><path class="cls-12" d="M310.88,64a14.45,14.45,0,0,1-6.36,11.39,14.45,14.45,0,0,1,6.36,11.39,14.45,14.45,0,0,1,6.36-11.39A14.45,14.45,0,0,1,310.88,64Z"/><path class="cls-13" d="M156.87,96.73a7.93,7.93,0,0,1-3.36,6.2,7.93,7.93,0,0,1,3.36,6.2,7.93,7.93,0,0,1,3.36-6.2A7.93,7.93,0,0,1,156.87,96.73Z"/><path class="cls-13" d="M178.66,205.73a6.68,6.68,0,0,1-2.83,5.22,6.68,6.68,0,0,1,2.83,5.22,6.68,6.68,0,0,1,2.83-5.22A6.68,6.68,0,0,1,178.66,205.73Z"/><path class="cls-14" d="M71.55,15.68a11.9,11.9,0,0,1-5,9.3,11.9,11.9,0,0,1,5,9.3,11.9,11.9,0,0,1,5-9.3A11.9,11.9,0,0,1,71.55,15.68Z"/><path class="cls-15" d="M91.28,74a8,8,0,0,1-3.77,6.39,8,8,0,0,1,3.77,6.39A8,8,0,0,1,95,80.34,8,8,0,0,1,91.28,74Z"/><path class="cls-3" d="M56.28,84a8,8,0,0,1-3.77,6.39,8,8,0,0,1,3.77,6.39A8,8,0,0,1,60,90.34,8,8,0,0,1,56.28,84Z"/><path class="cls-3" d="M232.28,191a8,8,0,0,1-3.77,6.39,8,8,0,0,1,3.77,6.39,8,8,0,0,1,3.77-6.39A8,8,0,0,1,232.28,191Z"/><path class="cls-16" d="M58.28,192a8,8,0,0,1-3.77,6.39,8,8,0,0,1,3.77,6.39A8,8,0,0,1,62,198.34,8,8,0,0,1,58.28,192Z"/><path class="cls-3" d="M7.22,2.54a5.75,5.75,0,0,1-2.71,4.6,5.75,5.75,0,0,1,2.71,4.6,5.75,5.75,0,0,1,2.71-4.6A5.75,5.75,0,0,1,7.22,2.54Z"/><path class="cls-15" d="M265.84,67.83a4.94,4.94,0,0,1-2.33,4,4.94,4.94,0,0,1,2.33,4,4.94,4.94,0,0,1,2.33-4A4.94,4.94,0,0,1,265.84,67.83Z"/><path class="cls-15" d="M153.21,14.83a11.74,11.74,0,0,1-5.53,9.39,11.74,11.74,0,0,1,5.53,9.39,11.74,11.74,0,0,1,5.53-9.39A11.74,11.74,0,0,1,153.21,14.83Z"/><path class="cls-3" d="M183.95,143.87a3,3,0,0,1-1.43,2.43,3,3,0,0,1,1.43,2.43,3,3,0,0,1,1.43-2.43A3,3,0,0,1,183.95,143.87Z"/><path class="cls-3" d="M215.95,112.87a3,3,0,0,1-1.43,2.43,3,3,0,0,1,1.43,2.43,3,3,0,0,1,1.43-2.43A3,3,0,0,1,215.95,112.87Z"/><path class="cls-3" d="M195.47,66.2a9.41,9.41,0,0,1-4.24,7.46,9.41,9.41,0,0,1,4.24,7.46,9.41,9.41,0,0,1,4.24-7.46A9.41,9.41,0,0,1,195.47,66.2Z"/><path class="cls-3" d="M331.83,186a4.92,4.92,0,0,1-2.32,3.93,4.92,4.92,0,0,1,2.32,3.93,4.92,4.92,0,0,1,2.32-3.93A4.92,4.92,0,0,1,331.83,186Z"/><path class="cls-3" d="M200.43,14a6.18,6.18,0,0,1-2.91,4.94,6.18,6.18,0,0,1,2.91,4.94,6.18,6.18,0,0,1,2.91-4.94A6.18,6.18,0,0,1,200.43,14Z"/><path class="cls-3" d="M74.28,87a8,8,0,0,1-3.77,6.39,8,8,0,0,1,3.77,6.39A8,8,0,0,1,78,93.34,8,8,0,0,1,74.28,87Z"/><path class="cls-3" d="M311,19a7.75,7.75,0,0,1-4.49,6.37A7.75,7.75,0,0,1,311,31.78a7.75,7.75,0,0,1,4.49-6.37A7.75,7.75,0,0,1,311,19Z"/><path class="cls-3" d="M164,270a7.75,7.75,0,0,1-4.49,6.37,7.75,7.75,0,0,1,4.49,6.37,7.75,7.75,0,0,1,4.49-6.37A7.75,7.75,0,0,1,164,270Z"/><path class="cls-3" d="M130.83,173a4.92,4.92,0,0,1-2.32,3.93,4.92,4.92,0,0,1,2.32,3.93,4.92,4.92,0,0,1,2.32-3.93A4.92,4.92,0,0,1,130.83,173Z"/><path class="cls-17" d="M158.54,102,7.67-67.1s-112.05,40.4-87,181.94l228.71,8.75Z"/><path class="cls-18" d="M158.61,102.28,37.94-31.85S-65.61-20.6-45,116.29l194.14,7.52Z"/><g class="cls-19"><path class="cls-10" d="M174.15,119.68c-1.69,6.85-8.28,11-14.73,9.26s-10.29-8.7-8.6-15.56,8.28-11,14.73-9.26S175.84,112.83,174.15,119.68Z"/><path class="cls-20" d="M158.23,128.6s-46.44-34.4-46.49-34.52c-.17-.44,41.52,7.5,54,10.1C165.71,104.17,136.31,103.31,158.23,128.6Z"/><path class="cls-3" d="M165.71,108c-5.16-3.07-31.77-5-31.7-4.77,0,.05,19.86,19.72,24.87,20.92a7.83,7.83,0,0,0,5.78.52,9,9,0,0,0,5.85-10.91h0A8.58,8.58,0,0,0,165.71,108Z"/><path class="cls-20" d="M158.23,128.6s-46.44-34.4-46.49-34.52c-.17-.44,41.52,7.5,54,10.1C165.71,104.17,136.31,103.31,158.23,128.6Z"/><path class="cls-4" d="M165.71,104.17C157.57,102,73,78.52,71.2,78.36c1.91,1.85,72.22,42.44,83.41,47.88a16.11,16.11,0,0,1,3.38,2.37l-14.47-22.22Z"/></g><path class="cls-16" d="M158.58,102.33,98.88,50.87l11.79,22.24L44.52,27.33,65.46,73.64,16.81,90.46l79.17,16-24,7.17,77.34,10.09s-.83-2.94,3.6-10.22l1.53.69a16.81,16.81,0,0,1,.08-2.83,17.46,17.46,0,0,1,1.81-1.74l-1.37-.55C157.27,100.91,158.58,102.33,158.58,102.33Z"/></svg>