<svg id="Layer_1" data-name="Layer 1" xmlns="http://www.w3.org/2000/svg" xmlns:xlink="http://www.w3.org/1999/xlink" viewBox="0 0 350 280"><defs><style>.cls-1{fill:#d8cbad;}.cls-2{fill:#c1ad73;}.cls-21,.cls-3,.cls-4{opacity:0.05;}.cls-21,.cls-22,.cls-3,.cls-4{isolation:isolate;}.cls-3{fill:url(#linear-gradient);}.cls-4{fill:url(#linear-gradient-2);}.cls-10,.cls-11,.cls-12,.cls-13,.cls-14,.cls-15,.cls-16,.cls-17,.cls-18,.cls-19,.cls-21,.cls-22,.cls-5,.cls-6,.cls-7,.cls-8,.cls-9{fill:#fff;}.cls-5{opacity:0.3;}.cls-7{opacity:0.35;}.cls-8{opacity:0.87;}.cls-22,.cls-9{opacity:0.2;}.cls-10{opacity:0.22;}.cls-11{opacity:0.45;}.cls-12,.cls-23{opacity:0.75;}.cls-13,.cls-20{opacity:0.5;}.cls-14{opacity:0.65;}.cls-15{opacity:0.7;}.cls-16{opacity:0.9;}.cls-17{opacity:0.8;}.cls-18{opacity:0.6;}.cls-19{opacity:0.1;}.cls-23{fill:#353535;}.cls-24{fill:#ccc;}</style><linearGradient id="linear-gradient" x1="439.94" y1="-66.31" x2="793.03" y2="-66.31" gradientTransform="translate(-514.08 121.45) rotate(3.9)" gradientUnits="userSpaceOnUse"><stop offset="0" stop-color="#c69c6d"/><stop offset="0.1" stop-color="#a3815a"/><stop offset="0.26" stop-color="#725a3f"/><stop offset="0.42" stop-color="#493a28"/><stop offset="0.58" stop-color="#292017"/><stop offset="0.73" stop-color="#120e0a"/><stop offset="0.87" stop-color="#050403"/><stop offset="1"/></linearGradient><linearGradient id="linear-gradient-2" x1="491.47" y1="-41.99" x2="793.04" y2="-41.99" xlink:href="#linear-gradient"/></defs><title>StellerCometArtboard 1 copy</title><rect class="cls-1" x="-1.62" y="0.37" width="350.96" height="279.68"/><path class="cls-2" d="M112.6,0,114,1.76l.14,0,9.12,11.51L275.19,204.67l1.36.79,10.24,3,.08,0,.08,0,.16,0h0c9.27,2.84,14.61,13.08,12,23s-12.48,15.9-21.88,13.16a17,17,0,0,1-1.86-.67l.11.14-.29-.22-.28-.13.22.36-.63-.55a17.26,17.26,0,0,1-4.39-3.09c-1.47-.75-3.6-1.92-6.26-3.42l-1-.41-129-1.42L0,233.65V280H350V0Z"/><path class="cls-3" d="M275.12,204.6,71.61-50.75S-108,23.05-71.28,230.83l334,5.85Z"/><path class="cls-4" d="M275.12,204.74l-161-203s-166,30.67-135.75,231.63l284.29,3.24Z"/><path class="cls-5" d="M323,85.73A10.59,10.59,0,0,1,318.51,94a10.59,10.59,0,0,1,4.49,8.27A10.59,10.59,0,0,1,327.49,94,10.59,10.59,0,0,1,323,85.73Z"/><path class="cls-6" d="M64.62,156.73a10.83,10.83,0,0,1-5.11,8.66,10.83,10.83,0,0,1,5.11,8.66,10.83,10.83,0,0,1,5.11-8.66A10.83,10.83,0,0,1,64.62,156.73Z"/><path class="cls-7" d="M1.87,156.73A22,22,0,0,1-8.49,174.3,22,22,0,0,1,1.87,191.87,22,22,0,0,1,12.22,174.3,22,22,0,0,1,1.87,156.73Z"/><path class="cls-6" d="M1.69,67.73c0,3.4-1.46,12.73-8.18,18,6.72,5.27,8.18,14.6,8.18,18,0-3.4,1.46-12.73,8.18-18C3.16,80.46,1.69,71.13,1.69,67.73Z"/><path class="cls-8" d="M134.77,52.73c0,2.55-1.29,9.53-7.24,13.47,5.94,3.94,7.24,10.92,7.24,13.47,0-2.55,1.29-9.53,7.24-13.47C136.07,62.25,134.77,55.27,134.77,52.73Z"/><path class="cls-9" d="M124,103.73a10.59,10.59,0,0,1-4.49,8.27,10.59,10.59,0,0,1,4.49,8.27,10.59,10.59,0,0,1,4.49-8.27A10.59,10.59,0,0,1,124,103.73Z"/><path class="cls-10" d="M121.5,214.83c0,3.23-1.43,12.1-8,17.11,6.55,5,8,13.88,8,17.11,0-3.23,1.43-12.1,8-17.11C122.92,226.93,121.5,218.06,121.5,214.83Z"/><path class="cls-11" d="M281.24,119.45c0,4.25-2.1,15.9-11.73,22.49,9.63,6.58,11.73,18.24,11.73,22.49,0-4.25,2.1-15.9,11.73-22.49C283.34,135.35,281.24,123.7,281.24,119.45Z"/><path class="cls-6" d="M282.5,208.83c0,2.78-1.43,10.41-8,14.72,6.55,4.31,8,11.94,8,14.72,0-2.78,1.43-10.41,8-14.72C283.92,219.24,282.5,211.61,282.5,208.83Z"/><path class="cls-12" d="M222.5,241.83c0,3.08-1.43,11.54-8,16.32,6.55,4.78,8,13.24,8,16.32,0-3.08,1.43-11.54,8-16.32C223.92,253.37,222.5,244.91,222.5,241.83Z"/><path class="cls-13" d="M328.89,244.19c.11,2.67-1,10-7.08,14.42,6.45,3.88,8.12,11.14,8.23,13.8-.11-2.67,1-10,7.08-14.42C330.67,254.12,329,246.86,328.89,244.19Z"/><path class="cls-14" d="M47.82,212.4c.09,2.3-.77,8.66-5.78,12.44,5.29,3.36,6.67,9.63,6.77,11.93-.09-2.3.77-8.66,5.78-12.44C49.29,221,47.92,214.7,47.82,212.4Z"/><path class="cls-6" d="M214.77,145.83a7.69,7.69,0,0,1-3.25,6,7.69,7.69,0,0,1,3.25,6,7.69,7.69,0,0,1,3.25-6A7.69,7.69,0,0,1,214.77,145.83Z"/><path class="cls-6" d="M79.77,254.83a7.69,7.69,0,0,1-3.25,6,7.69,7.69,0,0,1,3.25,6,7.69,7.69,0,0,1,3.25-6A7.69,7.69,0,0,1,79.77,254.83Z"/><path class="cls-6" d="M31.77,127.83a7.69,7.69,0,0,1-3.25,6,7.69,7.69,0,0,1,3.25,6,7.69,7.69,0,0,1,3.25-6A7.69,7.69,0,0,1,31.77,127.83Z"/><path class="cls-6" d="M31.87,31.83c0,1.58-.6,5.93-3.38,8.38,2.77,2.45,3.38,6.8,3.38,8.38,0-1.58.6-5.93,3.38-8.38C32.47,37.76,31.87,33.41,31.87,31.83Z"/><path class="cls-6" d="M243.88,23.83c0,2.22-1.14,8.3-6.36,11.74,5.23,3.44,6.36,9.52,6.36,11.74,0-2.22,1.14-8.3,6.36-11.74C245,32.13,243.88,26,243.88,23.83Z"/><path class="cls-15" d="M310.88,64a14.45,14.45,0,0,1-6.36,11.39,14.45,14.45,0,0,1,6.36,11.39,14.45,14.45,0,0,1,6.36-11.39A14.45,14.45,0,0,1,310.88,64Z"/><path class="cls-16" d="M156.87,96.73a7.93,7.93,0,0,1-3.36,6.2,7.93,7.93,0,0,1,3.36,6.2,7.93,7.93,0,0,1,3.36-6.2A7.93,7.93,0,0,1,156.87,96.73Z"/><path class="cls-16" d="M178.66,205.73a6.68,6.68,0,0,1-2.83,5.22,6.68,6.68,0,0,1,2.83,5.22,6.68,6.68,0,0,1,2.83-5.22A6.68,6.68,0,0,1,178.66,205.73Z"/><path class="cls-17" d="M71.55,15.68a11.9,11.9,0,0,1-5,9.3,11.9,11.9,0,0,1,5,9.3,11.9,11.9,0,0,1,5-9.3A11.9,11.9,0,0,1,71.55,15.68Z"/><path class="cls-18" d="M91.28,74a8,8,0,0,1-3.77,6.39,8,8,0,0,1,3.77,6.39A8,8,0,0,1,95,80.34,8,8,0,0,1,91.28,74Z"/><path class="cls-6" d="M56.28,84a8,8,0,0,1-3.77,6.39,8,8,0,0,1,3.77,6.39A8,8,0,0,1,60,90.34,8,8,0,0,1,56.28,84Z"/><path class="cls-6" d="M232.28,191a8,8,0,0,1-3.77,6.39,8,8,0,0,1,3.77,6.39,8,8,0,0,1,3.77-6.39A8,8,0,0,1,232.28,191Z"/><path class="cls-19" d="M58.28,192a8,8,0,0,1-3.77,6.39,8,8,0,0,1,3.77,6.39A8,8,0,0,1,62,198.34,8,8,0,0,1,58.28,192Z"/><path class="cls-6" d="M7.22,2.54a5.75,5.75,0,0,1-2.71,4.6,5.75,5.75,0,0,1,2.71,4.6,5.75,5.75,0,0,1,2.71-4.6A5.75,5.75,0,0,1,7.22,2.54Z"/><path class="cls-18" d="M265.84,67.83a4.94,4.94,0,0,1-2.33,4,4.94,4.94,0,0,1,2.33,4,4.94,4.94,0,0,1,2.33-4A4.94,4.94,0,0,1,265.84,67.83Z"/><path class="cls-18" d="M153.21,14.83a11.74,11.74,0,0,1-5.53,9.39,11.74,11.74,0,0,1,5.53,9.39,11.74,11.74,0,0,1,5.53-9.39A11.74,11.74,0,0,1,153.21,14.83Z"/><path class="cls-6" d="M183.95,143.87a3,3,0,0,1-1.43,2.43,3,3,0,0,1,1.43,2.43,3,3,0,0,1,1.43-2.43A3,3,0,0,1,183.95,143.87Z"/><path class="cls-6" d="M215.95,112.87a3,3,0,0,1-1.43,2.43,3,3,0,0,1,1.43,2.43,3,3,0,0,1,1.43-2.43A3,3,0,0,1,215.95,112.87Z"/><path class="cls-6" d="M195.47,66.2a9.41,9.41,0,0,1-4.24,7.46,9.41,9.41,0,0,1,4.24,7.46,9.41,9.41,0,0,1,4.24-7.46A9.41,9.41,0,0,1,195.47,66.2Z"/><path class="cls-6" d="M331.83,186a4.92,4.92,0,0,1-2.32,3.93,4.92,4.92,0,0,1,2.32,3.93,4.92,4.92,0,0,1,2.32-3.93A4.92,4.92,0,0,1,331.83,186Z"/><path class="cls-6" d="M200.43,14a6.18,6.18,0,0,1-2.91,4.94,6.18,6.18,0,0,1,2.91,4.94,6.18,6.18,0,0,1,2.91-4.94A6.18,6.18,0,0,1,200.43,14Z"/><path class="cls-6" d="M74.28,87a8,8,0,0,1-3.77,6.39,8,8,0,0,1,3.77,6.39A8,8,0,0,1,78,93.34,8,8,0,0,1,74.28,87Z"/><path class="cls-6" d="M311,19a7.75,7.75,0,0,1-4.49,6.37A7.75,7.75,0,0,1,311,31.78a7.75,7.75,0,0,1,4.49-6.37A7.75,7.75,0,0,1,311,19Z"/><path class="cls-6" d="M164,270a7.75,7.75,0,0,1-4.49,6.37,7.75,7.75,0,0,1,4.49,6.37,7.75,7.75,0,0,1,4.49-6.37A7.75,7.75,0,0,1,164,270Z"/><path class="cls-6" d="M130.83,173a4.92,4.92,0,0,1-2.32,3.93,4.92,4.92,0,0,1,2.32,3.93,4.92,4.92,0,0,1,2.32-3.93A4.92,4.92,0,0,1,130.83,173Z"/><g class="cls-20"><path class="cls-21" d="M274.79,204.32,71.61-50.75S-108,23.05-71.28,230.83l334,5.85Z"/><path class="cls-22" d="M289.55,208.74,114.14,1.75s-166,30.67-135.75,231.63l298.08,10.83Z"/></g><path class="cls-13" d="M275.59,205.27,189,129.09l17.31,32.65L109.22,94.53l30.74,68-71.42,24.7,116.23,23.48-35.29,10.53,113.23,15.41s-.9-4.91,5.6-15.59l2.25,1a24.67,24.67,0,0,1,.11-4.15,25.63,25.63,0,0,1,2.66-2.55l-2-.8C274.74,202.55,275.59,205.27,275.59,205.27Z"/><path class="cls-13" d="M299.31,231.39c-2.72,10.16-12.67,16.14-22.22,13.36S262,231.47,264.75,221.31,277.42,205.17,287,208,302,221.23,299.31,231.39Z"/><path class="cls-11" d="M275.33,244.2s-68.17-52.63-68.24-52.82c-.25-.66,61.64,12.41,80.12,16.64C287.2,208,243.41,205.87,275.33,244.2Z"/><path class="cls-6" d="M287.08,213.71c-7.6-4.73-47.2-8.35-47.09-8,0,.08,29,30,36.43,31.91a11.67,11.67,0,0,0,8.59.94c6.63-1.84,10.69-9.08,9-16.09h0A12.79,12.79,0,0,0,287.08,213.71Z"/><path class="cls-11" d="M275.33,244.2s-68.17-52.63-68.24-52.82c-.25-.66,61.64,12.41,80.12,16.64C287.2,208,243.41,205.87,275.33,244.2Z"/><path class="cls-11" d="M287.2,208c-12.07-3.51-137.35-41-140.06-41.27,2.8,2.81,106.35,65.38,122.86,73.81a24,24,0,0,1,5,3.63l-20.9-33.53Z"/><rect class="cls-23" x="-1.61" y="-2" width="353.72" height="282.74"/><path class="cls-24" d="M101.19,145.27a7.94,7.94,0,0,1-5.7,2.21,7.92,7.92,0,0,1,0-15.84,8.42,8.42,0,0,1,5.92,2.46l-2.72,2.46a4.08,4.08,0,0,0-3-1.31,4,4,0,0,0-3.9,4.26,4.07,4.07,0,0,0,4.06,4.35,4,4,0,0,0,2.88-1.25Z"/><path class="cls-24" d="M118.31,139.7a7.86,7.86,0,0,1-8.1,7.78,7.68,7.68,0,0,1-8-7.9c0-4.7,3.3-7.94,8.1-7.94A7.77,7.77,0,0,1,118.31,139.7Zm-12-.13c0,2.56,1.6,4.29,4,4.29a3.94,3.94,0,0,0,4-4.22c0-2.69-1.5-4.35-3.94-4.35S106.28,137,106.28,139.57Z"/><path class="cls-24" d="M125.39,132.15V134a4.25,4.25,0,0,1,4.06-2.37,4.09,4.09,0,0,1,4,2.46,4.68,4.68,0,0,1,4.48-2.46,4.75,4.75,0,0,1,3.58,1.38c.9,1,1.18,2,1.18,4.26V147h-4.06V138c0-2-.74-3-2.27-3s-2.37,1.09-2.37,3V147H130v-8.8c0-2-.77-3.1-2.24-3.1s-2.34,1.06-2.34,3.1V147h-4.06V132.15Z"/><path class="cls-24" d="M151,128a2.26,2.26,0,0,1-4.51,0,2.26,2.26,0,1,1,4.51,0Zm-.22,19h-4.06V132.15h4.06Z"/><path class="cls-24" d="M158.83,132.15V134a4.25,4.25,0,0,1,4-2.34,5.3,5.3,0,0,1,3.65,1.38c1,1,1.31,2.14,1.31,4.58V147h-4.06v-9.18a3.1,3.1,0,0,0-.35-1.73,2.32,2.32,0,0,0-2-1,2.64,2.64,0,0,0-2.62,2.91v9h-4.06V132.15Z"/><path class="cls-24" d="M182.73,132.15h4v13.73c0,3-.58,4.8-2,6.18a8.56,8.56,0,0,1-6.14,2.24,9.87,9.87,0,0,1-7.26-2.94l2.53-2.56a5.84,5.84,0,0,0,4.58,2c2.72,0,4.29-1.6,4.29-4.38V145a6.33,6.33,0,0,1-5.22,2.53c-4.06,0-7-3.3-7-7.81,0-4.8,3-8,7.42-8a5.57,5.57,0,0,1,4.8,2.34Zm-7.9,7.33c0,2.56,1.66,4.38,4,4.38a4.07,4.07,0,0,0,3.07-1.38,4.14,4.14,0,0,0,.77-2.62,4.72,4.72,0,0,0-1.09-3.46,4.12,4.12,0,0,0-2.78-1.15A3.94,3.94,0,0,0,174.83,139.48Z"/><path class="cls-24" d="M206.7,136.44v-.26a1.68,1.68,0,0,0-1.89-1.54c-1,0-1.63.54-1.63,1.34a1.22,1.22,0,0,0,.42,1c.45.35.48.35,2.53,1,3.33,1,4.64,2.34,4.64,4.74,0,2.88-2.3,4.8-5.76,4.8s-5.66-1.79-5.82-4.86h3.9c.19,1.28.77,1.86,2,1.86a1.46,1.46,0,0,0,1.63-1.41c0-.9-.58-1.31-2.75-2-3.2-1-4.64-2.4-4.64-4.74,0-2.82,2.27-4.7,5.73-4.7s5.44,1.79,5.54,4.8Z"/><path class="cls-24" d="M228.94,139.7a7.86,7.86,0,0,1-8.1,7.78,7.68,7.68,0,0,1-8-7.9c0-4.7,3.3-7.94,8.1-7.94A7.77,7.77,0,0,1,228.94,139.7Zm-12-.13c0,2.56,1.6,4.29,4,4.29a3.94,3.94,0,0,0,4-4.22c0-2.69-1.5-4.35-3.94-4.35S216.9,137,216.9,139.57Z"/><path class="cls-24" d="M247.11,139.7a7.86,7.86,0,0,1-8.1,7.78,7.68,7.68,0,0,1-8-7.9c0-4.7,3.3-7.94,8.1-7.94A7.77,7.77,0,0,1,247.11,139.7Zm-12-.13c0,2.56,1.6,4.29,4,4.29a3.94,3.94,0,0,0,4-4.22c0-2.69-1.5-4.35-3.94-4.35S235.08,137,235.08,139.57Z"/><path class="cls-24" d="M254.18,132.15V134a4.25,4.25,0,0,1,4-2.34,5.3,5.3,0,0,1,3.65,1.38c1,1,1.31,2.14,1.31,4.58V147h-4.06v-9.18a3.1,3.1,0,0,0-.35-1.73,2.32,2.32,0,0,0-2-1,2.64,2.64,0,0,0-2.62,2.91v9h-4.06V132.15Z"/></svg>